<?xml version="1.0" encoding="UTF-8" standalone="no"?>
<!-- Created with Inkscape (http://www.inkscape.org/) -->

<svg
   xmlns:dc="http://purl.org/dc/elements/1.1/"
   xmlns:cc="http://creativecommons.org/ns#"
   xmlns:rdf="http://www.w3.org/1999/02/22-rdf-syntax-ns#"
   xmlns:svg="http://www.w3.org/2000/svg"
   xmlns="http://www.w3.org/2000/svg"
   xmlns:sodipodi="http://sodipodi.sourceforge.net/DTD/sodipodi-0.dtd"
   xmlns:inkscape="http://www.inkscape.org/namespaces/inkscape"
   width="2048"
   height="1024"
   id="svg2"
   version="1.1"
   inkscape:version="0.48.3.1 r9886"
   sodipodi:docname="fairness_mvc.svg">
  <defs
     id="defs4" />
  <sodipodi:namedview
     id="base"
     pagecolor="#ffffff"
     bordercolor="#666666"
     borderopacity="1.0"
     inkscape:pageopacity="0.0"
     inkscape:pageshadow="2"
     inkscape:zoom="0.98994949"
     inkscape:cx="683.86241"
     inkscape:cy="754.28994"
     inkscape:document-units="px"
     inkscape:current-layer="layer1"
     showgrid="false"
     inkscape:window-width="1920"
     inkscape:window-height="1028"
     inkscape:window-x="0"
     inkscape:window-y="0"
     inkscape:window-maximized="1">
    <inkscape:grid
       type="xygrid"
       id="grid2985"
       empspacing="8"
       visible="true"
       enabled="true"
       snapvisiblegridlinesonly="true"
       spacingx="16px"
       spacingy="16px" />
  </sodipodi:namedview>
  <metadata
     id="metadata7">
    <rdf:RDF>
      <cc:Work
         rdf:about="">
        <dc:format>image/svg+xml</dc:format>
        <dc:type
           rdf:resource="http://purl.org/dc/dcmitype/StillImage" />
        <dc:title />
      </cc:Work>
    </rdf:RDF>
  </metadata>
  <g
     inkscape:label="Layer 1"
     inkscape:groupmode="layer"
     id="layer1"
     transform="translate(0,-28.362183)">
    <g
       id="g3054">
      <path
         id="path3833"
         d="m 157.19711,250.49355 c -0.7531,-0.52904 -1.53773,-1.1107 -2.26283,-1.67752 -0.72511,-0.56681 -1.479,-1.1878 -2.17421,-1.7909 -0.69522,-0.60311 -1.41641,-1.26178 -2.07991,-1.89961 -0.6635,-0.63782 -1.35011,-1.33247 -1.98018,-2.00335 -0.63005,-0.67088 -1.28029,-1.39969 -1.87527,-2.10187 -0.59497,-0.70219 -1.20714,-1.46325 -1.76547,-2.1949 -0.55834,-0.73166 -1.13083,-1.523 -1.65108,-2.28222 -0.52023,-0.75921 -1.05157,-1.57875 -1.53235,-2.36355 -0.48079,-0.78479 -0.96957,-1.63041 -1.40965,-2.43873 -0.44008,-0.80833 -0.88503,-1.6778 -1.28325,-2.50755 -0.39822,-0.82975 -0.79819,-1.72081 -1.15351,-2.5698 -0.35532,-0.84901 -0.70925,-1.75934 -1.02076,-2.62538 -0.31149,-0.86604 -0.61847,-1.79325 -0.88533,-2.67408 -0.26686,-0.88081 -0.52609,-1.8225 -0.74762,-2.7158 -0.22152,-0.8933 -0.43231,-1.847 -0.60793,-2.75044 -0.17561,-0.90345 -0.33742,-1.86667 -0.46666,-2.7779 -0.12924,-0.91124 -0.24165,-1.88146 -0.32418,-2.79811 -0.0825,-0.91665 -0.14524,-1.89135 -0.18085,-2.81102 -0.0356,-0.91967 -0.0484,-1.89629 -0.037,-2.81658 0.0114,-0.92029 0.0485,-1.8963 0.10686,-2.8148 0.0584,-0.9185 0.14524,-1.89135 0.25047,-2.80567 0.10523,-0.91432 0.24165,-1.88146 0.39344,-2.78921 0.15179,-0.90776 0.33743,-1.86667 0.53538,-2.76548 0.19795,-0.89882 0.43232,-1.847 0.67592,-2.73453 0.2436,-0.88753 0.52609,-1.8225 0.8147,-2.69644 0.28861,-0.87394 0.61848,-1.79325 0.95135,-2.65131 0.33287,-0.85806 0.70927,-1.75933 1.08552,-2.59926 0.37626,-0.83994 0.7982,-1.72081 1.21686,-2.54043 0.41866,-0.81962 0.88504,-1.67779 1.34501,-2.47496 0.45998,-0.79717 0.96957,-1.63041 1.46966,-2.40305 0.5001,-0.77263 1.05158,-1.57875 1.59048,-2.32484 0.5389,-0.74608 1.13084,-1.52299 1.70714,-2.24058 0.5763,-0.71759 1.20713,-1.46325 1.81934,-2.15047 0.61219,-0.68722 1.2803,-1.39968 1.92679,-2.05474 0.6465,-0.65506 1.35012,-1.33247 2.02922,-1.95365 0.67912,-0.62119 1.41641,-1.26178 2.12636,-1.84747 0.70995,-0.58569 1.479,-1.18779 2.21793,-1.73646 0.73894,-0.54866 1.53773,-1.1107 2.30373,-1.62091 0.76599,-0.51021 1.59245,-1.03072 2.3835,-1.50114 0.79105,-0.47042 1.64302,-0.94804 2.45706,-1.37745 0.81405,-0.42941 1.6893,-0.86289 2.52421,-1.25016 0.83491,-0.38727 1.73115,-0.77549 2.58475,-1.11961 0.85361,-0.34412 1.76851,-0.68606 2.63858,-0.98614 0.87006,-0.30008 1.80123,-0.59484 2.68548,-0.85009 0.88426,-0.25526 1.82927,-0.50208 2.72541,-0.71183 0.89614,-0.20976 1.85252,-0.40799 2.7582,-0.57171 0.90568,-0.16371 1.87094,-0.31284 2.78379,-0.43009 0.91286,-0.11724 1.88448,-0.21688 2.80214,-0.28735 0.91766,-0.0705 1.89309,-0.12035 2.81315,-0.14386 0.92006,-0.0235 1.89676,-0.0235 2.81682,0 0.92006,0.0235 1.8955,0.0734 2.81315,0.14386 0.91766,0.0705 1.88928,0.17011 2.80214,0.28735 0.91286,0.11725 1.87812,0.26638 2.78379,0.43009 0.90569,0.16372 1.86207,0.36195 2.7582,0.57171 0.89614,0.20975 1.84116,0.45657 2.72541,0.71183 0.88425,0.25525 1.81542,0.55001 2.68548,0.85009 0.87007,0.30008 1.78497,0.64202 2.63858,0.98614 0.8536,0.34412 1.74984,0.73234 2.58476,1.11961 0.8349,0.38727 1.71016,0.82075 2.5242,1.25016 0.81405,0.42941 1.66601,0.90703 2.45706,1.37745 0.79105,0.47042 1.61751,0.99093 2.3835,1.50114 0.766,0.51021 1.5648,1.07225 2.30373,1.62091 0.73894,0.54867 1.50799,1.15077 2.21794,1.73646 0.70995,0.58569 1.44724,1.22628 2.12635,1.84747 0.67911,0.62118 1.38272,1.29859 2.02922,1.95365 0.6465,0.65506 1.3146,1.36752 1.9268,2.05474 0.6122,0.68722 1.24304,1.43288 1.81934,2.15047 0.5763,0.71759 1.16824,1.4945 1.70713,2.24058 0.53891,0.74609 1.09039,1.55221 1.59048,2.32484 0.50009,0.77264 1.00969,1.60587 1.46966,2.40305 0.45998,0.79717 0.92636,1.65534 1.34502,2.47496 0.41866,0.81962 0.8406,1.70049 1.21685,2.54043 0.37626,0.83993 0.75265,1.7412 1.08552,2.59926 0.33287,0.85806 0.66274,1.77737 0.95136,2.65131 0.2886,0.87394 0.57109,1.80891 0.8147,2.69644 0.24359,0.88753 0.47796,1.83571 0.67591,2.73453 0.19796,0.89881 0.38359,1.85772 0.53538,2.76548 0.15179,0.90775 0.28822,1.87489 0.39344,2.78921 0.10524,0.91432 0.19208,1.88717 0.25048,2.80567 0.0584,0.9185 0.0954,1.89451 0.10685,2.8148 0.0114,0.92029 -10e-4,1.89691 -0.037,2.81658 -0.0356,0.91967 -0.0983,1.89437 -0.18086,2.81102 -0.0825,0.91665 -0.19493,1.88687 -0.32417,2.79811 -0.12925,0.91123 -0.29106,1.87445 -0.46667,2.7779 -0.17561,0.90344 -0.38641,1.85714 -0.60793,2.75044 -0.22152,0.8933 -0.48075,1.83499 -0.74761,2.7158 -0.26686,0.88083 -0.57384,1.80804 -0.88534,2.67408 -0.3115,0.86604 -0.66544,1.77637 -1.02076,2.62538 -0.35532,0.84899 -0.75529,1.74005 -1.15351,2.5698 -0.39822,0.82975 -0.84317,1.69922 -1.28325,2.50755 -0.44007,0.80832 -0.92886,1.65394 -1.40964,2.43873 -0.48079,0.7848 -1.01212,1.60434 -1.53236,2.36355 -0.52024,0.75922 -1.09274,1.55056 -1.65107,2.28222 -0.55834,0.73165 -1.1705,1.49271 -1.76548,2.1949 -0.59497,0.70218 -1.24521,1.43099 -1.87527,2.10187 -0.63006,0.67088 -1.31667,1.36553 -1.98017,2.00335 -0.6635,0.63783 -1.3847,1.2965 -2.07991,1.89961 -0.69521,0.6031 -1.4491,1.22409 -2.17421,1.7909 -0.72517,0.56682 -1.50979,1.14848 -2.2629,1.67752"
         style="fill:none;stroke:#000000;stroke-width:2.5;stroke-miterlimit:4;stroke-dasharray:none"
         inkscape:connector-curvature="0" />
      <path
         id="path3835"
         d="m 156.74218,250.16701 -42.49094,59.19993 m 41.58777,-59.86221 -43.68475,58.32458 m 42.79517,-59.00507 -44.86052,57.42516 m 43.98499,-58.12357 -46.01775,56.50203 m 45.15657,-57.21809 -47.15603,55.55559 m 46.30953,-56.28899 -48.27479,54.58622 m 47.44344,-55.33667 -49.37373,53.59433 m 48.55776,-54.3615 -50.45222,52.58031 m 49.65197,-53.36391 -51.509865,51.5446 M 149.13454,243.57546 96.588215,294.06308 M 148.36677,242.76001 94.805774,292.1698 m 52.809996,-50.24068 -54.553616,48.3116 M 146.88182,241.08316 91.358044,288.2766 M 146.1652,240.22246 89.694195,286.27828 M 145.46615,239.34739 88.071296,284.24657 M 144.78507,238.45828 86.489983,282.18232 M 144.12219,237.55553 84.950945,280.08637 M 143.4778,236.63951 83.454759,277.95958 m 59.397371,-42.24901 -60.850013,40.09227 m 60.243353,-41.03371 -61.651877,38.84792 m 61.064447,-39.8015 -62.428276,37.58754 m 61.860316,-38.55286 -63.178874,36.31165 m 62.630734,-37.2883 -63.903561,35.02077 M 140.01366,230.886 75.411918,264.60143 M 139.5056,229.88788 74.232283,262.28407 m 64.785587,-33.40441 -65.917878,31.06357 m 65.450768,-32.0815 -66.535311,29.71814 m 66.088941,-30.74535 -67.125218,28.36045 m 66.699868,-29.3965 -67.687477,26.99103 m 67.283207,-28.03553 -68.2218,25.6105 m 67.83884,-26.66297 -68.727958,24.21938 m 68.366478,-25.27943 -69.205775,22.81828 m 68.865905,-23.88545 -69.655036,21.40776 m 69.336866,-22.48161 -70.075484,19.9884 M 135.57607,219.42034 65.108988,237.98113 M 135.3018,218.33445 64.4722,235.45998 m 70.57744,-18.21677 -71.162793,15.6832 m 70.932873,-16.77934 -71.466736,14.2344 M 134.61214,215.04649 62.870958,227.82621 M 134.42691,213.94192 62.441,225.26169 m 71.8232,-12.42787 -72.201033,9.85514 m 72.060843,-10.96632 -72.386322,8.38645 m 72.268712,-9.50024 -72.541719,6.91429 m 72.446799,-8.03025 -72.667221,5.43929 m 72.594931,-6.55695 -72.76271,3.96205 m 72.71318,-5.08094 -72.8282,2.48316 m 72.80142,-3.60283 -72.863625,1.00325 m 72.859595,-2.12322 -72.868983,-0.47708 m 72.887693,-0.64275 -72.844265,-1.95721 m 72.885685,0.83798 -72.789441,-3.43652 m 72.853661,2.31838 -72.704601,-4.91443 m 72.791451,3.79781 -72.589748,-6.3903 m 72.699298,5.27569 -72.445009,-7.86354 m 72.577199,6.75137 -72.270325,-9.33352 m 72.425025,8.22427 -72.065795,-10.79966 m 72.243015,9.69379 -71.831545,-12.26136 M 134.7434,194.99893 63.175702,181.28095 M 134.96538,193.90116 63.691133,178.73223 M 135.20965,192.80813 64.258229,176.1945 M 135.47603,191.72029 64.876759,173.66881 M 135.76447,190.63808 65.546491,171.15622 M 136.07486,189.56196 66.267082,168.65774 M 136.40702,188.49236 67.0383,166.17441 m 69.72254,21.25533 -68.90104,-23.72248 m 69.27639,22.66725 -68.404954,-25.1172 m 68.801684,24.06983 -67.880658,-26.50158 m 68.298518,25.46248 -67.328246,-27.875 m 67.767186,26.84459 -66.74813,-29.23692 m 67.20787,28.21565 -66.140433,-30.58677 m 66.620843,29.57504 -65.505486,-31.924 m 66.006346,30.92225 -64.843471,-33.24807 m 65.364611,32.2567 -64.154738,-34.55842 M 140.89299,178.25092 77.453486,142.39643 M 141.45392,177.28154 78.755859,140.14577 M 142.03443,176.32373 80.103676,137.92201 M 142.6343,175.37793 81.496361,135.7261 M 143.25324,174.44451 82.933395,133.55893 M 143.891,173.52385 84.414145,131.4214 M 144.54737,172.61634 85.938035,129.31439 M 145.222,171.72234 87.504374,127.23876 m 58.410286,43.60348 -56.802075,-45.64685 m 57.512525,44.781 -55.863133,-46.79128 M 147.3529,169.12515 92.451803,121.20874 M 148.09791,168.28886 94.181485,119.26711 M 148.85974,167.46789 95.950275,117.36102 M 149.6381,166.66256 97.757368,115.49125 m 52.675282,50.38194 -50.83058,-52.21462 m 51.64096,51.44158 -49.7594,-53.2364 m 50.58533,52.47997 -48.66771,-54.23621 m 49.50886,53.49671 -47.55593,-55.21362 m 48.41193,54.49136 -46.42456,-56.16825 m 47.29501,55.46354 -45.27395,-57.09972 m 46.15858,56.41283 -44.10474,-58.00762 m 45.00313,57.33883 -42.91727,-58.89156 m 43.82908,58.24117 -41.71218,-59.75121 m 42.63701,59.11948 -40.48981,-60.58621 m 41.42725,59.97339 -39.25073,-61.3962 m 40.20044,60.80254 -37.99547,-62.18084 m 38.95704,61.60661 -36.72448,-62.93984 m 37.69752,62.38525 -35.43836,-63.67285 m 36.42245,63.13815 -34.13765,-64.3796 m 35.13246,63.865 -32.82284,-65.05977 m 33.82784,64.56548 -31.49449,-65.7131 m 32.50934,65.23932 -30.15312,-66.33929 m 31.17736,65.88623 -28.79931,-66.93812 m 29.83254,66.50597 -27.43359,-67.50933 m 28.47545,67.09824 -26.05662,-68.05267 m 27.10655,67.66284 -24.66883,-68.56793 m 25.72647,68.19951 -23.27085,-69.0549 M 172.34859,152.78536 150.48523,83.272 m 22.93506,69.1882 -20.44671,-69.94314 m 21.52486,69.63982 -19.02172,-70.34405 m 20.10581,70.06269 -17.58889,-70.71593 m 18.67844,70.45665 -16.14875,-71.05864 m 17.24337,70.82155 -14.70198,-71.37201 m 15.80116,71.1572 -13.24911,-71.65594 m 14.35243,71.4635 -11.79077,-71.91029 m 12.89783,71.7403 -10.32764,-72.13495 m 11.43787,71.9875 -8.86019,-72.32987 m 9.97319,72.20498 -7.38907,-72.49491 m 8.50437,72.39267 -5.91494,-72.63006 m 7.03208,72.55049 -4.43833,-72.73522 m 5.55689,72.67837 -2.95992,-72.81038 m 4.07939,72.77626 -1.48026,-72.85548 m 2.60019,72.84409 0,-72.87051 m 1.11993,72.8819 1.48025,-72.85548 m -0.36079,72.8896 2.95991,-72.81038 m -1.84136,72.86723 4.43833,-72.73522 m -3.32117,72.81479 5.91492,-72.63006 m -4.79961,72.7323 7.38908,-72.49491 m -6.27607,72.6198 8.86017,-72.32987 m -7.74994,72.47732 10.32763,-72.13495 m -9.22062,72.30494 11.79081,-71.91029 m -10.68747,72.10273 13.24913,-71.65594 m -12.14994,71.87075 14.70198,-71.37201 m -13.60737,71.6091 16.14876,-71.05864 m -15.0592,71.31792 17.58888,-70.71593 m -16.50481,70.99729 19.02174,-70.34405 m -17.9436,70.64737 20.44675,-69.94314 M 205.4312,152.78536 227.29453,83.272 m -20.7984,69.86023 23.27087,-69.0549 m -22.21322,69.42332 24.66882,-68.56793 m -23.61887,68.95776 26.05659,-68.05267 m -25.01477,68.46376 27.43361,-67.50933 M 210.67881,154.73372 239.4781,87.7956 m -27.77504,67.39118 30.15311,-66.33929 m -29.13826,66.81307 31.49447,-65.7131 m -30.48945,66.20739 32.82283,-65.05977 m -31.82808,65.57437 34.13766,-64.3796 m -33.15354,64.9143 35.43838,-63.67285 m -34.46535,64.22744 36.7245,-62.93984 m -35.76292,63.51407 37.99545,-62.18084 m -37.04574,62.7745 39.25072,-61.3962 m -38.31326,62.00902 40.4898,-60.58621 m -39.56499,61.21794 41.71216,-59.75121 m -40.80037,60.4016 42.91732,-58.89156 m -42.01892,59.56035 44.10474,-58.00762 m -43.22012,58.69451 45.27398,-57.09972 m -44.4035,57.80443 46.42454,-56.16825 m -45.56855,56.89051 47.55594,-55.21362 m -46.7148,55.95312 48.66771,-54.23621 m -47.84176,54.99264 49.75939,-53.2364 m -48.94899,54.00944 50.83056,-52.21462 m -50.03601,53.00399 51.88072,-51.17131 m -51.10238,51.97664 52.90949,-50.10687 m -52.14767,50.92784 53.91642,-49.02175 m -53.17143,49.85804 54.90109,-47.91641 m -54.17325,48.76765 55.86312,-46.79128 m -55.15271,47.65713 56.80209,-45.64685 m -56.10943,46.52695 57.71762,-44.48358 m -57.04297,45.37758 58.60932,-43.30195 m -57.95297,44.20946 59.47684,-42.10245 m -58.83906,43.02311 60.31982,-40.88558 m -59.70088,41.819 61.13791,-39.65183 m -60.53806,40.59763 61.93077,-38.40172 m -61.35025,39.35953 62.69806,-37.13577 m -62.13711,38.10515 63.43948,-35.85449 m -62.89835,36.83508 64.15472,-34.55842 m -63.63361,35.54979 64.84349,-33.24807 m -64.34263,34.24982 65.50549,-31.924 m -65.02509,32.93573 66.14047,-30.58677 m -65.68072,31.60804 66.74815,-29.23692 m -66.30923,30.26733 67.32828,-27.875 m -66.91038,28.9141 67.88062,-26.50158 m -67.48392,27.54895 68.40496,-25.1172 m -68.02962,26.17243 68.90106,-23.72248 m -68.54724,24.7851 69.36874,-22.31795 m -69.03656,23.38755 69.80777,-20.90422 m -69.4974,21.98034 70.21801,-19.48186 m -69.92955,20.56407 70.59926,-18.05148 m -70.33286,19.13932 70.95139,-16.61363 m -70.70714,17.70666 71.27423,-15.16893 m -71.05223,16.2667 71.56766,-13.71798 m -71.368,14.82003 71.83155,-12.26136 m -71.65432,13.36723 72.0658,-10.79966 m -71.91108,11.90891 72.27031,-9.33352 m -72.13814,10.44569 72.44499,-7.86354 m -72.33545,8.97815 72.58978,-6.3903 m -72.5029,7.50692 72.70461,-4.91443 m -72.64043,6.03257 72.78943,-3.43652 m -72.74798,4.55575 72.84423,-1.95721 m -72.82552,3.07704 72.86895,-0.47708 m -72.87299,1.59705 72.8636,1.00325 m -72.8904,0.11642 72.8282,2.48316 m -72.87773,-1.36427 72.76272,3.96205 m -72.83497,-2.84439 72.66723,5.43929 m -72.76218,-4.32333 72.54175,6.91429 m -72.65933,-5.8005 72.38632,8.38645 m -72.52651,-7.27527 72.20103,9.85514 m -72.36377,-8.74704 71.98595,11.31977 m -72.17115,-10.2152 71.74114,12.77972 m -71.94875,-11.67914 71.46673,14.2344 m -71.69665,-13.13826 71.16283,15.6832 m -71.41497,-14.59196 70.82957,17.12553 m -71.10383,-16.03964 70.46708,18.56079 m -70.76334,-17.4807 70.07551,19.9884 m -70.39364,-18.91455 69.655,21.40776 m -69.99489,-20.34059 69.20577,22.81828 m -69.56726,-21.75823 68.72796,24.21938 m -69.11091,-23.16691 68.2218,25.6105 m -68.62605,-24.566 67.68748,26.99103 m -68.11287,-25.95498 67.12524,28.36045 m -67.57159,-27.33324 66.53529,29.71814 m -67.0024,-28.70021 65.91787,31.06357 m -66.40557,-30.05535 65.27326,32.39619 m -65.78134,-31.39807 64.60171,33.71543 m -65.12996,-32.72785 63.90351,35.02077 m -64.45172,-34.04412 63.17893,36.31165 m -63.74685,-35.34633 62.42826,37.58754 m -63.01568,-36.63396 61.65185,38.84792 m -62.25853,-37.90648 60.85,40.09227 m -61.47567,-39.16333 60.02303,41.32007 m -60.66743,-40.40405 59.17128,42.53084 m -59.83416,-41.62809 58.29512,43.72404 m -58.97621,-42.83493 57.3949,44.89918 m -58.09391,-44.02411 56.471,46.05582 m -57.18763,-45.19512 55.52379,47.19344 m -56.25776,-46.34748 54.55366,48.3116 m -55.30467,-47.48071 53.56103,49.40979 m -54.32876,-48.59434 52.54628,50.48762 m -53.33041,-49.68793 51.50986,51.5446 m -52.31009,-50.761 50.45219,52.58031 m -51.26816,-51.81314 49.37369,53.59433 m -50.20508,-52.84388 48.27481,54.58622 m -49.12126,-53.85282 47.156,55.55559 m -48.01718,-54.83953 46.01774,56.50203 m -46.8933,-55.80362 44.8605,57.42516 m -45.75005,-56.74467 43.68473,58.32458 m -44.58793,-57.6623 42.49094,59.19993"
         style="opacity:0.25;fill:none;stroke:#0000ff;stroke-width:0.25;stroke-miterlimit:4;stroke-opacity:1;stroke-dasharray:none"
         inkscape:connector-curvature="0" />
      <path
         transform="matrix(1.5839191,0,0,1.6970563,44.347123,-162.25635)"
         d="m 73.614867,243.21521 a 2.3675451,2.2097087 0 1 1 -4.73509,0 2.3675451,2.2097087 0 1 1 4.73509,0 z"
         sodipodi:ry="2.2097087"
         sodipodi:rx="2.3675451"
         sodipodi:cy="243.21521"
         sodipodi:cx="71.247322"
         id="path3030-73-0"
         style="fill:#ff0000;fill-opacity:1;stroke:none"
         sodipodi:type="arc" />
      <path
         transform="matrix(1.5839191,0,0,1.6970563,107.73263,-162.25635)"
         d="m 73.614867,243.21521 a 2.3675451,2.2097087 0 1 1 -4.73509,0 2.3675451,2.2097087 0 1 1 4.73509,0 z"
         sodipodi:ry="2.2097087"
         sodipodi:rx="2.3675451"
         sodipodi:cy="243.21521"
         sodipodi:cx="71.247322"
         id="path3030-73-2"
         style="fill:#ff0000;fill-opacity:1;stroke:none"
         sodipodi:type="arc" />
    </g>
    <g
       id="g3062">
      <path
         id="path3865"
         d="m 382.46221,254.56032 c -2.47503,-0.39254 -5.12653,-0.64435 -7.63122,-0.72473 -2.50469,-0.0804 -5.16688,6.1e-4 -7.662,0.23392 -2.49512,0.23303 -5.12631,0.64612 -7.57279,1.18891 -2.44648,0.5428 -5.00549,1.28125 -7.36502,2.12532 -2.35953,0.84407 -4.80627,1.89633 -7.04192,3.02847 -2.23564,1.13214 -4.5318,2.48172 -6.60856,3.88419 -2.07674,1.40247 -4.18639,3.02823 -6.07175,4.67904 -1.88536,1.6508 -3.7755,3.52724 -5.44002,5.40049 -1.66452,1.87324 -3.30565,3.9709 -4.72341,6.03719 -1.41776,2.06629 -2.7844,4.35226 -3.93345,6.57918 -1.14905,2.22693 -2.22013,4.66536 -3.08288,7.01804 -0.86275,2.35268 -1.62201,4.90543 -2.18551,7.34711 -0.56351,2.44168 -0.99974,5.06895 -1.25593,7.56167 -0.25618,2.49271 -0.36347,5.15375 -0.30925,7.65899 0.0542,2.50525 0.27648,5.1591 0.63915,7.63853 0.36267,2.47942 0.90977,5.08569 1.57402,7.50184 0.66425,2.41615 1.52632,4.93576 2.48054,7.25273 0.95421,2.31696 2.11648,4.71286 3.3446,6.89701 1.22813,2.18414 2.67131,4.42198 4.15329,6.4425 1.48198,2.02052 3.18279,4.0693 4.89506,5.89876 1.71226,1.82945 3.64401,3.66196 5.56006,5.2767 1.91605,1.61474 4.04923,3.20801 6.14032,4.58854 2.09108,1.38053 4.39419,2.7162 6.62999,3.84743 2.2358,1.13123 4.67603,2.19563 7.02537,3.06695 2.34934,0.87131 4.89334,1.65555 7.32487,2.26074 2.43154,0.60519 5.04618,1.10503 7.5291,1.4422 2.48291,0.33717 5.13598,0.5528 7.64066,0.6241 2.50468,0.0713 5.16553,0.007 7.66411,-0.18166 2.49857,-0.18874 5.13872,-0.52476 7.60555,-0.96438 2.46684,-0.43962 5.06039,-1.03614 7.47248,-1.71471 2.41208,-0.67858 4.93613,-1.52158 7.27338,-2.42491 2.33724,-0.90332 4.77208,-1.97668 7.01751,-3.08882 2.24544,-1.11213 4.57473,-2.39816 6.71457,-3.70197 2.13984,-1.30381 4.3507,-2.78385 6.3744,-4.26152 2.0237,-1.47767 4.10662,-3.13258 6.00678,-4.76607 1.90015,-1.63349 3.84894,-3.44416 5.62117,-5.21564 1.77223,-1.77148 3.58379,-3.71921 5.22655,-5.6114 1.64277,-1.89219 3.3169,-3.95902 4.83125,-5.9555 1.51435,-1.99648 3.05348,-4.16551 4.44279,-6.25094 1.3893,-2.08544 2.79815,-4.34104 4.06779,-6.50141 1.26964,-2.16037 2.5549,-4.48843 3.71204,-6.71111 1.15714,-2.22269 2.32733,-4.61053 3.38072,-6.88424 1.0534,-2.27371 2.11856,-4.71008 3.07824,-7.02491 0.95969,-2.31484 1.93107,-4.78997 2.8081,-7.13736 0.87704,-2.34739 1.76684,-4.85288 2.57311,-7.22551 0.80627,-2.37263 1.6275,-4.90133 2.37553,-7.29296 0.74804,-2.39163 1.51429,-4.93746 2.21715,-7.34277 0.70285,-2.40531 1.42821,-4.96304 2.09932,-7.37741 0.67111,-2.41437 1.37001,-4.97944 2.02308,-7.39876 0.65307,-2.41933 1.34016,-4.98757 1.98907,-7.40802 0.64891,-2.42044 1.33896,-4.98789 1.99763,-7.40569 0.65867,-2.4178 1.36647,-4.98043 2.04877,-7.39166 0.6823,-2.41123 1.4225,-4.96473 2.14215,-7.36507 0.71964,-2.40033 1.50668,-4.93984 2.27712,-7.32436 0.77044,-2.38451 1.6184,-4.90443 2.45268,-7.26737 0.83427,-2.36294 1.75676,-4.85665 2.6674,-7.19123 0.91064,-2.33457 1.92062,-4.79428 2.91944,-7.0925 0.99883,-2.29822 2.10843,-4.71475 3.20638,-6.96727 1.09795,-2.25253 2.31822,-4.61524 3.52508,-6.81131 1.20685,-2.19607 2.54749,-4.4928 3.87157,-6.62026 1.32408,-2.12746 2.79304,-4.34454 4.24097,-6.38971 1.44794,-2.04518 3.05135,-4.16727 4.62787,-6.11502 1.57652,-1.94775 3.31827,-3.95808 5.02583,-5.79199 1.70757,-1.83391 3.58899,-3.71443 5.42749,-5.41702 1.83851,-1.70258 3.85803,-3.43426 5.82452,-4.98725 1.96649,-1.55299 4.1194,-3.1161 6.20782,-4.50077 2.08842,-1.38469 4.3666,-2.75923 6.56763,-3.95684 2.20103,-1.19762 4.5928,-2.36381 6.89371,-3.35604 2.30092,-0.99223 4.79095,-1.93102 7.17557,-2.70055 2.38463,-0.76952 4.95395,-1.4632 7.40271,-1.99425 2.44877,-0.53105 5.07485,-0.96389 7.56495,-1.24287 2.4901,-0.27897 5.14705,-0.43784 7.65268,-0.4539 2.50563,-0.016 5.1646,0.10892 7.65734,0.36333 2.49274,0.25441 5.1223,0.66932 7.57161,1.19791 2.44931,0.52858 5.01608,1.23524 7.38987,2.03748 2.37379,0.80224 4.8431,1.79771 7.10844,2.86851 2.26535,1.07081 4.602,2.34721 6.72587,3.67671 2.12387,1.3295 4.293,2.87377 6.24305,4.44723 1.95005,1.57346 3.91794,3.36739 5.66333,5.16524 1.74539,1.79785 3.48028,3.81814 4.9924,5.81617 1.51211,1.99803 2.98512,4.21663 4.23842,6.38639 1.2533,2.16977 2.43911,4.55437 3.41175,6.86364 0.97265,2.30926 1.85024,4.82378 2.5247,7.23706 0.67447,2.41328 1.2277,5.01854 1.59128,7.49781 0.36359,2.47927 0.58166,5.13375 0.62685,7.63916 0.0452,2.50539 -0.077,5.16607 -0.35231,7.65674 -0.27527,2.49065 -0.73707,5.11386 -1.32935,7.54869 -0.59228,2.43485 -1.38701,4.97711 -2.28731,7.31565 -0.9003,2.33855 -2.01554,4.75745 -3.20948,6.96062 -1.19394,2.20317 -2.61162,4.45821 -4.07971,6.48904 -1.46808,2.03084 -3.16489,4.08414 -4.88283,5.90851 -1.71795,1.82436 -3.66571,3.6414 -5.60491,5.22861 -1.9392,1.5872 -4.10539,3.1374 -6.23342,4.46075 -2.12804,1.32336 -4.4764,2.58063 -6.75762,3.61788 -2.28121,1.03725 -4.77238,1.98047 -7.16853,2.71419 -2.39614,0.73372 -4.98834,1.34706 -7.45922,1.76493 -2.47089,0.41788 -5.12061,0.69105 -7.62479,0.78607 -2.50417,0.095 -5.16699,0.0235 -7.66245,-0.20597 -2.49546,-0.22941 -5.12669,-0.64454 -7.57156,-1.19454"
         style="fill:none;stroke:#000000;stroke-width:2.5;stroke-miterlimit:4;stroke-dasharray:none"
         inkscape:connector-curvature="0" />
      <path
         id="path3867"
         d="m 380.95083,254.35904 7.82654,-58.76843 m -10.85741,58.44133 4.89251,-59.08471 m -7.93593,58.90882 1.94643,-59.25488 m -4.99482,59.23066 -1.00449,-59.27854 m -2.04133,59.40603 -3.95297,-59.15558 m 0.91727,59.43448 -6.89175,-58.88625 m 3.87369,59.31586 -9.81357,-58.47114 m 6.82063,59.05039 -12.71121,-57.91119 m 9.75081,58.63867 -15.57748,-57.20773 m 12.65694,58.08162 -18.40523,-56.36238 m 15.5318,57.38052 -21.18739,-55.37715 m 18.3682,56.53701 -23.91701,-54.25438 m 21.15902,55.55311 -26.58717,-52.99678 m 23.89724,54.43114 -29.19113,-51.60735 m 26.5759,53.1738 -31.72222,-50.0895 m 29.18819,51.78412 -34.17396,-48.44689 m 31.7274,50.26552 -36.54001,-46.68361 m 34.18696,48.62171 -38.8142,-44.80401 m 36.5605,46.85677 -40.99055,-42.8128 m 38.84176,44.97513 -43.06331,-40.71503 m 41.02473,42.98156 -45.02695,-38.51604 m 43.10362,40.88114 -46.8762,-36.22152 m 45.07284,38.6793 -48.60604,-33.83743 m 46.92707,36.38181 -50.21176,-31.37007 m 48.6613,33.99473 -51.68898,-28.82603 m 50.27081,31.52445 -53.03365,-26.21214 m 51.75121,28.97764 -54.2421,-23.53554 m 53.09847,26.36126 -55.31099,-20.80357 m 54.30892,23.68254 -56.23748,-18.02384 m 55.37932,20.94892 -57.01904,-15.20411 m 56.3068,18.1681 -57.65367,-12.35238 m 57.08898,15.34798 -58.13981,-9.47674 m 57.7239,12.49658 -58.47632,-6.58543 m 58.21006,9.62213 -58.6626,-3.68681 m 58.54646,6.73294 -58.69852,-0.78929 m 58.7326,3.83743 -58.58445,2.09871 m 58.76844,0.94407 -58.32126,4.96869 m 58.6545,-1.93863 -57.91034,7.81226 m 58.39177,-4.80221 -57.3536,10.62105 m 57.98181,-7.63815 -56.65349,13.38672 m 57.42667,-10.4381 -55.81296,16.10117 m 56.72895,-13.19375 -54.83549,18.75641 m 55.89182,-15.89698 -53.72513,21.34467 m 54.91893,-18.53986 -52.4864,23.85843 m 53.81451,-21.11467 -51.1244,26.2905 m 52.58334,-23.61401 -49.6447,28.63407 m 51.23068,-26.03085 -48.05339,30.88273 m 49.76234,-28.35852 -46.35703,33.03056 m 48.18461,-30.59086 -44.56263,35.07224 m 46.50426,-32.72228 -42.6776,37.00303 m 44.72844,-34.74774 -40.70798,38.81722 m 42.86301,-36.66124 -38.66225,40.51126 m 40.91621,-38.45895 -36.54819,42.08148 m 38.89568,-40.13686 -34.37351,43.52427 m 36.80895,-41.69101 -32.14641,44.83681 m 34.66413,-43.11828 -29.87544,46.01708 m 32.46962,-44.41628 -27.56925,47.06375 m 30.234,-45.58337 -25.2366,47.9762 m 27.96595,-46.61858 -22.88617,48.75443 m 25.67412,-47.52155 -20.52655,49.39903 m 23.36705,-48.29254 -18.16612,49.91109 m 21.05314,-48.93232 -15.81313,50.29227 M 360.23156,376.9454 346.756,427.49007 m 16.43759,-49.82392 -11.16119,50.67083 m 14.1518,-50.07975 -8.87749,50.67379 m 11.89086,-50.21237 -6.63168,50.55695 m 9.66203,-50.2249 -4.43063,50.32418 m 7.47235,-50.12092 -2.28092,49.97976 m 5.32851,-49.90439 -0.18876,49.52833 m 3.23686,-49.5797 1.84007,48.97491 m 1.20334,-49.15162 3.80018,48.32489 m -0.76643,-48.62527 5.6866,47.58392 m -2.66739,-48.00606 7.49489,46.75793 m -4.4948,-47.29975 9.22102,45.85312 m -6.24449,-46.5123 10.86152,44.87579 m -7.91275,-45.64981 12.41341,43.83239 m -9.49635,-44.71862 13.87417,42.72949 m -10.99258,-43.72508 15.24184,41.57357 m -12.39921,-42.67557 16.51487,40.37115 m -13.71446,-41.5765 17.6922,39.12868 m -14.93703,-40.43419 18.7732,37.85244 m -16.06604,-39.25485 19.75768,36.54858 m -17.10105,-38.04456 20.64577,35.22309 m -18.04194,-36.80923 21.43799,33.88167 m -18.889,-35.55457 22.13518,32.5299 m -19.64281,-34.28607 22.73848,31.17302 m -20.30428,-33.009 23.24929,29.81608 m -20.87457,-31.72841 23.66929,28.46388 m -21.35511,-30.44909 24.00039,27.12092 m -21.74761,-29.17557 24.24475,25.79149 m -22.054,-27.9122 24.40476,24.4796 m -22.27643,-26.663 24.48299,23.18903 m -22.41731,-25.43182 24.48233,21.92327 m -22.47927,-24.22222 24.40579,20.6856 m -22.46518,-23.03755 24.25669,19.47904 m -22.37814,-21.88087 24.03856,18.3063 M 449.99283,339.1589 473.748,356.3288 m -21.99892,-19.66263 23.41053,16.07207 m -21.71418,-18.60596 23.00892,15.01476 m -21.37148,-17.58712 22.5549,13.99966 m -20.97517,-16.60788 22.04999,13.02631 m -20.52668,-15.6679 21.49049,12.0914 m -20.02218,-14.76399 20.88112,11.19672 m -19.46624,-13.89801 20.22634,10.3434 m -18.86323,-13.07121 19.53026,9.53197 m -18.21713,-12.28421 18.79651,8.76242 m -17.53148,-11.53714 18.02839,8.03432 m -16.80951,-10.82963 17.22887,7.34687 m -16.05409,-10.16101 16.40063,6.699 m -15.26782,-9.53032 15.54605,6.0894 m -14.45304,-8.93634 14.66739,5.51655 m -13.61191,-8.37762 13.76662,4.97875 m -12.7464,-7.85259 12.84569,4.47419 m -11.85834,-7.3595 11.9063,4.0009 m -10.94944,-6.89648 10.95015,3.55686 m -10.0213,-6.46155 9.97876,3.13985 m -9.07547,-6.05261 8.9937,2.74769 m -8.11342,-5.66749 7.9964,2.37801 m -7.1366,-5.30392 6.98827,2.02842 m -6.14634,-4.95954 5.9707,1.69648 m -5.14407,-4.63196 4.94504,1.37965 m -4.13105,-4.31867 3.9126,1.07534 m -3.10864,-4.01713 2.87471,0.78097 m -2.0781,-3.72476 1.83263,0.49384 m -1.04071,-3.4389 0.78767,0.21129 m 0.002,-3.1569 -0.25892,-0.0694 m 1.04949,-2.87604 -1.30587,-0.35093 m 2.09978,-2.5936 -2.35191,-0.63603 m 3.15184,-2.30685 -3.39576,-0.92746 m 4.20438,-2.01305 -4.43616,-1.22788 m 5.25614,-1.70947 -5.47183,-1.54001 m 6.30581,-1.39338 -6.50144,-1.86651 m 7.35206,-1.0621 -7.52367,-2.21001 m 8.39356,-0.71291 -8.53718,-2.5731 m 9.42892,-0.34323 -9.54054,-2.95831 m 10.4567,0.0496 -10.5323,-3.36813 m 11.47541,0.46803 -11.51095,-3.80496 m 12.48355,0.91462 -12.4749,-4.27115 m 13.47942,1.39177 -13.4224,-4.76894 m 14.46128,1.90177 -14.35166,-5.30047 m 15.42728,2.4469 -15.26067,-5.86776 m 16.37536,3.02924 -16.14725,-6.4727 m 17.30326,3.65077 -17.00899,-7.11696 m 18.20854,4.31329 -17.84325,-7.80202 m 19.08847,5.01835 -18.64704,-8.52909 m 19.93998,5.76729 -19.41703,-9.29901 m 20.75967,6.56106 -20.14951,-10.1123 m 21.54371,7.40027 -20.84033,-10.96888 m 22.28785,8.28497 -21.48483,-11.86811 m 22.98734,9.21462 -22.07815,-12.80877 m 23.63717,10.18809 -22.62383,-13.79433 m 24.24075,11.209 -23.12045,-14.82581 m 24.79654,12.27845 -23.56314,-15.90198 m 25.29952,13.39538 -23.94728,-17.02134 m 25.74495,14.55833 -24.26852,-18.18206 m 26.12828,15.76565 -24.52268,-19.3821 m 26.44519,17.01533 -24.70583,-20.61906 m 26.69154,18.30512 -24.81419,-21.89031 m 26.86338,19.63244 -24.84426,-23.19291 m 26.95701,20.99445 -24.79266,-24.52363 m 26.96884,22.38798 -24.65627,-25.87896 m 26.89552,23.80958 -24.43212,-27.25506 m 26.73388,25.25548 -24.11748,-28.64782 m 26.48093,26.72158 -23.7098,-30.0528 m 26.1339,28.20352 -23.20677,-31.46528 m 25.69024,29.69656 -22.60634,-32.88019 m 25.14763,31.19566 -21.90669,-34.29218 m 24.504,32.69543 -21.1063,-35.69558 m 23.75761,34.19021 -20.204,-37.08441 m 22.90697,35.67399 -19.19895,-38.45247 m 21.951,37.14048 -18.09068,-39.79322 m 20.889,38.58311 -16.87919,-41.09998 m 19.72065,39.99506 -15.56492,-42.36578 m 18.44617,41.36932 -14.14879,-43.5836 m 17.06619,42.69868 -12.63224,-44.74622 m 15.58192,43.97583 -11.01727,-45.84647 m 13.99493,45.1934 -9.30643,-46.87712 m 12.30802,46.34405 -7.50281,-47.83102 m 10.52356,47.42035 -5.61012,-48.70115 m 8.64519,48.41512 -3.63259,-49.48068 m 6.67691,49.32127 -1.57501,-50.16301 m 4.62333,50.13197 0.5573,-50.7418 m 2.48956,50.8406 2.7585,-51.21106 m 0.28127,51.44091 5.02231,-51.56514 m -1.99543,51.92694 7.34194,-51.79879 m -4.33387,52.29313 9.71022,-51.90717 m -6.72704,52.53434 12.11957,-51.8859 m -9.16743,52.64583 14.56201,-51.73099 m -11.64717,52.62328 17.02922,-51.43898 m -14.15799,52.46289 19.51257,-51.00689 m -16.69131,52.1613 22.00309,-50.43225 m -19.23816,51.71569 24.49155,-49.71316 m -21.78932,51.1238 26.96847,-48.84833 m -24.33527,50.38394 29.42418,-47.8371 m -26.86629,49.49511 31.84891,-46.67956 m -29.37254,48.45698 34.23287,-45.37653 m -31.84408,47.27007 36.56635,-43.92972 m -34.27115,45.93565 38.84,-42.34168 m -36.64418,44.45596 41.04488,-40.61593 m -38.9541,42.83412 43.17194,-38.75603 m -41.19164,41.07337 45.21161,-36.76574 m -43.34701,39.17715 47.15687,-34.65112 m -45.41265,37.15119 48.99902,-32.41702 m -47.38049,35 50.7298,-30.0691 m -49.24107,32.72902 52.34143,-27.61373 m -50.98664,30.3443 53.82673,-25.05786 m -52.60967,27.85254 55.17903,-22.409 m -54.10317,25.26102 56.39227,-19.67515 m -55.4607,22.57751 57.46099,-16.86468 m -56.67646,19.81019 58.38035,-13.9863 m -57.7451,16.96761 59.14609,-11.04901 m -58.66229,14.05858 59.75459,-8.06203 m -59.42369,11.09224 60.20285,-5.03476 m -60.02601,8.07785 60.48847,-1.97672 m -60.46641,5.02487 60.60968,1.10244 m -60.74272,1.94289 60.56529,4.19306 m -60.85331,-1.15846 60.35474,7.28544 m -60.7972,-4.26948 59.97808,10.36993 m -60.57403,-7.38051 59.43593,13.43694 m -60.18397,-10.48189 58.72948,16.47694 m -59.62781,-13.56406 57.86054,19.48063 m -58.90695,-16.6176 56.83143,22.43881 m -58.02326,-19.63319 55.645,25.3425 m -56.97924,-22.60173 54.30466,28.183 m -55.77786,-25.51435 52.81425,30.95183 m -54.42261,-28.36237 51.1781,33.64083 m -52.91745,-31.13746 49.40103,36.24216 m -51.26679,-33.83153 47.48816,38.74831 m -49.47547,-36.43684 45.4451,41.15211 m -47.54871,-38.94595 43.27772,43.44679 m -45.49209,-41.3518 40.99228,45.62592 m -43.31156,-43.6477 38.5953,47.68349 m -41.01336,-45.8273 36.0936,49.61388 m -38.60404,-47.88465 33.49422,51.41183 m -36.09037,-49.81418 30.80442,53.07256 m -33.47942,-51.61074 28.03168,54.59163 m -30.77842,-53.26951 25.18365,55.96504 m -27.99485,-54.78614 22.26815,57.18918 m -25.13634,-56.15666 19.29313,58.26094 m -22.21069,-57.37751 16.26665,59.17752 m -19.22585,-58.44555 13.19688,59.93662 m -16.18986,-59.35804 10.09207,60.53633 m -13.11088,-60.11268 6.96053,60.97519 m -9.99716,-60.70759 3.81059,61.25216 m -6.85697,-61.14133 0.65063,61.36659 m -3.69868,-61.41281 -2.51099,61.31827 m -0.53064,-61.52142 -5.6659,61.10742 m 2.63878,-61.46696 -8.80581,60.73461 m 5.80122,-61.2496 -11.9224,60.20083"
         style="opacity:0.25;fill:none;stroke:#0000ff;stroke-width:0.25;stroke-miterlimit:4;stroke-opacity:1;stroke-dasharray:none"
         inkscape:connector-curvature="0" />
      <path
         transform="matrix(1.5839191,0,0,1.6970563,269.61223,-158.18958)"
         d="m 73.614867,243.21521 a 2.3675451,2.2097087 0 1 1 -4.73509,0 2.3675451,2.2097087 0 1 1 4.73509,0 z"
         sodipodi:ry="2.2097087"
         sodipodi:rx="2.3675451"
         sodipodi:cy="243.21521"
         sodipodi:cx="71.247322"
         id="path3030-73-01"
         style="fill:#ff0000;fill-opacity:1;stroke:none"
         sodipodi:type="arc" />
      <path
         transform="matrix(1.5839191,0,0,1.6970563,370.03671,-155.11698)"
         d="m 73.614867,243.21521 a 2.3675451,2.2097087 0 1 1 -4.73509,0 2.3675451,2.2097087 0 1 1 4.73509,0 z"
         sodipodi:ry="2.2097087"
         sodipodi:rx="2.3675451"
         sodipodi:cy="243.21521"
         sodipodi:cx="71.247322"
         id="path3030-73-23"
         style="fill:#ff0000;fill-opacity:1;stroke:none"
         sodipodi:type="arc" />
      <path
         transform="matrix(1.5839191,0,0,1.6970563,465.48163,-153.97086)"
         d="m 73.614867,243.21521 a 2.3675451,2.2097087 0 1 1 -4.73509,0 2.3675451,2.2097087 0 1 1 4.73509,0 z"
         sodipodi:ry="2.2097087"
         sodipodi:rx="2.3675451"
         sodipodi:cy="243.21521"
         sodipodi:cx="71.247322"
         id="path3030-73-1"
         style="fill:#ff0000;fill-opacity:1;stroke:none"
         sodipodi:type="arc" />
    </g>
    <g
       id="g3071">
      <path
         id="path3801"
         d="m 864.15263,250.37827 c -0.99611,0.24736 -2.07482,0.42042 -3.0983,0.49708 -1.02349,0.0767 -2.11581,0.0662 -3.13754,-0.03 -1.02172,-0.0962 -2.0967,-0.28983 -3.08776,-0.55604 -0.99106,-0.26622 -2.01834,-0.6373 -2.95083,-1.06566 -0.93249,-0.42837 -1.88323,-0.96594 -2.73118,-1.54385 -0.84794,-0.5779 -1.69588,-1.26617 -2.43615,-1.97672 -0.74026,-0.71055 -1.46262,-1.52948 -2.07575,-2.35217 -0.61312,-0.82269 -1.19139,-1.74884 -1.66222,-2.66042 -0.47083,-0.91157 -0.89136,-1.91906 -1.20945,-2.89448 -0.31809,-0.97541 -0.57238,-2.03702 -0.73218,-3.05049 -0.15979,-1.01347 -0.24455,-2.10171 -0.2453,-3.12773 -5.7e-4,-1.02602 0.0824,-2.11428 0.23695,-3.12861 0.15459,-1.01433 0.39935,-2.07783 0.70161,-3.05836 0.30225,-0.98053 0.6986,-1.99713 1.13759,-2.92455 0.43899,-0.92742 0.97381,-1.8783 1.53612,-2.73658 0.56231,-0.85828 1.22029,-1.72829 1.89088,-2.50496 0.6706,-0.77668 1.43516,-1.55447 2.1982,-2.24061 0.76304,-0.68615 1.61718,-1.36413 2.4568,-1.9542 0.83962,-0.59006 1.76668,-1.16406 2.66762,-1.65556 0.90093,-0.49149 1.88519,-0.96037 2.83323,-1.35344 0.94804,-0.39308 1.97511,-0.7583 2.9575,-1.05534 0.98239,-0.29705 2.03957,-0.56222 3.04521,-0.76743 1.00563,-0.20521 2.08205,-0.3756 3.10154,-0.49446 1.0195,-0.11887 2.10612,-0.20082 3.1318,-0.23963 1.02569,-0.0388 2.11528,-0.0393 3.14113,-0.005 1.02585,0.0345 2.11284,0.10809 3.13428,0.20898 1.02146,0.10089 2.10175,0.24123 3.11555,0.40162 1.0138,0.16039 2.08459,0.36023 3.08861,0.57342 1.00402,0.21318 2.06358,0.46555 3.05662,0.7251 0.99304,0.25955 2.04054,0.55778 3.02217,0.85759 0.98164,0.29981 2.017,0.63761 2.98742,0.97195 0.97041,0.33433 1.99412,0.70582 2.95399,1.06929 0.95988,0.36348 1.97288,0.76313 2.92327,1.15072 0.95039,0.38759 1.95397,0.81024 2.8962,1.21724 0.94224,0.40701 1.93794,0.84785 2.87353,1.26987 0.9356,0.42202 1.92512,0.87654 2.85573,1.30945 0.93061,0.4329 1.91572,0.89686 2.84303,1.33678 0.92732,0.43993 1.90984,0.90933 2.83555,1.35261 0.92571,0.44328 1.90742,0.91438 2.83316,1.35757 0.92574,0.44319 1.90833,0.91242 2.83567,1.35226 0.92734,0.43986 1.91243,0.90385 2.8428,1.33726 0.93037,0.4334 1.91939,0.88894 2.85409,1.31291 0.93471,0.42397 1.92898,0.86796 2.86916,1.27964 0.94017,0.41167 1.94082,0.84114 2.88743,1.23778 0.94662,0.39664 1.95455,0.80874 2.90838,1.18772 0.95382,0.37898 1.96976,0.77097 2.93136,1.12977 0.9616,0.3588 1.98602,0.72807 2.95575,1.06426 0.96974,0.3362 2.00292,0.68024 2.98094,0.99151 0.97801,0.31128 2.02001,0.62767 3.00625,0.91181 0.98624,0.28414 2.03687,0.57061 3.03107,0.8255 0.9942,0.2549 2.05307,0.50926 3.05476,0.73292 1.00168,0.22367 2.06821,0.44386 3.07672,0.63443 1.00851,0.19056 2.08185,0.37469 3.09632,0.53042 1.01448,0.15573 2.09365,0.30201 3.11305,0.42131 1.0194,0.11931 2.1032,0.22614 3.12632,0.30757 1.02313,0.0814 2.11019,0.14735 3.13568,0.18961 1.02548,0.0423 2.11429,0.066 3.14065,0.0679 1.02635,0.002 2.11525,-0.0177 3.14086,-0.057 1.0256,-0.0393 2.11282,-0.10325 3.13594,-0.18472 1.02313,-0.0815 2.10677,-0.19044 3.12558,-0.31467 1.01881,-0.12422 2.09689,-0.27884 3.1095,-0.44628 1.01261,-0.16745 2.08308,-0.36813 3.08752,-0.5791 1.00445,-0.21097 2.0652,-0.45795 3.05947,-0.71258 0.99428,-0.25463 2.04317,-0.54795 3.02524,-0.8462 0.98207,-0.29825 2.01693,-0.63778 2.98476,-0.97945 0.96783,-0.34167 1.98648,-0.72711 2.93801,-1.11184 0.95153,-0.38473 1.95183,-0.8156 2.88503,-1.24286 0.93321,-0.42727 1.91299,-0.90295 2.82583,-1.37208 0.9129,-0.46913 1.8701,-0.98884 2.7607,-1.49903 0.8905,-0.51019 1.823,-1.07298 2.6894,-1.62329 0.8664,-0.55031 1.7721,-1.15513 2.6124,-1.74449 0.8403,-0.58936 1.7175,-1.23502 2.5299,-1.86224 0.8124,-0.62722 1.6591,-1.31239 2.4419,-1.97618 0.7828,-0.6638 1.5972,-1.38705 2.3487,-2.08603 0.7516,-0.69897 1.532,-1.45879 2.2508,-2.19145 0.7187,-0.73268 1.4635,-1.52743 2.148,-2.29223 0.6844,-0.7648 1.392,-1.59279 2.0409,-2.38808 0.6488,-0.7953 1.3178,-1.65474 1.9296,-2.47882 0.6119,-0.82408 1.241,-1.71315 1.8147,-2.56425 0.5736,-0.8511 1.1616,-1.76789 1.696,-2.6442 0.5343,-0.87631 1.0801,-1.81887 1.5741,-2.71853 0.494,-0.89966 0.9965,-1.86599 1.4493,-2.7871 0.4527,-0.92112 0.911,-1.90919 1.3216,-2.84983 0.4107,-0.94064 0.8238,-1.94839 1.1917,-2.9066 0.3678,-0.9582 0.7351,-1.98355 1.0594,-2.95734 0.3244,-0.97379 0.6452,-2.01461 0.9255,-3.00199 0.2802,-0.98738 0.554,-2.04156 0.7897,-3.04051 0.2357,-0.99895 0.462,-2.06434 0.6527,-3.07284 0.1907,-1.0085 0.3691,-2.08295 0.5146,-3.09897 0.1454,-1.01602 0.2756,-2.09735 0.3756,-3.11886 0.1,-1.0215 0.1818,-2.10757 0.2361,-3.13251 0.054,-1.02494 0.088,-2.11358 0.096,-3.13992 0.01,-1.02635 -0.01,-2.11539 -0.044,-3.1411 -0.037,-1.02571 -0.1008,-2.11299 -0.1835,-3.13604 -0.083,-1.02304 -0.1946,-2.10642 -0.3228,-3.12477 -0.1281,-1.01835 -0.2881,-2.09569 -0.4613,-3.10733 -0.1733,-1.01165 -0.381,-2.08081 -0.5991,-3.08375 -0.2181,-1.00294 -0.4731,-2.06182 -0.7355,-3.05407 -0.2625,-0.99248 -0.5643,-2.03897 -0.8706,-3.01858"
         style="fill:none;stroke:#000000;stroke-width:2.5;stroke-miterlimit:4;stroke-dasharray:none"
         inkscape:connector-curvature="0" />
      <path
         id="path3803"
         d="m 863.5419,250.50837 37.09864,174.16356 M 862.3131,250.72734 887.65871,426.9754 m -26.5863,-176.1119 13.48183,177.56869 m -14.72881,-177.51598 1.5541,178.09041 m -2.80175,-178.12135 -10.38185,177.79147 m 9.13911,-177.90594 -22.26512,176.66211 m 21.03287,-176.85955 -34.03258,174.70272 m 32.81635,-174.98222 -45.62069,171.92218 m 44.42589,-172.28243 -56.9667,168.33635 M 852.52371,249.4943 784.51439,413.46122 m 66.87323,-164.48323 -78.68906,158.84053 m 77.58993,-159.43146 -88.94841,152.9884 M 849.23114,247.7243 750.49915,394.17032 M 848.22017,246.99275 740.23328,386.246 M 847.25992,246.19582 730.59692,377.65014 M 846.35448,245.33718 721.64088,368.43512 M 845.50761,244.42074 713.41166,358.65803 M 844.72278,243.45067 705.9507,348.38044 M 844.00313,242.43135 699.29367,337.66807 M 843.35142,241.36731 693.46979,326.5901 M 842.77008,240.26327 688.5013,315.21854 m 153.75988,-76.09451 -157.85812,64.50326 m 157.42332,-65.6728 -160.64399,53.93668 m 160.2846,-55.13156 -162.62794,43.3254 M 841.18396,235.54437 677.36547,268.28268 M 840.97784,234.31371 676.74711,256.55618 M 840.84882,233.07257 676.96285,244.975 m 163.8339,-13.1492 -162.81115,1.77951 m 162.83554,-3.02716 -161.03828,-8.06858 m 161.13829,6.82468 -158.60392,-17.58821 M 841.09564,228.09858 685.54707,201.36842 M 841.34319,226.8754 689.42688,191.42559 m 152.23521,34.24326 -147.75416,-43.7075 M 842.0504,224.48278 698.9386,173.01415 m 143.56733,50.3067 -138.04101,-58.70394 m 138.56139,57.56955 -132.59526,-65.38968 m 133.17794,64.28596 -126.82922,-71.50782 m 127.47149,70.43765 -120.79819,-77.0462 M 844.9503,218.97854 730.39282,136.98 M 845.70319,217.98299 737.5414,131.61847 m 108.96551,85.4095 -101.6644,-90.14951 m 102.51593,89.23679 -95.11658,-93.36431 m 96.01284,92.49541 -88.56678,-96.02467 m 89.5047,95.20085 -82.05999,-98.15052 m 83.03653,97.37277 -75.63721,-99.76518 m 76.64933,99.03428 -69.33495,-100.89426 m 70.37971,100.21073 -63.18507,-101.5644 m 64.25958,100.92858 -57.21462,-101.802 m 58.31608,101.214 -51.44603,-101.63165 M 855.52769,210.46627 809.63025,109.39164 M 856.67499,209.9735 816.07483,109.78304 m 41.76658,99.74478 -35.55418,-98.97885 m 36.73735,98.57968 -30.77075,-97.46205 m 31.96844,97.10868 -26.26364,-95.67984 m 27.47372,95.37144 -22.04103,-93.66958 m 23.26152,93.40521 -18.10653,-91.46586 m 19.33559,91.24449 -14.45992,-89.10038 m 15.69583,88.9209 -11.09795,-86.60194 m 12.33911,86.46317 -8.01489,-83.99653 m 9.25987,83.89727 -5.20321,-81.30747 m 6.45067,81.24644 -2.65386,-78.5556 m 3.9026,78.53151 -0.35678,-75.75945 m 1.60571,75.771 1.69889,-72.9355 m -0.45073,72.98135 3.52454,-70.09824 m -2.27803,70.17707 5.13189,-67.26046 m -3.88776,67.37092 6.5328,-64.43331 m -5.29174,64.57408 7.73926,-61.62653 m -6.50182,61.79629 8.7631,-58.84848 m -7.52977,59.04592 9.61607,-56.10628 m -8.38725,56.33012 10.30965,-53.40597 m -9.08568,53.65492 10.85507,-50.75248 m -9.63618,51.02532 11.26319,-48.14986 m -10.04959,48.44535 11.5445,-45.60123 m -10.33633,45.91816 11.70909,-43.10895 m -10.50641,43.44617 11.76659,-40.67466 M 887.293,210.2848 899.01919,171.98546 m -10.53455,38.67372 11.59663,-35.98345 m -10.41044,36.37475 11.38619,-33.72687 m -10.20534,34.13405 11.10264,-31.52913 m -9.92701,31.95114 10.75337,-29.38935 m -9.5828,29.82518 10.34532,-27.30637 m -9.17961,27.75505 9.88501,-25.2788 m -8.72394,25.73938 9.37857,-23.30507 m -8.22191,23.77661 8.8318,-21.38346 m -7.6793,21.86506 8.25015,-19.51219 m -7.10153,20.00298 7.63876,-17.68944 m -6.49373,18.18855 7.00248,-15.9134 m -5.86075,16.41999 6.34592,-14.18227 m -5.20716,14.69554 5.67343,-12.49432 m -4.53735,13.01347 4.98917,-10.84791 m -3.85542,11.37217 4.29705,-9.24146 m -3.16534,9.77006 3.60083,-7.67347 m -2.4708,8.20569 2.904,-6.14256 m -1.77535,6.67767 2.20992,-4.64737 m -1.0823,5.18467 1.52169,-3.18663 m -0.39479,3.72543 0.84223,-1.75908 m 0.28427,2.29871 0.1742,-0.36342 m 0.95222,0.90322 -0.47999,1.00169 m 1.60662,-0.46236 -1.11815,2.33771 m 2.24531,-1.79948 -1.73845,3.64626 m 2.86642,-3.10973 -2.33712,4.92457 m 3.4662,-4.39036 -2.91769,6.1848 m 4.04813,-5.6535 -3.47784,7.42662 m 4.60992,-6.89881 -4.0152,8.6492 m 5.14916,-8.12545 -4.52773,9.85206 m 5.66381,-9.33295 -5.01372,11.03507 m 6.15216,-10.52115 -5.47172,12.19825 m 6.61273,-11.69005 -5.90051,13.34179 m 7.04429,-12.83988 -6.29909,14.46607 m 7.44583,-13.97095 -6.66661,15.57147 m 7.81648,-15.08368 -7.00241,16.65845 m 8.15558,-16.17849 -7.30592,17.72744 m 8.46251,-17.25582 -7.57666,18.77889 m 8.73681,-18.3161 -7.81429,19.81317 m 8.97812,-19.35969 -8.01852,20.8306 m 9.18612,-20.38691 -8.18911,21.83144 m 9.36055,-21.39803 -8.32588,22.81587 m 9.50123,-22.39318 -8.4287,23.78394 m 9.60802,-23.37243 -8.49751,24.73563 m 9.68082,-24.33576 -8.53226,25.67086 m 9.71957,-25.28307 -8.53297,26.5894 m 9.7243,-26.2141 -8.4997,27.49098 m 9.69502,-27.12861 -8.43255,28.37522 m 9.63183,-28.0262 -8.3317,29.24171 m 9.5349,-28.90643 -8.19736,30.08993 m 9.4044,-29.7688 -8.02979,30.91938 m 9.24062,-30.6128 -7.82937,31.7295 m 9.04387,-31.43783 -7.59646,32.51969 m 8.81452,-32.24332 -7.33151,33.28938 m 8.55303,-33.02866 -7.03511,34.038 m 8.25993,-33.79329 -6.70778,34.76499 m 7.93575,-34.53662 -6.35019,35.46981 m 7.58115,-35.25812 -5.96304,36.152 m 7.1968,-35.95731 -5.54706,36.81111 m 6.78343,-36.63374 -5.10306,37.44676 m 6.34182,-37.28699 -4.63183,38.05858 m 5.87277,-37.91671 -4.13426,38.64629 m 5.37715,-38.52259 -3.61122,39.20962 m 4.85579,-39.10436 -3.06357,39.74834 m 4.30959,-39.66177 -2.49227,40.26223 m 3.73946,-40.1946 -1.89821,40.75107 m 3.14628,-40.7026 -1.28233,41.21462 m 2.531,-41.18552 -0.64556,41.65257 m 1.89454,-41.64307 0.0111,42.06461 m 1.23783,-42.07489 0.68679,42.45029 m 0.56185,-42.48052 1.38039,42.80903 m -0.13238,-42.8594 2.09087,43.14016 m -0.84386,-43.21082 2.81716,43.44281 m -1.57147,-43.53389 3.55802,43.71596 m -2.314,-43.8276 4.31219,43.95865 m -3.07021,-44.09096 5.07899,44.17522 m -3.83939,-44.3283 5.8574,44.36525 m -4.62056,-44.5392 6.64639,44.52826 m -5.41268,-44.72315 7.44493,44.66386 m -6.21472,-44.87975 8.25193,44.77181 m -7.0256,-45.00875 9.06632,44.852 m -7.84426,-45.11004 9.88709,44.90443 m -8.66967,-45.18358 10.71316,44.92912 m -9.50079,-45.2294 11.54354,44.92625 m -10.33658,-45.24765 12.37721,44.89599 m -11.17609,-45.23851 13.21322,44.83861 m -12.0183,-45.20222 14.0506,44.75441 m -12.8623,-45.13906 14.8884,44.64373 m -13.70709,-45.04938 15.72589,44.50694 m -14.55198,-44.93351 16.56198,44.34441 m -15.39586,-44.79183 17.39586,44.15657 m -16.23792,-44.62477 18.22692,43.94386 m -17.07755,-44.43272 19.05415,43.7067 m -17.91375,-44.2161 19.87685,43.44555 m -18.74579,-43.9754 20.69439,43.16089 m -19.57306,-43.71103 21.50596,42.85317 m -20.3947,-43.42346 22.3108,42.52289 m -21.2101,-43.11318 23.1085,42.17053 m -22.0187,-42.78065 23.8983,41.79659 m -22.8196,-42.42636 24.6794,41.40157 m -23.6124,-42.05082 25.4514,40.986 m -24.3964,-41.65451 26.2139,40.55039 m -25.1712,-41.23799 26.9661,40.09529 m -25.936,-40.80173 27.7075,39.62122 m -26.6905,-40.3463 28.4379,39.12874 m -27.4343,-39.87222 29.1566,38.61841 m -28.1667,-39.38005 29.8634,38.09078 m -28.8875,-38.87034 30.5577,37.54645 m -29.5962,-38.34366 31.2393,36.98597 m -30.2925,-37.80057 31.9079,36.40991 m -30.9761,-37.24164 32.5632,35.81887 m -31.6467,-36.66745 33.2049,35.21342 m -32.304,-36.07855 33.8327,34.59411 m -32.9477,-35.47551 34.4465,33.96153 m -33.5777,-34.85891 35.0461,33.31624 m -34.1939,-34.22928 35.6315,32.65877 m -34.7959,-33.58717 36.2023,31.98966 m -35.3838,-32.93311 36.7586,31.30943 m -35.9574,-32.2676 37.3001,30.61859 m -36.5164,-31.59116 37.8269,29.91764 m -37.061,-30.90428 38.3388,29.20703 m -37.591,-30.20742 38.8358,28.48726 m -38.1062,-29.50103 39.3177,27.75873 m -38.6066,-28.78556 39.7846,27.0219 m -39.0922,-28.06144 40.2364,26.27728 m -39.5629,-27.32918 40.6734,25.52532 m -40.019,-26.58922 41.0951,24.76625 m -40.4601,-25.84179 41.5017,24.0005 m -40.8862,-25.08734 41.8933,23.22854 m -41.2975,-24.3263 42.27,22.45075 m -41.6941,-23.55907 42.6318,21.66751 m -42.0759,-22.78602 42.9787,20.87919 m -42.4431,-22.00752 43.311,20.0861 m -42.7957,-21.22388 43.6285,19.28858 m -43.1337,-20.43543 43.9315,18.48694 m -43.4574,-19.64248 44.2199,17.68146 m -43.7666,-18.84532 44.4939,16.87244 m -44.0615,-18.04423 44.7534,16.06014 m -44.342,-17.23949 44.9985,15.24483 m -44.6083,-16.43135 45.2295,14.42676 m -44.8606,-15.62006 45.4462,13.60618 m -45.0987,-14.80588 45.6489,12.7833 m -45.3228,-13.98901 45.8375,11.95838 m -45.533,-13.16972 46.0121,11.13163 m -45.7292,-12.3482 46.1727,10.30325 m -45.9116,-11.52467 46.3197,9.47346 m -46.0803,-10.69933 46.4527,8.64244 m -46.2352,-9.87238 46.5721,7.81039 m -46.3764,-9.04401 46.6778,6.9775 m -46.5041,-8.21439 46.7699,6.14394 m -46.6183,-7.38372 46.8485,5.30988 m -46.7188,-6.55216 46.9135,4.4755 m -46.8059,-5.71989 46.965,3.64098 m -46.8795,-4.88708 47.0031,2.80647 m -46.9397,-4.05389 47.0277,1.97214 m -46.9865,-3.22048 47.039,1.13815 m -47.0198,-2.38703 47.0368,0.30467 m -47.0398,-1.5537 47.0212,-0.52813 m -47.0463,-0.72064 46.9922,-1.36011 m -47.0393,0.11197 46.9497,-2.19106 m -47.019,0.94395 46.8938,-3.02083 m -46.9851,1.77515 46.8244,-3.84925 m -46.9378,2.60537 46.7416,-4.67612 m -46.8769,3.43445 46.6452,-5.50128 m -46.8024,4.26219 46.5352,-6.32452 m -46.7144,5.08841 46.4117,-7.14566 m -46.6126,5.9129 46.2745,-7.96447 m -46.4973,6.73547 46.1238,-8.78078 m -46.3682,7.5559 45.9593,-9.59434 m -46.2253,8.37397 45.7811,-10.40494 m -46.0687,9.18947 45.5892,-11.21235 m -45.8982,10.00215 45.3834,-12.01631 m -45.7138,10.81176 45.1637,-12.81657 m -45.5153,11.61806 44.93,-13.61287"
         style="opacity:0.25;fill:none;stroke:#0000ff;stroke-width:0.25;stroke-miterlimit:4;stroke-opacity:1;stroke-dasharray:none"
         inkscape:connector-curvature="0" />
      <path
         transform="matrix(1.5839191,0,0,1.6970563,751.30265,-162.37163)"
         d="m 73.614867,243.21521 a 2.3675451,2.2097087 0 1 1 -4.73509,0 2.3675451,2.2097087 0 1 1 4.73509,0 z"
         sodipodi:ry="2.2097087"
         sodipodi:rx="2.3675451"
         sodipodi:cy="243.21521"
         sodipodi:cx="71.247322"
         id="path3030-73-58"
         style="fill:#ff0000;fill-opacity:1;stroke:none"
         sodipodi:type="arc" />
      <path
         transform="matrix(1.5839191,0,0,1.6970563,921.78845,-266.62178)"
         d="m 73.614867,243.21521 a 2.3675451,2.2097087 0 1 1 -4.73509,0 2.3675451,2.2097087 0 1 1 4.73509,0 z"
         sodipodi:ry="2.2097087"
         sodipodi:rx="2.3675451"
         sodipodi:cy="243.21521"
         sodipodi:cx="71.247322"
         id="path3030-73-30"
         style="fill:#ff0000;fill-opacity:1;stroke:none"
         sodipodi:type="arc" />
      <path
         transform="matrix(1.5839191,0,0,1.6970563,758.4991,-205.25984)"
         d="m 73.614867,243.21521 a 2.3675451,2.2097087 0 1 1 -4.73509,0 2.3675451,2.2097087 0 1 1 4.73509,0 z"
         sodipodi:ry="2.2097087"
         sodipodi:rx="2.3675451"
         sodipodi:cy="243.21521"
         sodipodi:cx="71.247322"
         id="path3030-73-8"
         style="fill:#ff0000;fill-opacity:1;stroke:none"
         sodipodi:type="arc" />
    </g>
  </g>
</svg>
