<?xml version="1.0" encoding="UTF-8" standalone="no"?>
<!-- Created with Inkscape (http://www.inkscape.org/) -->

<svg
   xmlns:dc="http://purl.org/dc/elements/1.1/"
   xmlns:cc="http://creativecommons.org/ns#"
   xmlns:rdf="http://www.w3.org/1999/02/22-rdf-syntax-ns#"
   xmlns:svg="http://www.w3.org/2000/svg"
   xmlns="http://www.w3.org/2000/svg"
   xmlns:sodipodi="http://sodipodi.sourceforge.net/DTD/sodipodi-0.dtd"
   xmlns:inkscape="http://www.inkscape.org/namespaces/inkscape"
   width="1024"
   height="1024"
   id="svg2"
   version="1.1"
   inkscape:version="0.48.3.1 r9886"
   sodipodi:docname="fairness_mec.svg">
  <defs
     id="defs4" />
  <sodipodi:namedview
     id="base"
     pagecolor="#ffffff"
     bordercolor="#666666"
     borderopacity="1.0"
     inkscape:pageopacity="0.0"
     inkscape:pageshadow="2"
     inkscape:zoom="0.98994949"
     inkscape:cx="436.75155"
     inkscape:cy="750.02657"
     inkscape:document-units="px"
     inkscape:current-layer="layer1"
     showgrid="false"
     inkscape:window-width="1920"
     inkscape:window-height="1028"
     inkscape:window-x="0"
     inkscape:window-y="0"
     inkscape:window-maximized="1"
     inkscape:snap-page="true"
     inkscape:snap-global="false">
    <inkscape:grid
       type="xygrid"
       id="grid2985"
       empspacing="8"
       visible="true"
       enabled="true"
       snapvisiblegridlinesonly="true"
       spacingx="16px"
       spacingy="16px" />
  </sodipodi:namedview>
  <metadata
     id="metadata7">
    <rdf:RDF>
      <cc:Work
         rdf:about="">
        <dc:format>image/svg+xml</dc:format>
        <dc:type
           rdf:resource="http://purl.org/dc/dcmitype/StillImage" />
        <dc:title></dc:title>
      </cc:Work>
    </rdf:RDF>
  </metadata>
  <g
     inkscape:label="Layer 1"
     inkscape:groupmode="layer"
     id="layer1"
     transform="translate(0,-28.362183)">
    <g
       id="g3083"
       transform="translate(-9.5714285,-3.8571429)">
      <path
         id="path3849"
         d="m 334.98369,218.14883 c -0.66367,1.95215 -1.3678,4.02318 -2.02547,5.97734 -0.65767,1.95417 -1.34878,4.0296 -1.98822,5.98981 -0.63944,1.96021 -1.30487,4.04406 -1.91408,6.01387 -0.60921,1.96981 -1.23619,4.06561 -1.80295,6.04804 -0.56675,1.98244 -1.14208,4.09307 -1.65371,6.09043 -0.51164,1.99735 -1.02163,4.12481 -1.46502,6.13841 -0.44339,2.01359 -0.87391,4.15865 -1.23556,6.18852 -0.36166,2.02986 -0.69822,4.19179 -0.96441,6.23635 -0.26619,2.04456 -0.49415,4.22078 -0.65109,6.27661 -0.15694,2.05582 -0.26169,4.2416 -0.29574,6.30312 -0.0341,2.06151 -10e-4,4.24974 0.10085,6.30898 0.10211,2.05924 0.28623,4.24016 0.53704,6.28659 0.25081,2.04644 0.59912,4.20744 1.01011,6.22778 0.41098,2.02035 0.93494,4.14584 1.516,6.12398 0.58106,1.97813 1.2902,4.04949 2.04906,5.96644 0.75886,1.91695 1.66004,3.91257 2.60157,5.7467 0.94153,1.83413 2.03817,3.7297 3.16358,5.45707 1.12541,1.72738 2.41666,3.49645 3.72268,5.0916 1.30602,1.59516 2.78579,3.21014 4.26389,4.64728 1.47811,1.43713 3.13427,2.87101 4.77008,4.12576 1.63581,1.25474 3.45049,2.4823 5.22601,3.52991 1.77553,1.04761 3.72769,2.04242 5.61992,2.86056 1.89222,0.81814 3.95442,1.55889 5.93529,2.12995 1.98088,0.57106 4.12107,1.04171 6.15893,1.35331 2.03787,0.31159 4.22096,0.50194 6.28199,0.5474 2.06103,0.0455 4.25035,-0.0484 6.29995,-0.26975 2.0496,-0.22132 4.20843,-0.59692 6.21262,-1.0797 2.00419,-0.48277 4.0972,-1.13128 6.02396,-1.86449 1.92675,-0.73319 3.92135,-1.64005 5.74177,-2.60761 1.82042,-0.96755 3.68791,-2.11324 5.37722,-3.29494 1.6893,-1.1817 3.40581,-2.54286 4.94406,-3.91544 1.53825,-1.37259 3.08533,-2.92326 4.4578,-4.46161 1.37246,-1.53836 2.73733,-3.25125 3.93458,-4.92961 1.19724,-1.67836 2.37265,-3.52611 3.39021,-5.31915 1.01758,-1.79305 2.00129,-3.74931 2.83914,-5.6331 0.83783,-1.88378 1.63195,-3.92412 2.29365,-5.87678 0.66168,-1.95266 1.2717,-4.05512 1.76368,-6.05728 0.49198,-2.00216 0.92603,-4.1476 1.25703,-6.18259 0.33101,-2.03498 0.59948,-4.20713 0.78056,-6.26095 0.18107,-2.0538 0.29739,-4.23924 0.34226,-6.30057 0.0449,-2.06132 0.0236,-4.2495 -0.0556,-6.30977 -0.0792,-2.06025 -0.22552,-4.24345 -0.41568,-6.29646 -0.19016,-2.05302 -0.44699,-4.22588 -0.73433,-6.2676 -0.28734,-2.04172 -0.63991,-4.20101 -1.01065,-6.22926 -0.37075,-2.02825 -0.80457,-4.17257 -1.24529,-6.18676 -0.44073,-2.0142 -0.94177,-4.14369 -1.43943,-6.14457 -0.49767,-2.00088 -1.05232,-4.11695 -1.59422,-6.1063 -0.54189,-1.98936 -1.13681,-4.09442 -1.71046,-6.07488 -0.57364,-1.98045 -1.19565,-4.07765 -1.78865,-6.05241 -0.59301,-1.97477 -1.22901,-4.06776 -1.829,-6.04041 -0.6,-1.97266 -1.23685,-4.06538 -1.8314,-6.03967 -0.59456,-1.9743 -1.21902,-4.07075 -1.79558,-6.05036 -0.57656,-1.9796 -1.17522,-4.08359 -1.72101,-6.07188 -0.5458,-1.9883 -1.10496,-4.10319 -1.60691,-6.10301 -0.50195,-1.99982 -1.00756,-4.12824 -1.45217,-6.1416 -0.44461,-2.01336 -0.88211,-4.15694 -1.25543,-6.18471 -0.37332,-2.02778 -0.72763,-4.18678 -1.01529,-6.22844 -0.28765,-2.04166 -0.54337,-4.21466 -0.73089,-6.26791 -0.18752,-2.05325 -0.32936,-4.23681 -0.40292,-6.29731 -0.0736,-2.0605 -0.088,-4.24883 -0.0344,-6.30993 0.0536,-2.0611 0.18245,-4.24586 0.37854,-6.29827 0.19609,-2.05239 0.48353,-4.22222 0.835,-6.25377 0.35146,-2.03155 0.81001,-4.17203 1.32779,-6.16769 0.51779,-1.99565 1.15811,-4.08924 1.85126,-6.03093 0.69315,-1.94171 1.52375,-3.96763 2.39885,-5.83437 0.87511,-1.86673 1.90143,-3.80117 2.96174,-5.56925 1.0603,-1.76807 2.28377,-3.58461 3.52825,-5.22823 1.24449,-1.64362 2.66151,-3.31396 4.0841,-4.80608 1.4226,-1.49211 3.02385,-2.98718 4.61291,-4.3006 1.58905,-1.31342 3.35913,-2.60461 5.09724,-3.71323 1.73811,-1.10863 3.65551,-2.16922 5.5197,-3.04939 1.8642,-0.88017 3.9017,-1.686708 5.86401,-2.318484 1.96231,-0.631781 4.0878,-1.165422 6.11613,-1.533729 2.02833,-0.368307 4.20584,-0.615933 6.26514,-0.711463 2.0593,-0.09553 4.25046,-0.05053 6.3041,0.129651 2.05364,0.180182 4.21915,0.517412 6.23047,0.969597 2.01131,0.452179 4.1127,1.074176 6.04664,1.788089 1.93393,0.713909 3.93532,1.606359 5.76012,2.565499 1.8248,0.95915 3.69472,2.10138 5.3837,3.28355 1.68898,1.18215 3.40263,2.54731 4.93439,3.92708 1.53175,1.37978 3.06779,2.94176 4.42494,4.49362 1.35714,1.55186 2.70052,3.28203 3.87208,4.97841 1.17157,1.69639 2.31397,3.56504 3.2949,5.37839 0.98092,1.81334 1.91989,3.79172 2.7102,5.69591 0.79031,1.90418 1.52835,3.96565 2.13227,5.9369 0.60392,1.97126 1.14749,4.09202 1.57259,6.10942 0.42511,2.01741 0.78377,4.17688 1.04017,6.22261 0.25639,2.04573 0.44202,4.22666 0.54166,6.28601 0.0996,2.05936 0.12572,4.24779 0.0818,6.30911 -0.0439,2.06132 -0.16276,4.24647 -0.33612,6.30097 -0.17335,2.0545 -0.422,4.22853 -0.71034,6.27008 -0.28836,2.04155 -0.65123,4.19927 -1.03994,6.22412 -0.38871,2.02486 -0.8503,4.16349 -1.32483,6.16998 -0.47453,2.00648 -1.01951,4.12528 -1.5656,6.11349 -0.54608,1.98822 -1.15953,4.08811 -1.76335,6.05957 -0.60382,1.97146 -1.27131,4.05472 -1.91956,6.01203 -0.64824,1.95731 -1.35594,4.0272 -2.03578,5.97377 -0.67983,1.94657 -1.41437,4.00704 -2.11325,5.94685 -0.69888,1.93981 -1.447,3.99536 -2.15214,5.93292"
         style="fill:none;stroke:#000000;stroke-width:2.5;stroke-miterlimit:4;stroke-dasharray:none"
         inkscape:connector-curvature="0" />
      <path
         id="path3851"
         d="m 334.58002,219.33675 -0.41739,-0.14185 m -0.38883,2.51808 -1.37079,-0.46441 m 0.56808,2.84182 -2.29473,-0.77238 m 1.49788,3.15175 -3.20127,-1.06698 m 2.41261,3.44908 -4.09991,-1.34864 m 3.32175,3.73419 -4.998,-1.61706 m 4.23264,4.00675 -5.90102,-1.87124 m 5.15078,4.26571 -6.81294,-2.10956 m 6.08014,4.50941 -7.73643,-2.32986 m 7.02347,4.73567 -8.67317,-2.52958 m 7.98241,4.94185 -9.62394,-2.70577 m 8.95783,5.12494 -10.58888,-2.85521 m 9.94991,5.28168 -11.5676,-2.97451 m 10.95824,5.40857 -12.55922,-3.06014 m 11.98204,5.50201 -13.5626,-3.10849 m 13.02015,5.5583 -14.57628,-3.11598 m 14.07115,5.57374 -15.59861,-3.07899 m 15.13344,5.54459 -16.62779,-2.99398 m 16.20518,5.46723 -17.66182,-2.85753 m 17.28445,5.33805 -18.69861,-2.66624 m 18.36912,5.15356 -19.73594,-2.41686 m 19.45698,4.91034 -20.77138,-2.10626 m 20.54561,4.60508 -21.80239,-1.73135 m 21.63243,4.23456 -22.8262,-1.28923 m 22.71469,3.7957 -23.83985,-0.7771 m 23.78937,3.28552 -24.84007,-0.19229 m 24.85318,2.70114 -25.8233,0.46775 m 25.90252,2.03986 -26.78563,1.20534 m 26.93342,1.29914 -27.72276,2.02266 m 27.94152,0.47657 -28.62993,2.92164 m 28.92197,-0.42994 -29.50196,3.90393 m 29.8695,-1.42228 -30.33313,4.97078 m 30.77831,-2.50192 -31.11728,6.12309 m 31.64211,-3.66996 -31.84767,7.36126 m 32.454,-4.92702 -32.51708,8.68504 m 33.20661,-6.27311 -33.11776,10.09361 m 33.89205,-7.70756 -33.64156,11.58524 m 34.50193,-9.2289 -34.07978,13.15736 m 35.02735,-10.83476 -34.4234,14.8063 m 35.45903,-12.52165 -34.66297,16.52721 m 35.78729,-14.28491 -34.78883,18.31378 m 36.00214,-16.11841 -34.79104,20.15812 m 36.09335,-18.0144 -34.65956,22.05042 m 36.0505,-19.96319 -34.38435,23.97871 m 35.86324,-21.95288 -33.95561,25.9284 m 35.52131,-23.96897 -33.36385,27.88196 M 337.71346,328.93898 305.113,358.7574 m 34.33484,-28.00669 -31.65797,31.71283 m 33.47329,-29.98225 -30.53067,33.53576 m 32.42406,-31.89095 -29.21536,35.25275 m 31.18357,-33.69829 -27.94945,37.15022 m 29.98912,-35.69085 -26.56346,39.0648 m 28.67099,-37.70539 -24.9721,40.85615 m 27.14343,-39.60127 -23.19842,42.51647 m 25.42903,-41.37036 -21.26345,44.03875 m 23.54841,-43.0053 -19.18655,45.41642 m 21.52057,-44.49914 -16.98571,46.64324 m 19.36315,-45.84528 -14.67789,47.71319 m 17.09288,-47.03726 -12.27954,48.62049 m 14.72592,-48.06895 -9.80674,49.35977 m 12.2782,-48.93447 -7.27557,49.9262 m 9.76563,-49.62863 -4.70225,50.31586 m 7.20432,-50.14699 -2.10312,50.5258 m 4.61056,-50.48617 0.50522,50.55437 m 2.00092,-50.64404 3.10613,50.4014 m -0.60794,-50.62 5.68301,50.06836 m -3.19936,-50.41503 8.21953,49.55836 m -5.75688,-50.0318 10.69975,48.8762 m -8.26444,-49.47465 13.10841,48.02829 m -10.7066,-48.74961 15.43112,47.02262 m -13.06876,-47.86424 17.65448,45.86852 m -15.33722,-46.82748 19.76619,44.57653 m -17.49945,-45.64954 21.75527,43.1583 m -19.54415,-44.34174 23.61207,41.62628 m -21.4613,-42.91623 25.32834,39.99364 m -23.24233,-41.38593 26.8973,38.27408 m -24.88006,-39.76431 28.31366,36.48165 m -26.36881,-38.06526 29.57369,34.63065 m -27.70447,-36.30287 30.67522,32.73537 m -28.88444,-34.49138 31.61764,30.8101 m -29.90771,-32.64499 32.40197,28.86887 m -30.77491,-30.77766 33.0308,26.9253 m -31.48821,-28.90302 33.50829,24.99244 m -32.0514,-27.03417 33.84004,23.08264 m -32.46969,-25.1835 34.03304,21.20732 M 420.29694,318.09919 454.3924,337.476 m -32.89938,-21.58165 34.03642,17.60025 m -32.92741,-19.85021 33.8657,15.88541 m -32.84333,-18.17609 33.59336,14.23867 m -32.65694,-16.56585 33.22934,12.66493 m -32.37794,-15.02459 32.78291,11.16772 m -32.01542,-13.55602 32.26224,9.74923 m -31.5773,-12.16252 31.67361,8.41048 m -31.06974,-10.84536 31.02091,7.15165 m -30.49643,-9.60487 30.30479,5.97232 m -29.85786,-8.44088 29.522,4.87198 m -29.15061,-7.35307 28.66454,3.85047 m -28.36649,-6.34148 27.71881,2.90855 m -27.49167,-5.40708 26.66474,2.04853 m -26.50581,-4.55239 25.47478,1.27493 m -25.38132,-3.78212 24.65306,0.60231 m -24.6227,-3.11106 23.79024,-0.007 m -23.82076,-2.50162 22.85569,-0.55107 m -22.9447,-1.95629 21.87099,-1.0275 m -22.01598,-1.47728 20.85378,-1.43665 m -21.05216,-1.06449 19.81802,-1.78049 m -20.06714,-0.71615 18.77441,-2.06196 m -19.0716,-0.42944 17.73087,-2.28471 m -18.07348,-0.2009 16.693,-2.45257 m -17.07835,-0.0268 15.66438,-2.56948 m -16.08985,0.0967 14.64716,-2.63928 m -15.11014,0.1732 13.64226,-2.66563 m -14.14018,0.20634 12.64976,-2.65193 m -13.18007,0.19943 11.6691,-2.6014 m -12.2293,0.15555 10.69934,-2.51706 m -11.28694,0.0776 9.73926,-2.40173 m -10.3518,-0.0316 8.78752,-2.25812 m -9.42257,-0.16939 7.84277,-2.08883 m -8.49791,-0.33336 6.90365,-1.89645 m -7.57646,-0.52089 5.96886,-1.68351 m -6.65697,-0.72954 5.03723,-1.45255 m -5.73823,-0.9568 4.10764,-1.20614 m -4.81917,-1.20013 3.17906,-0.94689 m -3.89873,-1.45698 2.25054,-0.67741 m -2.97597,-1.72473 1.32116,-0.40041 m -2.04998,-2.00071 0.39006,-0.1186 m -1.11987,-2.28221 -0.54363,0.16525 m -0.18479,-2.56649 -1.4808,0.4484 m 0.75617,-2.85077 -2.42234,0.72801 m 1.70393,-3.13224 -3.36926,1.00128 m 2.65948,-3.40805 -4.32254,1.26535 m 3.62383,-3.67536 -5.2833,1.51737 m 4.59813,-3.93124 -6.25268,1.75444 m 5.58353,-4.1728 -7.23188,1.97363 m 6.58125,-4.39702 -8.22209,2.17189 m 7.59251,-4.60084 -9.22445,2.34615 m 8.61851,-4.78109 -10.24002,2.49317 m 9.6603,-4.93449 -11.26955,2.60955 m 10.7187,-5.05754 -12.31346,2.69173 m 11.79414,-5.14659 -13.37155,2.7359 m 12.88647,-5.19774 -14.44286,2.73808 m 13.99479,-5.2069 -15.52535,2.69408 m 15.11703,-5.16975 -16.61549,2.59956 m 16.24971,-5.08185 -17.70802,2.4502 m 17.38759,-4.93871 -18.79539,2.24181 m 18.52308,-4.73602 -19.86737,1.97067 m 19.64592,-4.46988 -20.91053,1.63386 m 20.74259,-4.13722 -21.90775,1.22979 m 21.79587,-3.73627 -22.83785,0.75885 m 22.78441,-3.26725 -23.73631,0.22468 m 23.74394,-2.73361 -25.04745,-0.38673 m 25.11915,-2.12114 -26.22477,-1.09211 m 26.36355,-1.41289 -27.29847,-1.886 m 27.50711,-0.6141 -28.29089,-2.7656 m 28.57192,0.27264 -29.21749,-3.73009 m 29.5733,1.24673 -30.08775,-4.77999 m 30.52057,2.30892 -30.90606,-5.91662 m 31.41797,3.46074 -31.67249,-7.14147 m 32.26546,4.70392 -32.38356,-8.45579 m 33.05942,6.03996 -33.03293,-9.86017 m 33.79332,7.46962 -33.6121,-11.35413 m 34.4585,8.99272 -34.11098,-12.93607 m 35.04465,10.60784 -34.51848,-14.60288 m 35.54047,12.31201 -34.82306,-16.34997 m 35.93413,14.1011 -35.01311,-18.17118 m 36.21374,15.96888 -35.07743,-20.05886 m 36.36778,17.90797 -35.00551,-22.003854 M 417.73422,119.04704 382.9464,95.051384 m 36.25667,21.962576 -34.41609,-26.022535 m 35.97295,24.056105 -33.88341,-28.071702 m 35.52693,26.177102 -33.1844,-30.129436 M 424.13182,111.3355 391.81657,79.154209 M 425.94283,109.60044 394.66899,75.3882 m 33.1648,32.56474 L 397.7741,71.746105 M 429.80162,106.39811 401.12756,68.248698 M 431.84275,104.94092 404.72288,64.916719 M 433.9532,103.58614 408.55145,61.770634 M 436.12859,102.33836 412.60255,58.830462 M 438.3641,101.2019 416.86342,56.115504 M 440.65456,100.18079 421.31927,53.644163 M 442.99444,99.278735 425.9534,51.433647 M 445.37786,98.499073 430.74729,49.499779 M 447.79867,97.844753 435.68072,47.856734 M 450.25045,97.318292 440.732,46.516836 m 11.99456,50.404944 -6.84842,-51.431378 m 9.34204,51.166405 -4.12512,-51.871231 m 6.62928,51.738938 -1.36643,-52.116242 m 3.87409,52.117244 1.4092,-52.163333 m 1.09487,52.297752 4.18304,-52.011117 m -1.68967,52.278572 6.93615,-51.659754 m -4.46051,52.059347 9.64944,-51.110778 m -7.19848,51.641093 12.30364,-50.36689 m -9.88415,51.026031 14.87923,-49.431793 M 474.95699,99.302004 492.31321,50.991985 M 477.29407,100.21114 497.008,53.204303 M 479.58077,101.2405 501.51142,55.712294 m -19.69998,46.674036 23.98339,-43.880943 m -21.81399,45.139023 25.84757,-42.072807 m -23.7442,43.438527 27.49685,-40.112884 M 488.1173,106.47852 517.13258,68.3212 m -27.05649,39.72348 30.57509,-36.385287 M 491.95671,109.7039 523.88992,75.224275 m -30.13424,36.227065 33.09039,-32.479655 m -31.37601,34.310205 34.05069,-30.419223 m -32.42337,32.327653 34.8206,-28.327261 M 498.63567,117.17126 534.04401,90.943015 M 500.08342,119.21938 535.90667,95.076548 M 501.43955,121.32934 537.515,99.241038 m -34.81158,24.254832 36.17542,-20.07901 m -35.00407,22.297 36.13387,-18.12689 m -35.05496,20.39133 35.96154,-16.24165 m -34.97464,18.54771 35.66904,-14.43116 m -34.77339,16.77423 35.26679,-12.70167 m -34.46137,15.07731 34.76493,-11.058 m -34.04847,13.462 34.17323,-9.50372 m -33.54421,11.93211 33.50104,-8.04132 m -32.95776,10.49036 32.75727,-6.67233 m -32.29781,9.13851 31.95027,-5.39746 m -31.57259,7.87753 31.08792,-4.21668 m -30.78979,6.7076 30.17747,-3.12934 m -29.9566,5.62834 29.22571,-2.13428 m -29.07964,4.6388 28.23881,-1.22988 m -28.16503,3.73761 27.22246,-0.41417 m -27.21837,2.92302 26.18181,0.31518 m -26.24474,2.19292 25.12157,0.9607 m -25.24881,1.54499 24.04603,1.52521 m -24.23485,0.97662 22.9591,2.01167 m -23.20669,0.48505 21.86434,2.42323 m -22.16791,0.0673 20.765,2.76318 m -21.12174,-0.27964 19.6641,3.03496 m -20.07119,-0.55916 18.56441,3.24214 m -19.01905,-0.77461 17.4685,3.38842 m -17.96787,-0.92952 16.37874,3.47758 m -16.92004,-1.02755 15.29728,3.51352 m -15.87777,-1.07246 14.22614,3.50023 m -14.84306,-1.0681 13.16704,3.44172 m -13.81768,-1.01838 12.12151,3.34204 m -12.8032,-0.92723 11.09073,3.2052 m -11.80083,-0.79858 10.07554,3.03514 m -10.81145,-0.63626 9.07628,2.83561 m -9.83544,-0.44398 8.09273,2.61019 m -8.87262,-0.22523 7.12397,2.36215 m -7.92212,0.0168 6.16817,2.09431 m -6.9821,0.27926 5.22244,1.80907 m -6.04977,0.55989 4.28263,1.50818 m -5.12091,0.85691 3.34292,1.1928 m -4.18976,1.16925 2.39568,0.86322 m -3.24864,1.49662 1.43101,0.51899 m -2.28762,1.83954 0.43636,0.15876"
         style="opacity:0.25;fill:none;stroke:#0000ff;stroke-width:0.25;stroke-miterlimit:4;stroke-opacity:1;stroke-dasharray:none"
         inkscape:connector-curvature="0" />
      <path
         transform="matrix(1.5839191,0,0,1.6970563,305.11752,-192.07876)"
         d="m 73.614867,243.21521 c 0,1.22039 -1.059986,2.20971 -2.367545,2.20971 -1.307559,0 -2.367545,-0.98932 -2.367545,-2.20971 0,-1.22039 1.059986,-2.20971 2.367545,-2.20971 1.307559,0 2.367545,0.98932 2.367545,2.20971 z"
         sodipodi:ry="2.2097087"
         sodipodi:rx="2.3675451"
         sodipodi:cy="243.21521"
         sodipodi:cx="71.247322"
         id="path3030-73"
         style="fill:#ff0000;fill-opacity:1;stroke:none"
         sodipodi:type="arc" />
      <path
         transform="matrix(1.5839191,0,0,1.6970563,383.29341,-191.12993)"
         d="m 73.614867,243.21521 c 0,1.22039 -1.059986,2.20971 -2.367545,2.20971 -1.307559,0 -2.367545,-0.98932 -2.367545,-2.20971 0,-1.22039 1.059986,-2.20971 2.367545,-2.20971 1.307559,0 2.367545,0.98932 2.367545,2.20971 z"
         sodipodi:ry="2.2097087"
         sodipodi:rx="2.3675451"
         sodipodi:cy="243.21521"
         sodipodi:cx="71.247322"
         id="path3030-73-3"
         style="fill:#ff0000;fill-opacity:1;stroke:none"
         sodipodi:type="arc" />
      <path
         transform="matrix(1.5839191,0,0,1.6970563,222.1337,-194.60107)"
         d="m 73.614867,243.21521 c 0,1.22039 -1.059986,2.20971 -2.367545,2.20971 -1.307559,0 -2.367545,-0.98932 -2.367545,-2.20971 0,-1.22039 1.059986,-2.20971 2.367545,-2.20971 1.307559,0 2.367545,0.98932 2.367545,2.20971 z"
         sodipodi:ry="2.2097087"
         sodipodi:rx="2.3675451"
         sodipodi:cy="243.21521"
         sodipodi:cx="71.247322"
         id="path3030-73-5"
         style="fill:#ff0000;fill-opacity:1;stroke:none"
         sodipodi:type="arc" />
    </g>
    <g
       id="g3075"
       transform="translate(-9.5714285,-3.8571429)">
      <path
         id="path3817"
         d="m 92.026449,285.89287 c -0.327944,-0.85996 -0.675829,-1.77229 -1.003082,-2.63251 -0.327246,-0.8602 -0.673699,-1.7731 -0.998898,-2.6341 -0.3252,-0.86098 -0.668743,-1.77499 -0.9905,-2.63726 -0.321764,-0.86229 -0.660921,-1.77792 -0.977848,-2.64199 -0.316934,-0.86406 -0.650228,-1.78186 -0.960943,-2.64817 -0.31071,-0.86632 -0.63667,-1.78674 -0.93976,-2.65575 -0.303097,-0.86902 -0.620221,-1.79252 -0.914272,-2.66464 -0.294046,-0.87212 -0.600812,-1.79911 -0.884367,-2.6747 -0.283556,-0.8756 -0.578412,-1.80647 -0.849994,-2.68583 -0.271581,-0.87938 -0.552937,-1.81442 -0.811042,-2.69785 -0.2581,-0.88343 -0.524363,-1.82287 -0.767472,-2.71054 -0.243102,-0.88767 -0.492651,-1.83169 -0.719235,-2.72372 -0.226584,-0.89203 -0.457789,-1.84072 -0.666315,-2.73714 -0.208532,-0.89642 -0.419751,-1.84977 -0.608666,-2.75053 -0.188907,-0.90076 -0.378487,-1.85865 -0.546186,-2.76361 -0.167705,-0.90495 -0.333928,-1.86719 -0.478782,-2.77607 -0.144855,-0.90888 -0.285951,-1.87513 -0.406276,-2.78759 -0.120318,-0.91244 -0.234488,-1.88225 -0.328584,-2.79778 -0.0941,-0.91551 -0.179552,-1.88829 -0.245815,-2.80626 -0.06627,-0.91796 -0.121415,-1.89293 -0.158515,-2.81254 -0.03708,-0.9196 -0.06053,-1.89585 -0.06664,-2.81618 -0.0063,-0.92032 0.0044,-1.89682 0.03093,-2.81678 0.02662,-0.91997 0.07261,-1.89545 0.133401,-2.81379 0.06079,-0.91833 0.143797,-1.89138 0.240136,-2.80666 0.09634,-0.9153 0.21778,-1.8843 0.351016,-2.79495 0.13323,-0.91065 0.294521,-1.87384 0.46596,-2.77807 0.171439,-0.90423 0.373949,-1.85963 0.584839,-2.75548 0.210896,-0.89586 0.455894,-1.84126 0.707363,-2.72658 0.251476,-0.88532 0.540076,-1.81835 0.833082,-2.69081 0.292999,-0.87245 0.626109,-1.79056 0.961387,-2.64766 0.335271,-0.8571 0.713556,-1.75754 1.091599,-2.59665 0.37805,-0.8391 0.801916,-1.71903 1.222992,-2.53739 0.421076,-0.81836 0.890667,-1.67478 1.354795,-2.4695 0.464128,-0.79473 0.979331,-1.62453 1.486289,-2.39265 0.506957,-0.76812 1.067424,-1.56807 1.616754,-2.30648 0.549331,-0.7384 1.154447,-1.50515 1.745447,-2.21065 0.591,-0.7055 1.239865,-1.43562 1.871526,-2.10495 0.631669,-0.66932 1.323059,-1.35933 1.994013,-1.98926 0.670961,-0.62993 1.403205,-1.27645 2.111595,-1.86397 0.70839,-0.58752 1.47913,-1.18764 2.22258,-1.73012 0.74346,-0.54247 1.550259,-1.09317 2.326659,-1.58733 0.7764,-0.49416 1.61692,-0.99192 2.42364,-1.43485 0.80672,-0.44294 1.67784,-0.88499 2.51178,-1.27427 0.83393,-0.38929 1.73221,-0.77321 2.58998,-1.1067 0.85777,-0.33349 1.77947,-0.65714 2.6575,-0.93292 0.87803,-0.27579 1.81927,-0.53727 2.71378,-0.75367 0.89451,-0.2164 1.85119,-0.41407 2.75825,-0.56972 0.90706,-0.15563 1.87492,-0.28818 2.79044,-0.382 0.91552,-0.0938 1.89016,-0.16033 2.80995,-0.19168 0.91978,-0.0314 1.89668,-0.0314 2.81647,0 0.91978,0.0314 1.89442,0.0979 2.80994,0.19168 0.91553,0.0938 1.88339,0.22637 2.79044,0.382 0.90706,0.15565 1.86374,0.35332 2.75826,0.56972 0.8945,0.2164 1.83574,0.47788 2.71377,0.75367 0.87803,0.27578 1.79973,0.59943 2.65751,0.93292 0.85777,0.33349 1.75604,0.71741 2.58997,1.1067 0.83394,0.38928 1.70507,0.83133 2.51179,1.27427 0.80672,0.44293 1.64723,0.94069 2.42363,1.43485 0.7764,0.49416 1.5832,1.04486 2.32666,1.58733 0.74345,0.54248 1.51419,1.1426 2.22259,1.73012 0.70839,0.58752 1.44062,1.23404 2.11158,1.86397 0.67096,0.62993 1.36235,1.31994 1.99401,1.98926 0.63167,0.66933 1.28053,1.39945 1.87153,2.10495 0.591,0.7055 1.19612,1.47225 1.74545,2.21065 0.54933,0.73841 1.1098,1.53836 1.61675,2.30648 0.50696,0.76812 1.02216,1.59792 1.48629,2.39265 0.46413,0.79472 0.93372,1.65114 1.3548,2.4695 0.42107,0.81836 0.84494,1.69829 1.22299,2.53739 0.37804,0.83911 0.75633,1.73955 1.0916,2.59665 0.33528,0.8571 0.66839,1.77521 0.96138,2.64766 0.29301,0.87246 0.58161,1.80549 0.83309,2.69081 0.25147,0.88532 0.49646,1.83072 0.70736,2.72658 0.21089,0.89585 0.4134,1.85125 0.58484,2.75548 0.17144,0.90423 0.33273,1.86742 0.46596,2.77807 0.13323,0.91065 0.25467,1.87965 0.35101,2.79495 0.0963,0.91528 0.17935,1.88833 0.24014,2.80666 0.0608,0.91834 0.10679,1.89382 0.1334,2.81379 0.0266,0.91996 0.0371,1.89646 0.0309,2.81678 -0.006,0.92033 -0.0295,1.89658 -0.0666,2.81618 -0.0371,0.91961 -0.0923,1.89458 -0.15852,2.81254 -0.0663,0.91797 -0.15171,1.89074 -0.24581,2.80626 -0.0941,0.91553 -0.20827,1.88535 -0.32859,2.79778 -0.12032,0.91246 -0.26142,1.87872 -0.40627,2.78759 -0.14486,0.90888 -0.31108,1.87112 -0.47879,2.77607 -0.16769,0.90496 -0.35727,1.86285 -0.54618,2.76361 -0.18892,0.90076 -0.40014,1.85411 -0.60867,2.75053 -0.20852,0.89642 -0.43973,1.84511 -0.66631,2.73714 -0.22659,0.89204 -0.47614,1.83605 -0.71924,2.72373 -0.24311,0.88766 -0.50937,1.8271 -0.76747,2.71054 -0.2581,0.88343 -0.53946,1.81846 -0.81104,2.69784 -0.27158,0.87936 -0.56644,1.81023 -0.85,2.68583 -0.28355,0.87559 -0.59032,1.80258 -0.88436,2.6747 -0.29405,0.87212 -0.61118,1.79562 -0.91427,2.66464 -0.3031,0.86901 -0.62906,1.78943 -0.93976,2.65575 -0.31072,0.86632 -0.64401,1.78411 -0.96095,2.64817 -0.31693,0.86407 -0.65608,1.77971 -0.97785,2.64199 -0.32175,0.86228 -0.6653,1.77628 -0.9905,2.63727 -0.32519,0.861 -0.67165,1.77389 -0.99889,2.6341 -0.32721,0.86021 -0.67509,1.77254 -1.00304,2.6325"
         style="fill:none;stroke:#000000;stroke-width:2.5;stroke-miterlimit:4;stroke-dasharray:none"
         inkscape:connector-curvature="0" />
      <path
         id="path3819"
         d="m 91.826908,285.36959 -0.45294,0.1727 m 0.05414,-1.21933 -1.263726,0.48151 m 0.865215,-1.52828 -2.09686,0.79772 m 1.698983,-1.84474 -2.943357,1.11725 m 2.546459,-2.16462 -3.797053,1.43692 m 3.40125,-2.48474 -4.653687,1.75441 m 4.259381,-2.80277 -5.510839,2.06803 m 5.118261,-3.11705 -6.367415,2.37663 m 5.976795,-3.42639 -7.22307,2.67939 m 6.834754,-3.72998 -8.078378,2.97578 m 7.692538,-4.0273 -8.934205,3.26545 m 8.551188,-4.31798 -9.791818,3.54808 m 9.411854,-4.60173 -10.652369,3.82345 m 10.275745,-4.87828 -11.517123,4.09121 m 11.14407,-5.14732 -12.387119,4.35102 m 12.017925,-5.40849 -13.263278,4.60242 m 12.898231,-5.66133 -14.146176,4.84484 m 13.785564,-5.90526 -15.036273,5.0776 m 14.680326,-6.13961 -15.933512,5.29992 m 15.582576,-6.36358 -16.837893,5.51092 m 16.492199,-6.5763 -17.748898,5.70966 m 17.408733,-6.77682 -18.666066,5.89516 m 18.331775,-6.96417 -19.588705,6.06639 m 19.260462,-7.13729 -20.516009,6.22236 m 20.194217,-7.29519 -21.447231,6.36203 m 21.132178,-7.43685 -22.381793,6.4845 m 22.073652,-7.56135 -23.318947,6.58887 m 23.01812,-7.66777 -24.258462,6.67434 m 23.965238,-7.75532 -25.200223,6.74018 m 24.914832,-7.82326 -26.144288,6.78574 m 25.867075,-7.87095 -27.091117,6.81048 m 26.822314,-7.8978 -28.041518,6.81386 m 27.781527,-7.90331 -28.996584,6.79542 m 28.745636,-7.88698 -29.957583,6.75467 m 29.715966,-7.84836 -30.92607,6.69115 m 30.694128,-7.78692 -31.903598,6.60426 m 31.681621,-7.70209 -32.891725,6.49333 m 32.680058,-7.59319 -33.891774,6.35756 m 33.690647,-7.4594 -34.90438,6.19593 m 34.714138,-7.2997 -35.929655,6.00725 m 35.750645,-7.1129 -36.966394,5.79012 m 36.798961,-6.89757 -38.012117,5.54292 m 37.856549,-6.6521 -39.062103,5.26392 m 38.918687,-6.37473 -40.109323,4.95128 m 39.978464,-6.06364 -41.143757,4.60326 m 41.025741,-5.71705 -42.151696,4.21831 m 42.046813,-5.33342 -43.115057,3.79541 m 43.023651,-4.91171 -44.010913,3.33431 m 43.933273,-4.45165 -44.810411,2.83593 m 44.746709,-3.95414 -45.478128,2.30287 m 45.428653,-3.42181 -46.672508,1.76323 m 46.637662,-2.88271 -47.972981,1.17835 m 47.953053,-2.29819 -49.122724,0.54128 m 49.118174,-1.66129 -50.161766,-0.1416 m 50.172824,-0.97836 -51.1219,-0.86625 m 51.14897,-0.25344 -52.028297,-1.6304 m 52.071552,0.51123 -52.899733,-2.43321 m 52.959519,1.31479 -53.749974,-3.27482 m 53.826577,2.15743 -54.588292,-4.15609 m 54.681944,3.04 -55.420274,-5.07826 m 55.531205,3.96377 -56.248455,-6.04276 m 56.376953,4.93015 -57.073007,-7.05098 m 57.219302,5.94057 -57.89203,-8.10416 m 58.056411,6.9963 -58.702241,-9.20335 m 58.884995,8.09836 -59.499493,-10.34917 m 59.700793,9.24742 -60.278544,-11.54194 m 60.49862,10.44379 -61.034095,-12.78157 m 61.273294,11.68742 -61.760734,-14.0676 m 62.019169,12.97784 -62.452986,-15.39919 m 62.730947,14.31424 -63.105843,-16.7752 m 63.403502,15.6955 -63.714524,-18.19425 M 80.560329,208.19089 16.285391,188.5362 M 80.89796,207.12301 16.114444,185.96824 M 81.25575,206.06173 16.018546,183.36906 M 81.633987,205.00755 16,180.74097 M 82.03267,203.96094 16.060649,178.08623 M 82.451973,202.92242 16.201588,175.40697 M 82.891896,201.89249 16.42345,172.70513 m 66.929161,28.16656 -66.626204,-30.8892 m 67.107711,29.87803 -66.72406,-32.61995 m 67.226417,31.61898 -66.762592,-34.37893 m 67.285799,33.38869 -66.742433,-36.1656 M 85.403682,196.89037 18.73935,158.91064 M 85.968473,195.92328 19.439666,156.10217 M 86.554115,194.96864 20.217968,153.279 m 66.942466,40.74801 -66.086005,-43.58508 m 66.712944,42.65706 -65.77746,-45.50687 M 88.434816,192.18519 23.026031,144.73121 M 89.102705,191.2862 24.125492,141.86173 m 65.665377,48.54091 -64.478773,-51.41525 m 65.187096,50.54775 -63.908279,-53.42162 m 64.63653,52.5708 -63.258878,-55.43673 m 64.006884,54.60323 -62.522448,-57.45104 m 63.28998,56.63547 -61.689084,-59.45157 M 93.529692,186.23824 32.782428,124.817 m 61.55304,60.6434 -59.68432,-63.33789 M 95.15979,184.70234 36.674054,119.52894 M 96.002371,183.96463 38.866064,117.07196 M 96.862801,183.24778 41.242902,114.79541 M 97.740631,182.5523 43.820463,112.75234 m 54.814818,69.12634 -52.86385,-72.04821 m 53.77503,71.39707 -51.627657,-74.19202 m 52.554906,73.56405 -50.173058,-76.14243 m 51.115968,75.53822 -48.548371,-77.9335 M 102.37474,179.41548 55.583984,99.821582 M 103.34737,178.86044 58.419117,97.713329 M 104.33406,178.33073 61.352568,95.71899 M 105.33422,177.82681 64.369015,93.824922 M 106.34711,177.34911 67.457803,92.021544 M 107.37216,176.89804 70.611791,90.302886 M 108.40867,176.47402 73.82614,88.66609 M 109.45595,176.0774 77.097797,87.110919 M 110.51336,175.70856 80.424689,85.639304 M 111.58017,175.36784 83.805147,84.254838 M 112.65567,175.05557 87.237499,82.962354 M 113.73906,174.77204 90.720017,81.767537 M 114.82959,174.51756 94.250283,80.676537 M 115.92663,174.29235 97.825301,79.695662 m 19.203959,94.401018 -15.5877,-95.2656 m 16.69522,95.09967 -13.04216,-95.842153 M 119.2484,173.79474 108.77959,77.473437 m 11.58365,96.215353 -7.87242,-96.698704 m 8.98974,96.622954 -5.25834,-96.970866 m 6.3773,96.925366 -2.6322,-97.135196 m 3.75198,97.120026 0,-97.190149 m 1.11978,97.205319 2.63222,-97.135196 m -1.51327,97.180696 5.25836,-96.970866 m -4.14104,97.046626 7.87245,-96.698714 m -6.75759,96.804654 10.46882,-96.321303 m -9.35723,96.457313 13.04217,-95.842153 m -11.93465,96.008083 15.58773,-95.2656 m -14.48508,95.46128 18.10132,-94.596698 m -17.00431,94.821898 20.57935,-93.841023 m -19.48877,94.095503 23.01902,-93.004503 m -21.93562,93.288033 25.41812,-92.093216 m -24.34266,92.405486 27.77506,-91.113002 m -26.70826,91.453732 30.0887,-90.069266 m -29.03129,90.438106 32.35816,-88.966491 m -31.31085,89.363101 34.58252,-87.80793 m -33.546,88.23195 36.76036,-86.595154 M 141.09149,177.34911 179.98076,92.021544 M 142.1044,177.82681 183.06957,93.824922 m -39.96506,84.505808 42.98151,-82.61174 m -41.99481,83.14145 44.92824,-81.147111 m -43.95557,81.702151 46.79073,-79.593898 m -45.83266,80.173778 48.54838,-77.9335 m -47.60545,78.53771 50.17309,-76.14243 m -49.24583,76.7704 51.62767,-74.19202 m -50.7165,74.84316 52.86387,-72.04821 m -51.96919,72.72183 53.92014,-69.79996 m -53.04235,70.49544 55.61989,-68.45237 m -54.75947,69.16922 57.13631,-66.89267 m -56.29382,67.63038 58.48575,-65.1734 m -57.6614,65.93146 59.6843,-63.33788 m -58.87858,64.11572 60.74731,-61.42124 m -59.96055,62.21825 61.68906,-59.45157 m -60.92155,60.26715 62.52244,-57.45105 m -61.77444,58.28454 63.2589,-55.43673 m -62.53065,56.28755 63.90827,-53.42162 m -63.19996,54.28912 64.4788,-51.41525 m -63.79063,52.29881 64.97723,-49.42447 m -64.30933,50.32346 65.40879,-47.45398 m -64.76132,48.36778 65.77745,-45.50687 m -65.15051,46.43489 66.08598,-43.58508 M 160.88438,194.96864 227.2205,153.279 m -65.75052,42.64429 66.52882,-39.82111 m -65.96399,40.7882 66.66433,-37.97973 m -66.12031,38.95867 66.74244,-36.16561 m -66.21925,37.15585 66.7626,-34.37893 m -66.26026,35.3799 66.72411,-32.61995 m -66.2426,33.63112 66.62625,-30.8892 m -66.16554,31.91 66.46845,-29.18736 m -66.02847,30.21729 66.25035,-27.51546 m -65.83107,28.55398 65.97203,-25.87471 m -65.57334,26.92132 65.63398,-24.26658 m -65.25578,25.32076 65.23725,-22.69267 m -64.87942,23.75395 64.78347,-21.15477 m -64.44586,22.22265 64.27492,-19.65469 m -63.95737,20.72871 63.71451,-18.19425 m -63.41686,19.27395 63.10583,-16.7752 m -62.82788,17.86015 62.45301,-15.39919 m -62.19455,16.48895 61.76073,-14.0676 m -61.52156,15.16175 61.0341,-12.78157 m -60.81399,13.87972 60.27851,-11.54194 m -60.07721,12.64369 59.49944,-10.34917 m -59.31672,11.45416 58.70228,-9.20335 m -58.53789,10.3112 57.89201,-8.10416 m -57.74569,9.21457 57.07298,-7.05098 m -56.94449,8.16359 56.24847,-6.04275 m -56.13753,7.15725 55.42026,-5.07826 m -55.32664,6.19435 54.5883,-4.15609 m -54.51172,5.27348 53.74999,-3.27482 m -53.69018,4.39324 52.89975,-2.43321 m -52.85647,3.55238 52.0283,-1.63041 m -52.00126,2.75009 51.12193,-0.86625 m -51.11085,1.98621 50.16174,-0.1416 m -50.16631,1.26161 49.12274,0.54128 m -49.14266,0.57856 47.97301,1.17835 m -48.00788,-0.0589 46.67252,1.76323 m -46.72197,-0.6443 45.47814,2.30287 m -45.54183,-1.18465 44.81038,2.83593 m -44.88804,-1.71859 44.01091,3.3343 m -44.10232,-2.21801 43.11508,3.79543 m -43.21994,-2.68031 42.15168,4.21832 m -42.2697,-3.10453 41.14375,4.60327 m -41.27462,-3.49091 40.10931,4.95129 m -40.2527,-3.84048 39.06206,5.26393 m -39.21765,-4.15474 38.01209,5.54292 m -38.17954,-4.43547 36.96642,5.79012 m -37.14543,-4.68448 35.92966,6.00725 m -36.11988,-4.90348 34.9044,6.19594 m -35.10552,-5.09409 33.89177,6.35756 m -34.10347,-5.2577 32.89177,6.49332 m -33.11375,-5.39549 31.90363,6.60425 m -32.13557,-5.50848 30.92608,6.69114 m -31.16767,-5.59747 29.95758,6.75467 m -30.20853,-5.66309 28.99657,6.79541 m -29.25658,-5.70596 28.04152,6.81385 m -28.31028,-5.72653 27.09111,6.81047 m -27.36833,-5.72526 26.14425,6.78573 m -26.42963,-5.70265 25.2002,6.74019 m -25.49346,-5.65921 24.25849,6.67435 m -24.55931,-5.59546 23.31895,6.58889 m -23.62707,-5.51203 22.38177,6.48449 m -22.69687,-5.40967 21.44726,6.36203 m -21.76905,-5.2892 20.51601,6.22236 m -20.84422,-5.15146 19.58871,6.0664 m -19.92303,-4.99739 18.66609,5.89517 m -19.00624,-4.828 17.74893,5.70966 m -18.09462,-4.64428 16.83789,5.51091 m -17.18884,-4.44725 15.93353,5.29991 m -16.28945,-4.2379 15.03625,5.0776 m -15.39687,-4.01718 14.14618,4.84484 m -14.51123,-3.78594 13.26327,4.60242 m -13.63245,-3.54494 12.38712,4.351 m -12.76016,-3.29489 11.5171,4.0912 m -11.89375,-3.03638 10.65237,3.82344 m -11.03234,-2.76979 9.79182,3.54807 m -10.17486,-2.49554 8.93425,3.26544 m -9.32006,-2.21391 8.07839,2.97578 m -8.46674,-1.9252 7.2231,2.67939 m -7.61369,-1.62964 6.36741,2.37665 m -6.76001,-1.32762 5.51089,2.06803 m -5.90519,-1.01966 4.6537,1.75441 m -5.04946,-0.70659 3.79704,1.43691 m -4.19399,-0.38954 2.94338,1.11725 m -3.34124,-0.0702 2.09684,0.79772 m -2.49537,0.24905 1.26374,0.4815 m -1.66265,0.56512 0.45295,0.17271"
         style="opacity:0.25;fill:none;stroke:#0000ff;stroke-width:0.25;stroke-miterlimit:4;stroke-opacity:1;stroke-dasharray:none"
         inkscape:connector-curvature="0" />
      <path
         transform="matrix(1.5839191,0,0,1.6970563,-20.823549,-126.85704)"
         d="m 73.614867,243.21521 c 0,1.22039 -1.059986,2.20971 -2.367545,2.20971 -1.307559,0 -2.367545,-0.98932 -2.367545,-2.20971 0,-1.22039 1.059986,-2.20971 2.367545,-2.20971 1.307559,0 2.367545,0.98932 2.367545,2.20971 z"
         sodipodi:ry="2.2097087"
         sodipodi:rx="2.3675451"
         sodipodi:cy="243.21521"
         sodipodi:cx="71.247322"
         id="path3030-73-7"
         style="fill:#ff0000;fill-opacity:1;stroke:none"
         sodipodi:type="arc" />
      <path
         transform="matrix(1.5839191,0,0,1.6970563,42.561941,-126.85704)"
         d="m 73.614867,243.21521 c 0,1.22039 -1.059986,2.20971 -2.367545,2.20971 -1.307559,0 -2.367545,-0.98932 -2.367545,-2.20971 0,-1.22039 1.059986,-2.20971 2.367545,-2.20971 1.307559,0 2.367545,0.98932 2.367545,2.20971 z"
         sodipodi:ry="2.2097087"
         sodipodi:rx="2.3675451"
         sodipodi:cy="243.21521"
         sodipodi:cx="71.247322"
         id="path3030-73-4"
         style="fill:#ff0000;fill-opacity:1;stroke:none"
         sodipodi:type="arc" />
    </g>
    <g
       id="g3092"
       transform="translate(-9.5714285,-3.8571429)">
      <path
         id="path3785"
         d="m 815.95933,226.07929 c -0.93778,-0.41748 -1.93257,-0.85989 -2.86635,-1.28577 -0.93379,-0.42589 -1.92019,-0.88735 -2.84189,-1.33896 -0.9217,-0.45162 -1.89085,-0.94866 -2.79139,-1.44101 -0.90055,-0.49234 -1.84203,-1.04026 -2.71035,-1.58731 -0.86832,-0.54706 -1.76899,-1.1602 -2.59108,-1.77452 -0.82208,-0.61432 -1.66535,-1.30491 -2.42385,-1.99621 -0.75849,-0.69131 -1.52416,-1.4677 -2.19867,-2.24113 -0.67452,-0.77344 -1.33953,-1.63816 -1.90768,-2.49271 -0.56815,-0.85456 -1.10812,-1.80288 -1.54724,-2.7303 -0.43912,-0.92742 -0.83038,-1.94657 -1.11961,-2.93104 -0.28924,-0.98448 -0.51127,-2.05369 -0.63383,-3.07241 -0.12257,-1.01872 -0.16033,-2.11039 -0.10559,-3.135 0.0547,-1.0246 0.20873,-2.10622 0.44368,-3.105 0.23495,-0.9988 0.57936,-2.03568 0.98889,-2.97644 0.40953,-0.94076 0.93375,-1.8993 1.50385,-2.75237 0.5701,-0.85307 1.25502,-1.70402 1.96451,-2.44526 0.70948,-0.74125 1.52934,-1.46271 2.35211,-2.07588 0.82277,-0.61317 1.748,-1.19264 2.65604,-1.67061 0.90802,-0.47797 1.90882,-0.91282 2.8755,-1.25698 0.96669,-0.34415 2.01656,-0.63984 3.01962,-0.85709 1.00306,-0.21726 2.08089,-0.38286 3.10202,-0.48527 1.02112,-0.10241 2.10971,-0.1546 3.1359,-0.15942 1.0262,-0.005 2.11492,0.0366 3.13853,0.11096 1.02361,0.0743 2.1068,0.1901 3.12409,0.32651 1.01729,0.1364 2.09263,0.30973 3.10231,0.49419 1.00969,0.18444 2.07674,0.40227 3.07877,0.62434 1.00203,0.22207 2.06113,0.47532 3.05582,0.72812 0.9947,0.25279 2.04617,0.53588 3.03369,0.8154 0.98753,0.27951 2.0314,0.5895 3.01165,0.89369 0.98024,0.30418 2.01625,0.63964 2.9889,0.96735 0.97266,0.32772 2.00044,0.68763 2.96527,1.03775 0.96483,0.35012 1.98423,0.73307 2.94132,1.1038 0.95707,0.37075 1.96843,0.77438 2.91834,1.16307 0.94991,0.3887 1.95412,0.80971 2.89792,1.21295 0.9438,0.40324 1.94222,0.83773 2.88128,1.25189 0.93906,0.41416 1.93321,0.85834 2.86885,1.28024 0.93565,0.42189 1.92679,0.87284 2.85994,1.3003 0.93314,0.42747 1.92198,0.88353 2.8531,1.31536 0.93113,0.43183 1.91794,0.89212 2.84764,1.32686 0.92969,0.43474 1.91573,0.89652 2.84608,1.32998 0.93035,0.43346 1.91809,0.8918 2.85014,1.32163 0.93205,0.42983 1.92197,0.88343 2.85658,1.30762 0.9346,0.4242 1.92778,0.8706 2.86599,1.28672 0.93822,0.41612 1.9358,0.85259 2.87868,1.25803 0.94288,0.40544 1.94594,0.82919 2.89444,1.22133 0.94849,0.39214 1.95798,0.80039 2.91289,1.17666 0.9549,0.37627 1.97157,0.76633 2.93353,1.1242 0.96195,0.35786 1.98639,0.72708 2.95586,1.06406 0.96947,0.33698 2.00207,0.68271 2.97935,0.99631 0.97727,0.3136 2.01827,0.63322 3.00346,0.92095 0.9852,0.28773 2.03461,0.57858 3.02765,0.83794 0.99304,0.25935 2.05068,0.51875 3.05128,0.74721 1.00061,0.22847 2.06605,0.45377 3.0737,0.64885 1.00764,0.19508 2.08022,0.38365 3.09415,0.5429 1.01393,0.15924 2.09269,0.30853 3.11188,0.42959 1.01919,0.12107 2.10293,0.22862 3.1261,0.30928 1.02318,0.0807 2.11039,0.1442 3.13602,0.18239 1.02563,0.0382 2.11458,0.0556 3.1409,0.0496 1.02633,-0.006 2.11502,-0.0365 3.14006,-0.0884 1.02504,-0.0519 2.11125,-0.13153 3.1328,-0.23058 1.02155,-0.0991 2.10283,-0.22966 3.11847,-0.37743 1.01564,-0.14778 2.08932,-0.33074 3.09649,-0.52824 1.00715,-0.1975 2.07043,-0.4336 3.06641,-0.68137 0.99599,-0.24777 2.04595,-0.53741 3.02799,-0.83571 0.98203,-0.2983 2.0157,-0.64159 2.98095,-0.99038 0.96525,-0.3488 1.97961,-0.74558 2.92521,-1.14458 0.94559,-0.39901 1.93758,-0.84883 2.86067,-1.29745 0.92309,-0.44863 1.88968,-0.9507 2.78746,-1.44805 0.89778,-0.49735 1.83607,-1.05054 2.70584,-1.59538 0.86978,-0.54485 1.77696,-1.14769 2.61621,-1.73846 0.83925,-0.59078 1.71277,-1.24145 2.51918,-1.87632 0.80642,-0.63486 1.64394,-1.33123 2.41547,-2.00807 0.77152,-0.67684 1.571,-1.41656 2.30584,-2.13306 0.73484,-0.7165 1.49453,-1.49702 2.19117,-2.25071 0.69665,-0.7537 1.41508,-1.57234 2.07226,-2.36069 0.65718,-0.78834 1.33315,-1.64237 1.94988,-2.46275 0.61673,-0.82038 1.24932,-1.707 1.82488,-2.55677 0.57555,-0.84977 1.16418,-1.76615 1.69823,-2.6426 0.53404,-0.87645 1.07857,-1.81969 1.57132,-2.72001 0.49276,-0.90031 0.99391,-1.86728 1.44593,-2.78874 0.45202,-0.92144 0.90997,-1.90958 1.32155,-2.84978 0.41158,-0.9402 0.82696,-1.94695 1.19895,-2.90351 0.37199,-0.95656 0.74594,-1.97941 1.07955,-2.95003 0.33362,-0.97062 0.66758,-2.00719 0.9643,-2.98972 0.29671,-0.98253 0.59236,-2.03067 0.85383,-3.02315 0.26146,-0.9925 0.52063,-2.05022 0.74867,-3.05092 0.22803,-1.0007 0.45272,-2.06626 0.64926,-3.07361 0.19655,-1.00736 0.38891,-2.07921 0.55605,-3.09186 0.16714,-1.01266 0.32945,-2.08945 0.4694,-3.10623 0.13995,-1.01677 0.27462,-2.09736 0.38971,-3.11725 0.11509,-1.01989 0.22466,-2.1033 0.31733,-3.12547 0.0927,-1.02218 0.17975,-2.10762 0.2525,-3.1314 0.0727,-1.02378 0.14006,-2.11061 0.19548,-3.13547 0.0554,-1.02486 0.10571,-2.1126 0.14639,-3.13815 0.0407,-1.02555 0.0768,-2.11385 0.10538,-3.13981 0.0286,-1.02597 0.0533,-2.11458 0.0725,-3.14077 0.0192,-1.02619 0.0353,-2.11496 0.0477,-3.14125 0.0124,-1.02629 0.0227,-2.11513 0.0311,-3.14145 0.008,-1.02632 0.0158,-2.11518 0.0228,-3.14152"
         style="fill:none;stroke:#000000;stroke-width:2.5;stroke-miterlimit:4;stroke-dasharray:none"
         inkscape:connector-curvature="0" />
      <path
         id="path3787"
         d="m 815.38882,225.82512 -1.24594,2.79775 m 0.10572,-3.30767 -4.84533,10.79761 m 3.7074,-11.31251 -8.22589,18.04142 m 7.09179,-18.56476 -11.55501,24.75764 m 10.42632,-25.29262 -14.96874,31.12055 m 13.84708,-31.67015 -18.57931,37.24997 m 17.46644,-37.81707 -22.48024,43.21499 m 21.37799,-43.80238 -26.74952,49.03951 m 25.65993,-49.64994 -31.45138,54.70866 m 30.37666,-55.34478 -36.63681,60.17539 m 35.57939,-60.83977 -42.34324,65.367 m 41.3058,-66.06206 -48.59371,70.19138 m 47.57917,-70.9194 -55.39574,74.54299 m 54.40731,-75.30601 -62.7401,78.30829 m 61.78123,-79.10805 -70.59971,81.37087 m 69.67407,-82.20882 -78.92897,83.61626 m 78.04049,-84.49343 -87.66352,84.93624 m 86.8163,-85.85324 -96.72064,85.23286 m 95.91893,-86.18982 -106.00022,84.42202 M 796.0752,212.55551 680.68864,294.99211 M 795.37763,211.52038 670.62704,290.74956 M 794.7387,210.44815 660.78592,285.22219 m 133.3768,-75.88127 -142.84644,69.0687 M 793.65387,208.20136 642.37259,270.33612 M 793.21608,207.03274 634.10904,261.05086 M 792.85301,205.83884 626.67575,250.62751 M 792.56797,204.624 620.21514,239.16331 m 172.1487,-35.77028 -177.50531,23.3846 m 177.3845,-24.6265 -181.52009,11.45905 m 181.48448,-12.70626 -184.29906,-1.08507 m 184.34996,-0.16158 -185.76317,-14.07996 m 185.90124,12.83994 -185.85446,-27.34486 m 186.07975,26.11772 -184.5381,-40.68883 M 792.93357,195.98209 611.1296,142.06845 M 793.33076,194.79938 615.66265,127.98231 M 793.81133,193.64803 621.63738,114.4514 M 794.3727,192.53385 628.97962,101.68026 M 795.01168,191.46227 637.58603,89.864439 M 795.72455,190.43834 647.32454,79.185035 M 796.50709,189.46657 658.03566,69.802497 M 797.35466,188.55089 669.53507,61.849818 M 798.26228,187.6946 681.61771,55.425388 M 799.22472,186.90031 694.06342,50.585636 M 800.2366,186.16995 706.64423,47.337852 M 801.29251,185.50469 719.1332,45.633403 M 802.38708,184.90505 731.31433,45.361426 M 803.51511,184.3709 742.99331,46.343084 M 804.67164,183.90156 754.0086,48.326088 M 805.85207,183.49587 764.24261,50.979193 M 807.0522,183.15246 773.6331,53.88646 M 808.26821,182.86967 782.49412,58.16248 M 809.49647,182.6454 790.67639,63.903446 M 810.73362,182.47689 797.98357,70.446248 M 811.97681,182.36101 804.38554,77.566997 m 8.83807,104.727393 -3.32914,-97.250702 m 4.5776,97.229782 0.086,-89.605415 m 1.16248,89.626645 2.73062,-82.04079 m -1.48328,82.10061 4.69851,-74.71249 m -3.45327,74.80749 6.09257,-67.74731 m -4.85009,67.87422 7.01742,-61.24342 m -5.77818,61.39919 7.57362,-55.27194 m -6.33789,55.45376 7.85352,-49.87933 m -6.62146,50.08467 7.93863,-45.09003 m -6.71031,45.31664 7.89821,-40.90908 m -6.67362,41.15498 7.78881,-37.32463 m -6.5679,37.58813 7.65459,-34.31032 m -6.43731,34.59001 7.52822,-31.82746 m -6.3145,32.12216 7.43191,-29.82721 m -6.22169,30.13598 7.37877,-28.25266 m -6.17203,28.57475 7.37411,-27.04103 m -6.17083,27.37586 7.41672,-26.12575 m -6.21693,26.47291 7.50009,-25.43865 m -6.3038,25.79778 7.61347,-24.91201 m -6.42075,25.28287 7.74302,-24.48064 m -6.55394,24.86302 7.87275,-24.08384 m -6.68735,24.47755 7.9855,-23.66711 m -6.80384,24.07195 8.06401,-23.18373 m -6.88614,23.59947 8.09197,-22.5961 m -6.9179,23.02245 8.05504,-21.87671 m -6.88475,22.31333 7.94188,-21.00886 m -6.77532,21.45534 7.74507,-19.98698 m -6.58216,20.44285 7.46197,-18.81657 m -6.30257,19.28127 7.09517,-17.5137 m -5.93911,17.98663 6.65279,-16.10424 m -5.49986,16.58473 6.14826,-14.6225 m -4.99823,15.10986 5.59982,-13.10958 m -4.45242,13.6031 5.02945,-11.61116 m -3.88442,12.11014 4.46144,-10.17484 m -3.3185,10.67863 3.92044,-8.84688 m -2.77935,9.35484 3.42936,-7.66825 m -2.28988,8.17984 3.00663,-6.67009 m -1.86855,7.18485 2.66349,-5.86832 m -1.52666,6.38586 2.40076,-5.25737 m -1.26505,5.77741 2.20548,-4.80326 m -1.0708,5.32556 2.04696,-4.43563 m -0.91325,4.96002 1.87257,-4.03902 m -0.73975,4.56528 1.60284,-3.4431 m -0.47078,3.97093 1.12643,-2.41193 m 0.005,2.9408 0.29556,-0.63176 m 0.83588,1.16082 -1.07647,2.30273 m 2.20831,-1.77446 -1.37812,2.95687 m 2.51063,-2.42998 -1.6126,3.47202 m 2.74588,-2.94676 -1.9227,4.15688 m 3.0569,-3.63358 -2.28782,4.97087 m 3.4231,-4.44994 -2.69052,5.88057 m 3.82705,-5.3624 -3.11624,6.85871 m 4.25423,-6.34378 -3.55294,7.88355 m 4.6926,-7.37233 -3.99086,8.93791 m 5.13239,-8.4309 -4.42219,10.00865 m 5.5658,-9.50635 -4.84084,11.08599 m 5.98672,-10.5889 -5.24215,12.16294 m 6.3905,-11.67157 -5.62268,13.23482 m 6.77367,-12.74967 -5.97999,14.29883 m 7.1338,-13.82041 -6.31239,15.35365 m 7.46916,-14.88245 -6.61876,16.39908 m 7.77864,-15.93558 -6.89845,17.43573 m 8.06158,-16.98044 -7.15106,18.46484 m 8.31755,-18.01822 -7.37632,19.48794 m 8.54627,-19.0505 -7.57405,20.50678 m 8.74757,-20.07898 -7.74405,21.52307 m 8.92121,-21.10539 -7.88602,22.53843 m 9.06687,-22.13135 -7.99954,23.55423 m 9.18415,-23.15823 -8.08408,24.57159 m 9.2725,-24.18715 -8.13897,25.59125 m 9.3312,-25.21884 -8.16334,26.61358 m 9.35941,-26.25369 -8.15625,27.63855 m 9.35614,-27.29166 -8.11664,28.66578 m 9.32035,-28.33238 -8.04339,29.69447 m 9.25088,-29.37502 -7.93533,30.72347 m 9.14654,-30.41848 -7.79127,31.75135 m 9.00615,-31.46129 -7.61008,32.77636 m 8.82854,-32.50171 -7.39068,33.79657 m 8.6126,-33.53782 -7.13204,34.80981 m 8.35732,-34.56742 -6.83332,35.81377 m 8.06181,-35.58823 -6.49377,36.80606 m 7.72531,-36.59783 -6.1128,37.78416 m 7.34721,-37.59369 -5.69,38.74549 m 6.92709,-38.57325 -5.22514,39.6874 m 6.46467,-39.53382 -4.71816,40.60717 m 5.95991,-40.47268 -4.16921,41.50196 m 5.41291,-41.38699 -3.57865,42.36879 m 4.82402,-42.27374 -2.94706,43.20451 m 4.19382,-43.12978 -2.27525,44.00566 m 3.52306,-43.95162 -1.5643,44.76846 m 2.81285,-44.73546 -0.81563,45.48867 m 2.06456,-45.47707 -0.031,46.16158 m 1.27997,-46.17169 0.78731,46.78182 m 0.46127,-46.81391 1.63664,47.34332 m -0.38884,-47.39768 2.51361,47.83929 m -1.26699,-47.91614 3.41787,48.31447 m -2.17287,-48.41408 4.38579,49.1297 m -3.14286,-49.25241 5.38613,49.7929 m -4.14574,-49.93901 6.41312,50.33143 m -5.17574,-50.5012 7.46253,50.76755 m -6.22867,-50.96119 8.53133,51.11897 m -7.30148,-51.33664 9.61729,51.3995 m -8.39197,-51.64134 10.7188,51.61957 m -9.49852,-51.88568 11.83457,51.78678 m -10.61985,-52.07724 12.96342,51.9063 m -11.7548,-52.22116 14.10419,51.9814 m -12.9022,-52.32071 15.25553,52.01372 m -14.06073,-52.37748 16.41591,52.00371 m -15.22883,-52.39193 17.58349,51.95091 m -16.40467,-52.36355 18.75609,51.85417 m -17.5861,-52.29119 19.93127,51.71197 m -18.77065,-52.17331 21.10624,51.52259 m -19.95555,-52.00816 22.27795,51.28427 m -21.13773,-51.79395 23.44309,50.99535 m -22.3139,-51.52899 24.59818,50.65443 m -23.48055,-51.21191 25.73961,50.26047 m -24.63409,-50.84157 26.8637,49.81278 m -25.77081,-50.4173 27.96676,49.31116 m -26.88701,-49.93887 29.04517,48.75592 m -27.97909,-49.40656 30.0955,48.14787 m -29.04356,-48.82113 31.11445,47.4883 m -30.07714,-48.1839 32.09904,46.77904 m -31.07683,-47.49664 33.04662,46.02238 m -32.03994,-46.76161 33.95487,45.22101 m -32.96416,-45.9815 34.82194,44.37803 m -33.8476,-45.15939 35.64629,43.49684 m -34.68871,-44.29866 36.42711,42.58108 m -35.48665,-43.40291 37.16375,41.63453 m -36.24077,-42.47595 37.85593,40.66107 m -36.95075,-41.5216 38.50405,39.66452 m -37.61697,-40.5437 39.10837,38.6486 m -38.23968,-39.54596 39.66978,37.61675 m -38.81974,-38.5318 40.18864,36.57211 m -39.3575,-37.50436 40.6655,35.51733 m -39.85347,-36.46628 41.10037,34.45452 m -40.30767,-35.41968 41.49277,33.38513 m -40.71958,-34.36598 41.84108,32.30984 m -41.08755,-33.30589 42.14225,31.22852 m -41.40855,-32.23926 42.39155,30.14015 m -41.67778,-31.16506 42.58218,29.04271 m -41.88842,-30.08127 42.70432,27.93326 m -42.03064,-28.98497 42.74494,26.8079 m -42.09135,-27.8722 42.68695,25.6617 m -42.05343,-26.73807 42.50843,24.48891 m -41.89488,-25.5768 42.18228,23.28286 m -41.58856,-24.38171 41.88526,22.14681 m -41.31127,-23.25609 41.91627,21.21896 m -41.36199,-22.33822 41.82109,20.25436 m -41.28646,-21.38314 41.61856,19.27039 m -41.10349,-20.40823 41.32499,18.28085 m -40.82936,-19.42728 40.95466,17.29658 m -40.4781,-18.45116 40.5196,16.32591 m -40.06227,-17.48816 40.02957,15.37506 m -39.59106,-16.54455 39.49286,14.44859 m -39.07291,-15.62488 38.91591,13.54975 m -38.51427,-14.73242 38.30397,12.6807 m -37.92034,-13.86934 37.66084,11.84284 m -37.29491,-13.03705 36.98951,11.03695 m -36.64097,-12.23636 36.29217,10.2634 m -35.96071,-11.46763 35.57021,9.52225 m -35.25547,-10.73097 34.82467,8.81338 m -34.5263,-10.02624 34.0561,8.13654 m -33.77375,-9.35323 33.26505,7.4914 m -32.99835,-8.71161 32.45185,6.87761 m -32.2004,-8.10107 31.6166,6.29482 m -31.38002,-7.52124 30.75972,5.74264 m -30.5376,-6.97176 29.8817,5.22068 m -29.67364,-6.45227 28.98284,4.7286 m -28.7884,-5.96241 28.0639,4.26595 m -27.88266,-5.50177 27.12566,3.83233 m -26.95717,-5.06996 26.16897,3.42726 m -26.01279,-4.66651 25.19499,3.05023 m -25.05065,-4.29091 24.20485,2.70065 m -24.0719,-3.94261 23.1999,2.37789 m -23.07786,-3.62097 22.18146,2.08124 m -22.06985,-3.3253 21.15095,1.8099 m -21.04929,-3.05481 20.10969,1.56302 m -20.01748,-2.80868 19.05918,1.33967 m -18.97594,-2.58595 18.00064,1.13883 m -17.92586,-2.38565 16.93546,0.95945 m -16.86865,-2.20672 15.86465,0.80039 m -15.80529,-2.04804 14.78929,0.6605 m -14.73689,-1.90846 13.71023,0.53854 m -13.66428,-1.78676 12.62808,0.4333 m -12.58807,-1.68172 11.54347,0.34347 m -11.50889,-1.59206 10.45659,0.26777 m -10.42692,-1.51649 9.36765,0.20489 m -9.34239,-1.45371 8.27659,0.15352 m -8.25523,-1.40241 7.18323,0.11232 m -7.16523,-1.36127 6.08725,0.08 m -6.07213,-1.32895 4.98832,0.0551 m -4.97554,-1.30414 3.88607,0.0365 m -3.87511,-1.28548 2.78022,0.0226 m -2.77058,-1.27162 1.67073,0.0122 m -1.66187,-1.26121 0.55783,0.004"
         style="opacity:0.25;fill:none;stroke:#0000ff;stroke-width:0.25;stroke-miterlimit:4;stroke-opacity:1;stroke-dasharray:none"
         inkscape:connector-curvature="0" />
      <path
         transform="matrix(1.5839191,0,0,1.6970563,710.31264,-229.63054)"
         d="m 73.614867,243.21521 c 0,1.22039 -1.059986,2.20971 -2.367545,2.20971 -1.307559,0 -2.367545,-0.98932 -2.367545,-2.20971 0,-1.22039 1.059986,-2.20971 2.367545,-2.20971 1.307559,0 2.367545,0.98932 2.367545,2.20971 z"
         sodipodi:ry="2.2097087"
         sodipodi:rx="2.3675451"
         sodipodi:cy="243.21521"
         sodipodi:cx="71.247322"
         id="path3030-73-8-6"
         style="fill:#ff0000;fill-opacity:1;stroke:none"
         sodipodi:type="arc" />
      <path
         transform="matrix(1.5839191,0,0,1.6970563,703.10934,-186.67061)"
         d="m 73.614867,243.21521 c 0,1.22039 -1.059986,2.20971 -2.367545,2.20971 -1.307559,0 -2.367545,-0.98932 -2.367545,-2.20971 0,-1.22039 1.059986,-2.20971 2.367545,-2.20971 1.307559,0 2.367545,0.98932 2.367545,2.20971 z"
         sodipodi:ry="2.2097087"
         sodipodi:rx="2.3675451"
         sodipodi:cy="243.21521"
         sodipodi:cx="71.247322"
         id="path3030-73-8-5"
         style="fill:#ff0000;fill-opacity:1;stroke:none"
         sodipodi:type="arc" />
      <path
         transform="matrix(1.5839191,0,0,1.6970563,873.59524,-290.92037)"
         d="m 73.614867,243.21521 c 0,1.22039 -1.059986,2.20971 -2.367545,2.20971 -1.307559,0 -2.367545,-0.98932 -2.367545,-2.20971 0,-1.22039 1.059986,-2.20971 2.367545,-2.20971 1.307559,0 2.367545,0.98932 2.367545,2.20971 z"
         sodipodi:ry="2.2097087"
         sodipodi:rx="2.3675451"
         sodipodi:cy="243.21521"
         sodipodi:cx="71.247322"
         id="path3030-73-8-1"
         style="fill:#ff0000;fill-opacity:1;stroke:none"
         sodipodi:type="arc" />
    </g>
  </g>
</svg>
