<?xml version="1.0" encoding="UTF-8" standalone="no"?>
<!-- Created with Inkscape (http://www.inkscape.org/) -->

<svg
   xmlns:dc="http://purl.org/dc/elements/1.1/"
   xmlns:cc="http://creativecommons.org/ns#"
   xmlns:rdf="http://www.w3.org/1999/02/22-rdf-syntax-ns#"
   xmlns:svg="http://www.w3.org/2000/svg"
   xmlns="http://www.w3.org/2000/svg"
   xmlns:sodipodi="http://sodipodi.sourceforge.net/DTD/sodipodi-0.dtd"
   xmlns:inkscape="http://www.inkscape.org/namespaces/inkscape"
   width="1024"
   height="1024"
   id="svg2"
   version="1.1"
   inkscape:version="0.48.3.1 r9886"
   sodipodi:docname="fairness_mvc.svg">
  <defs
     id="defs4" />
  <sodipodi:namedview
     id="base"
     pagecolor="#ffffff"
     bordercolor="#666666"
     borderopacity="1.0"
     inkscape:pageopacity="0.0"
     inkscape:pageshadow="2"
     inkscape:zoom="1.4"
     inkscape:cx="441.71665"
     inkscape:cy="827.99968"
     inkscape:document-units="px"
     inkscape:current-layer="layer1"
     showgrid="true"
     inkscape:window-width="1920"
     inkscape:window-height="1028"
     inkscape:window-x="0"
     inkscape:window-y="0"
     inkscape:window-maximized="1"
     inkscape:snap-bbox="true">
    <inkscape:grid
       type="xygrid"
       id="grid2985"
       empspacing="8"
       visible="true"
       enabled="true"
       snapvisiblegridlinesonly="true"
       spacingx="16px"
       spacingy="16px" />
  </sodipodi:namedview>
  <metadata
     id="metadata7">
    <rdf:RDF>
      <cc:Work
         rdf:about="">
        <dc:format>image/svg+xml</dc:format>
        <dc:type
           rdf:resource="http://purl.org/dc/dcmitype/StillImage" />
        <dc:title />
      </cc:Work>
    </rdf:RDF>
  </metadata>
  <g
     inkscape:label="Layer 1"
     inkscape:groupmode="layer"
     id="layer1"
     transform="translate(0,-28.362183)">
    <g
       id="g3038"
       transform="matrix(0.88453636,0,0,0.88453636,-181.55886,-46.057616)">
      <path
         id="path3024"
         d="m 300,300 c -1.3638,-0.95803 -2.70006,-1.95527 -4.00656,-2.99008 -1.30651,-1.0348 -2.58327,-2.10716 -3.82817,-3.21531 -1.2449,-1.10816 -2.45794,-2.2521 -3.63712,-3.42994 -1.17918,-1.17784 -2.3245,-2.38958 -3.43407,-3.63322 -1.10956,-1.24364 -2.18337,-2.51918 -3.21966,-3.82452 -1.03628,-1.30533 -2.03504,-2.64045 -2.99462,-4.00316 -0.95959,-1.36271 -1.87999,-2.75301 -2.7597,-4.1686 -0.87971,-1.41559 -1.71872,-2.85646 -2.51565,-4.32025 -0.79693,-1.46379 -1.55178,-2.9505 -2.2633,-4.45765 -0.71151,-1.50716 -1.3797,-3.03477 -2.00346,-4.58031 -0.62376,-1.54555 -1.20308,-3.10902 -1.73701,-4.68785 -0.53394,-1.57882 -1.02248,-3.173 -1.46483,-4.77989 -0.44235,-1.6069 -0.8385,-3.22651 -1.1878,-4.85616 -0.3493,-1.62965 -0.65175,-3.26935 -0.90685,-4.91637 -0.2551,-1.64703 -0.46285,-3.30139 -0.62291,-4.96036 -0.16005,-1.65896 -0.27242,-3.32253 -0.3369,-4.98794 -0.0645,-1.66542 -0.0811,-3.3327 -0.0498,-4.99907 0.0313,-1.66637 0.11051,-3.33184 0.2375,-4.99367 0.12698,-1.66182 0.30174,-3.31999 0.52399,-4.97177 0.22224,-1.65178 0.49198,-3.29718 0.80875,-4.93346 0.31677,-1.63629 0.68059,-3.26347 1.09085,-4.87885 0.41025,-1.61539 0.86695,-3.21898 1.36933,-4.80812 0.50239,-1.58915 1.05046,-3.16385 1.64331,-4.72151 0.59285,-1.55766 1.23048,-3.09828 1.91184,-4.61931 0.68136,-1.52103 1.40645,-3.02247 2.17407,-4.50184 0.76761,-1.47937 1.57776,-2.93667 2.4291,-4.3695 0.85134,-1.43283 1.74388,-2.84118 2.67613,-4.22273 0.93225,-1.38156 1.90422,-2.73631 2.9143,-4.06202 1.01008,-1.32571 2.05828,-2.62238 3.14285,-3.88788 1.08458,-1.26549 2.20554,-2.4998 3.36102,-3.70089 1.15549,-1.2011 2.34551,-2.36897 3.56809,-3.5017 1.22258,-1.13273 2.47773,-2.2303 3.76337,-3.29092 1.28564,-1.06062 2.60177,-2.08428 3.94622,-3.06928 1.34445,-0.98501 2.71721,-1.93136 4.11603,-2.8375 1.39882,-0.90614 2.82368,-1.77207 4.27225,-2.59635 1.44856,-0.82428 2.92083,-1.60691 4.41435,-2.34661 1.49353,-0.7397 3.00832,-1.43646 4.54188,-2.08913 1.53356,-0.65268 3.08588,-1.26126 4.6544,-1.82475 1.56852,-0.5635 3.15323,-1.08189 4.75154,-1.55434 1.5983,-0.47245 3.21018,-0.89895 4.83299,-1.2788 1.6228,-0.37984 3.25653,-0.71303 4.89847,-0.99902 1.64195,-0.28599 3.29212,-0.52477 4.94778,-0.71596 1.65567,-0.19118 3.31683,-0.33477 4.98074,-0.43052 1.66392,-0.0958 3.33058,-0.14367 4.99725,-0.14367 1.66667,0 3.33333,0.0479 4.99725,0.14367 1.66391,0.0958 3.32507,0.23934 4.98074,0.43052 1.65566,0.19119 3.30583,0.42997 4.94778,0.71596 1.64194,0.28599 3.27567,0.61918 4.89847,0.99902 1.62281,0.37985 3.23469,0.80635 4.83299,1.2788 1.59831,0.47245 3.18302,0.99084 4.75154,1.55434 1.56852,0.56349 3.12084,1.17207 4.6544,1.82475 1.53356,0.65267 3.04835,1.34943 4.54188,2.08913 1.49352,0.7397 2.96579,1.52233 4.41435,2.34661 1.44857,0.82428 2.87343,1.69021 4.27225,2.59635 1.39882,0.90614 2.77158,1.85249 4.11603,2.8375 1.34445,0.985 2.66058,2.00866 3.94622,3.06928 1.28564,1.06062 2.54078,2.15819 3.76337,3.29092 1.22258,1.13273 2.4126,2.3006 3.56809,3.5017 1.15548,1.20109 2.27644,2.4354 3.36102,3.70089 1.08457,1.2655 2.13277,2.56217 3.14285,3.88788 1.01008,1.32571 1.98205,2.68046 2.9143,4.06202 0.93225,1.38155 1.82479,2.7899 2.67613,4.22273 0.85134,1.43283 1.66149,2.89013 2.4291,4.3695 0.76762,1.47937 1.49271,2.98081 2.17407,4.50184 0.68136,1.52103 1.31899,3.06165 1.91184,4.61931 0.59285,1.55766 1.14092,3.13236 1.64331,4.72151 0.50238,1.58914 0.95908,3.19273 1.36933,4.80812 0.41026,1.61538 0.77408,3.24256 1.09085,4.87885 0.31677,1.63628 0.58651,3.28168 0.80875,4.93346 0.22225,1.65178 0.39701,3.30995 0.52399,4.97177 0.12699,1.66183 0.20619,3.3273 0.2375,4.99367 0.0313,1.66637 0.0147,3.33365 -0.0498,4.99907 -0.0645,1.66541 -0.17685,3.32898 -0.3369,4.98794 -0.16006,1.65897 -0.36781,3.31333 -0.62291,4.96036 -0.2551,1.64702 -0.55755,3.28672 -0.90685,4.91637 -0.3493,1.62965 -0.74545,3.24926 -1.1878,4.85616 -0.44235,1.60689 -0.93089,3.20107 -1.46483,4.77989 -0.53393,1.57883 -1.11325,3.1423 -1.73701,4.68785 -0.62376,1.54554 -1.29195,3.07315 -2.00346,4.58031 -0.71152,1.50715 -1.46637,2.99386 -2.2633,4.45765 -0.79693,1.46379 -1.63594,2.90466 -2.51565,4.32025 -0.87971,1.41559 -1.80011,2.80589 -2.7597,4.1686 -0.95958,1.36271 -1.95834,2.69783 -2.99462,4.00316 -1.03629,1.30534 -2.1101,2.58088 -3.21966,3.82452 -1.10957,1.24364 -2.25489,2.45538 -3.43407,3.63322 -1.17918,1.17784 -2.39222,2.32178 -3.63712,3.42994 -1.2449,1.10815 -2.52166,2.18051 -3.82817,3.21531 C 402.70006,298.04473 401.3638,299.04197 400,300"
         inkscape:connector-curvature="0"
         style="fill:none;stroke:#000000;stroke-width:2.26107144;stroke-miterlimit:4;stroke-dasharray:none" />
      <path
         id="path3026"
         d="m 297.97523,298.53375 -34.37985,46.06742 m 30.46087,-49.1714 -36.96966,44.0162 m 33.23547,-47.3402 -39.43734,41.81958 m 35.90029,-45.35261 -41.77476,39.48481 m 38.44652,-43.21522 -43.97418,37.01962 M 280.34834,280.92687 234.32,315.35902 m 43.14999,-38.51972 -47.93046,31.73094 m 45.2917,-35.97712 -49.67425,28.92491 m 47.28379,-33.31567 -51.25395,26.02333 m 49.11969,-30.54418 -52.66435,23.03579 m 50.79334,-27.67178 -53.90078,19.97216 m 52.2992,-24.70799 -54.95917,16.84255 m 53.63231,-21.66257 -55.83601,13.65732 m 54.78825,-18.5456 -56.5284,10.42696 m 55.7632,-15.36736 -57.03406,7.16215 m 56.55396,-12.13836 -57.35134,3.8737 m 57.15792,-8.86927 -57.47916,0.57245 m 57.57305,-5.57088 -57.41711,-2.73069 m 57.79801,-2.25409 -57.1654,-6.02482 m 57.83204,1.07016 -56.72485,-9.29904 m 57.67505,4.39086 -56.09694,-12.54255 m 57.32754,7.69706 -55.28371,-15.74462 m 56.79065,10.97783 -54.28787,-18.89468 m 56.06618,14.22235 -53.1127,-21.98234 m 55.15649,17.41988 -51.76208,-24.99737 m 54.06462,20.55987 -50.24048,-27.92984 m 52.79415,23.63194 -48.55292,-30.77003 m 51.34929,26.62595 -46.70498,-33.5086 m 49.73481,29.53201 -44.70276,-36.13647 m 47.95604,32.34051 -42.55287,-38.64497 m 46.01886,35.04219 -40.26243,-41.02583 m 43.92967,37.62812 -37.83898,-43.27116 m 41.69537,40.08974 -35.29054,-45.37355 m 39.32333,42.41894 -32.62553,-47.32606 m 36.8214,44.60802 -29.85274,-49.12225 m 34.19783,46.64975 -26.98134,-50.75617 m 31.46131,48.53738 -24.02082,-52.222429 m 28.62085,50.264679 -20.98094,-53.516181 m 25.68586,51.825931 -17.87177,-54.633147 m 22.66601,53.215997 -14.70356,-55.569655 m 19.57131,54.430275 -11.48678,-56.322599 m 16.41194,55.464759 -8.23205,-56.889499 m 13.19836,56.316019 -4.95013,-57.268469 m 9.94118,56.981259 -1.65186,-57.458271 m 6.65118,57.458271 1.65186,-57.458271 m 3.33919,57.745481 4.95013,-57.268469 m 0.0162,57.841949 8.23205,-56.889499 m -3.30689,57.747339 11.48678,-56.322599 m -6.61903,57.461979 14.70356,-55.569655 m -9.90932,56.986805 17.87177,-54.633147 M 381.74908,147.84046 402.73003,94.324279 M 386.34912,149.79821 410.36994,97.575781 M 390.82909,152.017 417.81043,101.26083 m -22.63625,53.22867 29.85274,-49.12225 m -25.65687,51.84029 32.62553,-47.32606 m -28.59274,50.28067 35.29054,-45.37355 m -31.43415,48.55497 37.83898,-43.27116 m -34.17174,46.66887 40.26243,-41.02583 m -36.79644,44.62861 42.55287,-38.64497 m -39.29959,42.44093 44.70276,-36.13647 m -41.67293,40.11306 46.70498,-33.5086 m -43.90861,37.65268 48.55292,-30.77003 m -45.99925,35.06793 50.24048,-27.92984 m -47.93794,32.36734 51.76207,-24.99737 m -49.71828,29.55983 53.1127,-21.98234 m -51.33439,26.65467 54.28787,-18.89468 m -52.78093,23.66147 55.28371,-15.74462 m -54.05311,20.59011 56.09694,-12.54255 m -55.14674,17.45073 56.72485,-9.29904 m -56.05821,14.2537 57.1654,-6.02482 m -56.7845,11.0096 57.41711,-2.73069 m -57.32322,7.72912 57.47916,0.57245 m -57.67258,4.42312 57.35134,3.8737 m -57.83144,1.10251 57.03406,7.16215 m -57.79926,-2.22175 56.5284,10.42696 m -57.57616,-5.53868 55.83601,13.65732 m -57.16287,-8.8373 54.95917,16.84255 m -56.56075,-12.10672 53.90078,19.97216 m -55.77179,-15.33617 52.66435,23.03579 m -54.79861,-18.51494 51.25395,26.02333 m -53.64441,-21.63257 49.67425,28.92491 m -52.31301,-24.67873 47.93046,31.73094 M 419.65166,280.92687 465.68,315.35902 m -49.13677,-30.51669 43.97418,37.01962 m -47.30242,-33.28921 41.77476,39.48481 m -45.31181,-35.95178 39.43734,41.81958 m -43.17153,-38.49558 36.96966,44.0162 m -40.88864,-40.91222 34.37985,46.06742"
         inkscape:connector-curvature="0"
         style="fill:none;stroke:#0000ff;stroke-width:0.56526786;stroke-miterlimit:4;stroke-dasharray:none" />
      <circle
         id="circle3028"
         r="10"
         cy="300"
         cx="300"
         sodipodi:cx="300"
         sodipodi:cy="300"
         sodipodi:rx="10"
         sodipodi:ry="10"
         style="fill:#ff0000;stroke:none"
         d="m 310,300 c 0,5.52285 -4.47715,10 -10,10 -5.52285,0 -10,-4.47715 -10,-10 0,-5.52285 4.47715,-10 10,-10 5.52285,0 10,4.47715 10,10 z"
         transform="matrix(0.56526789,0,0,0.56526789,130.41963,130.41963)" />
      <circle
         id="circle3030"
         r="10"
         cy="300"
         cx="400"
         sodipodi:cx="400"
         sodipodi:cy="300"
         sodipodi:rx="10"
         sodipodi:ry="10"
         style="fill:#ff0000;stroke:none"
         d="m 410,300 c 0,5.52285 -4.47715,10 -10,10 -5.52285,0 -10,-4.47715 -10,-10 0,-5.52285 4.47715,-10 10,-10 5.52285,0 10,4.47715 10,10 z"
         transform="matrix(0.56526789,0,0,0.56526789,173.89284,130.41963)" />
    </g>
    <g
       id="g3087"
       transform="matrix(0.48700629,0,0,0.48700629,546.45964,-24.528096)">
      <path
         id="path3071"
         d="m 178,363 c -1.61752,0.40167 -3.26622,0.67807 -4.9263,0.8259 -1.66008,0.14784 -3.3315,0.16709 -4.99439,0.0575 -1.66288,-0.10954 -3.31719,-0.34787 -4.9433,-0.71202 -1.62611,-0.36416 -3.22399,-0.85414 -4.77479,-1.46388 -1.55079,-0.60974 -3.05446,-1.33922 -4.49346,-2.17943 -1.43899,-0.84021 -2.81328,-1.79112 -4.10713,-2.84107 -1.29385,-1.04994 -2.50725,-2.1989 -3.62676,-3.43293 -1.11952,-1.23403 -2.14513,-2.55309 -3.0661,-3.9415 -0.92096,-1.3884 -1.73727,-2.84609 -2.4411,-4.35615 -0.70382,-1.51006 -1.29517,-3.07244 -1.76927,-4.66957 -0.4741,-1.59714 -0.83096,-3.229 -1.06886,-4.87797 -0.2379,-1.64898 -0.35686,-3.31504 -0.35807,-4.98114 -0.001,-1.66609 0.11533,-3.33219 0.34574,-4.98231 0.23041,-1.65013 0.57467,-3.28426 1.02664,-4.88794 0.45196,-1.60369 1.0116,-3.17691 1.67085,-4.70711 0.65925,-1.5302 1.4181,-3.01737 2.26706,-4.45105 0.84897,-1.43368 1.78803,-2.81388 2.80679,-4.13239 1.01876,-1.31851 2.11718,-2.57532 3.28443,-3.76448 1.16724,-1.18915 2.40328,-2.31065 3.69725,-3.36063 1.29397,-1.04998 2.64585,-2.02846 4.04513,-2.9335 1.39929,-0.90505 2.84596,-1.73668 4.33014,-2.49465 1.48418,-0.75798 3.00586,-1.44233 4.556,-2.05427 1.55014,-0.61195 3.12874,-1.15151 4.72779,-1.62114 1.59906,-0.46964 3.21856,-0.86937 4.85155,-1.20261 1.633,-0.33323 3.2795,-0.59999 4.93363,-0.80431 1.65414,-0.20432 3.31592,-0.34622 4.98055,-0.43016 1.66463,-0.0839 3.33212,-0.10991 4.99865,-0.0826 1.66654,0.0273 3.33213,0.10791 4.99387,0.23705 1.66174,0.12915 3.31964,0.30683 4.9716,0.52837 1.65195,0.22154 3.29796,0.48692 4.93661,0.79157 1.63864,0.30465 3.26994,0.64857 4.89304,1.02736 1.62311,0.37879 3.23803,0.79245 4.84442,1.23678 1.6064,0.44433 3.20427,0.91934 4.79367,1.42106 1.5894,0.50171 3.17034,1.03013 4.7432,1.58151 1.57286,0.55139 3.13763,1.12574 4.69496,1.71953 1.55733,0.5938 3.10723,1.20704 4.65051,1.83643 1.54328,0.62938 3.07996,1.27491 4.61101,1.93347 1.53105,0.65857 3.05648,1.33016 4.57736,2.01187 1.52088,0.6817 3.03722,1.37351 4.55016,2.07267 1.51293,0.69916 3.02247,1.40567 4.52976,2.11692 1.50729,0.71124 3.01234,1.42722 4.51631,2.14547 1.50396,0.71825 3.00684,1.43876 4.50975,2.15919 1.50291,0.72042 3.00585,1.44077 4.50989,2.15881 1.50405,0.71805 3.0092,1.43378 4.51645,2.14509 1.50724,0.71131 3.01659,1.41819 4.52893,2.11858 1.51235,0.7004 3.0277,1.39431 4.54687,2.07976 1.51917,0.68545 3.04216,1.36244 4.56968,2.02908 1.52752,0.66663 3.05957,1.3229 4.59673,1.96699 1.53716,0.64409 3.07943,1.27599 4.62728,1.89395 1.54785,0.61795 3.10128,1.22197 4.66062,1.81034 1.55933,0.58837 3.12458,1.16111 4.69594,1.71657 1.57136,0.55547 3.14883,1.09367 4.73249,1.61303 1.58365,0.51936 3.1735,1.01989 4.76947,1.50007 1.59597,0.48019 3.19806,0.94004 4.8061,1.37811 1.60804,0.43808 3.22202,0.85438 4.84162,1.24755 1.6196,0.39316 3.24483,0.76319 4.87525,1.1088 1.63041,0.34561 3.26601,0.6668 4.90624,0.96237 1.64023,0.29556 3.28508,0.5655 4.93389,0.8087 1.6488,0.2432 3.30156,0.45966 4.9575,0.64835 1.65593,0.1887 3.31503,0.34962 4.97642,0.48185 1.6614,0.13223 3.32508,0.23576 4.99008,0.30975 1.665,0.074 3.33132,0.11846 4.99791,0.13264 1.66658,0.0142 3.33343,-0.002 4.99941,-0.0489 1.66598,-0.047 3.3311,-0.12492 4.99417,-0.23429 1.66306,-0.10936 3.32406,-0.25018 4.98174,-0.42286 1.65768,-0.17268 3.31205,-0.37723 4.9618,-0.61397 1.64975,-0.23673 3.29489,-0.50565 4.93408,-0.80696 1.63919,-0.30132 3.27243,-0.63502 4.89835,-1.00123 1.62592,-0.36621 3.24453,-0.76492 4.85444,-1.19613 1.60991,-0.43121 3.21111,-0.89492 4.80222,-1.39102 1.59111,-0.4961 3.17213,-1.02459 4.74165,-1.58527 1.56952,-0.56067 3.12755,-1.15353 4.67269,-1.77827 1.54514,-0.62474 3.0774,-1.28135 4.59539,-1.96944 1.51798,-0.68809 3.02171,-1.40766 4.50981,-2.1582 1.4881,-0.75055 2.96058,-1.53208 4.41609,-2.34401 1.45552,-0.81194 2.89408,-1.65427 4.31438,-2.52635 1.4203,-0.87208 2.82234,-1.7739 4.20485,-2.70473 1.38252,-0.93082 2.7455,-1.89065 4.08774,-2.87866 1.34224,-0.98802 2.66373,-2.00423 3.96329,-3.04775 1.29956,-1.04352 2.57719,-2.11435 3.83176,-3.21155 1.25457,-1.0972 2.48608,-2.22077 3.69345,-3.36971 1.20737,-1.14894 2.39059,-2.32324 3.54866,-3.52186 1.15806,-1.19862 2.29096,-2.42155 3.39771,-3.6677 1.10676,-1.24615 2.18738,-2.51551 3.24095,-3.80694 1.05357,-1.29143 2.08009,-2.60493 3.07869,-3.93932 0.99861,-1.33439 1.9693,-2.68967 2.91129,-4.06462 0.94198,-1.37494 1.85525,-2.76956 2.73907,-4.1826 0.88381,-1.41304 1.73817,-2.8445 2.5624,-4.29311 0.82422,-1.44862 1.6183,-2.91437 2.38161,-4.39598 0.76332,-1.48161 1.49587,-2.97908 2.19708,-4.49107 0.70121,-1.51199 1.37108,-3.03852 2.0091,-4.57824 0.63803,-1.53973 1.2442,-3.09265 1.81806,-4.65742 0.57386,-1.56477 1.11542,-3.14139 1.62426,-4.72849 0.50884,-1.58711 0.98497,-3.1847 1.42804,-4.79141 0.44307,-1.60671 0.85309,-3.22253 1.22974,-4.84609 0.37666,-1.62357 0.71997,-3.25487 1.02967,-4.89252 0.30971,-1.63765 0.58583,-3.28166 0.82816,-4.93063 0.24233,-1.64897 0.45088,-3.3029 0.62552,-4.96041 0.17463,-1.65751 0.31534,-3.31859 0.42205,-4.98185 0.10671,-1.66326 0.17942,-3.32871 0.2181,-4.99494 0.0387,-1.66623 0.0433,-3.33325 0.0139,-4.99968 -0.0294,-1.66642 -0.0928,-3.33224 -0.19009,-4.99608 -0.0973,-1.66383 -0.22861,-3.32569 -0.39371,-4.98417 -0.16509,-1.65848 -0.36401,-3.3136 -0.59657,-4.96398 -0.23256,-1.65037 -0.49877,-3.29601 -0.79839,-4.93553 -0.29963,-1.63953 -0.63268,-3.27295 -0.99886,-4.8989 -0.36618,-1.62596 -0.7655,-3.24445 -1.19763,-4.85414 C 474.96229,185.19162 474.49735,183.59074 474,182"
         inkscape:connector-curvature="0"
         style="fill:none;stroke:#000000;stroke-width:4.10672331;stroke-miterlimit:4;stroke-dasharray:none" />
      <path
         id="path3073"
         d="m 175.55281,363.50819 25.55803,152.44716 m -30.53328,-152.00411 1.78105,154.59686 m -6.76474,-154.92513 -22.03628,152.98261 m 17.16277,-154.07395 -45.24164,147.5589 M 156.07254,360.7043 88.901926,499.18628 m 62.857814,-141 -87.195858,126.04417 M 147.88183,355.03965 43.138285,465.68743 M 144.52632,351.34129 25.212636,444.14433 M 141.76575,347.18018 11.251994,420.30485 M 139.65584,342.65434 1.5599963,394.96399 M 138.23435,337.86735 -3.7467311,368.96272 M 137.5207,332.92477 -4.7412417,343.13389 M 137.51645,327.93063 -1.6678006,318.2532 M 138.20641,322.98406 5.0881421,295.00318 M 139.56052,318.17639 15.031692,273.94949 M 141.53607,313.58868 27.587713,255.52447 M 144.08048,309.28996 42.12966,240.01359 m 105.00442,65.32262 -89.121268,-77.78978 m 92.620278,74.22355 -76.019159,-83.67123 m 79.898379,80.522 -63.138901,-87.10707 m 67.334201,84.3922 -50.87707,-88.35907 m 55.32724,86.085 -39.51684,-87.69798 m 44.16513,85.86167 -29.28018,-85.45965 m 34.07547,84.05 -20.27785,-81.89237 m 25.17524,80.89173 -12.59503,-77.37807 m 17.55611,76.76403 -6.22187,-72.2438 m 11.21469,71.99086 -1.08716,-66.7487 m 6.08593,66.82946 2.91407,-61.09245 m 2.07053,61.4787 5.90295,-55.4257 m -0.94753,56.08915 8.00572,-49.85924 m -3.09005,50.77207 9.34696,-44.47134 m -4.47779,45.60664 10.04509,-39.31361 m -5.22595,40.64558 10.20954,-34.41584 m -5.44127,35.92002 9.93907,-29.7905 m -5.22037,31.44375 9.3213,-25.43679 m -4.64912,27.21732 8.43286,-21.34456 m -3.80279,23.23192 7.3405,-17.49787 m -2.74709,19.4728 6.1023,-13.87799 m -1.53937,15.92239 4.76925,-10.4658 m -0.23016,12.56261 3.38637,-7.24344 m 1.1358,9.37654 1.99354,-4.195 m 2.51864,6.34914 0.62563,-1.3063 m 3.88337,3.46701 -0.68782,1.43645 m 5.20021,0.71713 -1.92186,4.04523 m 6.44384,-1.91183 -3.06539,6.55103 m 7.60264,-4.45035 -4.10333,8.96838 m 8.66104,-6.9125 -5.01639,11.29431 m 9.59911,-9.29488 -5.79158,13.53093 m 10.40319,-11.59911 -6.42051,15.68254 m 11.06416,-13.82911 -6.89787,17.75368 m 11.57595,-15.98897 -7.22046,19.74773 m 11.93457,-18.08173 -7.38654,21.66617 m 12.13751,-20.10847 -7.39554,23.50824 m 12.18342,-22.06805 -7.24807,25.27103 m 12.07212,-23.95715 -6.94598,26.94989 m 11.8047,-25.77072 -6.49255,28.53907 m 11.38367,-27.50256 -5.89256,30.03245 m 10.81308,-29.14604 -5.15228,31.4242 m 10.09852,-30.69487 -4.27932,32.70942 m 9.24691,-32.14359 -3.28232,33.88426 m 8.26627,-33.48779 -2.17058,34.94589 m 7.16533,-34.72411 -0.9538,35.89191 m 5.95328,-35.84953 0.35803,36.71934 m 4.63963,-36.86049 1.75452,37.42341 m 3.23435,-37.75163 3.22423,37.99622 m 1.74851,-38.51436 4.75516,38.43652 m 0.19376,-39.14679 6.33727,38.75354 m -1.42004,-39.65752 7.95932,38.94336 m -3.0819,-40.042 9.61014,39.00515 m -4.78076,-40.29876 11.27883,38.94015 m -6.50585,-40.42841 12.95507,38.75105 m -8.24685,-40.43302 14.62916,38.44156 m -9.99409,-40.31568 16.2921,38.01597 m -11.73847,-40.08013 17.93549,37.47898 m -13.47152,-39.73049 19.55161,36.83556 m -15.18539,-39.2712 21.13334,36.09087 m -16.87276,-38.70693 22.67418,35.2503 m -18.52695,-38.04258 24.16833,34.31945 m -20.14192,-37.28329 25.61064,33.30411 m -21.71225,-36.43445 26.99674,32.21029 m -23.23331,-35.50164 28.323,31.04406 m -24.70115,-34.49062 29.58651,29.81159 m -26.11257,-33.40718 30.78506,28.51886 m -27.46502,-32.25702 31.91701,27.17169 m -28.75653,-31.04569 32.98115,25.77556 m -29.98554,-29.77843 33.97655,24.33559 m -31.15079,-28.46012 34.90263,22.85659 m -32.25136,-27.0954 35.75945,21.34331 m -33.28695,-25.68882 36.54657,19.79974 m -34.25678,-24.24424 37.2649,18.2302 m -35.1614,-22.76585 37.91517,16.63847 m -36.00123,-21.25731 38.4981,15.02788 m -36.77662,-19.72185 39.0144,13.40149 m -37.48796,-18.16246 39.46479,11.76207 m -38.13566,-16.58185 39.85005,10.11219 m -38.72014,-14.98254 40.17094,8.45422 m -39.24187,-13.36683 40.42817,6.7903 m -39.70121,-11.73686 40.62237,5.12245 m -40.0985,-10.09463 40.75405,3.45257 m -40.43394,-8.44201 40.82357,1.78244 m -40.70754,-6.78079 40.8311,0.11382 m -40.91921,-5.11274 40.77672,-1.55153 m -41.06869,-3.43963 40.6603,-3.21181 m -41.15555,-1.7633 40.48166,-4.86513 m -41.1793,-0.0856 40.24049,-6.50951 m -41.1393,1.59127 39.93644,-8.14279 m -41.03492,3.26526 39.56907,-9.76267 m -40.86536,4.93395 39.13782,-11.36659"
         inkscape:connector-curvature="0"
         style="fill:none;stroke:#0000ff;stroke-width:1.02668083;stroke-miterlimit:4;stroke-dasharray:none" />
      <circle
         id="circle3075"
         r="10"
         cy="363"
         cx="178"
         sodipodi:cx="178"
         sodipodi:cy="363"
         sodipodi:rx="10"
         sodipodi:ry="10"
         style="fill:#ff0000;stroke:none"
         d="m 188,363 c 0,5.52285 -4.47715,10 -10,10 -5.52285,0 -10,-4.47715 -10,-10 0,-5.52285 4.47715,-10 10,-10 5.52285,0 10,4.47715 10,10 z"
         transform="matrix(1.0266808,0,0,1.0266808,-4.7491797,-9.6851249)" />
      <circle
         id="circle3077"
         r="10"
         cy="288.5528"
         cx="191.31593"
         sodipodi:cx="191.31593"
         sodipodi:cy="288.5528"
         sodipodi:rx="10"
         sodipodi:ry="10"
         style="fill:#ff0000;stroke:none"
         d="m 201.31593,288.5528 c 0,5.52284 -4.47715,10 -10,10 -5.52284,0 -10,-4.47716 -10,-10 0,-5.52285 4.47716,-10 10,-10 5.52285,0 10,4.47715 10,10 z"
         transform="matrix(1.0266808,0,0,1.0266808,-5.1044592,-7.698815)" />
      <circle
         id="circle3079"
         r="10"
         cy="182"
         cx="474"
         sodipodi:cx="474"
         sodipodi:cy="182"
         sodipodi:rx="10"
         sodipodi:ry="10"
         style="fill:#ff0000;stroke:none"
         d="m 484,182 c 0,5.52285 -4.47715,10 -10,10 -5.52285,0 -10,-4.47715 -10,-10 0,-5.52285 4.47715,-10 10,-10 5.52285,0 10,4.47715 10,10 z"
         transform="matrix(1.0266808,0,0,1.0266808,-12.646692,-4.8559028)" />
    </g>
    <g
       id="g3112"
       transform="matrix(0.3863762,0,0,0.3863762,245.47839,-10.867066)">
      <path
         id="path3096"
         d="m 200,400 c -1.63704,0.31297 -3.26632,0.66651 -4.88586,1.06019 -1.61953,0.39369 -3.2293,0.82751 -4.82734,1.30093 -1.59805,0.47343 -3.18436,0.98646 -4.75698,1.53846 -1.57263,0.55201 -3.13158,1.14299 -4.67492,1.77222 -1.54335,0.62923 -3.07111,1.29671 -4.58139,2.00161 -1.51028,0.70491 -3.00309,1.44725 -4.4766,2.2261 -1.4735,0.77885 -2.92771,1.59422 -4.36082,2.44511 -1.43312,0.85088 -2.84515,1.73728 -4.23436,2.65811 -1.38921,0.92082 -2.75559,1.87607 -4.09749,2.86457 -1.34189,0.9885 -2.65929,2.01025 -3.95059,3.06399 -1.29129,1.05374 -2.55647,2.13947 -3.79399,3.25587 -1.23753,1.11639 -2.4474,2.26344 -3.62813,3.43974 -1.18073,1.17629 -2.33232,2.38183 -3.45337,3.61514 -1.12104,1.2333 -2.21155,2.49437 -3.27018,3.78164 -1.05863,1.28728 -2.08539,2.60077 -3.07902,3.93885 -0.99363,1.33808 -1.95415,2.70076 -2.88037,4.08635 -0.92622,1.3856 -1.81815,2.79411 -2.67472,4.22381 -0.85657,1.4297 -1.67777,2.88058 -2.46262,4.35087 -0.78484,1.47029 -1.53333,2.95998 -2.24457,4.46725 -0.71124,1.50727 -1.38523,3.03211 -2.02116,4.57266 -0.63594,1.54055 -1.23382,3.0968 -1.79295,4.66685 -0.55913,1.57005 -1.0795,3.1539 -1.56051,4.74962 -0.48101,1.59571 -0.92266,3.20329 -1.32444,4.82076 -0.40179,1.61748 -0.76371,3.24485 -1.08536,4.88014 -0.32165,1.6353 -0.60304,3.27851 -0.84386,4.92764 -0.24082,1.64913 -0.44107,3.30418 -0.60055,4.96315 -0.15949,1.65897 -0.27822,3.32186 -0.35609,4.98665 -0.0779,1.6648 -0.11488,3.3315 -0.11104,4.99811 0.004,1.66661 0.0485,3.33312 0.13392,4.99754 0.0854,1.66442 0.21154,3.32674 0.3782,4.985 0.16665,1.65825 0.37382,3.31243 0.62119,4.96057 0.24737,1.64815 0.53493,3.29025 0.86227,4.92439 0.32735,1.63414 0.69447,3.2603 1.10086,4.87659 0.40638,1.61629 0.85203,3.22271 1.33634,4.81738 0.4843,1.59467 1.00726,3.1776 1.56817,4.74697 0.5609,1.56936 1.15976,3.12516 1.79576,4.66561 0.63601,1.54046 1.30917,3.06557 2.01861,4.57361 0.70943,1.50804 1.45514,2.99902 2.23615,4.47126 0.78101,1.47224 1.59733,2.92575 2.44791,4.35892 0.85058,1.43317 1.73542,2.846 2.6534,4.23696 0.91798,1.39095 1.8691,2.76004 2.85216,4.10577 0.98307,1.34574 1.99808,2.66814 3.04379,3.9658 1.0457,1.29767 2.12209,2.5706 3.22785,3.81748 1.10576,1.24688 2.24089,2.46771 3.40401,3.66126 1.16312,1.19354 2.35424,2.35981 3.57191,3.49764 1.21768,1.13784 2.46192,2.24724 3.73126,3.32715 1.26934,1.0799 2.56376,2.13031 3.88177,3.15025 1.31801,1.01993 2.6596,2.00939 4.02322,2.96749 1.36362,0.9581 2.74928,1.88484 4.15539,2.77941 1.40612,0.89458 2.83268,1.75699 4.27811,2.58653 1.44543,0.82954 2.90971,1.62621 4.39123,2.3894 1.48153,0.76319 2.98029,1.4929 4.49467,2.1886 1.51438,0.6957 3.04438,1.3574 4.58836,1.98467 1.54399,0.62726 3.10195,1.22009 4.67227,1.77815 1.57033,0.55806 3.153,1.08135 4.74641,1.56962 1.5934,0.48827 3.19754,0.94152 4.81079,1.35959 1.61325,0.41807 3.23561,0.80095 4.8655,1.14859 1.62988,0.34763 3.26728,0.66001 4.91063,0.93714 1.64334,0.27714 3.29263,0.51902 4.94631,0.72576 1.65367,0.20673 3.31175,0.37831 4.97269,0.51491 1.66095,0.1366 3.32477,0.23821 4.98998,0.30509 1.66521,0.0669 3.33181,0.099 4.99836,0.0967 1.66655,-0.002 3.33305,-0.039 4.99811,-0.10971 1.66505,-0.0707 3.32865,-0.17549 4.98944,-0.31383 1.6608,-0.13834 3.3188,-0.31026 4.97269,-0.51524 1.6539,-0.20498 3.30369,-0.44302 4.94813,-0.71355 1.64445,-0.27053 3.28354,-0.57355 4.9161,-0.90843 1.63255,-0.33488 3.25856,-0.70163 4.87691,-1.09956 1.61834,-0.39793 3.22901,-0.82705 4.83093,-1.28664 1.60193,-0.45958 3.19511,-0.94963 4.77854,-1.46938 1.58343,-0.51976 3.15711,-1.06921 4.72009,-1.64758 1.56298,-0.57836 3.11526,-1.18563 4.65596,-1.82097 1.5407,-0.63535 3.06982,-1.29876 4.58655,-1.9894 1.51673,-0.69064 3.02106,-1.40849 4.51224,-2.15268 1.49119,-0.7442 2.96923,-1.51472 4.43344,-2.31069 1.46421,-0.79596 2.91459,-1.61736 4.35053,-2.46328 1.43593,-0.84593 2.85741,-1.71637 4.26389,-2.61041 1.40649,-0.89404 2.79797,-1.81167 4.17396,-2.75197 1.37599,-0.9403 2.73649,-1.90326 4.08107,-2.88794 1.34459,-0.98468 2.67326,-1.9911 3.98565,-3.0183 1.3124,-1.0272 2.60851,-2.07519 3.88805,-3.14303 1.27954,-1.06785 2.54251,-2.15555 3.78866,-3.26218 1.24614,-1.10663 2.47547,-2.2322 3.68781,-3.37577 1.21234,-1.14358 2.40767,-2.30517 3.58589,-3.48386 1.17822,-1.1787 2.33932,-2.3745 3.48323,-3.58652 1.14391,-1.21203 2.27064,-2.44027 3.38016,-3.68385 1.10952,-1.24358 2.20184,-2.50251 3.277,-3.77593 1.07515,-1.27342 2.13315,-2.56132 3.17406,-3.86288 1.04092,-1.30156 2.06476,-2.61678 3.07166,-3.94484 1.0069,-1.32806 1.99685,-2.66896 2.97005,-4.02192 0.9732,-1.35296 1.92963,-2.71798 2.86953,-4.09428 0.93989,-1.37631 1.86325,-2.76391 2.77034,-4.16206 0.90708,-1.39816 1.79789,-2.80687 2.67272,-4.22543 0.87484,-1.41856 1.7337,-2.84696 2.57693,-4.28453 0.84323,-1.43757 1.67082,-2.88431 2.48315,-4.33957 0.81232,-1.45525 1.60938,-2.91903 2.39157,-4.39069 0.78219,-1.47167 1.54951,-2.95124 2.30239,-4.43812 0.75289,-1.48687 1.49133,-2.98106 2.21579,-4.48199 0.72446,-1.50094 1.43495,-3.00862 2.13194,-4.52251 0.69699,-1.51389 1.38049,-3.03399 2.051,-4.5598 0.67052,-1.52581 1.32806,-3.05732 1.97315,-4.59406 0.64509,-1.53673 1.27774,-3.07869 1.89849,-4.62542 0.62075,-1.54674 1.22962,-3.09824 1.82716,-4.65409 0.59755,-1.55584 1.18378,-3.11604 1.75928,-4.68017 0.5755,-1.56414 1.14027,-3.13222 1.69492,-4.70388 0.55464,-1.57165 1.09917,-3.14687 1.63419,-4.72532 0.53502,-1.57844 1.06053,-3.1601 1.57717,-4.74466 0.51663,-1.58455 1.0244,-3.17199 1.52393,-4.76202 0.49953,-1.59003 0.99082,-3.18264 1.47454,-4.77755 0.48371,-1.59491 0.95985,-3.19212 1.42906,-4.79136 0.46921,-1.59923 0.9315,-3.2005 1.38754,-4.80354 0.45605,-1.60304 0.90584,-3.20786 1.35005,-4.81423 0.44422,-1.60636 0.88286,-3.21426 1.31661,-4.82348 0.43374,-1.60922 0.8626,-3.21976 1.28725,-4.83141 0.42466,-1.61165 0.84511,-3.2244 1.26205,-4.83807 0.41694,-1.61366 0.83037,-3.22823 1.24098,-4.84352 0.41062,-1.61528 0.81842,-3.23129 1.22412,-4.84782 0.40569,-1.61653 0.80927,-3.23359 1.21144,-4.85101 0.40217,-1.61741 0.80293,-3.23518 1.20298,-4.85312 0.40006,-1.61794 0.79941,-3.23606 1.19876,-4.85417 0.39935,-1.61811 0.7987,-3.23623 1.19876,-4.85417 0.40005,-1.61794 0.80081,-3.23571 1.20298,-4.85312 0.40217,-1.61742 0.80575,-3.23448 1.21144,-4.85101 0.4057,-1.61653 0.8135,-3.23254 1.22412,-4.84782 0.41061,-1.61529 0.82404,-3.22986 1.24098,-4.84352 0.41694,-1.61367 0.83739,-3.22642 1.26205,-4.83807 0.42465,-1.61165 0.85351,-3.22219 1.28725,-4.83141 0.43375,-1.60922 0.87239,-3.21712 1.31661,-4.82348 0.44421,-1.60637 0.894,-3.21119 1.35005,-4.81423 0.45604,-1.60304 0.91833,-3.20431 1.38754,-4.80354 0.46921,-1.59924 0.94535,-3.19645 1.42906,-4.79136 0.48372,-1.59491 0.97501,-3.18752 1.47454,-4.77755 0.49953,-1.59003 1.0073,-3.17747 1.52393,-4.76202 0.51664,-1.58456 1.04215,-3.16622 1.57717,-4.74466 0.53502,-1.57845 1.07955,-3.15367 1.63419,-4.72532 0.55465,-1.57166 1.11942,-3.13974 1.69492,-4.70388 0.5755,-1.56413 1.16173,-3.12433 1.75928,-4.68017 0.59754,-1.55585 1.20641,-3.10735 1.82716,-4.65409 0.62075,-1.54673 1.2534,-3.08869 1.89849,-4.62542 0.64509,-1.53674 1.30263,-3.06825 1.97315,-4.59406 0.67051,-1.52581 1.35401,-3.04591 2.051,-4.5598 0.69699,-1.51389 1.40748,-3.02157 2.13194,-4.52251 0.72446,-1.50093 1.4629,-2.99512 2.21579,-4.48199 0.75288,-1.48688 1.5202,-2.96645 2.30239,-4.43812 0.78219,-1.47166 1.57925,-2.93544 2.39157,-4.39069 0.81233,-1.45526 1.63992,-2.902 2.48315,-4.33957 0.84323,-1.43757 1.70209,-2.86597 2.57693,-4.28453 0.87483,-1.41856 1.76564,-2.82727 2.67272,-4.22543 0.90709,-1.39815 1.83045,-2.78575 2.77034,-4.16206 0.9399,-1.3763 1.89633,-2.74132 2.86953,-4.09428 0.9732,-1.35296 1.96315,-2.69386 2.97005,-4.02192 1.0069,-1.32806 2.03074,-2.64328 3.07166,-3.94484 1.04091,-1.30156 2.09891,-2.58946 3.17406,-3.86288 1.07516,-1.27342 2.16748,-2.53235 3.277,-3.77593 1.10952,-1.24358 2.23625,-2.47182 3.38016,-3.68385 1.14391,-1.21202 2.30501,-2.40782 3.48323,-3.58652 1.17822,-1.17869 2.37355,-2.34028 3.58589,-3.48386 1.21234,-1.14357 2.44167,-2.26914 3.68781,-3.37577 1.24615,-1.10663 2.50912,-2.19433 3.78866,-3.26218 1.27954,-1.06784 2.57565,-2.11583 3.88805,-3.14303 1.31239,-1.0272 2.64106,-2.03362 3.98565,-3.0183 1.34458,-0.98468 2.70508,-1.94764 4.08107,-2.88794 1.37599,-0.9403 2.76747,-1.85793 4.17396,-2.75197 1.40648,-0.89404 2.82796,-1.76448 4.26389,-2.61041 1.43594,-0.84592 2.88632,-1.66732 4.35053,-2.46328 1.46421,-0.79597 2.94225,-1.56649 4.43344,-2.31069 1.49118,-0.74419 2.99551,-1.46204 4.51224,-2.15268 1.51673,-0.69064 3.04585,-1.35405 4.58655,-1.9894 1.5407,-0.63534 3.09298,-1.24261 4.65596,-1.82097 1.56298,-0.57837 3.13666,-1.12782 4.72009,-1.64758 1.58343,-0.51975 3.17661,-1.0098 4.77854,-1.46938 1.60192,-0.45959 3.21259,-0.88871 4.83093,-1.28664 1.61835,-0.39793 3.24436,-0.76468 4.87691,-1.09956 1.63256,-0.33488 3.27165,-0.6379 4.9161,-0.90843 1.64444,-0.27053 3.29423,-0.50857 4.94813,-0.71355 1.65389,-0.20498 3.31189,-0.3769 4.97269,-0.51524 1.66079,-0.13834 3.32439,-0.2431 4.98944,-0.31383 1.66506,-0.0707 3.33156,-0.10743 4.99811,-0.10971 1.66655,-0.002 3.33315,0.0299 4.99836,0.0967 1.66521,0.0669 3.32903,0.16849 4.98998,0.30509 1.66094,0.1366 3.31902,0.30818 4.97269,0.51491 1.65368,0.20674 3.30297,0.44862 4.94631,0.72576 1.64335,0.27713 3.28075,0.58951 4.91063,0.93714 1.62989,0.34764 3.25225,0.73052 4.8655,1.14859 1.61325,0.41807 3.21739,0.87132 4.81079,1.35959 1.59341,0.48827 3.17608,1.01156 4.74641,1.56962 1.57032,0.55806 3.12828,1.15089 4.67227,1.77815 1.54398,0.62727 3.07398,1.28897 4.58836,1.98467 1.51438,0.6957 3.01314,1.42541 4.49467,2.1886 1.48152,0.76319 2.9458,1.55986 4.39123,2.3894 1.44543,0.82954 2.87199,1.69195 4.27811,2.58653 1.40611,0.89457 2.79177,1.82131 4.15539,2.77941 1.36362,0.9581 2.70521,1.94756 4.02322,2.96749 1.31801,1.01994 2.61243,2.07035 3.88177,3.15025 1.26934,1.07991 2.51358,2.18931 3.73126,3.32715 1.21767,1.13783 2.40879,2.3041 3.57191,3.49764 1.16312,1.19355 2.29825,2.41438 3.40401,3.66126 1.10576,1.24688 2.18215,2.51981 3.22785,3.81748 1.04571,1.29766 2.06072,2.62006 3.04379,3.9658 0.98306,1.34573 1.93418,2.71482 2.85216,4.10577 0.91798,1.39096 1.80282,2.80379 2.6534,4.23696 0.85058,1.43317 1.6669,2.88668 2.44791,4.35892 0.78101,1.47224 1.52672,2.96322 2.23615,4.47126 0.70944,1.50804 1.3826,3.03315 2.01861,4.57361 0.636,1.54045 1.23486,3.09625 1.79576,4.66561 0.56091,1.56937 1.08387,3.1523 1.56817,4.74697 0.48431,1.59467 0.92996,3.20109 1.33634,4.81738 0.40639,1.61629 0.77351,3.24245 1.10086,4.87659 0.32734,1.63414 0.6149,3.27624 0.86227,4.92439 0.24737,1.64814 0.45454,3.30232 0.62119,4.96057 0.16666,1.65826 0.2928,3.32058 0.3782,4.985 0.0854,1.66442 0.13009,3.33093 0.13392,4.99754 0.004,1.66661 -0.0332,3.33331 -0.11104,4.99811 -0.0779,1.66479 -0.1966,3.32768 -0.35609,4.98665 -0.15948,1.65897 -0.35973,3.31402 -0.60055,4.96315 -0.24082,1.64913 -0.52221,3.29234 -0.84386,4.92764 -0.32165,1.63529 -0.68357,3.26266 -1.08536,4.88014 -0.40178,1.61747 -0.84343,3.22505 -1.32444,4.82076 -0.48101,1.59572 -1.00138,3.17957 -1.56051,4.74962 -0.55913,1.57005 -1.15701,3.1263 -1.79295,4.66685 -0.63593,1.54055 -1.30992,3.06539 -2.02116,4.57266 -0.71124,1.50727 -1.45973,2.99696 -2.24457,4.46725 -0.78485,1.47029 -1.60605,2.92117 -2.46262,4.35087 -0.85657,1.4297 -1.7485,2.83821 -2.67472,4.22381 -0.92622,1.38559 -1.88674,2.74827 -2.88037,4.08635 -0.99363,1.33808 -2.02039,2.65157 -3.07902,3.93885 -1.05863,1.28727 -2.14914,2.54834 -3.27018,3.78164 -1.12105,1.23331 -2.27264,2.43885 -3.45337,3.61514 -1.18073,1.1763 -2.3906,2.32335 -3.62813,3.43974 -1.23752,1.1164 -2.5027,2.20213 -3.79399,3.25587 -1.2913,1.05374 -2.6087,2.07549 -3.95059,3.06399 -1.3419,0.9885 -2.70828,1.94375 -4.09749,2.86457 -1.38921,0.92083 -2.80124,1.80723 -4.23436,2.65811 -1.43311,0.85089 -2.88732,1.66626 -4.36082,2.44511 -1.47351,0.77885 -2.96632,1.52119 -4.4766,2.2261 -1.51028,0.7049 -3.03804,1.37238 -4.58139,2.00161 -1.54334,0.62923 -3.10229,1.22021 -4.67492,1.77222 -1.57262,0.552 -3.15893,1.06503 -4.75698,1.53846 -1.59804,0.47342 -3.20781,0.90724 -4.82734,1.30093 C 603.26632,399.33349 601.63704,399.68703 600,400"
         inkscape:connector-curvature="0"
         style="fill:none;stroke:#000000;stroke-width:5.17630243;stroke-miterlimit:4;stroke-dasharray:none" />
      <path
         id="path3098"
         d="M 197.55051,400.49983 187.0416,352.07005 m 5.65081,49.6107 -12.89496,-47.84932 m 8.10133,49.26945 -15.24941,-47.15171 m 10.53201,48.80756 -17.56641,-46.33835 m 12.93683,48.22585 -19.84016,-45.41102 m 15.30978,47.52552 -22.06497,-44.37184 m 17.6449,46.70816 -24.23521,-43.22326 m 19.9363,45.77565 -26.34537,-41.96804 m 22.17817,44.73023 -28.39006,-40.60923 m 24.36479,43.57442 -30.36404,-39.15017 m 26.49056,42.31108 -32.26222,-37.59449 m 28.55003,40.94332 -34.07967,-35.94607 m 30.53784,39.4746 -35.81163,-34.20909 m 32.44882,37.90862 -37.45354,-32.38796 m 34.27798,36.24939 -39.00107,-30.48735 m 36.02047,34.50119 -40.450068,-28.5122 M 133.68511,445.14424 91.888476,418.67658 M 131.11566,449.4329 88.078525,425.07374 M 128.76136,453.84332 84.593142,431.65101 M 126.62786,458.36466 81.441048,438.39169 M 124.72024,462.98583 78.630089,445.27864 M 123.04302,467.69551 76.167202,452.2943 m 45.432928,20.18786 -47.541743,-13.06143 m 46.336503,17.91336 -48.086212,-10.69442 m 47.121342,15.5998 -48.507897,-8.30686 m 47.785497,13.25376 -48.805858,-5.90555 m 48.327438,10.88195 -48.979586,-3.49735 m 48.745986,8.49124 -49.028936,-1.08919 m 49.040416,6.08851 -48.954222,1.31198 m 49.210412,3.68078 -48.75617,3.69921 m 49.25607,1.27506 -48.435913,6.06559 m 49.177913,-1.12165 -47.995013,8.40424 m 48.976933,-3.50231 -47.435481,10.7084 m 48.654501,-5.86 -46.759703,12.97138 M 123.15886,531.60083 77.188353,546.7875 M 124.84139,536.30848 79.770275,553.65636 M 126.7492,540.9294 82.684046,560.37826 M 128.87727,545.45311 85.920617,566.93676 M 131.22006,549.86942 89.470038,573.316 m 44.301482,-19.14746 -40.450022,25.33223 m 43.203672,-21.15974 -39.061813,27.13553 m 42.010703,-23.09867 -37.59087,28.85176 m 40.72766,-24.95911 -36.04301,30.47659 m 39.35995,-26.73626 -34.42435,32.00615 m 37.91337,-28.42581 -32.74129,33.43705 m 36.39396,-30.02382 -31.00043,34.76639 m 34.80806,-31.52693 -29.20863,35.99189 m 33.16227,-32.93232 -27.37284,37.11186 m 31.46332,-34.23777 -25.49948,38.12423 m 29.71742,-35.4407 -23.59497,39.02701 m 27.93085,-36.53855 -21.66647,39.81961 m 26.11064,-37.53018 -19.72083,40.50144 m 24.26356,-38.41445 -17.76506,41.07258 m 22.3966,-39.19088 -15.80615,41.53375 m 20.51671,-39.85965 -13.85098,41.88619 m 18.63079,-40.42143 -11.90626,42.13164 m 16.74561,-40.87746 -9.97848,42.27226 m 14.86773,-41.22937 -8.07389,42.3106 m 13.00354,-41.47919 -6.19846,42.24953 m 11.15911,-41.62929 -4.35787,42.09223 m 9.34033,-41.68239 -2.55752,41.84218 m 7.55279,-41.64148 -0.80249,41.50309 m 5.80179,-41.50985 0.90244,41.07896 m 4.09236,-41.29104 2.55282,40.57397 m 2.42925,-40.98887 4.14451,39.9926 m 0.81685,-40.6074 5.67378,39.33945 m -0.74075,-40.15089 7.13718,38.61938 m -2.23981,-39.62387 8.53172,37.83737 m -3.67697,-39.03099 9.85474,36.99853 m -5.04922,-38.37709 11.10399,36.10807 m -6.35394,-37.66714 12.27762,35.17132 m -7.58892,-36.90621 13.3742,34.19355 m -8.7523,-36.09937 14.39265,33.18007 m -9.84267,-35.25176 15.3323,32.13612 m -10.85892,-34.36847 16.19283,31.06687 m -11.80036,-33.45454 16.97428,29.97734 m -12.66663,-32.51487 17.67699,28.8724 m -13.45767,-31.55429 18.30159,27.75676 m -14.17374,-30.57741 18.84901,26.63489 m -14.81535,-29.58871 19.32037,25.51107 m -15.38327,-28.59244 19.71702,24.38935 m -15.87847,-27.59266 20.04052,23.27351 m -16.30213,-26.59317 20.29256,22.1671 m -16.65559,-25.5976 20.47499,21.07346 m -16.94036,-24.60933 20.5898,19.99566 m -17.15807,-23.6315 20.63907,18.93653 m -17.3105,-22.66707 20.62506,17.89873 m -17.39958,-21.71877 20.55009,16.88463 m -17.42731,-20.78911 20.41662,15.89645 m -17.39589,-19.88043 20.22726,14.93618 m -17.30762,-18.99486 19.98473,14.00562 m -17.16498,-18.13435 19.69192,13.10639 m -16.9706,-17.30067 19.35191,12.2399 m -16.72732,-16.49541 18.96794,11.40742 m -16.43817,-15.71996 18.54349,10.60998 m -16.10642,-14.97559 18.08229,9.8485 m -15.73561,-14.26336 17.58754,9.1233 m -15.32879,-13.58378 17.05504,8.43088 m -14.88153,-12.93355 16.48692,7.77136 m -14.39582,-12.3129 15.88693,7.14531 m -13.87525,-11.72261 15.2584,6.55286 m -13.32299,-11.16295 14.60425,5.99368 m -12.74184,-10.63377 13.92703,5.46712 m -12.13425,-10.13456 13.22902,4.97225 m -11.50237,-9.66456 12.51219,4.50795 m -10.8481,-9.22282 11.77831,4.07291 m -10.1731,-8.80816 11.02896,3.6657 m -9.47888,-8.41928 10.26556,3.28476 m -8.76681,-8.05477 9.48942,2.92845 m -8.03811,-7.71311 8.70175,2.59504 m -7.29395,-7.39268 7.9037,2.28275 m -6.53541,-7.09182 7.09634,1.98974 m -5.76352,-6.80877 6.28071,1.71413 m -4.97929,-6.54174 5.45783,1.45396 m -4.1837,-6.28885 4.62871,1.20725 m -3.37772,-6.04819 3.7943,0.97202 m -2.56227,-5.81783 2.95558,0.74619 m -1.73833,-5.59574 2.11352,0.52772 m -0.90684,-5.37992 1.26907,0.31452 m -0.0687,-5.1683 0.42318,0.10449 m 0.77504,-4.95879 -0.42318,-0.10449 m 1.62353,-4.74929 -1.26907,-0.31452 m 2.47575,-4.53768 -2.11352,-0.52772 m 3.33077,-4.32183 -2.95558,-0.74619 m 4.18761,-4.09962 -3.7943,-0.97202 m 5.04529,-3.86892 -4.62871,-1.20725 m 5.90284,-3.62764 -5.45783,-1.45396 m 6.75925,-3.37365 -6.28071,-1.71413 m 7.61353,-3.1049 -7.09634,-1.98974 m 8.46463,-2.81933 -7.9037,-2.28275 m 9.3115,-2.51489 -8.70175,-2.59504 m 10.15306,-2.18962 -9.48942,-2.92845 m 10.98817,-1.84156 -10.26556,-3.28476 m 11.81564,-1.46882 -11.02896,-3.6657 m 12.63417,-1.06955 -11.77831,-4.07291 m 13.4424,-0.64196 -12.51219,-4.50795 m 14.23884,-0.18436 -13.22902,-4.97225 m 15.0218,0.30481 -13.92703,-5.46712 m 15.78944,0.82703 -14.60425,-5.99368 m 16.53966,1.38359 -15.2584,-6.55286 m 17.27008,1.97556 -15.88693,-7.14531 m 17.97803,2.60377 -16.48692,-7.77136 m 18.66043,3.26869 -17.05504,-8.43088 m 19.31379,3.9704 -17.58754,-9.1233 m 19.93422,4.70844 -18.08229,-9.8485 m 20.51936,5.48289 -18.54349,-10.60998 m 21.07326,6.29744 -18.96794,-11.40742 m 21.59253,7.15191 -19.35191,-12.2399 m 22.07323,8.04562 -19.69192,-13.10639 m 22.51167,8.97766 -19.98473,-14.00562 m 22.90437,9.94694 -20.22726,-14.93618 m 23.24799,10.9522 -20.41662,-15.89645 m 23.5394,11.99197 -20.55009,-16.88463 m 23.77557,13.06459 -20.62506,-17.89873 m 23.95363,14.16819 -20.63907,-18.93653 m 24.0708,15.30069 -20.5898,-19.99566 m 24.12443,16.45979 -20.47499,-21.07346 m 24.11196,17.64296 -20.29256,-22.1671 m 24.03095,18.84744 -20.04052,-23.27351 m 23.87907,20.0702 -19.71702,-24.38935 m 23.65412,21.30798 -19.32037,-25.51107 m 23.35403,22.55725 -18.84901,-26.63489 m 22.97686,23.81424 -18.30159,-27.75676 m 22.52091,25.07487 -17.67699,-28.8724 m 21.98464,26.33487 -16.97428,-29.97734 m 21.36675,27.58967 -16.19283,-31.06687 m 20.66621,28.83452 -15.3323,-32.13612 m 19.88228,30.06443 -14.39265,-33.18007 m 19.01455,31.27425 -13.3742,-34.19355 m 18.0629,32.45866 -12.27762,-35.17132 m 17.02767,33.61225 -11.10399,-36.10807 m 15.90951,34.72951 -9.85474,-36.99853 m 14.70949,35.80491 -8.53172,-37.83737 m 13.42909,36.83288 -7.13718,-38.61938 m 12.07021,37.80794 -5.67378,-39.33945 m 10.63514,38.72465 -4.14451,-39.9926 m 9.12658,39.5777 -2.55282,-40.57397 m 7.54762,40.36189 -0.90244,-41.07896 m 5.90174,41.0722 0.80249,-41.50309 m 4.19278,41.70379 2.55752,-41.84218 m 2.42494,42.25202 4.35787,-42.09223 m 0.60278,42.71247 6.19846,-42.24953 m -1.26881,43.08094 8.07389,-42.3106 m -3.18464,43.35349 9.97848,-42.27226 m -5.13913,43.52644 11.90626,-42.13164 m -7.12645,43.5964 13.85098,-41.88619 m -9.14042,43.56029 15.80615,-41.53375 m -11.17461,43.41545 17.76506,-41.07258 m -13.22233,43.15957 19.72083,-40.50144 m -15.27666,42.79087 21.66647,-39.81961 m -17.33059,42.30807 23.59497,-39.02701 m -19.37703,41.71054 25.49948,-38.12423 m -21.409,40.99832 27.37284,-37.11186 m -23.4192,40.17143 29.20863,-35.99189 m -25.401,39.23135 31.00043,-34.76639 m -27.34776,38.17962 32.74129,-33.43705 m -29.25227,37.01739 34.42435,-32.00615 m -31.10741,35.74648 36.04301,-30.47659 m -32.90622,34.36924 37.59087,-28.85176 m -34.64198,32.88862 39.06181,-27.13553 m -36.30816,31.30802 40.45002,-25.33223 m -37.89856,29.63135 41.75002,-23.44658 m -39.40723,27.86289 42.95665,-21.48365 m -40.82858,26.00736 44.06515,-19.44886 m -42.15734,24.06978 45.07111,-17.34788 m -43.38858,22.05553 45.97051,-15.18667 m -44.51776,19.97022 46.7597,-12.97138 m -45.54068,17.81978 47.43548,-10.7084 m -46.45356,15.61033 47.99501,-8.40424 m -47.25301,13.34818 48.43591,-6.06559 m -47.93601,11.03986 48.75617,-3.69921 m -48.49998,8.69197 48.95422,-1.31198 m -48.94274,6.3113 49.02894,1.08919 m -49.26254,3.9047 48.97959,3.49735 m -49.45801,1.47905 48.80586,5.90555 m -49.52826,-0.95865 48.5079,8.30686 m -49.47277,-3.40148 48.08621,10.69442 m -49.29145,-5.84249 47.54174,13.06143 m -48.98463,-8.27478 46.87582,15.40121 m -48.55304,-10.69153 46.09015,17.70719 m -47.99777,-13.08602 45.18681,19.97297 m -47.32031,-15.45163 44.16822,22.19231 m -46.52252,-17.78189 43.03714,24.35916 m -45.60659,-20.0705 41.79663,26.46766 m -44.57502,-22.31131 40.45007,28.5122 m -43.43067,-24.49836 39.00107,30.48735 m -42.17663,-26.62592 37.45354,32.38796 m -40.81635,-28.68843 35.81163,34.20909 m -39.35346,-30.68056 34.07967,35.94607 m -37.79186,-32.59724 32.26222,37.59449 m -36.1357,-34.43358 30.36404,39.15017 m -34.38931,-36.18498 28.39006,40.60923 m -32.55726,-37.84704 26.34537,41.96804 m -30.64428,-39.41565 24.23521,43.22326 m -28.65528,-40.88694 22.06497,44.37184 m -26.59535,-42.25734 19.84016,45.41102 m -24.46974,-43.52352 17.56641,46.33835 m -22.28381,-44.6825 15.24941,47.15171 m -20.04304,-45.73158 12.89496,47.84932 m -17.75306,-46.6684 10.50891,48.42978"
         inkscape:connector-curvature="0"
         style="fill:none;stroke:#0000ff;stroke-width:1.29407561;stroke-miterlimit:4;stroke-dasharray:none" />
      <circle
         id="circle3100"
         r="10"
         cy="400"
         cx="200"
         sodipodi:cx="200"
         sodipodi:cy="400"
         sodipodi:rx="10"
         sodipodi:ry="10"
         style="fill:#ff0000;stroke:none"
         d="m 210,400 c 0,5.52285 -4.47715,10 -10,10 -5.52285,0 -10,-4.47715 -10,-10 0,-5.52285 4.47715,-10 10,-10 5.52285,0 10,4.47715 10,10 z"
         transform="matrix(1.2940756,0,0,1.2940756,-58.815113,-117.63023)" />
      <circle
         id="circle3102"
         r="10"
         cy="400"
         cx="400"
         sodipodi:cx="400"
         sodipodi:cy="400"
         sodipodi:rx="10"
         sodipodi:ry="10"
         style="fill:#ff0000;stroke:none"
         d="m 410,400 c 0,5.52285 -4.47715,10 -10,10 -5.52285,0 -10,-4.47715 -10,-10 0,-5.52285 4.47715,-10 10,-10 5.52285,0 10,4.47715 10,10 z"
         transform="matrix(1.2940756,0,0,1.2940756,-117.63023,-117.63023)" />
      <circle
         id="circle3104"
         r="10"
         cy="400"
         cx="600"
         sodipodi:cx="600"
         sodipodi:cy="400"
         sodipodi:rx="10"
         sodipodi:ry="10"
         style="fill:#ff0000;stroke:none"
         d="m 610,400 c 0,5.52285 -4.47715,10 -10,10 -5.52285,0 -10,-4.47715 -10,-10 0,-5.52285 4.47715,-10 10,-10 5.52285,0 10,4.47715 10,10 z"
         transform="matrix(1.2940756,0,0,1.2940756,-176.44534,-117.63023)" />
    </g>
  </g>
</svg>
