<?xml version="1.0" encoding="UTF-8" standalone="no"?>
<!-- Created with Inkscape (http://www.inkscape.org/) -->

<svg
   xmlns:dc="http://purl.org/dc/elements/1.1/"
   xmlns:cc="http://creativecommons.org/ns#"
   xmlns:rdf="http://www.w3.org/1999/02/22-rdf-syntax-ns#"
   xmlns:svg="http://www.w3.org/2000/svg"
   xmlns="http://www.w3.org/2000/svg"
   xmlns:sodipodi="http://sodipodi.sourceforge.net/DTD/sodipodi-0.dtd"
   xmlns:inkscape="http://www.inkscape.org/namespaces/inkscape"
   width="1024"
   height="1024"
   id="svg2"
   version="1.1"
   inkscape:version="0.48.3.1 r9886"
   sodipodi:docname="speed.svg">
  <defs
     id="defs4">
    <inkscape:path-effect
       effect="ruler"
       id="path-effect4605"
       is_visible="true"
       unit="px"
       mark_distance="20"
       mark_length="30"
       minor_mark_length="7"
       major_mark_steps="1"
       shift="0"
       offset="0"
       mark_dir="both"
       border_marks="both" />
    <inkscape:path-effect
       effect="ruler"
       id="path-effect4555"
       is_visible="true"
       unit="px"
       mark_distance="20"
       mark_length="30"
       minor_mark_length="7"
       major_mark_steps="1"
       shift="0"
       offset="0"
       mark_dir="both"
       border_marks="both" />
    <inkscape:path-effect
       effect="ruler"
       id="path-effect3939"
       is_visible="true"
       unit="px"
       mark_distance="20"
       mark_length="30"
       minor_mark_length="7"
       major_mark_steps="1"
       shift="0"
       offset="0"
       mark_dir="both"
       border_marks="none" />
    <inkscape:path-effect
       effect="ruler"
       id="path-effect3933"
       is_visible="true"
       unit="px"
       mark_distance="20"
       mark_length="30"
       minor_mark_length="7"
       major_mark_steps="1"
       shift="0"
       offset="0"
       mark_dir="both"
       border_marks="none" />
    <inkscape:path-effect
       effect="ruler"
       id="path-effect3757"
       is_visible="true"
       unit="px"
       mark_distance="500"
       mark_length="14"
       minor_mark_length="7"
       major_mark_steps="1"
       shift="0"
       offset="0"
       mark_dir="left"
       border_marks="both" />
  </defs>
  <sodipodi:namedview
     id="base"
     pagecolor="#ffffff"
     bordercolor="#666666"
     borderopacity="1.0"
     inkscape:pageopacity="0.0"
     inkscape:pageshadow="2"
     inkscape:zoom="2"
     inkscape:cx="282.05902"
     inkscape:cy="825.82742"
     inkscape:document-units="px"
     inkscape:current-layer="layer1"
     showgrid="false"
     inkscape:window-width="1920"
     inkscape:window-height="1028"
     inkscape:window-x="0"
     inkscape:window-y="0"
     inkscape:window-maximized="1"
     inkscape:object-paths="true"
     inkscape:snap-global="false"
     inkscape:object-nodes="false"
     inkscape:snap-nodes="true"
     inkscape:snap-intersection-paths="true">
    <inkscape:grid
       type="xygrid"
       id="grid2985"
       empspacing="8"
       visible="true"
       enabled="true"
       snapvisiblegridlinesonly="true"
       spacingx="32px"
       spacingy="32px" />
  </sodipodi:namedview>
  <metadata
     id="metadata7">
    <rdf:RDF>
      <cc:Work
         rdf:about="">
        <dc:format>image/svg+xml</dc:format>
        <dc:type
           rdf:resource="http://purl.org/dc/dcmitype/StillImage" />
        <dc:title />
      </cc:Work>
    </rdf:RDF>
  </metadata>
  <g
     inkscape:groupmode="layer"
     id="layer2"
     inkscape:label="helpers"
     style="display:none">
    <path
       transform="translate(0,-28.362183)"
       id="path3070"
       style="fill:none;stroke:#0000ff;stroke-width:5;stroke-linecap:butt;stroke-linejoin:miter;stroke-miterlimit:4;stroke-opacity:1;stroke-dasharray:none;display:inline"
       d="m 118.01453,388.17712 c 24.02426,-198.05562 75.81744,-229.50423 162.09199,-212.38485 74.18748,14.72096 173.87144,65.35445 303.31988,76.84729 102.04626,9.05998 222.58941,-6.20367 363.72032,-82.55897"
       inkscape:connector-curvature="0"
       sodipodi:nodetypes="cccc" />
  </g>
  <g
     inkscape:label="illustration"
     inkscape:groupmode="layer"
     id="layer1"
     transform="translate(0,-28.362183)">
    <path
       style="font-size:medium;font-style:normal;font-variant:normal;font-weight:normal;font-stretch:normal;text-indent:0;text-align:start;text-decoration:none;line-height:normal;letter-spacing:normal;word-spacing:normal;text-transform:none;direction:ltr;block-progression:tb;writing-mode:lr-tb;text-anchor:start;baseline-shift:baseline;color:#000000;fill:none;stroke:#000000;stroke-width:2;stroke-miterlimit:100;stroke-opacity:1;stroke-dasharray:none;marker:none;visibility:visible;display:inline;overflow:visible;enable-background:accumulate;font-family:Sans;-inkscape-font-specification:Sans"
       d="m 125.46875,389.09375 c 11.94026,-98.43532 31.05749,-154.55128 55.875,-182.84375 12.40876,-14.14624 26.03894,-21.66464 41.96875,-25 15.92981,-3.33536 34.34564,-2.26039 55.34375,1.90625 31.99892,6.34952 69.754,19.83544 113.125,33.96875 l -30.88839,-1.19139"
       id="path3923"
       inkscape:connector-curvature="0"
       sodipodi:nodetypes="csssc" />
    <flowRoot
       xml:space="preserve"
       id="flowRoot3765"
       style="font-size:40px;font-style:normal;font-weight:normal;line-height:125%;letter-spacing:0px;word-spacing:0px;fill:#000000;fill-opacity:1;stroke:none;font-family:Sans"
       transform="translate(73.36477,18.852392)"><flowRegion
         id="flowRegion3767"><rect
           id="rect3769"
           width="49.497475"
           height="51.51778"
           x="64.649765"
           y="497.71051" /></flowRegion><flowPara
         id="flowPara3771" /></flowRoot>    <path
       style="fill:none;stroke:#ff0000;stroke-width:5;stroke-linecap:butt;stroke-linejoin:miter;stroke-miterlimit:4;stroke-opacity:1;stroke-dasharray:none"
       d="M 118.01453,388.17712 C 142.03879,190.1215 193.83197,158.67289 280.10652,175.79227"
       id="path3060"
       inkscape:connector-curvature="0" />
    <path
       style="fill:none;stroke:#00ff00;stroke-width:5;stroke-linecap:butt;stroke-linejoin:miter;stroke-miterlimit:4;stroke-opacity:1;stroke-dasharray:none"
       d="m 280.10652,175.79227 c 74.18748,14.72096 173.87144,65.35445 303.31988,76.84729"
       id="path3058"
       inkscape:connector-curvature="0" />
    <g
       id="g4522"
       transform="matrix(2.8386675,0,0,2.8386675,642.0265,-269.88473)">
      <path
         inkscape:connector-curvature="0"
         d="m -92.438309,179.66281 c 0.50775,1.3025 1.104,3.2025 1.30275,3.48875 0.19862,0.27375 0.32225,0.27375 0.65862,0.27375 l 0.274,0 c 0.125,-0.0113 0.13613,-0.0875 0.13613,-0.125 0,-0.0375 -0.0254,-0.06 -0.0625,-0.11125 -0.1225,-0.13625 -0.19863,-0.3225 -0.28513,-0.57 l -2.53362,-7.06625 c -0.26125,-0.72125 -0.93125,-0.88125 -1.51513,-0.88125 -0.0601,0 -0.22275,0 -0.22275,0.13625 0,0.1 0.10013,0.1225 0.11138,0.1225 0.41012,0.0738 0.49662,0.15 0.80612,0.99375 l 1.20513,3.3775 -3.42725,3.4025 c -0.149,0.14875 -0.22263,0.225 -0.22263,0.385 0,0.21125 0.17375,0.36125 0.3725,0.36125 0.19725,0 0.31,-0.13625 0.40875,-0.26125 l 2.99363,-3.525"
         style="fill:#000000;fill-opacity:1;fill-rule:nonzero;stroke:none"
         id="path4102" />
      <path
         inkscape:connector-curvature="0"
         d="m -85.512059,186.26781 c 0,-0.0375 0,-0.0625 -0.21101,-0.27375 -1.55124,-1.565 -1.94862,-3.9125 -1.94862,-5.81 0,-2.1625 0.47213,-4.3225 2,-5.875 0.15963,-0.14875 0.15963,-0.17375 0.15963,-0.21125 0,-0.0863 -0.0489,-0.1225 -0.12263,-0.1225 -0.125,0 -1.24212,0.84375 -1.9745,2.42125 -0.63288,1.365 -0.78425,2.74375 -0.78425,3.7875 0,0.96625 0.13675,2.47125 0.82038,3.8725 0.74362,1.5275 1.8125,2.33375 1.9375,2.33375 0.0736,0 0.1225,-0.0375 0.1225,-0.1225"
         style="fill:#000000;fill-opacity:1;fill-rule:nonzero;stroke:none"
         id="path4104" />
      <path
         inkscape:connector-curvature="0"
         d="m -82.188189,178.32156 1.16625,0 c 0.2475,0 0.3725,0 0.3725,-0.2475 0,-0.13625 -0.125,-0.13625 -0.3475,-0.13625 l -1.09125,0 c 0.445,-1.76375 0.5075,-2.01125 0.5075,-2.08625 0,-0.21125 -0.14875,-0.33625 -0.35875,-0.33625 -0.0375,0 -0.385,0.0137 -0.49625,0.4475 l -0.48375,1.975 -1.1675,0 c -0.2475,0 -0.37237,0 -0.37237,0.23625 0,0.14875 0.0999,0.14875 0.34737,0.14875 l 1.09375,0 c -0.895,3.5275 -0.94375,3.73875 -0.94375,3.96125 0,0.67 0.47125,1.1425 1.14125,1.1425 1.2675,0 1.975,-1.8125 1.975,-1.9125 0,-0.125 -0.1,-0.125 -0.14875,-0.125 -0.11125,0 -0.125,0.0375 -0.185,0.17375 -0.535,1.29125 -1.19375,1.59 -1.615,1.59 -0.26,0 -0.385,-0.1625 -0.385,-0.57 0,-0.29875 0.025,-0.385 0.0738,-0.5975 l 0.92,-3.6625"
         style="fill:#000000;fill-opacity:1;fill-rule:nonzero;stroke:none"
         id="path4106" />
      <path
         inkscape:connector-curvature="0"
         d="m -76.659439,180.18406 c 0,-0.96875 -0.13625,-2.4725 -0.81875,-3.875 -0.74625,-1.5275 -1.8125,-2.33375 -1.9375,-2.33375 -0.0738,0 -0.125,0.0487 -0.125,0.1225 0,0.0375 0,0.0625 0.23625,0.2875 1.21625,1.22875 1.92625,3.2025 1.92625,5.79875 0,2.1225 -0.46125,4.30875 -2,5.8725 -0.1625,0.14875 -0.1625,0.17375 -0.1625,0.21125 0,0.0738 0.0512,0.1225 0.125,0.1225 0.125,0 1.2425,-0.84375 1.975,-2.42 0.6325,-1.3675 0.78125,-2.74375 0.78125,-3.7875"
         style="fill:#000000;fill-opacity:1;fill-rule:nonzero;stroke:none"
         id="path4108" />
    </g>
    <g
       id="g4528"
       transform="matrix(2.8386675,0,0,2.8386675,370.49781,-288.4088)">
      <path
         inkscape:connector-curvature="0"
         d="m -93.643439,194.79531 -1.6635,1.6875 0.225,0.225 1.44,-1.2675 1.43013,1.2675 0.22225,-0.225 -1.65238,-1.6875"
         style="fill:#000000;fill-opacity:1;fill-rule:nonzero;stroke:none"
         id="path4110" />
      <path
         inkscape:connector-curvature="0"
         d="m -94.313309,200.69656 1.1665,0 c 0.2475,0 0.3725,0 0.3725,-0.2475 0,-0.13625 -0.125,-0.13625 -0.34763,-0.13625 l -1.09125,0 c 0.44475,-1.76375 0.50725,-2.01125 0.50725,-2.08625 0,-0.21125 -0.14837,-0.33625 -0.35837,-0.33625 -0.0376,0 -0.38525,0.0138 -0.49663,0.4475 l -0.48337,1.975 -1.1675,0 c -0.2475,0 -0.3725,0 -0.3725,0.23625 0,0.14875 0.10012,0.14875 0.34712,0.14875 l 1.09375,0 c -0.8945,3.5275 -0.94337,3.73875 -0.94337,3.96125 0,0.67 0.47125,1.1425 1.14112,1.1425 1.26763,0 1.97513,-1.8125 1.97513,-1.9125 0,-0.125 -0.10013,-0.125 -0.14888,-0.125 -0.11137,0 -0.125,0.0375 -0.18512,0.17375 -0.53463,1.29125 -1.19388,1.59 -1.61475,1.59 -0.26025,0 -0.38525,-0.1625 -0.38525,-0.57 0,-0.29875 0.0249,-0.385 0.0737,-0.5975 l 0.91987,-3.6625"
         style="fill:#000000;fill-opacity:1;fill-rule:nonzero;stroke:none"
         id="path4112" />
      <path
         inkscape:connector-curvature="0"
         d="m -87.836809,204.73531 c 0,-0.96625 -0.11525,-1.6625 -0.52,-2.2775 -0.2715,-0.40375 -0.81638,-0.75375 -1.52,-0.75375 -2.03913,0 -2.03913,2.39875 -2.03913,3.03125 0,0.6325 0,2.97875 2.03913,2.97875 2.03862,0 2.03862,-2.34625 2.03862,-2.97875 l 0.001,0 z m -2.039,2.7325 c -0.40388,0 -0.94101,-0.23625 -1.11725,-0.9575 -0.1225,-0.52 -0.1225,-1.24 -0.1225,-1.89125 0,-0.64125 0,-1.30875 0.13225,-1.7925 0.18362,-0.69375 0.74612,-0.8775 1.1075,-0.8775 0.47512,0 0.93162,0.28875 1.09024,0.79875 0.14113,0.475 0.14851,1.1075 0.14851,1.87125 0,0.65 0,1.30125 -0.11375,1.855 -0.17625,0.79875 -0.7735,0.9925 -1.125,0.9925"
         style="fill:#000000;fill-opacity:1;fill-rule:nonzero;stroke:none"
         id="path4114" />
    </g>
    <g
       id="g4533"
       transform="matrix(2.8386675,0,0,2.8386675,569.10188,-486.94538)">
      <path
         inkscape:connector-curvature="0"
         d="m -93.643439,217.17031 -1.6635,1.6875 0.225,0.225 1.44,-1.2675 1.43013,1.2675 0.22225,-0.225 -1.65238,-1.6875"
         style="fill:#000000;fill-opacity:1;fill-rule:nonzero;stroke:none"
         id="path4116" />
      <path
         inkscape:connector-curvature="0"
         d="m -94.313309,223.19656 1.1665,0 c 0.2475,0 0.3725,0 0.3725,-0.2475 0,-0.13625 -0.125,-0.13625 -0.34763,-0.13625 l -1.09125,0 c 0.44475,-1.76375 0.50725,-2.01125 0.50725,-2.08625 0,-0.21125 -0.14837,-0.33625 -0.35837,-0.33625 -0.0376,0 -0.38525,0.0138 -0.49663,0.4475 l -0.48337,1.975 -1.1675,0 c -0.2475,0 -0.3725,0 -0.3725,0.23625 0,0.14875 0.10012,0.14875 0.34712,0.14875 l 1.09375,0 c -0.8945,3.5275 -0.94337,3.73875 -0.94337,3.96125 0,0.67 0.47125,1.1425 1.14112,1.1425 1.26763,0 1.97513,-1.8125 1.97513,-1.9125 0,-0.125 -0.10013,-0.125 -0.14888,-0.125 -0.11137,0 -0.125,0.0375 -0.18512,0.17375 -0.53463,1.29125 -1.19388,1.59 -1.61475,1.59 -0.26025,0 -0.38525,-0.1625 -0.38525,-0.57 0,-0.29875 0.0249,-0.385 0.0737,-0.5975 l 0.91987,-3.6625"
         style="fill:#000000;fill-opacity:1;fill-rule:nonzero;stroke:none"
         id="path4118" />
      <path
         inkscape:connector-curvature="0"
         d="m -89.428059,224.32531 c 0,-0.23875 -0.0176,-0.24625 -0.26376,-0.24625 -0.5625,0.5525 -1.36124,0.56 -1.72262,0.56 l 0,0.31625 c 0.2115,0 0.791,0 1.27488,-0.24625 l 0,4.4825 c 0,0.29125 0,0.40375 -0.87888,0.40375 l -0.3335,0 0,0.31625 c 0.15875,-0.007 1.23875,-0.035 1.565,-0.035 0.2715,0 1.37888,0.0275 1.57275,0.035 l 0,-0.31625 -0.334,0 c -0.87887,0 -0.87887,-0.11375 -0.87887,-0.40375 l 0,-4.8675"
         style="fill:#000000;fill-opacity:1;fill-rule:nonzero;stroke:none"
         id="path4120" />
    </g>
    <g
       id="g4538"
       transform="matrix(2.8386675,0,0,2.8386675,427.30721,-402.96694)">
      <path
         inkscape:connector-curvature="0"
         d="m -92.438309,246.91281 c 0.50775,1.3025 1.104,3.2025 1.30275,3.48875 0.19862,0.27375 0.32225,0.27375 0.65862,0.27375 l 0.274,0 c 0.125,-0.0112 0.13613,-0.0875 0.13613,-0.125 0,-0.0375 -0.0254,-0.06 -0.0625,-0.11125 -0.1225,-0.13625 -0.19863,-0.3225 -0.28513,-0.57 l -2.53362,-7.06625 c -0.26125,-0.72125 -0.93125,-0.88125 -1.51513,-0.88125 -0.0601,0 -0.22275,0 -0.22275,0.13625 0,0.1 0.10013,0.1225 0.11138,0.1225 0.41012,0.0737 0.49662,0.15 0.80612,0.99375 l 1.20513,3.3775 -3.42725,3.4025 c -0.149,0.14875 -0.22263,0.225 -0.22263,0.385 0,0.21125 0.17375,0.36125 0.3725,0.36125 0.19725,0 0.31,-0.13625 0.40875,-0.26125 l 2.99363,-3.525"
         style="fill:#000000;fill-opacity:1;fill-rule:nonzero;stroke:none"
         id="path4122" />
      <path
         inkscape:connector-curvature="0"
         d="m -84.493059,254.68031 c 0,-0.0512 -0.0254,-0.0737 -0.0512,-0.11125 -0.57025,-0.61 -1.41651,-1.615 -1.9375,-3.63875 -0.28513,-1.13125 -0.3965,-2.41 -0.3965,-3.565 0,-3.26625 0.78375,-5.55125 2.2715,-7.16375 0.11375,-0.11125 0.11375,-0.13625 0.11375,-0.1625 0,-0.1225 -0.10013,-0.1225 -0.15038,-0.1225 -0.1845,0 -0.855,0.74375 -1.01713,0.93125 -1.26512,1.5025 -2.07362,3.73625 -2.07362,6.50625 0,1.76375 0.3095,4.26 1.9375,6.3575 0.125,0.14875 0.93113,1.09125 1.15325,1.09125 0.0512,0 0.15038,0 0.15038,-0.1225"
         style="fill:#000000;fill-opacity:1;fill-rule:nonzero;stroke:none"
         id="path4124" />
      <path
         inkscape:connector-curvature="0"
         d="m -80.643189,239.54531 -1.66375,1.6875 0.225,0.225 1.44,-1.2675 1.43,1.2675 0.2225,-0.225 -1.6525,-1.6875"
         style="fill:#000000;fill-opacity:1;fill-rule:nonzero;stroke:none"
         id="path4126" />
      <path
         inkscape:connector-curvature="0"
         d="m -81.313189,245.57156 1.16625,0 c 0.2475,0 0.3725,0 0.3725,-0.2475 0,-0.13625 -0.125,-0.13625 -0.3475,-0.13625 l -1.09125,0 c 0.445,-1.76375 0.5075,-2.01125 0.5075,-2.08625 0,-0.21125 -0.14875,-0.33625 -0.35875,-0.33625 -0.0375,0 -0.385,0.0138 -0.49625,0.4475 l -0.48375,1.975 -1.1675,0 c -0.2475,0 -0.3725,0 -0.3725,0.23625 0,0.14875 0.1,0.14875 0.3475,0.14875 l 1.09375,0 c -0.895,3.5275 -0.94375,3.73875 -0.94375,3.96125 0,0.67 0.47125,1.1425 1.14125,1.1425 1.2675,0 1.975,-1.8125 1.975,-1.9125 0,-0.125 -0.1,-0.125 -0.14875,-0.125 -0.11125,0 -0.125,0.0375 -0.185,0.17375 -0.535,1.29125 -1.19375,1.59 -1.615,1.59 -0.26,0 -0.385,-0.1625 -0.385,-0.57 0,-0.29875 0.025,-0.385 0.0738,-0.5975 l 0.92,-3.6625"
         style="fill:#000000;fill-opacity:1;fill-rule:nonzero;stroke:none"
         id="path4128" />
      <path
         inkscape:connector-curvature="0"
         d="m -74.836939,249.61031 c 0,-0.96625 -0.115,-1.6625 -0.52,-2.2775 -0.27125,-0.40375 -0.81625,-0.75375 -1.52,-0.75375 -2.03875,0 -2.03875,2.39875 -2.03875,3.03125 0,0.6325 0,2.97875 2.03875,2.97875 2.03875,0 2.03875,-2.34625 2.03875,-2.97875 l 0.001,0 z m -2.03875,2.7325 c -0.40375,0 -0.94125,-0.23625 -1.1175,-0.9575 -0.1225,-0.52 -0.1225,-1.24 -0.1225,-1.89125 0,-0.64125 0,-1.30875 0.1325,-1.7925 0.18375,-0.69375 0.74625,-0.8775 1.1075,-0.8775 0.475,0 0.93125,0.28875 1.09,0.79875 0.14125,0.475 0.14875,1.1075 0.14875,1.87125 0,0.65 0,1.30125 -0.11375,1.855 -0.17625,0.79875 -0.77375,0.9925 -1.125,0.9925"
         style="fill:#000000;fill-opacity:1;fill-rule:nonzero;stroke:none"
         id="path4130" />
      <path
         inkscape:connector-curvature="0"
         d="m -70.084439,247.36531 c 0,-1.76375 -0.31,-4.2575 -1.9375,-6.3575 -0.1225,-0.14875 -0.93125,-1.09125 -1.15375,-1.09125 -0.0625,0 -0.14875,0.0237 -0.14875,0.1225 0,0.0512 0.0238,0.0875 0.0737,0.125 0.59625,0.645 1.4025,1.65 1.9125,3.625 0.285,1.13125 0.39625,2.41 0.39625,3.565 0,1.25375 -0.11125,2.52 -0.43375,3.73875 -0.4725,1.73875 -1.205,2.73 -1.8375,3.42625 -0.11125,0.11125 -0.11125,0.13625 -0.11125,0.1625 0,0.1 0.0863,0.1225 0.14875,0.1225 0.185,0 0.86875,-0.75625 1.0175,-0.93 1.2675,-1.50375 2.07375,-3.73875 2.07375,-6.5075"
         style="fill:#000000;fill-opacity:1;fill-rule:nonzero;stroke:none"
         id="path4132" />
    </g>
    <g
       id="g4546"
       transform="matrix(2.8386675,0,0,2.8386675,522.94502,-549.09184)">
      <path
         inkscape:connector-curvature="0"
         d="m -92.438309,270.91281 c 0.50775,1.3025 1.104,3.2025 1.30275,3.48875 0.19862,0.27375 0.32225,0.27375 0.65862,0.27375 l 0.274,0 c 0.125,-0.0112 0.13613,-0.0875 0.13613,-0.125 0,-0.0375 -0.0254,-0.06 -0.0625,-0.11125 -0.1225,-0.13625 -0.19863,-0.3225 -0.28513,-0.57 l -2.53362,-7.06625 c -0.26125,-0.72125 -0.93125,-0.88125 -1.51513,-0.88125 -0.0601,0 -0.22275,0 -0.22275,0.13625 0,0.1 0.10013,0.1225 0.11138,0.1225 0.41012,0.0738 0.49662,0.15 0.80612,0.99375 l 1.20513,3.3775 -3.42725,3.4025 c -0.149,0.14875 -0.22263,0.225 -0.22263,0.385 0,0.21125 0.17375,0.36125 0.3725,0.36125 0.19725,0 0.31,-0.13625 0.40875,-0.26125 l 2.99363,-3.525"
         style="fill:#000000;fill-opacity:1;fill-rule:nonzero;stroke:none"
         id="path4134" />
      <path
         inkscape:connector-curvature="0"
         d="m -84.493059,278.68031 c 0,-0.0512 -0.0254,-0.0737 -0.0512,-0.11125 -0.57025,-0.61 -1.41651,-1.615 -1.9375,-3.63875 -0.28513,-1.13125 -0.3965,-2.41 -0.3965,-3.565 0,-3.26625 0.78375,-5.55125 2.2715,-7.16375 0.11375,-0.11125 0.11375,-0.13625 0.11375,-0.1625 0,-0.1225 -0.10013,-0.1225 -0.15038,-0.1225 -0.1845,0 -0.855,0.74375 -1.01713,0.93125 -1.26512,1.5025 -2.07362,3.73625 -2.07362,6.50625 0,1.76375 0.3095,4.26 1.9375,6.3575 0.125,0.14875 0.93113,1.09125 1.15325,1.09125 0.0512,0 0.15038,0 0.15038,-0.1225"
         style="fill:#000000;fill-opacity:1;fill-rule:nonzero;stroke:none"
         id="path4136" />
      <path
         inkscape:connector-curvature="0"
         d="m -80.643189,263.67031 -1.66375,1.6875 0.225,0.225 1.44,-1.2675 1.43,1.2675 0.2225,-0.225 -1.6525,-1.6875"
         style="fill:#000000;fill-opacity:1;fill-rule:nonzero;stroke:none"
         id="path4138" />
      <path
         inkscape:connector-curvature="0"
         d="m -81.313189,269.57156 1.16625,0 c 0.2475,0 0.3725,0 0.3725,-0.2475 0,-0.13625 -0.125,-0.13625 -0.3475,-0.13625 l -1.09125,0 c 0.445,-1.76375 0.5075,-2.01125 0.5075,-2.08625 0,-0.21125 -0.14875,-0.33625 -0.35875,-0.33625 -0.0375,0 -0.385,0.0137 -0.49625,0.4475 l -0.48375,1.975 -1.1675,0 c -0.2475,0 -0.3725,0 -0.3725,0.23625 0,0.14875 0.1,0.14875 0.3475,0.14875 l 1.09375,0 c -0.895,3.5275 -0.94375,3.73875 -0.94375,3.96125 0,0.67 0.47125,1.1425 1.14125,1.1425 1.2675,0 1.975,-1.8125 1.975,-1.9125 0,-0.125 -0.1,-0.125 -0.14875,-0.125 -0.11125,0 -0.125,0.0375 -0.185,0.17375 -0.535,1.29125 -1.19375,1.59 -1.615,1.59 -0.26,0 -0.385,-0.1625 -0.385,-0.57 0,-0.29875 0.025,-0.385 0.0738,-0.5975 l 0.92,-3.6625"
         style="fill:#000000;fill-opacity:1;fill-rule:nonzero;stroke:none"
         id="path4140" />
      <path
         inkscape:connector-curvature="0"
         d="m -76.428189,270.82531 c 0,-0.23875 -0.0175,-0.24625 -0.26375,-0.24625 -0.5625,0.5525 -1.36125,0.56 -1.7225,0.56 l 0,0.31625 c 0.21125,0 0.79125,0 1.275,-0.24625 l 0,4.4825 c 0,0.29125 0,0.40375 -0.87875,0.40375 l -0.33375,0 0,0.31625 c 0.15875,-0.008 1.23875,-0.035 1.565,-0.035 0.27125,0 1.37875,0.0275 1.5725,0.035 l 0,-0.31625 -0.33375,0 c -0.87875,0 -0.87875,-0.11375 -0.87875,-0.40375 l 0,-4.8675"
         style="fill:#000000;fill-opacity:1;fill-rule:nonzero;stroke:none"
         id="path4142" />
      <path
         inkscape:connector-curvature="0"
         d="m -70.084439,271.36531 c 0,-1.76375 -0.31,-4.2575 -1.9375,-6.3575 -0.1225,-0.14875 -0.93125,-1.09125 -1.15375,-1.09125 -0.0625,0 -0.14875,0.0238 -0.14875,0.1225 0,0.0512 0.0238,0.0875 0.0737,0.125 0.59625,0.645 1.4025,1.65 1.9125,3.625 0.285,1.13125 0.39625,2.41 0.39625,3.565 0,1.25375 -0.11125,2.52 -0.43375,3.73875 -0.4725,1.73875 -1.205,2.73 -1.8375,3.42625 -0.11125,0.11125 -0.11125,0.13625 -0.11125,0.1625 0,0.1 0.0863,0.1225 0.14875,0.1225 0.185,0 0.86875,-0.75625 1.0175,-0.93 1.2675,-1.50375 2.07375,-3.73875 2.07375,-6.5075"
         style="fill:#000000;fill-opacity:1;fill-rule:nonzero;stroke:none"
         id="path4144" />
    </g>
    <path
       id="path4601"
       d="m 149.9852,293.51043 -21.87351,-5.61631"
       style="fill:none;stroke:#000000;stroke-width:2;stroke-linecap:butt;stroke-linejoin:miter;stroke-miterlimit:4;stroke-opacity:1"
       inkscape:connector-curvature="0"
       sodipodi:nodetypes="cc" />
    <path
       id="path4650"
       d="m 295.84257,194.80547 5.6294,-21.798"
       style="fill:none;stroke:#000000;stroke-width:2;stroke-linecap:butt;stroke-linejoin:miter;stroke-miterlimit:4;stroke-opacity:1"
       inkscape:connector-curvature="0"
       sodipodi:nodetypes="cc" />
  </g>
</svg>
