<?xml version="1.0" encoding="UTF-8" standalone="no"?>
<!-- Created with Inkscape (http://www.inkscape.org/) -->

<svg
   xmlns:dc="http://purl.org/dc/elements/1.1/"
   xmlns:cc="http://creativecommons.org/ns#"
   xmlns:rdf="http://www.w3.org/1999/02/22-rdf-syntax-ns#"
   xmlns:svg="http://www.w3.org/2000/svg"
   xmlns="http://www.w3.org/2000/svg"
   xmlns:sodipodi="http://sodipodi.sourceforge.net/DTD/sodipodi-0.dtd"
   xmlns:inkscape="http://www.inkscape.org/namespaces/inkscape"
   width="1024"
   height="1024"
   id="svg2"
   version="1.1"
   inkscape:version="0.48.3.1 r9886"
   sodipodi:docname="fairness_mec.svg">
  <defs
     id="defs4" />
  <sodipodi:namedview
     id="base"
     pagecolor="#ffffff"
     bordercolor="#666666"
     borderopacity="1.0"
     inkscape:pageopacity="0.0"
     inkscape:pageshadow="2"
     inkscape:zoom="1.4"
     inkscape:cx="436.66681"
     inkscape:cy="833.08839"
     inkscape:document-units="px"
     inkscape:current-layer="layer1"
     showgrid="true"
     inkscape:window-width="1920"
     inkscape:window-height="1028"
     inkscape:window-x="0"
     inkscape:window-y="0"
     inkscape:window-maximized="1"
     inkscape:snap-page="true"
     inkscape:snap-global="true"
     inkscape:snap-bbox="true">
    <inkscape:grid
       type="xygrid"
       id="grid2985"
       empspacing="8"
       visible="true"
       enabled="true"
       snapvisiblegridlinesonly="true"
       spacingx="16px"
       spacingy="16px" />
  </sodipodi:namedview>
  <metadata
     id="metadata7">
    <rdf:RDF>
      <cc:Work
         rdf:about="">
        <dc:format>image/svg+xml</dc:format>
        <dc:type
           rdf:resource="http://purl.org/dc/dcmitype/StillImage" />
        <dc:title></dc:title>
      </cc:Work>
    </rdf:RDF>
  </metadata>
  <g
     inkscape:label="Layer 1"
     inkscape:groupmode="layer"
     id="layer1"
     transform="translate(0,-28.36218)">
    <g
       id="g3016"
       transform="matrix(1.0748648,0,0,1.0748648,-248.20268,-7.4981833)">
      <path
         id="path3002"
         d="m 300,300 c -0.59387,-1.55729 -1.18771,-3.11457 -1.77999,-4.67244 -0.59229,-1.55787 -1.18302,-3.11635 -1.7706,-4.67601 -0.58758,-1.55966 -1.17202,-3.12052 -1.75171,-4.68313 -0.57969,-1.56261 -1.15464,-3.12698 -1.72325,-4.69366 -0.56861,-1.56667 -1.1309,-3.13564 -1.68524,-4.70741 -0.55434,-1.57178 -1.10074,-3.14636 -1.63758,-4.7242 -0.53683,-1.57785 -1.06408,-3.15896 -1.58009,-4.74374 -0.51601,-1.58478 -1.02077,-3.17323 -1.51257,-4.76569 -0.4918,-1.59246 -0.97065,-3.18892 -1.4348,-4.78966 -0.46415,-1.60073 -0.91361,-3.20572 -1.34663,-4.81515 -0.43303,-1.60943 -0.84961,-3.22328 -1.248,-4.84163 -0.39838,-1.61834 -0.77858,-3.24118 -1.13879,-4.86845 -0.36021,-1.62727 -0.70045,-3.25898 -1.01889,-4.89494 -0.31843,-1.63596 -0.61506,-3.27618 -0.88801,-4.92035 -0.27294,-1.64416 -0.52219,-3.29226 -0.7458,-4.94385 -0.22362,-1.65159 -0.42158,-3.30665 -0.59198,-4.96457 -0.1704,-1.65792 -0.31322,-3.31869 -0.42674,-4.98148 -0.11352,-1.66279 -0.19789,-3.32759 -0.25139,-4.99338 -0.0535,-1.66579 -0.0759,-3.33259 -0.0651,-4.99921 0.0108,-1.66661 0.0548,-3.33303 0.13361,-4.99782 0.0788,-1.66478 0.19246,-3.32794 0.34249,-4.98782 0.15003,-1.65988 0.33645,-3.31648 0.5608,-4.96796 0.22434,-1.65147 0.48661,-3.29781 0.7883,-4.93692 0.30168,-1.6391 0.64279,-3.27098 1.02469,-4.89327 0.38191,-1.62229 0.80462,-3.235 1.26932,-4.83554 0.4647,-1.60054 0.9714,-3.18891 1.52102,-4.76231 0.54963,-1.5734 1.14217,-3.13183 1.77828,-4.67229 0.6361,-1.54046 1.31577,-3.06296 2.0393,-4.56434 0.72353,-1.50138 1.49093,-2.98164 2.3022,-4.43747 0.81128,-1.45584 1.66642,-2.88725 2.56514,-4.2908 0.89872,-1.40354 1.841,-2.77921 2.82625,-4.12343 0.98525,-1.34421 2.01347,-2.65696 3.08371,-3.93454 1.07023,-1.27758 2.18249,-2.51998 3.33542,-3.72346 1.15292,-1.20347 2.34651,-2.36801 3.57884,-3.49003 1.23234,-1.12202 2.50343,-2.20148 3.81059,-3.23538 1.30715,-1.0339 2.65017,-2.02251 4.02683,-2.96185 1.37667,-0.93934 2.787,-1.82936 4.22791,-2.66681 1.44091,-0.83745 2.91239,-1.62235 4.41079,-2.35198 1.4984,-0.72962 3.02372,-1.40399 4.57201,-2.02073 1.54829,-0.61675 3.11954,-1.17586 4.70955,-1.67528 1.59001,-0.49941 3.19878,-0.93912 4.82188,-1.31738 1.6231,-0.37826 3.26052,-0.69506 4.90765,-0.94907 1.64712,-0.25401 3.30393,-0.44523 4.96564,-0.5728 1.6617,-0.12757 3.3283,-0.1915 4.9949,-0.1915 1.6666,0 3.3332,0.0639 4.9949,0.1915 1.66171,0.12757 3.31852,0.31879 4.96564,0.5728 1.64713,0.25401 3.28455,0.57081 4.90765,0.94907 1.6231,0.37826 3.23187,0.81797 4.82188,1.31738 1.59001,0.49942 3.16126,1.05853 4.70955,1.67528 1.54829,0.61674 3.07361,1.29111 4.57201,2.02073 1.4984,0.72963 2.96988,1.51453 4.41079,2.35198 1.44091,0.83745 2.85124,1.72747 4.22791,2.66681 1.37666,0.93934 2.71968,1.92795 4.02683,2.96185 1.30716,1.0339 2.57825,2.11336 3.81059,3.23538 1.23233,1.12202 2.42592,2.28656 3.57884,3.49003 1.15293,1.20348 2.26519,2.44588 3.33542,3.72346 1.07024,1.27758 2.09846,2.59033 3.08371,3.93454 0.98525,1.34422 1.92753,2.71989 2.82625,4.12343 0.89872,1.40355 1.75386,2.83496 2.56514,4.2908 0.81127,1.45583 1.57867,2.93609 2.3022,4.43747 0.72353,1.50138 1.4032,3.02388 2.0393,4.56434 0.63611,1.54046 1.22865,3.09889 1.77828,4.67229 0.54962,1.5734 1.05632,3.16177 1.52102,4.76231 0.4647,1.60054 0.88741,3.21325 1.26932,4.83554 0.3819,1.62229 0.72301,3.25417 1.02469,4.89327 0.30169,1.63911 0.56396,3.28545 0.7883,4.93692 0.22435,1.65148 0.41077,3.30808 0.5608,4.96796 0.15003,1.65988 0.26368,3.32304 0.34249,4.98782 0.0788,1.66479 0.12279,3.33121 0.13361,4.99782 0.0108,1.66662 -0.0116,3.33342 -0.0651,4.99921 -0.0535,1.66579 -0.13787,3.33059 -0.25139,4.99338 -0.11352,1.66279 -0.25634,3.32356 -0.42674,4.98148 -0.1704,1.65792 -0.36836,3.31298 -0.59198,4.96457 -0.22361,1.65159 -0.47286,3.29969 -0.7458,4.94385 -0.27295,1.64417 -0.56958,3.28439 -0.88801,4.92035 -0.31844,1.63596 -0.65868,3.26767 -1.01889,4.89494 -0.36021,1.62727 -0.74041,3.25011 -1.13879,4.86845 -0.39839,1.61835 -0.81497,3.2322 -1.248,4.84163 -0.43302,1.60943 -0.88248,3.21442 -1.34663,4.81515 -0.46415,1.60074 -0.943,3.1972 -1.4348,4.78966 -0.4918,1.59246 -0.99656,3.18091 -1.51257,4.76569 -0.51601,1.58478 -1.04326,3.16589 -1.58009,4.74374 -0.53684,1.57784 -1.08324,3.15242 -1.63758,4.7242 -0.55434,1.57177 -1.11663,3.14074 -1.68524,4.70741 -0.56861,1.56668 -1.14356,3.13105 -1.72325,4.69366 -0.57969,1.56261 -1.16413,3.12347 -1.75171,4.68313 -0.58758,1.55966 -1.17831,3.11814 -1.7706,4.67601 -0.5922,1.55787 -1.18604,3.11515 -1.77991,4.67244"
         inkscape:connector-curvature="0"
         style="fill:none;stroke:#000000;stroke-width:1.86069913;stroke-miterlimit:4;stroke-dasharray:none" />
      <path
         id="path3004"
         d="m 299.10941,297.664 -0.94155,0.35878 m -0.83491,-5.03255 -2.8227,1.0691 m 1.06035,-5.74824 -4.73494,1.77154 m 2.99626,-6.45952 -6.64468,2.4402 m 4.93924,-7.14034 -8.56142,3.06577 m 6.8988,-7.78122 -10.50575,3.64267 m 8.89567,-8.37631 -12.49207,4.16219 m 10.94447,-8.91662 -14.52238,4.6106 m 13.0474,-9.38805 -16.58803,4.9707 m 15.19601,-9.77295 -18.67648,5.22492 m 17.37785,-10.05323 -20.78003,5.35824 m 19.58531,-10.21328 -22.90324,5.35945 m 21.82305,-10.24123 -25.06513,5.21962 m 24.11029,-10.12745 -27.29182,4.92809 m 26.47347,-9.86048 -29.59517,4.46739 m 28.92482,-9.42201 -31.93293,3.8107 m 31.42219,-8.78427 -34.14738,2.928 m 33.80719,-7.91613 -35.88214,1.80917 m 35.72226,-6.80628 -38.61645,0.50652 m 38.64934,-5.50603 -40.81327,-1.08753 m 41.05011,-3.90644 -42.73451,-2.93083 m 43.185,-2.04838 -44.58853,-5.02938 m 45.26194,0.0755 -46.41018,-7.40621 m 47.3156,2.48945 -48.14184,-10.07675 m 49.28788,5.21049 -49.69112,-13.03901 m 51.08549,8.23806 -50.9685,-16.27381 m 52.61757,11.55434 -51.90829,-19.75142 m 53.81672,15.1308 -52.4759,-23.44072 m 54.64653,18.93739 -52.66448,-27.31779 m 55.09827,22.95112 -52.48319,-31.37028 m 55.17922,27.16053 -51.93895,-35.59382 m 54.89451,31.5621 -51.01402,-39.97596 m 54.22444,36.14415 -49.64174,-44.46171 m 53.1001,40.85221 -47.68628,-48.893847 M 306.42948,139.0523 261.49454,86.13161 m 48.85565,49.81968 -41.74469,-56.742226 m 45.87402,53.925126 -38.59006,-61.172361 m 42.91195,58.660751 -34.51397,-64.720719 m 39.00822,62.532469 -29.947,-67.751324 M 327.93951,126.58466 302.88923,56.169068 M 332.70846,125.08689 312.83939,52.369678 M 337.57662,123.9525 323.1525,49.37411 m 19.36431,73.81664 -8.75583,-75.895504 m 13.73973,75.512924 -2.93644,-76.579229 m 7.93502,76.579229 2.93644,-76.579229 m 2.04746,76.961809 8.75583,-75.895504 M 362.42338,123.9525 376.8475,49.37411 m -9.55596,75.71278 19.86907,-72.717212 m -15.10012,74.214982 25.05028,-70.415592 m -20.40643,72.265262 29.947,-67.751324 M 381.19859,130.62258 415.71256,65.901861 M 385.52048,133.13419 424.11054,71.961829 M 389.64981,135.95129 431.3945,79.209064 M 393.57052,139.0523 438.50546,86.13161 m -41.2385,56.28591 47.68628,-48.893847 m -44.22792,52.503347 49.64174,-44.46171 m -46.43132,48.29352 51.01402,-39.97596 m -48.05846,44.00768 51.93895,-35.59382 m -49.24292,39.80357 52.48319,-31.37028 m -50.0494,35.73695 52.66448,-27.31779 m -50.49385,31.82112 52.4759,-23.44072 m -50.56747,28.06134 51.90829,-19.75142 m -50.25922,24.47089 50.9685,-16.27381 m -49.57413,21.07476 49.69112,-13.03901 m -48.54508,17.90527 48.14184,-10.07675 m -47.23642,14.99351 46.41018,-7.40621 m -45.73677,12.36013 44.58853,-5.02938 m -44.13804,10.00859 42.73451,-2.93083 m -42.49767,7.9248 40.81327,-1.08753 m -40.78038,6.08704 38.61645,0.50652 m -38.77633,4.49059 35.88214,1.80917 m -36.22233,3.17896 34.14738,2.928 m -34.65812,2.04557 31.93293,3.8107 m -32.60328,1.14392 29.59517,4.46739 m -30.41352,0.465 27.29182,4.92809 m -28.24666,-0.0203 25.06513,5.21962 m -26.14532,-0.33784 22.90324,5.35945 m -24.09796,-0.50441 20.78003,5.35824 m -22.07866,-0.52993 18.67648,5.22492 m -20.0685,-0.42267 16.58803,4.9707 m -18.06301,-0.19325 14.52238,4.6106 m -16.06998,0.14383 12.49207,4.16219 m -14.10215,0.57145 10.50575,3.64267 m -12.16837,1.07278 8.56142,3.06577 m -10.26686,1.63437 6.64468,2.4402 m -8.38336,2.24778 4.73494,1.77154 m -6.49729,2.9076 2.8227,1.0691 m -4.59916,3.60467 0.94155,0.35878"
         inkscape:connector-curvature="0"
         style="fill:none;stroke:#0000ff;stroke-width:0.46517478;stroke-miterlimit:4;stroke-dasharray:none" />
      <circle
         id="circle3006"
         r="10"
         cy="300"
         cx="300"
         sodipodi:cx="300"
         sodipodi:cy="300"
         sodipodi:rx="10"
         sodipodi:ry="10"
         style="fill:#ff0000;stroke:none"
         d="m 310,300 c 0,5.52285 -4.47715,10 -10,10 -5.52285,0 -10,-4.47715 -10,-10 0,-5.52285 4.47715,-10 10,-10 5.52285,0 10,4.47715 10,10 z"
         transform="matrix(0.46517478,0,0,0.46517478,160.44757,160.44757)" />
      <circle
         id="circle3008"
         r="10"
         cy="300"
         cx="400"
         sodipodi:cx="400"
         sodipodi:cy="300"
         sodipodi:rx="10"
         sodipodi:ry="10"
         style="fill:#ff0000;stroke:none"
         d="m 410,300 c 0,5.52285 -4.47715,10 -10,10 -5.52285,0 -10,-4.47715 -10,-10 0,-5.52285 4.47715,-10 10,-10 5.52285,0 10,4.47715 10,10 z"
         transform="matrix(0.46517478,0,0,0.46517478,213.93009,160.44757)" />
    </g>
    <g
       id="g3062"
       transform="matrix(0.53834954,0,0,0.53834954,184.66018,-31.523399)">
      <path
         id="path3046"
         d="m 200,400 c -0.32973,1.63375 -0.65951,3.26747 -0.98845,4.90136 -0.32894,1.63389 -0.65702,3.26795 -0.98339,4.90235 -0.32637,1.6344 -0.65101,3.26915 -0.97308,4.9044 -0.32208,1.63526 -0.64157,3.27102 -0.95766,4.90745 -0.31608,1.63642 -0.62875,3.27351 -0.93716,4.9114 -0.30842,1.63789 -0.61258,3.27658 -0.91166,4.91621 -0.29907,1.63962 -0.59305,3.28017 -0.8811,4.92176 -0.28805,1.6416 -0.57017,3.28423 -0.8455,4.928 -0.27533,1.64377 -0.54388,3.28868 -0.80479,4.9348 -0.26091,1.64612 -0.51417,3.29345 -0.75893,4.94205 -0.24475,1.64859 -0.481,3.29845 -0.70786,4.9496 -0.22685,1.65115 -0.44433,3.30359 -0.65153,4.95731 -0.2072,1.65373 -0.40412,3.30875 -0.58989,4.96502 -0.18577,1.65626 -0.36037,3.31379 -0.52291,4.97249 -0.16255,1.65871 -0.31303,3.3186 -0.45056,4.97956 -0.13752,1.66097 -0.26209,3.32301 -0.3728,4.98597 -0.1107,1.66297 -0.20755,3.32686 -0.28964,4.99148 -0.0821,1.66462 -0.14942,3.32997 -0.2011,4.99581 -0.0517,1.66584 -0.0877,3.33217 -0.10716,4.99869 -0.0195,1.66653 -0.0224,3.33325 -0.008,4.99982 0.0145,1.66657 0.0464,3.33299 0.0967,4.99887 0.0502,1.66587 0.11874,3.3312 0.20641,4.99552 0.0877,1.66432 0.1945,3.32763 0.32132,4.98942 0.12682,1.6618 0.27363,3.32206 0.44126,4.98023 0.16762,1.65817 0.35605,3.31423 0.56609,4.96755 0.21004,1.65333 0.44169,3.30391 0.69571,4.95104 0.25403,1.64713 0.53042,3.29082 0.82993,4.93028 0.29951,1.63947 0.62213,3.27471 0.96856,4.9049 0.34643,1.63018 0.71668,3.25531 1.1114,4.87448 0.39471,1.61916 0.81391,3.23237 1.2582,4.83863 0.44428,1.60626 0.91366,3.20559 1.4087,4.79694 0.49504,1.59135 1.01574,3.17472 1.56261,4.749 0.54687,1.57429 1.11991,3.13948 1.71957,4.69442 0.59967,1.55493 1.22596,3.0996 1.87925,4.63277 0.65329,1.53317 1.33359,3.05484 2.0412,4.5637 0.70761,1.50887 1.44254,3.00493 2.20501,4.48682 0.76246,1.4819 1.55247,2.94963 2.37016,4.40178 0.81769,1.45215 1.66306,2.88872 2.53615,4.30825 0.8731,1.41952 1.77391,2.822 2.70239,4.20593 0.92848,1.38392 1.88462,2.74929 2.86825,4.09456 0.98363,1.34528 1.99476,2.67045 3.03308,3.97396 1.03832,1.30352 2.10384,2.58536 3.19615,3.84397 1.09231,1.2586 2.2114,2.49396 3.35673,3.70449 1.14534,1.21054 2.3169,2.39625 3.51403,3.55558 1.19712,1.15933 2.41979,2.29228 3.66719,3.39732 1.2474,1.10504 2.51953,2.18218 3.81541,3.22995 1.29587,1.04778 2.6155,2.06618 3.95776,3.05385 1.34226,0.98767 2.70715,1.9446 4.09339,2.86954 1.38625,0.92494 2.79385,1.81789 4.22166,2.67727 1.4278,0.85939 2.8758,1.68522 4.34265,2.47607 1.46685,0.79084 2.95256,1.5467 4.45563,2.26627 1.50308,0.71958 3.02352,1.40287 4.5597,2.04872 1.53618,0.64584 3.08811,1.25424 4.65405,1.82416 1.56594,0.56993 3.14588,1.10137 4.73801,1.59343 1.59212,0.49207 3.19643,0.94475 4.81099,1.35729 1.61457,0.41255 3.2394,0.78494 4.87251,1.11657 1.63312,0.33162 3.27452,0.62248 4.92217,0.87207 1.64765,0.24959 3.30156,0.45793 4.95965,0.62465 1.65809,0.16673 3.32036,0.29185 4.98472,0.37516 1.66436,0.0833 3.33082,0.12481 4.99726,0.12444 1.66644,-3.6e-4 3.33287,-0.0426 4.99718,-0.12661 1.66432,-0.084 3.32652,-0.2098 4.98452,-0.37715 1.658,-0.16734 3.31181,-0.37623 4.95936,-0.6263 1.64756,-0.25007 3.28886,-0.54131 4.92189,-0.87322 1.63303,-0.33191 3.2578,-0.70449 4.87234,-1.11708 1.61454,-0.4126 3.21885,-0.86521 4.81103,-1.35707 1.59219,-0.49186 3.17225,-1.02297 4.73837,-1.59243 1.56612,-0.56945 3.1183,-1.17726 4.6548,-1.82241 1.5365,-0.64514 3.05732,-1.32762 4.56083,-2.04633 1.50351,-0.71871 2.98971,-1.47364 4.45705,-2.26358 1.46735,-0.78994 2.91584,-1.6149 4.34407,-2.47356 1.42823,-0.85867 2.83618,-1.75104 4.22256,-2.67576 1.38638,-0.92472 2.75119,-1.88178 4.09324,-2.86974 1.34205,-0.98796 2.66134,-2.00683 3.95682,-3.05511 1.29549,-1.04828 2.56716,-2.12598 3.8141,-3.23157 1.24694,-1.10558 2.46914,-2.23906 3.66581,-3.39886 1.19668,-1.1598 2.36782,-2.34594 3.51278,-3.55683 1.14495,-1.2109 2.26371,-2.44655 3.35574,-3.70538 1.09203,-1.25883 2.15733,-2.54085 3.19549,-3.84447 1.03816,-1.30362 2.04919,-2.62885 3.03278,-3.97412 0.98359,-1.34528 1.93976,-2.71061 2.86832,-4.09446 0.92856,-1.38385 1.82952,-2.78622 2.70281,-4.20561 0.87329,-1.41939 1.71891,-2.85581 2.5369,-4.30779 0.81798,-1.45198 1.60834,-2.91952 2.37119,-4.40123 0.76285,-1.4817 1.49819,-2.97757 2.20625,-4.48624 0.70805,-1.50866 1.38882,-3.03014 2.04259,-4.56312 0.65377,-1.53299 1.28054,-3.07748 1.88067,-4.63225 0.60014,-1.55477 1.17363,-3.11981 1.72092,-4.69396 0.54728,-1.57416 1.06835,-3.15741 1.56369,-4.74867 0.49534,-1.59126 0.96496,-3.19052 1.40937,-4.79675 0.44442,-1.60622 0.86365,-3.21941 1.25827,-4.83859 0.39463,-1.61917 0.76466,-3.24434 1.11074,-4.87459 0.34607,-1.63024 0.66821,-3.26557 0.96711,-4.90514 0.2989,-1.63956 0.57458,-3.28336 0.82783,-4.93061 0.25324,-1.64725 0.48406,-3.29795 0.69335,-4.95137 0.20929,-1.65343 0.39706,-3.30959 0.56432,-4.96782 0.16727,-1.65822 0.31404,-3.31851 0.44096,-4.98031 0.12692,-1.66179 0.23398,-3.32509 0.32192,-4.9894 0.0879,-1.6643 0.15678,-3.3296 0.20729,-4.99544 0.0505,-1.66585 0.0827,-3.33225 0.0974,-4.9988 0.0147,-1.66654 0.012,-3.33325 -0.007,-4.99975 -0.0193,-1.66651 -0.0552,-3.33283 -0.10679,-4.99867 -0.0516,-1.66583 -0.11884,-3.33118 -0.20088,-4.99581 -0.082,-1.66463 -0.17884,-3.32853 -0.28952,-4.99151 -0.11068,-1.66298 -0.23522,-3.32504 -0.37271,-4.98602 -0.1375,-1.66099 -0.28796,-3.3209 -0.45047,-4.97963 -0.16251,-1.65872 -0.33707,-3.31627 -0.5228,-4.97256 -0.18572,-1.65629 -0.38261,-3.31132 -0.58977,-4.96506 -0.20716,-1.65374 -0.4246,-3.30619 -0.65143,-4.95735 -0.22683,-1.65115 -0.46306,-3.30101 -0.70781,-4.9496 -0.24475,-1.64859 -0.49802,-3.29591 -0.75895,-4.94201 -0.26093,-1.6461 -0.52952,-3.29099 -0.8049,-4.93474 -0.27539,-1.64374 -0.55757,-3.28635 -0.84569,-4.92791 -0.28812,-1.64156 -0.58219,-3.28208 -0.88134,-4.92167 -0.29915,-1.63959 -0.60339,-3.27826 -0.91187,-4.91613 -0.30848,-1.63787 -0.62119,-3.27494 -0.93729,-4.91136 -0.31611,-1.63642 -0.6356,-3.27219 -0.95763,-4.90746 -0.32203,-1.63527 -0.64661,-3.27005 -0.97287,-4.90448 -0.32627,-1.63444 -0.65423,-3.26854 -0.98304,-4.90247 -0.3288,-1.63393 -0.65846,-3.2677 -0.98811,-4.90146 -0.32965,-1.63376 -0.65931,-3.26753 -0.98811,-4.90146 -0.32881,-1.63393 -0.65677,-3.26803 -0.98304,-4.90247 -0.32626,-1.63443 -0.65084,-3.26921 -0.97287,-4.90448 -0.32203,-1.63527 -0.64152,-3.27104 -0.95763,-4.90746 -0.3161,-1.63642 -0.62881,-3.27349 -0.93729,-4.91136 -0.30848,-1.63787 -0.61272,-3.27654 -0.91187,-4.91613 -0.29915,-1.63959 -0.59322,-3.28011 -0.88134,-4.92167 -0.28812,-1.64156 -0.5703,-3.28417 -0.84569,-4.92791 -0.27538,-1.64375 -0.54397,-3.28864 -0.8049,-4.93474 -0.26093,-1.6461 -0.5142,-3.29342 -0.75895,-4.94201 -0.24475,-1.64859 -0.48098,-3.29845 -0.70781,-4.9496 -0.22683,-1.65116 -0.44427,-3.30361 -0.65143,-4.95735 -0.20716,-1.65374 -0.40405,-3.30877 -0.58977,-4.96506 -0.18573,-1.65629 -0.36029,-3.31384 -0.5228,-4.97256 -0.16251,-1.65873 -0.31297,-3.31864 -0.45047,-4.97963 -0.13749,-1.66098 -0.26203,-3.32304 -0.37271,-4.98602 -0.11068,-1.66298 -0.20749,-3.32688 -0.28952,-4.99151 -0.082,-1.66463 -0.1493,-3.32998 -0.20088,-4.99581 -0.0516,-1.66584 -0.0875,-3.33216 -0.10679,-4.99867 -0.0193,-1.6665 -0.022,-3.33321 -0.007,-4.99975 0.0147,-1.66655 0.0469,-3.33295 0.0974,-4.9988 0.0505,-1.66584 0.11934,-3.33114 0.20729,-4.99544 0.0879,-1.66431 0.195,-3.32761 0.32192,-4.9894 0.12692,-1.6618 0.27369,-3.32209 0.44096,-4.98031 0.16726,-1.65823 0.35503,-3.31439 0.56432,-4.96782 0.20929,-1.65342 0.44011,-3.30412 0.69335,-4.95137 0.25325,-1.64725 0.52893,-3.29105 0.82783,-4.93061 0.2989,-1.63957 0.62104,-3.2749 0.96711,-4.90514 0.34608,-1.63025 0.71611,-3.25542 1.11074,-4.87459 0.39462,-1.61918 0.81385,-3.23237 1.25827,-4.83859 0.44441,-1.60623 0.91403,-3.20549 1.40937,-4.79675 0.49534,-1.59126 1.01641,-3.17451 1.56369,-4.74867 0.54729,-1.57415 1.12078,-3.13919 1.72092,-4.69396 0.60013,-1.55477 1.2269,-3.09926 1.88067,-4.63225 0.65377,-1.53298 1.33454,-3.05446 2.04259,-4.56312 0.70806,-1.50867 1.4434,-3.00454 2.20625,-4.48624 0.76285,-1.48171 1.55321,-2.94925 2.37119,-4.40123 0.81799,-1.45198 1.66361,-2.8884 2.5369,-4.30779 0.87329,-1.41939 1.77425,-2.82176 2.70281,-4.20561 0.92856,-1.38385 1.88473,-2.74918 2.86832,-4.09446 0.98359,-1.34527 1.99462,-2.6705 3.03278,-3.97412 1.03816,-1.30362 2.10346,-2.58564 3.19549,-3.84447 1.09203,-1.25883 2.21079,-2.49448 3.35574,-3.70538 1.14496,-1.21089 2.3161,-2.39703 3.51278,-3.55683 1.19667,-1.1598 2.41887,-2.29328 3.66581,-3.39886 1.24694,-1.10559 2.51861,-2.18329 3.8141,-3.23157 1.29548,-1.04828 2.61477,-2.06715 3.95682,-3.05511 1.34205,-0.98796 2.70686,-1.94502 4.09324,-2.86974 1.38638,-0.92472 2.79433,-1.81709 4.22256,-2.67576 1.42823,-0.85866 2.87672,-1.68362 4.34407,-2.47356 1.46734,-0.78994 2.95354,-1.54487 4.45705,-2.26358 1.50351,-0.71871 3.02433,-1.40119 4.56083,-2.04633 1.5365,-0.64515 3.08868,-1.25296 4.6548,-1.82241 1.56612,-0.56946 3.14618,-1.10057 4.73837,-1.59243 1.59218,-0.49186 3.19649,-0.94447 4.81103,-1.35707 1.61454,-0.41259 3.23931,-0.78517 4.87234,-1.11708 1.63303,-0.33191 3.27433,-0.62315 4.92189,-0.87322 1.64755,-0.25007 3.30136,-0.45896 4.95936,-0.6263 1.658,-0.16735 3.3202,-0.29314 4.98452,-0.37715 1.66431,-0.084 3.33074,-0.12625 4.99718,-0.12661 1.66644,-3.7e-4 3.3329,0.0411 4.99726,0.12444 1.66436,0.0833 3.32663,0.20843 4.98472,0.37516 1.65809,0.16672 3.312,0.37506 4.95965,0.62465 1.64765,0.24959 3.28905,0.54045 4.92217,0.87207 1.63311,0.33163 3.25794,0.70402 4.87251,1.11657 1.61456,0.41254 3.21887,0.86522 4.81099,1.35729 1.59213,0.49206 3.17207,1.0235 4.73801,1.59343 1.56594,0.56992 3.11787,1.17832 4.65405,1.82416 1.53618,0.64585 3.05662,1.32914 4.5597,2.04872 1.50307,0.71957 2.98878,1.47543 4.45563,2.26627 1.46685,0.79085 2.91485,1.61668 4.34265,2.47607 1.42781,0.85938 2.83541,1.75233 4.22166,2.67727 1.38624,0.92494 2.75113,1.88187 4.09339,2.86954 1.34226,0.98767 2.66189,2.00607 3.95776,3.05385 1.29588,1.04777 2.56801,2.12491 3.81541,3.22995 1.2474,1.10504 2.47007,2.23799 3.66719,3.39732 1.19713,1.15933 2.36869,2.34504 3.51403,3.55558 1.14533,1.21053 2.26442,2.44589 3.35673,3.70449 1.09231,1.25861 2.15783,2.54045 3.19615,3.84397 1.03832,1.30351 2.04945,2.62868 3.03308,3.97396 0.98363,1.34527 1.93977,2.71064 2.86825,4.09456 0.92848,1.38393 1.82929,2.78641 2.70239,4.20593 0.87309,1.41953 1.71846,2.8561 2.53615,4.30825 0.81769,1.45215 1.6077,2.91988 2.37016,4.40178 0.76247,1.48189 1.4974,2.97795 2.20501,4.48682 0.70761,1.50886 1.38791,3.03053 2.0412,4.5637 0.65329,1.53317 1.27958,3.07784 1.87925,4.63277 0.59966,1.55494 1.1727,3.12013 1.71957,4.69442 0.54687,1.57428 1.06757,3.15765 1.56261,4.749 0.49504,1.59135 0.96442,3.19068 1.4087,4.79694 0.44429,1.60626 0.86349,3.21947 1.2582,4.83863 0.39472,1.61917 0.76497,3.2443 1.1114,4.87448 0.34643,1.63019 0.66905,3.26543 0.96856,4.9049 0.29951,1.63946 0.5759,3.28315 0.82993,4.93028 0.25402,1.64713 0.48567,3.29771 0.69571,4.95104 0.21004,1.65332 0.39847,3.30938 0.56609,4.96755 0.16763,1.65817 0.31444,3.31843 0.44126,4.98023 0.12682,1.66179 0.23364,3.3251 0.32132,4.98942 0.0877,1.66432 0.15619,3.32965 0.20641,4.99552 0.0502,1.66588 0.0821,3.3323 0.0966,4.99887 0.0145,1.66657 0.0116,3.33329 -0.008,4.99982 -0.0195,1.66652 -0.0555,3.33285 -0.10716,4.99869 -0.0517,1.66584 -0.11901,3.33119 -0.2011,4.99581 -0.0821,1.66462 -0.17894,3.32851 -0.28964,4.99148 -0.11071,1.66296 -0.23528,3.325 -0.3728,4.98597 -0.13753,1.66096 -0.28801,3.32085 -0.45056,4.97956 -0.16254,1.6587 -0.33714,3.31623 -0.52291,4.97249 -0.18577,1.65627 -0.38269,3.31129 -0.58989,4.96502 -0.2072,1.65372 -0.42468,3.30616 -0.65153,4.95731 -0.22686,1.65115 -0.46311,3.30101 -0.70786,4.9496 -0.24476,1.6486 -0.49802,3.29593 -0.75893,4.94205 -0.26091,1.64612 -0.52946,3.29103 -0.80479,4.9348 -0.27533,1.64377 -0.55745,3.2864 -0.8455,4.928 -0.28805,1.64159 -0.58203,3.28214 -0.8811,4.92176 -0.29908,1.63963 -0.60324,3.27832 -0.91166,4.91621 -0.30841,1.63789 -0.62108,3.27498 -0.93716,4.9114 -0.31609,1.63643 -0.63558,3.27219 -0.95766,4.90745 -0.32207,1.63525 -0.64671,3.27 -0.97308,4.9044 -0.32637,1.6344 -0.65445,3.26846 -0.98339,4.90235 -0.3293,1.63389 -0.65908,3.26761 -0.98881,4.90136"
         inkscape:connector-curvature="0"
         style="fill:none;stroke:#000000;stroke-width:3.71505844;stroke-miterlimit:4;stroke-dasharray:none" />
      <path
         id="path3048"
         d="m 199.50548,402.45063 -0.47495,-0.0958 m -0.51164,4.99752 -1.54275,-0.30954 m 0.56387,5.21279 -2.57809,-0.51164 m 1.61208,5.41744 -3.59396,-0.70149 m 2.64593,5.61081 -4.60048,-0.87804 m 3.67544,5.79174 -5.60519,-1.03966 m 4.70818,5.95856 -6.61356,-1.18427 m 5.74962,6.10908 -7.6293,-1.3093 m 6.80351,6.24063 -8.65466,-1.41183 m 7.87216,6.3502 -9.6907,-1.48858 m 8.95665,6.43438 -10.7375,-1.53608 m 10.05715,6.48953 -11.7944,-1.55064 m 11.17302,6.51182 -12.86014,-1.52849 m 12.30307,6.49728 -13.93297,-1.46583 m 13.44556,6.44193 -15.01078,-1.35886 m 14.59843,6.34172 -16.09121,-1.20386 m 15.75931,6.19271 -17.17164,-0.9972 m 16.9256,5.99101 -18.24932,-0.73539 m 18.09452,5.73284 -19.32133,-0.41509 m 19.26312,5.41458 -20.38463,-0.0331 m 20.42835,5.03275 -21.43606,0.41349 m 21.58694,4.58402 -22.47229,0.92757 m 22.73552,4.06527 -23.48985,1.51172 m 23.87052,3.47352 -24.48505,2.16833 m 24.98812,2.80601 -25.45398,2.8996 m 26.0843,2.0602 -26.39247,3.70747 m 27.15472,1.23375 -27.29601,4.5936 m 28.19471,0.32459 -28.15978,5.5594 m 29.19925,-0.66906 -28.97857,6.60592 m 30.16289,-1.74866 -29.74675,7.73379 m 31.07976,-2.91525 -30.45826,8.94321 m 31.94351,-4.16943 -31.10661,10.23385 m 32.74734,-5.51129 -31.68486,11.60477 m 33.48395,-6.94027 -32.18566,13.05429 m 34.14563,-8.45509 -32.60125,14.57993 m 34.72415,-10.05367 -32.92347,16.17828 m 35.21092,-11.73294 -33.14388,17.84484 m 35.59697,-13.48875 -33.25374,19.57387 m 35.87302,-15.31567 -33.24413,21.35819 m 36.02953,-17.2068 -33.10604,23.18899 m 36.05688,-19.15356 -32.83046,25.05556 m 35.94534,-21.14541 -32.40855,26.94497 m 35.68535,-23.16956 -31.83187,28.84172 m 35.26771,-25.21051 -31.0926,30.72734 m 34.68378,-27.24973 -30.18394,32.5799 m 33.92591,-29.26515 -29.10057,34.37356 m 32.98794,-31.23059 -27.83926,36.07798 m 31.86574,-33.1153 -26.39966,37.65789 m 30.55809,-34.88343 -24.95234,39.34303 m 29.23544,-36.76524 -23.45622,41.13602 m 27.85642,-38.76383 -21.75705,42.77315 m 26.26588,-40.61473 -19.88434,44.253 m 24.49248,-42.31574 -17.86386,45.57431 m 22.56122,-43.86478 -15.71824,46.73561 m 20.49415,-45.25963 -13.46772,47.73511 m 18.31093,-46.49766 -11.13068,48.57066 m 16.02953,-47.57592 -8.72426,49.23984 m 13.6667,-48.49117 -6.26484,49.74023 m 11.23859,-49.24012 -3.76841,50.0696 m 8.76097,-49.8197 -1.25079,50.22627 m 6.24959,-50.22736 1.27221,50.20939 m 3.72021,-50.46139 3.78483,50.01922 m 1.18866,-50.52117 6.27134,49.65729 m -1.32919,-50.40739 8.71625,49.12662 m -3.81764,-50.1222 11.10442,48.43169 m -6.26129,-49.6693 13.4213,47.57855 m -8.64521,-49.05392 15.65306,46.57466 m -10.95514,-48.2828 17.78675,45.42889 m -13.17767,-47.36406 19.81054,44.15126 m -15.30041,-46.30709 21.71373,42.75288 m -17.31206,-45.12239 23.48691,41.24573 m -19.20258,-43.82139 25.12204,39.64251 m -20.96321,-42.41631 26.61246,37.9565 m -22.58659,-40.92003 27.95301,36.20135 m -24.0668,-39.34582 29.14007,34.39096 m -25.39947,-37.70733 30.17156,32.53934 m -26.58172,-36.01836 31.04699,30.66046 m -27.61228,-34.29275 31.76751,28.76805 m -28.49154,-32.54415 32.33585,26.87546 m -29.22145,-30.78593 32.75634,24.99552 m -29.80562,-29.03097 33.03479,23.14028 m -30.24914,-27.29145 33.17837,21.32089 m -30.5585,-25.5787 33.19541,19.54739 m -30.74143,-23.90297 33.09518,17.82857 m -30.80659,-22.27334 32.88746,16.17186 m -30.76323,-20.69753 32.58221,14.58321 m -30.62082,-19.18185 32.18901,13.06711 m -30.38851,-17.73111 31.71651,11.62655 m -30.07455,-16.34872 31.17179,10.26322 m -29.68563,-15.03673 30.55956,8.97761 m -29.22617,-13.79604 29.88147,7.76934 m -28.69743,-12.62663 29.13509,6.63748 m -28.09669,-11.528 28.31314,5.58103 m -27.41623,-10.49952 27.40232,4.59942 m -26.64237,-9.54098 26.38238,3.69307 m -25.75427,-8.65318 25.22483,2.86402 m -24.72282,-7.83854 24.2155,2.14319 m -23.83457,-7.12845 23.38794,1.50814 m -23.12392,-6.50092 22.46381,0.9312 m -22.31206,-5.92864 21.47048,0.41761 m -21.42607,-5.41716 20.43024,-0.0308 m -20.48796,-4.96868 19.36063,-0.41447 m -19.51514,-4.58297 18.27509,-0.73564 m -18.52097,-4.25818 17.18344,-0.99747 m -17.51524,-3.99143 16.0926,-1.20367 m -16.50486,-3.77925 15.00703,-1.35823 m -15.49434,-3.61793 13.92937,-1.46512 m -14.48633,-3.50374 12.86082,-1.52824 m -13.48208,-3.43298 11.80156,-1.55132 m -12.48183,-3.40214 10.75113,-1.53792 m -11.48517,-3.40786 9.70861,-1.49139 m -10.49118,-3.44693 8.67285,-1.41501 m -9.49879,-3.51625 7.64268,-1.31192 m -8.50683,-3.61279 6.61693,-1.18521 m -7.51418,-3.7336 5.59459,-1.03796 m -6.51981,-3.87568 4.57473,-0.87326 m -5.52282,-4.03604 3.55663,-0.69419 m -4.52252,-4.21166 2.53973,-0.50391 m -3.51832,-4.39945 1.52357,-0.30557 m -2.50978,-4.59627 0.50782,-0.10239 m -1.49656,-4.79893 -0.50782,0.10239 m -0.47839,-5.00423 -1.52357,0.30557 m 0.54498,-5.20893 -2.53973,0.50391 m 1.57384,-5.40976 -3.55663,0.69419 m 2.60854,-5.60349 -4.57473,0.87326 m 3.64951,-5.7869 -5.59459,1.03796 m 4.69734,-5.95677 -6.61693,1.18521 m 5.75278,-6.10992 -7.64268,1.31192 m 6.81674,-6.24318 -8.67285,1.41501 m 7.89028,-6.35333 -9.70861,1.49139 m 8.97457,-6.43717 -10.75113,1.53792 m 10.07086,-6.49138 -11.80156,1.55132 m 11.1803,-6.51254 -12.86082,1.52824 m 12.30386,-6.4971 -13.92937,1.46512 m 13.44206,-6.44128 -15.00703,1.35823 m 14.59477,-6.34115 -16.0926,1.20367 m 15.7608,-6.19257 -17.18344,0.99747 m 16.93756,-5.99129 -18.27509,0.73564 m 18.12058,-5.73308 -19.36063,0.41447 m 19.30291,-5.41392 -20.43024,0.0308 m 20.47465,-5.03032 -21.47048,-0.41761 m 21.62223,-4.57983 -22.46381,-0.9312 m 22.72783,-4.06158 -23.38794,-1.50814 m 23.76887,-3.47712 -24.2155,-2.14319 m 24.71751,-2.83133 -25.22483,-2.86402 m 25.85294,-2.09609 -26.38238,-3.69307 m 27.14233,-1.24849 -27.40232,-4.59942 m 28.29923,-0.31907 -28.31314,-5.58103 m 29.35154,0.69051 -29.13509,-6.63748 m 30.31913,1.78019 -29.88147,-7.76934 m 31.21486,2.95091 -30.55956,-8.97761 m 32.04572,4.2041 -31.17179,-10.26322 m 32.81375,5.54105 -31.71651,-11.62655 m 33.51701,6.96255 -32.18901,-13.06711 m 34.1504,8.46847 -32.58221,-14.58321 m 34.70644,10.05754 -32.88746,-16.17186 m 35.17605,11.72709 -33.09518,-17.82857 m 35.54916,13.47299 -33.19541,-19.54739 m 35.81528,15.28958 -33.17837,-21.32089 m 35.96402,17.16972 -33.03479,-23.14028 m 35.98551,19.10483 -32.75634,-24.99552 m 35.87074,21.08505 -32.33585,-26.87546 m 35.61182,23.09936 -31.76751,-28.76805 m 35.20222,25.13576 -31.04699,-30.66046 m 34.63683,27.18144 -30.17156,-32.53934 m 33.91216,29.22297 -29.14007,-34.39096 m 33.02628,31.24649 -27.95301,-36.20135 m 31.97888,33.23782 -26.61246,-37.9565 m 30.77129,35.1827 -25.12204,-39.64251 m 29.40637,37.06685 -23.48691,-41.24573 m 27.88858,38.87622 -21.71373,-42.75288 m 26.22386,40.59705 -19.81054,-44.15126 m 24.41962,42.21609 -17.78675,-45.42889 m 22.48467,43.72075 -15.65306,-46.57466 m 20.42915,45.09929 -13.4213,-47.57855 m 18.26443,46.34094 -11.10442,-48.43169 m 16.00303,47.43611 -8.71625,-49.12662 m 13.6584,48.37652 -6.27134,-49.65729 m 11.24483,49.15534 -3.78483,-50.01922 m 8.77725,49.76722 -1.27221,-50.20939 m 6.27101,50.2083 1.25079,-50.22627 m 3.74177,50.47617 3.76841,-50.0696 m 1.20534,50.56971 6.26484,-49.74023 m -1.3224,50.4889 8.72426,-49.23984 m -3.82541,50.23458 11.13068,-48.57066 m -6.28747,49.80811 13.46772,-47.73511 m -8.69181,49.21109 15.71824,-46.73561 m -11.02088,48.44514 17.86386,-45.57431 m -13.25572,47.51157 19.88434,-44.253 m -15.37551,46.41142 21.75705,-42.77315 m -17.35685,45.14534 23.45622,-41.13602 m -19.17312,43.71381 24.95234,-39.34303 m -20.79391,42.11749 26.39966,-37.65789 m -22.37318,40.62057 27.83926,-36.07798 m -23.95189,39.22095 29.10057,-34.37356 m -25.3586,37.68831 30.18394,-32.5799 m -26.59276,36.05751 31.0926,-30.72734 m -27.65676,34.35855 31.83187,-28.84172 m -28.55507,32.61713 32.40855,-26.94497 m -29.29367,30.85512 32.83046,-25.05556 m -29.87962,29.09099 33.10604,-23.18899 m -30.32064,27.34038 33.24413,-21.35819 m -30.62485,25.61639 33.25374,-19.57387 m -30.80065,23.92996 33.14388,-17.84484 m -30.85643,22.29018 32.92347,-16.17828 m -30.80057,20.70454 32.60125,-14.57993 m -30.64128,19.17913 32.18566,-13.05429 m -30.38657,17.71879 31.68486,-11.60477 m -30.04413,16.32733 31.10661,-10.23385 m -29.62136,15.00763 30.45826,-8.94321 m -29.12525,13.76175 29.74675,-7.73379 m -28.56243,12.59105 28.97857,-6.60592 m -27.9391,11.49626 28.15978,-5.5594 m -27.26108,10.47759 27.29601,-4.5936 m -26.53376,9.53482 26.39247,-3.70747 m -25.76215,8.66727 25.45398,-2.8996 m -24.95091,7.87394 24.48505,-2.16833 m -24.10438,7.15357 23.48985,-1.51172 m -23.22662,6.50456 22.47229,-0.92757 m -22.32141,5.92508 21.43606,-0.41349 m -21.39234,5.41312 20.38463,0.0331 m -20.44284,4.96637 19.32133,0.41509 m -19.47613,4.58236 18.24932,0.73539 m -18.49536,4.25842 17.17164,0.9972 m -17.50354,3.99165 16.09121,1.20386 m -16.50356,3.779 15.01078,1.35886 m -15.49819,3.61724 13.93297,1.46583 m -14.49004,3.50296 12.86014,1.52849 m -13.48152,3.43269 11.7944,1.55064 m -12.47475,3.40281 10.7375,1.53608 m -11.47155,3.40972 9.6907,1.48858 m -10.4732,3.44979 8.65466,1.41183 m -9.48045,3.5195 7.6293,1.3093 m -8.49324,3.61551 6.61356,1.18427 m -7.51057,3.73463 5.60519,1.03966 m -6.53023,3.87404 4.60048,0.87804 m -5.54851,4.03128 3.59396,0.70149 m -4.55997,4.20431 2.57809,0.51164 m -3.55697,4.39161 1.54275,0.30954 m -2.52934,4.59217 0.47495,0.0958"
         inkscape:connector-curvature="0"
         style="fill:none;stroke:#0000ff;stroke-width:0.92876461;stroke-miterlimit:4;stroke-dasharray:none" />
      <circle
         id="circle3050"
         r="10"
         cy="400"
         cx="200"
         sodipodi:cx="200"
         sodipodi:cy="400"
         sodipodi:rx="10"
         sodipodi:ry="10"
         style="fill:#ff0000;stroke:none"
         d="m 210,400 c 0,5.52285 -4.47715,10 -10,10 -5.52285,0 -10,-4.47715 -10,-10 0,-5.52285 4.47715,-10 10,-10 5.52285,0 10,4.47715 10,10 z"
         transform="matrix(0.92876461,0,0,0.92876461,14.247078,28.494156)" />
      <circle
         id="circle3052"
         r="10"
         cy="400"
         cx="400"
         sodipodi:cx="400"
         sodipodi:cy="400"
         sodipodi:rx="10"
         sodipodi:ry="10"
         style="fill:#ff0000;stroke:none"
         d="m 410,400 c 0,5.52285 -4.47715,10 -10,10 -5.52285,0 -10,-4.47715 -10,-10 0,-5.52285 4.47715,-10 10,-10 5.52285,0 10,4.47715 10,10 z"
         transform="matrix(0.92876461,0,0,0.92876461,28.494156,28.494156)" />
      <circle
         id="circle3054"
         r="10"
         cy="400"
         cx="600"
         sodipodi:cx="600"
         sodipodi:cy="400"
         sodipodi:rx="10"
         sodipodi:ry="10"
         style="fill:#ff0000;stroke:none"
         d="m 610,400 c 0,5.52285 -4.47715,10 -10,10 -5.52285,0 -10,-4.47715 -10,-10 0,-5.52285 4.47715,-10 10,-10 5.52285,0 10,4.47715 10,10 z"
         transform="matrix(0.92876461,0,0,0.92876461,42.741235,28.494156)" />
    </g>
    <g
       id="g3137"
       transform="matrix(0.48968304,0,0,0.48968304,556.1152,39.583303)">
      <path
         id="path3121"
         d="m 178,363 c -1.52281,-0.67793 -3.04556,-1.35481 -4.56291,-2.04408 -1.51735,-0.68927 -3.02933,-1.39078 -4.53026,-2.11542 -1.50093,-0.72464 -2.99086,-1.47235 -4.46333,-2.25312 -1.47247,-0.78076 -2.92751,-1.59458 -4.35724,-2.45088 -1.42973,-0.85631 -2.83417,-1.75514 -4.20351,-2.70494 -1.36933,-0.9498 -2.70355,-1.95065 -3.99071,-3.00913 -1.28716,-1.05849 -2.52724,-2.17469 -3.70636,-3.35234 -1.17911,-1.17764 -2.29721,-2.41679 -3.33907,-3.71738 -1.04185,-1.30058 -2.0074,-2.66263 -2.881,-4.08161 -0.87361,-1.41898 -1.65519,-2.89489 -2.32991,-4.41842 -0.67471,-1.52354 -1.24247,-3.09467 -1.69051,-4.69949 -0.44804,-1.60482 -0.77628,-3.24328 -0.97531,-4.89753 -0.19903,-1.65424 -0.26878,-3.32418 -0.20425,-4.9891 0.0645,-1.66492 0.26337,-3.32471 0.59637,-4.95725 0.33301,-1.63254 0.80018,-3.2377 1.39594,-4.79368 0.59577,-1.55597 1.32009,-3.06262 2.16223,-4.50023 0.84215,-1.43761 1.80204,-2.80606 2.86462,-4.0894 1.06258,-1.28333 2.22774,-2.48148 3.47743,-3.58355 1.2497,-1.10207 2.5838,-2.10805 3.98306,-3.01282 1.39926,-0.90478 2.86354,-1.70841 4.37432,-2.4113 1.51078,-0.70288 3.06795,-1.30518 4.65551,-1.81129 1.58756,-0.50611 3.20567,-0.91594 4.84126,-1.23596 1.63559,-0.32002 3.28834,-0.55049 4.94785,-0.70246 1.6595,-0.15196 3.32581,-0.22555 4.99219,-0.23339 1.66638,-0.008 3.3329,0.05 4.99574,0.16106 1.66285,0.11106 3.32207,0.27531 4.97593,0.48174 1.65386,0.20643 3.30239,0.45502 4.94511,0.73686 1.64271,0.28183 3.27964,0.59692 4.91087,0.93868 1.63124,0.34175 3.2568,0.7102 4.87693,1.10094 1.62014,0.39074 3.23484,0.8038 4.84424,1.23657 1.6094,0.43277 3.21349,0.88529 4.8122,1.35615 1.59871,0.47087 3.19203,0.96012 4.77974,1.46699 1.58771,0.50686 3.16982,1.03138 4.74611,1.57284 1.57628,0.54145 3.14675,1.09988 4.71135,1.67423 1.56461,0.57436 3.12335,1.16465 4.67648,1.76929 1.55313,0.60464 3.10065,1.22361 4.64315,1.85479 1.54251,0.63118 3.08,1.27453 4.61333,1.92759 1.53334,0.65306 3.06253,1.31579 4.58855,1.98576 1.52601,0.66996 3.04887,1.34713 4.56942,2.02948 1.52055,0.68235 3.03881,1.36988 4.55533,2.06127 1.51652,0.6914 3.0313,1.38668 4.54461,2.08513 1.51331,0.69846 3.0251,1.40018 4.53573,2.10425 1.51063,0.70407 3.01999,1.41066 4.52957,2.11681 1.50958,0.70615 3.01989,1.41092 4.53143,2.11311 1.51154,0.70219 3.02423,1.40194 4.53862,2.09796 1.51439,0.69603 3.03049,1.38832 4.549,2.07524 1.51851,0.68693 3.03944,1.36849 4.56352,2.04292 1.52409,0.67444 3.05133,1.34174 4.58242,2.00011 1.53109,0.65837 3.06603,1.30781 4.60542,1.94655 1.5394,0.63873 3.08325,1.26676 4.63205,1.88234 1.54881,0.61558 3.10257,1.21871 4.6617,1.80769 1.55912,0.58897 3.1236,1.16378 4.69373,1.72273 1.57013,0.55895 3.14591,1.10205 4.72753,1.6276 1.58162,0.52554 3.16908,1.03354 4.76245,1.52228 1.59336,0.48874 3.19264,0.95823 4.79779,1.40676 1.60514,0.44853 3.21616,0.87609 4.83286,1.28097 1.61671,0.40488 3.23911,0.78708 4.86688,1.1449 1.62777,0.35781 3.26092,0.69123 4.89898,0.99859 1.63805,0.30735 3.28101,0.58863 4.92825,0.8422 1.64724,0.25358 3.29876,0.47944 4.95376,0.67603 1.655,0.1966 3.31349,0.36391 4.97451,0.50049 1.66102,0.13657 3.32458,0.2424 4.98956,0.31613 1.66499,0.0737 3.3314,0.11537 4.998,0.12372 1.6666,0.008 3.33338,-0.0166 4.99896,-0.0758 1.66558,-0.0592 3.32996,-0.15273 4.99161,-0.28132 1.66166,-0.12859 3.32059,-0.29241 4.97514,-0.49255 1.65455,-0.20014 3.30472,-0.4366 4.94875,-0.71006 1.64402,-0.27346 3.28191,-0.58391 4.91182,-0.93176 1.62991,-0.34784 3.25185,-0.73309 4.86394,-1.15592 1.61208,-0.42284 3.21431,-0.88327 4.80476,-1.38134 1.59045,-0.49807 3.16912,-1.03377 4.73405,-1.60698 1.56493,-0.57321 3.11613,-1.18392 4.65164,-1.83184 1.53551,-0.64792 3.05532,-1.33304 4.5575,-2.05488 1.50217,-0.72183 2.98672,-1.48038 4.45173,-2.27493 1.46502,-0.79456 2.9105,-1.62513 4.33465,-2.4908 1.42415,-0.86568 2.82695,-1.76646 4.20673,-2.70124 1.37977,-0.93479 2.7365,-1.90357 4.06865,-2.90506 1.33214,-1.00149 2.63968,-2.03569 3.92124,-3.10115 1.28156,-1.06545 2.53712,-2.16216 3.76546,-3.28855 1.22835,-1.12639 2.42947,-2.28246 3.60231,-3.46653 1.17285,-1.18407 2.31741,-2.39615 3.4328,-3.6345 1.11539,-1.23834 2.20161,-2.50296 3.25793,-3.79207 1.05631,-1.28911 2.08272,-2.60272 3.07865,-3.93904 0.99593,-1.33631 1.96139,-2.69532 2.89601,-4.07521 0.93462,-1.37989 1.83839,-2.78066 2.71122,-4.20044 0.87282,-1.41978 1.7147,-2.85857 2.52596,-4.31442 0.81126,-1.45585 1.59205,-2.92867 2.34259,-4.41674 0.75054,-1.48806 1.47072,-2.99143 2.16084,-4.50845 0.69012,-1.51703 1.35018,-3.04771 1.98082,-4.59041 0.63063,-1.5427 1.23183,-3.09742 1.80445,-4.66259 0.57263,-1.56517 1.11667,-3.14079 1.63313,-4.72538 0.51647,-1.5846 1.00536,-3.17817 1.46778,-4.77938 0.46243,-1.6012 0.8984,-3.21003 1.30912,-4.82527 0.41072,-1.61523 0.7962,-3.23687 1.15773,-4.86382 0.36154,-1.62695 0.69913,-3.25921 1.01417,-4.8958 0.31504,-1.63659 0.60753,-3.27751 0.87893,-4.9219 0.27141,-1.6444 0.52173,-3.29226 0.75252,-4.94285 0.23079,-1.65059 0.44205,-3.3039 0.6354,-4.9593 0.19334,-1.6554 0.36877,-3.31288 0.52796,-4.97191 0.1592,-1.65904 0.30216,-3.31962 0.43061,-4.98131 0.12845,-1.6617 0.24239,-3.3245 0.34359,-4.98808 0.10119,-1.66357 0.18964,-3.32791 0.26713,-4.99276 0.0775,-1.66484 0.14402,-3.33019 0.2014,-4.99585 0.0574,-1.66566 0.10558,-3.33164 0.14645,-4.9978 0.0409,-1.66615 0.0744,-3.33249 0.10239,-4.99891 0.028,-1.66643 0.0505,-3.33294 0.0692,-4.99949 0.0188,-1.66655 0.0338,-3.33314 0.0471,-4.99974 0.0132,-1.66659 0.0246,-3.3332 0.0359,-4.99983"
         inkscape:connector-curvature="0"
         style="fill:none;stroke:#000000;stroke-width:4.0842746;stroke-miterlimit:4;stroke-dasharray:none" />
      <path
         id="path3123"
         d="m 175.7165,361.98227 -3.15121,7.04791 m -1.39948,-9.11868 -9.90984,21.25636 m 5.40854,-23.43286 -16.99501,33.71582 m 12.57938,-36.06054 -25.49663,45.39262 m 21.20964,-47.96379 -36.11371,56.19788 m 32.00844,-59.0492 -49.20627,65.34209 M 149.99837,346.791 85.243169,418.47179 M 146.46469,343.25757 64.157845,417.27226 M 143.34301,339.35638 42.382036,410.69656 M 140.72605,335.10117 21.291425,398.14813 M 138.7054,330.53348 2.5026753,379.58501 m 134.8614147,-53.862 -149.689208,29.85447 m 149.093968,-34.81233 -158.469829,6.5207 M 136.96305,315.7758 -24.490894,296.3729 M 137.96135,310.88374 -20.068453,264.8712 M 139.74659,306.22108 -8.4269271,235.01772 M 142.26976,301.91278 9.7455134,209.04827 M 145.4533,298.06616 33.045556,188.92848 M 149.19766,294.76196 59.440735,176.00695 M 153.39065,292.04819 86.526474,170.61592 M 157.91862,289.93885 111.97701,171.68284 M 162.67773,288.41919 134.1321,176.39383 m 33.44929,111.06296 -14.26978,-100.96166 m 19.24618,100.50274 -3.98947,-86.53369 m 8.98733,86.507 2.34282,-71.3103 m 2.64504,71.64055 5.56127,-57.12064 m -0.59995,57.73743 6.74391,-45.12397 m -1.81581,45.96754 6.86325,-35.84334 m -1.96949,36.86725 6.62083,-29.29925 m -1.76039,30.4706 6.42287,-25.14797 m -1.59466,26.4458 6.42899,-22.80704 m -1.63291,24.21939 6.62288,-21.57609 m -1.85979,23.09652 6.87922,-20.75626 m -2.15039,22.38043 7.02329,-19.76075 m -2.32945,21.48349 6.88876,-18.20366 m -2.22926,20.01711 6.37521,-15.95415 m -1.74752,17.84709 5.49463,-13.14553 m -0.89439,15.10407 4.38684,-10.13314 m 0.19144,12.14246 3.28593,-7.39615 m 1.27591,9.44279 2.4317,-5.37293 m 2.11797,7.44687 1.93332,-4.21332 m 2.60666,6.30853 1.59186,-3.43085 m 2.9402,5.54266 0.67491,-1.44355 m 3.8544,3.56088 -1.16409,2.49604 m 5.69882,-0.38973 -1.6981,3.6729 m 6.24143,-1.5852 -2.48275,5.44099 m 7.03846,-3.38063 -3.35394,7.49018 m 7.92637,-5.46733 -4.20732,9.63683 m 8.80076,-7.66216 -4.98246,11.78513 m 9.60078,-9.86937 -5.64875,13.89677 m 10.29528,-12.05046 -6.19342,15.96761 m 10.87087,-14.20112 -6.61211,18.01054 m 11.32257,-16.3341 -6.90239,20.04331 m 11.64728,-18.4671 -7.05991,22.08057 m 11.84001,-20.61477 -7.07709,24.12936 m 11.8925,-22.78421 -6.94334,26.18745 m 11.7934,-24.97323 -6.64647,28.24362 m 11.52969,-27.17061 -6.17451,30.27946 m 11.08854,-29.35781 -5.51751,32.27158 m 10.45905,-31.51126 -4.66887,34.19369 m 9.63366,-33.6043 -3.62619,36.01753 m 8.609,-35.60816 -2.39183,37.71224 m 7.38649,-37.49136 -0.97368,39.24193 m 5.97314,-39.21715 0.61318,40.56143 m 4.3832,-40.73935 2.34339,41.61158 m 2.64117,-41.99768 4.25043,42.9606 m 0.7128,-43.56124 6.31249,44.00916 m -1.38086,-44.82967 8.46766,44.64688 m -3.57839,-45.6905 10.69428,45.00604 m -5.8585,-46.27458 12.97887,45.14966 m -8.20801,-46.64385 15.30669,45.09624 m -10.61238,-46.81581 17.6568,44.83919 m -13.05076,-46.78285 20.00074,44.36159 m -15.49469,-46.52694 22.30374,43.64666 m -17.90916,-46.03013 24.5274,42.68469 m -20.25539,-45.28147 26.63334,41.47687 m -22.49443,-44.28091 28.58701,40.03664 m -24.59096,-43.04077 30.36117,38.38914 m -26.51683,-41.58513 31.93834,36.56864 m -28.2536,-39.9474 33.31163,34.61478 m -29.79334,-38.16657 34.48306,32.56766 m -31.13709,-36.28226 35.45854,30.46199 m -32.28976,-34.32889 36.23849,28.3212 m -33.25081,-32.32968 36.80317,26.15171 m -33.99938,-30.29092 37.09163,23.93869 m -34.47312,-28.19755 36.97374,21.64385 m -34.53981,-26.01089 36.35461,19.28011 m -34.10297,-23.74391 36.27158,17.3823 m -34.20111,-21.93297 35.70805,15.40585 M 462.099,273.1791 l 34.81779,13.47202 m -33.09969,-18.16715 33.70393,11.64567 m -32.15427,-16.3991 32.42949,9.95673 m -31.04192,-14.76002 31.02864,8.41571 m -29.79616,-13.26113 29.51733,7.02361 m -28.43239,-11.9042 27.90201,5.77765 m -26.95653,-10.68719 26.18601,4.67403 m -25.37142,-9.607 24.37369,3.7087 m -23.68092,-8.6603 22.4724,2.87727 m -21.89195,-7.84332 20.49291,2.17436 m -20.0149,-7.15133 18.44871,1.59315 m -18.06293,-6.57814 16.35453,1.12507 m -16.0505,-6.11571 14.22466,0.7598 m -13.99174,-5.75428 12.07129,0.48553 m -11.89872,-5.48247 9.90313,0.2893 m -9.78007,-5.28774 7.72456,0.15751 m -7.64012,-5.15677 5.5357,0.0762 m -5.47893,-5.07579 3.33359,0.0311 m -3.29348,-5.03086 1.11523,0.008"
         inkscape:connector-curvature="0"
         style="fill:none;stroke:#0000ff;stroke-width:1.02106865;stroke-miterlimit:4;stroke-dasharray:none" />
      <circle
         id="circle3125"
         r="10"
         cy="363"
         cx="178"
         sodipodi:cx="178"
         sodipodi:cy="363"
         sodipodi:rx="10"
         sodipodi:ry="10"
         style="fill:#ff0000;stroke:none"
         d="m 188,363 c 0,5.52285 -4.47715,10 -10,10 -5.52285,0 -10,-4.47715 -10,-10 0,-5.52285 4.47715,-10 10,-10 5.52285,0 10,4.47715 10,10 z"
         transform="matrix(1.0210686,0,0,1.0210686,-3.7502195,-7.6479195)" />
      <circle
         id="circle3127"
         r="10"
         cy="288.5528"
         cx="191.31593"
         sodipodi:cx="191.31593"
         sodipodi:cy="288.5528"
         sodipodi:rx="10"
         sodipodi:ry="10"
         style="fill:#ff0000;stroke:none"
         d="m 201.31593,288.5528 c 0,5.52284 -4.47715,10 -10,10 -5.52284,0 -10,-4.47716 -10,-10 0,-5.52285 4.47716,-10 10,-10 5.52285,0 10,4.47715 10,10 z"
         transform="matrix(1.0210686,0,0,1.0210686,-4.0307682,-6.0794175)" />
      <circle
         id="circle3129"
         r="10"
         cy="182"
         cx="474"
         sodipodi:cx="474"
         sodipodi:cy="182"
         sodipodi:rx="10"
         sodipodi:ry="10"
         style="fill:#ff0000;stroke:none"
         d="m 484,182 c 0,5.52285 -4.47715,10 -10,10 -5.52285,0 -10,-4.47715 -10,-10 0,-5.52285 4.47715,-10 10,-10 5.52285,0 10,4.47715 10,10 z"
         transform="matrix(1.0210686,0,0,1.0210686,-9.9865395,-3.8344941)" />
    </g>
  </g>
</svg>
