<?xml version="1.0" encoding="UTF-8" standalone="no"?>
<!-- Created with Inkscape (http://www.inkscape.org/) -->

<svg
   xmlns:dc="http://purl.org/dc/elements/1.1/"
   xmlns:cc="http://creativecommons.org/ns#"
   xmlns:rdf="http://www.w3.org/1999/02/22-rdf-syntax-ns#"
   xmlns:svg="http://www.w3.org/2000/svg"
   xmlns="http://www.w3.org/2000/svg"
   xmlns:sodipodi="http://sodipodi.sourceforge.net/DTD/sodipodi-0.dtd"
   xmlns:inkscape="http://www.inkscape.org/namespaces/inkscape"
   width="1024"
   height="1024"
   id="svg2"
   version="1.1"
   inkscape:version="0.48.3.1 r9886"
   sodipodi:docname="fairness_mvc.svg">
  <defs
     id="defs4" />
  <sodipodi:namedview
     id="base"
     pagecolor="#ffffff"
     bordercolor="#666666"
     borderopacity="1.0"
     inkscape:pageopacity="0.0"
     inkscape:pageshadow="2"
     inkscape:zoom="1.979899"
     inkscape:cx="409.46178"
     inkscape:cy="860.4317"
     inkscape:document-units="px"
     inkscape:current-layer="layer1"
     showgrid="true"
     inkscape:window-width="1920"
     inkscape:window-height="1028"
     inkscape:window-x="0"
     inkscape:window-y="0"
     inkscape:window-maximized="1"
     inkscape:snap-bbox="true"
     inkscape:object-nodes="false"
     inkscape:snap-object-midpoints="false">
    <inkscape:grid
       type="xygrid"
       id="grid2985"
       empspacing="8"
       visible="true"
       enabled="true"
       snapvisiblegridlinesonly="true"
       spacingx="16px"
       spacingy="16px" />
  </sodipodi:namedview>
  <metadata
     id="metadata7">
    <rdf:RDF>
      <cc:Work
         rdf:about="">
        <dc:format>image/svg+xml</dc:format>
        <dc:type
           rdf:resource="http://purl.org/dc/dcmitype/StillImage" />
        <dc:title />
      </cc:Work>
    </rdf:RDF>
  </metadata>
  <g
     inkscape:label="Layer 1"
     inkscape:groupmode="layer"
     id="layer1"
     transform="translate(0,-28.362183)">
    <g
       id="g3038"
       transform="matrix(0.88433692,0,0,0.88433692,-181.51792,-46.040836)">
      <path
         id="path3024"
         d="m 300,300 c -1.3638,-0.95803 -2.70006,-1.95527 -4.00656,-2.99008 -1.30651,-1.0348 -2.58327,-2.10716 -3.82817,-3.21531 -1.2449,-1.10816 -2.45794,-2.2521 -3.63712,-3.42994 -1.17918,-1.17784 -2.3245,-2.38958 -3.43407,-3.63322 -1.10956,-1.24364 -2.18337,-2.51918 -3.21966,-3.82452 -1.03628,-1.30533 -2.03504,-2.64045 -2.99462,-4.00316 -0.95959,-1.36271 -1.87999,-2.75301 -2.7597,-4.1686 -0.87971,-1.41559 -1.71872,-2.85646 -2.51565,-4.32025 -0.79693,-1.46379 -1.55178,-2.9505 -2.2633,-4.45765 -0.71151,-1.50716 -1.3797,-3.03477 -2.00346,-4.58031 -0.62376,-1.54555 -1.20308,-3.10902 -1.73701,-4.68785 -0.53394,-1.57882 -1.02248,-3.173 -1.46483,-4.77989 -0.44235,-1.6069 -0.8385,-3.22651 -1.1878,-4.85616 -0.3493,-1.62965 -0.65175,-3.26935 -0.90685,-4.91637 -0.2551,-1.64703 -0.46285,-3.30139 -0.62291,-4.96036 -0.16005,-1.65896 -0.27242,-3.32253 -0.3369,-4.98794 -0.0645,-1.66542 -0.0811,-3.3327 -0.0498,-4.99907 0.0313,-1.66637 0.11051,-3.33184 0.2375,-4.99367 0.12698,-1.66182 0.30174,-3.31999 0.52399,-4.97177 0.22224,-1.65178 0.49198,-3.29718 0.80875,-4.93346 0.31677,-1.63629 0.68059,-3.26347 1.09085,-4.87885 0.41025,-1.61539 0.86695,-3.21898 1.36933,-4.80812 0.50239,-1.58915 1.05046,-3.16385 1.64331,-4.72151 0.59285,-1.55766 1.23048,-3.09828 1.91184,-4.61931 0.68136,-1.52103 1.40645,-3.02247 2.17407,-4.50184 0.76761,-1.47937 1.57776,-2.93667 2.4291,-4.3695 0.85134,-1.43283 1.74388,-2.84118 2.67613,-4.22273 0.93225,-1.38156 1.90422,-2.73631 2.9143,-4.06202 1.01008,-1.32571 2.05828,-2.62238 3.14285,-3.88788 1.08458,-1.26549 2.20554,-2.4998 3.36102,-3.70089 1.15549,-1.2011 2.34551,-2.36897 3.56809,-3.5017 1.22258,-1.13273 2.47773,-2.2303 3.76337,-3.29092 1.28564,-1.06062 2.60177,-2.08428 3.94622,-3.06928 1.34445,-0.98501 2.71721,-1.93136 4.11603,-2.8375 1.39882,-0.90614 2.82368,-1.77207 4.27225,-2.59635 1.44856,-0.82428 2.92083,-1.60691 4.41435,-2.34661 1.49353,-0.7397 3.00832,-1.43646 4.54188,-2.08913 1.53356,-0.65268 3.08588,-1.26126 4.6544,-1.82475 1.56852,-0.5635 3.15323,-1.08189 4.75154,-1.55434 1.5983,-0.47245 3.21018,-0.89895 4.83299,-1.2788 1.6228,-0.37984 3.25653,-0.71303 4.89847,-0.99902 1.64195,-0.28599 3.29212,-0.52477 4.94778,-0.71596 1.65567,-0.19118 3.31683,-0.33477 4.98074,-0.43052 1.66392,-0.0958 3.33058,-0.14367 4.99725,-0.14367 1.66667,0 3.33333,0.0479 4.99725,0.14367 1.66391,0.0958 3.32507,0.23934 4.98074,0.43052 1.65566,0.19119 3.30583,0.42997 4.94778,0.71596 1.64194,0.28599 3.27567,0.61918 4.89847,0.99902 1.62281,0.37985 3.23469,0.80635 4.83299,1.2788 1.59831,0.47245 3.18302,0.99084 4.75154,1.55434 1.56852,0.56349 3.12084,1.17207 4.6544,1.82475 1.53356,0.65267 3.04835,1.34943 4.54188,2.08913 1.49352,0.7397 2.96579,1.52233 4.41435,2.34661 1.44857,0.82428 2.87343,1.69021 4.27225,2.59635 1.39882,0.90614 2.77158,1.85249 4.11603,2.8375 1.34445,0.985 2.66058,2.00866 3.94622,3.06928 1.28564,1.06062 2.54078,2.15819 3.76337,3.29092 1.22258,1.13273 2.4126,2.3006 3.56809,3.5017 1.15548,1.20109 2.27644,2.4354 3.36102,3.70089 1.08457,1.2655 2.13277,2.56217 3.14285,3.88788 1.01008,1.32571 1.98205,2.68046 2.9143,4.06202 0.93225,1.38155 1.82479,2.7899 2.67613,4.22273 0.85134,1.43283 1.66149,2.89013 2.4291,4.3695 0.76762,1.47937 1.49271,2.98081 2.17407,4.50184 0.68136,1.52103 1.31899,3.06165 1.91184,4.61931 0.59285,1.55766 1.14092,3.13236 1.64331,4.72151 0.50238,1.58914 0.95908,3.19273 1.36933,4.80812 0.41026,1.61538 0.77408,3.24256 1.09085,4.87885 0.31677,1.63628 0.58651,3.28168 0.80875,4.93346 0.22225,1.65178 0.39701,3.30995 0.52399,4.97177 0.12699,1.66183 0.20619,3.3273 0.2375,4.99367 0.0313,1.66637 0.0147,3.33365 -0.0498,4.99907 -0.0645,1.66541 -0.17685,3.32898 -0.3369,4.98794 -0.16006,1.65897 -0.36781,3.31333 -0.62291,4.96036 -0.2551,1.64702 -0.55755,3.28672 -0.90685,4.91637 -0.3493,1.62965 -0.74545,3.24926 -1.1878,4.85616 -0.44235,1.60689 -0.93089,3.20107 -1.46483,4.77989 -0.53393,1.57883 -1.11325,3.1423 -1.73701,4.68785 -0.62376,1.54554 -1.29195,3.07315 -2.00346,4.58031 -0.71152,1.50715 -1.46637,2.99386 -2.2633,4.45765 -0.79693,1.46379 -1.63594,2.90466 -2.51565,4.32025 -0.87971,1.41559 -1.80011,2.80589 -2.7597,4.1686 -0.95958,1.36271 -1.95834,2.69783 -2.99462,4.00316 -1.03629,1.30534 -2.1101,2.58088 -3.21966,3.82452 -1.10957,1.24364 -2.25489,2.45538 -3.43407,3.63322 -1.17918,1.17784 -2.39222,2.32178 -3.63712,3.42994 -1.2449,1.10815 -2.52166,2.18051 -3.82817,3.21531 C 402.70006,298.04473 401.3638,299.04197 400,300"
         inkscape:connector-curvature="0"
         style="fill:none;stroke:#000000;stroke-width:2.26107144;stroke-miterlimit:4;stroke-dasharray:none" />
      <path
         id="path3026"
         d="m 297.97523,298.53375 -34.37985,46.06742 m 30.46087,-49.1714 -36.96966,44.0162 m 33.23547,-47.3402 -39.43734,41.81958 m 35.90029,-45.35261 -41.77476,39.48481 m 38.44652,-43.21522 -43.97418,37.01962 M 280.34834,280.92687 234.32,315.35902 m 43.14999,-38.51972 -47.93046,31.73094 m 45.2917,-35.97712 -49.67425,28.92491 m 47.28379,-33.31567 -51.25395,26.02333 m 49.11969,-30.54418 -52.66435,23.03579 m 50.79334,-27.67178 -53.90078,19.97216 m 52.2992,-24.70799 -54.95917,16.84255 m 53.63231,-21.66257 -55.83601,13.65732 m 54.78825,-18.5456 -56.5284,10.42696 m 55.7632,-15.36736 -57.03406,7.16215 m 56.55396,-12.13836 -57.35134,3.8737 m 57.15792,-8.86927 -57.47916,0.57245 m 57.57305,-5.57088 -57.41711,-2.73069 m 57.79801,-2.25409 -57.1654,-6.02482 m 57.83204,1.07016 -56.72485,-9.29904 m 57.67505,4.39086 -56.09694,-12.54255 m 57.32754,7.69706 -55.28371,-15.74462 m 56.79065,10.97783 -54.28787,-18.89468 m 56.06618,14.22235 -53.1127,-21.98234 m 55.15649,17.41988 -51.76208,-24.99737 m 54.06462,20.55987 -50.24048,-27.92984 m 52.79415,23.63194 -48.55292,-30.77003 m 51.34929,26.62595 -46.70498,-33.5086 m 49.73481,29.53201 -44.70276,-36.13647 m 47.95604,32.34051 -42.55287,-38.64497 m 46.01886,35.04219 -40.26243,-41.02583 m 43.92967,37.62812 -37.83898,-43.27116 m 41.69537,40.08974 -35.29054,-45.37355 m 39.32333,42.41894 -32.62553,-47.32606 m 36.8214,44.60802 -29.85274,-49.12225 m 34.19783,46.64975 -26.98134,-50.75617 m 31.46131,48.53738 -24.02082,-52.222429 m 28.62085,50.264679 -20.98094,-53.516181 m 25.68586,51.825931 -17.87177,-54.633147 m 22.66601,53.215997 -14.70356,-55.569655 m 19.57131,54.430275 -11.48678,-56.322599 m 16.41194,55.464759 -8.23205,-56.889499 m 13.19836,56.316019 -4.95013,-57.268469 m 9.94118,56.981259 -1.65186,-57.458271 m 6.65118,57.458271 1.65186,-57.458271 m 3.33919,57.745481 4.95013,-57.268469 m 0.0162,57.841949 8.23205,-56.889499 m -3.30689,57.747339 11.48678,-56.322599 m -6.61903,57.461979 14.70356,-55.569655 m -9.90932,56.986805 17.87177,-54.633147 M 381.74908,147.84046 402.73003,94.324279 M 386.34912,149.79821 410.36994,97.575781 M 390.82909,152.017 417.81043,101.26083 m -22.63625,53.22867 29.85274,-49.12225 m -25.65687,51.84029 32.62553,-47.32606 m -28.59274,50.28067 35.29054,-45.37355 m -31.43415,48.55497 37.83898,-43.27116 m -34.17174,46.66887 40.26243,-41.02583 m -36.79644,44.62861 42.55287,-38.64497 m -39.29959,42.44093 44.70276,-36.13647 m -41.67293,40.11306 46.70498,-33.5086 m -43.90861,37.65268 48.55292,-30.77003 m -45.99925,35.06793 50.24048,-27.92984 m -47.93794,32.36734 51.76207,-24.99737 m -49.71828,29.55983 53.1127,-21.98234 m -51.33439,26.65467 54.28787,-18.89468 m -52.78093,23.66147 55.28371,-15.74462 m -54.05311,20.59011 56.09694,-12.54255 m -55.14674,17.45073 56.72485,-9.29904 m -56.05821,14.2537 57.1654,-6.02482 m -56.7845,11.0096 57.41711,-2.73069 m -57.32322,7.72912 57.47916,0.57245 m -57.67258,4.42312 57.35134,3.8737 m -57.83144,1.10251 57.03406,7.16215 m -57.79926,-2.22175 56.5284,10.42696 m -57.57616,-5.53868 55.83601,13.65732 m -57.16287,-8.8373 54.95917,16.84255 m -56.56075,-12.10672 53.90078,19.97216 m -55.77179,-15.33617 52.66435,23.03579 m -54.79861,-18.51494 51.25395,26.02333 m -53.64441,-21.63257 49.67425,28.92491 m -52.31301,-24.67873 47.93046,31.73094 M 419.65166,280.92687 465.68,315.35902 m -49.13677,-30.51669 43.97418,37.01962 m -47.30242,-33.28921 41.77476,39.48481 m -45.31181,-35.95178 39.43734,41.81958 m -43.17153,-38.49558 36.96966,44.0162 m -40.88864,-40.91222 34.37985,46.06742"
         inkscape:connector-curvature="0"
         style="fill:none;stroke:#0000ff;stroke-width:0.56526786;stroke-miterlimit:4;stroke-dasharray:none" />
      <circle
         id="circle3028"
         r="10"
         cy="300"
         cx="300"
         sodipodi:cx="300"
         sodipodi:cy="300"
         sodipodi:rx="10"
         sodipodi:ry="10"
         style="fill:#ff0000;stroke:none"
         d="m 310,300 c 0,5.52285 -4.47715,10 -10,10 -5.52285,0 -10,-4.47715 -10,-10 0,-5.52285 4.47715,-10 10,-10 5.52285,0 10,4.47715 10,10 z"
         transform="matrix(0.56539537,0,0,0.56539537,130.38139,130.38139)" />
      <circle
         id="circle3030"
         r="10"
         cy="300"
         cx="400"
         sodipodi:cx="400"
         sodipodi:cy="300"
         sodipodi:rx="10"
         sodipodi:ry="10"
         style="fill:#ff0000;stroke:none"
         d="m 410,300 c 0,5.52285 -4.47715,10 -10,10 -5.52285,0 -10,-4.47715 -10,-10 0,-5.52285 4.47715,-10 10,-10 5.52285,0 10,4.47715 10,10 z"
         transform="matrix(0.56539537,0,0,0.56539537,173.84185,130.38139)" />
    </g>
    <g
       id="g3112"
       transform="matrix(0.38591278,0,0,0.38591278,229.63488,-10.707698)">
      <path
         id="path3096"
         d="m 200,400 c -1.63704,0.31297 -3.26632,0.66651 -4.88586,1.06019 -1.61953,0.39369 -3.2293,0.82751 -4.82734,1.30093 -1.59805,0.47343 -3.18436,0.98646 -4.75698,1.53846 -1.57263,0.55201 -3.13158,1.14299 -4.67492,1.77222 -1.54335,0.62923 -3.07111,1.29671 -4.58139,2.00161 -1.51028,0.70491 -3.00309,1.44725 -4.4766,2.2261 -1.4735,0.77885 -2.92771,1.59422 -4.36082,2.44511 -1.43312,0.85088 -2.84515,1.73728 -4.23436,2.65811 -1.38921,0.92082 -2.75559,1.87607 -4.09749,2.86457 -1.34189,0.9885 -2.65929,2.01025 -3.95059,3.06399 -1.29129,1.05374 -2.55647,2.13947 -3.79399,3.25587 -1.23753,1.11639 -2.4474,2.26344 -3.62813,3.43974 -1.18073,1.17629 -2.33232,2.38183 -3.45337,3.61514 -1.12104,1.2333 -2.21155,2.49437 -3.27018,3.78164 -1.05863,1.28728 -2.08539,2.60077 -3.07902,3.93885 -0.99363,1.33808 -1.95415,2.70076 -2.88037,4.08635 -0.92622,1.3856 -1.81815,2.79411 -2.67472,4.22381 -0.85657,1.4297 -1.67777,2.88058 -2.46262,4.35087 -0.78484,1.47029 -1.53333,2.95998 -2.24457,4.46725 -0.71124,1.50727 -1.38523,3.03211 -2.02116,4.57266 -0.63594,1.54055 -1.23382,3.0968 -1.79295,4.66685 -0.55913,1.57005 -1.0795,3.1539 -1.56051,4.74962 -0.48101,1.59571 -0.92266,3.20329 -1.32444,4.82076 -0.40179,1.61748 -0.76371,3.24485 -1.08536,4.88014 -0.32165,1.6353 -0.60304,3.27851 -0.84386,4.92764 -0.24082,1.64913 -0.44107,3.30418 -0.60055,4.96315 -0.15949,1.65897 -0.27822,3.32186 -0.35609,4.98665 -0.0779,1.6648 -0.11488,3.3315 -0.11104,4.99811 0.004,1.66661 0.0485,3.33312 0.13392,4.99754 0.0854,1.66442 0.21154,3.32674 0.3782,4.985 0.16665,1.65825 0.37382,3.31243 0.62119,4.96057 0.24737,1.64815 0.53493,3.29025 0.86227,4.92439 0.32735,1.63414 0.69447,3.2603 1.10086,4.87659 0.40638,1.61629 0.85203,3.22271 1.33634,4.81738 0.4843,1.59467 1.00726,3.1776 1.56817,4.74697 0.5609,1.56936 1.15976,3.12516 1.79576,4.66561 0.63601,1.54046 1.30917,3.06557 2.01861,4.57361 0.70943,1.50804 1.45514,2.99902 2.23615,4.47126 0.78101,1.47224 1.59733,2.92575 2.44791,4.35892 0.85058,1.43317 1.73542,2.846 2.6534,4.23696 0.91798,1.39095 1.8691,2.76004 2.85216,4.10577 0.98307,1.34574 1.99808,2.66814 3.04379,3.9658 1.0457,1.29767 2.12209,2.5706 3.22785,3.81748 1.10576,1.24688 2.24089,2.46771 3.40401,3.66126 1.16312,1.19354 2.35424,2.35981 3.57191,3.49764 1.21768,1.13784 2.46192,2.24724 3.73126,3.32715 1.26934,1.0799 2.56376,2.13031 3.88177,3.15025 1.31801,1.01993 2.6596,2.00939 4.02322,2.96749 1.36362,0.9581 2.74928,1.88484 4.15539,2.77941 1.40612,0.89458 2.83268,1.75699 4.27811,2.58653 1.44543,0.82954 2.90971,1.62621 4.39123,2.3894 1.48153,0.76319 2.98029,1.4929 4.49467,2.1886 1.51438,0.6957 3.04438,1.3574 4.58836,1.98467 1.54399,0.62726 3.10195,1.22009 4.67227,1.77815 1.57033,0.55806 3.153,1.08135 4.74641,1.56962 1.5934,0.48827 3.19754,0.94152 4.81079,1.35959 1.61325,0.41807 3.23561,0.80095 4.8655,1.14859 1.62988,0.34763 3.26728,0.66001 4.91063,0.93714 1.64334,0.27714 3.29263,0.51902 4.94631,0.72576 1.65367,0.20673 3.31175,0.37831 4.97269,0.51491 1.66095,0.1366 3.32477,0.23821 4.98998,0.30509 1.66521,0.0669 3.33181,0.099 4.99836,0.0967 1.66655,-0.002 3.33305,-0.039 4.99811,-0.10971 1.66505,-0.0707 3.32865,-0.17549 4.98944,-0.31383 1.6608,-0.13834 3.3188,-0.31026 4.97269,-0.51524 1.6539,-0.20498 3.30369,-0.44302 4.94813,-0.71355 1.64445,-0.27053 3.28354,-0.57355 4.9161,-0.90843 1.63255,-0.33488 3.25856,-0.70163 4.87691,-1.09956 1.61834,-0.39793 3.22901,-0.82705 4.83093,-1.28664 1.60193,-0.45958 3.19511,-0.94963 4.77854,-1.46938 1.58343,-0.51976 3.15711,-1.06921 4.72009,-1.64758 1.56298,-0.57836 3.11526,-1.18563 4.65596,-1.82097 1.5407,-0.63535 3.06982,-1.29876 4.58655,-1.9894 1.51673,-0.69064 3.02106,-1.40849 4.51224,-2.15268 1.49119,-0.7442 2.96923,-1.51472 4.43344,-2.31069 1.46421,-0.79596 2.91459,-1.61736 4.35053,-2.46328 1.43593,-0.84593 2.85741,-1.71637 4.26389,-2.61041 1.40649,-0.89404 2.79797,-1.81167 4.17396,-2.75197 1.37599,-0.9403 2.73649,-1.90326 4.08107,-2.88794 1.34459,-0.98468 2.67326,-1.9911 3.98565,-3.0183 1.3124,-1.0272 2.60851,-2.07519 3.88805,-3.14303 1.27954,-1.06785 2.54251,-2.15555 3.78866,-3.26218 1.24614,-1.10663 2.47547,-2.2322 3.68781,-3.37577 1.21234,-1.14358 2.40767,-2.30517 3.58589,-3.48386 1.17822,-1.1787 2.33932,-2.3745 3.48323,-3.58652 1.14391,-1.21203 2.27064,-2.44027 3.38016,-3.68385 1.10952,-1.24358 2.20184,-2.50251 3.277,-3.77593 1.07515,-1.27342 2.13315,-2.56132 3.17406,-3.86288 1.04092,-1.30156 2.06476,-2.61678 3.07166,-3.94484 1.0069,-1.32806 1.99685,-2.66896 2.97005,-4.02192 0.9732,-1.35296 1.92963,-2.71798 2.86953,-4.09428 0.93989,-1.37631 1.86325,-2.76391 2.77034,-4.16206 0.90708,-1.39816 1.79789,-2.80687 2.67272,-4.22543 0.87484,-1.41856 1.7337,-2.84696 2.57693,-4.28453 0.84323,-1.43757 1.67082,-2.88431 2.48315,-4.33957 0.81232,-1.45525 1.60938,-2.91903 2.39157,-4.39069 0.78219,-1.47167 1.54951,-2.95124 2.30239,-4.43812 0.75289,-1.48687 1.49133,-2.98106 2.21579,-4.48199 0.72446,-1.50094 1.43495,-3.00862 2.13194,-4.52251 0.69699,-1.51389 1.38049,-3.03399 2.051,-4.5598 0.67052,-1.52581 1.32806,-3.05732 1.97315,-4.59406 0.64509,-1.53673 1.27774,-3.07869 1.89849,-4.62542 0.62075,-1.54674 1.22962,-3.09824 1.82716,-4.65409 0.59755,-1.55584 1.18378,-3.11604 1.75928,-4.68017 0.5755,-1.56414 1.14027,-3.13222 1.69492,-4.70388 0.55464,-1.57165 1.09917,-3.14687 1.63419,-4.72532 0.53502,-1.57844 1.06053,-3.1601 1.57717,-4.74466 0.51663,-1.58455 1.0244,-3.17199 1.52393,-4.76202 0.49953,-1.59003 0.99082,-3.18264 1.47454,-4.77755 0.48371,-1.59491 0.95985,-3.19212 1.42906,-4.79136 0.46921,-1.59923 0.9315,-3.2005 1.38754,-4.80354 0.45605,-1.60304 0.90584,-3.20786 1.35005,-4.81423 0.44422,-1.60636 0.88286,-3.21426 1.31661,-4.82348 0.43374,-1.60922 0.8626,-3.21976 1.28725,-4.83141 0.42466,-1.61165 0.84511,-3.2244 1.26205,-4.83807 0.41694,-1.61366 0.83037,-3.22823 1.24098,-4.84352 0.41062,-1.61528 0.81842,-3.23129 1.22412,-4.84782 0.40569,-1.61653 0.80927,-3.23359 1.21144,-4.85101 0.40217,-1.61741 0.80293,-3.23518 1.20298,-4.85312 0.40006,-1.61794 0.79941,-3.23606 1.19876,-4.85417 0.39935,-1.61811 0.7987,-3.23623 1.19876,-4.85417 0.40005,-1.61794 0.80081,-3.23571 1.20298,-4.85312 0.40217,-1.61742 0.80575,-3.23448 1.21144,-4.85101 0.4057,-1.61653 0.8135,-3.23254 1.22412,-4.84782 0.41061,-1.61529 0.82404,-3.22986 1.24098,-4.84352 0.41694,-1.61367 0.83739,-3.22642 1.26205,-4.83807 0.42465,-1.61165 0.85351,-3.22219 1.28725,-4.83141 0.43375,-1.60922 0.87239,-3.21712 1.31661,-4.82348 0.44421,-1.60637 0.894,-3.21119 1.35005,-4.81423 0.45604,-1.60304 0.91833,-3.20431 1.38754,-4.80354 0.46921,-1.59924 0.94535,-3.19645 1.42906,-4.79136 0.48372,-1.59491 0.97501,-3.18752 1.47454,-4.77755 0.49953,-1.59003 1.0073,-3.17747 1.52393,-4.76202 0.51664,-1.58456 1.04215,-3.16622 1.57717,-4.74466 0.53502,-1.57845 1.07955,-3.15367 1.63419,-4.72532 0.55465,-1.57166 1.11942,-3.13974 1.69492,-4.70388 0.5755,-1.56413 1.16173,-3.12433 1.75928,-4.68017 0.59754,-1.55585 1.20641,-3.10735 1.82716,-4.65409 0.62075,-1.54673 1.2534,-3.08869 1.89849,-4.62542 0.64509,-1.53674 1.30263,-3.06825 1.97315,-4.59406 0.67051,-1.52581 1.35401,-3.04591 2.051,-4.5598 0.69699,-1.51389 1.40748,-3.02157 2.13194,-4.52251 0.72446,-1.50093 1.4629,-2.99512 2.21579,-4.48199 0.75288,-1.48688 1.5202,-2.96645 2.30239,-4.43812 0.78219,-1.47166 1.57925,-2.93544 2.39157,-4.39069 0.81233,-1.45526 1.63992,-2.902 2.48315,-4.33957 0.84323,-1.43757 1.70209,-2.86597 2.57693,-4.28453 0.87483,-1.41856 1.76564,-2.82727 2.67272,-4.22543 0.90709,-1.39815 1.83045,-2.78575 2.77034,-4.16206 0.9399,-1.3763 1.89633,-2.74132 2.86953,-4.09428 0.9732,-1.35296 1.96315,-2.69386 2.97005,-4.02192 1.0069,-1.32806 2.03074,-2.64328 3.07166,-3.94484 1.04091,-1.30156 2.09891,-2.58946 3.17406,-3.86288 1.07516,-1.27342 2.16748,-2.53235 3.277,-3.77593 1.10952,-1.24358 2.23625,-2.47182 3.38016,-3.68385 1.14391,-1.21202 2.30501,-2.40782 3.48323,-3.58652 1.17822,-1.17869 2.37355,-2.34028 3.58589,-3.48386 1.21234,-1.14357 2.44167,-2.26914 3.68781,-3.37577 1.24615,-1.10663 2.50912,-2.19433 3.78866,-3.26218 1.27954,-1.06784 2.57565,-2.11583 3.88805,-3.14303 1.31239,-1.0272 2.64106,-2.03362 3.98565,-3.0183 1.34458,-0.98468 2.70508,-1.94764 4.08107,-2.88794 1.37599,-0.9403 2.76747,-1.85793 4.17396,-2.75197 1.40648,-0.89404 2.82796,-1.76448 4.26389,-2.61041 1.43594,-0.84592 2.88632,-1.66732 4.35053,-2.46328 1.46421,-0.79597 2.94225,-1.56649 4.43344,-2.31069 1.49118,-0.74419 2.99551,-1.46204 4.51224,-2.15268 1.51673,-0.69064 3.04585,-1.35405 4.58655,-1.9894 1.5407,-0.63534 3.09298,-1.24261 4.65596,-1.82097 1.56298,-0.57837 3.13666,-1.12782 4.72009,-1.64758 1.58343,-0.51975 3.17661,-1.0098 4.77854,-1.46938 1.60192,-0.45959 3.21259,-0.88871 4.83093,-1.28664 1.61835,-0.39793 3.24436,-0.76468 4.87691,-1.09956 1.63256,-0.33488 3.27165,-0.6379 4.9161,-0.90843 1.64444,-0.27053 3.29423,-0.50857 4.94813,-0.71355 1.65389,-0.20498 3.31189,-0.3769 4.97269,-0.51524 1.66079,-0.13834 3.32439,-0.2431 4.98944,-0.31383 1.66506,-0.0707 3.33156,-0.10743 4.99811,-0.10971 1.66655,-0.002 3.33315,0.0299 4.99836,0.0967 1.66521,0.0669 3.32903,0.16849 4.98998,0.30509 1.66094,0.1366 3.31902,0.30818 4.97269,0.51491 1.65368,0.20674 3.30297,0.44862 4.94631,0.72576 1.64335,0.27713 3.28075,0.58951 4.91063,0.93714 1.62989,0.34764 3.25225,0.73052 4.8655,1.14859 1.61325,0.41807 3.21739,0.87132 4.81079,1.35959 1.59341,0.48827 3.17608,1.01156 4.74641,1.56962 1.57032,0.55806 3.12828,1.15089 4.67227,1.77815 1.54398,0.62727 3.07398,1.28897 4.58836,1.98467 1.51438,0.6957 3.01314,1.42541 4.49467,2.1886 1.48152,0.76319 2.9458,1.55986 4.39123,2.3894 1.44543,0.82954 2.87199,1.69195 4.27811,2.58653 1.40611,0.89457 2.79177,1.82131 4.15539,2.77941 1.36362,0.9581 2.70521,1.94756 4.02322,2.96749 1.31801,1.01994 2.61243,2.07035 3.88177,3.15025 1.26934,1.07991 2.51358,2.18931 3.73126,3.32715 1.21767,1.13783 2.40879,2.3041 3.57191,3.49764 1.16312,1.19355 2.29825,2.41438 3.40401,3.66126 1.10576,1.24688 2.18215,2.51981 3.22785,3.81748 1.04571,1.29766 2.06072,2.62006 3.04379,3.9658 0.98306,1.34573 1.93418,2.71482 2.85216,4.10577 0.91798,1.39096 1.80282,2.80379 2.6534,4.23696 0.85058,1.43317 1.6669,2.88668 2.44791,4.35892 0.78101,1.47224 1.52672,2.96322 2.23615,4.47126 0.70944,1.50804 1.3826,3.03315 2.01861,4.57361 0.636,1.54045 1.23486,3.09625 1.79576,4.66561 0.56091,1.56937 1.08387,3.1523 1.56817,4.74697 0.48431,1.59467 0.92996,3.20109 1.33634,4.81738 0.40639,1.61629 0.77351,3.24245 1.10086,4.87659 0.32734,1.63414 0.6149,3.27624 0.86227,4.92439 0.24737,1.64814 0.45454,3.30232 0.62119,4.96057 0.16666,1.65826 0.2928,3.32058 0.3782,4.985 0.0854,1.66442 0.13009,3.33093 0.13392,4.99754 0.004,1.66661 -0.0332,3.33331 -0.11104,4.99811 -0.0779,1.66479 -0.1966,3.32768 -0.35609,4.98665 -0.15948,1.65897 -0.35973,3.31402 -0.60055,4.96315 -0.24082,1.64913 -0.52221,3.29234 -0.84386,4.92764 -0.32165,1.63529 -0.68357,3.26266 -1.08536,4.88014 -0.40178,1.61747 -0.84343,3.22505 -1.32444,4.82076 -0.48101,1.59572 -1.00138,3.17957 -1.56051,4.74962 -0.55913,1.57005 -1.15701,3.1263 -1.79295,4.66685 -0.63593,1.54055 -1.30992,3.06539 -2.02116,4.57266 -0.71124,1.50727 -1.45973,2.99696 -2.24457,4.46725 -0.78485,1.47029 -1.60605,2.92117 -2.46262,4.35087 -0.85657,1.4297 -1.7485,2.83821 -2.67472,4.22381 -0.92622,1.38559 -1.88674,2.74827 -2.88037,4.08635 -0.99363,1.33808 -2.02039,2.65157 -3.07902,3.93885 -1.05863,1.28727 -2.14914,2.54834 -3.27018,3.78164 -1.12105,1.23331 -2.27264,2.43885 -3.45337,3.61514 -1.18073,1.1763 -2.3906,2.32335 -3.62813,3.43974 -1.23752,1.1164 -2.5027,2.20213 -3.79399,3.25587 -1.2913,1.05374 -2.6087,2.07549 -3.95059,3.06399 -1.3419,0.9885 -2.70828,1.94375 -4.09749,2.86457 -1.38921,0.92083 -2.80124,1.80723 -4.23436,2.65811 -1.43311,0.85089 -2.88732,1.66626 -4.36082,2.44511 -1.47351,0.77885 -2.96632,1.52119 -4.4766,2.2261 -1.51028,0.7049 -3.03804,1.37238 -4.58139,2.00161 -1.54334,0.62923 -3.10229,1.22021 -4.67492,1.77222 -1.57262,0.552 -3.15893,1.06503 -4.75698,1.53846 -1.59804,0.47342 -3.20781,0.90724 -4.82734,1.30093 C 603.26632,399.33349 601.63704,399.68703 600,400"
         inkscape:connector-curvature="0"
         style="fill:none;stroke:#000000;stroke-width:5.18251801;stroke-miterlimit:4;stroke-dasharray:none" />
      <path
         id="path3098"
         d="M 197.55051,400.49983 187.0416,352.07005 m 5.65081,49.6107 -12.89496,-47.84932 m 8.10133,49.26945 -15.24941,-47.15171 m 10.53201,48.80756 -17.56641,-46.33835 m 12.93683,48.22585 -19.84016,-45.41102 m 15.30978,47.52552 -22.06497,-44.37184 m 17.6449,46.70816 -24.23521,-43.22326 m 19.9363,45.77565 -26.34537,-41.96804 m 22.17817,44.73023 -28.39006,-40.60923 m 24.36479,43.57442 -30.36404,-39.15017 m 26.49056,42.31108 -32.26222,-37.59449 m 28.55003,40.94332 -34.07967,-35.94607 m 30.53784,39.4746 -35.81163,-34.20909 m 32.44882,37.90862 -37.45354,-32.38796 m 34.27798,36.24939 -39.00107,-30.48735 m 36.02047,34.50119 -40.450068,-28.5122 M 133.68511,445.14424 91.888476,418.67658 M 131.11566,449.4329 88.078525,425.07374 M 128.76136,453.84332 84.593142,431.65101 M 126.62786,458.36466 81.441048,438.39169 M 124.72024,462.98583 78.630089,445.27864 M 123.04302,467.69551 76.167202,452.2943 m 45.432928,20.18786 -47.541743,-13.06143 m 46.336503,17.91336 -48.086212,-10.69442 m 47.121342,15.5998 -48.507897,-8.30686 m 47.785497,13.25376 -48.805858,-5.90555 m 48.327438,10.88195 -48.979586,-3.49735 m 48.745986,8.49124 -49.028936,-1.08919 m 49.040416,6.08851 -48.954222,1.31198 m 49.210412,3.68078 -48.75617,3.69921 m 49.25607,1.27506 -48.435913,6.06559 m 49.177913,-1.12165 -47.995013,8.40424 m 48.976933,-3.50231 -47.435481,10.7084 m 48.654501,-5.86 -46.759703,12.97138 M 123.15886,531.60083 77.188353,546.7875 M 124.84139,536.30848 79.770275,553.65636 M 126.7492,540.9294 82.684046,560.37826 M 128.87727,545.45311 85.920617,566.93676 M 131.22006,549.86942 89.470038,573.316 m 44.301482,-19.14746 -40.450022,25.33223 m 43.203672,-21.15974 -39.061813,27.13553 m 42.010703,-23.09867 -37.59087,28.85176 m 40.72766,-24.95911 -36.04301,30.47659 m 39.35995,-26.73626 -34.42435,32.00615 m 37.91337,-28.42581 -32.74129,33.43705 m 36.39396,-30.02382 -31.00043,34.76639 m 34.80806,-31.52693 -29.20863,35.99189 m 33.16227,-32.93232 -27.37284,37.11186 m 31.46332,-34.23777 -25.49948,38.12423 m 29.71742,-35.4407 -23.59497,39.02701 m 27.93085,-36.53855 -21.66647,39.81961 m 26.11064,-37.53018 -19.72083,40.50144 m 24.26356,-38.41445 -17.76506,41.07258 m 22.3966,-39.19088 -15.80615,41.53375 m 20.51671,-39.85965 -13.85098,41.88619 m 18.63079,-40.42143 -11.90626,42.13164 m 16.74561,-40.87746 -9.97848,42.27226 m 14.86773,-41.22937 -8.07389,42.3106 m 13.00354,-41.47919 -6.19846,42.24953 m 11.15911,-41.62929 -4.35787,42.09223 m 9.34033,-41.68239 -2.55752,41.84218 m 7.55279,-41.64148 -0.80249,41.50309 m 5.80179,-41.50985 0.90244,41.07896 m 4.09236,-41.29104 2.55282,40.57397 m 2.42925,-40.98887 4.14451,39.9926 m 0.81685,-40.6074 5.67378,39.33945 m -0.74075,-40.15089 7.13718,38.61938 m -2.23981,-39.62387 8.53172,37.83737 m -3.67697,-39.03099 9.85474,36.99853 m -5.04922,-38.37709 11.10399,36.10807 m -6.35394,-37.66714 12.27762,35.17132 m -7.58892,-36.90621 13.3742,34.19355 m -8.7523,-36.09937 14.39265,33.18007 m -9.84267,-35.25176 15.3323,32.13612 m -10.85892,-34.36847 16.19283,31.06687 m -11.80036,-33.45454 16.97428,29.97734 m -12.66663,-32.51487 17.67699,28.8724 m -13.45767,-31.55429 18.30159,27.75676 m -14.17374,-30.57741 18.84901,26.63489 m -14.81535,-29.58871 19.32037,25.51107 m -15.38327,-28.59244 19.71702,24.38935 m -15.87847,-27.59266 20.04052,23.27351 m -16.30213,-26.59317 20.29256,22.1671 m -16.65559,-25.5976 20.47499,21.07346 m -16.94036,-24.60933 20.5898,19.99566 m -17.15807,-23.6315 20.63907,18.93653 m -17.3105,-22.66707 20.62506,17.89873 m -17.39958,-21.71877 20.55009,16.88463 m -17.42731,-20.78911 20.41662,15.89645 m -17.39589,-19.88043 20.22726,14.93618 m -17.30762,-18.99486 19.98473,14.00562 m -17.16498,-18.13435 19.69192,13.10639 m -16.9706,-17.30067 19.35191,12.2399 m -16.72732,-16.49541 18.96794,11.40742 m -16.43817,-15.71996 18.54349,10.60998 m -16.10642,-14.97559 18.08229,9.8485 m -15.73561,-14.26336 17.58754,9.1233 m -15.32879,-13.58378 17.05504,8.43088 m -14.88153,-12.93355 16.48692,7.77136 m -14.39582,-12.3129 15.88693,7.14531 m -13.87525,-11.72261 15.2584,6.55286 m -13.32299,-11.16295 14.60425,5.99368 m -12.74184,-10.63377 13.92703,5.46712 m -12.13425,-10.13456 13.22902,4.97225 m -11.50237,-9.66456 12.51219,4.50795 m -10.8481,-9.22282 11.77831,4.07291 m -10.1731,-8.80816 11.02896,3.6657 m -9.47888,-8.41928 10.26556,3.28476 m -8.76681,-8.05477 9.48942,2.92845 m -8.03811,-7.71311 8.70175,2.59504 m -7.29395,-7.39268 7.9037,2.28275 m -6.53541,-7.09182 7.09634,1.98974 m -5.76352,-6.80877 6.28071,1.71413 m -4.97929,-6.54174 5.45783,1.45396 m -4.1837,-6.28885 4.62871,1.20725 m -3.37772,-6.04819 3.7943,0.97202 m -2.56227,-5.81783 2.95558,0.74619 m -1.73833,-5.59574 2.11352,0.52772 m -0.90684,-5.37992 1.26907,0.31452 m -0.0687,-5.1683 0.42318,0.10449 m 0.77504,-4.95879 -0.42318,-0.10449 m 1.62353,-4.74929 -1.26907,-0.31452 m 2.47575,-4.53768 -2.11352,-0.52772 m 3.33077,-4.32183 -2.95558,-0.74619 m 4.18761,-4.09962 -3.7943,-0.97202 m 5.04529,-3.86892 -4.62871,-1.20725 m 5.90284,-3.62764 -5.45783,-1.45396 m 6.75925,-3.37365 -6.28071,-1.71413 m 7.61353,-3.1049 -7.09634,-1.98974 m 8.46463,-2.81933 -7.9037,-2.28275 m 9.3115,-2.51489 -8.70175,-2.59504 m 10.15306,-2.18962 -9.48942,-2.92845 m 10.98817,-1.84156 -10.26556,-3.28476 m 11.81564,-1.46882 -11.02896,-3.6657 m 12.63417,-1.06955 -11.77831,-4.07291 m 13.4424,-0.64196 -12.51219,-4.50795 m 14.23884,-0.18436 -13.22902,-4.97225 m 15.0218,0.30481 -13.92703,-5.46712 m 15.78944,0.82703 -14.60425,-5.99368 m 16.53966,1.38359 -15.2584,-6.55286 m 17.27008,1.97556 -15.88693,-7.14531 m 17.97803,2.60377 -16.48692,-7.77136 m 18.66043,3.26869 -17.05504,-8.43088 m 19.31379,3.9704 -17.58754,-9.1233 m 19.93422,4.70844 -18.08229,-9.8485 m 20.51936,5.48289 -18.54349,-10.60998 m 21.07326,6.29744 -18.96794,-11.40742 m 21.59253,7.15191 -19.35191,-12.2399 m 22.07323,8.04562 -19.69192,-13.10639 m 22.51167,8.97766 -19.98473,-14.00562 m 22.90437,9.94694 -20.22726,-14.93618 m 23.24799,10.9522 -20.41662,-15.89645 m 23.5394,11.99197 -20.55009,-16.88463 m 23.77557,13.06459 -20.62506,-17.89873 m 23.95363,14.16819 -20.63907,-18.93653 m 24.0708,15.30069 -20.5898,-19.99566 m 24.12443,16.45979 -20.47499,-21.07346 m 24.11196,17.64296 -20.29256,-22.1671 m 24.03095,18.84744 -20.04052,-23.27351 m 23.87907,20.0702 -19.71702,-24.38935 m 23.65412,21.30798 -19.32037,-25.51107 m 23.35403,22.55725 -18.84901,-26.63489 m 22.97686,23.81424 -18.30159,-27.75676 m 22.52091,25.07487 -17.67699,-28.8724 m 21.98464,26.33487 -16.97428,-29.97734 m 21.36675,27.58967 -16.19283,-31.06687 m 20.66621,28.83452 -15.3323,-32.13612 m 19.88228,30.06443 -14.39265,-33.18007 m 19.01455,31.27425 -13.3742,-34.19355 m 18.0629,32.45866 -12.27762,-35.17132 m 17.02767,33.61225 -11.10399,-36.10807 m 15.90951,34.72951 -9.85474,-36.99853 m 14.70949,35.80491 -8.53172,-37.83737 m 13.42909,36.83288 -7.13718,-38.61938 m 12.07021,37.80794 -5.67378,-39.33945 m 10.63514,38.72465 -4.14451,-39.9926 m 9.12658,39.5777 -2.55282,-40.57397 m 7.54762,40.36189 -0.90244,-41.07896 m 5.90174,41.0722 0.80249,-41.50309 m 4.19278,41.70379 2.55752,-41.84218 m 2.42494,42.25202 4.35787,-42.09223 m 0.60278,42.71247 6.19846,-42.24953 m -1.26881,43.08094 8.07389,-42.3106 m -3.18464,43.35349 9.97848,-42.27226 m -5.13913,43.52644 11.90626,-42.13164 m -7.12645,43.5964 13.85098,-41.88619 m -9.14042,43.56029 15.80615,-41.53375 m -11.17461,43.41545 17.76506,-41.07258 m -13.22233,43.15957 19.72083,-40.50144 m -15.27666,42.79087 21.66647,-39.81961 m -17.33059,42.30807 23.59497,-39.02701 m -19.37703,41.71054 25.49948,-38.12423 m -21.409,40.99832 27.37284,-37.11186 m -23.4192,40.17143 29.20863,-35.99189 m -25.401,39.23135 31.00043,-34.76639 m -27.34776,38.17962 32.74129,-33.43705 m -29.25227,37.01739 34.42435,-32.00615 m -31.10741,35.74648 36.04301,-30.47659 m -32.90622,34.36924 37.59087,-28.85176 m -34.64198,32.88862 39.06181,-27.13553 m -36.30816,31.30802 40.45002,-25.33223 m -37.89856,29.63135 41.75002,-23.44658 m -39.40723,27.86289 42.95665,-21.48365 m -40.82858,26.00736 44.06515,-19.44886 m -42.15734,24.06978 45.07111,-17.34788 m -43.38858,22.05553 45.97051,-15.18667 m -44.51776,19.97022 46.7597,-12.97138 m -45.54068,17.81978 47.43548,-10.7084 m -46.45356,15.61033 47.99501,-8.40424 m -47.25301,13.34818 48.43591,-6.06559 m -47.93601,11.03986 48.75617,-3.69921 m -48.49998,8.69197 48.95422,-1.31198 m -48.94274,6.3113 49.02894,1.08919 m -49.26254,3.9047 48.97959,3.49735 m -49.45801,1.47905 48.80586,5.90555 m -49.52826,-0.95865 48.5079,8.30686 m -49.47277,-3.40148 48.08621,10.69442 m -49.29145,-5.84249 47.54174,13.06143 m -48.98463,-8.27478 46.87582,15.40121 m -48.55304,-10.69153 46.09015,17.70719 m -47.99777,-13.08602 45.18681,19.97297 m -47.32031,-15.45163 44.16822,22.19231 m -46.52252,-17.78189 43.03714,24.35916 m -45.60659,-20.0705 41.79663,26.46766 m -44.57502,-22.31131 40.45007,28.5122 m -43.43067,-24.49836 39.00107,30.48735 m -42.17663,-26.62592 37.45354,32.38796 m -40.81635,-28.68843 35.81163,34.20909 m -39.35346,-30.68056 34.07967,35.94607 m -37.79186,-32.59724 32.26222,37.59449 m -36.1357,-34.43358 30.36404,39.15017 m -34.38931,-36.18498 28.39006,40.60923 m -32.55726,-37.84704 26.34537,41.96804 m -30.64428,-39.41565 24.23521,43.22326 m -28.65528,-40.88694 22.06497,44.37184 m -26.59535,-42.25734 19.84016,45.41102 m -24.46974,-43.52352 17.56641,46.33835 m -22.28381,-44.6825 15.24941,47.15171 m -20.04304,-45.73158 12.89496,47.84932 m -17.75306,-46.6684 10.50891,48.42978"
         inkscape:connector-curvature="0"
         style="fill:none;stroke:#0000ff;stroke-width:1.29562652;stroke-miterlimit:4;stroke-dasharray:none" />
      <circle
         id="circle3100"
         r="10"
         cy="400"
         cx="200"
         sodipodi:cx="200"
         sodipodi:cy="400"
         sodipodi:rx="10"
         sodipodi:ry="10"
         style="fill:#ff0000;stroke:none"
         d="m 210,400 c 0,5.52285 -4.47715,10 -10,10 -5.52285,0 -10,-4.47715 -10,-10 0,-5.52285 4.47715,-10 10,-10 5.52285,0 10,4.47715 10,10 z"
         transform="matrix(1.2956265,0,0,1.2956265,-59.125291,-118.25059)" />
      <circle
         id="circle3102"
         r="10"
         cy="400"
         cx="400"
         sodipodi:cx="400"
         sodipodi:cy="400"
         sodipodi:rx="10"
         sodipodi:ry="10"
         style="fill:#ff0000;stroke:none"
         d="m 410,400 c 0,5.52285 -4.47715,10 -10,10 -5.52285,0 -10,-4.47715 -10,-10 0,-5.52285 4.47715,-10 10,-10 5.52285,0 10,4.47715 10,10 z"
         transform="matrix(1.2956265,0,0,1.2956265,-118.25059,-118.25059)" />
      <circle
         id="circle3104"
         r="10"
         cy="400"
         cx="600"
         sodipodi:cx="600"
         sodipodi:cy="400"
         sodipodi:rx="10"
         sodipodi:ry="10"
         style="fill:#ff0000;stroke:none"
         d="m 610,400 c 0,5.52285 -4.47715,10 -10,10 -5.52285,0 -10,-4.47715 -10,-10 0,-5.52285 4.47715,-10 10,-10 5.52285,0 10,4.47715 10,10 z"
         transform="matrix(1.2956265,0,0,1.2956265,-177.37587,-118.25059)" />
    </g>
    <g
       id="g3018"
       transform="matrix(0.76324753,0,0,0.76324753,295.46625,-116.36785)">
      <path
         id="path3002"
         d="m 250,400 c 0.82649,-1.4473 1.66062,-2.89025 2.50236,-4.32875 0.84174,-1.43849 1.69109,-2.87254 2.54805,-4.30203 0.85696,-1.42948 1.72153,-2.8544 2.59375,-4.27462 0.87223,-1.42022 1.7521,-2.83574 2.63969,-4.24641 0.8876,-1.41067 1.78291,-2.81648 2.68604,-4.21725 0.90312,-1.40077 1.81407,-2.7965 2.73295,-4.18699 0.91888,-1.39048 1.84571,-2.77572 2.78062,-4.15548 0.93492,-1.37976 1.87793,-2.75403 2.8292,-4.12256 0.95128,-1.36854 1.91082,-2.73132 2.87882,-4.08807 0.96801,-1.35675 1.94448,-2.70746 2.92963,-4.05181 0.98515,-1.34435 1.97898,-2.68234 2.98173,-4.01362 1.00275,-1.33127 2.01442,-2.65583 3.03525,-3.97329 1.02083,-1.31746 2.05083,-2.62782 3.09026,-3.93066 1.03943,-1.30284 2.08829,-2.59815 3.14684,-3.8855 1.05856,-1.28734 2.12682,-2.56671 3.20506,-3.83761 1.07825,-1.27091 2.16647,-2.53334 3.26496,-3.78679 1.09848,-1.25344 2.20724,-2.4979 3.32654,-3.73279 1.11931,-1.23489 2.24917,-2.46022 3.38986,-3.67538 1.1407,-1.21516 2.29223,-2.42015 3.45487,-3.61433 1.16265,-1.19417 2.33641,-2.37753 3.52155,-3.54938 1.18514,-1.17185 2.38166,-2.3322 3.58981,-3.48032 1.20815,-1.14812 2.42793,-2.284 3.65958,-3.40688 1.23164,-1.12287 2.47515,-2.23274 3.73074,-3.32878 1.25559,-1.09604 2.52326,-2.17825 3.80318,-3.24576 1.27993,-1.06752 2.57211,-2.12034 3.8767,-3.15757 1.30459,-1.03723 2.62159,-2.05886 3.9511,-3.06395 1.32951,-1.00508 2.67153,-1.99362 4.02614,-2.96463 1.3546,-0.971 2.72178,-1.92447 4.10155,-2.85936 1.37977,-0.9349 2.77213,-1.85122 4.17704,-2.7479 1.40491,-0.89667 2.82237,-1.7737 4.25227,-2.62996 1.4299,-0.85626 2.87224,-1.69176 4.32685,-2.50534 1.4546,-0.81359 2.92148,-1.60525 4.40036,-2.37381 1.47889,-0.76857 2.96979,-1.51403 4.47236,-2.23518 1.50258,-0.72115 3.01683,-1.41798 4.54234,-2.08927 1.52551,-0.67128 3.06227,-1.31701 4.60976,-1.93594 1.54749,-0.61892 3.10571,-1.21103 4.67404,-1.77507 1.56832,-0.56404 3.14676,-1.09999 4.73458,-1.60658 1.58781,-0.5066 3.185,-0.98383 4.79072,-1.43042 1.60572,-0.44659 3.21998,-0.86253 4.8418,-1.24656 1.62183,-0.38403 3.25122,-0.73613 4.88708,-1.05507 1.63587,-0.31894 3.27821,-0.60471 4.92581,-0.85609 1.64761,-0.25138 3.30046,-0.46838 4.95723,-0.6498 1.65677,-0.18141 3.31744,-0.32725 4.98053,-0.43638 1.66309,-0.10913 3.3286,-0.18153 4.99491,-0.21616 1.6663,-0.0346 3.3334,-0.0315 4.99954,0.0105 1.66614,0.0419 3.33131,0.12268 4.99362,0.24309 1.66231,0.12041 3.32175,0.2805 4.97631,0.48107 1.65455,0.20057 3.30421,0.44162 4.94681,0.72382 1.6426,0.2822 3.27814,0.60555 4.90433,0.9706 1.6262,0.36505 3.24304,0.7718 4.84813,1.22063 1.60509,0.44883 3.19842,0.93975 4.77748,1.47298 1.57906,0.53323 3.14384,1.10878 4.69173,1.72667 1.54789,0.6179 3.07888,1.27815 4.59028,1.9806 1.51139,0.70245 3.00319,1.44711 4.4726,2.23359 1.46942,0.78649 2.91646,1.61482 4.33829,2.48439 1.42183,0.86957 2.81845,1.78039 4.18698,2.73163 1.36854,0.95125 2.70898,1.94292 4.01845,2.97396 1.30947,1.03103 2.58796,2.10143 3.83258,3.20988 1.24462,1.10845 2.45537,2.25494 3.62939,3.43792 1.17401,1.18297 2.3113,2.40242 3.40903,3.6565 1.09773,1.25408 2.15592,2.5428 3.17182,3.86404 1.01591,1.32124 1.98953,2.675 2.91823,4.05893 0.92869,1.38392 1.81247,2.79801 2.64882,4.23962 0.83634,1.44162 1.62525,2.91076 2.36438,4.40455 0.73913,1.4938 1.42847,3.01224 2.06586,4.55219 0.63738,1.53996 1.22281,3.10143 1.75433,4.68106 0.53151,1.57962 1.00911,3.1774 1.43107,4.78975 0.42195,1.61236 0.78827,3.23928 1.09748,4.877 0.3092,1.63771 0.5613,3.28622 0.7551,4.94156 0.19381,1.65535 0.32932,3.31752 0.40565,4.98242 0.0763,1.6649 0.0935,3.33252 0.0509,4.99863 -0.0426,1.6661 -0.14491,3.33069 -0.30721,4.98941 -0.16229,1.65873 -0.38454,3.3116 -0.66663,4.9542 -0.28209,1.64261 -0.62402,3.27494 -1.02529,4.89257 -0.40127,1.61762 -0.86188,3.22053 -1.38098,4.80428 -0.51911,1.58375 -1.09669,3.14833 -1.73154,4.68933 -0.63484,1.54101 -1.32694,3.05843 -2.0747,4.54792 -0.74775,1.48949 -1.55116,2.95104 -2.40826,4.38042 -0.85709,1.42937 -1.76787,2.82655 -2.73002,4.18744 -0.96214,1.36089 -1.97564,2.68547 -3.03781,3.96981 -1.06218,1.28433 -2.17302,2.52842 -3.32953,3.7285 -1.15651,1.20009 -2.35868,2.35619 -3.60317,3.46477 -1.2445,1.10859 -2.53132,2.16966 -3.85684,3.17997 -1.32552,1.01032 -2.68973,1.96987 -4.08874,2.87569 -1.399,0.90583 -2.8328,1.75793 -4.29723,2.55365 -1.46443,0.79572 -2.9595,1.53507 -4.48083,2.21572 -1.52134,0.68066 -3.06893,1.30262 -4.63822,1.86393 -1.56929,0.56131 -3.16028,1.06197 -4.76824,1.50038 -1.60796,0.43841 -3.2329,0.81457 -4.86996,1.12728 -1.63706,0.31271 -3.28624,0.56196 -4.9426,0.74694 -1.65636,0.18498 -3.3199,0.30568 -4.98562,0.36169 -1.66572,0.056 -3.33361,0.0473 -4.99866,-0.0261 -1.66504,-0.0734 -3.32723,-0.21152 -4.98156,-0.41397 -1.65432,-0.20246 -3.30077,-0.46924 -4.93436,-0.79958 -1.6336,-0.33034 -3.25435,-0.72423 -4.85734,-1.1805 -1.603,-0.45627 -3.18823,-0.97493 -4.75092,-1.5544 -1.56268,-0.57948 -3.10281,-1.21977 -4.61572,-1.91897 -1.51292,-0.69919 -2.99861,-1.45727 -4.4526,-2.27195 -1.45398,-0.81469 -2.87625,-1.68598 -4.2625,-2.61123 C 402.66036,402.00944 401.31012,401.03022 400,400"
         inkscape:connector-curvature="0"
         style="fill:none;stroke:#000000;stroke-width:2.62038183;stroke-miterlimit:4;stroke-dasharray:none" />
      <path
         id="path3004"
         d="m 251.24547,397.83232 -9.14363,-5.28574 m 11.66884,0.97028 -9.13027,-5.40772 m 11.70115,1.1193 -9.15667,-5.55602 m 11.77336,1.29539 -9.2203,-5.73151 m 11.8831,1.49956 -9.3194,-5.93555 m 12.02881,1.73328 -9.45245,-6.1697 m 12.20913,1.9983 -9.61783,-6.43555 m 12.42262,2.29634 -9.81358,-6.73457 m 12.66745,2.62904 -10.03738,-7.06808 m 12.94145,2.99792 -10.28657,-7.43733 m 13.24207,3.40436 -10.55822,-7.84343 m 13.56653,3.8497 -10.84932,-8.28756 m 13.91189,4.33528 -11.15682,-8.77101 m 14.27517,4.8626 -11.47769,-9.29525 m 14.65343,5.43334 -11.80899,-9.86198 m 15.04379,6.0494 -12.14769,-10.4731 m 15.44322,6.7129 -12.49046,-11.13046 m 15.84845,7.42593 -12.83339,-11.83568 m 16.25555,8.19036 -13.17142,-12.58951 m 16.65942,9.00715 -13.49785,-13.39109 m 17.05334,9.87571 -13.80556,-14.23889 m 17.43007,10.79473 -14.09814,-15.14274 m 17.79313,11.77431 -14.36697,-16.10063 m 18.13379,12.81272 -14.60351,-17.11012 m 18.44332,13.9078 -14.80125,-18.17074 m 18.71505,15.05928 -14.95448,-19.28286 m 18.94304,16.26785 -15.05737,-20.44698 m 19.12118,17.53422 -15.10355,-21.66298 m 19.24286,18.85856 -15.08597,-22.92983 m 19.30069,20.24008 -14.99691,-24.24538 m 19.28657,21.67687 -14.82824,-25.60639 m 19.192,23.16594 -14.57168,-27.00873 m 19.00827,24.70334 -14.2191,-28.44766 m 18.72673,26.28452 -13.76265,-29.91808 m 18.33905,27.90454 -13.19487,-31.41473 m 17.8372,29.55827 -12.50856,-32.93213 m 17.21338,31.24035 -11.69661,-34.46416 m 16.45985,32.9447 -10.75176,-36.00314 m 15.5687,34.66369 -9.66654,-37.53843 m 14.53176,36.38667 -8.43346,-39.05437 m 13.34077,38.09786 -7.04671,-40.53366 m 11.98919,39.77981 -5.50508,-41.98129 m 10.47502,41.43733 -3.80293,-43.3785 m 8.79181,43.0514 -1.93688,-44.70557 m 6.93538,44.60196 0.0941,-45.94556 m 4.90382,46.07164 2.28961,-47.08274 m 2.69683,47.44418 4.64768,-48.10147 m 0.31545,48.70337 7.16508,-48.98537 m -2.23784,49.83212 9.83685,-49.71693 m -4.95885,50.8122 12.65597,-50.27765 m -7.84132,51.62422 15.61313,-50.64833 m -10.8766,52.24805 18.69653,-50.80982 m -14.05353,52.6635 21.89195,-50.74369 m -17.35845,52.85098 25.18295,-50.43284 m -20.7754,52.79219 28.55119,-49.86197 m -24.28641,52.4705 31.97655,-49.01752 m -27.87167,51.87102 35.43721,-47.88757 m -31.50953,50.98038 38.90915,-46.46127 m -35.17601,49.78626 42.36525,-44.72845 m -38.84391,48.27694 45.77411,-42.67954 m -42.4816,46.44129 49.10215,-40.30907 m -46.05511,44.27223 52.32883,-37.62552 m -49.54338,41.77667 55.41995,-34.62796 m -52.91152,38.95212 58.34014,-31.31994 m -56.12332,35.80056 61.05586,-27.71063 m -59.14422,32.32969 63.5353,-23.81366 m -61.94122,28.55167 65.74803,-19.64625 m -64.48256,24.48239 67.66489,-15.2289 m -66.7376,20.14108 69.25793,-10.58515 m -68.67678,15.55017 70.50073,-5.74173 m -70.27192,10.73538 71.36895,-0.72851 m -71.49681,5.72575 71.84098,4.4216 m -72.32786,0.55349 71.89866,9.67298 m -72.74486,-4.74628 71.52786,14.98778 m -72.7315,-10.13602 70.71865,20.32649 m -72.27569,-15.57635 69.46543,25.64856 m -71.36961,-21.02665 67.76666,30.91281 m -70.00948,-26.44542 65.62458,36.07762 m -68.19533,-31.79055 63.04507,41.10114 m -65.93086,-37.01949 60.038,45.9416 m -63.22382,-42.08955 56.61831,50.55852 m -60.08704,-46.95916 52.80795,54.91621 m -56.54056,-51.59131 48.62853,58.978 m -52.60415,-55.94783 44.10552,62.7093 m -48.30152,-59.99253 39.26835,66.07894 m -43.66059,-63.69239 34.14964,69.05925 m -38.71251,-67.01782 28.78438,71.62615 m -33.4911,-69.94267 23.20949,73.75914 m -28.03218,-72.44426 17.46329,75.44122 m -22.37324,-74.50334 11.58523,76.65906 m -16.55307,-76.10428 5.61555,77.40302 m -10.61145,-77.23505 -0.40509,77.66724 m -4.58879,-77.88741 -6.43602,77.44969 m 1.47431,-78.0569 -12.43697,76.75205 m 7.53741,-77.74282 -18.3684,75.57959 m 13.56063,-76.94807 -24.19186,73.94089 m 19.50499,-75.67887 -29.87019,71.84753 m 25.3326,-73.94458 -35.36774,69.31388 m 31.00689,-71.75732 -40.65049,66.35695 m 36.49278,-69.13201 -45.68645,62.99646"
         inkscape:connector-curvature="0"
         style="fill:none;stroke:#0000ff;stroke-width:0.65479314;stroke-miterlimit:4;stroke-dasharray:none" />
      <circle
         id="circle3006"
         r="10"
         cy="400"
         cx="250"
         sodipodi:cx="250"
         sodipodi:cy="400"
         sodipodi:rx="10"
         sodipodi:ry="10"
         style="fill:#ff0000;stroke:none"
         d="m 260,400 c 0,5.52285 -4.47715,10 -10,10 -5.52285,0 -10,-4.47715 -10,-10 0,-5.52285 4.47715,-10 10,-10 5.52285,0 10,4.47715 10,10 z"
         transform="matrix(0.65509547,0,0,0.65509547,86.226134,137.96181)" />
      <circle
         id="circle3008"
         r="10"
         cy="400"
         cx="400"
         sodipodi:cx="400"
         sodipodi:cy="400"
         sodipodi:rx="10"
         sodipodi:ry="10"
         style="fill:#ff0000;stroke:none"
         d="m 410,400 c 0,5.52285 -4.47715,10 -10,10 -5.52285,0 -10,-4.47715 -10,-10 0,-5.52285 4.47715,-10 10,-10 5.52285,0 10,4.47715 10,10 z"
         transform="matrix(0.65509547,0,0,0.65509547,137.96181,137.96181)" />
      <path
         style="fill:none;stroke:#00ff00;stroke-width:2.62038183;stroke-miterlimit:4;stroke-dasharray:none"
         d="m 249.99892,400.00196 45.6498,-79.93905"
         id="line3010"
         inkscape:connector-curvature="0"
         sodipodi:nodetypes="cc" />
    </g>
  </g>
</svg>
