<?xml version="1.0" encoding="UTF-8" standalone="no"?>
<svg
   xmlns:dc="http://purl.org/dc/elements/1.1/"
   xmlns:cc="http://creativecommons.org/ns#"
   xmlns:rdf="http://www.w3.org/1999/02/22-rdf-syntax-ns#"
   xmlns:svg="http://www.w3.org/2000/svg"
   xmlns="http://www.w3.org/2000/svg"
   xmlns:sodipodi="http://sodipodi.sourceforge.net/DTD/sodipodi-0.dtd"
   xmlns:inkscape="http://www.inkscape.org/namespaces/inkscape"
   viewBox="0 0 962 408"
   version="1.1"
   id="svg3035"
   inkscape:version="0.48.2 r9819"
   width="100%"
   height="100%"
   sodipodi:docname="uidemo.svg">
  <metadata
     id="metadata3045">
    <rdf:RDF>
      <cc:Work
         rdf:about="">
        <dc:format>image/svg+xml</dc:format>
        <dc:type
           rdf:resource="http://purl.org/dc/dcmitype/StillImage" />
        <dc:title></dc:title>
      </cc:Work>
    </rdf:RDF>
  </metadata>
  <defs
     id="defs3043">
    <marker
       inkscape:stockid="Arrow1Lend"
       orient="auto"
       refY="0.0"
       refX="0.0"
       id="Arrow1Lend"
       style="overflow:visible;">
      <path
         id="path4017"
         d="M 0.0,0.0 L 5.0,-5.0 L -12.5,0.0 L 5.0,5.0 L 0.0,0.0 z "
         style="fill-rule:evenodd;stroke:#000000;stroke-width:1.0pt;marker-start:none;"
         transform="scale(0.8) rotate(180) translate(12.5,0)" />
    </marker>
    <marker
       inkscape:stockid="Arrow1Lstart"
       orient="auto"
       refY="0.0"
       refX="0.0"
       id="Arrow1Lstart"
       style="overflow:visible">
      <path
         id="path4014"
         d="M 0.0,0.0 L 5.0,-5.0 L -12.5,0.0 L 5.0,5.0 L 0.0,0.0 z "
         style="fill-rule:evenodd;stroke:#000000;stroke-width:1.0pt;marker-start:none"
         transform="scale(0.8) translate(12.5,0)" />
    </marker>
  </defs>
  <sodipodi:namedview
     pagecolor="#ffffff"
     bordercolor="#666666"
     borderopacity="1"
     objecttolerance="10"
     gridtolerance="10"
     guidetolerance="10"
     inkscape:pageopacity="0"
     inkscape:pageshadow="2"
     inkscape:window-width="1676"
     inkscape:window-height="1001"
     id="namedview3041"
     showgrid="false"
     showguides="true"
     inkscape:guide-bbox="true"
     inkscape:zoom="1.5878598"
     inkscape:cx="469.78498"
     inkscape:cy="129.39777"
     inkscape:window-x="0"
     inkscape:window-y="0"
     inkscape:window-maximized="0"
     inkscape:current-layer="svg3035" />
  <path
     style="fill:none;stroke:#008000;stroke-width:0.5"
     d="M 237.106,233.678 98.460101,183.92002 M 237.933,231.493 102.76964,177.7015 m 136.06335,51.63641 -131.67175,-57.628 m 132.64398,55.50376 -128.15133,-61.26283 m 129.19342,59.1722 -124.5883,-64.69223 m 125.6982,62.63724 -120.97564,-67.91164 m 122.15126,65.89414 -117.31159,-70.91707 m 118.55087,68.93873 -113.59877,-73.70555 m 114.89963,71.76787 -109.84316,-76.27551 m 111.20351,74.37983 -106.05324,-78.62697 m 107.47101,76.77451 -102.23925,-80.76163 m 103.71238,78.95345 -98.41255,-82.68281 m 99.93897,80.91989 -94.58493,-84.39535 m 96.16261,82.67852 -90.76825,-85.90542 m 92.39515,84.23543 -86.97397,-87.22029 m 88.64808,85.59778 -83.21289,-88.34809 m 84.93222,86.77362 -79.4949,-89.29758 m 81.25747,87.77161 -75.8289,-90.0779 m 77.63278,88.60083 -72.22267,-90.69831 m 74.06594,89.27045 -68.68289,-91.16806 m 70.56366,89.78966 -65.21511,-91.49612 m 67.13152,90.16735 -61.82386,-91.69113 m 63.7741,90.4121 -58.51275,-91.76123 m 60.49502,90.53199 -55.28449,-91.71398 m 57.29705,90.53453 -52.14106,-91.55637 m 54.18221,90.42663 -49.08385,-91.294697 m 51.1519,90.214557 -46.11366,-90.934652 M 279.40316,189.1651 236.17221,98.683814 M 281.52018,188.18358 241.08435,98.244507 M 283.65936,187.25098 245.93115,97.939042 M 285.8192,186.36697 250.71136,97.763647 M 287.99825,185.53119 255.42386,97.714922 M 290.19511,184.74323 260.0676,97.789763 m 32.34081,86.212857 -27.76685,-86.017319 m 29.9953,85.323559 -25.49211,-85.010031 M 296.8792,182.66141 273.57616,98.727738 m 25.55805,83.331952 -21.19944,-82.790238 m 23.46597,82.233618 -19.18117,-81.581691 m 21.4581,81.069531 -17.24816,-80.31006 m 19.53443,79.84164 -15.40034,-78.9774 m 17.69495,78.55201 -13.6377,-77.58592 m 15.93967,77.2028 -11.96016,-76.13796 m 14.26859,75.7963 -10.36764,-74.636 m 12.68166,74.335 -8.86,-73.08271 m 11.17879,72.8215 -7.43699,-71.48092 m 9.75978,71.25865 -6.09824,-69.83366 m 8.42431,69.6494 -4.84327,-68.14407 m 7.17195,67.99692 -3.67142,-66.41548 m 6.00206,66.30449 -2.58185,-64.65135 m 4.91388,64.57556 -1.57355,-62.85522 m 3.90643,62.81365 -0.64531,-61.03071 m 2.97853,61.02236 0.2043,-59.18151 m 2.1288,59.20538 0.97691,-57.31131 m 1.35567,57.36637 1.67432,-55.42379 m 0.65735,55.50903 2.29856,-53.52263 m 0.0319,53.63701 2.85183,-51.6114 m -0.52295,51.75388 3.33648,-49.69357 m -1.00942,49.8631 3.75506,-47.77252 m -1.43003,47.96806 4.1102,-45.85145 m -1.78741,46.07194 4.40469,-43.9334 m -2.08431,44.17782 4.64139,-42.02123 m -2.32354,42.28853 4.82325,-40.1176 m -2.50804,40.40673 4.95326,-38.22491 m -2.64076,38.53485 5.03443,-36.34535 m -2.7247,36.67507 5.06981,-34.48084 m -2.76287,34.82933 5.06242,-32.63308 m -2.75827,32.99933 5.01523,-30.80347 m -2.71384,31.18648 4.93117,-28.99315 m -2.6325,29.39194 4.81312,-27.20297 m -2.51712,27.61656 4.66387,-25.43352 m -2.37044,25.86095 4.48608,-23.68511 m -2.19512,24.12542 4.28233,-21.95773 m -1.99374,22.40999 4.05509,-20.25113 m -1.76874,20.71441 3.80669,-18.56476 m -1.52243,19.03813 3.53932,-16.89779 m -1.257,17.38037 3.25506,-15.24914 m -0.97451,15.74001 2.95582,-13.61742 m -0.67687,14.1157 2.64341,-12.00101 m -0.36589,12.50583 2.31953,-10.39802 m -0.0432,10.90851 1.98569,-8.80634 m 0.28957,9.32163 1.64336,-7.22359 m 0.63105,7.74282 1.29389,-5.6472 m 0.97989,6.16952 0.93852,-4.0744 m 1.33483,4.59896 0.57845,-2.50224 m 1.69467,3.02818 0.21484,-0.9276 m 2.05826,1.45407 -0.1512,0.65276 m 2.42449,-0.12663 -0.51857,2.24219 m 2.79224,-1.71725 -0.88609,3.84407 m 3.16035,-3.3212 -1.2526,5.46185 m 3.52765,-4.94194 -1.61681,7.09894 m 3.89285,-6.58287 -1.97736,8.75866 m 4.25456,-8.24734 -2.33271,10.44423 m 4.61126,-9.93859 -2.68116,12.15866 m 4.96124,-11.65963 -3.02083,13.9047 m 5.3026,-13.41324 -3.34957,15.68473 m 5.6332,-15.20182 -3.66503,17.50071 m 5.95065,-17.02733 -3.96451,19.35405 m 6.25228,-18.89122 -4.24507,21.24548 m 6.53509,-20.79424 -4.50341,23.175 m 6.79582,-22.73641 -4.73598,25.14166 m 7.03086,-24.71678 -4.93887,27.14344 m 7.23632,-26.73338 -5.10794,29.17712 m 7.40801,-28.78297 -5.23876,31.23806 m 7.54153,-30.86095 -5.3268,33.32007 m 7.63228,-32.96113 -5.36736,35.4152 m 7.67559,-35.07557 -5.35581,37.51354 m 7.66676,-37.19435 -5.28762,39.60304 m 7.60128,-39.30543 -5.15863,41.66936 m 7.47493,-41.39443 -4.96515,43.69561 m 7.28403,-43.44446 -4.7043,45.66231 m 7.02565,-45.43601 -4.37416,47.54721 m 6.69784,-47.34676 -3.97414,49.32515 m 6.29999,-49.15151 -3.50524,50.96808 m 5.83305,-50.82216 -2.97038,52.44504 m 5.29992,-52.32761 -2.37475,53.72209 m 4.70573,-53.63387 -1.72604,54.76251 m 4.05814,-54.70404 -1.03478,55.52674 m 3.36764,-55.49846 -0.31451,55.97255 m 2.64771,-55.9747 0.41807,56.05503 m 1.91499,-56.08765 1.14308,55.7265 m 1.18931,-55.78941 1.83745,54.93636 m 0.49368,-55.0291 2.47519,53.63054 m -0.14598,-53.75237 3.02769,51.75077 m -0.70112,-51.90063 3.46425,49.23328 m -1.14075,-49.40992 3.87935,47.46388 m -1.55873,-47.66621 4.21623,45.48913 m -1.89804,-45.71611 4.47446,43.36293 m -2.15837,-43.61346 4.65614,41.13088 m -2.34194,-41.40381 4.76516,38.83078 m -2.45268,-39.1249 4.80652,36.49322 m -2.49569,-36.80731 4.78595,34.1424 m -2.47673,-34.4752 4.70941,31.79693 m -2.4018,-32.14719 4.58289,29.47057 m -2.27691,-29.83702 4.41213,27.17304 m -2.10782,-27.55444 4.20256,24.91067 m -1.89994,-25.30577 3.95915,22.68702 m -1.65827,-23.09458 3.68645,20.50342 m -1.38731,-20.92222 3.38851,18.35943 m -1.09113,-18.78829 3.06898,16.25327 m -0.77332,-16.691 2.7311,14.18213 m -0.43714,-14.62756 2.37779,12.14242 m -0.0855,-12.59443 2.01163,10.13012 m 0.27918,-10.58757 1.63501,8.14081 m 0.65438,-8.6026 1.25013,6.16997 m 1.038,-6.635 0.85905,4.21303 m 1.42798,-4.68024 0.46377,2.26554 m 1.82236,-2.73385 0.0663,0.32315 m 2.21919,-0.7915 -0.33153,-1.61823 m 2.61652,1.15089 -0.72754,-3.56243 m 3.01233,3.09714 -1.11969,-5.51296 m 3.40456,5.05079 -1.50578,-7.47303 m 3.79098,7.01501 -1.88345,-9.44547 m 4.16927,8.99266 -2.25026,-11.43276 m 4.53699,10.98622 -2.60359,-13.43703 m 4.8915,12.99784 -2.94064,-15.46009 m 5.23002,15.02931 -3.25848,-17.50335 m 5.54959,17.08207 -3.55402,-19.56789 m 5.84712,19.15723 -3.82399,-21.65451 m 6.11931,21.25558 -4.06499,-23.76365 m 6.36276,23.37758 -4.27347,-25.89546 m 6.57387,25.5234 -4.44574,-28.0498 m 6.74894,27.69291 -4.578,-30.22622 m 6.88413,29.88569 -4.66632,-32.42401 m 6.97547,32.10104 -4.7067,-34.64219 m 7.01896,34.33798 -4.69509,-36.87947 m 7.01045,36.59526 -4.62731,-39.13427 m 6.94575,38.8713 -4.49919,-41.40476 m 6.82066,41.16427 -4.30655,-43.68874 m 6.63091,43.472 -4.04517,-45.98372 m 6.37226,45.79201 -3.71089,-48.2869 m 6.0405,48.12148 -3.29962,-50.59507 m 5.63147,50.45722 -2.80733,-52.90465 m 5.14109,52.79566 -2.23012,-55.21169 m 4.56541,55.13282 -1.56426,-57.51178 m 3.90066,57.46431 -0.80624,-59.80011 m 3.14324,59.7853 0.0472,-62.07137 m 2.28982,62.09046 0.99912,-64.31982 m 1.33739,64.37404 2.05204,-66.53922 m 0.28327,66.62979 3.20818,-68.7229 m -0.87479,68.85098 4.46928,-70.86366 m -2.13858,71.03043 5.83654,-72.95394 m -3.50934,73.1605 7.31054,-74.98572 m -4.98772,75.23317 8.89122,-76.95066 m -6.57368,77.24004 10.57778,-78.8401 m -8.2665,79.17241 12.36869,-80.64515 m -10.06468,81.02133 14.26158,-82.35678 m -11.96589,82.77773 16.25322,-83.96592 m -13.96695,84.4325 18.33954,-85.46358 m -16.06381,85.97654 20.51555,-86.84092 m -18.25154,87.401 22.77541,-88.089482 M 654.10175,188.05662 679.21416,98.855409 M 656.3387,188.7128 683.85774,98.544131 m -25.29748,90.873709 29.98703,-90.985158 m -27.78215,91.739468 32.50747,-91.644805 m -30.32057,92.448765 35.07088,-92.142767 m -32.90327,92.996637 37.66733,-92.475248 m -35.52034,93.379218 40.28661,-92.63964 m -38.16157,93.59384 42.91834,-92.6346 m -40.81662,93.63905 45.55217,-92.46004 m -43.4751,93.51468 48.17787,-92.11719 m -46.12681,93.22189 50.78558,-91.60857 m -48.76187,92.76311 53.36589,-90.93793 m -51.37089,92.14198 55.91005,-90.11018 m -53.94507,91.36338 58.41003,-89.13137 m -56.47642,90.43322 60.85872,-88.00844 m -58.95776,89.35841 63.24993,-86.74918 m -61.38293,88.14663 65.57852,-85.36205 m -63.74675,86.80628 67.84042,-83.85598 m -66.04512,85.3462 70.03262,-82.24023 m -68.27502,83.77561 72.1532,-80.52423 m -70.43449,82.10384 74.20124,-78.71734 m -72.5226,80.34022 76.17679,-76.82877 m -74.53935,78.49386 78.08074,-74.86734 m -76.48561,76.57357 79.91473,-72.84143 m -78.36298,74.58766 81.68103,-70.75879 m -80.17369,72.54383 83.38238,-68.62648 m -81.92047,70.4491 85.02185,-66.45075 m -83.60632,68.3097 86.60265,-64.23707 m -85.23442,66.13105 88.12797,-61.98998 m -86.80795,63.91769 89.60089,-59.71319 m -88.32991,61.67328 91.02409,-57.40954 m -89.80297,59.40067 92.39982,-55.08105 m -91.22932,57.10186 93.72968,-52.729 m -92.61055,54.77812 95.01454,-50.35398 m -93.94746,52.43005 96.25443,-47.95606 m -95.24005,50.05771 97.44846,-45.53483 m -96.48742,47.6607 98.5948,-43.08961 m -97.68766,45.23836 99.69064,-40.61957 m -98.83795,42.78987 100.73226,-38.12388 m -99.93452,40.31439 101.71512,-35.60189 m -100.97281,37.81131 102.63399,-33.05328 m -101.94754,35.2803 103.48313,-30.47819 M 720.3869,254.10527 824.64351,226.22786 m -103.68307,30.13581 104.94858,-25.25235 m -104.432,27.52453 105.55363,-22.60523 m -105.09432,24.88991 106.06731,-19.93896 m -105.66555,22.23488 106.48654,-17.2572 m -106.14255,19.56304 106.81017,-14.56412 m -106.52416,16.87857 107.03955,-11.86425 m -106.81169,14.18594 107.17913,-9.16216 m -107.00955,11.48969 107.23703,-6.46209 m -107.12582,8.79394 107.22573,-3.7674 m -107.17297,6.102 107.16266,-1.08002 m -107.16834,3.41567 107.07086,1.60029 m -107.13497,0.73456 106.97976,4.27678 m -107.10221,-1.94475 106.92593,6.95676 m -107.1066,-4.62977 106.95411,9.65272 m -107.1928,-7.33324 107.11837,12.38392"
     id="path3039"
     inkscape:connector-curvature="0"
     sodipodi:nodetypes="cccccccccccccccccccccccccccccccccccccccccccccccccccccccccccccccccccccccccccccccccccccccccccccccccccccccccccccccccccccccccccccccccccccccccccccccccccccccccccccccccccccccccccccccccccccccccccccccccccccccccccccccccccccccccccccccccccccccccccccccccccccccccccccccccccccccccccccccccccccccccccccccccccccccccccccccccccccccccccccccccccccccccccccccccccccccccccccccccccccccccccccccccccccccccccccccccccccccccccccccccccccccccccccccccccccccccccccccccccccccccccccccccccccccccccccccccccccccccccccccccccccccccccccccc" />
  <path
     style="fill:none;stroke:#000000;stroke-width:2"
     d="m 236,237 c 0.55279,-1.83588 1.22573,-3.75963 1.93654,-5.543 0.7108,-1.78337 1.54585,-3.64337 2.40414,-5.36066 0.85828,-1.71729 1.84414,-3.50088 2.83917,-5.14148 0.99504,-1.64061 2.12026,-3.33794 3.24125,-4.89366 1.12099,-1.55571 2.3741,-3.15922 3.61027,-4.6238 1.23617,-1.46458 2.60578,-2.96857 3.94648,-4.33736 1.34069,-1.3688 2.81558,-2.76909 4.25035,-4.03878 1.43477,-1.26969 3.00399,-2.56341 4.52268,-3.73179 1.51869,-1.16839 3.17165,-2.35376 4.76447,-3.41962 1.59282,-1.06586 3.31936,-2.14205 4.97696,-3.105 1.6576,-0.96295 3.44804,-1.92998 5.16157,-2.79041 1.71353,-0.86044 3.55874,-1.71911 5.31988,-2.4781 1.76115,-0.759 3.65262,-1.51081 5.45365,-2.17009 1.80103,-0.65927 3.73088,-1.30638 5.56467,-1.86825 1.8338,-0.56188 3.7948,-1.10703 5.65487,-1.57437 1.86007,-0.46734 3.84569,-0.91386 5.7262,-1.29003 1.8805,-0.37617 3.88487,-0.72789 5.78061,-1.01672 1.89574,-0.28882 3.91369,-0.55003 5.82011,-0.75574 1.90641,-0.20572 3.93344,-0.3811 5.84659,-0.50828 1.91315,-0.12719 3.94542,-0.22178 5.86197,-0.27532 1.91656,-0.0535 3.95084,-0.0727 5.86805,-0.0576 1.91722,0.015 3.95089,0.0658 5.86655,0.14409 1.91567,0.0783 3.94667,0.19337 5.85909,0.3295 1.91242,0.13614 3.93922,0.30976 5.84717,0.49834 1.90795,0.18857 3.92948,0.41495 5.83217,0.65054 1.90268,0.23559 3.91831,0.50899 5.81532,0.78623 1.897,0.27725 3.90649,0.59201 5.79774,0.90565 1.89125,0.31364 3.89467,0.66426 5.78038,1.00916 1.88571,0.34489 3.88344,0.72599 5.76407,1.09717 1.88063,0.37117 3.87328,0.77754 5.7495,1.17017 1.87621,0.39262 3.86458,0.81923 5.7372,1.22861 1.87263,0.40939 3.85766,0.85134 5.72763,1.27292 1.86997,0.42159 3.85271,0.87409 5.72105,1.3034 1.86833,0.42931 3.8499,0.88764 5.71766,1.32023 1.86777,0.4326 3.8493,0.89206 5.71756,1.32348 1.86826,0.43142 3.85088,0.88726 5.72068,1.31297 1.86981,0.4257 3.8546,0.87304 5.72694,1.28834 1.87233,0.41531 3.86032,0.84908 5.7361,1.24911 1.87577,0.40002 3.86786,0.81493 5.74786,1.19455 1.88,0.37961 3.87696,0.77007 5.76184,1.12389 1.88488,0.35382 3.88732,0.71398 5.77755,1.03635 1.89024,0.32238 3.89855,0.64613 5.7944,0.93124 1.89585,0.2851 3.91019,0.56618 5.81166,0.80811 1.90147,0.24194 3.92172,0.47409 5.82852,0.66709 1.9068,0.19299 3.93246,0.37023 5.84394,0.50893 1.91148,0.13871 3.94164,0.25568 5.85672,0.33558 1.91507,0.0799 3.94834,0.13239 5.8654,0.15037 1.91706,0.018 3.95141,0.004 5.86822,-0.0414 1.9168,-0.045 3.9495,-0.12601 5.86304,-0.23196 1.91354,-0.10594 3.94049,-0.24932 5.84782,-0.41067 1.90733,-0.16135 3.92793,-0.3604 5.83059,-0.57154 1.90267,-0.21114 3.91918,-0.45995 5.81827,-0.71481 1.89909,-0.25486 3.91209,-0.54668 5.80786,-0.8388 1.89576,-0.29212 3.90522,-0.62 5.79753,-0.94285 1.89232,-0.32284 3.89802,-0.67986 5.78674,-1.02702 1.88872,-0.34716 3.89055,-0.72662 5.7757,-1.09189 1.88515,-0.36528 3.88328,-0.76074 5.76518,-1.13818 1.8819,-0.37744 3.87686,-0.78272 5.75619,-1.1666 1.87933,-0.38388 3.872,-0.79302 5.74975,-1.17778 1.87774,-0.38477 3.86935,-0.79193 5.74677,-1.17211 1.87741,-0.38018 3.86939,-0.77959 5.7479,-1.14973 1.87851,-0.37013 3.87243,-0.75598 5.7535,-1.11055 1.88106,-0.35456 3.87847,-0.72093 5.76349,-1.05426 1.88501,-0.33333 3.8873,-0.67411 5.77745,-0.98035 1.89015,-0.30625 3.89844,-0.61514 5.79457,-0.88825 1.89614,-0.2731 3.91112,-0.54357 5.81366,-0.77727 1.90253,-0.23371 3.92439,-0.459 5.8332,-0.64685 1.90881,-0.18786 3.93709,-0.36104 5.85142,-0.49647 1.91434,-0.13543 3.94791,-0.24947 5.86635,-0.32584 1.91844,-0.0764 3.95541,-0.1242 5.87581,-0.13488 1.92041,-0.0107 3.95813,0.0146 5.87764,0.0761 1.9195,0.0615 3.95455,0.1667 5.86957,0.30651 1.91502,0.13981 3.94321,0.33136 5.84946,0.55533 1.90626,0.22397 3.9227,0.50776 5.81527,0.82117 1.89256,0.31341 3.89171,0.69471 5.76509,1.10218 1.87338,0.40747 3.84911,0.89082 5.69731,1.3962 1.8482,0.50537 3.7939,1.0944 5.61051,1.70063 1.81661,0.60624 3.7253,1.30358 5.50361,2.01265 1.77831,0.70908 3.64274,1.51629 5.37583,2.32914 1.7331,0.81285 3.54585,1.73036 5.22671,2.64683 1.68087,0.91646 3.43448,1.94352 5.05612,2.96235 1.62163,1.01884 3.30917,2.15321 4.86469,3.27208 1.55552,1.11887 3.1684,2.35845 4.65112,3.57398 1.48273,1.21553 3.01535,2.55531 4.41889,3.86319 1.40353,1.30788 2.84884,2.74309 4.16716,4.13816 1.31832,1.39507 2.67013,2.91984 3.89761,4.39624 1.22749,1.4764 2.48009,3.08416 3.6116,4.63547 1.13152,1.55132 2.2797,3.23502 3.31059,4.85444 1.03089,1.61942 2.06999,3.37169 2.99611,5.05218 0.92612,1.6805 1.8522,3.49386 2.66992,5.22834 0.81772,1.73448 1.62662,3.60123 2.33279,5.38265 0.70617,1.78143 1.3954,3.69435 1.98737,5.51583 0.59197,1.82148 1.15876,3.7733 1.63433,5.62812 0.47557,1.85482 0.91783,3.83848 1.27524,5.72003 0.35742,1.88154 0.67351,3.89006 0.91143,5.79163 0.23793,1.90157 0.42667,3.92773 0.54423,5.84224 0.11756,1.91451 0.17825,3.95046 0.17503,5.86991 -0.003,1.91945 -0.0706,3.95581 -0.19442,5.87059 -0.12385,1.91478 -0.31928,3.94104 -0.56292,5.83895"
     id="path3037"
     inkscape:connector-curvature="0"
     sodipodi:nodetypes="cssssssssssssssssssssssssssssssssssssssssssssssssssssssssssssssssssssssssssssssssssssssssssssssssssc" />
  <path
     style="fill:none;stroke:#00ff00;stroke-width:2;stroke-linecap:butt;stroke-linejoin:miter;stroke-opacity:1;stroke-miterlimit:4;stroke-dasharray:none"
     d="M 198.51647,336.15742 C 275.10288,133.17231 275.10288,132.54965 275.10288,132.54965"
     id="path3049"
     inkscape:connector-curvature="0" />
  <path
     sodipodi:type="arc"
     style="fill:none;stroke:#0000ff;stroke-opacity:1;stroke-width:2.09100136;stroke-miterlimit:4;stroke-dasharray:none"
     id="path3819"
     sodipodi:cx="235.98576"
     sodipodi:cy="236.77023"
     sodipodi:rx="70.048546"
     sodipodi:ry="70.048546"
     d="M 191.99786,291.28503 A 70.048546,70.048546 0 0 1 244.52253,167.24382"
     transform="matrix(0.95647953,0,0,0.95647953,74.284448,30.534118)"
     sodipodi:start="2.2497294"
     sodipodi:end="4.834562"
     sodipodi:open="true" />
  <path
     style="fill:none;stroke:#00ff00;stroke-width:2;stroke-linecap:butt;stroke-linejoin:miter;stroke-opacity:1;stroke-miterlimit:4;stroke-dasharray:none"
     d="m 578.69421,201.81653 -183.47212,0 c 183.0268,0 183.69478,0 183.69478,0"
     id="path3821"
     inkscape:connector-curvature="0" />
  <path
     sodipodi:type="arc"
     style="fill:none;stroke:#0000ff;stroke-width:0.38669548;stroke-miterlimit:4;stroke-opacity:1;stroke-dasharray:none"
     id="path3823"
     sodipodi:cx="657.62732"
     sodipodi:cy="250.57915"
     sodipodi:rx="20.707411"
     sodipodi:ry="14.695582"
     d="m 641.05115,241.7715 a 20.707411,14.695582 0 1 1 31.16625,19.23596"
     transform="matrix(4.3570385,0,0,6.1394631,-2232.1491,-1261.707)"
     sodipodi:start="3.7842691"
     sodipodi:end="7.0721468"
     sodipodi:open="true" />
  <path
     sodipodi:type="arc"
     style="fill:#ff0000;fill-rule:evenodd;stroke:none"
     id="path3047"
     sodipodi:cx="203.9191"
     sodipodi:cy="258.87442"
     sodipodi:rx="5.2925568"
     sodipodi:ry="5.2925568"
     d="m 209.21165,258.87442 a 5.2925568,5.2925568 0 1 1 -10.58511,0 5.2925568,5.2925568 0 1 1 10.58511,0 z"
     transform="matrix(0.73126991,0,0,0.73126991,88.010114,44.534294)" />
  <path
     transform="matrix(0.73126991,0,0,0.73126991,336.61519,12.415589)"
     d="m 209.21165,258.87442 a 5.2925568,5.2925568 0 1 1 -10.58511,0 5.2925568,5.2925568 0 1 1 10.58511,0 z"
     sodipodi:ry="5.2925568"
     sodipodi:rx="5.2925568"
     sodipodi:cy="258.87442"
     sodipodi:cx="203.9191"
     id="path3825"
     style="fill:#000000;fill-rule:evenodd;stroke:none;fill-opacity:1"
     sodipodi:type="arc" />
  <path
     sodipodi:type="arc"
     style="fill:#000000;fill-opacity:1;fill-rule:evenodd;stroke:none"
     id="path3827"
     sodipodi:cx="203.9191"
     sodipodi:cy="258.87442"
     sodipodi:rx="5.2925568"
     sodipodi:ry="5.2925568"
     d="m 209.21165,258.87442 a 5.2925568,5.2925568 0 1 1 -10.58511,0 5.2925568,5.2925568 0 1 1 10.58511,0 z"
     transform="matrix(0.73126991,0,0,0.73126991,535.31032,13.360257)" />
  <path
     style="fill:none;stroke:#000000;stroke-width:1;stroke-linecap:butt;stroke-linejoin:miter;stroke-opacity:1;marker-start:none;marker-mid:none;marker-end:url(#Arrow1Lend);stroke-miterlimit:4;stroke-dasharray:none"
     d="M 298.64972,321.85503 C 241.07049,238.45489 241.07049,238.45489 241.07049,238.45489"
     id="path3829"
     inkscape:connector-curvature="0" />
  <path
     inkscape:connector-curvature="0"
     id="path5187"
     d="M 459.24324,321.85503 484.165,206.96596"
     style="fill:none;stroke:#000000;stroke-width:1;stroke-linecap:butt;stroke-linejoin:miter;stroke-miterlimit:4;stroke-opacity:1;stroke-dasharray:none;marker-start:none;marker-mid:none;marker-end:url(#Arrow1Lend)"
     sodipodi:nodetypes="cc" />
  <path
     style="fill:none;stroke:#000000;stroke-width:1;stroke-linecap:butt;stroke-linejoin:miter;stroke-miterlimit:4;stroke-opacity:1;stroke-dasharray:none;marker-start:none;marker-mid:none;marker-end:url(#Arrow1Lend)"
     d="M 624.24521,321.22525 681.91545,206.96596"
     id="path5189"
     inkscape:connector-curvature="0"
     sodipodi:nodetypes="cc" />
  <rect
     style="fill:#ffffff;stroke:#000000;stroke-width:0.92610872000000000;stroke-miterlimit:4;stroke-opacity:1;stroke-dasharray:none;fill-opacity:1"
     id="rect5191"
     width="156.18507"
     height="80.481873"
     x="219.16293"
     y="322.35013" />
  <flowRoot
     xml:space="preserve"
     id="flowRoot5193"
     style="font-size:40px;font-style:normal;font-weight:normal;text-align:center;line-height:125%;letter-spacing:0px;word-spacing:0px;text-anchor:middle;fill:#000000;fill-opacity:1;stroke:none;font-family:Sans"
     transform="translate(-12.595571,-25.191141)"><flowRegion
       id="flowRegion5195"><rect
         id="rect5197"
         width="149.88728"
         height="85.649879"
         x="233.64783"
         y="353.20926"
         style="text-align:center;text-anchor:middle" /></flowRegion><flowPara
       id="flowPara5199"
       style="font-size:18px;text-align:center;text-anchor:middle">point, direction, and curvature specification</flowPara></flowRoot>  <rect
     y="322.35013"
     x="383.53513"
     height="80.481873"
     width="156.18507"
     id="rect5211"
     style="fill:#ffffff;stroke:#000000;stroke-width:0.92610872000000000;stroke-miterlimit:4;stroke-opacity:1;stroke-dasharray:none;fill-opacity:1" />
  <flowRoot
     transform="translate(151.77663,-15.114685)"
     style="font-size:40px;font-style:normal;font-weight:normal;text-align:center;line-height:125%;letter-spacing:0px;word-spacing:0px;text-anchor:middle;fill:#000000;fill-opacity:1;stroke:none;font-family:Sans"
     id="flowRoot5213"
     xml:space="preserve"><flowRegion
       id="flowRegion5215"><rect
         style="text-align:center;text-anchor:middle"
         y="353.20926"
         x="233.64783"
         height="85.649879"
         width="149.88728"
         id="rect5217" /></flowRegion><flowPara
       style="font-size:18px;text-align:center;text-anchor:middle"
       id="flowPara5219">direction specification</flowPara></flowRoot>  <rect
     style="fill:#ffffff;stroke:#000000;stroke-width:0.92610872000000000;stroke-miterlimit:4;stroke-opacity:1;stroke-dasharray:none;fill-opacity:1"
     id="rect5221"
     width="156.18507"
     height="80.481873"
     x="547.90735"
     y="322.35013" />
  <flowRoot
     xml:space="preserve"
     id="flowRoot5223"
     style="font-size:40px;font-style:normal;font-weight:normal;text-align:center;line-height:125%;letter-spacing:0px;word-spacing:0px;text-anchor:middle;fill:#000000;fill-opacity:1;stroke:none;font-family:Sans"
     transform="translate(316.14883,-15.744463)"><flowRegion
       id="flowRegion5225"><rect
         id="rect5227"
         width="149.88728"
         height="85.649879"
         x="233.64783"
         y="353.20926"
         style="text-align:center;text-anchor:middle" /></flowRegion><flowPara
       id="flowPara5229"
       style="font-size:18px;text-align:center;text-anchor:middle">curvature specification </flowPara></flowRoot></svg>
