<?xml version="1.0" encoding="UTF-8" standalone="no"?>
<!-- Created with Inkscape (http://www.inkscape.org/) -->

<svg
   xmlns:dc="http://purl.org/dc/elements/1.1/"
   xmlns:cc="http://creativecommons.org/ns#"
   xmlns:rdf="http://www.w3.org/1999/02/22-rdf-syntax-ns#"
   xmlns:svg="http://www.w3.org/2000/svg"
   xmlns="http://www.w3.org/2000/svg"
   xmlns:sodipodi="http://sodipodi.sourceforge.net/DTD/sodipodi-0.dtd"
   xmlns:inkscape="http://www.inkscape.org/namespaces/inkscape"
   width="1024"
   height="1024"
   id="svg2"
   version="1.1"
   inkscape:version="0.48.3.1 r9886"
   sodipodi:docname="segmentation.svg">
  <defs
     id="defs4">
    <inkscape:path-effect
       effect="ruler"
       id="path-effect3757"
       is_visible="true"
       unit="px"
       mark_distance="500"
       mark_length="14"
       minor_mark_length="7"
       major_mark_steps="1"
       shift="0"
       offset="0"
       mark_dir="left"
       border_marks="both" />
  </defs>
  <sodipodi:namedview
     id="base"
     pagecolor="#ffffff"
     bordercolor="#666666"
     borderopacity="1.0"
     inkscape:pageopacity="0.0"
     inkscape:pageshadow="2"
     inkscape:zoom="0.7"
     inkscape:cx="1063.9068"
     inkscape:cy="586.60785"
     inkscape:document-units="px"
     inkscape:current-layer="layer1"
     showgrid="false"
     inkscape:window-width="1920"
     inkscape:window-height="1028"
     inkscape:window-x="0"
     inkscape:window-y="0"
     inkscape:window-maximized="1">
    <inkscape:grid
       type="xygrid"
       id="grid2985"
       empspacing="8"
       visible="true"
       enabled="true"
       snapvisiblegridlinesonly="true"
       spacingx="32px"
       spacingy="32px" />
  </sodipodi:namedview>
  <metadata
     id="metadata7">
    <rdf:RDF>
      <cc:Work
         rdf:about="">
        <dc:format>image/svg+xml</dc:format>
        <dc:type
           rdf:resource="http://purl.org/dc/dcmitype/StillImage" />
        <dc:title />
      </cc:Work>
    </rdf:RDF>
  </metadata>
  <g
     inkscape:groupmode="layer"
     id="layer2"
     inkscape:label="helpers"
     style="display:none">
    <path
       transform="translate(0,-28.362183)"
       id="path3070"
       style="fill:none;stroke:#0000ff;stroke-width:5;stroke-linecap:butt;stroke-linejoin:miter;stroke-miterlimit:4;stroke-opacity:1;stroke-dasharray:none"
       d="m 118.01453,388.17712 c 24.02426,-198.05562 75.81744,-229.50423 162.09199,-212.38485 74.18748,14.72096 173.87144,65.35445 303.31988,76.84729 102.04626,9.05998 222.58941,-6.20367 363.72032,-82.55897"
       inkscape:connector-curvature="0"
       sodipodi:nodetypes="cccc" />
  </g>
  <g
     inkscape:label="illustration"
     inkscape:groupmode="layer"
     id="layer1"
     transform="translate(0,-28.362183)">
    <g
       transform="matrix(2.8386656,0,0,2.8386656,-750.98896,-5.2849357)"
       id="g3248">
      <path
         inkscape:connector-curvature="0"
         d="m 277.76373,132.868 c 0,-0.0238 0.0376,-0.16 0.0376,-0.17375 0,-0.0113 0,-0.1225 -0.14887,-0.1225 -0.125,0 -0.13625,0.0375 -0.18513,0.2475 l -0.72112,2.86875 c -1.97513,0.06 -3.79887,1.7125 -3.79887,3.4025 0,1.18 0.86862,2.16 2.38274,2.24625 -0.1,0.385 -0.185,0.78375 -0.28512,1.1675 -0.14887,0.58375 -0.27387,1.055 -0.27387,1.09125 0,0.125 0.0879,0.13625 0.14887,0.13625 0.0625,0 0.0874,-0.0113 0.125,-0.0488 0.0249,-0.025 0.10012,-0.3225 0.13625,-0.49625 l 0.47125,-1.85125 c 2,-0.06 3.80125,-1.73875 3.80125,-3.4025 0,-0.98 -0.65875,-2.1225 -2.38475,-2.24625 l 0.69475,-2.82 0,0.001 z m -2.37113,8.195 c -0.74412,-0.0375 -1.63912,-0.47125 -1.63912,-1.7125 0,-1.49 1.06888,-3.22875 2.918,-3.39125 l -1.27888,5.10375 z m 1.60113,-5.10375 c 0.94388,0.0513 1.65238,0.62125 1.65238,1.715 0,1.465 -1.06838,3.24 -2.93113,3.38875 l 1.27875,-5.10375"
         style="fill:#000000;fill-opacity:1;fill-rule:nonzero;stroke:none"
         id="path3005" />
      <path
         inkscape:connector-curvature="0"
         d="m 284.24761,140.2605 c 0,-0.96625 -0.11526,-1.6625 -0.52001,-2.2775 -0.2715,-0.40375 -0.81637,-0.75375 -1.52,-0.75375 -2.03912,0 -2.03912,2.39875 -2.03912,3.03125 0,0.6325 0,2.97875 2.03912,2.97875 2.03863,0 2.03863,-2.34625 2.03863,-2.97875 l 10e-4,0 z m -2.03901,2.7325 c -0.40387,0 -0.941,-0.23625 -1.11724,-0.9575 -0.12251,-0.52 -0.12251,-1.24 -0.12251,-1.89125 0,-0.64125 0,-1.30875 0.13225,-1.7925 0.18363,-0.69375 0.74613,-0.8775 1.1075,-0.8775 0.47513,0 0.93163,0.28875 1.09025,0.79875 0.14113,0.475 0.14851,1.1075 0.14851,1.87125 0,0.65 0,1.30125 -0.11376,1.855 -0.17625,0.79875 -0.77349,0.9925 -1.125,0.9925"
         style="fill:#000000;fill-opacity:1;fill-rule:nonzero;stroke:none"
         id="path3007" />
      <path
         inkscape:connector-curvature="0"
         d="m 289.44748,144.168 c 0,-0.0375 0,-0.0625 -0.21125,-0.27375 -1.55125,-1.565 -1.94875,-3.9125 -1.94875,-5.81 0,-2.1625 0.4725,-4.3225 2,-5.875 0.16,-0.14875 0.16,-0.17375 0.16,-0.21125 0,-0.0862 -0.0487,-0.1225 -0.1225,-0.1225 -0.125,0 -1.2425,0.84375 -1.975,2.42125 -0.6325,1.365 -0.78375,2.74375 -0.78375,3.7875 0,0.96625 0.13625,2.47125 0.82,3.8725 0.74375,1.5275 1.8125,2.33375 1.9375,2.33375 0.0737,0 0.1225,-0.0375 0.1225,-0.1225"
         style="fill:#000000;fill-opacity:1;fill-rule:nonzero;stroke:none"
         id="path3009" />
      <path
         inkscape:connector-curvature="0"
         d="m 295.92373,137.2155 c 0,-0.99375 -0.06,-1.98875 -0.49625,-2.90625 -0.57,-1.19125 -1.59,-1.39125 -2.11125,-1.39125 -0.74375,0 -1.65,0.3225 -2.16,1.47625 -0.39625,0.8575 -0.45875,1.82625 -0.45875,2.82 0,0.93 0.0488,2.04875 0.55875,2.9925 0.53375,1.00625 1.44125,1.25375 2.04875,1.25375 0.67,0 1.615,-0.26125 2.16,-1.44125 0.39875,-0.855 0.45875,-1.82375 0.45875,-2.805 l 0,0.001 z m -2.62,3.9725 c -0.48375,0 -1.21625,-0.31 -1.44,-1.5025 -0.13625,-0.74625 -0.13625,-1.88875 -0.13625,-2.62125 0,-0.795 0,-1.61375 0.0975,-2.285 0.23625,-1.47625 1.1675,-1.5875 1.47875,-1.5875 0.41,0 1.22875,0.2225 1.465,1.4525 0.125,0.695 0.125,1.63875 0.125,2.42 0,0.93125 0,1.775 -0.13625,2.57 -0.185,1.18 -0.895,1.5525 -1.4525,1.5525"
         style="fill:#000000;fill-opacity:1;fill-rule:nonzero;stroke:none"
         id="path3011" />
      <path
         inkscape:connector-curvature="0"
         d="m 300.04998,138.08425 c 0,-0.96875 -0.13625,-2.4725 -0.81875,-3.875 -0.74625,-1.5275 -1.8125,-2.33375 -1.9375,-2.33375 -0.0737,0 -0.125,0.0488 -0.125,0.1225 0,0.0375 0,0.0625 0.23625,0.2875 1.21625,1.22875 1.92625,3.2025 1.92625,5.79875 0,2.1225 -0.46125,4.30875 -2,5.8725 -0.1625,0.14875 -0.1625,0.17375 -0.1625,0.21125 0,0.0737 0.0513,0.1225 0.125,0.1225 0.125,0 1.2425,-0.84375 1.975,-2.42 0.6325,-1.3675 0.78125,-2.74375 0.78125,-3.7875"
         style="fill:#000000;fill-opacity:1;fill-rule:nonzero;stroke:none"
         id="path3013" />
    </g>
    <g
       transform="matrix(2.8386656,0,0,2.8386656,-599.14876,-308.66978)"
       id="g3255">
      <path
         inkscape:connector-curvature="0"
         d="m 277.76373,155.368 c 0,-0.0238 0.0376,-0.16 0.0376,-0.17375 0,-0.0113 0,-0.1225 -0.14887,-0.1225 -0.125,0 -0.13625,0.0375 -0.18513,0.2475 l -0.72112,2.86875 c -1.97513,0.06 -3.79887,1.7125 -3.79887,3.4025 0,1.18 0.86862,2.16 2.38274,2.24625 -0.1,0.385 -0.185,0.78375 -0.28512,1.1675 -0.14887,0.58375 -0.27387,1.055 -0.27387,1.09125 0,0.125 0.0879,0.13625 0.14887,0.13625 0.0625,0 0.0874,-0.0113 0.125,-0.0488 0.0249,-0.025 0.10012,-0.3225 0.13625,-0.49625 l 0.47125,-1.85125 c 2,-0.06 3.80125,-1.73875 3.80125,-3.4025 0,-0.98 -0.65875,-2.1225 -2.38475,-2.24625 l 0.69475,-2.82 0,0.001 z m -2.37113,8.195 c -0.74412,-0.0375 -1.63912,-0.47125 -1.63912,-1.7125 0,-1.49 1.06888,-3.22875 2.918,-3.39125 l -1.27888,5.10375 z m 1.60113,-5.10375 c 0.94388,0.0513 1.65238,0.62125 1.65238,1.715 0,1.465 -1.06838,3.24 -2.93113,3.38875 l 1.27875,-5.10375"
         style="fill:#000000;fill-opacity:1;fill-rule:nonzero;stroke:none"
         id="path3015" />
      <path
         inkscape:connector-curvature="0"
         d="m 284.24761,162.7605 c 0,-0.96625 -0.11526,-1.6625 -0.52001,-2.2775 -0.2715,-0.40375 -0.81637,-0.75375 -1.52,-0.75375 -2.03912,0 -2.03912,2.39875 -2.03912,3.03125 0,0.6325 0,2.97875 2.03912,2.97875 2.03863,0 2.03863,-2.34625 2.03863,-2.97875 l 10e-4,0 z m -2.03901,2.7325 c -0.40387,0 -0.941,-0.23625 -1.11724,-0.9575 -0.12251,-0.52 -0.12251,-1.24 -0.12251,-1.89125 0,-0.64125 0,-1.30875 0.13225,-1.7925 0.18363,-0.69375 0.74613,-0.8775 1.1075,-0.8775 0.47513,0 0.93163,0.28875 1.09025,0.79875 0.14113,0.475 0.14851,1.1075 0.14851,1.87125 0,0.65 0,1.30125 -0.11376,1.855 -0.17625,0.79875 -0.77349,0.9925 -1.125,0.9925"
         style="fill:#000000;fill-opacity:1;fill-rule:nonzero;stroke:none"
         id="path3017" />
      <path
         inkscape:connector-curvature="0"
         d="m 289.44748,166.668 c 0,-0.0375 0,-0.0625 -0.21125,-0.27375 -1.55125,-1.565 -1.94875,-3.9125 -1.94875,-5.81 0,-2.1625 0.4725,-4.3225 2,-5.875 0.16,-0.14875 0.16,-0.17375 0.16,-0.21125 0,-0.0862 -0.0487,-0.1225 -0.1225,-0.1225 -0.125,0 -1.2425,0.84375 -1.975,2.42125 -0.6325,1.365 -0.78375,2.74375 -0.78375,3.7875 0,0.96625 0.13625,2.47125 0.82,3.8725 0.74375,1.5275 1.8125,2.33375 1.9375,2.33375 0.0737,0 0.1225,-0.0375 0.1225,-0.1225"
         style="fill:#000000;fill-opacity:1;fill-rule:nonzero;stroke:none"
         id="path3019" />
      <path
         inkscape:connector-curvature="0"
         d="m 293.86248,155.7405 c 0,-0.2975 0,-0.3225 -0.285,-0.3225 -0.77,0.795 -1.86375,0.795 -2.26,0.795 l 0,0.385 c 0.2475,0 0.98,0 1.6275,-0.3225 l 0,6.43125 c 0,0.4475 -0.0375,0.59625 -1.15625,0.59625 l -0.39625,0 0,0.385 c 0.43375,-0.0375 1.51625,-0.0375 2.01125,-0.0375 0.49625,0 1.57625,0 2.01125,0.0375 l 0,-0.385 -0.39875,0 c -1.1175,0 -1.15375,-0.13625 -1.15375,-0.59625 l 0,-6.96625"
         style="fill:#000000;fill-opacity:1;fill-rule:nonzero;stroke:none"
         id="path3021" />
      <path
         inkscape:connector-curvature="0"
         d="m 300.04998,160.58425 c 0,-0.96875 -0.13625,-2.4725 -0.81875,-3.875 -0.74625,-1.5275 -1.8125,-2.33375 -1.9375,-2.33375 -0.0737,0 -0.125,0.0488 -0.125,0.1225 0,0.0375 0,0.0625 0.23625,0.2875 1.21625,1.22875 1.92625,3.2025 1.92625,5.79875 0,2.1225 -0.46125,4.30875 -2,5.8725 -0.1625,0.14875 -0.1625,0.17375 -0.1625,0.21125 0,0.0737 0.0513,0.1225 0.125,0.1225 0.125,0 1.2425,-0.84375 1.975,-2.42 0.6325,-1.3675 0.78125,-2.74375 0.78125,-3.7875"
         style="fill:#000000;fill-opacity:1;fill-rule:nonzero;stroke:none"
         id="path3023" />
      <path
         inkscape:connector-curvature="0"
         d="m 313.24373,159.628 c 0.185,0 0.4225,0 0.4225,-0.2475 0,-0.2475 -0.23625,-0.2475 -0.41,-0.2475 l -7.4375,0 c -0.17375,0 -0.41,0 -0.41,0.2475 0,0.2475 0.23625,0.2475 0.4225,0.2475 l 7.41375,0 -10e-4,0 z m 0.0112,2.4075 c 0.17375,0 0.41,0 0.41,-0.2475 0,-0.2475 -0.23625,-0.2475 -0.42125,-0.2475 l -7.41375,0 c -0.185,0 -0.42125,0 -0.42125,0.2475 0,0.2475 0.23625,0.2475 0.41,0.2475 l 7.4375,0"
         style="fill:#000000;fill-opacity:1;fill-rule:nonzero;stroke:none"
         id="path3025" />
      <path
         inkscape:connector-curvature="0"
         d="m 323.26373,155.368 c 0,-0.0238 0.0375,-0.16 0.0375,-0.17375 0,-0.0113 0,-0.1225 -0.14875,-0.1225 -0.125,0 -0.13625,0.0375 -0.185,0.2475 l -0.72125,2.86875 c -1.975,0.06 -3.79875,1.7125 -3.79875,3.4025 0,1.18 0.86875,2.16 2.3825,2.24625 -0.1,0.385 -0.185,0.78375 -0.285,1.1675 -0.14875,0.58375 -0.27375,1.055 -0.27375,1.09125 0,0.125 0.0875,0.13625 0.14875,0.13625 0.0625,0 0.0875,-0.0113 0.125,-0.0488 0.025,-0.025 0.1,-0.3225 0.13625,-0.49625 l 0.47125,-1.85125 c 2,-0.06 3.80125,-1.73875 3.80125,-3.4025 0,-0.98 -0.65875,-2.1225 -2.385,-2.24625 l 0.695,-2.82 0,0.001 z m -2.37125,8.195 c -0.74375,-0.0375 -1.63875,-0.47125 -1.63875,-1.7125 0,-1.49 1.06875,-3.22875 2.9175,-3.39125 l -1.27875,5.10375 z m 1.60125,-5.10375 c 0.94375,0.0513 1.6525,0.62125 1.6525,1.715 0,1.465 -1.06875,3.24 -2.93125,3.38875 l 1.27875,-5.10375"
         style="fill:#000000;fill-opacity:1;fill-rule:nonzero;stroke:none"
         id="path3027" />
      <path
         inkscape:connector-curvature="0"
         d="m 328.28123,159.9755 c 0,-0.23875 -0.0175,-0.24625 -0.26375,-0.24625 -0.5625,0.5525 -1.36125,0.56 -1.7225,0.56 l 0,0.31625 c 0.21125,0 0.79125,0 1.275,-0.24625 l 0,4.4825 c 0,0.29125 0,0.40375 -0.87875,0.40375 l -0.33375,0 0,0.31625 c 0.15875,-0.007 1.23875,-0.035 1.565,-0.035 0.27125,0 1.37875,0.0275 1.5725,0.035 l 0,-0.31625 -0.33375,0 c -0.87875,0 -0.87875,-0.11375 -0.87875,-0.40375 l 0,-4.8675"
         style="fill:#000000;fill-opacity:1;fill-rule:nonzero;stroke:none"
         id="path3029" />
      <path
         inkscape:connector-curvature="0"
         d="m 334.94748,166.668 c 0,-0.0375 0,-0.0625 -0.21125,-0.27375 -1.55125,-1.565 -1.94875,-3.9125 -1.94875,-5.81 0,-2.1625 0.4725,-4.3225 2,-5.875 0.16,-0.14875 0.16,-0.17375 0.16,-0.21125 0,-0.0862 -0.0487,-0.1225 -0.1225,-0.1225 -0.125,0 -1.2425,0.84375 -1.975,2.42125 -0.6325,1.365 -0.78375,2.74375 -0.78375,3.7875 0,0.96625 0.13625,2.47125 0.82,3.8725 0.74375,1.5275 1.8125,2.33375 1.9375,2.33375 0.0737,0 0.1225,-0.0375 0.1225,-0.1225"
         style="fill:#000000;fill-opacity:1;fill-rule:nonzero;stroke:none"
         id="path3031" />
      <path
         inkscape:connector-curvature="0"
         d="m 341.42373,159.7155 c 0,-0.99375 -0.06,-1.98875 -0.49625,-2.90625 -0.57,-1.19125 -1.59,-1.39125 -2.11125,-1.39125 -0.74375,0 -1.65,0.3225 -2.16,1.47625 -0.39625,0.8575 -0.45875,1.82625 -0.45875,2.82 0,0.93 0.0488,2.04875 0.55875,2.9925 0.53375,1.00625 1.44125,1.25375 2.04875,1.25375 0.67,0 1.615,-0.26125 2.16,-1.44125 0.39875,-0.855 0.45875,-1.82375 0.45875,-2.805 l 0,0.001 z m -2.62,3.9725 c -0.48375,0 -1.21625,-0.31 -1.44,-1.5025 -0.13625,-0.74625 -0.13625,-1.88875 -0.13625,-2.62125 0,-0.795 0,-1.61375 0.0975,-2.285 0.23625,-1.47625 1.1675,-1.5875 1.47875,-1.5875 0.41,0 1.22875,0.2225 1.465,1.4525 0.125,0.695 0.125,1.63875 0.125,2.42 0,0.93125 0,1.775 -0.13625,2.57 -0.185,1.18 -0.895,1.5525 -1.4525,1.5525"
         style="fill:#000000;fill-opacity:1;fill-rule:nonzero;stroke:none"
         id="path3033" />
      <path
         inkscape:connector-curvature="0"
         d="m 345.54998,160.58425 c 0,-0.96875 -0.13625,-2.4725 -0.81875,-3.875 -0.74625,-1.5275 -1.8125,-2.33375 -1.9375,-2.33375 -0.0737,0 -0.125,0.0488 -0.125,0.1225 0,0.0375 0,0.0625 0.23625,0.2875 1.21625,1.22875 1.92625,3.2025 1.92625,5.79875 0,2.1225 -0.46125,4.30875 -2,5.8725 -0.1625,0.14875 -0.1625,0.17375 -0.1625,0.21125 0,0.0737 0.0513,0.1225 0.125,0.1225 0.125,0 1.2425,-0.84375 1.975,-2.42 0.6325,-1.3675 0.78125,-2.74375 0.78125,-3.7875"
         style="fill:#000000;fill-opacity:1;fill-rule:nonzero;stroke:none"
         id="path3035" />
    </g>
    <g
       transform="matrix(2.8386656,0,0,2.8386656,-293.63415,-307.94424)"
       id="g3268">
      <path
         inkscape:connector-curvature="0"
         d="m 277.76373,177.743 c 0,-0.0238 0.0376,-0.16 0.0376,-0.17375 0,-0.0113 0,-0.1225 -0.14887,-0.1225 -0.125,0 -0.13625,0.0375 -0.18513,0.2475 l -0.72112,2.86875 c -1.97513,0.06 -3.79887,1.7125 -3.79887,3.4025 0,1.18 0.86862,2.16 2.38274,2.24625 -0.1,0.385 -0.185,0.78375 -0.28512,1.1675 -0.14887,0.58375 -0.27387,1.055 -0.27387,1.09125 0,0.125 0.0879,0.13625 0.14887,0.13625 0.0625,0 0.0874,-0.0113 0.125,-0.0488 0.0249,-0.025 0.10012,-0.3225 0.13625,-0.49625 l 0.47125,-1.85125 c 2,-0.06 3.80125,-1.73875 3.80125,-3.4025 0,-0.98 -0.65875,-2.1225 -2.38475,-2.24625 l 0.69475,-2.82 0,0.001 z m -2.37113,8.195 c -0.74412,-0.0375 -1.63912,-0.47125 -1.63912,-1.7125 0,-1.49 1.06888,-3.22875 2.918,-3.39125 l -1.27888,5.10375 z m 1.60113,-5.10375 c 0.94388,0.0513 1.65238,0.62125 1.65238,1.715 0,1.465 -1.06838,3.24 -2.93113,3.38875 l 1.27875,-5.10375"
         style="fill:#000000;fill-opacity:1;fill-rule:nonzero;stroke:none"
         id="path3037" />
      <path
         inkscape:connector-curvature="0"
         d="m 282.65636,182.3505 c 0,-0.23875 -0.0176,-0.24625 -0.26376,-0.24625 -0.5625,0.5525 -1.36124,0.56 -1.72262,0.56 l 0,0.31625 c 0.2115,0 0.791,0 1.27488,-0.24625 l 0,4.4825 c 0,0.29125 0,0.40375 -0.87888,0.40375 l -0.3335,0 0,0.31625 c 0.15875,-0.007 1.23875,-0.035 1.565,-0.035 0.2715,0 1.37887,0.0275 1.57275,0.035 l 0,-0.31625 -0.334,0 c -0.87888,0 -0.87888,-0.11375 -0.87888,-0.40375 l 0,-4.8675"
         style="fill:#000000;fill-opacity:1;fill-rule:nonzero;stroke:none"
         id="path3039" />
      <path
         inkscape:connector-curvature="0"
         d="m 289.44748,189.043 c 0,-0.0375 0,-0.0625 -0.21125,-0.27375 -1.55125,-1.565 -1.94875,-3.9125 -1.94875,-5.81 0,-2.1625 0.4725,-4.3225 2,-5.875 0.16,-0.14875 0.16,-0.17375 0.16,-0.21125 0,-0.0862 -0.0487,-0.1225 -0.1225,-0.1225 -0.125,0 -1.2425,0.84375 -1.975,2.42125 -0.6325,1.365 -0.78375,2.74375 -0.78375,3.7875 0,0.96625 0.13625,2.47125 0.82,3.8725 0.74375,1.5275 1.8125,2.33375 1.9375,2.33375 0.0737,0 0.1225,-0.0375 0.1225,-0.1225"
         style="fill:#000000;fill-opacity:1;fill-rule:nonzero;stroke:none"
         id="path3041" />
      <path
         inkscape:connector-curvature="0"
         d="m 293.86248,178.1155 c 0,-0.2975 0,-0.3225 -0.285,-0.3225 -0.77,0.795 -1.86375,0.795 -2.26,0.795 l 0,0.385 c 0.2475,0 0.98,0 1.6275,-0.3225 l 0,6.43125 c 0,0.4475 -0.0375,0.59625 -1.15625,0.59625 l -0.39625,0 0,0.385 c 0.43375,-0.0375 1.51625,-0.0375 2.01125,-0.0375 0.49625,0 1.57625,0 2.01125,0.0375 l 0,-0.385 -0.39875,0 c -1.1175,0 -1.15375,-0.13625 -1.15375,-0.59625 l 0,-6.96625"
         style="fill:#000000;fill-opacity:1;fill-rule:nonzero;stroke:none"
         id="path3043" />
      <path
         inkscape:connector-curvature="0"
         d="m 300.04998,182.95925 c 0,-0.96875 -0.13625,-2.4725 -0.81875,-3.875 -0.74625,-1.5275 -1.8125,-2.33375 -1.9375,-2.33375 -0.0737,0 -0.125,0.0488 -0.125,0.1225 0,0.0375 0,0.0625 0.23625,0.2875 1.21625,1.22875 1.92625,3.2025 1.92625,5.79875 0,2.1225 -0.46125,4.30875 -2,5.8725 -0.1625,0.14875 -0.1625,0.17375 -0.1625,0.21125 0,0.0737 0.0513,0.1225 0.125,0.1225 0.125,0 1.2425,-0.84375 1.975,-2.42 0.6325,-1.3675 0.78125,-2.74375 0.78125,-3.7875"
         style="fill:#000000;fill-opacity:1;fill-rule:nonzero;stroke:none"
         id="path3045" />
      <path
         inkscape:connector-curvature="0"
         d="m 313.24373,182.003 c 0.185,0 0.4225,0 0.4225,-0.2475 0,-0.2475 -0.23625,-0.2475 -0.41,-0.2475 l -7.4375,0 c -0.17375,0 -0.41,0 -0.41,0.2475 0,0.2475 0.23625,0.2475 0.4225,0.2475 l 7.41375,0 -10e-4,0 z m 0.0112,2.4075 c 0.17375,0 0.41,0 0.41,-0.2475 0,-0.2475 -0.23625,-0.2475 -0.42125,-0.2475 l -7.41375,0 c -0.185,0 -0.42125,0 -0.42125,0.2475 0,0.2475 0.23625,0.2475 0.41,0.2475 l 7.4375,0"
         style="fill:#000000;fill-opacity:1;fill-rule:nonzero;stroke:none"
         id="path3047" />
      <path
         inkscape:connector-curvature="0"
         d="m 323.26373,177.743 c 0,-0.0238 0.0375,-0.16 0.0375,-0.17375 0,-0.0113 0,-0.1225 -0.14875,-0.1225 -0.125,0 -0.13625,0.0375 -0.185,0.2475 l -0.72125,2.86875 c -1.975,0.06 -3.79875,1.7125 -3.79875,3.4025 0,1.18 0.86875,2.16 2.3825,2.24625 -0.1,0.385 -0.185,0.78375 -0.285,1.1675 -0.14875,0.58375 -0.27375,1.055 -0.27375,1.09125 0,0.125 0.0875,0.13625 0.14875,0.13625 0.0625,0 0.0875,-0.0113 0.125,-0.0488 0.025,-0.025 0.1,-0.3225 0.13625,-0.49625 l 0.47125,-1.85125 c 2,-0.06 3.80125,-1.73875 3.80125,-3.4025 0,-0.98 -0.65875,-2.1225 -2.385,-2.24625 l 0.695,-2.82 0,0.001 z m -2.37125,8.195 c -0.74375,-0.0375 -1.63875,-0.47125 -1.63875,-1.7125 0,-1.49 1.06875,-3.22875 2.9175,-3.39125 l -1.27875,5.10375 z m 1.60125,-5.10375 c 0.94375,0.0513 1.6525,0.62125 1.6525,1.715 0,1.465 -1.06875,3.24 -2.93125,3.38875 l 1.27875,-5.10375"
         style="fill:#000000;fill-opacity:1;fill-rule:nonzero;stroke:none"
         id="path3049" />
      <path
         inkscape:connector-curvature="0"
         d="m 329.77498,186.338 -0.29875,0 c -0.025,0.19375 -0.11375,0.7125 -0.22875,0.80125 -0.07,0.0525 -0.74625,0.0525 -0.86875,0.0525 l -1.6175,0 c 0.9225,-0.81875 1.23,-1.065 1.7575,-1.47625 0.65,-0.52 1.25625,-1.065 1.25625,-1.89875 0,-1.065 -0.93125,-1.7125 -2.05625,-1.7125 -1.09,0 -1.8275,0.76375 -1.8275,1.5725 0,0.4475 0.37875,0.4925 0.46625,0.4925 0.21125,0 0.465,-0.15 0.465,-0.46625 0,-0.15875 -0.06,-0.465 -0.5175,-0.465 0.27125,-0.625 0.86875,-0.81875 1.28375,-0.81875 0.87875,0 1.33625,0.685 1.33625,1.39875 0,0.76375 -0.545,1.37125 -0.82625,1.6875 l -2.11875,2.09125 c -0.0875,0.0775 -0.0875,0.0963 -0.0875,0.34125 l 3.62125,0 0.26375,-1.6"
         style="fill:#000000;fill-opacity:1;fill-rule:nonzero;stroke:none"
         id="path3051" />
      <path
         inkscape:connector-curvature="0"
         d="m 334.94748,189.043 c 0,-0.0375 0,-0.0625 -0.21125,-0.27375 -1.55125,-1.565 -1.94875,-3.9125 -1.94875,-5.81 0,-2.1625 0.4725,-4.3225 2,-5.875 0.16,-0.14875 0.16,-0.17375 0.16,-0.21125 0,-0.0862 -0.0487,-0.1225 -0.1225,-0.1225 -0.125,0 -1.2425,0.84375 -1.975,2.42125 -0.6325,1.365 -0.78375,2.74375 -0.78375,3.7875 0,0.96625 0.13625,2.47125 0.82,3.8725 0.74375,1.5275 1.8125,2.33375 1.9375,2.33375 0.0737,0 0.1225,-0.0375 0.1225,-0.1225"
         style="fill:#000000;fill-opacity:1;fill-rule:nonzero;stroke:none"
         id="path3053" />
      <path
         inkscape:connector-curvature="0"
         d="m 341.42373,182.0905 c 0,-0.99375 -0.06,-1.98875 -0.49625,-2.90625 -0.57,-1.19125 -1.59,-1.39125 -2.11125,-1.39125 -0.74375,0 -1.65,0.3225 -2.16,1.47625 -0.39625,0.8575 -0.45875,1.82625 -0.45875,2.82 0,0.93 0.0488,2.04875 0.55875,2.9925 0.53375,1.00625 1.44125,1.25375 2.04875,1.25375 0.67,0 1.615,-0.26125 2.16,-1.44125 0.39875,-0.855 0.45875,-1.82375 0.45875,-2.805 l 0,0.001 z m -2.62,3.9725 c -0.48375,0 -1.21625,-0.31 -1.44,-1.5025 -0.13625,-0.74625 -0.13625,-1.88875 -0.13625,-2.62125 0,-0.795 0,-1.61375 0.0975,-2.285 0.23625,-1.47625 1.1675,-1.5875 1.47875,-1.5875 0.41,0 1.22875,0.2225 1.465,1.4525 0.125,0.695 0.125,1.63875 0.125,2.42 0,0.93125 0,1.775 -0.13625,2.57 -0.185,1.18 -0.895,1.5525 -1.4525,1.5525"
         style="fill:#000000;fill-opacity:1;fill-rule:nonzero;stroke:none"
         id="path3055" />
      <path
         inkscape:connector-curvature="0"
         d="m 345.54998,182.95925 c 0,-0.96875 -0.13625,-2.4725 -0.81875,-3.875 -0.74625,-1.5275 -1.8125,-2.33375 -1.9375,-2.33375 -0.0737,0 -0.125,0.0488 -0.125,0.1225 0,0.0375 0,0.0625 0.23625,0.2875 1.21625,1.22875 1.92625,3.2025 1.92625,5.79875 0,2.1225 -0.46125,4.30875 -2,5.8725 -0.1625,0.14875 -0.1625,0.17375 -0.1625,0.21125 0,0.0737 0.0513,0.1225 0.125,0.1225 0.125,0 1.2425,-0.84375 1.975,-2.42 0.6325,-1.3675 0.78125,-2.74375 0.78125,-3.7875"
         style="fill:#000000;fill-opacity:1;fill-rule:nonzero;stroke:none"
         id="path3057" />
    </g>
    <g
       transform="matrix(2.8386656,0,0,2.8386656,135.3021,-443.18171)"
       id="g3281">
      <path
         inkscape:connector-curvature="0"
         d="m 277.76373,200.118 c 0,-0.0238 0.0376,-0.16 0.0376,-0.17375 0,-0.0113 0,-0.1225 -0.14887,-0.1225 -0.125,0 -0.13625,0.0375 -0.18513,0.2475 l -0.72112,2.86875 c -1.97513,0.06 -3.79887,1.7125 -3.79887,3.4025 0,1.18 0.86862,2.16 2.38274,2.24625 -0.1,0.385 -0.185,0.78375 -0.28512,1.1675 -0.14887,0.58375 -0.27387,1.055 -0.27387,1.09125 0,0.125 0.0879,0.13625 0.14887,0.13625 0.0625,0 0.0874,-0.0113 0.125,-0.0488 0.0249,-0.025 0.10012,-0.3225 0.13625,-0.49625 l 0.47125,-1.85125 c 2,-0.06 3.80125,-1.73875 3.80125,-3.4025 0,-0.98 -0.65875,-2.1225 -2.38475,-2.24625 l 0.69475,-2.82 0,0.001 z m -2.37113,8.195 c -0.74412,-0.0375 -1.63912,-0.47125 -1.63912,-1.7125 0,-1.49 1.06888,-3.22875 2.918,-3.39125 l -1.27888,5.10375 z m 1.60113,-5.10375 c 0.94388,0.0513 1.65238,0.62125 1.65238,1.715 0,1.465 -1.06838,3.24 -2.93113,3.38875 l 1.27875,-5.10375"
         style="fill:#000000;fill-opacity:1;fill-rule:nonzero;stroke:none"
         id="path3059" />
      <path
         inkscape:connector-curvature="0"
         d="m 284.14998,208.713 -0.29887,0 c -0.0249,0.19375 -0.11376,0.7125 -0.2285,0.80125 -0.0702,0.0525 -0.74651,0.0525 -0.86913,0.0525 l -1.61713,0 c 0.92238,-0.81875 1.22988,-1.065 1.75725,-1.47625 0.64988,-0.52 1.25638,-1.065 1.25638,-1.89875 0,-1.065 -0.93112,-1.7125 -2.05612,-1.7125 -1.09038,0 -1.82763,0.76375 -1.82763,1.5725 0,0.4475 0.37887,0.4925 0.46625,0.4925 0.2115,0 0.46488,-0.15 0.46488,-0.46625 0,-0.15875 -0.0601,-0.465 -0.51763,-0.465 0.2715,-0.625 0.86912,-0.81875 1.28425,-0.81875 0.87838,0 1.33588,0.685 1.33588,1.39875 0,0.76375 -0.54488,1.37125 -0.82613,1.6875 l -2.11862,2.09125 c -0.0875,0.0775 -0.0875,0.0963 -0.0875,0.34125 l 3.62113,0 0.26375,-1.6"
         style="fill:#000000;fill-opacity:1;fill-rule:nonzero;stroke:none"
         id="path3061" />
      <path
         inkscape:connector-curvature="0"
         d="m 289.44748,211.418 c 0,-0.0375 0,-0.0625 -0.21125,-0.27375 -1.55125,-1.565 -1.94875,-3.9125 -1.94875,-5.81 0,-2.1625 0.4725,-4.3225 2,-5.875 0.16,-0.14875 0.16,-0.17375 0.16,-0.21125 0,-0.0862 -0.0487,-0.1225 -0.1225,-0.1225 -0.125,0 -1.2425,0.84375 -1.975,2.42125 -0.6325,1.365 -0.78375,2.74375 -0.78375,3.7875 0,0.96625 0.13625,2.47125 0.82,3.8725 0.74375,1.5275 1.8125,2.33375 1.9375,2.33375 0.0737,0 0.1225,-0.0375 0.1225,-0.1225"
         style="fill:#000000;fill-opacity:1;fill-rule:nonzero;stroke:none"
         id="path3063" />
      <path
         inkscape:connector-curvature="0"
         d="m 293.86248,200.4905 c 0,-0.2975 0,-0.3225 -0.285,-0.3225 -0.77,0.795 -1.86375,0.795 -2.26,0.795 l 0,0.385 c 0.2475,0 0.98,0 1.6275,-0.3225 l 0,6.43125 c 0,0.4475 -0.0375,0.59625 -1.15625,0.59625 l -0.39625,0 0,0.385 c 0.43375,-0.0375 1.51625,-0.0375 2.01125,-0.0375 0.49625,0 1.57625,0 2.01125,0.0375 l 0,-0.385 -0.39875,0 c -1.1175,0 -1.15375,-0.13625 -1.15375,-0.59625 l 0,-6.96625"
         style="fill:#000000;fill-opacity:1;fill-rule:nonzero;stroke:none"
         id="path3065" />
      <path
         inkscape:connector-curvature="0"
         d="m 300.04998,205.33425 c 0,-0.96875 -0.13625,-2.4725 -0.81875,-3.875 -0.74625,-1.5275 -1.8125,-2.33375 -1.9375,-2.33375 -0.0737,0 -0.125,0.0488 -0.125,0.1225 0,0.0375 0,0.0625 0.23625,0.2875 1.21625,1.22875 1.92625,3.2025 1.92625,5.79875 0,2.1225 -0.46125,4.30875 -2,5.8725 -0.1625,0.14875 -0.1625,0.17375 -0.1625,0.21125 0,0.0737 0.0513,0.1225 0.125,0.1225 0.125,0 1.2425,-0.84375 1.975,-2.42 0.6325,-1.3675 0.78125,-2.74375 0.78125,-3.7875"
         style="fill:#000000;fill-opacity:1;fill-rule:nonzero;stroke:none"
         id="path3067" />
    </g>
    <g
       transform="matrix(2.8386611,0,0,2.8386725,-1506.4924,915.95532)"
       id="g3625">
      <path
         inkscape:connector-curvature="0"
         d="m 584.05078,-191.66442 c 0,-0.0238 0.0376,-0.16 0.0376,-0.17375 0,-0.0113 0,-0.1225 -0.14887,-0.1225 -0.125,0 -0.13625,0.0375 -0.18512,0.2475 l -0.72113,2.86875 c -1.97513,0.06 -3.79887,1.7125 -3.79887,3.4025 0,1.18 0.86862,2.16 2.38275,2.24625 -0.10001,0.385 -0.18501,0.78375 -0.28513,1.1675 -0.14888,0.58375 -0.27388,1.055 -0.27388,1.09125 0,0.125 0.0879,0.13625 0.14888,0.13625 0.0625,0 0.0874,-0.0112 0.125,-0.0488 0.0249,-0.025 0.10012,-0.3225 0.13625,-0.49625 l 0.47125,-1.85125 c 2,-0.06 3.80125,-1.73875 3.80125,-3.4025 0,-0.98 -0.65875,-2.1225 -2.38475,-2.24625 l 0.69475,-2.82 0,0.001 z m -2.37112,8.195 c -0.74413,-0.0375 -1.63913,-0.47125 -1.63913,-1.7125 0,-1.49 1.06888,-3.22875 2.918,-3.39125 l -1.27887,5.10375 z m 1.60112,-5.10375 c 0.94387,0.0513 1.65237,0.62125 1.65237,1.715 0,1.465 -1.06837,3.24 -2.93112,3.38875 l 1.27875,-5.10375"
         style="fill:#000000;fill-opacity:1;fill-rule:nonzero;stroke:none"
         id="path3382" />
      <path
         inkscape:connector-curvature="0"
         d="m 590.10941,-180.36442 c 0,-0.0375 0,-0.0625 -0.211,-0.27375 -1.55125,-1.565 -1.94863,-3.9125 -1.94863,-5.81 0,-2.1625 0.47213,-4.3225 2,-5.875 0.15963,-0.14875 0.15963,-0.17375 0.15963,-0.21125 0,-0.0862 -0.0489,-0.1225 -0.12263,-0.1225 -0.125,0 -1.24213,0.84375 -1.9745,2.42125 -0.63287,1.365 -0.78425,2.74375 -0.78425,3.7875 0,0.96625 0.13675,2.47125 0.82037,3.8725 0.74363,1.5275 1.8125,2.33375 1.9375,2.33375 0.0736,0 0.1225,-0.0375 0.1225,-0.1225"
         style="fill:#000000;fill-opacity:1;fill-rule:nonzero;stroke:none"
         id="path3384" />
      <path
         inkscape:connector-curvature="0"
         d="m 596.58578,-187.31692 c 0,-0.99375 -0.06,-1.98875 -0.49625,-2.90625 -0.57,-1.19125 -1.59,-1.39125 -2.11125,-1.39125 -0.74375,0 -1.65,0.3225 -2.16,1.47625 -0.39625,0.8575 -0.45875,1.82625 -0.45875,2.82 0,0.93 0.0488,2.04875 0.55875,2.9925 0.53375,1.00625 1.44125,1.25375 2.04875,1.25375 0.67,0 1.615,-0.26125 2.16,-1.44125 0.39875,-0.855 0.45875,-1.82375 0.45875,-2.805 l 0,0.001 z m -2.62,3.9725 c -0.48375,0 -1.21625,-0.31 -1.44,-1.5025 -0.13625,-0.74625 -0.13625,-1.88875 -0.13625,-2.62125 0,-0.795 0,-1.61375 0.0975,-2.285 0.23625,-1.47625 1.1675,-1.5875 1.47875,-1.5875 0.41,0 1.22875,0.2225 1.465,1.4525 0.125,0.695 0.125,1.63875 0.125,2.42 0,0.93125 0,1.775 -0.13625,2.57 -0.185,1.18 -0.895,1.5525 -1.4525,1.5525"
         style="fill:#000000;fill-opacity:1;fill-rule:nonzero;stroke:none"
         id="path3386" />
      <path
         inkscape:connector-curvature="0"
         d="m 600.71203,-186.44817 c 0,-0.96875 -0.13625,-2.4725 -0.81875,-3.875 -0.74625,-1.5275 -1.8125,-2.33375 -1.9375,-2.33375 -0.0738,0 -0.125,0.0488 -0.125,0.1225 0,0.0375 0,0.0625 0.23625,0.2875 1.21625,1.22875 1.92625,3.2025 1.92625,5.79875 0,2.1225 -0.46125,4.30875 -2,5.8725 -0.1625,0.14875 -0.1625,0.17375 -0.1625,0.21125 0,0.0737 0.0512,0.1225 0.125,0.1225 0.125,0 1.2425,-0.84375 1.975,-2.42 0.6325,-1.3675 0.78125,-2.74375 0.78125,-3.7875"
         style="fill:#000000;fill-opacity:1;fill-rule:nonzero;stroke:none"
         id="path3388" />
    </g>
    <g
       transform="matrix(2.8386611,0,0,2.8386725,-1427.8124,674.26268)"
       id="g3631">
      <path
         inkscape:connector-curvature="0"
         d="m 584.05078,-169.28942 c 0,-0.0238 0.0376,-0.16 0.0376,-0.17375 0,-0.0113 0,-0.1225 -0.14887,-0.1225 -0.125,0 -0.13625,0.0375 -0.18512,0.2475 l -0.72113,2.86875 c -1.97513,0.06 -3.79887,1.7125 -3.79887,3.4025 0,1.18 0.86862,2.16 2.38275,2.24625 -0.10001,0.385 -0.18501,0.78375 -0.28513,1.1675 -0.14888,0.58375 -0.27388,1.055 -0.27388,1.09125 0,0.125 0.0879,0.13625 0.14888,0.13625 0.0625,0 0.0874,-0.0112 0.125,-0.0488 0.0249,-0.025 0.10012,-0.3225 0.13625,-0.49625 l 0.47125,-1.85125 c 2,-0.06 3.80125,-1.73875 3.80125,-3.4025 0,-0.98 -0.65875,-2.1225 -2.38475,-2.24625 l 0.69475,-2.82 0,0.001 z m -2.37112,8.195 c -0.74413,-0.0375 -1.63913,-0.47125 -1.63913,-1.7125 0,-1.49 1.06888,-3.22875 2.918,-3.39125 l -1.27887,5.10375 z m 1.60112,-5.10375 c 0.94387,0.0513 1.65237,0.62125 1.65237,1.715 0,1.465 -1.06837,3.24 -2.93112,3.38875 l 1.27875,-5.10375"
         style="fill:#000000;fill-opacity:1;fill-rule:nonzero;stroke:none"
         id="path3390" />
      <path
         inkscape:connector-curvature="0"
         d="m 590.10941,-157.98942 c 0,-0.0375 0,-0.0625 -0.211,-0.27375 -1.55125,-1.565 -1.94863,-3.9125 -1.94863,-5.81 0,-2.1625 0.47213,-4.3225 2,-5.875 0.15963,-0.14875 0.15963,-0.17375 0.15963,-0.21125 0,-0.0862 -0.0489,-0.1225 -0.12263,-0.1225 -0.125,0 -1.24213,0.84375 -1.9745,2.42125 -0.63287,1.365 -0.78425,2.74375 -0.78425,3.7875 0,0.96625 0.13675,2.47125 0.82037,3.8725 0.74363,1.5275 1.8125,2.33375 1.9375,2.33375 0.0736,0 0.1225,-0.0375 0.1225,-0.1225"
         style="fill:#000000;fill-opacity:1;fill-rule:nonzero;stroke:none"
         id="path3392" />
      <path
         inkscape:connector-curvature="0"
         d="m 596.58578,-164.94192 c 0,-0.99375 -0.06,-1.98875 -0.49625,-2.90625 -0.57,-1.19125 -1.59,-1.39125 -2.11125,-1.39125 -0.74375,0 -1.65,0.3225 -2.16,1.47625 -0.39625,0.8575 -0.45875,1.82625 -0.45875,2.82 0,0.93 0.0488,2.04875 0.55875,2.9925 0.53375,1.00625 1.44125,1.25375 2.04875,1.25375 0.67,0 1.615,-0.26125 2.16,-1.44125 0.39875,-0.855 0.45875,-1.82375 0.45875,-2.805 l 0,0.001 z m -2.62,3.9725 c -0.48375,0 -1.21625,-0.31 -1.44,-1.5025 -0.13625,-0.74625 -0.13625,-1.88875 -0.13625,-2.62125 0,-0.795 0,-1.61375 0.0975,-2.285 0.23625,-1.47625 1.1675,-1.5875 1.47875,-1.5875 0.41,0 1.22875,0.2225 1.465,1.4525 0.125,0.695 0.125,1.63875 0.125,2.42 0,0.93125 0,1.775 -0.13625,2.57 -0.185,1.18 -0.895,1.5525 -1.4525,1.5525"
         style="fill:#000000;fill-opacity:1;fill-rule:nonzero;stroke:none"
         id="path3394" />
      <path
         inkscape:connector-curvature="0"
         d="m 599.50953,-161.62817 c 0,-0.36 -0.29875,-0.65875 -0.65875,-0.65875 -0.36125,0 -0.65875,0.29875 -0.65875,0.65875 0,0.35875 0.2975,0.65875 0.65875,0.65875 0.36,0 0.65875,-0.29875 0.65875,-0.65875"
         style="fill:#000000;fill-opacity:1;fill-rule:nonzero;stroke:none"
         id="path3396" />
      <path
         inkscape:connector-curvature="0"
         d="m 604.22578,-165.34067 c 1.0175,-0.33625 1.73875,-1.205 1.73875,-2.185 0,-1.0175 -1.09375,-1.7125 -2.285,-1.7125 -1.25375,0 -2.1975,0.74375 -2.1975,1.6875 0,0.41 0.27375,0.64625 0.6325,0.64625 0.385,0 0.6325,-0.27375 0.6325,-0.6325 0,-0.62125 -0.58375,-0.62125 -0.77,-0.62125 0.385,-0.61 1.205,-0.77 1.6525,-0.77 0.5075,0 1.19125,0.27375 1.19125,1.39 0,0.14875 -0.025,0.86875 -0.3475,1.41625 -0.3725,0.59625 -0.795,0.6325 -1.105,0.645 -0.1,0.0138 -0.39625,0.0375 -0.48375,0.0375 -0.1,0.0138 -0.185,0.025 -0.185,0.15 0,0.135 0.0863,0.135 0.2975,0.135 l 0.5475,0 c 1.0175,0 1.47875,0.84625 1.47875,2.0625 0,1.6875 -0.8575,2.04875 -1.40375,2.04875 -0.53375,0 -1.465,-0.21125 -1.9,-0.94375 0.435,0.06 0.82,-0.21125 0.82,-0.68375 0,-0.4475 -0.33625,-0.695 -0.695,-0.695 -0.29875,0 -0.695,0.17375 -0.695,0.72125 0,1.12875 1.15375,1.94875 2.5075,1.94875 1.51625,0 2.645,-1.13125 2.645,-2.39625 0,-1.0175 -0.78125,-1.98625 -2.0725,-2.2475"
         style="fill:#000000;fill-opacity:1;fill-rule:nonzero;stroke:none"
         id="path3398" />
      <path
         inkscape:connector-curvature="0"
         d="m 610.35078,-165.34067 c 1.0175,-0.33625 1.73875,-1.205 1.73875,-2.185 0,-1.0175 -1.09375,-1.7125 -2.285,-1.7125 -1.25375,0 -2.1975,0.74375 -2.1975,1.6875 0,0.41 0.27375,0.64625 0.6325,0.64625 0.385,0 0.6325,-0.27375 0.6325,-0.6325 0,-0.62125 -0.58375,-0.62125 -0.77,-0.62125 0.385,-0.61 1.205,-0.77 1.6525,-0.77 0.5075,0 1.19125,0.27375 1.19125,1.39 0,0.14875 -0.025,0.86875 -0.3475,1.41625 -0.3725,0.59625 -0.795,0.6325 -1.105,0.645 -0.1,0.0138 -0.39625,0.0375 -0.48375,0.0375 -0.1,0.0138 -0.185,0.025 -0.185,0.15 0,0.135 0.0863,0.135 0.2975,0.135 l 0.5475,0 c 1.0175,0 1.47875,0.84625 1.47875,2.0625 0,1.6875 -0.8575,2.04875 -1.40375,2.04875 -0.53375,0 -1.465,-0.21125 -1.9,-0.94375 0.435,0.06 0.82,-0.21125 0.82,-0.68375 0,-0.4475 -0.33625,-0.695 -0.695,-0.695 -0.29875,0 -0.695,0.17375 -0.695,0.72125 0,1.12875 1.15375,1.94875 2.5075,1.94875 1.51625,0 2.645,-1.13125 2.645,-2.39625 0,-1.0175 -0.78125,-1.98625 -2.0725,-2.2475"
         style="fill:#000000;fill-opacity:1;fill-rule:nonzero;stroke:none"
         id="path3400" />
      <path
         inkscape:connector-curvature="0"
         d="m 616.58703,-164.07317 c 0,-0.96875 -0.13625,-2.4725 -0.81875,-3.875 -0.74625,-1.5275 -1.8125,-2.33375 -1.9375,-2.33375 -0.0738,0 -0.125,0.0488 -0.125,0.1225 0,0.0375 0,0.0625 0.23625,0.2875 1.21625,1.22875 1.92625,3.2025 1.92625,5.79875 0,2.1225 -0.46125,4.30875 -2,5.8725 -0.1625,0.14875 -0.1625,0.17375 -0.1625,0.21125 0,0.0737 0.0512,0.1225 0.125,0.1225 0.125,0 1.2425,-0.84375 1.975,-2.42 0.6325,-1.3675 0.78125,-2.74375 0.78125,-3.7875"
         style="fill:#000000;fill-opacity:1;fill-rule:nonzero;stroke:none"
         id="path3402" />
    </g>
    <g
       transform="matrix(2.8386611,0,0,2.8386725,-1119.1025,684.45192)"
       id="g3640">
      <path
         inkscape:connector-curvature="0"
         d="m 584.05078,-146.91442 c 0,-0.0238 0.0376,-0.16 0.0376,-0.17375 0,-0.0113 0,-0.1225 -0.14887,-0.1225 -0.125,0 -0.13625,0.0375 -0.18512,0.2475 l -0.72113,2.86875 c -1.97513,0.06 -3.79887,1.7125 -3.79887,3.4025 0,1.18 0.86862,2.16 2.38275,2.24625 -0.10001,0.385 -0.18501,0.78375 -0.28513,1.1675 -0.14888,0.58375 -0.27388,1.055 -0.27388,1.09125 0,0.125 0.0879,0.13625 0.14888,0.13625 0.0625,0 0.0874,-0.0112 0.125,-0.0488 0.0249,-0.025 0.10012,-0.3225 0.13625,-0.49625 l 0.47125,-1.85125 c 2,-0.06 3.80125,-1.73875 3.80125,-3.4025 0,-0.98 -0.65875,-2.1225 -2.38475,-2.24625 l 0.69475,-2.82 0,0.001 z m -2.37112,8.195 c -0.74413,-0.0375 -1.63913,-0.47125 -1.63913,-1.7125 0,-1.49 1.06888,-3.22875 2.918,-3.39125 l -1.27887,5.10375 z m 1.60112,-5.10375 c 0.94387,0.0513 1.65237,0.62125 1.65237,1.715 0,1.465 -1.06837,3.24 -2.93112,3.38875 l 1.27875,-5.10375"
         style="fill:#000000;fill-opacity:1;fill-rule:nonzero;stroke:none"
         id="path3404" />
      <path
         inkscape:connector-curvature="0"
         d="m 590.10941,-135.61442 c 0,-0.0375 0,-0.0625 -0.211,-0.27375 -1.55125,-1.565 -1.94863,-3.9125 -1.94863,-5.81 0,-2.1625 0.47213,-4.3225 2,-5.875 0.15963,-0.14875 0.15963,-0.17375 0.15963,-0.21125 0,-0.0862 -0.0489,-0.1225 -0.12263,-0.1225 -0.125,0 -1.24213,0.84375 -1.9745,2.42125 -0.63287,1.365 -0.78425,2.74375 -0.78425,3.7875 0,0.96625 0.13675,2.47125 0.82037,3.8725 0.74363,1.5275 1.8125,2.33375 1.9375,2.33375 0.0736,0 0.1225,-0.0375 0.1225,-0.1225"
         style="fill:#000000;fill-opacity:1;fill-rule:nonzero;stroke:none"
         id="path3406" />
      <path
         inkscape:connector-curvature="0"
         d="m 596.58578,-142.56692 c 0,-0.99375 -0.06,-1.98875 -0.49625,-2.90625 -0.57,-1.19125 -1.59,-1.39125 -2.11125,-1.39125 -0.74375,0 -1.65,0.3225 -2.16,1.47625 -0.39625,0.8575 -0.45875,1.82625 -0.45875,2.82 0,0.93 0.0488,2.04875 0.55875,2.9925 0.53375,1.00625 1.44125,1.25375 2.04875,1.25375 0.67,0 1.615,-0.26125 2.16,-1.44125 0.39875,-0.855 0.45875,-1.82375 0.45875,-2.805 l 0,0.001 z m -2.62,3.9725 c -0.48375,0 -1.21625,-0.31 -1.44,-1.5025 -0.13625,-0.74625 -0.13625,-1.88875 -0.13625,-2.62125 0,-0.795 0,-1.61375 0.0975,-2.285 0.23625,-1.47625 1.1675,-1.5875 1.47875,-1.5875 0.41,0 1.22875,0.2225 1.465,1.4525 0.125,0.695 0.125,1.63875 0.125,2.42 0,0.93125 0,1.775 -0.13625,2.57 -0.185,1.18 -0.895,1.5525 -1.4525,1.5525"
         style="fill:#000000;fill-opacity:1;fill-rule:nonzero;stroke:none"
         id="path3408" />
      <path
         inkscape:connector-curvature="0"
         d="m 599.50953,-139.25317 c 0,-0.36 -0.29875,-0.65875 -0.65875,-0.65875 -0.36125,0 -0.65875,0.29875 -0.65875,0.65875 0,0.35875 0.2975,0.65875 0.65875,0.65875 0.36,0 0.65875,-0.29875 0.65875,-0.65875"
         style="fill:#000000;fill-opacity:1;fill-rule:nonzero;stroke:none"
         id="path3410" />
      <path
         inkscape:connector-curvature="0"
         d="m 602.26328,-142.66692 0,-0.29875 c 0,-3.14125 1.54125,-3.5875 2.17375,-3.5875 0.2975,0 0.81875,0.0737 1.09125,0.49625 -0.185,0 -0.68125,0 -0.68125,0.55875 0,0.385 0.2975,0.5725 0.57,0.5725 0.19875,0 0.57,-0.11375 0.57,-0.5975 0,-0.74375 -0.545,-1.34 -1.57625,-1.34 -1.59,0 -3.265,1.60125 -3.265,4.34625 0,3.315 1.44,4.1975 2.59625,4.1975 1.3775,0 2.55625,-1.1675 2.55625,-2.80625 0,-1.57625 -1.10375,-2.77 -2.4825,-2.77 -0.84375,0 -1.305,0.635 -1.5525,1.23 l 0,-0.001 z m 1.47875,3.99875 c -0.78375,0 -1.15625,-0.74625 -1.23,-0.93125 -0.2225,-0.58375 -0.2225,-1.57625 -0.2225,-1.80125 0,-0.96875 0.39625,-2.20875 1.51625,-2.20875 0.1975,0 0.77,0 1.15375,0.77 0.2225,0.45875 0.2225,1.09125 0.2225,1.70125 0,0.59625 0,1.21625 -0.21125,1.66375 -0.3725,0.74375 -0.94375,0.80625 -1.22875,0.80625"
         style="fill:#000000;fill-opacity:1;fill-rule:nonzero;stroke:none"
         id="path3412" />
      <path
         inkscape:connector-curvature="0"
         d="m 612.65953,-146.15692 c 0.11125,-0.14875 0.11125,-0.17375 0.11125,-0.43375 l -3.015,0 c -1.515,0 -1.54125,-0.1625 -1.59,-0.39875 l -0.31,0 -0.41,2.55875 0.31,0 c 0.0375,-0.19875 0.14875,-0.98 0.31,-1.13125 0.0862,-0.0738 1.055,-0.0738 1.21625,-0.0738 l 2.57,0 c -0.13625,0.19875 -1.1175,1.5525 -1.39,1.9625 -1.1175,1.67625 -1.5275,3.4025 -1.5275,4.6675 0,0.125 0,0.68375 0.57,0.68375 0.5725,0 0.5725,-0.55875 0.5725,-0.68375 l 0,-0.6325 c 0,-0.68375 0.0375,-1.365 0.13625,-2.0375 0.0487,-0.285 0.2225,-1.35375 0.77,-2.1225 l 1.67625,-2.36"
         style="fill:#000000;fill-opacity:1;fill-rule:nonzero;stroke:none"
         id="path3414" />
      <path
         inkscape:connector-curvature="0"
         d="m 616.58703,-141.69817 c 0,-0.96875 -0.13625,-2.4725 -0.81875,-3.875 -0.74625,-1.5275 -1.8125,-2.33375 -1.9375,-2.33375 -0.0738,0 -0.125,0.0488 -0.125,0.1225 0,0.0375 0,0.0625 0.23625,0.2875 1.21625,1.22875 1.92625,3.2025 1.92625,5.79875 0,2.1225 -0.46125,4.30875 -2,5.8725 -0.1625,0.14875 -0.1625,0.17375 -0.1625,0.21125 0,0.0737 0.0512,0.1225 0.125,0.1225 0.125,0 1.2425,-0.84375 1.975,-2.42 0.6325,-1.3675 0.78125,-2.74375 0.78125,-3.7875"
         style="fill:#000000;fill-opacity:1;fill-rule:nonzero;stroke:none"
         id="path3416" />
    </g>
    <g
       transform="matrix(2.8386611,0,0,2.8386725,-726.6868,547.95299)"
       id="g3649">
      <path
         inkscape:connector-curvature="0"
         d="m 584.05078,-124.41442 c 0,-0.0237 0.0376,-0.16 0.0376,-0.17375 0,-0.0112 0,-0.1225 -0.14887,-0.1225 -0.125,0 -0.13625,0.0375 -0.18512,0.2475 l -0.72113,2.86875 c -1.97513,0.06 -3.79887,1.7125 -3.79887,3.4025 0,1.18 0.86862,2.16 2.38275,2.24625 -0.10001,0.385 -0.18501,0.78375 -0.28513,1.1675 -0.14888,0.58375 -0.27388,1.055 -0.27388,1.09125 0,0.125 0.0879,0.13625 0.14888,0.13625 0.0625,0 0.0874,-0.0113 0.125,-0.0487 0.0249,-0.025 0.10012,-0.3225 0.13625,-0.49625 l 0.47125,-1.85125 c 2,-0.06 3.80125,-1.73875 3.80125,-3.4025 0,-0.98 -0.65875,-2.1225 -2.38475,-2.24625 l 0.69475,-2.82 0,0.001 z m -2.37112,8.195 c -0.74413,-0.0375 -1.63913,-0.47125 -1.63913,-1.7125 0,-1.49 1.06888,-3.22875 2.918,-3.39125 l -1.27887,5.10375 z m 1.60112,-5.10375 c 0.94387,0.0513 1.65237,0.62125 1.65237,1.715 0,1.465 -1.06837,3.24 -2.93112,3.38875 l 1.27875,-5.10375"
         style="fill:#000000;fill-opacity:1;fill-rule:nonzero;stroke:none"
         id="path3418" />
      <path
         inkscape:connector-curvature="0"
         d="m 590.10941,-113.11442 c 0,-0.0375 0,-0.0625 -0.211,-0.27375 -1.55125,-1.565 -1.94863,-3.9125 -1.94863,-5.81 0,-2.1625 0.47213,-4.3225 2,-5.875 0.15963,-0.14875 0.15963,-0.17375 0.15963,-0.21125 0,-0.0863 -0.0489,-0.1225 -0.12263,-0.1225 -0.125,0 -1.24213,0.84375 -1.9745,2.42125 -0.63287,1.365 -0.78425,2.74375 -0.78425,3.7875 0,0.96625 0.13675,2.47125 0.82037,3.8725 0.74363,1.5275 1.8125,2.33375 1.9375,2.33375 0.0736,0 0.1225,-0.0375 0.1225,-0.1225"
         style="fill:#000000;fill-opacity:1;fill-rule:nonzero;stroke:none"
         id="path3420" />
      <path
         inkscape:connector-curvature="0"
         d="m 594.52453,-124.04192 c 0,-0.2975 0,-0.3225 -0.285,-0.3225 -0.77,0.795 -1.86375,0.795 -2.26,0.795 l 0,0.385 c 0.2475,0 0.98,0 1.6275,-0.3225 l 0,6.43125 c 0,0.4475 -0.0375,0.59625 -1.15625,0.59625 l -0.39625,0 0,0.385 c 0.43375,-0.0375 1.51625,-0.0375 2.01125,-0.0375 0.49625,0 1.57625,0 2.01125,0.0375 l 0,-0.385 -0.39875,0 c -1.1175,0 -1.15375,-0.13625 -1.15375,-0.59625 l 0,-6.96625"
         style="fill:#000000;fill-opacity:1;fill-rule:nonzero;stroke:none"
         id="path3422" />
      <path
         inkscape:connector-curvature="0"
         d="m 600.71203,-119.19817 c 0,-0.96875 -0.13625,-2.4725 -0.81875,-3.875 -0.74625,-1.5275 -1.8125,-2.33375 -1.9375,-2.33375 -0.0738,0 -0.125,0.0487 -0.125,0.1225 0,0.0375 0,0.0625 0.23625,0.2875 1.21625,1.22875 1.92625,3.2025 1.92625,5.79875 0,2.1225 -0.46125,4.30875 -2,5.8725 -0.1625,0.14875 -0.1625,0.17375 -0.1625,0.21125 0,0.0737 0.0512,0.1225 0.125,0.1225 0.125,0 1.2425,-0.84375 1.975,-2.42 0.6325,-1.3675 0.78125,-2.74375 0.78125,-3.7875"
         style="fill:#000000;fill-opacity:1;fill-rule:nonzero;stroke:none"
         id="path3424" />
    </g>
    <path
       style="fill:none;stroke:#ff0000;stroke-width:5;stroke-linecap:butt;stroke-linejoin:miter;stroke-miterlimit:4;stroke-opacity:1;stroke-dasharray:none"
       d="M 118.01453,388.17712 C 142.03879,190.1215 193.83197,158.67289 280.10652,175.79227"
       id="path3060"
       inkscape:connector-curvature="0" />
    <path
       style="fill:none;stroke:#00ff00;stroke-width:5;stroke-linecap:butt;stroke-linejoin:miter;stroke-miterlimit:4;stroke-opacity:1;stroke-dasharray:none"
       d="m 280.10652,175.79227 c 74.18748,14.72096 173.87144,65.35445 303.31988,76.84729"
       id="path3058"
       inkscape:connector-curvature="0" />
    <path
       style="fill:none;stroke:#0000ff;stroke-width:5;stroke-linecap:butt;stroke-linejoin:miter;stroke-miterlimit:4;stroke-opacity:1;stroke-dasharray:none"
       d="m 583.4264,252.63956 c 102.04626,9.05998 222.58941,-6.20367 363.72032,-82.55897"
       id="path3054"
       inkscape:connector-curvature="0" />
  </g>
</svg>
