<?xml version="1.0" encoding="utf-8"?>
<svg viewBox="0 0 768 768" version="1.1" xmlns="http://www.w3.org/2000/svg">
  <path style="fill:none; stroke:black; stroke-width:2" d="M300,300  C299.482619200377,298.643289767832 298.933776522799,297.203941493483 298.417491931609,295.846830265764 C297.901207340419,294.489719038044 297.354633076882,293.049498674834 296.841580984185,291.69115525773 C296.328528891488,290.332811840626 295.786542941028,288.890849598797 295.278915787918,287.530467803617 C294.771288634808,286.170086008437 294.236223480587,284.725541136134 293.736215477156,283.362344690793 C293.236207473726,281.999148245452 292.71038734593,280.551214474399 292.220191572033,279.184462921737 C291.729995798137,277.817711369075 291.21575080359,276.365623995983 290.737576844294,274.994620386075 C290.259402884999,273.623616776168 289.75909197695,272.166661903518 289.29518476188,270.79076252359 C288.83127754681,269.414863143662 288.347305401549,267.952389075771 287.899955401078,266.571015029957 C287.452605400607,265.189640984143 286.987427197243,263.721071386937 286.558969478745,262.333721539013 C286.130511760248,260.946371691089 285.686626526253,259.471219876765 285.279431390351,258.077484502033 C284.872236254449,256.683749127301 284.45217384226,255.201632718086 284.068634842193,253.801207175869 C283.685095842126,252.400781633653 283.291404741421,250.911436892178 282.93393083835,249.50413472786 C282.57645693528,248.096832563542 282.211700001277,246.60012785086 281.882717424495,245.185892966078 C281.553734847713,243.771658081295 281.220497638177,242.267606217391 280.922463701809,240.846524108891 C280.62442976544,239.42544200039 280.325341527898,237.914211756094 280.060767204807,236.486520317837 C279.796192881717,235.058828879581 279.533953317711,233.540756423091 279.305423786899,232.106857432508 C279.076894256087,230.672958441926 278.854290011184,229.148560297748 278.664462677029,227.709033465518 C278.474635342874,226.269506633288 278.294518729501,224.739496586219 278.14606635974,223.295118939683 C277.997613989979,221.850741293148 277.862802745078,220.31605468501 277.758255389433,218.867829078231 C277.653708033789,217.419603471453 277.566708119403,215.881437611994 277.508182658987,214.430630124939 C277.449657198572,212.979822637884 277.412699578473,211.439640517183 277.403050045293,209.987689450711 C277.393400512113,208.53573838424 277.409920944977,206.995173620088 277.451894267209,205.543794224093 C277.493867589442,204.092414828099 277.566444551211,202.553448643749 277.662348510291,201.104633828524 C277.758252469372,199.655819013299 277.889207205677,198.120699760402 278.041199069081,196.676695450565 C278.193190932485,195.232691140727 278.384779490284,193.703937159953 278.594975533279,192.267255130181 C278.805171576273,190.830573100409 279.059626466465,189.310996591146 279.330099421498,187.884435848082 C279.600572376531,186.457875105017 279.920056497861,184.950603365965 280.252772708433,183.537263281241 C280.585488919004,182.123923196518 280.972009005837,180.632405189879 281.368743352766,179.235683299477 C281.765477699696,177.838961409075 282.220790836023,176.366956613594 282.683045347976,174.990531278599 C283.145299859929,173.614105943604 283.670834529221,172.165658895798 284.199775986224,170.813461869187 C284.728717443227,169.461264842576 285.325520158458,168.040672621238 285.921942946862,166.716858984465 C286.518365735267,165.393045347692 287.187075515683,164.004826534079 287.851388495694,162.713749456059 C288.515701475704,161.422672378038 289.256547306586,160.071544723086 289.988777508976,158.81774005263 C290.721007711366,157.563935382173 291.533818640225,156.254805532618 292.333620217316,155.042986363468 C293.133421794406,153.831167194319 294.017635481716,152.569129371751 294.884289498984,151.404183417109 C295.750943516253,150.239237462467 296.705596870974,149.029568953091 297.637986239886,147.916541833911 C298.570375608798,146.803514714732 299.594060598576,145.65164441295 300.590604718329,144.595679801308 C301.587148838082,143.539715189665 302.677917671111,142.45112724558 303.736453166976,141.457320211079 C304.794988662842,140.463513176578 305.950195293001,139.443531026032 307.06779261184,138.516633909548 C308.185389930679,137.589736793063 309.401344130605,136.642956164512 310.57425013539,135.787122218331 C311.747156140175,134.931288272149 313.020007594538,134.062469453002 314.244895114431,133.282865302916 C315.469782634324,132.50326115283 316.795823840487,131.717973705791 318.068540350804,131.019169709599 C319.34125686112,130.320365713407 320.71558788174,129.622983437232 322.031245750585,129.008826104085 C323.34690361943,128.394668770937 324.764055412355,127.788982611042 326.117321606625,127.262852506698 C327.470587800894,126.736722402355 328.924713108942,126.226114544407 330.30992976799,125.791024412161 C331.695146427038,125.355934279915 333.180086352082,124.943413342778 334.59131068031,124.602000181607 C336.002535008539,124.260587020436 337.511838107752,123.948736977748 338.942860365307,123.703193551311 C340.373882622862,123.457650124873 341.900824508783,123.248536813024 343.345198152814,123.100519795199 C344.789571796846,122.952502777375 346.327199613333,122.847573076057 347.778297860881,122.798116770789 C349.22939610843,122.748660465521 350.770603891557,122.748660465521 352.221702139106,122.798116770789 C353.672800386654,122.847573076058 355.210428203141,122.952502777376 356.654801847173,123.100519795201 C358.099175491205,123.248536813025 359.626117377125,123.457650124875 361.05713963468,123.703193551312 C362.488161892236,123.94873697775 363.997464991449,124.260587020437 365.408689319677,124.602000181608 C366.819913647906,124.943413342778 368.30485357295,125.355934279915 369.690070231998,125.791024412161 C371.075286891046,126.226114544406 372.529412199094,126.736722402353 373.882678393364,127.262852506696 C375.235944587633,127.788982611039 376.653096380559,128.394668770935 377.968754249404,129.008826104082 C379.284412118248,129.62298343723 380.658743138868,130.320365713405 381.931459649185,131.019169709597 C383.204176159501,131.71797370579 384.530217365664,132.503261152829 385.755104885557,133.282865302915 C386.97999240545,134.062469453001 388.252843859813,134.931288272148 389.425749864598,135.787122218329 C390.598655869383,136.64295616451 391.81461006931,137.589736793061 392.932207388149,138.516633909546 C394.049804706988,139.44353102603 395.205011337147,140.463513176575 396.263546833012,141.457320211077 C397.322082328878,142.451127245578 398.412851161907,143.539715189664 399.40939528166,144.595679801306 C400.405939401412,145.651644412949 401.42962439119,146.803514714731 402.362013760101,147.91654183391 C403.294403129013,149.02956895309 404.249056483735,150.239237462466 405.115710501003,151.404183417108 C405.982364518271,152.56912937175 406.866578205581,153.831167194318 407.666379782671,155.042986363467 C408.466181359762,156.254805532617 409.278992288622,157.563935382172 410.011222491012,158.817740052628 C410.743452693402,160.071544723085 411.484298524285,161.422672378037 412.148611504295,162.713749456057 C412.812924484306,164.004826534077 413.481634264723,165.39304534769 414.078057053128,166.716858984463 C414.674479841533,168.040672621236 415.271282556764,169.461264842574 415.800224013767,170.813461869185 C416.32916547077,172.165658895795 416.854700140062,173.614105943601 417.316954652015,174.990531278596 C417.779209163968,176.366956613591 418.234522300295,177.838961409072 418.631256647225,179.235683299474 C419.027990994154,180.632405189877 419.414511080986,182.123923196516 419.747227291557,183.537263281239 C420.079943502128,184.950603365962 420.399427623458,186.457875105015 420.66990057849,187.884435848079 C420.940373533523,189.310996591144 421.194828423715,190.830573100407 421.405024466709,192.267255130179 C421.615220509704,193.703937159951 421.806809067503,195.232691140725 421.958800930907,196.676695450563 C422.110792794312,198.1206997604 422.241747530618,199.655819013297 422.337651489699,201.104633828522 C422.43355544878,202.553448643747 422.506132410549,204.092414828096 422.548105732782,205.543794224091 C422.590079055016,206.995173620086 422.606599487879,208.535738384237 422.596949954699,209.987689450709 C422.58730042152,211.439640517181 422.55034280142,212.979822637882 422.491817341005,214.430630124937 C422.433291880589,215.881437611992 422.346291966203,217.419603471451 422.241744610559,218.867829078229 C422.137197254914,220.316054685008 422.002386010013,221.850741293146 421.853933640252,223.295118939681 C421.705481270492,224.739496586216 421.525364657118,226.269506633286 421.335537322963,227.709033465516 C421.145709988808,229.148560297746 420.923105743905,230.672958441924 420.694576213093,232.106857432506 C420.466046682282,233.540756423089 420.203807118276,235.058828879579 419.939232795186,236.486520317835 C419.674658472097,237.914211756092 419.375570234554,239.425442000388 419.077536298187,240.846524108889 C418.779502361819,242.26760621739 418.446265152283,243.771658081293 418.117282575501,245.185892966076 C417.788299998719,246.600127850859 417.423543064716,248.096832563541 417.066069161645,249.504134727859 C416.708595258575,250.911436892177 416.31490415787,252.400781633651 415.931365157802,253.801207175868 C415.547826157734,255.201632718084 415.127763745545,256.683749127299 414.720568609643,258.077484502031 C414.313373473741,259.471219876762 413.869488239745,260.946371691087 413.441030521248,262.333721539011 C413.01257280275,263.721071386935 412.547394599387,265.189640984141 412.100044598916,266.571015029955 C411.652694598446,267.952389075769 411.168722453185,269.41486314366 410.704815238115,270.790762523588 C410.240908023046,272.166661903516 409.740597114999,273.623616776167 409.262423155704,274.994620386075 C408.784249196409,276.365623995982 408.270004201863,277.817711369074 407.779808427967,279.184462921737 C407.28961265407,280.551214474399 406.763792526274,281.999148245452 406.263784522844,283.362344690793 C405.763776519414,284.725541136134 405.228711365192,286.170086008436 404.721084212081,287.530467803617 C404.21345705897,288.890849598797 403.67147110851,290.332811840625 403.158419015813,291.691155257729 C402.645366923116,293.049498674834 402.098792659579,294.489719038043 401.582508068389,295.846830265763 C401.0662234772,297.203941493483 400.517380799623,298.643289767832 400,300" />
  <path style="fill:none; stroke:green; stroke-width:0.5" d="M 299.685217784309,299.17443817052 298.97061192991,299.446921575185 M 299.055866096316,297.523238252613 297.062138321191,298.282875187818 M 298.427141007635,295.871804996075 295.11905746788,297.130332205509 M 297.79944993421,294.219977583396 293.155840167007,295.982599637892 M 297.173208495705,292.567596922941 291.182808865689,294.834550893315 M 296.548836825744,290.914505798881 289.206933145312,293.682347600262 M 295.926757085735,289.26054901386 287.232527773483,292.523184297265 M 295.307391939249,287.60557353305 285.261860041414,291.355057490845 M 294.691163773096,285.94942863677 283.295673378106,290.176560129867 M 294.078494478806,284.291966087378 281.3336340981,288.986702032749 M 293.469805634168,282.633040314902 279.374707792208,287.784756295472 M 292.865518948788,280.972508624622 277.417471439248,286.570131237673 M 292.266056860317,279.310231428717 275.460366879424,285.342267026125 M 291.671843189101,277.646072503102 273.501900889391,284.100555753303 M 291.083303778424,275.979899269649 271.540796754182,282.84428344097 M 290.500867065373,274.311583103203 269.576101946771,281.572592179293 M 289.924964543551,272.640999662067 267.607256299387,280.28446039506 M 289.356031093456,270.968029240068 265.634124876437,278.978699062672 M 288.794505169325,269.292557137766 263.656999632064,277.653961524918 M 288.240828842556,267.614474050002 261.676573852745,276.308764475063 M 287.695447711582,265.933676466643 259.693893345846,274.941517567444 M 287.158810696163,264.250067083217 257.710288339461,273.550559072419 M 286.63136974053,262.563555217983 255.727290108537,272.134194976655 M 286.113579454689,260.874057232024 253.74653643855,270.69073895629 M 285.605896726445,259.181496949011 251.769670180464,269.21855072417 M 285.108780338299,257.48580607151 249.798235336935,267.716070379341 M 284.62269062338,255.786924590996 247.83357534427,266.181846573262 M 284.148089192964,254.08480118912 245.87673846909,264.614556558268 M 283.685438764856,252.379393628313 243.928395511814,263.013016504029 M 283.235203117077,250.670669130373 241.98877528771,261.376180860452 M 282.797847184785,248.958604742391 240.057623625676,259.703130012764 M 282.373837310263,247.243187690207 238.134191870159,257.993046017664 M 281.963641646072,245.524415720428 236.217261078057,256.245176829538 M 281.567730700121,243.802297433104 234.305208256096,254.45879012433 M 281.186577998414,242.076852608209 232.396121071647,252.633118608486 M 280.820660826668,240.348112530321 230.487967477443,250.767299566243 M 280.470460995756,238.61612031716 228.578826602205,248.860312356812 M 280.136465558106,236.880931259083 226.667187054468,246.910918631304 M 279.819167382713,235.142613178101 224.752318438522,244.917611203497 M 279.519065475365,233.401246816629 222.834721352586,242.878578779012 M 279.236664907956,231.656926267855 220.916660383339,240.791695111584 M 278.972476196456,229.909759461427 219.002783572658,238.654542578089 M 278.727013941157,228.159868720074 217.100830455936,236.464481575746 M 278.500794515248,226.407391404774 215.222429014368,234.218778425084 M 278.294332558578,224.652480668192 213.383979743054,231.914805422673 M 278.108136002685,222.895306338315 211.607622589474,229.550327055927 M 277.942699320702,221.136055956528 209.922279976694,227.123885797861 M 277.798494661728,219.374935996778 208.364766922375,224.635298868599 M 277.675960493576,217.612173294977 206.980958141201,222.086273311474 M 277.575487670714,215.848016686332 205.827003474526,219.481140006758 M 277.497471499228,214.082732066841 203.864674028103,216.864493312624 M 277.4424482847,212.316590540005 201.757940790809,214.175608548624 M 277.411041864924,210.549876078563 199.912636564078,211.403824631721 M 277.403822636126,208.782899103562 198.266259380094,208.559486138805 M 277.421305733678,207.015994658359 196.768891813758,205.649349878004 M 277.463966782622,205.249519633201 195.381618583515,202.677317127817 M 277.532254239755,203.483851085681 194.07506305166,199.645109319907 M 277.626598774888,201.719385408189 192.828038257545,196.552870037911 M 277.747420104284,199.956538125203 191.626308739355,193.39968643276 M 277.895131655869,198.195744133126 190.461459597967,190.184029605169 M 278.070143413525,196.437458223392 189.329869201813,186.904117332977 M 278.272863256769,194.68215575574 188.231781759755,183.558204588754 M 278.503697082173,192.930333372872 187.170475787202,180.144808234161 M 278.763047964217,191.18250967019 186.151524307042,176.662872540965 M 279.05131458573,189.439225754949 185.182142481594,173.111882081847 M 279.368889141719,187.701045647923 184.270618269175,169.491928257352 M 279.716154895229,185.968556497645 183.425821635776,165.803735399834 M 280.093483539895,184.242368592337 182.656787823453,162.048652087287 M 280.501232501038,182.523115167942 181.972370178035,158.228613038708 M 280.939742285523,180.811452021998 181.380958067384,154.346076754505 M 281.409333970171,179.1080569527 180.890255477572,150.40394390508 M 281.910306899234,177.413629050175 180.507115959489,146.405461347658 M 282.44293664337,175.728887872838 180.237429714636,142.354116556263 M 283.007473255638,174.054572545732 180.086058757597,138.253527175931 M 283.604139844325,172.3914408199 180.056816274002,134.107330358623 M 284.233131467854,170.740268132151 180.152486503673,129.919076508328 M 284.89461434367,169.101846703048 180.374881713094,125.692132064878 M 285.588725350815,167.476984707589 180.724933068781,121.429596001478 M 286.315571794891,165.866505547786 181.202812468865,117.13423481344 M 287.075231394295,164.271247249315 181.808082614633,112.808440948942 M 287.867752437966,162.692061995456 182.539872782832,108.454219889453 M 288.693154057407,161.129815800801 183.397077864633,104.073211437581 M 289.551426549478,159.585388314572 184.378578235564,99.6667512189716 M 290.442531681343,158.05967272896 185.483477876169,95.2359789517379 M 291.366402905026,156.553575751539 186.711357836297,90.7820006728436 M 292.322945406307,155.06801758272 188.062541585636,86.3061128164718 M 293.312035911091,153.603931819144 189.538367978259,81.8100967814861 M 294.333522172041,152.162265182116 191.141466441579,77.296593353396 M 295.387222059027,150.743976946444 192.876027550569,72.7695669890227 M 296.472922178941,149.350037919548 194.748060353445,68.2348704323203 M 297.590375953574,147.981428793272 196.765625691378,63.7009202821599 M 298.7393010886,146.63913766163 198.93903236578,59.1794938233985 M 299.919376372209,145.324156466615 201.280980488436,54.6866564840414 M 301.13023774865,144.037476101278 203.806633944239,50.2438275075609 M 302.371473619811,142.780079864497 206.533601992088,45.8789886633869 M 303.642619337011,141.552934925257 209.481809209755,41.6280369592992 M 304.943150855442,140.35698141576 212.67323407979,37.5362774025811 M 306.272477535095,139.193118732383 216.131500631641,33.6600461504824 M 307.629934084597,138.062188581347 219.88131613465,30.0684485115118 M 309.014774220351,136.964957647635 223.94776519629,26.8451946783773 M 310.426258114853,135.90222511374 227.025678816457,22.2355119460436 M 311.863759023257,134.874973043105 230.413472731101,17.8260682574057 M 313.326664485981,133.884250281196 234.171184639096,13.7582932216239 M 314.814264123884,132.931019881611 238.222020002553,9.97938492758045 M 316.325763261156,132.016165655958 242.506455850232,6.44500769316448 M 317.860300596434,131.140506894018 246.979346010203,3.11893158418405 M 319.416961785669,130.304810131551 251.607272136219,-0.027432828977993 M 320.994789645037,129.509798289692 256.366165635535,-3.01560562336559 M 322.592791607025,128.756157494099 261.239211490727,-5.86069803719371 M 324.209944991396,128.0445418662 266.215033305468,-8.57213751748509 M 325.845200585127,127.375576563094 271.2861499817,-11.1544302139303 M 327.497484961495,126.749859326847 276.447688118628,-13.6079351435971 M 329.16570190837,126.167960788132 281.696330145038,-15.9296274622358 M 330.848733279405,125.630423753345 287.029475905082,-18.1138323083936 M 332.545439529185,125.137761688549 292.444594477654,-20.1529148819931 M 334.254660144568,124.690456597769 297.938743049715,-22.0379164098617 M 335.975214139312,124.28895647737 303.508230394061,-23.7591292448336 M 337.705900737795,123.933672512464 309.14840370726,-25.3066074523677 M 339.445500336005,123.624976165448 314.853539087908,-26.6706118223432 M 341.192775794183,123.363196291018 320.616817662863,-27.8419902924636 M 342.946474085439,123.148616396172 326.430371206122,-28.8124962845483 M 344.705328298318,122.981472147914 332.285382957794,-29.5750484456805 M 346.468059968809,122.861949215587 338.172231157746,-30.1239357726747 M 348.233381698422,122.790181518941 344.080664478967,-30.454972114209 M 349.999999999994,122.766249937243 350.000000000016,-30.5656036405066 M 351.766618301565,122.790181518942 355.91933552106,-30.4549721140615 M 353.531940031178,122.861949215588 361.827768842264,-30.1239357723917 M 355.294671701669,122.981472147915 367.71461704219,-29.5750484452856 M 357.053525914549,123.148616396174 373.569628793831,-28.8124962840745 M 358.807224205804,123.36319629102 379.383182337059,-27.8419902919503 M 360.554499663983,123.624976165449 385.146460911986,-26.6706118218339 M 362.294099262192,123.933672512466 390.851596292616,-25.3066074519059 M 364.024785860676,124.288956477371 396.491769605809,-23.7591292444596 M 365.74533985542,124.69045659777 402.061256950165,-22.0379164096082 M 367.454560470803,125.13776168855 407.555405522253,-20.152914881883 M 369.151266720583,125.630423753345 412.970524094866,-18.1138323084367 M 370.834298091618,126.167960788131 418.303669854963,-15.9296274624277 M 372.502515038493,126.749859326846 423.552311881433,-13.6079351439183 M 374.154799414861,127.375576563092 428.713850018419,-11.1544302143474 M 375.790055008592,128.044541866198 433.784966694698,-8.5721375179524 M 377.407208392963,128.756157494097 438.760788509466,-5.86069803765778 M 379.005210354951,129.50979828969 443.633834364657,-3.01560562376818 M 380.58303821432,130.304810131548 448.392727863937,-0.0274328292640291 M 382.139699403554,131.140506894016 453.020653989881,3.11893158405906 M 383.674236738832,132.016165655956 457.493544149748,6.44500769322732 M 385.185735876104,132.93101988161 461.777979997304,9.9793849278299 M 386.673335514007,133.884250281195 465.828815360641,13.7582932220255 M 388.136240976731,134.874973043104 469.586527268553,17.8260682578803 M 389.573741885135,135.902225113739 472.974321183203,22.2355119464607 M 390.985225779638,136.964957647633 476.052234803536,26.845194678541 M 392.370065915392,138.062188581345 480.118683865424,30.0684485113607 M 393.727522464893,139.193118732381 483.86849936859,33.6600461501659 M 395.056849144546,140.356981415758 487.326765920518,37.5362774022088 M 396.357380662978,141.552934925255 490.518190790568,41.6280369589462 M 397.628526380178,142.780079864495 493.466398008201,45.8789886631008 M 398.869762251338,144.037476101276 496.19336605598,50.243827507368 M 400.08062362778,145.324156466614 498.719019511689,54.6866564839515 M 401.260698911388,146.639137661629 501.060967634241,59.1794938234081 M 402.409624046414,147.981428793271 503.234374308536,63.7009202822569 M 403.527077821047,149.350037919547 505.25193964637,68.2348704324867 M 404.61277794096,150.743976946443 507.123972449163,72.7695669892373 M 405.666477827946,152.162265182115 508.85853355809,77.2965933536362 M 406.687964088896,153.603931819143 510.461632021373,81.81009678173 M 407.67705459368,155.068017582719 511.937458413984,86.3061128167001 M 408.633597094961,156.553575751538 513.288642163339,90.7820006730398 M 409.557468318645,158.059672728959 514.51652212351,95.2359789518894 M 410.448573450509,159.585388314571 515.62142176418,99.6667512190705 M 411.306845942581,161.129815800799 516.602922135194,104.073211437623 M 412.132247562023,162.692061995455 517.460127217093,108.45421988944 M 412.924768605695,164.271247249313 518.191917385396,112.808440948877 M 413.684428205099,165.866505547784 518.797187531268,117.134234813332 M 414.411274649176,167.476984707586 519.27506693145,121.429596001336 M 415.105385656321,169.101846703046 519.625118287221,125.692132064714 M 415.766868532138,170.740268132148 519.847513496707,129.919076508155 M 416.395860155667,172.391440819898 519.943183726418,134.107330358453 M 416.992526744354,174.054572545729 519.913941242835,138.253527175777 M 417.557063356621,175.728887872835 519.762570285778,142.354116556133 M 418.089693100757,177.413629050173 519.492884040875,146.40546134756 M 418.59066602982,179.108056952698 519.109744522713,150.403943905018 M 419.060257714467,180.811452021995 518.619041932795,154.346076754481 M 419.498767498952,182.52311516794 518.027629822019,158.22861303872 M 419.906516460094,184.242368592335 517.343212176463,162.048652087332 M 420.28384510476,185.968556497642 516.574178363998,165.803735399903 M 420.631110858269,187.701045647921 515.729381730466,169.491928257438 M 420.948685414258,189.439225754947 514.817857517932,173.111882081939 M 421.236952035771,191.182509670188 513.848475692399,176.662872541053 M 421.496302917815,192.93033337287 512.829524212198,180.144808234237 M 421.727136743219,194.682155755738 511.768218239653,183.558204588809 M 421.929856586463,196.43745822339 510.670130797661,186.904117333007 M 422.10486834412,198.195744133124 509.538540401633,190.184029605173 M 422.252579895705,199.956538125201 508.373691260427,193.39968643274 M 422.373401225103,201.719385408187 507.171961742465,196.552870037873 M 422.467745760236,203.483851085679 505.924936948603,199.64510931986 M 422.53603321737,205.249519633199 504.618381416996,202.677317127773 M 422.578694266314,207.015994658357 503.23110818695,205.649349877973 M 422.596177363867,208.78289910356 501.733740620701,208.559486138795 M 422.588958135069,210.54987607856 500.087363436612,211.403824631732 M 422.557551715292,212.316590540003 498.242059209488,214.175608548642 M 422.502528500764,214.082732066838 496.135325971387,216.864493312614 M 422.424512329278,215.84801668633 494.172996524478,219.481140006704 M 422.324039506416,217.612173294975 493.019041858697,222.086273311458 M 422.201505338264,219.374935996776 491.635233077897,224.635298868612 M 422.05730067929,221.136055956526 490.077720023626,227.123885797885 M 421.891863997307,222.895306338313 488.392377410719,229.550327055946 M 421.705667441414,224.65248066819 486.616020256941,231.914805422674 M 421.499205484744,226.407391404772 484.777570985432,234.218778425059 M 421.272986058835,228.159868720071 482.899169543716,236.464481575696 M 421.027523803536,229.909759461425 480.997216426915,238.654542578019 M 420.763335092036,231.656926267853 479.083339616228,240.791695111505 M 420.480934524627,233.401246816627 477.165278647044,242.878578778935 M 420.18083261728,235.142613178099 475.247681561224,244.917611203434 M 419.863534441888,236.880931259081 473.332812945428,246.910918631265 M 419.529539004238,238.616120317158 471.421173397857,248.860312356806 M 419.179339173327,240.348112530319 469.512032522779,250.767299566272 M 418.813422001581,242.076852608207 467.603878928712,252.633118608551 M 418.432269299874,243.802297433102 465.694791744364,254.458790124424 M 418.036358353924,245.524415720427 463.782738922458,256.245176829654 M 417.626162689733,247.243187690205 461.86580813036,257.993046017789 M 417.202152815211,248.958604742389 459.942376374795,259.703130012887 M 416.764796882919,250.670669130371 458.011224712667,261.376180860557 M 416.314561235139,252.379393628312 456.071604488432,263.013016504104 M 415.851910807031,254.084801189118 454.123261530996,264.614556558302 M 415.377309376614,255.786924590994 452.166424655642,266.181846573247 M 414.891219661695,257.485806071508 450.201764662805,267.716070379274 M 414.394103273548,259.181496949009 448.230329819118,269.218550724052 M 413.886420545305,260.874057232022 446.253463560904,270.690738956127 M 413.368630259463,262.563555217981 444.272709890831,272.134194976458 M 412.84118930383,264.250067083214 442.289711659871,273.550559072203 M 412.304552288412,265.933676466641 440.306106653506,274.941517567227 M 411.759171157439,267.61447405 438.323426146686,276.308764474866 M 411.20549483067,269.292557137765 436.3430003675,277.65396152476 M 410.64396890654,270.968029240067 434.365875123307,278.978699062572 M 410.075035456446,272.640999662066 432.392743700571,280.284460395031 M 409.499132934625,274.311583103202 430.423898053418,281.572592179346 M 408.916696221574,275.979899269649 428.459203246234,282.844283441106 M 408.328156810898,277.646072503101 426.498099111224,284.100555753514 M 407.733943139683,279.310231428717 424.53963312134,285.342267026394 M 407.134481051212,280.972508624622 422.58252856159,286.570131237974 M 406.530194365832,282.633040314902 420.625292208608,287.78475629577 M 405.921505521194,284.291966087378 418.666365902587,288.986702033005 M 405.308836226904,285.94942863677 416.704326622342,290.176560130037 M 404.69260806075,287.60557353305 414.738139958697,291.35505749089 M 404.073242914264,289.260549013859 412.767472226221,292.523184297157 M 403.451163174254,290.914505798881 410.793066853975,293.682347599995 M 402.826791504293,292.56759692294 408.817191133256,294.834550892916 M 402.200550065788,294.219977583396 406.8441598318,295.982599637439 M 401.572858992364,295.871804996075 404.880942531165,297.130332205145 M 400.944133903683,297.523238252612 402.937861678699,298.282875187775 M 400.314782215691,299.17443817052 401.029388071731,299.446921575811 " />
</svg>