<?xml version="1.0" encoding="utf-8"?>
<svg viewBox="0 0 768 768" version="1.1" xmlns="http://www.w3.org/2000/svg">
  <path d="M 300 300 C 298.636200296845 299.04196652094 297.299943265253 298.044725453452 295.993435429635 297.009923514229 C 294.686927594016 295.975121575006 293.410169429731 294.902759140568 292.165269212091 293.794606973289 C 290.920368994451 292.68645480601 289.707327176422 291.542513309099 288.528146820285 290.364671441379 C 287.348966464148 289.186829573659 286.203647998964 287.9750877637 285.094082657363 286.731446927097 C 283.984517315762 285.487806090494 282.910705501476 284.212266679761 281.874420370193 282.906934957733 C 280.83813523891 281.601603235705 279.839377167697 280.266479677344 278.879795378051 278.903768935163 C 277.920213588406 277.541058192981 276.999808429484 276.150760762822 276.120099740767 274.735172404288 C 275.240391052049 273.319584045754 274.401379153626 271.878705273928 273.604449482537 270.414915371969 C 272.807519811448 268.951125470009 272.052672657665 267.464424970536 271.341154479335 265.957268820832 C 270.629636301005 264.450112671128 269.961447357023 262.922501419591 269.337691009267 261.376957568279 C 268.713934661512 259.831413716967 268.134611136946 258.267937828245 267.600677056468 256.68911162645 C 267.066742975989 255.110285424656 266.578198533879 253.516109484265 266.135850450051 251.909216223778 C 265.693502366223 250.302322963291 265.297350801633 248.682712967398 264.948049910371 247.053060653171 C 264.598749019109 245.423408338945 264.296298928272 243.783714299358 264.041199065275 242.136686115716 C 263.786099202277 240.489657932074 263.578349659938 238.835296203672 263.418293489276 237.176332732138 C 263.258237318615 235.517369260605 263.145874577867 233.853804649575 263.081390808513 232.188385897095 C 263.016907039159 230.522967144615 263.000302264667 228.855694856663 263.031603904083 227.189322153671 C 263.0629055435 225.522949450679 263.142113585434 223.857476938975 263.269097235834 222.19565476724 C 263.396080886235 220.533832595505 263.570840098913 218.875661368415 263.793086298785 217.223879178082 C 264.015332498656 215.572096987749 264.285065604848 213.926704435187 264.601840214548 212.290418511424 C 264.918614824249 210.654132587662 265.282430822197 209.026953888083 265.692687449164 207.411569327734 C 266.102944076131 205.796184767386 266.559641182842 204.192594934048 267.062024638074 202.603447791153 C 267.564408093306 201.014300648258 268.11247771426 199.43959677404 268.705328488785 197.881936433337 C 269.298179263309 196.324276092635 269.935810975684 194.783659852224 270.617170722327 193.262631688958 C 271.29853046897 191.741603525691 272.023618001956 190.240163993014 272.791236004319 188.760792376349 C 273.558854006681 187.281420759684 274.369002199109 185.824117597319 275.220342806347 184.391289293513 C 276.071683413585 182.958460989707 276.964216125859 181.550108065812 277.896467128673 180.168556095933 C 278.828718131487 178.787004126054 279.800687085629 177.432253612886 280.810769005765 176.106541618383 C 281.820850925902 174.780829623879 282.869045444502 173.484156630418 283.953621707072 172.218663798167 C 285.038197969643 170.953170965916 286.159155581548 169.718858755343 287.31464353659 168.517765351976 C 288.470131491632 167.31667194861 289.660149369371 166.148797789485 290.882732126273 165.016071352795 C 292.105314883175 163.883344916106 293.360462074385 162.78576661401 294.646101110126 161.725148847078 C 295.931740145867 160.664531080147 297.24787055834 159.640874234297 298.592319057903 158.655868645652 C 299.936767557466 157.670863057006 301.309533654925 156.724509083969 302.708350539764 155.818369414605 C 304.107167424603 154.91222974524 305.532034587859 154.046304709263 306.980599185933 153.222024184686 C 308.429163784007 152.397743660109 309.901425289784 151.615107946856 311.394952598618 150.875409389617 C 312.888479907453 150.135710832378 314.403272475914 149.438949700285 315.93682896908 148.7862765356 C 317.470385462246 148.133603370914 319.022705322115 147.525018411115 320.591225245995 146.961526595654 C 322.159745169875 146.398034780194 323.74446458704 145.879636314108 325.342766694293 145.407187214447 C 326.941068801546 144.934738114785 328.552953017323 144.508238553457 330.175757681929 144.128392797395 C 331.798562346535 143.748547041332 333.43228686949 143.415355228746 335.074233526802 143.129367550033 C 336.716180184114 142.843379871319 338.366348378337 142.604596430537 340.022013232507 142.413411524118 C 341.677678086677 142.222226617699 343.338838998357 142.078640315207 345.002752938624 141.982889716675 C 346.66666687889 141.887139118143 348.333333242305 141.839224258409 349.999999908954 141.839224257933 C 351.666666575602 141.839224257457 353.333332939045 141.887139116238 354.997246879366 141.982889713818 C 356.661160819687 142.078640311398 358.32232173145 142.222226612938 359.97798658573 142.413411518405 C 361.633651440009 142.604596423872 363.283819634371 142.843379863702 364.925766291848 143.129367541464 C 366.567712949326 143.415355219226 368.201437472475 143.748547030859 369.824242137304 144.128392785971 C 371.447046802132 144.508238541082 373.05893101816 144.934738101459 374.657233125694 145.40718720017 C 376.255535233228 145.879636298882 377.840254650705 146.398034764017 379.408774574925 146.96152657853 C 380.977294499146 147.525018393042 382.529614359385 148.133603351894 384.063170852954 148.786276515634 C 385.596727346522 149.438949679374 387.111519915418 150.135710810522 388.605047224719 150.87540936682 C 390.098574534019 151.615107923117 391.570836040294 152.397743635431 393.019400638901 153.222024159073 C 394.467965237507 154.046304682714 395.89283240133 154.91222971776 397.291649286769 155.818369386197 C 398.690466172209 156.724509054634 400.063232270303 157.670863026748 401.407680770538 158.655868614477 C 402.752129270772 159.640874202206 404.068259683953 160.664531047144 405.353898720439 161.725148813173 C 406.639537756926 162.785766579202 407.894684948917 163.883344880403 409.11726770664 165.016071316206 C 410.339850464362 166.14879775201 411.52986834296 167.316671910259 412.685356298901 168.517765312761 C 413.840844254841 169.718858715263 414.961801867684 170.953170924984 416.046378131233 172.218663756397 C 417.130954394782 173.48415658781 418.1791489144 174.780829580446 419.189230835597 176.106541574142 C 420.199312756793 177.432253567838 421.171281712036 178.787004080215 422.103532715994 180.168556049323 C 423.035783719951 181.550108018431 423.92831643341 182.958460941574 424.779657041875 184.39128924465 C 425.630997650341 185.824117547727 426.441145844039 187.281420709385 427.208763847714 188.760792325369 C 427.976381851389 190.240163941353 428.70146938573 191.741603473375 429.38282913377 193.262631636016 C 430.064188881811 194.783659798656 430.701820595627 196.324276038469 431.294671371634 197.881936378607 C 431.887522147641 199.439596718746 432.43559177012 201.014300592433 432.937975226919 202.603447734833 C 433.440358683717 204.192594877232 433.897055792036 205.796184710111 434.307312420652 207.411569270041 C 434.717569049268 209.026953829971 435.081385048906 210.654132529171 435.398159660336 212.290418452599 C 435.714934271765 213.926704376027 435.984667379725 215.572096928298 436.206913581403 217.223879118388 C 436.429159783081 218.875661308478 436.603918997603 220.533832535372 436.730902649884 222.195654706964 C 436.857886302164 223.857476878556 436.937094346014 225.522949390167 436.968395987379 227.189322093122 C 436.999697628745 228.855694796078 436.983092856235 230.522967084049 436.918609088894 232.188385836607 C 436.854125321554 233.853804589165 436.74176258285 235.517369200331 436.581706414259 237.176332672065 C 436.421650245669 238.835296143799 436.213900705428 240.489657872463 435.958800844554 242.136686056434 C 435.703700983679 243.783714240405 435.401250894989 245.423408280387 435.051950005894 247.053060595077 C 434.702649116799 248.682712909768 434.306497554395 250.302322906196 433.86414947277 251.909216167289 C 433.421801391145 253.516109428383 432.933256951254 255.110285369452 432.399322873006 256.689111572001 C 431.865388794758 258.26793777455 431.286065272434 259.831413664101 430.662308926927 261.376957516321 C 430.038552581419 262.92250136854 429.370363639692 264.450112621062 428.658845463618 265.957268771831 C 427.947327287544 267.464424922601 427.192480136018 268.951125423219 426.395550467183 270.414915326406 C 425.598620798348 271.878705229592 424.759608902175 273.319584002727 423.879900215697 274.735172362652 C 423.000191529218 276.150760722578 422.079786372527 277.541058154213 421.120204585096 278.903768897953 C 420.160622797666 280.266479641694 419.161864728651 281.601603201699 418.125579599545 282.906934925455 C 417.08929447044 284.212266649212 416.01548265831 285.487806061758 414.905917318836 286.73144690026 C 413.796351979363 287.975087738762 412.65103351628 289.186829550705 411.471853162209 290.364671420494 C 410.292672808138 291.542513290282 409.079630992142 292.686454789346 407.834730776494 293.794606958863 C 406.589830560846 294.90275912838 405.313072398512 295.975121565139 404.006564564798 297.009923506767 C 402.700056731084 298.044725448396 401.36379970135 299.041966518371 400 300" fill="none" stroke="rgb(0, 0, 0)" stroke-width="2" />
  <path d="M 297.975231785433 298.533751911531 L 263.595378144853 344.601169981308 M 294.056247873655 295.429773472891 L 257.086587560751 339.445969975249 M 290.322061371498 292.105774644111 L 250.884715197793 333.925352157305 M 286.785007311189 288.572735496239 L 245.010247506947 328.057552631844 M 283.456769543103 284.842326617065 L 239.48258947881 321.861954296824 M 280.34834214083 280.926870560305 L 234.320000501192 315.359022872656 M 277.469993084553 276.839301140948 L 229.539534017784 308.570239311481 M 274.831230343014 272.593120711286 L 225.156981192261 301.518028828576 M 272.440770466165 268.202355558849 L 221.186818759086 294.22568680821 M 270.306509792173 263.681509573677 L 217.642161222607 286.717301841187 M 268.435498363783 259.045516338014 L 214.53471755058 279.017676153356 M 266.833916640127 254.309689796705 L 211.874752496871 271.152243685831 M 265.507055080887 249.489673671176 L 209.671052679559 263.146986090755 M 264.459296670325 244.601389784051 L 207.930897533137 255.028346912406 M 263.694102438997 239.660985465008 L 206.660035244695 246.823144232626 M 263.214000031103 234.684780211621 L 205.862663771553 238.55848207138 M 263.020575355209 229.689211781454 L 205.541417019872 230.261660845974 M 263.11446734571 224.690781893758 L 205.697356238907 221.960087203593 M 263.495365851955 219.706001720441 L 206.32996628486 213.681183500892 M 264.162012662632 214.751337344738 L 207.4371575378 205.452297217854 M 265.112205662045 209.843155368709 L 209.015272525015 197.300610584371 M 266.342806104669 204.997668850552 L 211.059098322765 189.253050826654 M 267.849748983185 200.230883748558 L 213.56188367581 181.336201231572 M 269.628056456059 195.558546048911 L 216.515361233347 173.576213320587 M 271.671854290581 190.99608975227 L 219.909774845178 165.998720447817 M 273.974391267118 186.558585891045 L 223.733911806979 158.628753120439 M 276.528061480383 182.260692745748 L 227.975139926039 151.490656323373 M 279.324429463937 178.116607424825 L 232.619449267764 144.608009115536 M 282.354258054856 174.140018967809 L 237.651498436267 138.003546753584 M 285.607538906494 170.344063126701 L 243.054665236937 131.699085591854 M 289.073525548611 166.741278974916 L 248.811101562352 125.715451003573 M 292.740768885771 163.343567487217 L 254.901792333235 120.072408566925 M 296.597155016854 160.1621522275 L 261.306618311925 114.788598758075 M 300.629945250779 157.207542274392 L 268.004422586883 109.881475388837 M 304.825818186093 154.48949750707 L 274.973080503786 105.367248016702 M 309.170913714984 152.016996365825 L 282.189572747742 101.260828447918 M 313.65087880633 149.798206193749 L 289.630061266843 97.5757812901495 M 318.250914918402 147.840456257359 L 297.26996808522 94.3242792246988 M 322.95582688252 146.150213536263 L 305.08405649869 91.517062784701 M 327.750073096544 144.733061361418 L 313.046514474998 89.1634050069544 M 332.61781686293 143.593680971662 L 321.131039865836 87.271080712683 M 337.542978701683 142.735836050031 L 329.310927282361 85.8463407806116 M 342.50928946532 142.162360291202 L 337.559156322375 84.8938914935391 M 347.500344080331 141.875148041131 L 345.84848083898 84.4168790124078 M 352.499655737597 141.875148039703 L 354.151518946081 84.4168790109701 M 357.490710352772 142.162360286917 L 362.440843462638 84.8938914892076 M 362.457021116739 142.73583604289 L 370.689072502561 85.8463407733323 M 367.38218295599 143.593680961666 L 378.868959918963 87.2710807023684 M 372.249926723044 144.733061348568 L 386.953485309662 89.1634049934872 M 377.044172937911 146.150213520562 L 394.915943285837 91.5170627679377 M 381.749084903052 147.840456238812 L 402.730031699203 94.3242792044713 M 386.349121016331 149.798206172366 L 410.369938517532 97.5757812662645 M 390.829086109077 152.016996341617 L 417.810427036682 101.260828420155 M 395.174181639565 154.489497480056 L 425.026919280823 105.367247984824 M 399.370054576682 157.207542244596 L 431.995577198074 109.881475352617 M 403.402844812621 160.162152194955 L 438.693381473591 114.788598717271 M 407.25923094594 163.343567451963 L 445.098207453097 120.072408521293 M 410.926474285562 166.741278937006 L 451.188898225098 125.715450952873 M 414.392460930374 170.344063086199 L 456.945334551978 131.699085535864 M 417.645741784946 174.140018924792 L 462.3485013545 138.0035466921 M 420.675570379046 178.116607379386 L 467.380550525287 144.608009048381 M 423.47193836603 182.260692697996 L 472.024859869767 151.490656250397 M 426.025608582977 186.558585841106 L 476.266087992095 158.628753041527 M 428.328145563452 190.996089700289 L 480.090224957711 165.998720362896 M 430.371943402167 195.558545995051 L 483.48463857394 173.576213229628 M 432.150250879489 200.230883693007 L 486.438116136484 181.336201134598 M 433.657193762705 204.997668793517 L 488.940901495167 189.253050723743 M 434.887794210275 209.843155310418 L 490.984727299201 197.300610475659 M 435.837987214875 214.751337285443 L 492.562842293357 205.452297103538 M 436.504634030971 219.706001660419 L 493.670033553903 213.681183381234 M 436.885532542854 224.690781833306 L 494.302643608132 221.960087078918 M 436.979424539203 229.689211720892 L 494.458582836098 230.261660716674 M 436.785999869346 234.684780151294 L 494.137336093986 238.558481937914 M 436.305897467665 239.660985405282 L 493.339964631035 246.823144095521 M 435.540703242705 244.601389725312 L 492.069102353379 255.028346772252 M 434.492944838642 249.489673613831 L 490.328947218303 263.146985948207 M 433.166083286011 254.30968974118 L 488.125247412854 271.152243541604 M 431.564501569044 259.045516284753 L 485.465282371479 279.017676008223 M 429.693490147398 263.681509523139 L 482.357838712201 286.717301695974 M 427.559229480173 268.202355511507 L 478.813181188829 294.225686663794 M 425.168769610083 272.593120667625 L 474.843018769056 301.518028685879 M 422.530006875262 276.839301101463 L 470.46046595716 308.570239171461 M 419.651657825627 280.926870525498 L 465.679999487535 315.359022736307 M 416.543230429884 284.842326587444 L 460.517410523777 321.861954165164 M 413.214992668181 288.572735472314 L 454.989752509501 328.057552505914 M 409.677938614069 292.105774626392 L 449.115284832435 333.925352038156 M 405.943752117887 295.429773461885 L 442.913412483094 339.44596986394 M 402.024768211821 298.533751907739 L 436.404621912367 344.601169878896" fill="none" stroke="rgb(0, 0, 255)" stroke-width="0.5" />
  <circle cx="300" cy="300" r="10" fill="rgb(255, 0, 0)" stroke="none" stroke-width="0" />
  <circle cx="400" cy="300.00000000000011" r="10" fill="rgb(255, 0, 0)" stroke="none" stroke-width="0" />
</svg>