<?xml version="1.0" encoding="utf-8"?>
<svg viewBox="0 0 768 768" version="1.1" xmlns="http://www.w3.org/2000/svg">
  <path d="M 300 300 C 299.406128558743 298.442710936446 298.812293564598 296.885434536544 298.220007683767 295.327560039302 C 297.627721802936 293.769685542059 297.036992965103 292.211212639835 296.449410471649 290.651549517036 C 295.861827978196 289.091886394236 295.277393885867 287.53103275002 294.697702904603 285.968420148711 C 294.118011923339 284.405807547402 293.543063407984 282.841435593701 292.974449359745 281.274764385153 C 292.405835311505 279.708093176605 291.843554412617 278.1391221793 291.289212147087 276.567346974123 C 290.734869881557 274.995571768947 290.188465355995 273.420991683361 289.651634792483 271.84314684729 C 289.114804228971 270.265302011219 288.587547532624 268.684191644627 288.071539151209 267.099411361915 C 287.555530769794 265.514631079203 287.050771267658 263.926180042139 286.558969478749 262.333721539012 C 286.06716768984 260.741263035885 285.588324394506 259.144796224763 285.124172217031 257.544064720198 C 284.660020039556 255.943333215632 284.210559438549 254.338336218702 283.777537035685 252.728910013988 C 283.344514632821 251.119483809274 282.927930142171 249.505627666814 282.529542598746 247.887282018919 C 282.13115505532 246.268936371023 281.750963330247 244.646100548896 281.3907496077 243.018829595552 C 281.030535885153 241.391558642208 280.690298628752 239.759851895501 280.371863901826 238.123888912212 C 280.0534291749 236.487925928923 279.756796212279 234.84770593934 279.483853776406 233.203543610125 C 279.210911340534 231.55938128091 278.96166156891 229.911275547891 278.738048208624 228.259689722577 C 278.514434848337 226.608103897262 278.316466233205 224.95303634847 278.146066359743 223.295118939683 C 277.97566648628 221.637201530896 277.832854549904 219.976431692736 277.719333550591 218.313640935459 C 277.605812551277 216.650850178181 277.521440041708 214.986051795103 277.467944033988 213.320261950862 C 277.414448026269 211.654472106622 277.392070981231 209.987667119495 277.402883202878 208.321053437172 C 277.413695424524 206.65443975485 277.457670441165 204.988021265895 277.536485723814 203.323234768043 C 277.615301006463 201.65844827019 277.728945419171 199.995293619479 277.878979321673 198.335413177988 C 278.029013224174 196.675532736496 278.215434989359 195.018925097846 278.439778667942 193.367451888727 C 278.664122346526 191.715978679607 278.926391384407 190.069638849126 279.22807622958 188.430532794814 C 279.529761074753 186.791426740501 279.87086704892 185.159554471235 280.252772708437 183.53726328124 C 280.634678367953 181.914972091246 281.057388799299 180.302263078431 281.522091047788 178.701721907684 C 281.986793296278 177.101180736937 282.49349103587 175.512809188016 283.04311336641 173.939409183035 C 283.59273569695 172.366009178054 284.185284483854 170.807582573593 284.821389284917 169.267119669767 C 285.457494085981 167.726656765941 286.137155190893 166.204158931866 286.860686933713 164.702780200575 C 287.584218676533 163.201401469285 288.351620480417 161.721142437474 289.162894476828 160.265306059543 C 289.974168473238 158.809469681612 290.829314251932 157.378056014798 291.728030251274 155.974512576861 C 292.626746250616 154.570969138923 293.569033431579 153.195296437115 294.554283607168 151.851083709878 C 295.539533782757 150.50687098264 296.567750508818 149.194121171813 297.637986239892 147.916541833912 C 298.708221970965 146.63896249601 299.820483948021 145.396562225723 300.973405231907 144.193084143922 C 302.126326515792 142.989606062121 303.31991883699 141.825069106881 304.55225416853 140.703050772702 C 305.784589500069 139.581032438523 307.055684428026 138.501568408269 308.362837559029 137.46766796282 C 309.669990690032 136.43376751737 311.013007466575 135.445155825689 312.389673657542 134.50581782951 C 313.766339848509 133.566479833332 315.17666878775 132.676455294433 316.617580903516 131.839005721154 C 318.058493019283 131.001556147875 319.529965738911 130.216661533598 321.028368056677 129.487034094274 C 322.526770374442 128.75740665495 324.05209352063 128.083038621313 325.600381491877 127.466296713903 C 327.148669463123 126.849554806494 328.719919828774 126.290439164506 330.309929767993 125.791024412159 C 331.899939707213 125.291609659811 333.508708334697 124.851900237351 335.131807399976 124.473641196128 C 336.754906465256 124.095382154906 338.392334019358 123.778579350293 340.039456029995 123.524568608619 C 341.686578040632 123.270557866945 343.343390585351 123.079344294261 345.005097680919 122.951770541911 C 346.666804776487 122.824196789561 348.333400830875 122.760265771311 349.999999999998 122.76026577131 C 351.666599169121 122.76026577131 353.333195223509 122.82419678956 354.994902319077 122.951770541911 C 356.656609414645 123.079344294261 358.313421959364 123.270557866944 359.960543970001 123.524568608618 C 361.607665980638 123.778579350292 363.245093534741 124.095382154905 364.86819260002 124.473641196128 C 366.491291665299 124.851900237351 368.100060292783 125.291609659811 369.690070232003 125.791024412159 C 371.280080171222 126.290439164507 372.851330536873 126.849554806494 374.399618508119 127.466296713904 C 375.947906479366 128.083038621314 377.473229625553 128.75740665495 378.971631943319 129.487034094274 C 380.470034261084 130.216661533598 381.941506980713 131.001556147875 383.38241909648 131.839005721154 C 384.823331212246 132.676455294433 386.233660151487 133.566479833331 387.610326342454 134.50581782951 C 388.986992533421 135.445155825689 390.330009309965 136.433767517369 391.637162440967 137.46766796282 C 392.94431557197 138.50156840827 394.215410499927 139.581032438524 395.447745831466 140.703050772703 C 396.680081163006 141.825069106882 397.873673484204 142.989606062121 399.02659476809 144.193084143922 C 400.179516051976 145.396562225722 401.291778029031 146.63896249601 402.362013760105 147.916541833911 C 403.432249491179 149.194121171812 404.460466217241 150.506870982639 405.44571639283 151.851083709876 C 406.430966568418 153.195296437114 407.373253749381 154.570969138922 408.271969748723 155.97451257686 C 409.170685748065 157.378056014797 410.025831526758 158.809469681611 410.837105523169 160.265306059542 C 411.648379519579 161.721142437473 412.415781323463 163.201401469285 413.139313066282 164.702780200575 C 413.862844809102 166.204158931866 414.542505914014 167.726656765941 415.178610715077 169.267119669767 C 415.814715516141 170.807582573593 416.407264303046 172.366009178054 416.956886633585 173.939409183035 C 417.506508964125 175.512809188016 418.013206703718 177.101180736937 418.477908952208 178.701721907684 C 418.942611200698 180.302263078431 419.365321632044 181.914972091245 419.747227291561 183.53726328124 C 420.129132951078 185.159554471234 420.470238925246 186.7914267405 420.771923770418 188.430532794813 C 421.073608615591 190.069638849126 421.335877653472 191.715978679606 421.560221332056 193.367451888726 C 421.784565010639 195.018925097845 421.970986775824 196.675532736495 422.121020678325 198.335413177987 C 422.271054580827 199.995293619479 422.384698993534 201.65844827019 422.463514276183 203.323234768042 C 422.542329558832 204.988021265894 422.586304575472 206.654439754849 422.597116797119 208.321053437172 C 422.607929018765 209.987667119495 422.585551973728 211.654472106621 422.532055966009 213.320261950862 C 422.47855995829 214.986051795102 422.39418744872 216.650850178181 422.280666449407 218.313640935458 C 422.167145450094 219.976431692736 422.024333513718 221.637201530895 421.853933640255 223.295118939682 C 421.683533766792 224.953036348469 421.485565151661 226.608103897261 421.261951791374 228.259689722576 C 421.038338431087 229.91127554789 420.789088659464 231.55938128091 420.516146223592 233.203543610124 C 420.243203787719 234.847705939339 419.946570825099 236.487925928923 419.628136098173 238.123888912211 C 419.309701371247 239.7598518955 418.969464114845 241.391558642208 418.609250392299 243.018829595552 C 418.249036669752 244.646100548896 417.868844944678 246.268936371023 417.470457401253 247.887282018918 C 417.072069857827 249.505627666814 416.655485367178 251.119483809274 416.222462964314 252.728910013988 C 415.78944056145 254.338336218702 415.339979960443 255.943333215632 414.875827782968 257.544064720197 C 414.411675605493 259.144796224763 413.932832310158 260.741263035885 413.44103052125 262.333721539012 C 412.949228732341 263.926180042139 412.444469230204 265.514631079203 411.928460848789 267.099411361915 C 411.412452467374 268.684191644626 410.885195771028 270.265302011219 410.348365207516 271.84314684729 C 409.811534644004 273.420991683361 409.265130118442 274.995571768947 408.710787852912 276.567346974123 C 408.156445587382 278.139122179299 407.594164688494 279.708093176604 407.025550640255 281.274764385153 C 406.456936592016 282.841435593701 405.881988076661 284.405807547403 405.302297095397 285.968420148711 C 404.722606114132 287.53103275002 404.138172021804 289.091886394237 403.550589528351 290.651549517036 C 402.963007034897 292.211212639835 402.372278197064 293.769685542059 401.779992316233 295.327560039302 C 401.187706435401 296.885434536544 400.593871441257 298.442710936447 400 300" fill="none" stroke="rgb(0, 0, 0)" stroke-width="2" />
  <path d="M 299.109411527586 297.66399981565 L 298.167858821759 298.022777668245 M 297.33294570848 292.990225843649 L 294.510249800885 294.059329042064 M 295.570597282134 288.311091288971 L 290.835663460929 290.08263298861 M 293.831922339533 283.62311473906 L 287.187244361528 286.063310415662 M 292.126479198292 278.922970297919 L 283.56505854626 281.988737772619 M 290.463857153421 274.207523799382 L 279.958105673019 277.850192686274 M 288.853779248093 269.473880856877 L 276.361708916336 273.636068310806 M 287.30617730622 264.719446939224 L 272.7837965101 269.3300503304 M 285.831202525541 259.941996858457 L 269.243168996939 264.912701553123 M 284.439181136446 255.13974942014 L 265.762699297375 260.364665001434 M 283.140551987807 250.311442519238 L 262.360519518746 255.669677891376 M 281.945831426813 245.456404665253 L 259.042587920854 250.815845450215 M 280.865640495007 240.574620789061 L 255.800514975366 245.794235610897 M 279.910800267609 235.666793220707 L 252.618981902751 240.594884514353 M 279.092453117614 230.734402932302 L 249.497280901492 235.201791190875 M 278.422100790166 225.779781513083 L 246.489172974642 229.590481750764 M 277.911364426343 220.806210884813 L 243.763977968289 223.734213928984 M 277.571167078619 215.818075474731 L 241.689034424649 217.627251662167 M 277.411288453624 210.820970796236 L 238.794836061143 211.327488258057 M 277.444179959445 205.821462149598 L 236.630910522156 204.733931064225 M 277.681024808856 200.827487469891 L 234.946512455159 197.896662008814 M 278.131512489789 195.848283414845 L 233.542975847395 190.818900751166 M 278.804923372661 190.894358496939 L 232.394737599518 183.488151641562 M 279.710339282989 185.977596300034 L 231.568498740325 175.900845589752 M 280.856379587381 181.111339917131 L 231.165264888405 168.0723331394 M 282.250752746337 176.310390772532 L 231.282251333775 160.036578786699 M 283.899815531393 171.590915744143 L 231.991527364827 151.839502847712 M 285.808248068618 166.970295781035 L 233.332350424953 143.529583694145 M 287.978882555201 162.466967017738 L 235.314395720461 135.149175196119 M 290.412666901066 158.100301720053 L 237.929480558497 126.730015908866 M 293.108701672904 153.890551257394 L 241.169746657145 118.29672827827 M 296.064259563821 149.858826683915 L 245.050244388462 109.882873461688 M 299.274681178032 146.027024424802 L 249.63293691814 101.565306417633 M 302.733039206497 142.41751500525 L 255.046763414473 93.523672598058 M 306.429475076294 139.052301727702 L 261.494539901946 86.1316103548577 M 310.35018631421 135.951288523781 L 268.605498967662 79.2090644559114 M 314.479523458501 133.134192425895 L 275.889455046759 71.9618286064321 M 318.801409371133 130.622580118364 L 284.28743671294 65.9018605715711 M 323.295663445031 128.434328672296 L 293.348664175843 60.6830061010441 M 327.939506264355 126.584658198993 L 302.8892276176 56.1690681681939 M 332.708456748046 125.086893698146 L 312.839394808205 52.3696776384751 M 337.576620155763 123.952504708799 L 323.152497875087 49.3741097715785 M 342.516805412335 123.190747429918 L 333.760978351025 47.2952459827386 M 347.500713584521 122.808169044026 L 344.564274888829 46.2289412296106 M 352.499286415475 122.808169044026 L 355.435725111163 46.2289412295854 M 357.483194587661 123.190747429917 L 366.239021648976 47.2952459826794 M 362.423379844233 123.952504708799 L 376.847502124922 49.3741097715244 M 367.29154325195 125.086893698146 L 387.1606051918 52.3696776384639 M 372.060493735641 126.584658198993 L 397.110772382385 56.1690681682368 M 376.704336554965 128.434328672297 L 406.651335824123 60.6830061011117 M 381.198590628863 130.622580118364 L 415.712563287033 65.9018605716036 M 385.520476541495 133.134192425895 L 424.110544953267 71.9618286063764 M 389.649813685786 135.95128852378 L 431.394501032438 79.2090644557783 M 393.570524923702 139.052301727702 L 438.505460097931 86.1316103550056 M 397.266960793499 142.41751500525 L 444.953236585401 93.5236725981702 M 400.725318821964 146.027024424801 L 450.367063081875 101.565306417599 M 403.935740436176 149.858826683914 L 454.949755611661 109.882873461581 M 406.891298327093 153.890551257393 L 458.830253342986 118.296728278185 M 409.58733309893 158.100301720052 L 462.070519441554 126.730015908847 M 412.021117444795 162.466967017738 L 464.68560427948 135.14917519616 M 414.191751931377 166.970295781035 L 466.667649574906 143.52958369421 M 416.100184468602 171.590915744144 L 468.008472635019 151.839502847764 M 417.749247253659 176.310390772532 L 468.717748666133 160.036578786715 M 419.143620412616 181.111339917131 L 468.83473511161 168.072333139381 M 420.289660717009 185.977596300034 L 468.431501259795 175.900845589717 M 421.195076627338 190.894358496938 L 467.605262400647 183.488151641534 M 421.868487510209 195.848283414845 L 466.457024152718 190.818900751159 M 422.318975191141 200.827487469891 L 465.053487544807 197.896662008823 M 422.555820040551 205.821462149597 L 463.369089477648 204.733931064232 M 422.588711546373 210.820970796236 L 461.205163938681 211.327488258048 M 422.428832921378 215.818075474731 L 458.310965575607 217.627251662176 M 422.088635573655 220.806210884812 L 456.236022031727 223.734213928986 M 421.577899209832 225.779781513082 L 453.51082702531 229.590481750757 M 420.907546882384 230.734402932301 L 450.502719098473 235.201791190868 M 420.089199732389 235.666793220707 L 447.381018097247 240.594884514351 M 419.134359504992 240.57462078906 L 444.199485024656 245.7942356109 M 418.054168573186 245.456404665253 L 440.957412079174 250.815845450221 M 416.859448012192 250.311442519238 L 437.639480481272 255.669677891381 M 415.560818863553 255.139749420139 L 434.237300702626 260.364665001434 M 414.168797474457 259.941996858456 L 430.756831003046 264.912701553118 M 412.693822693779 264.719446939224 L 427.216203489875 269.330050330392 M 411.146220751906 269.473880856877 L 423.638291083641 273.636068310797 M 409.536142846578 274.207523799382 L 420.041894326969 277.850192686269 M 407.873520801707 278.922970297918 L 416.434941453743 281.988737772619 M 406.168077660467 283.62311473906 L 412.812755638491 286.063310415669 M 404.429402717866 288.311091288971 L 409.164336539095 290.082632988619 M 402.66705429152 292.990225843649 L 405.489750199128 294.059329042069 M 400.890588472414 297.66399981565 L 401.832141178218 298.022777668236" fill="none" stroke="rgb(0, 0, 255)" stroke-width="0.5" />
  <circle cx="300" cy="300" r="10" fill="rgb(255, 0, 0)" stroke="none" stroke-width="0" />
  <circle cx="399.99999999999994" cy="300.00000000000011" r="10" fill="rgb(255, 0, 0)" stroke="none" stroke-width="0" />
</svg>