<?xml version="1.0" encoding="utf-8"?>
<svg viewBox="0 0 768 768" version="1.1" xmlns="http://www.w3.org/2000/svg">
  <path style="fill:none; stroke:black; stroke-width:2" d="M300,300  C298.811857698611,299.165361233043 297.574000881806,298.247695764093 296.430036604577,297.35346439998 C295.286072327348,296.459233035867 294.096698829439,295.479544261742 292.999898487148,294.528054372596 C291.903098144857,293.57656448345 290.765312401015,292.537409532261 289.71853879963,291.531144643006 C288.671765198246,290.52487975375 287.588536992194,289.428970968738 286.594522360747,288.370557574828 C285.6005077293,287.312144180918 284.574664441841,286.162342040931 283.63600330094,285.054542752892 C282.697342160039,283.946743464852 281.73156138915,282.746049118146 280.850703778873,281.591755450795 C279.969846168596,280.437461783444 279.066648740469,279.189009214267 278.245893825371,277.991234039448 C277.425138910274,276.793458864629 276.586882299568,275.500506713064 275.828372367526,274.262376395601 C275.069862435484,273.024246078138 274.29873461199,271.690169134556 273.604449482537,270.414915371969 C272.910164353085,269.139661609382 272.208178070835,267.767942005732 271.579929927579,266.458893393027 C270.951681784322,265.149844780321 270.320669328045,263.744062901259 269.760097988627,262.404636242814 C269.199526649208,261.06520958437 268.641135051818,259.629034721944 268.149703687761,258.262726113177 C267.658272323704,256.89641750441 267.173959067303,255.433598280704 266.75295038491,254.043973982778 C266.331941702518,252.654349684853 265.922970914136,251.168704267568 265.573483806417,249.75939139896 C265.223996698699,248.350078530351 264.891435850705,246.845484666856 264.61438252908,245.420161736058 C264.337329207455,243.99483880526 264.082046331285,242.475223701109 263.878149944576,241.037611005183 C263.674253557868,239.599998309257 263.496914978342,238.06932837759 263.366707725276,236.623178291623 C263.23650047221,235.177028205657 263.137569068374,233.639298714255 263.081390808513,232.188385897095 C263.025212548652,230.737473079935 263.004946545653,229.196697722976 263.022943912342,227.744809264843 C263.040941279032,226.292920806711 263.099393574112,224.753121228511 263.191519591674,223.304046766291 C263.283645609237,221.85497230407 263.420663633525,220.320167602272 263.586677839856,218.877689427997 C263.752692046186,217.435211253723 263.967918162985,215.909407488466 264.207387237168,214.477290676751 C264.446856311352,213.045173865037 264.739728749603,211.532353602626 265.052027643035,210.114336183442 C265.364326536467,208.696318764258 265.734080857175,207.200430682255 266.118394425049,205.800213884191 C266.502707992923,204.399997086127 266.948379084409,202.924945666734 267.403704213315,201.546184256245 C267.859029342221,200.167422845756 268.379453939143,198.717058184518 268.904602165292,197.363350926422 C269.429750391442,196.009643668325 270.023570111052,194.587751424796 270.617170722327,193.262631688958 C271.210771333603,191.93751195312 271.876436221324,190.547803469728 272.536939835048,189.254730008459 C273.197443448771,187.961656547191 273.933216023832,186.607759162116 274.658898630907,185.350107082348 C275.384581237982,184.092455002579 276.188541028521,182.777902581902 276.977508493371,181.55895453569 C277.766475958221,180.340006489478 278.636524514019,179.068230203305 279.48671751856,177.891167819656 C280.336910523102,176.714105436008 281.270776892835,175.488424802635 282.179976311585,174.356320383004 C283.089175730334,173.224215963374 284.084422389061,172.047830184863 285.050255081342,170.963638683993 C286.016087773623,169.879447183122 287.070116985039,168.75542679491 288.09006198919,167.721978107954 C289.110006993342,166.688529420998 290.220067590215,165.619808277333 291.291462703646,164.639799853408 C292.362857817078,163.659791429483 293.526052382188,162.649159045629 294.646101110126,161.725148847078 C295.766149838064,160.801138648527 296.97944226691,159.851232919734 298.145221121693,158.985632745495 C299.310999976476,158.120032571256 300.571223402003,157.2333328875 301.779689533852,156.428402077997 C302.988155665702,155.623471268493 304.292020724322,154.80229204296 305.540019863607,154.060131582927 C306.788019002891,153.317971122893 308.132122420111,152.564455751027 309.416397110273,151.887002785615 C310.700671800434,151.209549820204 312.081505273645,150.525665085142 313.398703373697,149.914687863667 C314.715901473748,149.303710642193 316.129860829779,148.691241581002 317.476544264014,148.148334841453 C318.823227698249,147.605428101904 320.26662230068,147.065973346487 321.639276032465,146.592554153194 C323.011929764251,146.119134959902 324.480992146442,145.654102564463 325.876033352931,145.251406609381 C327.27107455942,144.8487106543 328.761970258124,144.459314420077 330.175757681929,144.128392797395 C331.589545105733,143.797471174712 333.098382669598,143.484727481711 334.527226123006,143.226443944293 C335.956069576413,142.968160406876 337.47891072324,142.732885560935 338.919080720143,142.547914265788 C340.359250717046,142.362942970642 341.892120613284,142.205751072761 343.339858103683,142.094574821405 C344.787595594083,141.983398570048 346.326493229724,141.904699913529 347.778019411391,141.867608891848 C349.229545593059,141.830517870167 350.770454224844,141.830517869727 352.221980406533,141.867608890579 C353.673506588221,141.90469991143 355.212404223907,141.983398567069 356.660141714371,142.094574817596 C358.107879204834,142.205751068123 359.640749101162,142.362942965124 361.080919098172,142.547914259441 C362.521089095181,142.732885553758 364.043930242143,142.968160398819 365.472773695701,143.226443935407 C366.901617149258,143.484727471996 368.410454713305,143.797471164117 369.824242137304,144.128392785971 C371.238029561302,144.459314407824 372.728925260237,144.848710641168 374.123966466964,145.251406595422 C375.519007673692,145.654102549675 376.988070056161,146.119134944236 378.360723788232,146.592554136702 C379.733377520303,147.065973329168 381.17677212306,147.605428083709 382.523455557628,148.148334822433 C383.870138992196,148.691241561158 385.284098348605,149.303710621474 386.601296449037,149.914687842127 C387.91849454947,150.525665062779 389.299328023112,151.209549796971 390.583602713705,151.887002761564 C391.867877404298,152.564455726158 393.211980822003,153.317971097158 394.459979961771,154.060131556379 C395.707979101539,154.8022920156 397.0118441607,155.623471240273 398.220310293086,156.428402048971 C399.428776425473,157.233332857668 400.688999851598,158.120032540573 401.854778706973,158.985632714014 C403.020557562348,159.851232887456 404.233849991853,160.801138615409 405.353898720439,161.725148813173 C406.473947449026,162.649159010937 407.637142014856,163.659791393962 408.708537128994,164.639799817114 C409.779932243133,165.619808240266 410.889992840789,166.688529383118 411.909937845707,167.721978069317 C412.929882850626,168.755426755516 413.983912062888,169.879447142933 414.949744755998,170.963638643066 C415.915577449108,172.047830143198 416.910824108747,173.224215920936 417.820023528388,174.356320339851 C418.729222948029,175.488424758765 419.663089318742,176.714105391391 420.513282324239,177.89116777435 C421.363475329736,179.068230157308 422.233523886583,180.340006442763 423.022491352453,181.558954488315 C423.811458818323,182.777902533867 424.615418609979,184.09245495386 425.34110121814,185.350107033002 C426.066783826301,186.607759112144 426.802556402549,187.961656496573 427.463060017424,189.254729957253 C428.123563632299,190.547803417933 428.789228521277,191.937511900723 429.38282913377,193.262631636016 C429.976429746263,194.587751371308 430.5702494672,196.009643614283 431.095397694633,197.363350871881 C431.620545922066,198.71705812948 432.140970520385,200.167422790216 432.596295650639,201.54618420026 C433.051620780894,202.924945610303 433.497291873845,204.399997029253 433.881605443132,205.800213826929 C434.265919012418,207.200430624605 434.63567333466,208.696318706229 434.947972229567,210.114336125088 C435.260271124474,211.532353543947 435.553143564324,213.045173806049 435.792612640044,214.477290617506 C436.032081715764,215.909407428963 436.247307834225,217.435211193986 436.413322042151,218.877689368076 C436.579336250077,220.320167542167 436.716354276088,221.854972243811 436.808480295302,223.304046705926 C436.900606314516,224.753121168042 436.959058611377,226.292920746173 436.977055979771,227.744809204285 C436.995053348165,229.196697662396 436.974787347002,230.737473019379 436.918609088894,232.188385836607 C436.862430830787,233.639298653835 436.763499428837,235.177028145357 436.63329217757,236.623178231486 C436.503084926303,238.069328317614 436.325746348709,239.599998249504 436.12184996384,241.037610945691 C435.917953578971,242.475223641878 435.662670704774,243.994838746361 435.385617385024,245.420161677523 C435.108564065275,246.845484608686 434.776003219289,248.350078472623 434.426516113477,249.759391341705 C434.077029007664,251.168704210786 433.668058221319,252.65434962863 433.247049540857,254.043973927141 C432.826040860396,255.433598225652 432.341727606055,256.896417450039 431.850296243947,258.262726059507 C431.358864881839,259.629034668975 430.800473286525,261.065209532208 430.239901949067,262.404636191473 C429.679330611609,263.744062850738 429.048318157417,265.149844730735 428.420070016126,266.458893344384 C427.791821874836,267.767941958034 427.089835594672,269.13966156275 426.395550467183,270.414915326406 C425.701265339694,271.690169090062 424.930137518279,273.024246034845 424.171627588191,274.262376353504 C423.413117658102,275.500506672164 422.57486104946,276.793458825067 421.754106136298,277.991234001212 C420.933351223136,279.189009177356 420.030153797049,280.437461748009 419.149296188681,281.591755416817 C418.268438580313,282.746049085625 417.302657811433,283.946743433946 416.363996672406,285.054542723574 C415.42533553338,286.162342013202 414.399492247889,287.312144154944 413.405477618273,288.370557550573 C412.411462988657,289.428970946203 411.328234784524,290.52487973311 410.281461184919,291.531144624217 C409.234687585314,292.537409515324 408.09690184333,293.576564468546 407.000101502759,294.528054359674 C405.903301162187,295.479544250803 404.713927666068,296.459233027099 403.569963390489,297.353464393323 C402.42599911491,298.247695759547 401.188142299817,299.165361230805 400,300" />
  <path style="fill:none; stroke:green; stroke-width:0.5" d="M 299.282230097172,299.48481839091 232.246488445871,392.881470992818 M 297.857303553697,298.439981035679 228.938178465786,390.455629555753 M 296.453895365467,297.366413985792 225.679828546165,387.963085193397 M 295.072584693905,296.26456028315 222.472783337436,385.404866552648 M 293.713941581153,295.13487464303 219.318366320951,382.782029375492 M 292.378526714844,293.977823266441 216.217879262537,380.095656065117 M 291.066891196725,292.793883647729 213.172601674871,377.346855240828 M 289.779576315233,291.583544377528 210.183790288958,374.536761281911 M 288.517113322119,290.347304941131 207.252678534958,371.666533860635 M 287.280023213207,289.085675512363 204.380476032624,368.737357464584 M 286.068816513395,287.799176743043 201.568368091592,365.750440908534 M 284.883993065962,286.488339548121 198.817515221751,362.707016836075 M 283.726041826296,285.153704886583 196.129052653916,359.60834121123 M 282.595440660106,283.795823538203 193.504089871023,356.455692800288 M 281.492656146217,282.415255876252 190.943710150036,353.2503726441 M 280.418143384017,281.012571636234 188.448970114767,349.993703521081 M 279.372345805648,279.588349680776 186.020899299781,346.687029401174 M 278.355694993007,278.14317776073 183.660499725568,343.33171489102 M 277.368610499641,276.677652272629 181.368745485141,339.929144670588 M 276.411499677606,275.192378012555 179.146582342216,336.480722921524 M 275.484757509358,273.687967926554 176.994927341124,332.987872747473 M 274.588766444755,272.165042857686 174.914668428598,329.452035586617 M 273.723896243226,270.624231289807 172.906664087576,325.874670616693 M 272.890503821177,269.066169088211 170.971742983151,322.257254152738 M 272.088933104702,267.491499237214 169.110703620791,318.60127903781 M 271.319514887651,265.900871574812 167.324314016975,314.908254026938 M 270.582566695116,264.2949425245 165.613311382344,311.179703164545 M 269.878392652394,262.674374824379 163.978401817512,307.417165155605 M 269.207283359483,261.039837253659 162.420260021644,303.622192730765 M 268.569515771154,259.392004356662 160.939529013928,299.796352005698 M 267.965353082657,257.731556164455 159.536819868051,295.94122183494 M 267.395044621102,256.059177914211 158.212711459812,292.05839316045 M 266.858825742568,254.375559766426 156.967750227974,288.149468355161 M 266.356917734976,252.681396520099 155.802449948475,284.216060561795 M 265.889527726763,250.977387326009 154.717291522113,280.259793027174 M 265.456848601403,249.26423539818 153.712722775815,276.282298432334 M 265.059058917811,247.542647723681 152.789158277591,272.285218218688 M 264.696322836652,245.813334770864 151.94697916529,268.270201910541 M 264.368790052593,244.077010196166 151.186532989238,264.238906434225 M 264.07659573253,242.334390549595 150.508133568863,260.192995434154 M 263.819860459807,240.586194979019 149.912060863386,256.134138586109 M 263.598690184456,238.833144933392 149.398560856657,252.06401090803 M 263.413176179471,237.075963865014 148.967845456191,247.984292068653 M 263.263395003147,235.315376930984 148.620092406478,243.896665694284 M 263.149408467485,233.552110693935 148.355445216592,239.802818674042 M 263.071263612684,231.786892822194 148.174013102128,235.704440463885 M 263.028992687732,230.020451789492 148.075870941499,231.603222389736 M 263.022613137091,228.253516574339 148.061059246566,227.500856950044 M 263.052127593498,226.486816359188 148.129584147599,223.399037118083 M 263.117523876872,224.721080229529 148.281417392532,219.299455644324 M 263.218774999337,222.957036873009 148.516496217372,215.203804348478 M 263.355839176371,221.195414278704 148.834723688709,211.113773434589 M 263.528659844049,219.436939436663 149.235968500948,207.031050789578 M 263.737165682371,217.6823380379 149.720065039169,202.957321279183 M 263.981270644708,215.932334174919 150.286813507643,198.894266056625 M 264.260873993309,214.187650042903 150.935980009976,194.843561869707 M 264.575860340886,212.449005641678 151.667296643542,190.806880369445 M 264.926099698223,210.717118478587 152.480461608188,186.785887420568 M 265.311447527826,208.992703272386 153.375139329185,182.782242414189 M 265.73174480357,207.276471658293 154.350960594391,178.797597583017 M 266.18681807632,205.569131894308 155.407522705562,174.833597319389 M 266.676479545511,203.871388568926 156.544389643743,170.891877496482 M 267.200527136651,202.183942310365 157.761092248655,166.974064792989 M 267.758744584709,200.507489497427 159.057128411969,163.081776021597 M 268.350901523362,198.842721972118 160.431963284383,159.216617461537 M 268.976753580066,197.190326754131 161.885029496359,155.380184195528 M 269.636042476903,195.55098575733 163.415727392408,151.574059451388 M 270.328496137168,193.925375508331 165.023425278803,147.799813948591 M 271.053828797651,192.314166867317 166.707459684564,144.059005250051 M 271.811741126565,190.718024751182 168.467135635594,140.35317711939 M 272.60192034708,189.137607859135 170.301726941813,136.683858883948 M 273.424040366398,187.573568400867 172.210476497158,133.052564803799 M 274.277761910328,186.026551827394 174.192596592294,129.46079344701 M 275.1627326633,184.497196564694 176.247269239896,125.910027071387 M 276.078587413758,182.98613375024 178.373646512359,122.401731012956 M 277.024948204876,181.493986972542 180.570850891783,118.937353081408 M 278.001424490538,180.021372013803 182.8379756321,115.518322962751 M 279.007613296504,178.568896595794 185.174085133179,112.146051629391 M 280.043099386715,177.137160129065 187.578215326784,108.821930757886 M 281.107455434648,175.726753465571 190.049374074218,105.547332154612 M 282.200242199668,174.338258654845 192.586541575519,102.323607189547 M 283.321008708292,172.97224870379 195.188670790047,99.1520862384493 M 284.4692924403,171.629287340211 197.854687868317,96.034078133631 M 285.644619519604,170.309928780177 200.583492594905,92.970869623582 M 286.846504909808,169.014717499298 203.373958842287,89.9637248416802 M 288.074452614376,167.744188008039 206.224935035414,87.0138847842277 M 289.327955881317,166.498864631126 209.135244626881,84.122566798053 M 290.606497412317,165.279261291175 212.10368658247,81.2909640779179 M 291.909549576216,164.085881296599 215.129035876915,78.5202451739745 M 293.236574626754,162.919217133907 218.210043999656,75.8115535095036 M 294.58702492449,161.77975026446 221.345439470389,73.1660069091732 M 295.960343162805,160.667950925782 224.533928364192,70.5846971380487 M 297.355962597897,159.584277937506 227.774194845993,68.0686894515756 M 298.773307282662,158.529178512024 231.064901714132,65.6190221567577 M 300.211792304383,157.503088069932 234.404690952774,63.236706184736 M 301.670824026111,156.506430060345 237.792184292913,60.9227246749682 M 303.149800331646,155.539615786144 241.225983781677,58.6780325711942 M 304.648110874021,154.603044234238 244.704672359674,56.5035562293588 M 306.165137327367,153.69710191091 248.226814446063,54.4001930376467 M 307.70025364208,152.82216268231 251.790956531079,52.3688110487669 M 309.252826303178,151.978587620168 255.395627677151,50.4102484347122 M 310.822214591754,151.166724852792 259.039340374695,48.5253135895877 M 312.407770849411,150.386909421385 262.720590918441,46.7147843798124 M 314.008840745525,149.639463141771 266.437860109522,44.9794079559964 M 315.624763547281,148.924694471604 270.189613890976,43.3199004624925 M 317.254872392338,148.242898383074 273.974303978947,41.736946740396 M 318.898494564028,147.594356241184 277.790368500107,40.2312000434949 M 320.554951768977,146.979335687638 281.63623263501,38.8032817673363 M 322.223560417024,146.398090530387 285.51030926708,37.4537811915589 M 323.903631903319,145.850860638888 289.410999636942,36.1832552356315 M 325.594472892506,145.33787184511 293.336694001784,34.9922282281141 M 327.295385604846,144.859335850337 297.285772299441,33.8811916895502 M 329.005668104177,144.415450137801 301.256604816887,32.8506041290811 M 330.724614587595,144.006397891179 305.24755286283,31.9008908548622 M 332.451515676723,143.632347919002 309.256969444084,31.0324437983466 M 334.185658710461,143.293454584984 313.283199945422,30.2456213524927 M 335.926328039089,142.989857744321 317.324582812588,29.5407482239404 M 337.672805319601,142.721682685976 321.379450238178,28.9181152991939 M 339.424369812156,142.489040080976 325.446128850074,28.3779795248373 M 341.180298677512,142.292025936739 329.522940402142,27.9205638018091 M 342.939867275329,142.130721557455 333.608202466902,27.5460568937483 M 344.702349463216,142.005193510535 337.700229129868,27.2546133494268 M 346.467017896397,141.915493599142 341.797331685291,27.0463534392775 M 348.233144327873,141.861658840812 345.897819333007,26.9213631060205 M 349.999999908955,141.843711452178 349.999999876115,26.8796939293951 M 351.766855490047,141.861658839803 354.102180419206,26.9213631049981 M 353.532981921554,141.915493597123 358.202668066873,27.0463534372296 M 355.297650354787,142.005193507506 362.299770622214,27.2546133463469 M 357.060132542746,142.130721553416 366.391797285066,27.5460568896264 M 358.819701140655,142.292025931691 370.47705934968,27.9205637966327 M 360.575630006124,142.489040074919 374.553870901572,28.3779795185904 M 362.327194498814,142.72168267891 378.620549513262,28.9181152918574 M 364.073671779481,142.989857736245 382.675416938616,29.5407482154927 M 365.814341108285,143.293454575899 386.716799805519,30.2456213429092 M 367.54848414222,143.632347908908 390.743030306567,31.0324437876001 M 369.275385231567,144.006397880077 394.752446887506,31.900890842923 M 370.994331715224,144.415450125689 398.743394933111,32.8506041159169 M 372.704614214817,144.859335837218 402.714227450197,33.8811916751264 M 374.40552692744,145.337871830983 406.663305747473,34.9922282123939 M 376.096367916933,145.850860623753 410.589000111916,36.1832552185757 M 377.776439403557,146.398090514246 414.489690481362,37.453781173126 M 379.445048051953,146.979335670491 418.363767113002,38.8032817474826 M 381.101505257276,147.594356223032 422.209631247463,40.2312000221745 M 382.745127429363,148.242898363917 426.025695768171,41.7369467175605 M 384.375236274838,148.924694451445 429.810385855682,43.3199004380912 M 385.991159077038,149.63946312061 433.562139636673,44.9794079299761 M 387.592228973619,150.386909399223 437.27940882729,46.714784352117 M 389.177785231767,151.166724829632 440.960659370574,48.5253135601585 M 390.747173520859,151.978587596011 444.604372067663,50.4102484034872 M 392.299746182497,152.822162657159 448.20904321329,52.3688110156814 M 393.834862497776,153.697101884768 451.773185297874,54.4001930026415 M 395.351888951712,154.603044207107 455.29532738384,56.5035561923774 M 396.850199494703,155.539615758027 458.774015961429,58.6780325321769 M 398.329175800881,156.506430031246 462.207815449806,60.9227246338531 M 399.788207523277,157.503088039854 465.595308789581,63.2367061414592 M 401.226692545694,158.529178480971 468.935098027885,65.6190221112542 M 402.644037231181,159.584277905483 472.225804895717,68.0686894037794 M 404.039656667022,160.667950892794 475.466071377247,70.5846970878932 M 405.412974906115,161.779750230512 478.654560270818,73.1660068565919 M 406.763425204656,162.919217099005 481.78995574136,75.8115534544297 M 408.090450256027,164.085881260749 484.870963863956,78.5202451163421 M 409.393502420788,165.279261254384 487.896313158306,81.2909640176611 M 410.672043952679,166.498864593402 490.864755113853,84.1225667351068 M 411.92554722054,167.744187969389 493.775064705333,87.0138847185283 M 413.153494926057,169.014717459731 496.626040898535,89.9637247731643 M 414.355380317239,170.309928739701 499.416507146055,92.9708695521879 M 415.530707397552,171.629287298837 502.145311872848,96.0340780592983 M 416.678991130599,172.972248661528 504.811328951393,99.1520861611186 M 417.799757640293,174.338258611706 507.413458166271,102.32360710916 M 418.892544406413,175.726753421566 509.950625667999,105.547332071114 M 419.956900455477,177.137160084207 512.42178441594,108.821930671223 M 420.992386546849,178.568896550096 514.825914610137,112.146051539509 M 421.998575354009,180.021371967278 517.162024111896,115.518322869602 M 422.975051640895,181.493986925206 519.429148852984,118.937352984943 M 423.92141243327,182.986133702107 521.626353233275,122.401730913128 M 424.837267185015,184.49719651578 523.752730506701,125.910026968154 M 425.722237939306,186.026551777717 525.807403155368,129.460793340332 M 426.575959484588,187.573568350444 527.789523251673,133.052564693638 M 427.39807950529,189.137607807986 529.698272808295,136.683858770268 M 428.18825872722,190.718024699325 531.532864115901,140.35317700216 M 428.946171057581,192.314166814773 533.29254006843,144.059005129243 M 429.671503719542,193.925375455122 534.976574475806,147.79981382418 M 430.363957381319,195.550985703477 536.584272363935,151.574059323352 M 431.023246279699,197.190326699658 538.114970261838,155.380184063851 M 431.649098337977,198.842721917049 539.568036475789,159.216617326204 M 432.241255278236,200.507489441787 540.942871350305,163.081775882599 M 432.799472727931,202.183942254179 542.238907515846,166.97406465032 M 433.32352032074,203.871388512223 543.455610123113,170.891877350139 M 433.813181791631,205.569131837115 544.59247706378,174.833597169377 M 434.268255066111,207.276471600639 545.649039177567,178.797597429341 M 434.688552343616,208.9927032143 546.624860445522,182.782242256861 M 435.073900175011,210.717118420101 547.519538169402,186.785887259602 M 435.424139534169,212.449005582824 548.332703137065,190.806880204863 M 435.739125883596,214.187649983714 549.064019773784,194.843561701532 M 436.018729234077,215.932334115429 549.713186279406,198.894265884888 M 436.262834198322,217.682337978144 550.279934751308,202.957321103917 M 436.47134003858,219.436939376677 550.764031293096,207.031050610821 M 436.644160708222,221.195414218525 551.165276109041,211.113773252384 M 436.781224887248,222.957036812676 551.483503584225,215.203804162874 M 436.88247601173,224.72108016908 551.718582413054,219.299455455374 M 436.947872297148,226.486816298663 551.870415662111,223.399036925845 M 436.977386755624,228.25351651378 551.938940567405,227.500856754581 M 436.971007207077,230.020451728941 551.924128876867,231.603222191117 M 436.928736284242,231.786892761693 551.825986720769,235.704440262181 M 436.850591431582,233.552110633529 551.644554610972,239.802818469331 M 436.736604898082,235.315376870719 551.379907425887,243.896665486648 M 436.586823723942,237.075963804935 551.032154381109,247.98429185818 M 436.401309721162,238.833144873545 550.601438985709,252.064010694813 M 436.180139448035,240.586194919454 550.087938984176,256.134138370244 M 435.923404177556,242.334390490359 549.491866284024,260.192995215743 M 435.631209859755,244.077010137309 548.8134668691,264.238906213374 M 435.303677077974,245.813334712437 548.053020698624,268.270201687363 M 434.940940999108,247.542647665736 547.210841592021,272.285217993298 M 434.543151317825,249.264235340769 546.287277099613,276.282298204852 M 434.110472194788,250.977387269184 545.282708359247,280.259792797726 M 433.643082188909,252.681396463915 544.197549938931,284.21606033051 M 433.141174183664,254.375559710937 543.032249665588,288.149468122173 M 432.604955307487,256.059177859473 541.787288440013,292.058392925895 M 432.034646848297,257.731556110524 540.463180038141,295.941221598963 M 431.430484162173,259.392004303594 539.060470898731,299.796351768443 M 430.792716576224,261.039837201512 537.579739897578,303.622192492383 M 430.121607285698,262.674374773212 536.021598108367,307.41716491625 M 429.417433245365,264.294942474371 534.38668855028,311.179702924374 M 428.680485055221,265.900871525781 532.675685922479,314.908253786112 M 427.911066840562,267.49149918934 530.889296325574,318.601278796495 M 427.109496126479,269.066169041554 529.028256970202,322.257253911101 M 426.27610370682,270.62423124443 527.093335872836,325.874670374905 M 425.411233507677,272.165042813648 525.085331538942,329.452035344853 M 424.515242445456,273.687967883919 523.005072633607,332.98787250591 M 423.588500279584,275.192377971383 520.853417639763,336.480722680342 M 422.631389459917,276.677652232983 518.631254504141,339.929144429969 M 421.64430496891,278.143177722673 516.339500271065,343.33171465115 M 420.627654158617,279.588349644371 513.979100704247,346.68702916224 M 419.581856582584,281.012571601545 511.551029896693,349.993703283272 M 418.507343822705,282.41525584334 509.05628986889,353.250372407608 M 417.404559311122,283.795823507134 506.495910155397,356.455692565307 M 416.273958147221,285.15370485742 503.870947380021,359.608340977955 M 415.116006909825,286.488339520928 501.18248481972,362.707016604701 M 413.931183464641,287.799176717883 498.431631957424,365.750440679259 M 412.719976767056,289.0856754893 495.619524023944,368.737357237607 M 411.482886660348,290.347304920228 492.747321529163,371.666533636155 M 410.220423669411,291.583544358849 489.816209782711,374.53676106013 M 408.93310879007,292.793883631338 486.827398404336,377.346855021946 M 407.621473274073,293.977823252401 483.782120824193,380.095655849335 M 406.286058409855,295.134874631404 480.68163377328,382.782029163011 M 404.927415299162,296.264560274 477.52721676427,385.404866343671 M 403.546104629624,297.366413979182 474.320171562983,387.963084988125 M 402.142696443385,298.43998103167 471.061821650767,390.455629354387 M 400.717769901861,299.484818389563 467.753511678043,392.881470795559 " />
</svg>