<?xml version="1.0" encoding="utf-8"?>
<svg viewBox="0 0 768 768" version="1.1" xmlns="http://www.w3.org/2000/svg">
  <path d="M 250 400 C 250.826493382273 398.552696829673 251.631367551975 397.093049224184 252.415477991438 395.622358185127 C 253.199588430902 394.15166714607 253.962954896618 392.669940867828 254.706810483968 391.178497741297 C 255.450666071319 389.687054614767 256.175020928745 388.185898582559 256.88126544708 386.676276099472 C 257.587509965414 385.166653616386 258.275648300756 383.648565929029 258.947123873937 382.123149941413 C 259.618599447118 380.597733953798 260.273413112277 379.064989384789 260.913025928295 377.52593730124 C 261.552638744312 375.98688521769 262.177050149785 374.44152464106 262.787738114233 372.890770901348 C 263.398426078682 371.340017161635 263.995389828976 369.783869124899 264.580135122687 368.223152626521 C 265.164880416397 366.662436128143 265.737406911243 365.097150182044 266.299256904148 363.528047221463 C 266.861106897052 361.958944260881 267.412280679286 360.386023561714 267.954357489753 358.809977015249 C 268.49643430022 357.233930468784 269.029414947933 355.654757587446 269.554907133088 354.073098731307 C 270.080399318243 352.491439875168 270.59840405463 350.907294677768 271.110543472563 349.321258233525 C 271.622682890496 347.735221789283 272.128957819793 346.147293697056 272.630990619081 344.558029387924 C 273.13302341837 342.968765078792 273.630814390324 341.378163970345 274.125977355924 339.786749085045 C 274.621140321525 338.195334199744 275.113674880063 336.60310468613 275.605186997373 335.010561870757 C 276.096699114683 333.418019055385 276.587187798736 331.825161838355 277.078261889503 330.232484572641 C 277.56933598027 328.639807306927 278.06099441613 327.04730882278 278.554865050876 325.45549378535 C 279.048735685621 323.863678747921 279.54481844079 322.272546303773 280.044770042512 320.682627091571 C 280.544721644235 319.092707879368 281.048544702347 317.504002005316 281.557907825503 315.917072445138 C 282.067270948659 314.33014288496 282.582181913885 312.744991654585 283.104246110992 311.162199229806 C 283.626310308099 309.579406805028 284.15554405531 307.998978417924 284.693312530971 306.421459130855 C 285.231081006631 304.843939843785 285.77737970375 303.269323785009 286.334017137537 301.698358693493 C 286.890654571324 300.127393601977 287.457618513209 298.560076547177 288.036486389452 296.997161725228 C 288.615354265694 295.434246903279 289.206119604802 293.875731872026 289.810267059346 292.322417807721 C 290.41441451389 290.769103743417 291.0319415544 289.220988850752 291.664305997643 287.678953148861 C 292.296670440887 286.13691744697 292.943872247209 284.600959810444 293.607360430586 283.072060973266 C 294.270848613963 281.543162136089 294.950624502039 280.021321562251 295.648117712581 278.5076330433 C 296.345610923124 276.993944524348 297.060823325096 275.488407961472 297.795140501964 273.992234793215 C 298.529457678832 272.496061624957 299.282881478272 271.009251997647 300.056725149121 269.533134445652 C 300.830568819969 268.057016893658 301.624833856224 266.591591608381 302.440735890009 265.138301499883 C 303.256637923795 263.685011391385 304.094177960104 262.243856519917 304.954455226415 260.816392135013 C 305.814732492725 259.38892775011 306.697747533597 257.975153660339 307.604471646782 256.576738358805 C 308.511195759966 255.178323057271 309.441629188906 253.795266067864 310.396609598245 252.429354153831 C 311.351590007584 251.063442239797 312.331117596552 249.714674726744 313.335893361403 248.384965427344 C 314.340669126254 247.055256127944 315.370693543332 245.744604407147 316.426526204598 244.455061259584 C 317.482358865863 243.165518112022 318.564000877375 241.897083362701 319.671858903839 240.651951767124 C 320.779716930303 239.406820171548 321.913793058204 238.18499265043 323.074317408171 236.988802853441 C 324.234841758138 235.792613056453 325.421817712746 234.622063882443 326.635258108083 233.479600208058 C 327.848698503421 232.337136533672 329.088608265612 231.222764396957 330.354720826681 230.13897413838 C 331.62083338775 229.055183879803 332.913155363469 228.001986148146 334.231054299569 226.981793174794 C 335.548953235669 225.961600201442 336.892437449146 224.974429059783 338.260396539961 224.022407879602 C 339.628355630775 223.070386699421 341.020816383608 222.153536116015 342.437041958907 221.274946386983 C 343.853267534207 220.396356657951 345.293235467876 219.556005618817 346.755564461539 218.756506394806 C 348.217893455202 217.957007170794 349.70257275272 217.198347749161 351.207820528681 216.482917553465 C 352.713068304641 215.76748735777 354.238880775746 215.095281735833 355.783180702714 214.468588909717 C 357.327480629682 213.841896083601 358.89026771796 213.260716388367 360.469197090949 212.727267130373 C 362.048126463937 212.193817872378 363.643198914655 211.708102400273 365.251796346569 211.272237760922 C 366.860393778483 210.836373121571 368.482516585843 210.450364085061 370.115263504666 210.116165191401 C 371.748010423488 209.78196629774 373.391380709655 209.499582509628 375.042192151774 209.27073184908 C 376.693003593893 209.041881188533 378.351254148528 208.866567927191 380.013501636521 208.74620362034 C 381.675749124514 208.625839313489 383.341990452717 208.560426985027 385.008562386429 208.551016622319 C 386.67513432014 208.541606259611 388.342033208573 208.588199390937 390.005425881597 208.691450198787 C 391.66881855462 208.794701006638 393.328701370254 208.954609566436 394.981126449955 209.171422403916 C 396.633551529655 209.388235241396 398.27851571298 209.66195129435 399.912007790978 209.992417262484 C 401.545499868976 210.322883230618 403.167517373663 210.710097483617 404.774028005225 211.153527755348 C 406.380538636788 211.596958027079 407.971540400719 212.096602924764 409.543012905795 212.651574774836 C 411.114485410871 213.206546624907 412.666426319086 213.816845295714 414.194858514754 214.481240226079 C 415.723290710422 215.145635156444 417.228209928978 215.864128699213 418.705729902871 216.635132017129 C 420.183249876764 217.406135335045 421.633361897636 218.229654670422 423.052364914449 219.103679883078 C 424.471367931262 219.977705095734 425.85924517236 220.902247885855 427.212667830837 221.874743827266 C 428.566090489313 222.847239768677 429.88502884035 223.867707733102 431.166869666197 224.932801436049 C 432.448710492045 225.997895138997 433.693470282504 227.107619445314 434.897869168774 228.259544762313 C 436.102268055045 229.411470079311 437.266318337543 230.605565348145 438.387441071506 231.838685978655 C 439.508563805469 233.071806609166 440.586767832926 234.343934270674 441.62001680169 235.651575010119 C 442.653265770453 236.959215749564 443.641565413769 238.302359569225 444.583313088002 239.677371910546 C 445.525060762235 241.052384251868 446.420259614525 242.459260110886 447.267674677552 243.894334085924 C 448.115089740578 245.329408060962 448.914722215611 246.792677728046 449.665672855829 248.280500631061 C 450.416623496047 249.768323534077 451.118892259131 251.28069821012 451.771907616958 252.814033082898 C 452.424922974785 254.347367955675 453.02868435026 255.9016615687 453.582953249433 257.473394481193 C 454.137222148607 259.045127393685 454.641998119441 260.634297734615 455.097384016536 262.237482967008 C 455.552769913631 263.840668199401 455.958765965344 265.457866019835 456.315818520777 267.085782241211 C 456.672871076209 268.713698462587 456.980981439447 270.352330603768 457.240928248049 271.998549049251 C 457.500875056652 273.644767494733 457.712660870247 275.298569982295 457.8773676897 276.957027454656 C 458.042074509154 278.615484927016 458.159706058414 280.278595748869 458.231600339412 281.943661012065 C 458.30349462041 283.608726275261 458.329656103649 285.2757452602 458.31161675666 286.942267051197 C 458.293577409672 288.608788842194 458.231341649689 290.274813674356 458.126567779561 291.938142135867 C 458.021793909433 293.601470597379 457.874485055727 295.262103536687 457.686367857136 296.918084367137 C 457.498250658546 298.574065197588 457.26932522049 300.225394528654 457.001360354421 301.870346556742 C 456.733395488352 303.51529858483 456.426385999458 305.153872186591 456.082178563428 306.784574406279 C 455.737971127398 308.415276625966 455.356552365999 310.038102341459 454.939983028713 311.651835689092 C 454.523413691427 313.265569036725 454.071668673785 314.870197726964 453.587307668228 316.464910045454 C 453.102946662671 318.059622363943 452.585989430035 319.644430697067 452.038049334355 321.218429192309 C 451.490109238675 322.79242768755 450.911204920058 324.355622646406 450.303279041588 325.907431816833 C 449.695353163119 327.45924098726 449.058416560462 328.999668536102 448.394522807309 330.528377954597 C 447.730629054156 332.057087373093 447.039783669629 333.574081310301 446.324030602843 335.079218417171 C 445.608277536057 336.58435552404 444.867618933552 338.077637430205 444.104033258236 339.559086282935 C 443.34044758292 341.040535135665 442.553935070184 342.510151936193 441.746392027414 343.968102925299 C 440.938848984645 345.426053914405 440.11027477641 346.87233975979 439.262487373595 348.3072585201 C 438.414699970779 349.742177280411 437.547698547755 351.165729499702 436.663234198337 352.578336131118 C 435.778769848918 353.990942762534 434.876841939628 355.392604362569 433.959145873945 356.783856623759 C 433.041449808263 358.175108884948 432.107985290342 359.555952449684 431.160399047899 360.927028802252 C 430.212812805457 362.298105154821 429.251104850303 363.659415045521 428.276875269721 365.011695304991 C 427.30264568914 366.36397556446 426.315894658587 367.707227032643 425.318174045124 369.042269926046 C 424.32045343166 370.377312819448 423.31176337775 371.704148020301 422.293604949426 373.023666158355 C 421.275446521101 374.343184296408 420.247819639984 375.655386230902 419.212173932113 376.961219875598 C 418.176528224242 378.267053520293 417.132863272753 379.566519639423 416.082580916987 380.860611185399 C 415.032298561221 382.154702731376 413.975398059801 383.443420305842 412.913242247678 384.727791596156 C 411.851086435555 386.01216288647 410.783674453846 387.292188279715 409.71234244631 388.568922743547 C 408.641010438774 389.845657207379 407.565757890474 391.119100889144 406.487905143856 392.390332020603 C 405.410052397238 393.661563152062 404.329600058623 394.93058165361 403.247852904187 396.198488547098 C 402.166105749752 397.466395440587 401.083066661661 398.733190481389 400 400" fill="none" stroke="rgb(0, 0, 0)" stroke-width="2" />
  <path d="M 251.22364102701 397.819950868661 L 276.677208772488 411.862324808272 M 253.576243592877 393.408209395787 L 277.738362685013 405.864017975873 M 255.808143514446 388.934202650923 L 278.381201287113 399.83389847274 M 257.927233432171 384.405633761375 L 278.792562448417 393.870470123975 M 259.942023647387 379.829655397854 L 279.061201359677 388.003599906685 M 261.861229181523 375.212740690904 L 279.216541680706 382.230438767575 M 263.693665640527 370.560696532001 L 279.260040328869 376.536770180521 M 265.448282351503 365.878743811723 L 279.187248973067 370.907962866192 M 267.134222672702 361.171615097256 L 279.000544312429 365.333179052099 M 268.760851889454 356.443641738176 L 278.713722317236 359.805671187477 M 270.337732697475 351.698819413019 L 278.350355644456 354.32119017477 M 271.874556941158 346.94085368952 L 277.938173232814 348.87581844366 M 273.381060018014 342.173195268744 L 277.501856216749 343.463981805616 M 274.866951181301 337.399078217396 L 277.056647787082 338.077036634747 M 276.341888871162 332.621573663649 L 276.605122533266 332.702703999331 M 277.815515180172 327.843666139663 L 276.139397333967 327.325722177999 M 279.297537612191 323.068349998695 L 275.650993222299 321.930387509637 M 280.797809423708 318.298729116275 L 275.150441129474 316.50614933443 M 282.326312044571 313.538084403375 L 274.698497963301 311.0581538886 M 283.892884360001 308.789850514811 L 274.450409674931 305.625565096782 M 285.506583809014 304.057450840433 L 274.169880841721 300.120560568043 M 287.176913053247 299.344741795901 L 273.832277057098 294.513490221868 M 288.913896109515 294.656190491977 L 273.74290932091 288.901175122837 M 290.726704981194 289.99645752273 L 273.794523685099 283.23743833445 M 292.624161647131 285.370582431118 L 273.948468190712 277.49560055079 M 294.614986712862 280.784144959288 L 274.210371637485 271.663379076918 M 296.707819209733 276.243367505736 L 274.610837722232 265.738893150888 M 298.91110904791 271.755165573538 L 275.190857824838 259.727274903561 M 301.232956941249 267.32715944725 L 275.991543761709 253.637631304544 M 303.680952918176 262.967663923083 L 277.047743579135 247.480279512563 M 306.262043813142 258.685673637586 L 278.385091580265 241.264358400586 M 308.982442397866 254.490859394325 L 280.020044600078 234.996104857172 M 311.847576060408 250.393585875892 L 281.962454394485 228.678258287812 M 314.862061173209 246.404953250109 L 284.220200919987 222.311210918763 M 318.029680508512 242.536854434369 L 286.805338968413 215.896658404354 M 321.353335261113 238.802026170822 L 289.741058988397 209.444632227793 M 324.834940424115 235.214055587457 L 293.0684902608 202.984901810458 M 328.475232433299 231.78728457612 L 296.851943510126 196.583759812645 M 332.273461149946 228.536532108101 L 301.180620184716 190.367011818373 M 336.226944390292 225.476529531171 L 306.16430436602 184.549387269751 M 340.330606352572 222.621130077019 L 311.321002308146 178.531627201166 M 344.579006743591 219.986062392318 L 316.889361979029 172.513436204904 M 348.965592799822 217.588183851814 L 323.197472196511 167.13594879602 M 353.48085180256 215.442475577606 L 330.033724703389 162.193581410259 M 358.113198673088 213.562960468028 L 337.317309169674 157.610609141475 M 362.849366833002 211.963156218839 L 345.029306074666 153.40291773163 M 367.67446941378 210.656073711802 L 353.167198154451 149.642315793289 M 372.571949352501 209.65393866218 L 361.718652541282 146.426146859727 M 377.523554575724 208.967780081658 L 370.649869417291 143.853757662605 M 382.509407266789 208.606996413752 L 379.904045347746 142.01014820381 M 387.508184133418 208.578979134768 L 389.406099165111 140.956238764187 M 392.497387642279 208.888844184941 L 399.070567813563 140.724763421713 M 397.453666365269 209.539293801425 L 408.810295857689 141.320884520465 M 402.35313588862 210.530605167365 L 418.543944729268 142.727122305332 M 407.171660170521 211.860717769369 L 428.200204332258 144.91282758361 M 411.885076795785 213.525368469281 L 437.715835015823 147.848780595936 M 416.469388267247 215.518202045225 L 447.023465984302 151.527149296524 M 420.900995292902 217.830765341543 L 456.023829780234 155.985658827327 M 425.157116975451 220.452275187316 L 464.536509714124 161.332327760148 M 429.216626886788 223.369033898822 L 472.224396820379 167.764090684481 M 433.06142260102 226.563596156411 L 479.565223981785 174.406886752724 M 436.67389325022 230.018659333817 L 486.674551166389 181.271008561138 M 440.03668909827 233.717181966694 L 492.793072217722 188.993417914353 M 443.13598408496 237.639207974355 L 498.063327236998 197.21212110004 M 445.960874027412 241.76332992915 L 502.58253670874 205.72376981123 M 448.502853057351 246.067637126212 L 506.402188404204 214.41660655325 M 450.755521107523 250.530200829263 L 509.53816848894 223.22391443085 M 452.714465629009 255.129315820484 L 511.984968049791 232.095075220768 M 454.37725513712 259.843645846005 L 513.729902489128 240.980056791563 M 455.743481595608 264.652360764301 L 514.765356863529 249.823348960179 M 456.814793057192 269.535305172739 L 515.098274518836 258.564159595712 M 457.594867382826 274.473202007573 L 514.756511189121 267.140492098863 M 458.089292262732 279.447870085013 L 513.791549727146 275.495254058992 M 458.305336159006 284.442421775447 L 512.276714289844 283.582704637548 M 458.251619182567 289.441405979552 L 510.299692371063 291.373393456288 M 457.937722306344 294.430872303866 L 507.948023442414 298.855413305943 M 457.373807701907 299.398354814415 L 505.286287232007 306.029411083312 M 456.570362368243 304.332807980191 L 502.32399447159 312.894440527977 M 455.538221599031 309.224573403658 L 498.97360002617 319.421464113253 M 454.2890782086 314.065513673032 L 494.998493684601 325.51147864014 M 452.836528156076 318.84944314192 L 491.009673453641 331.29342136296 M 451.193161975979 323.571255861911 L 487.197310627931 336.894878469241 M 449.369889451075 328.226570675075 L 482.951834819799 342.10161566045 M 447.378723222898 332.812640563007 L 478.49003140202 346.970712094333 M 445.231967927198 337.328037822694 L 473.926784354266 351.550932785894 M 442.941695366313 341.772408444913 L 469.312884463037 355.876889336907 M 440.51953019345 346.146319793419 L 464.663908055444 359.970284896791 M 437.976613691433 350.451166231014 L 459.980174423197 363.844476283755 M 435.323651128352 354.689105992732 L 455.258964248431 367.509638915107 M 432.570980545249 358.863010254584 L 450.500675657382 370.976917054966 M 429.728627676263 362.976411988576 L 445.710663990663 374.26082261529 M 426.80633301979 367.033447831096 L 440.898351783209 377.379779665864 M 423.813552869982 371.038790822153 L 436.074925021112 380.355131414396 M 420.759446381415 374.997575497481 L 431.250631685762 383.209174468068 M 417.652865476009 378.91531943407 L 426.432433949786 385.962907208162 M 414.50236361022 382.797846962326 L 421.622583037747 388.634221176606 M 411.316233102185 386.6512213648 L 416.818608584691 391.237266280187 M 408.102568872902 390.48169148217 L 412.015245489953 393.783709431481 M 404.869339082626 394.29565724205 L 407.208959008152 396.286594868767 M 401.624420243483 398.099656215119 L 402.405978147054 398.767501200232" fill="none" stroke="rgb(0, 0, 255)" stroke-width="0.5" />
  <circle cx="250" cy="400" r="10" fill="rgb(255, 0, 0)" stroke="none" stroke-width="0" />
  <circle cx="399.99999999999989" cy="399.99999999999989" r="10" fill="rgb(255, 0, 0)" stroke="none" stroke-width="0" />
  <line x1="-245.89602936361831" y1="1268.3819021959159" x2="745.89602936361825" y2="-468.38190219591593" fill="none" stroke="rgb(0, 255, 0)" stroke-width="2" />
</svg>