<?xml version="1.0" encoding="utf-8"?>
<svg viewBox="0 0 768 768" version="1.1" xmlns="http://www.w3.org/2000/svg">
  <path d="M 392.877280119761 250.719426080486 C 391.340452341285 250.082595290751 389.753639501993 249.566814970851 388.136453841054 249.177294371353 C 386.519268180115 248.787773771854 384.871746493738 248.524511750584 383.213793282538 248.389565414448 C 381.555840071338 248.254619078311 379.887489098861 248.247981141005 378.228407446778 248.368620785112 C 376.569325794695 248.48926042922 374.919543752158 248.737165238579 373.298010216055 249.108365190175 C 371.676476679952 249.479565141771 370.083218135284 249.97404364587 368.53603922172 250.585109912058 C 366.988860308156 251.196176178247 365.487783481206 251.923810340772 364.049101900258 252.758875094928 C 362.61042031931 253.593939849084 361.2341522819 254.536412891169 359.934773739825 255.575027452301 C 358.635395197749 256.613642013433 357.412920251393 257.748374129788 356.279764663543 258.966175295503 C 355.146609075693 260.183976461218 354.102782792159 261.484821769179 353.158461118437 262.85424817014 C 352.214139444716 264.223674571101 351.369328288806 265.661656869744 350.631843741446 267.152693843351 C 349.894359194085 268.643730816959 349.264203308867 270.187797574589 348.746773456539 271.768730908059 C 348.229343604211 273.349664241529 347.824638226445 274.967440093599 347.535632519541 276.605600861684 C 347.246626812638 278.243761629769 347.073315900363 279.902284555648 347.016301369849 281.564769175899 C 346.959286839334 283.227253796151 347.018560834425 284.893679052127 347.192447170828 286.548030600892 C 347.366333507231 288.202382149656 347.65482172327 289.84464096717 348.054095623273 291.459479742381 C 348.453369523275 293.074318517592 348.963416443303 294.661720529841 349.578454018906 296.207313812185 C 350.193491594509 297.752907094528 350.913505384051 299.256677431428 351.730950563505 300.705440383543 C 352.54839574296 302.154203335657 353.463256531306 303.547947326534 354.466452741868 304.874868980637 C 355.46964895243 306.201790634741 356.561163909308 307.461881080141 357.730625919413 308.644871397796 C 358.900087929517 309.827861715451 360.147479865214 310.933745734104 361.461392477877 311.95390177776 C 362.77530509054 312.974057821416 364.155721235025 313.908482345602 365.590451565152 314.750273680098 C 367.025181895279 315.592065014594 368.514209666144 316.341222097031 370.044820001974 316.992597640399 C 371.575430337804 317.643973183768 373.147607287659 318.197568391577 374.748356030784 318.64998905824 C 376.349104773908 319.102409724902 377.978410515463 319.453659031281 379.623229414735 319.702062657101 C 381.268048314008 319.950466282922 382.928367055259 320.096029024823 384.591303897474 320.138736232464 C 386.254240739689 320.181443440106 387.919784122526 320.121301090517 389.575401216943 319.959872945128 C 391.231018311361 319.79844479974 392.876696675112 319.535738684492 394.500505900612 319.174782656514 C 396.124315126111 318.813826628536 397.726244626849 318.354629682993 399.295061595708 317.801569919744 C 400.863878564568 317.248510156496 402.399574304487 316.601597389203 403.891758160588 315.866418413438 C 405.38394201669 315.131239437673 406.832607097812 314.307804609322 408.228321727066 313.402757895947 C 409.624036356321 312.497711182571 410.966795354244 311.511063235131 412.248216456072 310.450357417178 C 413.529637557899 309.389651599225 414.749717192344 308.254898637503 415.90118803348 307.054380760371 C 417.052658874615 305.853862883239 418.135518847822 304.587590700532 419.143657799326 303.264425107707 C 420.15179675083 301.941259514881 421.085213984516 300.561210837509 421.938977182517 299.133561473055 C 422.792740380517 297.705912108602 423.566850101732 296.230671955095 424.257552772058 294.717393108078 C 424.948255442384 293.204114261061 425.555552748262 291.652806070556 426.076852894823 290.073145864261 C 426.598153041383 288.493485657966 427.033458712474 286.885482138989 427.381306988898 285.258802383342 C 427.729155265322 283.632122627695 427.98954969688 281.986774612957 428.162109360661 280.332289991907 C 428.334669024442 278.677805370857 428.419398204751 277.014191335962 428.416939092842 275.350730292772 C 428.414479980934 273.687269249582 428.324837465507 272.023967563642 428.149607930064 270.369756676048 C 427.974378394622 268.715545788454 427.713567204825 267.070431212531 427.369647907549 265.442904316567 C 427.025728610274 263.815377420602 426.598706924716 262.205442855655 426.091850308015 260.621075681608 C 425.584993691314 259.036708507561 424.998308098117 257.477912517145 424.335767231107 255.952083143591 C 423.673226364098 254.426253770037 422.934836301959 252.933393964418 422.125186639129 251.480268976612 C 421.3155369763 250.027143988805 420.43463381209 248.613755956365 419.487591202276 247.246201813402 C 418.540548592462 245.878647670439 417.527372562913 244.556928779329 416.453610606081 243.286447550458 C 415.379848649249 242.015966321587 414.245506634162 240.796723389445 413.056476203353 239.633411713722 C 411.867445772543 238.470100037999 410.623732566801 237.362719580274 409.33148599247 236.315249435357 C 408.039239418139 235.267779290439 406.698464829709 234.280218808396 405.31548688359 233.355838443733 C 403.932508937471 232.431458079071 402.507332658463 231.570256636906 401.046380073998 230.774809833858 C 399.585427489534 229.979363030811 398.088703267335 229.249669197512 396.562654093648 228.587630864027 C 395.03660491996 227.925592530541 393.481235095372 227.331207626121 391.902948701692 226.805733616527 C 390.324662308012 226.280259606932 388.723463126692 225.823695422579 387.10565135367 225.436682901374 C 385.487839580648 225.04967038017 383.853418580305 224.732206558605 382.208531533601 224.484346967648 C 380.563644486897 224.236487376691 378.908294360551 224.058229009746 377.248419826185 223.94908587305 C 375.588545291819 223.839942736355 373.924148911028 223.799911789119 372.260923380323 223.828010878914 C 370.597697849618 223.856109968708 368.935645325574 223.952336033506 367.280177146807 224.115256547568 C 365.624708968041 224.27817706163 363.975826892962 224.507788958019 362.338631549529 224.802255322073 C 360.701436206095 225.096721686127 359.075928967345 225.45603946499 357.466876279673 225.878013272943 C 355.857823592 226.299987080897 354.265226460992 226.784613900134 352.693499331299 227.329385424834 C 351.121772201606 227.874156949534 349.570915733594 228.479070219186 348.044979898805 229.141348867118 C 346.519044064016 229.80362751505 345.018029203325 230.523268660879 343.5456133321 231.297271705878 C 342.073197460876 232.071274750878 340.629380628921 232.899636917509 339.217465993793 233.779175831061 C 337.805551358665 234.658714744613 336.425538709382 235.589427752298 335.080357584403 236.567991451393 C 333.735176459423 237.546555150488 332.424826418329 238.572967033363 331.151868296486 239.643801391148 C 329.878910174642 240.714635748934 328.643343333786 241.829890237359 327.447368026636 242.986073246956 C 326.251392719487 244.142256256552 325.095008140964 245.339365621714 323.980064815593 246.573877669598 C 322.865121490221 247.808389717482 321.791618475751 249.080302472863 320.761069701139 250.386091265109 C 319.730520926527 251.691880057355 318.742925339806 253.031543109046 317.799475256145 254.401582901487 C 316.856025172483 255.771622693928 315.956719454642 257.172037649946 315.102445244919 258.599382561975 C 314.248171035196 260.026727474004 313.438927131705 261.481000961879 312.67531306511 262.958832303125 C 311.911698998516 264.436663644371 311.193713518276 265.938051646218 310.521686949578 267.459719355744 C 309.84966038088 268.98138706527 309.223591435072 270.523333460412 308.643560283122 272.082391949353 C 308.063529131171 273.641450438294 307.529534450601 275.217620145224 307.041425842521 276.807859045946 C 306.553317234442 278.398097946667 306.111093339761 280.002405278707 305.714393295185 281.617875836595 C 305.317693250609 283.233346394484 304.966515649755 284.859979487006 304.66030989166 286.495017584906 C 304.354104133566 288.130055682807 304.092868745183 289.773498114195 303.875884960481 291.422745194305 C 303.658901175779 293.071992274414 303.48616742616 294.727043288195 303.356819560178 296.385466731879 C 303.227471694196 298.043890175563 303.141510356617 299.705686215735 303.097940772063 301.368577827098 C 303.05437118751 303.03146943846 303.053191667679 304.695456732939 303.093284554113 306.358434448593 C 303.133377440548 308.021412164248 303.21474133869 309.683380414935 303.336158755589 311.342404028326 C 303.457576172487 313.001427641716 303.619045938773 314.657506751282 303.819269896936 316.308874433885 C 304.019493855099 317.960242116488 304.258471005617 319.606898537893 304.534838745709 321.24724278985 C 304.8112064858 322.887587041807 305.124963942381 324.521619330579 305.474698075456 326.147901978506 C 305.824432208531 327.774184626434 306.210142238695 329.392717884534 306.630377055589 331.002223878503 C 307.050611872483 332.611729872472 307.505370766997 334.212208898921 307.993175703855 335.802538779014 C 308.480980640713 337.392868659107 309.001830965812 338.973049733 309.554231931829 340.542110738373 C 310.106632897845 342.111171743747 310.690583897207 343.669113059891 311.304582927826 345.215108939942 C 311.918581958445 346.761104819994 312.562628456341 348.295155676137 313.235221950741 349.81657533418 C 313.907815445141 351.337994992222 314.608955416971 352.846783889698 315.337151052618 354.342389044466 C 316.065346688265 355.837994199235 316.820597517849 357.320416065864 317.60142980725 358.789228155265 C 318.38226209665 360.258040244665 319.188675431169 361.713243019879 320.0192197967 363.154529594576 C 320.849764162232 364.595816169273 321.704439205661 366.023187006693 322.581824397478 367.436447868479 C 323.459209589295 368.849708730264 324.359304643505 370.248860072387 325.28072331304 371.633813403734 C 326.202141982574 373.01876673508 327.144884051956 374.389522498236 328.107601319447 375.746091205056 C 329.070318586939 377.102659911877 330.053010907549 378.44504198731 331.054370826316 379.773340436664 C 332.055730745082 381.101638886018 333.075758182771 382.415854114752 334.113188105645 383.716175393129 C 335.150618028519 385.016496671505 336.20545041239 386.302924386571 337.276463406797 387.575728132368 C 338.347476401205 388.848531878165 339.43467001903 390.107712027866 340.536865656663 391.353612803844 C 341.639061294295 392.599513579822 342.756258975171 393.832135349897 343.887323040064 395.051891417637 C 345.018387104956 396.271647485377 346.163317551518 397.478538226285 347.321021466571 398.673040465106 C 348.478725381624 399.867542703927 349.649202689602 401.049656841929 350.831403756241 402.219917419253 C 352.01360482288 403.390177996577 353.207529439575 404.548585463913 354.41217331824 405.695725712744 C 355.616817196905 406.842865961576 356.832179922417 407.97873952177 358.057307153007 409.10397631376 C 359.282434383597 410.22921310575 360.517328134107 411.343812073922 361.761070622086 412.448442280297 C 363.004813110065 413.553072486672 364.25740411393 414.647734634897 365.517958321187 415.733142686761 C 366.778512528444 416.818550738625 368.047029902004 417.894705195139 369.322659481596 418.962355944983 C 370.598289061189 420.030006694827 371.881030939875 421.089154094861 373.170068042642 422.140577577451 C 374.459105145408 423.19200106004 375.754437651596 424.235700885264 377.055280290874 425.272481442756 C 378.356122930153 426.309262000249 379.662475933743 427.339123490618 380.973582727865 428.362891837045 C 382.284689521987 429.386660183473 383.600550363813 430.404335555403 384.920433691919 431.416762657444 C 386.240317020025 432.429189759484 387.564223099072 433.436368750265 388.891441451735 434.439160671375 C 390.218659804397 435.441952592484 391.549190690821 436.440357605195 392.882340772971 437.435250698755 C 394.215490855121 438.430143792315 395.551260382092 439.421525138251 396.888969331858 440.410281182297 C 398.226678281625 441.399037226343 399.566326890148 442.385168153101 400.907244813355 443.369569194541 C 402.248162736562 444.35397023598 403.590350198655 445.336641588863 404.933143084989 446.318484408793 C 406.275935971322 447.300327228723 407.619334498169 448.281341721023 408.962677481317 449.262431944855 C 410.306020464465 450.243522168687 411.64930811754 451.224688332707 412.991878968013 452.206834289283 C 414.334449818486 453.18898024586 415.676304083064 454.172106201181 417.016776778848 455.157112683942 C 418.357249474633 456.142119166703 419.696340826588 457.1290063753 421.033379033336 458.118668475798 C 422.370417240084 459.108330576296 423.705402538465 460.100767755508 425.037652847515 461.096864925215 C 426.369903156564 462.092962094922 427.699418726063 463.092719429148 429.025503545285 464.097009879515 C 430.351588364508 465.101300329882 431.674242693674 466.110124060063 432.99275276288 467.124339533202 C 434.311262832087 468.138555006342 435.62562890493 469.158162382893 436.935115514418 470.184003216046 C 438.244602123906 471.2098440492 439.549209524381 472.241918509064 440.848176652092 473.281048775188 C 442.147143779804 474.320179041313 443.44047086064 475.366365313142 444.727367610386 476.420407647528 C 446.014264360132 477.474449981913 447.294730949456 478.536348635169 448.56794486972 479.606878153928 C 449.841158789985 480.677407672687 451.107120121296 481.756568406578 452.364972211242 482.845104887198 C 453.622824301188 483.933641367818 454.872567094397 485.031554084519 456.113309560915 486.13955131138 C 457.354052027432 487.247548538241 458.585793920913 488.365630961761 459.807612037809 489.494461840625 C 461.029430154706 490.623292719488 462.24132611148 491.762871337933 463.442336437518 492.913819312083 C 464.643346763556 494.064767286233 465.83347129863 495.227084959705 467.011699374168 496.401347814309 C 468.189927449706 497.575610668914 469.356258991293 498.761819074642 470.509637836387 499.960497033434 C 471.663016681481 501.159174992226 472.803442789086 502.370322904879 473.929815322924 503.594407514661 C 475.056187856761 504.818492124443 476.168506767293 506.055513863124 477.265627187807 507.305875969299 C 478.362747608321 508.556238075474 479.444669448334 509.819941008313 480.510204833955 511.097317814591 C 481.575740219575 512.374694620869 482.624888995656 513.665745780378 483.656422104403 514.97072709793 C 484.687955213151 516.275708415482 485.701872418838 517.594620382031 486.69690639949 518.9276342696 C 487.691940380141 520.260648157168 488.668090810465 521.607764456262 489.624056306359 522.969062533108 C 490.580021802253 524.330360609954 491.51580194593 525.705840941382 492.430066864078 527.095483719441 C 493.344331782225 528.485126497499 494.237080966808 529.888932171021 495.106963003375 531.30677480125 C 495.976845039943 532.724617431479 496.823859336757 534.156497424368 497.646641194667 535.602176285021 C 498.469423052577 537.047855145674 499.267971806113 538.507333222247 500.040918911483 539.980253793663 C 500.813866016852 541.45317436508 501.561210747376 542.939537707279 502.281591168772 544.438864178776 C 503.001971590167 545.938190650273 503.695386928737 547.450480441399 504.360493126755 548.975127480971 C 505.025599324773 550.499774520543 505.662395576512 552.036778901442 506.269567561041 553.5854059882 C 506.87673954557 555.134033074958 507.454286440042 556.694282853249 508.000935888672 558.265291525913 C 508.547585337301 559.836300198576 509.063336514075 561.418067636938 509.546971407518 563.009601949175 C 510.030606300961 564.601136261413 510.482124094013 566.2024372005 510.900373453104 567.812387595519 C 511.318622812196 569.422337990538 511.703602938629 571.040937475782 512.05424130244 572.666948198328 C 512.40487966625 574.292958920875 512.721175492929 575.926380400207 513.002146858797 577.56586045398 C 513.283118224665 579.205340507752 513.528764380766 580.850878549238 513.738205434602 582.501016081719 C 513.947646488438 584.1511536142 514.120881712633 585.805889958599 514.257144311691 587.463669813419 C 514.393406910749 589.121449668239 514.492696168688 590.782272281697 514.55436919912 592.444496300881 C 514.616042229552 594.106720320064 514.640098310612 595.770344946447 514.626029228538 597.433654431259 C 514.611960146465 599.09696391607 514.559765148266 600.759957446853 514.469081725791 602.420856996442 C 514.378398303315 604.08175654603 514.249226973328 605.740559901683 514.081354148066 607.395436193589 C 513.913481322803 609.050312485494 513.706906592692 610.701261075404 513.461566810103 612.346427801257 C 513.216227027514 613.99159452711 512.932121962659 615.630978510519 512.609343695467 617.2627137595 C 512.286565428275 618.894449008481 511.925113900065 620.518534488208 511.525238572921 622.133106799872 C 511.125363245777 623.747679111537 510.687064222308 625.352737134059 510.210748007335 626.946436292598 C 509.734431792363 628.540135451136 509.220098638936 630.122474596137 508.668309416255 631.691645056532 C 508.116520193575 633.260815516928 507.527275293344 634.816816161167 506.90128510172 636.357891369946 C 506.275294910097 637.898966578724 505.612559944819 639.425115274772 504.913933275646 640.934651487123 C 504.215306606473 642.444187699473 503.480788863823 643.937110432324 502.711367176685 645.411818933284 C 501.941945489547 646.886527434244 501.13762058703 648.343020808177 500.299503447135 649.779797718335 C 499.46138630724 651.216574628494 498.589477743244 652.633634292725 497.68500100004 654.029587378497 C 496.780524256835 655.425540464269 495.84348021691 656.800386308957 494.875191659219 658.152858423926 C 493.906903101528 659.505330538894 492.907370962479 660.835428382919 491.87800389851 662.142017340014 C 490.848636834541 663.448606297109 489.789435820456 664.731685945756 488.701881041038 665.990260760165 C 487.614326261621 667.248835574574 486.498418714416 668.482905248781 485.355695304824 669.691618798452 C 484.212971895231 670.900332348123 483.043433627845 672.083689577339 481.848659097543 673.240987801722 C 480.653884567241 674.398286026105 479.433874770044 675.529525154024 478.190234970697 676.634152952359 C 476.946595171349 677.738780750695 475.679326341846 678.816797227201 474.390045641882 679.867801225131 C 473.100764941918 680.91880522306 471.789473304276 681.942796846611 470.457785483285 682.939525174212 C 469.126097662294 683.936253501813 467.774014536706 684.905718734234 466.403134854892 685.847817899749 C 465.032255173077 686.789917065265 463.642579745408 687.704650465513 462.235678632282 688.592059317039 C 460.828777519155 689.479468168564 459.404651448783 690.33955288345 457.964830241222 691.172493525699 C 456.525009033661 692.005434167948 455.06949332185 692.811231276046 453.599762464581 693.59019665098 C 452.130031607311 694.369162025914 450.646086129907 695.121296356019 449.149346231399 695.847034004676 C 447.652606332892 696.572771653333 446.14307241952 697.272113490762 444.622098533212 697.945604788956 C 443.101124646903 698.61909608715 441.568711064307 699.266737939952 440.026140538964 699.889171842745 C 438.483570013621 700.511605745538 436.930842193612 701.10883053426 435.369147822043 701.681588153753 C 433.807453450474 702.254345773246 432.236793123653 702.802637229958 430.65828234511 703.327294887545 C 429.079771566568 703.851952545133 427.493410678852 704.352977258882 425.900232963345 704.831277889214 C 424.307055247837 705.309578519545 422.707060849439 705.765155809039 421.101197220987 706.198983164212 C 419.495333592535 706.632810519385 417.883600728115 707.044888601048 416.266859250559 707.436244862802 C 414.650117773003 707.827601124556 413.028367563991 708.198236169595 411.402383381359 708.549222038798 C 409.776399198727 708.900207908 408.146180842602 709.231545165047 406.512419618643 709.544341701294 C 404.878658394685 709.857138237542 403.241354045628 710.151394589946 401.601117873822 710.428246255568 C 399.960881702015 710.70509792119 398.317713411132 710.964545418474 396.672148467276 711.207743940628 C 395.02658352342 711.450942462782 393.378621604565 711.677892514109 391.728726988978 711.889761315952 C 390.078832373392 712.101630117796 388.427004722607 712.298418161585 386.773642087984 712.481297228776 C 385.120279453362 712.664176295967 383.46538148601 712.833146864007 381.8092851701 712.989378005927 C 380.15318885419 713.145609147847 378.495893834043 713.289101324375 376.83768131355 713.421013860588 C 375.179468793057 713.5529263968 373.520338411879 713.673259733071 371.860520965338 713.78315668453 C 370.200703518796 713.893053635989 368.540198643363 713.992514618858 366.879192156155 714.082659510338 C 365.218185668947 714.172804401819 363.556677204933 714.253633590753 361.894813069197 714.326237975838 C 360.232948933462 714.398842360924 358.57072876223 714.463222301707 356.908264818051 714.520434104478 C 355.245800873872 714.57764590725 353.583092798921 714.627689902389 351.920224230949 714.671582630674 C 350.257355662978 714.715475358958 348.59432625761 714.753217124509 346.931196303154 714.7857799482 C 345.268066348699 714.818342771891 343.604835525388 714.845726938012 341.941545765966 714.868855542554 C 340.278256006544 714.891984147095 338.614907031541 714.910857465194 336.951526929988 714.926345484815 C 335.288146828435 714.941833504436 333.624735382239 714.95393650723 331.961310591643 714.963467214949 C 330.297885801047 714.972997922668 328.634447536665 714.979956644868 326.971006345698 714.985094426643 C 325.307565154732 714.990232208418 323.64412103095 714.993549415079 321.980678122573 714.995730383749 C 320.317235214197 714.99791135242 318.653793680576 714.998956539213 316.99035016759 714.999477450099 C 315.326906654604 714.999998360985 313.663461538456 714.999995585855 312 715" fill="none" stroke="rgb(0, 0, 0)" stroke-width="2" />
  <path d="M 390.537010113021 249.855569637079 L 439.026778577723 100.759862111242 M 385.69041169713 248.687915541643 L 410.244468462692 95.1901905810639 M 380.721515921751 248.283201059872 L 381.360300660538 94.1857499860851 M 375.749113581493 248.644488482656 L 353.076522455907 97.5892211089789 M 370.889120822146 249.756747179431 L 326.03754939461 105.155196969984 M 366.251857885279 251.587957220722 L 300.823950789909 116.555481133859 M 361.939668716097 254.090589471692 L 277.943108458272 131.388523669369 M 358.044901824595 257.203381387597 L 257.820614885065 149.192945377932 M 354.648264072594 260.853333095977 L 240.794721308255 169.463435828811 M 351.817551021808 264.957853772041 L 227.114442640195 191.667029685682 M 349.606750120686 269.426993803279 L 216.940808202546 215.258301653672 M 348.055506330329 274.16570379666 L 210.35032102327 239.692807190354 M 347.188933792389 279.076067106951 L 207.339785398757 264.438737749916 M 347.017751824429 284.059458257704 L 207.832008995462 288.987081888337 M 347.538718890826 289.018585387303 L 211.682235876087 312.860599069111 M 348.735334239907 293.85938068109 L 218.685371817353 335.621739921836 M 350.578773620585 298.492708647112 L 228.584083243838 356.879429181885 M 353.029022894403 302.835868057323 L 241.077728150807 376.294478415287 M 356.036171441493 306.813869408232 L 255.831893934754 393.58337049272 M 359.541826021564 310.360475854949 L 272.488157097607 408.520255680444 M 363.480605193686 313.419001740384 L 290.673603492613 420.937179853805 M 367.781674521241 315.942869076976 L 310.009681928998 430.722771347195 M 372.370283591051 317.895928641791 L 330.120105242212 437.819788470359 M 377.169267358339 319.252558717086 L 350.637737595531 442.222030633773 M 382.100476491817 319.99756094758 L 371.210680023688 443.971112235911 M 387.086104235844 320.125879292577 L 391.508047582538 443.15347210235 M 392.049891135052 319.642172887958 L 411.225855500746 439.895545767456 M 396.918417951223 318.560235212549 L 430.083955049123 434.332827269487 M 401.62216144084 316.902306595595 L 447.831946048806 426.650341700824 M 406.096231664656 314.698303854067 L 464.255869734662 417.058206242461 M 410.281146139312 311.984942622781 L 479.176680168233 405.77989212949 M 414.123451404794 308.804808899372 L 492.449549358699 393.048865838583 M 417.576190673809 305.205403629569 L 503.963298456878 379.104898953583 M 420.599226860742 301.23818008719 L 513.639583468626 364.190178831128 M 423.15943100675 296.957591409428 L 521.43165237851 348.545427565861 M 425.230746716504 292.420163367636 L 527.322632568606 332.406226546139 M 426.794141701116 287.683605286952 L 531.323394387477 315.999694845642 M 427.837457880821 282.805969974698 L 533.47007832281 299.541613459361 M 428.355171740129 277.84487157756 L 533.821385543532 283.234039963892 M 428.348076747304 272.856768461118 L 532.455729178697 267.263423613088 M 427.822899649254 267.896316492341 L 529.468335846064 251.799206583458 M 426.791862332187 263.015796506162 L 524.968377189162 236.992878725412 M 425.272200697706 258.264618251245 L 519.076199178852 222.977437943812 M 423.285651643399 253.688901737547 L 511.920701030479 209.867196203441 M 420.85791875638 249.331135649207 L 503.6368951147 197.757864459721 M 418.018126727765 245.229911340735 L 494.363655827594 186.726851730751 M 414.79827377554 241.419729902402 L 484.241643067881 176.833726287479 M 411.2326905229 237.93087886208 L 473.411370266382 168.1208103915 M 407.357512818769 234.789374285703 L 462.011383285783 160.61391094593 M 403.210174906874 232.016963346817 L 450.176528684648 154.323220845045 M 398.82892814951 229.631181857558 L 438.036318492216 149.244452032118 M 394.252389191924 227.645460788663 L 425.713440788441 145.360273587361 M 389.519119992697 226.069275693287 L 413.32246626853 142.642234646223 M 384.667241830541 224.908323772713 L 400.967075174964 141.065934226007 M 379.734092451734 224.164689641694 L 388.748456853905 140.587150087675 M 374.755924090475 223.837075145394 L 376.75856093605 141.150231749319 M 369.767636614718 223.921069001107 L 365.078669039757 142.695126472735 M 364.802546980888 224.409420281806 L 353.780198356967 145.158785746468 M 359.892195042809 225.292313762239 L 342.925469209057 148.475978541917 M 355.066185109622 226.557645668545 L 332.56827843012 152.579776761467 M 350.352062113003 228.191298132012 L 322.754258716592 157.401942449836 M 345.775220782692 230.177410469879 L 313.521091693631 162.87337319265 M 341.358845841238 232.498645300974 L 304.898680015704 168.924678363548 M 337.123880913989 235.136447451556 L 296.909380343558 175.48688437853 M 333.089023608609 238.071293616849 L 289.568367916248 182.492214131058 M 329.270744049906 241.28293081661 L 282.884159150203 189.874859302055 M 325.683324060419 244.75060181844 L 276.859274254657 197.571663148792 M 322.338914155073 248.453255900664 L 271.490987042501 205.522650186423 M 319.24760556927 252.369743587247 L 266.772089674073 213.671370021018 M 316.417514664028 256.478994310566 L 262.691597713777 221.96505713305 M 313.854877249216 260.760176343774 L 259.235333983922 230.35463932268 M 311.564150636577 265.192838793107 L 256.386354337642 238.794649433385 M 309.54812157803 269.757035951653 L 254.125209486964 247.243104810257 M 307.808018661794 274.433434889967 L 252.430068973462 255.661415953096 M 306.343628229027 279.203407795379 L 251.276761287225 264.014371229498 M 305.15341343715 284.049111270927 L 250.638804118595 272.270221144515 M 304.234636732523 288.953555566589 L 250.487508397502 280.400857403824 M 303.583486705023 293.900667539838 L 250.792238635366 288.382053139307 M 303.195211186738 298.875349413709 L 251.522888542742 296.193794370355 M 303.064237508525 303.863476519545 L 252.667585055436 303.819276980779 M 303.184223555005 308.851904670888 L 254.196730501538 311.24187821123 M 303.548160746576 313.828512817917 L 256.078267717527 318.448816509232 M 304.148499510758 318.782194972254 L 258.283276976441 325.430684370592 M 304.977255325584 323.70284801123 L 260.785521744317 332.180601186937 M 306.026099304192 328.581356640446 L 263.560863289425 338.693656182836 M 307.286437246073 333.409574768656 L 266.586698557487 344.966597201521 M 308.749480121571 338.180302904195 L 269.841516113152 350.997694126672 M 310.406308112672 342.887261489755 L 273.304613413608 356.786700157702 M 312.247929604616 347.525060352329 L 276.955978699776 362.334842947303 M 314.265335909609 352.08916465754 L 280.776313245058 367.644794632364 M 316.449552005785 356.575857922349 L 284.747153829882 372.720590105652 M 318.791683191613 360.9822027574 L 288.851049353126 377.567482792861 M 321.282957288167 365.306000079783 L 293.07174714682 382.19174422861 M 323.91476186907 369.545747559082 L 297.394351345762 386.600426484643 M 326.678675960468 373.700598033933 L 301.8054252177 390.801114562108 M 329.566495731105 377.770318563159 L 306.293019672394 394.801699516432 M 332.570253885488 381.75525065473 L 310.846619713543 398.610203116525 M 335.682232781158 385.656272047457 L 315.457008361822 402.234682266368 M 338.89497171433 389.474760204296 L 320.116052994613 405.683237297682 M 342.201269356548 393.212557412598 L 324.816421887025 408.964143560579 M 345.594182978583 396.87193707543 L 329.551238983992 412.08612134046 M 349.067026866498 400.455570419348 L 334.313682709471 415.058755698234 M 352.613373218743 403.966492437585 L 339.096530194517 417.893075857001 M 356.22705981218 407.40806543369 L 343.891642203518 420.602303449772 M 359.902208643535 410.783937554884 L 348.692626569562 423.199160281187 M 363.633210606514 414.098001414627 L 353.509554698956 425.678280173455 M 367.414656175202 417.354408809714 L 358.336477849813 428.051656024666 M 371.241336457663 420.557552408263 L 363.167327579292 430.332693537699 M 375.108247565354 423.712020967792 L 367.99877623702 432.532526254482 M 379.010582871963 426.822566532738 L 372.82927424414 434.660691940326 M 382.943717370079 429.894080487814 L 377.658344084137 436.725734866371 M 386.90318723605 432.931575093969 L 382.486084199679 438.735702909912 M 390.88466695127 435.94016794429 L 387.312838681243 440.698525297143 M 394.883945656158 438.925067492779 L 392.13899365795 442.62226963188 M 398.896903831359 441.891558429818 L 396.964867325396 444.515286125594 M 402.919490909235 444.844986204047 L 401.790666679342 446.386253360412 M 406.94770401738 447.790740421566 L 406.616489677169 448.244144154329 M 410.977567744868 450.734237189607 L 411.442356315895 450.098132751021 M 415.005114601084 453.680900713299 L 416.268255708166 451.957466110776 M 419.026365706391 456.636144600735 L 421.09419845442 453.831322894914 M 423.03731121346 459.605353383288 L 425.920264327011 455.728684034732 M 427.033890007947 462.59386471506 L 430.746634456803 457.658238627272 M 431.011968377229 465.606952577383 L 435.573594882177 459.628348218879 M 434.967317566186 468.649811581545 L 440.40149460245 461.647091088157 M 438.8955904595 471.727542135261 L 445.2306363701 463.722405549894 M 442.792298040679 474.845135815954 L 450.061072645419 465.862347074442 M 446.652786778899 478.007459776617 L 454.892272831145 468.075467547519 M 450.472218685979 481.219238397834 L 459.722621704966 470.371315590929 M 454.245556467109 484.485029692582 L 464.54870379092 472.761043809188 M 457.96755696062 487.809193168562 L 469.364325644426 475.258091545839 M 461.632776400878 491.195845984654 L 474.164444302632 477.873387409172 M 465.235560529137 494.6488397215 L 478.956317429758 480.604553414295 M 468.769986363622 498.171765911548 L 483.734329616113 483.463129960791 M 472.229853253018 501.767923837736 L 488.492219929493 486.460325389347 M 475.608690116195 505.440286637455 L 493.223170883078 489.606868474534 M 478.899759738565 509.191465228428 L 497.919468889854 492.913244504229 M 482.096063699008 513.023669501127 L 502.57221427915 496.389802592436 M 485.190350856256 516.938667091565 L 507.171082966778 500.0467472159 M 488.175131542228 520.937740337003 L 511.704145192544 503.894027157673 M 491.042698907306 525.021642258227 L 516.157748769925 507.94113637093 M 493.785158238807 529.190552605531 L 520.516474793043 512.196843561093 M 496.394464529169 533.444035151368 L 524.763172512156 516.668870157224 M 498.862468104366 537.780997510885 L 528.879076994941 521.363539270117 M 501.180967735986 542.199654822129 L 532.844008268928 526.285420535978 M 503.341770352196 546.697498620707 L 536.636644174167 531.436996655328 M 505.336756233426 551.271272199008 L 540.234851754958 536.818376208831 M 507.157948428108 555.916953647834 L 543.616054646751 542.427073384294 M 508.797585052145 560.629747638365 L 546.757607829794 548.257868339904 M 510.248193143023 565.404086814862 L 549.63714774495 554.302752313058 M 511.502662825512 570.233643433362 L 552.232886463916 560.550950113056 M 512.554320710879 575.111351598805 L 554.523824428065 566.989000763261 M 513.39700169529 580.029440122673 L 556.489867704936 573.600866733719 M 514.025118645771 584.979475645141 L 558.111852479666 580.36803566739 M 514.433729863574 589.952415240097 L 559.371500424695 587.269577996379 M 514.618604695203 594.938667248115 L 560.25135154789 594.282131290871 M 514.576288220568 599.928158561533 L 560.734743034258 601.379798816744 M 514.304166262365 604.910404883072 L 560.809034527485 608.534244432319 M 513.800512983485 609.874572800461 L 560.473867936862 615.716656757298 M 513.064497133793 614.809607505636 L 559.721203599086 622.896855625904 M 512.096204994737 619.704346544972 L 558.546907186736 630.04345547321 M 510.896661062103 624.547599405058 L 556.951367603977 637.124622774226 M 509.467833469447 629.32823963208 L 554.938847243111 644.108609142003 M 507.812624910328 634.035304893423 L 552.517041596278 650.964179883522 M 505.93485003444 638.658099765439 L 549.696794200953 657.66099725082 M 503.839200376858 643.186297048563 L 546.491904688854 664.169995025383 M 501.531197954802 647.610034328716 L 542.918968681805 670.463758217578 M 499.017138732362 651.920003322218 L 538.997197473499 676.516901890242 M 496.304027210801 656.107530260218 L 534.748180713215 682.306429011345 M 493.399503450027 660.164646187981 L 530.195573836262 687.812040316576 M 490.311763865945 664.084146574209 L 525.364710720422 693.016369726115 M 487.049477178365 667.859640045923 L 520.282158181573 697.905126060049 M 483.621696905155 671.485586385341 L 514.975240289769 702.467133842034 M 480.037771810314 674.957324146568 L 509.471565851042 706.694280495719 M 476.307255716549 678.271088371847 L 503.798591565904 710.581391697337 M 472.439818086914 681.424018909573 L 497.983247123492 714.126068793746 M 468.445156764921 684.414159759226 L 492.051638346601 717.328530364138 M 464.332914238456 687.240449691882 L 486.028832418856 720.191503304257 M 460.11259875965 689.902704118968 L 479.938717239873 722.720207157755 M 455.793511610713 692.401587806436 L 473.803916903161 724.922469446807 M 451.384681754531 694.738577556628 L 467.645738587881 726.809000681684 M 446.894809048622 696.915913405623 L 461.484123637149 728.393847198098 M 442.332217131801 698.936536210008 L 455.337577407896 729.695029892118 M 437.704814522194 700.804010138324 L 449.221444042504 730.731120717765 M 433.020019995621 702.522480304198 L 443.141541845943 731.500901031987 M 428.284756434593 704.096671370881 L 437.110678839366 732.024381487214 M 423.505470954445 705.531808928058 L 431.139278035437 732.323576561226 M 418.688106075402 706.833541441761 L 425.234390980551 732.418213373188 M 413.838086004232 708.007872974809 L 419.400540830782 732.326451555854 M 408.960316611153 709.061103364563 L 413.640292343868 732.065465104834 M 404.05919563258 709.999773673705 L 407.954627726746 731.651867925284 M 399.13863031039 710.830615274167 L 402.343195585704 731.101987809241 M 394.202060280801 711.560501402476 L 396.804485807159 730.432008166254 M 389.252484050709 712.196400436753 L 391.33596860489 729.658004414671 M 384.292487846377 712.745330491327 L 385.934222791979 728.795904160569 M 379.324275988752 713.214315204423 L 380.595067430702 727.861398792422 M 374.349702241372 713.610340807663 L 375.313702699777 726.869830428904 M 369.370301790854 713.940314713205 L 370.084860030548 725.836073591886 M 364.387323656279 714.211025935135 L 364.902957988644 724.774426578967 M 359.401763382444 714.429107676407 L 359.762258574579 723.698524010282 M 354.414395852922 714.601002360949 L 354.657018116387 722.621279838148 M 349.42580796217 714.732929272805 L 349.581627304728 721.554869361752 M 344.436430711515 714.830854780047 L 344.530735835858 720.510759371661 M 339.446570041816 714.900464870994 L 339.499358335173 719.499797174203 M 334.456435385795 714.947139413744 L 334.482959566789 718.532371515434 M 329.466164515636 714.975927167302 L 329.47751826972 717.618660874356 M 324.475842776346 714.99152012368 L 324.479570171294 716.768986710968 M 319.485514232515 714.998225245153 L 319.48623162503 715.994290432253 M 314.495181615726 714.999931079503 L 314.495205581746 715.306752263964" fill="none" stroke="rgb(0, 0, 255)" stroke-width="0.5" />
  <circle cx="480.08509836929011" cy="510.58945138985945" r="10" fill="rgb(255, 0, 0)" stroke="none" stroke-width="0" />
  <circle cx="312" cy="714.99999999999989" r="10" fill="rgb(255, 0, 0)" stroke="none" stroke-width="0" />
  <line x1="1311.9999999964793" y1="714.99734641020655" x2="-687.99999999647923" y2="715.00265358979323" fill="none" stroke="rgb(0, 255, 0)" stroke-width="2" />
  <circle cx="380.72100637504349" cy="280.05547495686079" r="31.754980003671385" fill="none" stroke="rgb(0, 0, 255)" stroke-width="2" />
  <line x1="1311.9999999964793" y1="714.99734641020655" x2="-687.99999999647923" y2="715.00265358979323" fill="none" stroke="rgb(0, 0, 255)" stroke-width="2" />
</svg>