<?xml version="1.0" encoding="utf-8"?>
<svg viewBox="0 0 768 768" version="1.1" xmlns="http://www.w3.org/2000/svg">
  <path d="M 250 400 C 250.826493382273 398.552696829673 251.660624754441 397.109749837779 252.502363726365 395.671252711907 C 253.34410269829 394.232755586034 254.193449515256 392.798708278205 255.050409220162 391.369224684289 C 255.907368925068 389.939741090373 256.771941674256 388.51482112214 257.644164978202 387.094599932648 C 258.516388282149 385.674378743155 259.396262250229 384.258856227904 260.28385490205 382.84819026163 C 261.171447553871 381.437524295355 262.066758981868 380.031714773275 262.969886224945 378.630943873309 C 263.873013468022 377.230172973343 264.783956621465 375.834440599651 265.702840350254 374.44395474398 C 266.621724079043 373.053468888308 267.548548492576 371.668229467452 268.483464354066 370.288471631066 C 269.418380215555 368.908713794681 270.361387652952 367.534437471595 271.312661749106 366.165906124903 C 272.263935845259 364.79737477821 273.223476746006 363.434588345105 274.191481797828 362.077839602316 C 275.159486849651 360.721090859528 276.135956212202 359.370379747114 277.12110719937 358.026029270241 C 278.106258186538 356.681678793367 279.100090966033 355.343688888858 280.102840358064 354.012413707887 C 281.105589750094 352.681138526917 282.117255924685 351.356577997612 283.138088670343 350.039118425419 C 284.158921416002 348.721658853225 285.188920901053 347.411300153973 286.228349342172 346.108461955499 C 287.267777783292 344.805623757024 288.316635346526 343.510305962361 289.375194170576 342.222962881634 C 290.433752994625 340.935619800907 291.502013247826 339.656251328185 292.580254490466 338.385347983773 C 293.658495733106 337.11444463936 294.746718147234 335.852006317756 295.845206101702 334.598561347303 C 296.943694056171 333.34511637685 298.05244776673 332.10066466867 299.171753451233 330.86577383626 C 300.291059135735 329.63088300385 301.420917073899 328.405552999177 302.561611651226 327.19039177535 C 303.702306228553 325.975230551524 304.853837830975 324.770238134837 306.016484066321 323.576063018216 C 307.179130301668 322.381887901594 308.352891718025 321.198530229635 309.538032201483 320.026677801249 C 310.72317268494 318.854825372863 311.919691682571 317.694476804357 313.127841089304 316.546359819677 C 314.335990496037 315.398242834996 315.555770810092 314.26235794082 316.787416725132 313.139481773609 C 318.019062640173 312.016605606398 319.262574551652 310.906738364319 320.51816330657 309.810700461206 C 321.773752061488 308.714662558093 323.041418004 307.632454020723 324.321342629707 306.564937467075 C 325.601267255413 305.497420913428 326.89345089421 304.444596299733 328.19804066423 303.407368656789 C 329.502630434251 302.370141013845 330.819626675641 301.348510296769 332.149137121887 300.34342466739 C 333.478647568133 299.338339038011 334.820672583504 298.34979849324 336.175275242526 297.378794715796 C 337.529877901547 296.407790938351 338.897058597745 295.454323988199 340.276830064532 294.519428653892 C 341.65660153132 293.584533319584 343.048964189766 292.66820972863 344.453874318351 291.771534367058 C 345.858784446935 290.874859005485 347.276242487612 289.997832060939 348.70614178302 289.141569341864 C 350.136041078427 288.285306622789 351.578382081697 287.449808362539 353.032988476211 286.636226518672 C 354.487594870725 285.822644674805 355.95446710993 285.030979509819 357.433352408143 284.262415395957 C 358.912237706356 283.493851282096 360.403136507218 282.748388497174 361.905712818973 282.027239765237 C 363.408289130728 281.306091033299 364.922543379731 280.609256641264 366.448049837804 279.937973428644 C 367.973556295877 279.266690216024 369.510315369141 278.620958485117 371.057805349351 278.002034785344 C 372.605295329561 277.383111085571 374.163516606087 276.790995758258 375.731845531491 276.226960268197 C 377.300174456895 275.662924778136 378.878611415605 275.126969551577 380.466425033497 274.620375268315 C 382.054238651389 274.113780985053 383.651429329985 273.636548229279 385.257152100607 273.189959402449 C 386.862874871229 272.743370575618 388.477130186647 272.327426524884 390.098953115797 271.943400756455 C 391.720776044947 271.559374988026 393.350167140018 271.207268753915 394.986034024152 270.888331077441 C 396.621900908286 270.569393400967 398.264243663185 270.283622764242 399.911844550192 270.032239380438 C 401.559445437198 269.780855996634 403.212304519686 269.563861279755 404.869069930506 269.3824432739 C 406.525835341327 269.201025268046 408.186507166777 269.055185067833 409.849598240578 268.946059899304 C 411.512689314378 268.836934730775 413.178199701148 268.764525518253 414.84450576553 268.729903650221 C 416.510811829912 268.695281782189 418.177913580073 268.69844811977 419.844050336527 268.740394907704 C 421.510187092981 268.782341695638 423.175358781355 268.863069802359 424.837668153257 268.983479409203 C 426.499977525158 269.103889016048 428.159424405123 269.263981038112 429.81397683503 269.464550241433 C 431.468529264937 269.665119444754 433.118186956082 269.906166804705 434.760786712878 270.18836749588 C 436.403386469675 270.470568187055 438.038927883285 270.7939232384 439.66512174775 271.158973186076 C 441.291315612216 271.524023133752 442.908161395782 271.930769038677 444.513250935515 272.379601098241 C 446.118340475248 272.828433157805 447.711673116662 273.319352433823 449.290730637917 273.852582831515 C 450.869788159173 274.385813229206 452.434569785065 274.961355776156 453.982457959977 275.579252380705 C 455.530346134889 276.197148985254 457.061339965598 276.857400606995 458.572735078479 277.559852223282 C 460.084130191359 278.262303839569 461.575925577406 279.00695631503 463.045344313291 279.793443993261 C 464.514763049175 280.579931671491 465.961804010743 281.408255307391 467.383633723151 282.277826457625 C 468.80546343556 283.147397607859 470.202080657396 284.058216920465 471.570613100347 285.009462656065 C 472.939145543298 285.960708391665 474.279591842693 286.95238111735 475.589060434368 287.983416721997 C 476.898529026043 289.014452326645 478.17701841104 290.08485135079 479.42163921315 291.193299072182 C 480.666260015261 292.301746793573 481.877010584034 293.448243814476 483.051027331876 294.631216333626 C 484.225044079718 295.814188852776 485.362325180164 297.033637661766 486.460058883585 298.287719570037 C 487.557792587006 299.541801478309 488.615978211338 300.830515114892 489.631882077973 302.151755092611 C 490.647785944607 303.472995070331 491.621405873272 304.826761460677 492.550105181877 306.210686917701 C 493.478804490482 307.594612374724 494.362581201118 309.008696665054 495.198926734021 310.450311739749 C 496.035272266923 311.891926814443 496.824184776771 313.361072173767 497.563312405942 314.854864596846 C 498.302440035114 316.348657019925 498.991781026421 317.867095770658 499.62916723148 319.407051750274 C 500.266553436538 320.94700772989 500.85198316357 322.508479988877 501.38349782817 324.088106211848 C 501.91501249277 325.667732434818 502.392610463999 327.265511476213 502.814567645058 328.877863531569 C 503.236524826116 330.490215586925 503.6028396569 332.117139327869 503.912046476589 333.754856026572 C 504.221253296278 335.392572725274 504.473350636582 337.041080881107 504.667154010034 338.696424069727 C 504.860957383486 340.351767258346 504.996465441987 342.013943816206 505.072796024192 343.678843362636 C 505.149126606397 345.343742909066 505.166278516586 347.011363627175 505.123691029997 348.677467293059 C 505.081103543408 350.343570958943 504.978775649119 352.008155613629 504.816484639063 353.66688352108 C 504.654193629006 355.32561142853 504.431938706128 356.978480502109 504.149848764198 358.621083851552 C 503.867758822268 360.263687200996 503.525833300229 361.896022631023 503.124562896438 363.513646232533 C 502.723292492646 365.131269834044 502.262676893649 366.734179328188 501.743575166242 368.31792737056 C 501.224473438835 369.901675412932 500.646885514675 371.466259673709 500.01204168216 373.007263973705 C 499.377197849644 374.5482682737 498.685098265354 376.065690273689 497.937343748438 377.555180022404 C 497.189589231522 379.04466977112 496.386180122024 380.50622497193 495.529083993852 381.935596726048 C 494.671987865681 383.364968480167 493.761205176026 384.762154597432 492.799064197297 386.123040950279 C 491.836923218568 387.483927303125 490.823424430343 388.808511885084 489.761249671597 390.092846895868 C 488.69907491285 391.377181906652 487.588226032251 392.621265135572 486.431717179494 393.821354258463 C 485.275208326738 395.021443381353 484.07304067366 396.177536238827 482.828545580011 397.286120822696 C 481.584050486362 398.394705406566 480.297229382189 399.455779772813 478.971711274975 400.466092992818 C 477.646193167762 401.476406212823 476.281979699174 402.435956547987 474.882974444843 403.341781761554 C 473.483969190512 404.247606975122 472.050173963445 405.099705528314 470.585740961345 405.895428453009 C 469.121307959245 406.691151377703 467.626239131726 407.430497332815 466.104907047865 408.111152217178 C 464.583574964004 408.79180710154 463.035981680064 409.413769772231 461.466690065617 409.975079626508 C 459.89739845117 410.536389480784 458.306410643187 411.03704557607 456.698448339179 411.475456451928 C 455.090486035171 411.913867327786 453.465551430117 412.290032245007 451.82849253931 412.602741501871 C 450.191433648503 412.915450758735 448.542252704714 413.164703822381 446.885890814348 413.3496822929 C 445.229528923983 413.534660763419 443.565988339105 413.655364316358 441.900269603715 413.711372284759 C 440.234550868324 413.76738025316 438.566656236225 413.758692521237 436.901611878296 413.6852894559 C 435.236567520366 413.611886390564 433.574375674781 413.473768082281 431.920054432571 413.271316117827 C 430.265733190361 413.068864153374 428.619284756118 412.802078823501 426.985685802463 412.471740067962 C 425.352086848808 412.141401312422 423.731339527448 411.747509611849 422.128346400866 411.291237461142 C 420.525353274283 410.834965310436 418.940116419882 410.316313364397 417.37743254976 409.736838139341 C 415.814748679638 409.157362914284 414.274619772601 408.517065217273 412.761706243709 407.817874597695 C 411.248792714818 407.118683978117 409.763096416336 406.360601366323 408.309112704314 405.54591628256 C 406.855128992292 404.731231198796 405.432859560095 403.859944659782 404.046608078979 402.934691513889 C 402.660356597864 402.009438367997 401.310124564759 401.030219672569 400 400" fill="none" stroke="rgb(0, 0, 0)" stroke-width="2" />
  <path d="M 251.245465351527 397.832324400425 L 242.101835997129 392.546584568436 M 253.770679225231 393.516858945919 L 244.640409586812 388.109135726615 M 256.34156373963 389.228439249733 L 247.184888799147 383.672418287308 M 258.958246899051 384.967812255807 L 249.737949826109 379.236301604409 M 261.621045534441 380.735856809513 L 252.30165463826 374.800306186342 M 264.330455025763 376.533592831397 L 254.878008960474 370.363888243578 M 267.087140697051 372.362190614156 L 257.469313938372 365.926640676916 M 269.891929078254 368.222979394906 L 260.078347983609 361.488414507957 M 272.745797995589 364.117454852436 L 262.70841543902 357.049368906342 M 275.649865065938 360.047285565915 L 265.363298684904 352.60996145409 M 278.605374630695 356.014318747276 L 268.047150049274 348.170893406171 M 281.613683470556 352.020585724391 L 270.764359266573 343.733027742632 M 284.676245794974 348.068307706073 L 273.519431054696 339.297301001907 M 287.794597998361 344.159902302887 L 276.31690537618 334.86465339757 M 290.970343519654 340.297991109866 L 279.161349775971 330.436005600705 M 294.205137832536 336.48540837827 L 282.057448449564 326.012314735786 M 297.50067313045 332.725210413752 L 285.010205946624 321.594746362638 M 300.858661653501 329.020684837498 L 288.025274165273 317.185003101154 M 304.280815833505 325.375358235221 L 291.109399024376 312.785853472909 M 307.768822508712 321.792999996254 L 294.270967457103 308.401905550465 M 311.324308091215 318.277618849787 L 297.51875073586 304.038732625284 M 314.948817391712 314.833456201607 L 300.850677585963 299.690724222563 M 318.643811033193 311.465027433097 L 304.276838185308 295.364397836255 M 322.410626518135 308.177124116289 L 307.807116586997 291.06699795728 M 326.250441642012 304.974795388703 L 311.449185973144 286.80406139352 M 330.164242983879 301.8633440857 L 315.209764468179 282.580480730181 M 334.152795861432 298.848329676487 L 319.095430731661 278.401351207142 M 338.216613517406 295.935571683972 L 323.113060476201 274.272588754026 M 342.355924261386 293.131149656138 L 327.269953350658 270.201315013651 M 346.570636077687 290.441397705022 L 331.573727303382 266.196017000246 M 350.860298825835 287.872893138913 L 336.032063120105 262.266504797041 M 355.224064605424 285.432439783924 L 340.652383544943 258.423710116401 M 359.660647131654 283.12704722264 L 345.441547212295 254.679390760389 M 364.168281071774 280.9639073702 L 350.405625407045 251.045829261975 M 368.744682225839 278.950369561771 L 355.549807541036 247.535635304072 M 373.387009197749 277.093914640111 L 360.878448048219 244.161776701512 M 378.091826794431 275.402127407605 L 366.395223315228 240.937967507315 M 382.855070812207 273.882665243936 L 372.103314216714 237.879528122123 M 387.672013119944 272.543218688361 L 378.005472026686 235.004794694601 M 392.537225028466 271.391457344374 L 384.103770110893 232.337087291219 M 397.444536946838 270.434952039684 L 390.397828601079 229.901294860868 M 402.387018439948 269.681103649035 L 396.881943936115 227.699805261845 M 407.356959837839 269.137140854278 L 403.554034556499 225.758641106714 M 412.345844242442 268.810041901843 L 410.408955646963 224.104466388227 M 417.344339400509 268.706434695741 L 417.438465200108 222.760873171728 M 422.342292390584 268.832512060492 L 424.631895183754 221.749769472128 M 427.32872926503 269.193953221261 L 431.976409912295 221.092483516222 M 432.291862011691 269.795845076748 L 439.456944988561 220.810484838287 M 437.219104521087 270.642599644724 L 447.055949510735 220.925670560617 M 442.097098669185 271.737866376561 L 454.753066573329 221.460223525989 M 446.911751152813 273.084439865667 L 462.524878090603 222.436110151852 M 451.648281344675 274.684164815371 L 470.344808230535 223.874340603379 M 456.291280167682 276.537840984589 L 478.183227521451 225.794151922743 M 460.824779823934 278.64513119443 L 486.007733620797 228.212286253167 M 465.232334152179 281.004475355894 L 493.783516188771 231.142513604379 M 469.497109428921 283.613012867838 L 501.473657842207 234.595488598458 M 473.601985572583 286.466514635596 L 509.03919878742 238.578936945629 M 477.529667957204 289.55932437386 L 516.438817192533 243.098051860371 M 481.262810392108 292.88430678282 L 523.628064864732 248.155863622554 M 484.784150276793 296.432797624026 L 530.558255376284 253.753255406639 M 488.07665792519 300.194548976366 L 537.178806636587 259.885478351786 M 491.12369710605 304.157709854625 L 543.452525505032 266.532188414039 M 493.909150854449 308.308861680906 L 549.329097623751 273.680901597719 M 496.4175789471 312.633017738512 L 554.757715473311 281.313081816585 M 498.634395927871 317.113643088183 L 559.690260777205 289.403013049385 M 500.546037829135 321.732699110627 L 564.081336017827 297.919044552319 M 502.140120646805 326.470709423845 L 567.888152675319 306.82445634342 M 503.405592665795 331.306845088408 L 571.07048099245 316.077952806634 M 504.332881099167 336.21902751671 L 573.590807361177 325.633880419774 M 504.914032193227 341.184047874152 L 575.414761971338 335.442317165245 M 505.142842962453 346.177702001009 L 576.511789523474 345.449189648831 M 505.014982052252 351.174939993536 L 576.855959199865 355.596541238681 M 504.528096884258 356.150029561631 L 576.42676404186 365.823010930133 M 503.681904218158 361.076732128037 L 575.209756084813 376.064505505362 M 502.478261565809 365.928490350767 L 573.196905199561 386.254978706954 M 500.921217517797 370.678625336014 L 570.386649372572 396.327192974969 M 499.017039989535 375.300541263401 L 566.783704533978 406.213350137703 M 496.77422266342 379.767934468931 L 562.398797109149 415.84554704852 M 494.203471495671 384.055003223496 L 557.248541898474 425.156138217253 M 491.317675071007 388.136653506238 L 551.355681994751 434.078253734824 M 488.131863799476 391.988696126839 L 544.750166160601 442.547222307599 M 484.663131034249 395.58805559057 L 537.471077043955 450.504267042631 M 480.930516536692 398.912962972718 L 529.559051348904 457.890958590082 M 476.954904634525 401.94312509061 L 521.060418894887 464.652429257476 M 472.758896778118 404.659898537275 L 512.027245920739 470.738838349384 M 468.366664373011 407.046446236199 L 502.51630029237 476.105697354982 M 463.803786111584 409.087875961972 L 492.588173183849 480.714034172834 M 459.097072941062 410.77136103088 L 482.306560647734 484.530496847111 M 454.274383374975 412.086243132022 L 471.737665031325 487.527463235197 M 449.364431494085 413.024117115148 L 460.949656983192 489.683180815762 M 444.396589690553 413.57889747605 L 450.012142562209 490.981921925824 M 439.400687985903 413.746866284051 L 438.995600997313 491.41411332656 M 434.406811598957 413.526702378913 L 427.970788188483 490.976390705664 M 429.445098354575 412.919491826313 L 417.008129062469 489.67153961889 M 424.545537507525 411.928719861892 L 406.177139027921 487.508311003614 M 419.737771608322 410.560244873861 L 395.54591407654 484.501134431943 M 415.050903159242 408.822255373119 L 385.180707439963 480.669785792308 M 410.513307999111 406.725211377894 L 375.145569655036 476.03908731129 M 406.152457614694 404.28177219704 L 365.501974676442 470.638716985222 M 401.994752904759 401.506713232291 L 356.308297754437 464.503174655514" fill="none" stroke="rgb(0, 0, 255)" stroke-width="0.5" />
  <circle cx="250" cy="400" r="10" fill="rgb(255, 0, 0)" stroke="none" stroke-width="0" />
  <circle cx="400" cy="400.00000000000011" r="10" fill="rgb(255, 0, 0)" stroke="none" stroke-width="0" />
  <line x1="-245.89602936361814" y1="1268.3819021959162" x2="745.89602936361814" y2="-468.38190219591604" fill="none" stroke="rgb(0, 255, 0)" stroke-width="2" />
</svg>