<?xml version="1.0" encoding="utf-8"?>
<svg viewBox="0 0 768 768" version="1.1" xmlns="http://www.w3.org/2000/svg">
  <path d="M 178 363 C 176.477189475139 362.322070026513 174.9544397488 361.645188355419 173.437087693836 360.955917288029 C 171.919735638873 360.26664622064 170.407762373466 359.565143237651 168.906830581944 358.840503924866 C 167.405898790421 358.115864612082 165.915967525354 357.36814942338 164.443499669139 356.58738403076 C 162.971031812924 355.806618638139 161.515986925201 354.992796722652 160.086256478366 354.136495084388 C 158.656526031531 353.280193446125 157.252085177503 352.381364905661 155.882754869129 351.431561566797 C 154.513424560756 350.481758227933 153.179204101655 349.480913767788 151.892040906675 348.422425824035 C 150.604877711696 347.363937880281 149.364798231464 346.247738654579 148.185683682344 345.07009235664 C 147.006569133224 343.892446058701 145.888471505717 342.653297180012 144.846614031211 341.352712739967 C 143.804756556705 340.052128299923 142.839211517675 338.69007508872 141.965605588098 337.271096207342 C 141.091999658521 335.852117325963 140.31041748586 334.376208262113 139.635703567277 332.852675588018 C 138.960989648695 331.329142913923 138.393231352236 329.758013749808 137.94519104467 328.153189784076 C 137.497150737104 326.548365818344 137.168908106911 324.909905421283 136.969880364145 323.255662294572 C 136.770852621378 321.601419167862 136.701101580746 319.931479378238 136.765628581532 318.266560451556 C 136.830155582319 316.601641524874 137.028995538855 314.941850645851 137.362000601305 313.309312020923 C 137.695005663754 311.676773395995 138.162176948753 310.071605870854 138.757941851429 308.515634641551 C 139.353706754104 306.959663412248 140.078028787037 305.453006796214 140.92017398177 304.015399228677 C 141.762319176503 302.577791661139 142.722213687832 301.209336156114 143.784792160526 299.926000952107 C 144.84737063322 298.6426657481 146.012527124871 297.444521340949 147.262221081571 296.342450716563 C 148.51191503827 295.240380092176 149.846019656971 294.23440172015 151.24527878323 293.32962622023 C 152.64453790949 292.42485072031 154.108822053841 291.621222880798 155.619602815954 290.918334648476 C 157.130383578067 290.215446416154 158.687554855607 289.613145242297 160.275112182532 289.107038872637 C 161.862669509458 288.600932502976 163.480777936818 288.191095023908 165.11636793971 287.871078921806 C 166.751957942601 287.551062819705 168.404710651526 287.320588524641 170.064217396654 287.168624307436 C 171.723724141782 287.016660090231 173.390029534682 286.943067511797 175.056412111771 286.935232058985 C 176.722794688859 286.927396606173 178.389311090203 286.985218734169 180.052154271712 287.096285435717 C 181.71499745322 287.207352137264 183.374224327945 287.371600951475 185.028081282505 287.578032577946 C 186.681938237066 287.784464204416 188.330474631597 288.033049365822 189.973187413587 288.314885885058 C 191.615900195577 288.596722404293 193.252826716287 288.911808688827 194.884061307425 289.253565284334 C 196.515295898564 289.595321879841 198.140862256847 289.96376827301 199.760993837265 290.354506771423 C 201.381125417683 290.745245269836 202.995832867354 291.158309218642 204.605232685066 291.591079337647 C 206.214632502778 292.023849456651 207.818724581956 292.476365605115 209.4174322711 292.947230888978 C 211.016139960244 293.41809617284 212.609455826279 293.907349989145 214.197170295822 294.414217006563 C 215.784884765366 294.921084023981 217.366987077664 295.445597060643 218.943275153579 295.98705539897 C 220.519563229493 296.528513737296 222.090026991372 297.086938851046 223.654631846478 297.661293652054 C 225.219236701585 298.235648453061 226.777976718447 298.825940148096 228.331107765292 299.430578393336 C 229.884238812137 300.035216638576 231.431761459385 300.654193785638 232.974263812582 301.285370254143 C 234.516766165778 301.916546722648 236.054255985917 302.559902246954 237.587590821396 303.212961034462 C 239.120925656875 303.86601982197 240.650118921245 304.528754545341 242.176136070804 305.198717252474 C 243.702153220363 305.868679959607 245.225008996844 306.545845626298 246.745559917255 307.22819779312 C 248.266110837667 307.910549959941 249.784365301525 308.598079571541 251.300888148272 309.289472657727 C 252.817410995019 309.980865743913 254.332192705863 310.67614767639 255.845501622299 311.374604859802 C 257.358810538735 312.073062043214 258.870603182222 312.774778018622 260.381231085636 313.478848310427 C 261.89185898905 314.182918602233 263.40122364764 314.889514438855 264.910801754288 315.595661090467 C 266.420379860936 316.301807742079 267.930688425094 317.00658460198 269.442230016978 317.708772039094 C 270.953771608862 318.410959476208 272.46646367474 319.110708549006 273.980852494061 319.806734138538 C 275.495241313383 320.502759728071 277.011337861601 321.195045737118 278.529847800114 321.881973824243 C 280.048357738627 322.568901911368 281.569287650567 323.250462449125 283.093372379579 323.924894783023 C 284.61745710859 324.59932711692 286.144700233422 325.266626184861 287.675790756714 325.924997539063 C 289.206881280005 326.583368893264 290.74182086981 327.232810501618 292.281214258973 327.87154601577 C 293.820607648136 328.510281529921 295.364455424732 329.138310744368 296.913261814589 329.753891180698 C 298.462068204446 330.369471617028 300.015833314695 330.972603987856 301.574956125491 331.561575136287 C 303.134078936286 332.150546284718 304.698559472449 332.725357190811 306.268690776033 333.284310809774 C 307.838822079616 333.843264428737 309.414604322641 334.386361578129 310.996223281971 334.91190752375 C 312.5778422413 335.43745346937 314.165298327824 335.94544861998 315.758665712774 336.434191194405 C 317.352033097723 336.922933768831 318.951312415969 337.392423667302 320.556458333628 337.84094970753 C 322.161604251287 338.289475747758 323.772617537045 338.717037331188 325.389322711447 339.121919162819 C 327.00602788585 339.526800994449 328.628425717238 339.909002059089 330.256198911778 340.266815154997 C 331.883972106317 340.624628250906 333.517121285127 340.95805206372 335.155176780758 341.265405075685 C 336.793232276388 341.572758087651 338.43619443443 341.854038800926 340.083433858177 342.107612572784 C 341.730673281923 342.361186344643 343.38218996298 342.587051570608 345.037192204233 342.783643794528 C 346.692194445486 342.980236018449 348.35068188723 343.147553530124 350.011703343815 343.284126873108 C 351.6727248004 343.420700216091 353.3362796759 343.526527462355 355.001264637977 343.60026126806 C 356.666249600055 343.673995073764 358.332664075344 343.715633030851 359.999261682805 343.72398209232 C 361.665859290265 343.732331153789 363.332639912847 343.707387982164 364.998219811037 343.648156384014 C 366.663799709228 343.588924785863 368.328179175573 343.495427380533 369.989833604834 343.366836514368 C 371.651488034094 343.238245648203 373.310418385121 343.074432758738 374.964969214306 342.874290249289 C 376.619520043491 342.67414773984 378.26968838694 342.437688248142 379.913715700518 342.164229441553 C 381.557743014097 341.890770634964 383.195627808775 341.580319732148 384.825540856217 341.232472462303 C 386.455453903658 340.884625192457 388.077394330394 340.499384984281 389.689479260671 340.076547197657 C 391.301564190949 339.653709411033 392.903792795366 339.193275018294 394.494240896727 338.695207153167 C 396.084688998088 338.19713928804 397.663355483555 337.661437529027 399.228289229895 337.088229553726 C 400.793222976235 336.515021578425 402.344422459845 335.904306387411 403.87992934527 335.256387534333 C 405.415436230695 334.608468681254 406.935248612603 333.923345182471 408.437426750485 333.201511813456 C 409.939604888368 332.479678444441 411.424146636742 331.721134633294 412.889161408728 330.926578337737 C 414.354176180714 330.13202204218 415.799661800987 329.301453324693 417.223809465053 328.435777284402 C 418.647957129118 327.570101244112 420.050764867037 326.669318651638 421.430536971774 325.734535505992 C 422.810309076511 324.799752360346 424.167043999836 323.830970089604 425.499185704687 322.829479000946 C 426.831327409538 321.827987912288 428.138874923005 320.793789940558 429.420430891181 319.728334293067 C 430.701986859357 318.662878645577 431.957550931731 317.566167537679 433.185894344 316.4397777031 C 434.414237756269 315.31338786852 435.615360677053 314.157321525737 436.788204110515 312.9732493964 C 437.961047543978 311.789177267063 439.105611880442 310.577101268692 440.221003306786 309.33875479217 C 441.33639473313 308.100408315647 442.422613325978 306.8357926712 443.478926308554 305.546679421739 C 444.535239291131 304.257566172279 445.561645609161 302.943955736582 446.557579917503 301.607644626124 C 447.553514225846 300.271333515665 448.518973196521 298.912321020239 449.45359051071 297.532430586393 C 450.388207824899 296.152540152547 451.291976368692 294.751769774613 452.164805514171 293.331990084382 C 453.037634659649 291.912210394152 453.87951158151 290.473418019508 454.690768817636 289.017571095864 C 455.502026053761 287.56172417222 456.28282343137 286.088902154889 457.033362566212 284.600833663044 C 457.783901701054 283.1127651712 458.504084619092 281.60940284238 459.194203161172 280.092378686355 C 459.884321703251 278.575354530331 460.544384905154 277.044674152823 461.175015799622 275.501971662526 C 461.80564669409 273.959269172228 462.406850979673 272.404547890054 462.979473421885 270.839377842392 C 463.552095864097 269.27420779473 464.09613980883 267.698590730162 464.612604773779 266.113995179298 C 465.129069738728 264.529399628435 465.61795750829 262.935826322279 466.080384550548 261.334624163178 C 466.542811592806 259.733422004077 466.978778747381 258.124591120587 467.389500268916 256.509354678589 C 467.800221790451 254.894118236591 468.185698035027 253.272476055809 468.547232451621 251.645526183584 C 468.908766868215 250.018576311358 469.246359654084 248.386318448779 469.561399555543 246.749729257547 C 469.876439457002 245.113140066315 470.168926719648 243.472219233773 470.44033221454 241.8278266882 C 470.711737709432 240.183434142627 470.96206183908 238.53556959529 471.192852801385 236.884980760882 C 471.42364376369 235.234391926475 471.634902147018 233.581078528744 471.828246039808 231.925680276972 C 472.021589932598 230.270282025199 472.197020077351 228.612798613164 472.356214417449 226.953766062865 C 472.515408757547 225.294733512567 472.658368116205 223.634151432461 472.786818463696 221.972457336363 C 472.915268811187 220.310763240265 473.029210955285 218.647956601145 473.130406562771 216.98438327354 C 473.231602170258 215.320809945935 473.320051933534 213.656469240464 473.397541872124 211.991624466264 C 473.475031810715 210.326779692064 473.541562416907 208.661430011935 473.598935109147 206.995767678426 C 473.656307801387 205.330105344917 473.70452282126 203.66412944704 473.745391455492 201.997974397711 C 473.786260089724 200.331819348383 473.819782331731 198.665484314462 473.847777607774 196.999059139287 C 473.875772883817 195.332633964113 473.898241013754 193.666118139731 473.917011076259 191.99956728822 C 473.935781138765 190.333016436709 473.950852945793 188.666430736446 473.96406819922 186.999834468671 C 473.977283452647 185.333238200896 473.988642232187 183.666632723366 474 182" fill="none" stroke="rgb(0, 0, 0)" stroke-width="2" />
  <path d="M 175.716500470822 361.98227163211 L 172.565289892888 369.030179831324 M 171.165809436982 359.911496779608 L 161.255965232738 381.167862009402 M 166.664508588293 357.735000094075 L 149.669504575057 391.450821813603 M 162.248878424296 355.390275901984 L 136.752246095649 400.782903344605 M 157.961888303402 352.81911271879 L 121.848181833116 409.016987143759 M 153.85661805789 349.967787177816 L 104.65034691097 415.309877972556 M 149.998370694734 346.79099608443 L 85.2431693809068 418.471785377825 M 146.464691924365 343.257569947576 L 64.157845246677 417.272260004667 M 143.343013029815 339.356375752654 L 42.3820362817028 410.696557392487 M 140.726047808285 335.101167983683 L 21.2914253298976 398.148125057358 M 138.705401986035 330.53348497884 L 2.50267527106274 379.585011527817 M 137.364094625651 325.723012611544 L -12.3251182215789 355.577475739129 M 136.768845612136 320.765149029572 L -21.7009787408095 327.285851820726 M 136.96305132094 315.775802756967 L -24.490893655907 296.372898419413 M 137.961352037014 310.88374186795 L -20.0684527178115 264.871197596927 M 139.746589609171 306.221084178515 L -8.42692705275016 235.017724753087 M 142.269762188506 301.912777469986 L 9.7455134022216 209.048269528921 M 145.453304713416 298.066164659458 L 33.0455561494803 188.928480072347 M 149.197659066751 294.761961564807 L 59.4407346079105 176.006949113853 M 153.390646542942 292.048194476771 L 86.526473529547 170.615919393159 M 157.918617424483 289.93885114753 L 111.977007398448 171.682842931577 M 162.677728078014 288.419192034181 L 134.132099716656 176.39383053495 M 167.581386370413 287.456790518799 L 153.311614596197 186.495129067141 M 172.557788382614 286.997870702424 L 168.568316313974 200.464180080408 M 177.555649284835 286.971184580812 L 179.898465334358 215.660880328441 M 182.54351311248 287.301425950519 L 188.104782422325 230.180793084092 M 187.504827355295 287.918218063053 L 194.24873988946 242.794254793687 M 192.432933874401 288.761791612393 L 199.296177220614 252.918445719849 M 197.326690838114 289.78569932165 L 203.947518183113 260.486447183816 M 202.187134807605 290.957054907471 L 208.610003682383 265.809077035572 M 207.015339177953 292.254883812776 L 213.444333715192 269.447839798675 M 211.811422624413 293.667228465773 L 218.434298569363 272.09114339131 M 216.574509017752 295.187661945852 L 223.453729616229 274.431400837182 M 221.303338456386 296.811830814983 L 228.326634697939 277.051078499718 M 225.99717761667 298.534570506598 L 232.885939736102 280.33091345791 M 230.65667654618 300.348015052599 L 237.031887540633 284.393871175356 M 235.284368317997 302.240957073192 L 240.778997205259 289.095434954367 M 239.884607627102 304.199503853576 L 244.271450443996 294.066361626663 M 244.462894442769 306.208820986235 L 247.748817964712 298.812674010001 M 249.02472923349 308.255456467602 L 251.456425975629 302.882534262121 M 253.574397053363 310.329395303255 L 255.507717045456 306.116078385368 M 258.114378921106 312.424607596479 L 259.706236307332 308.993757698552 M 262.64644043484 314.536421771132 L 263.321347861366 313.092865777952 M 267.17575326585 316.653748579732 L 266.011658171734 319.149789664442 M 271.710477415131 318.760056553034 L 270.012377853684 322.432961964783 M 276.253806020625 320.847762094747 L 273.771060113479 326.288750925752 M 280.809519290244 322.908119022253 L 277.455582561249 330.398304251106 M 285.381953300617 324.930969029863 L 281.174633433532 334.567798896761 M 289.97538744544 326.905635698157 L 284.99293156159 338.690768229029 M 294.593706534493 328.821402283575 L 288.944957363341 342.71816770583 M 299.240238659058 330.667712007218 L 293.046816104625 346.635318940616 M 303.91769360645 332.434199683713 L 297.3055754469 350.44474175122 M 308.628147458041 334.110636990392 L 301.725763783834 354.153950434465 M 313.373037041452 335.68685047384 L 306.313127393765 357.767418581748 M 318.153143128559 337.152651525206 L 311.076049063086 361.28201452347 M 322.968553676567 338.497801027383 L 316.025208808613 364.685246381681 M 327.818607999666 339.712018186419 L 321.172140486103 367.955636662668 M 332.701829533719 340.785033206189 L 326.527323679646 371.06449113961 M 337.615858815991 341.706676949499 L 332.098351359387 373.978264307182 M 342.557399446175 342.466997550395 L 337.888528604332 376.660693052403 M 347.522188123834 343.056394101531 L 343.895995778698 379.073919567743 M 352.504995370924 343.465761036955 L 350.113165112267 381.178003411798 M 357.499656246262 343.686643664678 L 356.525976324222 382.92856861937 M 362.499120241621 343.711415474828 L 363.112303669811 384.272853664836 M 367.495496616669 343.533501358113 L 369.838885576985 385.145084414055 M 372.480063264521 343.14740348761 L 376.730491428209 386.10799720322 M 377.44328747833 342.546758729541 L 383.755779048361 386.55592425191 M 382.374920181873 341.726250202383 L 390.842580361983 386.373128805063 M 387.264194862228 340.682634043562 L 397.958466201451 385.68866628906 M 392.099973344593 339.414090994088 L 405.078842566688 384.563750563286 M 396.870832662624 337.919898530746 L 412.177523705956 383.016136830067 M 401.565144433617 336.200327991935 L 419.221941083049 381.039516154959 M 406.171176847594 334.256670715663 L 426.171919157654 378.618257018134 M 410.677231363514 332.091319404828 L 432.980970124892 375.737982784484 M 415.071812133297 329.7078509323 L 439.599211037377 372.392543186947 M 419.343816045248 327.11107459618 L 445.977156512758 368.587935032992 M 423.482725092744 324.307025434252 L 452.069739937216 364.343673857904 M 427.47878053164 321.302895605818 L 457.83995163015 359.692039692206 M 431.323119990908 318.106908048969 L 463.261457031209 354.675545446167 M 435.007864345378 314.728145621826 L 468.319487471249 349.342933684122 M 438.526150747239 311.176355737377 L 473.009205114243 343.744017364864 M 441.872121744085 307.46175510334 L 477.33065876835 337.923751718968 M 445.040897885823 303.594861580791 L 481.279390724047 331.916056501636 M 448.028582640652 299.586380378392 L 484.831745633562 325.738088702723 M 450.832373801591 295.447169802658 L 487.92399872377 319.385857889984 M 453.450884869697 291.188307589003 L 490.424615499679 312.832160548426 M 455.884811965651 286.821271865754 L 492.239420770157 306.101376062301 M 458.136446889736 282.357465287001 L 494.408026765485 299.739770233487 M 460.206921531247 277.806803971959 L 495.914973360212 293.212646916556 M 462.099000625279 273.179098728513 L 496.916785187946 286.651120827936 M 463.817100210559 268.483969305376 L 497.521030157352 280.129638379881 M 465.366760522164 263.730535207792 L 497.796247010365 273.687270718036 M 466.754333421055 258.927250304571 L 497.782972139673 267.342963752698 M 467.986812881406 254.081831036802 L 497.504144812028 261.105437702528 M 469.071752756795 249.201240604371 L 496.973758381263 254.978890002334 M 470.017230039711 244.291702443119 L 496.203239852136 248.965729345745 M 470.831824115484 239.358725612927 L 495.205510824608 243.067433853118 M 471.524593091653 234.40713239537 L 493.996988985437 237.284404510782 M 472.105037157042 229.44108444871 L 492.597954699781 231.615442928512 M 472.583046091258 224.464108288032 L 491.031763341475 226.057255251173 M 472.968833505127 219.479123649105 L 489.323363708753 220.604191407279 M 473.272864145612 214.488479456255 L 487.497520642039 215.248281079086 M 473.505782645097 209.494001647003 L 485.577069245964 209.979527093642 M 473.678352434529 204.497055009554 L 483.581476686051 204.786358949005 M 473.801412172771 199.498617463396 L 481.525973902622 199.656125853392 M 473.88585397072 194.499359858233 L 479.421553071787 194.575512265719 M 473.942622908156 189.499717382357 L 477.276210925135 189.530785846479 M 473.982730854033 184.49993005816 L 475.097955252447 184.507841264843" fill="none" stroke="rgb(0, 0, 255)" stroke-width="0.5" />
  <circle cx="178" cy="363" r="10" fill="rgb(255, 0, 0)" stroke="none" stroke-width="0" />
  <circle cx="191.31593938569387" cy="288.55278806070777" r="10" fill="rgb(255, 0, 0)" stroke="none" stroke-width="0" />
  <circle cx="473.99999999999994" cy="182" r="10" fill="rgb(255, 0, 0)" stroke="none" stroke-width="0" />
</svg>