<?xml version="1.0" encoding="utf-8"?>
<svg viewBox="0 0 768 768" version="1.1" xmlns="http://www.w3.org/2000/svg">
  <path style="fill:none; stroke:black; stroke-width:2" d="M178,363  C176.270550428241,363.429463291227 174.397670659019,363.729938562247 172.620685765929,363.86303987066 C170.84370087284,363.996141179072 168.94718697144,363.977996814379 167.173252020046,363.810963907525 C165.399317068653,363.64393100067 163.532919099539,363.307762971771 161.812227218954,362.845555481155 C160.091535338369,362.383347990539 158.307966418583,361.739084572656 156.688963968159,360.995347182635 C155.069961517735,360.251609792615 153.419262596272,359.31826579613 151.947051568053,358.314898389161 C150.474840539835,357.311530982192 149.002630499619,356.116541566496 147.717368490901,354.88287983647 C146.432106482183,353.649218106444 145.177940584522,352.227367261261 144.113420799905,350.799005139983 C143.048901015288,349.370643018705 142.04490192184,347.762637985329 141.227442917163,346.179953613223 C140.409983912486,344.597269241117 139.679856384707,342.848040432416 139.127583843584,341.154510343226 C138.575311302461,339.460980254035 138.133804193148,337.617806617533 137.856364930562,335.858208298148 C137.578925667976,334.098609978763 137.431762983993,332.209182231605 137.430474600507,330.427793262189 C137.429186217021,328.646404292773 137.573452846443,326.756943040919 137.84186101107,324.99584561722 C138.110269175696,323.234748193521 138.535206336579,321.388290630089 139.059995556206,319.6858834192 C139.584784775833,317.98347620831 140.272925357506,316.218433867621 141.035108296006,314.608238850514 C141.797291234506,312.998043833407 142.725845965745,311.347114757923 143.702140906518,309.85694496683 C144.678435847292,308.366775175737 145.820827638944,306.856266832816 146.985123540613,305.507791698908 C148.149419442281,304.159316564999 149.47685531489,302.808900929108 150.801659091237,301.617609316026 C152.126462867583,300.426317702945 153.609430587277,299.249197096769 155.067191749266,298.22471400832 C156.524952911255,297.200230919872 158.134532819654,296.203642484586 159.69874644947,295.350303900318 C161.262960079286,294.496965316049 162.971847253729,293.682890270337 164.617852902501,293.000425466502 C166.263858551273,292.317960662667 168.04705542442,291.683866540576 169.752703871914,291.168131058643 C171.458352319408,290.65239557671 173.293843015424,290.192007306511 175.039843729468,289.835712575027 C176.785844443513,289.479417843542 178.654730261099,289.183590674125 180.424789940773,288.977221472449 C182.194849620446,288.770852270772 184.081455069567,288.628556822469 185.862269200474,288.561180854344 C187.643083331381,288.49380488622 189.534848771685,288.49288613113 191.315939385694,288.552788060708 C193.097029999702,288.612689990286 194.984275898721,288.740454102476 196.757734358544,288.915619614547 C198.531192818367,289.090785126617 200.406810599849,289.334440197615 202.166990956751,289.612913547604 C203.927171313653,289.891386897593 205.786282502399,290.238361312434 207.529479242498,290.608497780246 C209.272675982597,290.978634248058 211.112289721164,291.416794364469 212.836423522199,291.867427019554 C214.560557323234,292.318059674639 216.379246337865,292.835846342709 218.083572803987,293.356384565741 C219.78789927011,293.876922788772 221.585505998282,294.46342419074 223.27035522532,295.04389948008 C224.955204452358,295.624374769421 226.732582312362,296.269351048904 228.399131560186,296.900423767546 C230.06568080801,297.531496486188 231.824470491986,298.225369673409 233.474548204008,298.898308564345 C235.12462591603,299.571247455281 236.867063121951,300.305068279489 238.502980034447,301.011712794476 C240.138896946942,301.718357309463 241.867646132042,302.483758621902 243.492048257894,303.216472370338 C245.116450383746,303.949186118774 246.834458921981,304.738330829167 248.450197774598,305.489952760304 C250.065936627215,306.241574691441 251.776305186369,307.04710434802 253.386322729934,307.810902630986 C254.996340273498,308.574700913952 256.70220829363,309.389689331639 258.309437765479,310.159321293723 C259.916667237328,310.928953255808 261.621117091317,311.746867919168 263.228406041166,312.516347843581 C264.835694991014,313.285827767993 266.541689740587,314.100501102967 268.15175000014,314.864174718893 C269.761810259693,315.627848334818 271.472126603029,316.43344859109 273.087448199564,317.185926980043 C274.702769796099,317.938405368996 276.41993005145,318.729326601629 278.042773238251,319.465429654602 C279.665616425051,320.201532707575 281.391885945925,320.972392178969 283.02423716179,321.687152738327 C284.656588377655,322.401913297686 286.393916111269,323.147553921525 288.037448084894,323.836212605601 C289.68098005852,324.524871289678 291.430965973242,325.240351155376 293.087013313045,325.898345177005 C294.743060652847,326.556339198633 296.506936420214,327.236918429197 298.176481519801,327.859870276389 C299.846026619389,328.48282212358 301.624644961365,329.123952063891 303.30831061808,329.707661760532 C304.991976274796,330.291371457173 306.785805916476,330.888689091359 308.483852376672,331.429131950388 C310.181898836869,331.969574809417 311.991023268108,332.51890357357 313.703348478073,333.012233894633 C315.415673688037,333.505564215697 317.239792934517,334.002921005725 318.965935590267,334.445481053766 C320.692078246018,334.888041101806 322.530513581022,335.329648275716 324.269659133514,335.717981106341 C326.008804686005,336.106313936966 327.860506678696,336.48861447627 329.611496763334,336.819478748082 C331.362486847972,337.150343019894 333.226047342187,337.470016746228 334.987393162923,337.740401579555 C336.74873898366,338.010786412882 338.622407533266,338.264765253237 340.392307541966,338.471903458895 C342.162207550666,338.679041664554 344.043912503226,338.864522421756 345.820274274435,339.005901032611 C347.596636045644,339.147279643467 349.484009865628,339.261733557786 351.264475375337,339.33510154993 C353.044940885046,339.408469542074 354.935348441047,339.449649124948 356.717321015549,339.453023514317 C358.499293590052,339.456397903686 360.389860997412,339.422343085665 362.170531004884,339.354016229833 C363.951201012357,339.285689374 365.838841223327,339.174736936041 367.615206136309,339.033289859806 C369.391571049291,338.891842783572 371.272996210075,338.702648093945 373.041879775215,338.486971156409 C374.810763340355,338.271294218874 376.682532450843,338.002843106582 378.440640758002,337.712120415934 C380.198749065162,337.421397725285 382.057306788834,337.072975509539 383.801239313692,336.706681063141 C385.54517183855,336.340386616744 387.386860893155,335.911591751613 389.113137994898,335.469495388059 C390.83941509664,335.027399024506 392.660510165063,334.518144595693 394.365602085997,334.000310750504 C396.070694006931,333.482476905314 397.867431427187,332.892986374143 399.547785286853,332.29976819839 C401.22813914652,331.706550022637 402.996744499449,331.037349032896 404.648809328176,330.369379483646 C406.300874156902,329.701409934395 408.037587796069,328.953315621562 409.657837646825,328.21149666567 C411.278087497581,327.469677709779 412.979188059335,326.64378649679 414.56414323047,325.829277178514 C416.149098401604,325.014767860237 417.810924326484,324.112442349533 419.357170721442,323.226646157579 C420.903417116401,322.340849965624 422.522386206047,321.363705243618 424.026592849458,320.408256974699 C425.530799492868,319.45280870578 427.103426519424,318.402698163272 428.56236124204,317.379450316916 C430.021295964655,316.35620247056 431.544208342176,315.235203110856 432.954751640042,314.146211764149 C434.365294937909,313.057220417443 435.835246457647,311.867617573096 437.194403523558,310.715127674263 C438.553560589469,309.56263777543 439.967443213025,308.306909184569 441.272354130771,307.093339270726 C442.577265048517,305.879769356882 443.932118744756,304.56056866106 445.180066828957,303.28849514821 C446.428014913158,302.01642163536 447.721035516454,300.636561552694 448.909453772817,299.308702964995 C450.097872029181,297.980844377296 451.326417088027,296.54328007745 452.452892760703,295.162481878008 C453.579368433379,293.781683678565 454.740961009635,292.289497239777 455.803238174005,290.858718296713 C456.865515338374,289.427939353648 457.957845708441,287.884326616564 458.953825859079,286.406628785839 C459.949806009717,284.928930955113 460.970730469492,283.337194170111 461.898474443856,281.815729994388 C462.82621841822,280.294265818666 463.773767771733,278.657788622288 464.63150029944,277.0957830842 C465.489232827146,275.533777546112 466.361608410107,273.856020706751 467.147713300953,272.256767546642 C467.933818191799,270.657514386532 468.729389512572,268.942005373208 469.442408668677,267.308855568742 C470.155427824782,265.675705764275 470.872731514672,263.926027113039 471.51136358487,262.262379061537 C472.149995655069,260.598731010034 472.787733804211,258.818510832376 473.350832468115,257.127802044489 C473.913931132019,255.437093256603 474.470969315738,253.629997098632 474.957541349824,251.915696984651 C475.44411338391,250.20139687067 475.919478535887,248.371120542136 476.328681802865,246.636723982175 C476.737885069843,244.902327422214 477.130763345421,243.052590520792 477.461904834748,241.301612000707 C477.793046324075,239.550633480623 478.102781081614,237.685173422734 478.355315113312,235.921141588805 C478.607849145011,234.157109754877 478.833939155348,232.279676189595 479.007465841318,230.506128726885 C479.180992527288,228.732581264174 479.323090501029,226.846930791485 479.41735453775,225.06740956325 C479.511618574472,223.287888335014 479.569530074146,221.397779473894 479.584419918102,219.61582587254 C479.599309762057,217.833872271186 479.57299254097,215.943060626596 479.508539993241,214.162211080414 C479.444087445512,212.381361534232 479.333651227542,210.493595095205 479.190031426874,208.717376649489 C479.046411626206,206.941158203772 478.852118310757,205.060172667329 478.629650104924,203.292098513488 C478.40718189909,201.524024359648 478.129446142933,199.653538317237 477.828592776481,197.897103079165 C477.52773941003,196.140667841093 477.167129502864,194.284377585728 476.788499525274,192.543052088929 C476.409869547684,190.80172659213 475.967108460917,188.963300205258 475.511456722858,187.240525351163 C475.055804984798,185.517750497068 474.53177143326,183.700820754581 474,182" />
  <path style="fill:none; stroke:green; stroke-width:0.5" d="M 176.93964820116,363.22586628359 241.350854228761,665.611215376722 M 174.806191176716,363.606052017095 218.811610206158,669.61054221359 M 172.6520854704,363.842445975659 196.05944025567,672.139854510201 M 170.487060154507,363.933980367281 173.185296322753,673.137183503433 M 168.320856786409,363.880248808903 150.295738179653,672.564443202205 M 166.163199581869,363.681513550703 127.506165623018,670.404894708362 M 164.023758653473,363.338708703019 104.935892688795,666.660162977797 M 161.912107902786,362.853439124105 82.7048034392757,661.347273399453 M 159.837679026417,362.227974723603 60.9312618913951,654.496043400807 M 157.809712971836,361.465240027622 39.7309210187262,646.147027614995 M 155.837210058465,360.56879893666 19.2160866227956,636.350088317244 M 153.928879863276,359.542834687282 -0.504665416241892,625.163557125357 M 152.093091857933,358.392125102512 -19.3268552265168,612.653876217679 M 150.33782767633,357.122013284244 -37.1506089120066,598.895560027694 M 148.670635787238,355.738373963709 -53.8813952999889,583.971300375634 M 147.098589246703,354.247575783057 -69.4310015350231,567.972045497258 M 145.628247108811,352.656439832532 -83.7187017617773,550.996910910775 M 144.265619981424,350.972194813424 -96.672532291922,533.152821060175 M 143.016140125569,349.202429237058 -108.230564531161,514.553828418599 M 141.884636413262,347.355041104505 -118.342063195682,495.320104727535 M 140.875314378711,345.438185540442 -126.968429734092,475.576641583795 M 139.991741522018,343.460220877657 -134.083855631629,455.45173024045 M 139.236837952774,341.429653706194 -139.675642636798,435.075310481393 M 138.612872393218,339.355083412811 -143.744181755695,414.577284823641 M 138.12146349698,337.24514674264 -146.302615213364,394.085887966098 M 137.763586379811,335.108462915303 -147.376231456299,373.726184748813 M 137.539584203131,332.953579822597 -147.001659942076,353.618746405574 M 137.449184599731,330.788921823967 -145.225938737139,333.878528590895 M 137.491520683457,328.622739639454 -142.10552414846,314.613949474308 M 137.665156341319,326.463062817663 -137.705299382069,295.926145475152 M 137.968115467054,324.317655228393 -132.097621130345,277.908368365201 M 138.397914759869,322.193973996128 -125.36142213154,260.645481750432 M 138.951599680781,320.09913225139 -117.581367282278,244.213517429555 M 139.625783131766,318.039866032133 -108.847043658628,228.679261814771 M 140.416686399698,316.022505616911 -99.2521530231786,214.099857633825 M 141.320181887955,314.052951515368 -88.8936704290669,200.522424092715 M 142.331837143446,312.13665527983 -77.8709347935686,187.983716913229 M 143.446959675766,310.27860523431 -66.2846462782153,176.509865619895 M 144.660642058212,308.483317144116 -54.2357596237265,166.116237002405 M 145.967806797383,306.754829770481 -41.8242802691114,156.807479353157 M 147.363250459243,305.096705170186 -29.1479888169515,148.577801233692 M 148.841686544601,303.512033510068 -16.3011368530561,141.41153138962 M 150.397786616203,302.003442070532 -3.37317124382528,135.283994036481 M 152.026219192815,300.573108010772 9.5524466748777,130.162717705778 M 153.721685942999,299.222774361352 22.399256924032,126.008978128144 M 155.47895473256,297.953768597028 35.0985836114719,122.77965822908 M 157.292889105074,296.767023024331 47.5900235149681,120.429392986467 M 159.158473804268,295.663096094364 59.8215906036658,118.912955028888 M 161.070835980531,294.642193621548 71.7494806419754,118.187829426076 M 163.025261795317,293.704188779242 83.3374360121075,118.216923917979 M 165.017215833699,292.848644779999 94.5266168444282,118.896484124823 M 167.042369696963,292.074841834919 105.312677283009,120.226288606036 M 169.096612862395,291.381794586362 115.671973035348,122.166735976159 M 171.176050632,290.768271040368 125.576742890503,124.647510834853 M 173.277011196505,290.232823652533 135.009052465838,127.602312638843 M 175.396051402514,289.773819549162 143.959230368154,130.969442796948 M 177.529959568999,289.389468214598 152.424429012573,134.692073305987 M 179.67575574646,289.077846783413 160.407344691915,138.718279609413 M 181.830689781356,288.836923071986 167.915109637002,143.000909854131 M 183.992237518834,288.664576479837 174.958353321842,147.497349950509 M 186.158095448334,288.55861688703 181.5504203145,152.16923073396 M 188.326174069441,288.516801669853 187.706726474064,156.982111334308 M 190.494590229242,288.536850952997 193.444233136232,161.905162284985 M 192.661658657575,288.61646121243 198.781019104234,166.910863246751 M 194.825882902788,288.753317339234 203.735931919571,171.974723502206 M 196.985945848076,288.945103270706 208.328302360662,177.07502844837 M 199.140699967075,289.189511291184 212.577708911772,182.192611932389 M 201.289157457131,289.484250101159 216.503781715372,187.310652160324 M 203.430480369644,289.827051749426 220.126038048503,192.414487780605 M 205.563970838978,290.215677519256 223.463743524682,197.49145034394 M 207.689061494698,290.64792285578 226.535794966518,202.530709446085 M 209.805306126376,291.12162141808 229.360622220135,207.523127284162 M 211.91237065581,291.634648335799 231.956107123586,212.461119955541 M 214.010024458277,292.184922746403 234.339518449566,217.33852349226 M 216.098132062444,292.770409685632 236.527461978968,222.150463277052 M 218.176645247645,293.389121400086 238.535844988097,226.8932260802 M 220.245595547551,294.039118147341 240.379854407286,231.564134462077 M 222.30508716075,294.718508545454 242.073947783749,236.161423693254 M 224.355290261342,295.425449530279 243.631856000285,240.684121653189 M 226.396434696527,296.158145975512 245.066596498566,245.131932388097 M 228.428804053078,296.914850027006 246.39049555798,249.505124151478 M 230.452730070797,297.693860199505 247.615218007699,253.804422831586 M 232.468587378327,298.493520280586 248.75180261422,258.030911703527 M 234.476788525203,299.312218083315 249.810701297785,262.185938442883 M 236.477779283681,300.148384085806 250.801820293685,266.271030313995 M 238.472034194696,301.000489992657 251.734561390935,270.287818407774 M 240.460052334329,301.867047250021 252.617861451551,274.23797175708 M 242.442353280276,302.746605542865 253.46022853787,278.12314210554 M 244.419473262224,303.637751299876 254.269773150997,281.944920048965 M 246.391961485457,304.53910622832 255.054233307967,285.704803206051 M 248.360376623773,305.449325898103 255.820992454761,289.404177003738 M 250.325283485586,306.367098391247 256.577089522531,293.044308577892 M 252.287249866108,307.291143029982 257.329220779667,296.626354186314 M 254.246843608726,308.220209193664 258.08373350615,300.151380401838 M 256.204629909995,309.153075231833 258.846611911502,303.620399191262 M 258.16116891523,310.088547477769 259.623456125485,307.034416782832 M 260.117013665355,311.025459364075 260.419455503103,310.394495972025 M 262.072708470537,311.962670638948 261.23935789464,313.701831201579 M 264.028787802166,312.899066679024 262.087436930901,316.957835363899 M 265.985775708228,313.83355788551 262.967459655553,320.164236788557 M 267.944181878763,314.765078363161 263.886429424505,323.315203219314 M 269.904495985162,315.692581948633 264.838759434702,326.430730250676 M 271.867189253882,316.61503848596 265.828917007154,329.509240575731 M 273.832717066256,317.531433352241 266.861479069679,332.548289821496 M 275.801517052546,318.440767967523 267.940407236368,335.546074728907 M 277.774007187508,319.342060064182 269.069109555281,338.501307848753 M 279.750584189071,320.23434374467 270.25050131175,341.413106331152 M 281.731622180404,321.116669376249 271.487063462301,344.28089373059 M 283.717471579624,321.98810336588 272.780897570873,347.104313806774 M 285.708458185082,322.847727853362 274.13377639112,349.88315537916 M 287.704882427768,323.694640355889 275.547189484408,352.617287380497 M 289.7070187657,324.52795339261 277.022383482556,355.306603344549 M 291.715115198351,325.346794113438 278.560396798474,357.950974648933 M 293.729392882124,326.150303952233 280.162088758116,360.550211911192 M 295.750045830706,326.937638320701 281.828163275258,363.104034001543 M 297.777240686692,327.707966355753 283.559187318152,365.612044186997 M 299.8111165533,328.460470729797 285.35560452549,368.07371295775 M 301.851784877212,329.194347530374 287.217744419423,370.488367107436 M 303.89932937558,329.908806212796 289.145827736425,372.855184644557 M 305.953806002104,330.603069626914 291.139968453082,375.173195103883 M 308.015242948688,331.276374116892 293.200173123636,377.441284805462 M 310.083640680689,331.927969690899 295.326338169401,379.65820657669 M 312.15897200497,332.55712025586 297.518245766883,381.822593412104 M 314.241182171097,333.163103910989 299.775558971564,383.932975498464 M 316.330189006867,333.745213292588 302.097816687713,385.987799982289 M 318.425883090051,334.302755961677 304.484429051568,387.985452806264 M 320.528127958739,334.835054825331 306.934673736088,389.92428189312 M 322.636760362976,335.341448582186 309.447693611101,391.802620914028 M 324.751590560501,335.821292182423 312.022496104205,393.618812846543 M 326.872402659331,336.273957292652 314.657954506951,395.371232508001 M 328.998955009643,336.698832756465 317.352811359844,397.058307246822 M 331.130980646994,337.095325042099 320.105683931188,398.678534989308 M 333.268187788239,337.462858669503 322.915071681844,400.230498875214 M 335.410260380674,337.80087661028 325.779365484226,401.712877773498 M 337.556858703936,338.108840655409 328.6968582429,403.124452051249 M 339.707620022923,338.386231747282 331.665756450119,404.464104074346 M 341.862159288638,338.632550274598 334.684192106549,405.730813047839 M 344.020069882228,338.847316330809 337.750234349346,406.923643956642 M 346.180924395712,339.030069939309 340.861900060646,408.041730541563 M 348.344275440917,339.180371251271 344.017162683203,409.08425244027 M 350.509656475959,339.297800725042 347.213958449993,410.050406835062 M 352.676582636239,339.381959299243 350.450189244424,410.939375176498 M 354.844551554403,339.432468575245 353.723721350545,411.750285790578 M 357.013044150925,339.448971028488 357.032379431066,412.482173422965 M 359.181525374075,339.431130272093 360.373935187687,413.133937021613 M 361.349444864894,339.378631400604 363.746090315085,413.704297302525 M 363.516237519478,339.291181446171 367.14645355823,414.19175587432 M 365.681323917384,339.168509984385 370.572511922725,414.594557905702 M 367.84411058125,339.010369932014 374.021596368202,414.910660493695 M 370.00399021008,338.816538514775 377.490889978814,415.138185815757 M 372.160344542542,338.586816989379 380.978557768824,415.284493138932 M 374.312547654116,338.321028752479 384.482255355544,415.348654787032 M 376.459965346331,338.01901863777 387.99954422063,415.329642127922 M 378.601954399299,337.680653507828 391.527949100135,415.226695674708 M 380.737863502951,337.305822577276 395.064975436145,415.039299001561 M 382.867034211985,336.894437614045 398.608124378285,414.767153764297 M 384.988801875661,336.44643304497 402.154905428527,414.410156015032 M 387.102496542686,335.961765978258 405.702846895856,413.968373967048 M 389.207443841455,335.440416154179 409.249504347705,413.442027341717 M 391.302965835899,334.882385834189 412.792467261301,412.831468401873 M 393.388381857152,334.287699637632 416.329364089526,412.137164746301 M 395.46300931128,333.656404334112 419.857865962558,411.359683908612 M 397.526164463266,332.988568598707 423.375689248077,410.499679771781 M 399.577163197464,332.284282736245 426.880597189459,409.55788077782 M 401.61532175469,331.543658380057 430.370400833216,408.535079881341 M 403.639957446144,330.7668281698 433.842959444471,407.432126166907 M 405.650389344313,329.953945412232 437.29618059278,406.249918023849 M 407.645938951012,329.105183728127 440.728020070837,404.989397749199 M 409.625930842697,328.220736687937 444.136481786043,403.651547430055 M 411.589693293173,327.300817438203 447.519617740294,402.237385941488 M 413.536558873827,326.345658320253 450.875528187348,400.747966885257 M 415.465865031458,325.355510482283 454.202362030463,399.184377288277 M 417.37695464382,324.330643485495 457.498317496374,397.547736878002 M 419.269176552926,323.271344904695 460.761643095801,395.839197754648 M 421.141886076195,322.177919923437 463.990638856193,394.059944287246 M 422.994445495479,321.050690923622 467.183657789973,392.211193071643 M 424.826224523999,319.889997069293 470.339107541657,390.294192803461 M 426.636600751223,318.696193884271 473.455452140521,388.310223937187 M 428.424960065677,317.469652823253 476.531213772264,386.260598023584 M 430.190697055693,316.210760836008 479.564974473864,384.146656640881 M 431.933215388066,314.919919924374 482.555377650768,381.969769860159 M 433.651928164579,313.597546691929 485.50112931495,379.731334211425 M 435.346258256351,312.244071886365 488.400998946262,377.432770143275 M 437.015638615942,310.859939934875 491.253819888021,375.075518995339 M 438.65951256713,309.445608473172 494.058489200798,372.661039528068 M 440.277334072257,308.001547869108 496.813966915813,370.190804078273 M 441.868567977055,306.528240742318 499.519274650991,367.666294430656 M 443.432690232796,305.026181481769 502.173493578294,365.088997514638 M 444.969188095647,303.495875763671 504.775761760126,362.460401051709 M 446.477560303063,301.937840072767 507.325270905002,359.781989290738 M 447.957317227035,300.35260123072 509.82126262781,357.055238976757 M 449.407981004026,298.740695936003 512.263024337459,354.281615702337 M 450.829085641364,297.102670320478 514.649884913907,351.462570789381 M 452.220177099883,295.439079528704 516.98121037698,348.599538842784 M 453.580813352579,293.75048732687 519.25639979044,345.693936105675 M 454.910564419004,292.037465749226 521.474881685778,342.747159728659 M 456.20901237515,290.300594790883 523.636111330562,339.760588042567 M 457.475751338519,288.540462156911 525.739569205232,336.735581895585 M 458.710387428073,286.757663078796 527.784761089237,333.673487081294 M 459.912538776236,284.952800053183 529.771470470278,330.575800083076 M 461.081836066694,283.126481543883 531.699437118821,327.443921989447 M 462.217922823249,281.279321144988 533.56776744982,324.278837544516 M 463.320454972087,279.411938093393 535.376290170192,321.081971609487 M 464.389100610051,277.524957294948 537.124828618365,317.854696340173 M 465.42353999219,275.61900891341 538.813204249296,314.598339248195 M 466.423465512034,273.694727989981 540.441239911849,311.314189991393 M 467.388581674254,271.752754092184 542.008762837516,308.003506017127 M 468.318605060534,269.79373098885 543.515607279002,304.667517182074 M 469.213264289423,267.818306348252 544.961616754616,301.307429472229 M 470.072299970965,265.827131456685 546.346645870748,297.924427944772 M 470.895464656873,263.820860955104 547.670561709771,294.519679009684 M 471.682522786975,261.800152591619 548.933244784417,291.094332163634 M 472.433250632693,259.765666987918 550.134589571914,287.649521281966 M 473.147436238237,257.718067417898 551.274504651878,284.186365566856 M 473.824879360215,255.658019596975 552.352912481054,280.705970241012 M 474.46539140632,253.586191480749 553.369748845548,277.209427066982 M 475.068795373734,251.503253071863 554.324962037075,273.697814762335 M 475.634925787852,249.40987623406 555.21851180405,270.172199370914 M 476.16362864192,247.306734512573 556.050368131114,266.633634640252 M 476.654761338127,245.194502960135 556.820509901894,263.083162445218 M 477.108192630675,243.073857967991 557.528923499604,259.521813288207 M 477.523802571311,240.945477101408 558.175601398497,255.950606896897 M 477.901482457761,238.810038939237 558.760540796355,252.370552931872 M 478.241134785498,236.66822291721 559.283742334167,248.782651808385 M 478.542673203182,234.520709174626 559.745208944134,245.187895629346 M 478.806022472134,232.36817840421 560.144944861112,241.587269220404 M 479.031118430111,230.211311704884 560.482954825889,237.981751252698 M 479.217907959626,228.050790437249 560.759243501236,234.372315434795 M 479.366348961016,225.887296081538 560.973815113756,230.759931752295 M 479.476410330402,223.721510097816 561.126673326258,227.145567731871 M 479.548071942632,221.554113788142 561.217821336864,223.530189705946 M 479.581324639261,219.385788160378 561.247262192472,219.914764054981 M 479.576170221557,217.217213793255 561.214999295698,216.300258406309 M 479.532621448467,215.049070702253 561.121037076163,212.687642771738 M 479.450702039425,212.882038205728 560.965381789108,209.077890610605 M 479.330446681831,210.716794790632 560.748042396983,205.471979810666 M 479.171901042942,208.554017977063 560.469031483006,201.870893585994 M 478.975121785896,206.394384180712 560.128366139874,198.275621298974 M 478.74017658949,204.238568572161 559.726068771949,194.687159222366 M 478.467144171289,202.087244931791 559.262167745512,191.106511267146 M 478.156114313552,199.941085498904 558.736697819163,187.534689712441 M 477.807187891433,197.800760813444 558.149700285298,183.972715985022 M 477.420476902799,195.666939548524 557.50122275389,180.421621547592 M 476.996104498954,193.540288331698 556.791318511654,176.882448967123 M 476.5342050155,191.421471552739 556.020045393217,173.356253246802 M 476.034924002455,189.311151155358 555.187464106069,169.844103517377 M 475.498418252695,187.2099864101 554.29363595814,166.347085195756 M 474.924855827713,185.118633665327 553.338619945592,162.866302730392 M 474.314416079573,183.037746072911 552.32246916914,159.402883063958 " />
</svg>