<?xml version="1.0" encoding="utf-8"?>
<svg viewBox="0 0 768 768" version="1.1" xmlns="http://www.w3.org/2000/svg">
  <path d="M 178 363 C 176.382482630229 363.401667874324 174.733776403723 363.678073475832 173.073700358884 363.825904944742 C 171.413624314046 363.973736413652 169.742195932675 363.992986665968 168.079313236526 363.883448920577 C 166.416430540376 363.773911175186 164.762122721626 363.535584974572 163.136010572944 363.171426647712 C 161.509898424263 362.807268320852 159.912017035359 362.317285127954 158.36122279265 361.707546136506 C 156.810428549941 361.097807145058 155.306757721542 360.36832763019 153.867763055677 359.528120321615 C 152.428768389812 358.68791301304 151.054483624839 357.737000819711 149.760629708922 356.687053093417 C 148.466775793005 355.637105367124 147.253381154768 354.488151706999 146.133866431762 353.254123130079 C 145.014351708757 352.020094553159 143.98873808532 350.70102595831 143.067772308305 349.312624771613 C 142.146806531289 347.924223584917 141.330501368848 346.466528283472 140.626674246105 344.956470598046 C 139.922847123363 343.44641291262 139.331501900271 341.884032961738 138.857401797791 340.286895377247 C 138.383301695311 338.689757792756 138.0264417703 337.05790229824 137.788539527707 335.408925634173 C 137.550637285114 333.759948970107 137.431679598156 332.093888444957 137.430474600507 330.427793262189 C 137.429269602858 328.761698079421 137.545797035134 327.095601244148 137.776207252537 325.445475348739 C 138.006617469939 323.795349453329 138.350884480334 322.161221558989 138.802849239834 320.557535722029 C 139.254813999334 318.953849885069 139.814446448956 317.380625945661 140.473700238725 315.850426642435 C 141.132954028495 314.320227339209 141.89179688176 312.833064493357 142.74076450619 311.399381562162 C 143.589732130619 309.965698630966 144.528791981582 308.585499213623 145.547549887515 307.266991959202 C 146.566307793448 305.948484704782 147.664732909173 304.691665498138 148.831978488185 303.502512916901 C 149.999224067197 302.313360335663 151.235262866178 301.191863884423 152.529233005496 300.141883368386 C 153.823203144813 299.09190285235 155.175082737628 298.113423672092 156.57436484302 297.208377755854 C 157.973646948412 296.303331839616 159.420316560078 295.471703818117 160.904499707816 294.713726268069 C 162.388682855555 293.955748718021 163.910361696176 293.271402758536 165.460500420998 292.659455679335 C 167.010639145819 292.047508600134 168.589241524286 291.507950007706 170.1882943666 291.038315174487 C 171.787347208914 290.568680341268 173.406846428642 290.168947452958 175.039843729468 289.835712575027 C 176.672841030295 289.502477697095 178.319336802717 289.235723086173 179.97347392516 289.031401771549 C 181.627611047602 288.827080456925 183.28939302955 288.685178253876 184.954023490794 288.601244139836 C 186.618653952039 288.517310025796 188.286138415326 288.491332898734 189.952672548227 288.518646893227 C 191.619206681128 288.545960887719 193.284797142217 288.626557544107 194.946539543675 288.75570245915 C 196.608281945134 288.884847374194 198.266183408299 289.062534325231 199.918135582899 289.284070114336 C 201.570087757499 289.505605903442 203.216097735012 289.770986173818 204.854746211339 290.075637937231 C 206.493394687666 290.380289700643 208.124688388326 290.724210128575 209.747793172035 291.103000022784 C 211.370897955744 291.481789916993 212.985819978563 291.895447672516 214.592213510623 292.339780853986 C 216.198607042683 292.784114035456 217.796477575762 293.259121988895 219.385880386342 293.760835736328 C 220.975283196923 294.262549483761 222.556223102423 294.79096908109 224.129079090624 295.342353275765 C 225.701935078825 295.893737470439 227.266711343542 296.468086817904 228.824043070634 297.06188301773 C 230.381374797726 297.655679217555 231.931265645065 298.268923144465 233.474548204008 298.898308564345 C 235.017830762952 299.527693984226 236.554508256072 300.173221940193 238.085559172949 300.831783749113 C 239.616610089825 301.490345558033 241.142037307432 302.161942309209 242.662919540933 302.84364677314 C 244.183801774434 303.525351237071 245.700141610046 304.217164455026 247.213077043406 304.916324594291 C 248.726012476766 305.615484733556 250.235545799382 306.321992720439 251.742837665053 307.033237310597 C 253.250129530724 307.744481900755 254.755181849589 308.460463865203 256.259146290592 309.17870979177 C 257.763110731595 309.896955718338 259.265988630211 310.617466208314 260.76889808341 311.337895387789 C 262.271807536609 312.058324567265 263.77474898135 312.778672878574 265.27879326691 313.496714181228 C 266.782837552471 314.214755483881 268.287990191884 314.930493154218 269.795236975819 315.641801079847 C 271.302483759753 316.353109005477 272.811825215533 317.059986778486 274.324170825833 317.760381357428 C 275.836516436134 318.460775936371 277.351867409717 319.154687247501 278.871038741553 319.840139161607 C 280.390210073388 320.525591075713 281.913202556847 321.202583761899 283.44072181727 321.869217125855 C 284.968241077693 322.53585048981 286.500287615735 323.192124797823 288.037448084894 323.836212605601 C 289.574608554054 324.48030041338 291.116883254651 325.112201980303 292.664733936692 325.730158487663 C 294.212584618732 326.348114995023 295.766011448183 326.952126627417 297.325347826486 327.540499812294 C 298.884684204788 328.128872997171 300.44993020705 328.701607807326 302.021289110341 329.257073963493 C 303.592648013633 329.81254011966 305.170119827099 330.350737571306 306.753777087759 330.870099165052 C 308.337434348418 331.389460758799 309.927277009657 331.889986329389 311.523247153369 332.370173484156 C 313.119217297081 332.850360638923 314.721314820307 333.310209121263 316.329352466996 333.748284491207 C 317.937390113685 334.18635986115 319.551367717054 334.602661803537 321.170970696803 334.995828153842 C 322.790573676551 335.388994504146 324.415801791602 335.75902492549 326.046216186007 336.104634454945 C 327.676630580413 336.450243984401 329.312230929237 336.771432298893 330.952458338388 337.066996618759 C 332.592685747538 337.362560938625 334.237539803472 337.632500983447 335.88634711145 337.875700705986 C 337.535154419428 338.118900428524 339.187914481259 338.335359607841 340.843846248753 338.524052698067 C 342.499778016246 338.712745788294 344.158880923136 338.873672627397 345.820274274435 339.005901032611 C 347.481667625734 339.138129437826 349.145350820186 339.24165928269 350.810352313481 339.315653876182 C 352.475353806777 339.389648469673 354.141673016163 339.434107669456 355.808256490709 339.448292227456 C 357.474839965254 339.462476785456 359.14168721852 339.446386458538 360.807670999841 339.399382232979 C 362.473654781162 339.352378007421 364.138774806435 339.274459415522 365.801835921358 339.165092869498 C 367.464897036281 339.055726323475 369.125898636096 338.914911220845 370.783581666512 338.742228341594 C 372.441264696928 338.569545462343 374.095630127072 338.364995385507 375.745382154996 338.128261665532 C 377.39513418292 337.891527945556 379.040272102087 337.622610372323 380.67946047877 337.321297300657 C 382.318648855454 337.01998422899 383.951887025197 336.686275612644 385.577810203949 336.32006647987 C 387.203733382701 335.953857347096 388.822340947084 335.555147769386 390.432248420574 335.123939219637 C 392.042155894064 334.692730669889 393.643362693458 334.229023301225 395.234473698313 333.732923316233 C 396.825584703168 333.23682333124 398.40659936965 332.708330937404 399.976120385469 332.147654340043 C 401.545641401288 331.586977742681 403.103668261278 330.99411718403 404.648809328176 330.369379483646 C 406.193950395073 329.744641783262 407.726205201789 329.088027204986 409.244195077466 328.399937377131 C 410.762184953144 327.711847549277 412.265909468288 326.992282749431 413.754009642417 326.241735348574 C 415.242109816547 325.491187947717 416.71458525739 324.70965823342 418.170102837796 323.897725078664 C 419.625620418201 323.085791923908 421.064179782868 322.243455625397 422.484479264584 321.371377176283 C 423.9047787463 320.499298727169 425.306818026601 319.597478434173 426.689331951388 318.666654886234 C 428.071845876174 317.735831338296 429.434834163809 316.776004853579 430.777072674107 315.787986931454 C 432.119311184405 314.79996900933 433.440799672674 313.783759980183 434.740358960293 312.740239389794 C 436.039918247912 311.696718799405 437.317548127378 310.625886989337 438.572117773413 309.528686509912 C 439.826687419448 308.431486030488 441.058196662115 307.307917230391 442.265565860703 306.158980481913 C 443.472935059292 305.010043733436 444.656164081948 303.835739384127 445.814226736502 302.637120396154 C 446.972289391055 301.438501408182 448.10518558439 300.215568114324 449.21194426084 298.969420948072 C 450.31870293729 297.72327378182 451.399324043273 296.453913040973 452.452892760703 295.162481878008 C 453.506461478133 293.871050715042 454.532977793903 292.557549364822 455.531583628658 291.223159672771 C 456.530189463413 289.88876998072 457.500884845612 288.533492081869 458.442868320611 287.158543700134 C 459.38485179561 285.7835953184 460.29812284138 284.388977656629 461.181938491469 282.975938009681 C 462.065754141558 281.562898362733 462.920114709499 280.131436412473 463.744335706272 278.682825697659 C 464.568556703044 277.234214982845 465.362638142327 275.768455781178 466.125952757033 274.286845687236 C 466.889267371738 272.805235593293 467.62181518751 271.307774838741 468.323025861281 269.795781265718 C 469.024236535051 268.283787692696 469.694110101387 266.757261498025 470.332132686776 265.217537567331 C 470.970155272165 263.677813636636 471.576326917188 262.124892140741 472.150189651556 260.560122258895 C 472.724052385924 258.995352377049 473.265606253487 257.41873426088 473.774448551424 255.831628970536 C 474.283290849361 254.244523680192 474.759421622248 252.646931353168 475.202492769216 251.040222766219 C 475.645563916184 249.433514179271 476.055575480235 247.817689459383 476.432233303532 246.194127119216 C 476.808891126829 244.57056477905 477.15219524877 242.939264937561 477.461904834748 241.301612000707 C 477.771614420725 239.663959063853 478.047729504815 238.019953144207 478.290062023075 236.370982805826 C 478.532394541334 234.722012467445 478.740944521145 233.068077817627 478.915576207131 231.410569930398 C 479.090207893116 229.753062043169 479.230921304974 228.091981021424 479.337632642024 226.428718873517 C 479.444343979074 224.76545672561 479.517053252753 223.100013550971 479.555728383229 221.433780775868 C 479.594403513704 219.767548000764 479.599044504031 218.100525722463 479.569670886649 216.43410331143 C 479.540297269267 214.767680900398 479.476909039213 213.101858453709 479.379577356121 211.438021830758 C 479.28224567303 209.774185207807 479.150970524809 208.112334508417 478.985874827313 206.453850607559 C 478.820779129817 204.795366706701 478.621862865275 203.140249711153 478.389300931398 201.489873966721 C 478.156738997521 199.839498222289 477.890531372903 198.193863848483 477.590905233188 196.55433697122 C 477.291279093473 194.914810093957 476.958234416296 193.281390853126 476.592050986399 191.655435217622 C 476.225867556501 190.029479582119 475.8265453539 188.410987722036 475.3944170936 186.80130313498 C 474.962288833299 185.191618547923 474.49735450174 183.590741446484 474 182" fill="none" stroke="rgb(0, 0, 0)" stroke-width="2" />
  <path d="M 175.552812693041 363.508188711742 L 201.110841100008 515.95534519411 M 170.577558222629 363.951239630679 L 172.358613018912 518.548100253888 M 165.593865052777 363.622969849371 L 143.557586923942 516.605583669794 M 160.72035635908 362.531626786176 L 115.478719886452 510.090527690815 M 156.07254348282 360.704302913708 L 88.9019257184907 499.186275392611 M 151.759736100575 358.186278062998 L 64.5638815619467 484.230448223901 M 147.881831714385 355.039650195795 L 43.1382846295796 465.687429452523 M 144.526319394515 351.341287269504 L 25.2126361499624 444.144332915019 M 141.76574916976 347.180183448668 L 11.2519941656681 420.304851572608 M 139.655842372296 342.654343128974 L 1.55999625210779 394.9639873618 M 138.23434960521 337.867346034616 L -3.74673113999759 368.962715549661 M 137.520701811101 332.924766027358 L -4.74124168296774 343.133886240394 M 137.516446179483 327.930625225942 L -1.66780059832752 318.253204500977 M 138.206412339206 322.984063577469 L 5.08814214429364 295.003177453352 M 139.560515439645 318.176392148078 L 15.0316919033666 273.949488908102 M 141.5360713311 313.58867610873 L 27.5877126330965 255.524465584948 M 144.080475110615 309.289960683027 L 42.1296601253419 240.013586454594 M 147.134077804313 305.336210197909 L 58.0128117367329 227.546432899505 M 150.633086911319 301.769976834669 L 74.6139310242905 218.098750367472 M 154.512314937453 298.620751717068 L 91.37340896833 211.513675917075 M 158.707605899053 295.905876595397 L 107.830544998205 207.546811511671 M 163.157783078607 293.63180959008 L 123.640935970779 205.933826545232 M 167.806070665596 291.795501026233 L 138.525887049722 206.335853512694 M 172.601356903804 290.385851697195 L 152.32350835986 208.493484639716 M 177.498748333802 289.385206552606 L 164.903717021495 212.007142969309 M 182.459829825755 288.771173046772 L 176.237960220847 216.527374080359 M 187.452648970273 288.518225370274 L 186.365488368998 221.769529711247 M 192.451416213956 288.598987959174 L 195.365494619976 227.506539228752 M 197.43602049924 288.98524104653 L 203.338970356737 233.559541364086 M 202.391439723625 289.648687894951 L 210.397163360839 239.78944958164 M 207.307106940284 290.56152020419 L 216.654072056979 246.090177382559 M 212.176276981967 291.696815105741 L 222.221371246316 252.383206533518 M 216.995424103192 293.028794136881 L 227.204957375725 258.612946331367 M 221.763689301814 294.532971629717 L 231.702764830596 264.74246837827 M 226.482386200331 296.186217056472 L 235.803685734839 270.749430523374 M 231.154566739591 297.966753040538 L 239.587434480948 276.622192348473 M 235.784642462946 299.854107973687 L 243.125136022512 282.356235776197 M 240.378053847463 301.829039473277 L 246.480351876878 287.951049239593 M 244.940978970339 303.873442269365 L 249.710225659411 293.407637947749 M 249.480073783369 305.970251530257 L 252.866444695889 298.726807696733 M 254.00223940612 308.103350116258 L 255.995777535843 303.908346199088 M 258.51441713928 310.257485795212 L 259.140054134854 308.951193926741 M 263.02341934366 312.418202059829 L 262.335596443989 313.854647606342 M 267.53581284551 314.57178374989 L 265.613950747287 318.617008894595 M 272.057790514986 316.705184910706 L 268.992403165775 323.256212041883 M 276.595043528468 318.805864963658 L 272.491711992511 327.774235992456 M 281.152748010289 320.861736265595 L 276.136364331946 332.156045302886 M 285.735467584332 322.861170552701 L 279.943888107263 336.392098656228 M 290.347080196937 324.792985827073 L 283.926572880245 340.475527866158 M 294.990731722457 326.64642389552 L 288.092861224303 344.400103250563 M 299.668807980844 328.411128006237 L 292.448346039663 348.158862045286 M 304.38291917217 330.077126769579 L 296.996379107815 351.74330371763 M 309.133892757479 331.634827772292 L 301.738346337239 355.143072690189 M 313.921772488777 333.075022000118 L 306.67369806231 358.346052710667 M 318.74582261333 334.388898371788 L 311.79983980483 361.33878907625 M 323.604537248764 335.568066357977 L 317.111990500988 364.107138747728 M 328.495655545693 336.60458381186 L 322.603101523581 366.637029404238 M 333.416183523799 337.490986773461 L 328.263901846646 368.91519312798 M 338.362423385446 338.220318128017 L 334.083095022992 370.929735356966 M 343.330010677966 338.786152599126 L 340.047687020478 372.670410860782 M 348.313958891796 339.182616640467 L 346.143377121893 374.128509731629 M 353.308709946601 339.404403355375 L 352.354905039773 375.296309065284 M 358.308187531453 339.446784621594 L 358.666224438117 376.166118626608 M 363.305848427958 339.305625128992 L 365.060373954973 376.729037074894 M 368.294724757056 338.977406051029 L 371.518948218371 376.973631866672 M 373.267455333894 338.459265678297 L 378.022617037496 376.895790834232 M 378.216382148902 337.748998398831 L 384.553646323499 376.502536755009 M 383.133609409122 336.845019582986 L 391.092934694516 375.78838398834 M 388.011034966379 335.74637928426 L 397.621171936886 374.751533396615 M 392.840409636517 334.452767173473 L 404.119236408076 373.392916455223 M 397.613393316578 332.964506626517 L 410.568458357965 371.715564388425 M 402.321607484866 331.282541337477 L 416.950769850515 369.724104980728 M 406.956684156202 329.408416928371 L 423.248778819634 367.424389847473 M 411.510311355359 327.34425933786 L 429.445802207506 364.823242656916 M 415.974275162029 325.092751189066 L 435.525886820325 361.928308425455 M 420.340498370749 322.657106861049 L 441.4738375976 358.747976810752 M 424.601075799025 320.041046619617 L 447.275262805665 355.291349034791 M 428.748306266379 317.248769900892 L 452.916635689482 351.568218866295 M 432.774721256252 314.284927685519 L 458.385363717352 347.589042663059 M 436.673110261628 311.154593852494 L 463.669850880654 343.364881078927 M 440.436542803859 307.863235459358 L 468.759536398159 338.907304614646 M 444.058387102525 304.416682059971 L 473.64489507546 334.228265472947 M 447.532325362191 300.821094442151 L 478.317390536831 329.339947832264 M 450.852365629692 297.082933545263 L 482.769382250856 324.254616401464 M 454.01285016304 293.208930802298 L 486.994000055335 318.984487835902 M 457.008460240226 289.206061742055 L 490.985014830607 313.541650376029 M 459.834217326646 285.081525377566 L 494.736847432823 307.938116785625 M 462.485485989318 280.842721413474 L 498.244935162202 302.186033640405 M 464.957985017183 276.497210803854 L 501.504563507386 296.296951046394 M 467.247779173261 272.052707571041 L 504.51268194624 290.282912040913 M 469.35127568533 267.517058544408 L 507.266451079609 284.155525338976 M 471.265221981954 262.898222348497 L 509.763323834555 277.926102900153 M 472.986702623536 258.204251561054 L 512.001096056209 271.605738982843 M 474.513135689876 253.443277240522 L 513.977925338 265.205349948163 M 475.84226887062 248.623495206324 L 515.692321687109 258.735691555842 M 476.972175486775 243.753153611985 L 517.143116951571 252.207367102075 M 477.901250649962 238.840541480717 L 518.329421809815 245.630835928084 M 478.628207741447 233.893977975658 L 519.25057960036 239.016427982377 M 479.152075365054 228.921802252321 L 519.906125487882 232.374366603277 M 479.472194897037 223.932363789193 L 520.295757626719 225.714798795918 M 479.588218721614 218.934013113623 L 520.419324347094 219.047830238635 M 479.500109203416 213.935092834304 L 520.276828239601 212.383561228175 M 479.208138407339 208.943928858708 L 519.86844465684 205.732119853026 M 478.712888532378 203.968821613774 L 519.194548905456 199.1036898918 M 478.015252978872 199.018037001047 L 518.255743585818 192.50853322126 M 477.116437918235 194.099796703215 L 517.052875459493 185.957009767098 M 476.017964180697 189.22226731769 L 515.587030172795 179.459602048416 M 474.721669219802 184.393547624469 L 513.859493388138 173.026955890613" fill="none" stroke="rgb(0, 0, 255)" stroke-width="0.5" />
  <circle cx="178" cy="363" r="10" fill="rgb(255, 0, 0)" stroke="none" stroke-width="0" />
  <circle cx="191.31593938569387" cy="288.55278806070771" r="10" fill="rgb(255, 0, 0)" stroke="none" stroke-width="0" />
  <circle cx="474" cy="182" r="10" fill="rgb(255, 0, 0)" stroke="none" stroke-width="0" />
</svg>