<?xml version="1.0" encoding="utf-8"?>
<svg viewBox="0 0 768 768" version="1.1" xmlns="http://www.w3.org/2000/svg">
  <path style="fill:none; stroke:black; stroke-width:2" d="M178,363  C176.371810986818,362.275157272348 174.644654291985,361.507049206226 173.023402813724,360.767625560227 C171.402151335464,360.028201914227 169.689548715504,359.226999933317 168.089276264143,358.442900917197 C166.489003812783,357.658801901078 164.806364118344,356.795826649025 163.242817777605,355.941014837969 C161.679271436866,355.086203026912 160.044673359571,354.134894481596 158.537082926419,353.185089342061 C157.029492493268,352.235284202525 155.465716582172,351.170743753623 154.038402927134,350.104154085157 C152.611089272096,349.037564416691 151.146986002722,347.83854002162 149.830077813496,346.638289366335 C148.513169624271,345.43803871105 147.183807009424,344.090064120685 146.012709902304,342.747214222864 C144.841612795183,341.404364325044 143.687003389694,339.903017974089 142.700570338063,338.419330650977 C141.714137286431,336.935643327866 140.776635156684,335.289137101036 140.014230275386,333.678940750656 C139.251825394088,332.068744400276 138.572508697742,330.299287114574 138.070337636408,328.590030537447 C137.568166575073,326.880773960319 137.18268082671,325.024379045651 136.969880364145,323.255662294572 C136.757079901579,321.486945543494 136.691510786147,319.591567058625 136.7865476817,317.812636654165 C136.881584577253,316.033706249705 137.148957315116,314.15579203816 137.556882061493,312.42167609729 C137.96480680787,310.68756015642 138.562771573017,308.887305627344 139.273806408296,307.253943248593 C139.984841243576,305.620580869841 140.895000990079,303.956351582102 141.884813364776,302.475240212856 C142.874625739473,300.99412884361 144.063794000645,299.516694777472 145.295616658467,298.229739257502 C146.527439316289,296.942783737532 147.95088110612,295.690172857138 149.379388024649,294.625570387122 C150.807894943179,293.560967917107 152.414303810595,292.554901358728 153.990837460466,291.725037783486 C155.567371110337,290.895174208244 157.304969673575,290.140190173786 158.98333939179,289.542654697101 C160.661709110005,288.945119220416 162.484519718295,288.431751523038 164.226039454119,288.054545054877 C165.967559189943,287.677338586716 167.838914754172,287.389829574653 169.611806677648,287.212019688011 C171.384698601124,287.034209801368 173.274715860348,286.943609725132 175.056412111771,286.935232058985 C176.838108363193,286.926854392838 178.728355084487,286.998874183522 180.505568880738,287.127889702144 C182.28278267699,287.256905220766 184.163426621286,287.457941509095 185.929659564984,287.694771200473 C187.695892508681,287.931600891851 189.562912577779,288.232543350402 191.315939385694,288.552788060708 C193.068966193609,288.873032771014 194.921611425458,289.251233232096 196.661352405696,289.636794034335 C198.401093385934,290.022354836574 200.239912892197,290.462042682835 201.966910243387,290.900947497031 C203.693907594577,291.339852311227 205.519487547086,291.831359678218 207.234043306041,292.316660549164 C208.948599064996,292.801961420109 210.7609940532,293.34016723492 212.46290528015,293.868299731612 C214.164816507099,294.396432228304 215.963552006941,294.978846036001 217.652292569517,295.547837664387 C219.341033132093,296.116829292773 221.125483447916,296.74171419275 222.800631546611,297.349592510377 C224.475779645307,297.957470828003 226.245691510444,298.622349655456 227.907387879205,299.266032942947 C229.569084247966,299.909716230439 231.325020296544,300.610516374018 232.974263812582,301.285370254143 C234.623507328619,301.960224134269 236.367025880841,302.691194079557 238.005671127573,303.391306379832 C239.644316374306,304.091418680107 241.377784410079,304.845793509892 243.008199556411,305.564856939332 C244.638614702743,306.283920368771 246.364669533958,307.055124035145 247.989142721814,307.787621889846 C249.613615909671,308.520119744547 251.33444789972,309.303068954669 252.954596169922,310.045233080403 C254.574744440124,310.787397206137 256.291568160416,311.57921523305 257.908204794583,312.328967855968 C259.52484142875,313.078720478885 261.23815588596,313.877879121052 262.852309899162,314.632680909957 C264.466463912363,315.387482698862 266.178444945013,316.189238295221 267.793723227629,316.941812044638 C269.409001510246,317.694385794056 271.123942522485,318.49018213348 272.742176974743,319.236449447869 C274.360411427001,319.982716762258 276.07912903727,320.770269913954 277.701805168988,321.506762982428 C279.324481300705,322.243256050902 281.048845691582,323.018309121705 282.677790537054,323.7407831667 C284.306735382526,324.463257211696 286.03874876921,325.221066887151 287.675790756714,325.924997539063 C289.312832744217,326.628928190975 291.054370911409,327.364640190948 292.701159460672,328.045479914644 C294.347948009935,328.72631963834 296.100634826695,329.435138999603 297.758558886746,330.088417646286 C299.416482946797,330.741696292968 301.181642154149,331.418931686626 302.851802487443,332.040266565215 C304.521962820738,332.661601443803 306.300606862426,333.302643123062 307.983810461917,333.887706691899 C309.667014061407,334.472770260737 311.459843068593,335.073044153422 313.156599662486,335.617522525706 C314.853356256378,336.162000897991 316.660751502115,336.71692680843 318.371261656443,337.216489743347 C320.081771810772,337.716052678264 321.903777019896,338.221022544641 323.627908891734,338.671315460659 C325.352040763573,339.121608376678 327.188331598108,339.57199104274 328.925588922233,339.968651840024 C330.662846246358,340.365312637309 332.512693085743,340.756484641396 334.262180494859,341.095182756695 C336.011667903975,341.433880871995 337.873899703304,341.761278331705 339.634292986547,342.037770471472 C341.39468626979,342.314262611239 343.267663807886,342.573447388713 345.037192204233,342.783643794528 C346.80672060058,342.993840200344 348.688325823004,343.180574171071 350.464770925422,343.320611065758 C352.24121602784,343.460647960446 354.128860447993,343.570972377753 355.909571760687,343.637290420797 C357.690283073381,343.703608463842 359.580932317552,343.733931111718 361.362852962498,343.723366258824 C363.144773607444,343.71280140593 365.034977177117,343.660002464674 366.814664687176,343.569904578443 C368.594352197235,343.479806692212 370.480253127665,343.341525595451 372.253880089394,343.169557618917 C374.027507051123,342.997589642383 375.90484275793,342.770834663765 377.66821773019,342.514263601139 C379.431592702449,342.257692538514 381.295734768746,341.940028429064 383.04437870126,341.597129764839 C384.793022633774,341.254231100613 386.639099301672,340.84431210065 388.368339255393,340.414121726266 C390.097579209115,339.983931351883 391.920546876161,339.481055720219 393.625566813556,338.963149409325 C395.330586750952,338.445243098432 397.125270307035,337.849212963693 398.801150073822,337.243629289285 C400.477029840609,336.638045614878 402.238165383373,335.949142372044 403.87992934527,335.256387534333 C405.521693307167,334.563632696621 407.243988713511,333.782650960515 408.846673117953,333.003738867998 C410.449357522396,332.224826775481 412.12757470058,331.353124848477 413.686313258902,330.489619095994 C415.245051817225,329.626113343511 416.874105801834,328.665651432235 418.384226232068,327.719687548752 C419.894346662302,326.77372366527 421.469411042931,325.727072690373 422.926531377152,324.701349185906 C424.383651711373,323.675625681439 425.90025720533,322.545939465831 427.300369548406,321.443674791204 C428.700481891482,320.341410116577 430.154595181101,319.132362010613 431.49412630972,317.957221555765 C432.833657438339,316.782081100916 434.22173069463,315.497772708126 435.497573406653,314.253775404306 C436.773416118676,313.009778100486 438.092403925002,311.654632704335 439.301920389478,310.346050662877 C440.511436853953,309.03746862142 441.758786526275,307.616125182466 442.899795043853,306.247392097815 C444.040803561431,304.878659013164 445.214437135297,303.395884206698 446.28520669734,301.971528974032 C447.355976259382,300.547173741365 448.454297678379,299.007809438261 449.45359051071,297.532430586393 C450.45288334304,296.057051734525 451.474862638766,294.466013592561 452.40208353281,292.944307710819 C453.329304426854,291.422601829078 454.274711926673,289.784941258409 455.130244596643,288.22179460186 C455.985777266612,286.658647945311 456.855873911116,284.979775670242 457.640676302581,283.37994402325 C458.425478694046,281.780112376259 459.220575817391,280.064494734489 459.935170554634,278.432104003038 C460.649765291878,276.799713271586 461.370954362589,275.051776224962 462.016809528665,273.390982901625 C462.662664694742,271.730189578288 463.311916765148,269.954300084072 463.891148108769,268.269102458091 C464.47037945239,266.583904832109 465.050210069721,264.78417835491 465.565369582051,263.07829730685 C466.080529094381,261.372416258791 466.593836547398,259.552632153265 467.047798336442,257.829456374412 C467.501760125487,256.106280595559 467.951744319937,254.269850002285 468.347650109386,252.532419721994 C468.743555898836,250.794989441704 469.133683312183,248.944952531392 469.474919519351,247.195963439463 C469.816155726519,245.446974347533 470.150145459401,243.586011197926 470.44033221454,241.8278266882 C470.730518969678,240.069642178474 471.012333184067,238.200087781834 471.255312840838,236.434752917688 C471.498292497608,234.669418053542 471.732121509757,232.793276930545 471.931940164009,231.022531642696 C472.13175881826,229.251786354847 472.321996798112,227.37074599297 472.482877079345,225.596037965082 C472.643757360579,223.821329937193 472.794968978494,221.936774778331 472.92127590548,220.159274256283 C473.047582832466,218.381773734235 473.164464288827,216.494802707265 473.260668287804,214.715422083633 C473.356872286781,212.936041460001 473.444211960278,211.047492089396 473.514854230967,209.266912565661 C473.585496501656,207.486333041926 473.648140957844,205.596813963235 473.697806239204,203.815519878551 C473.747471520564,202.034225793866 473.790301833612,200.144157070973 473.823602267795,198.362475607908 C473.856902701978,196.580794144843 473.884823959407,194.690451112352 473.906395178782,192.908591046936 C473.927966398157,191.126730981521 473.945909880762,189.236282428451 473.960416649145,187.454360384068 C473.974923417528,185.672438339686 473.987856274654,183.781963707823 474,182" />
  <path style="fill:none; stroke:green; stroke-width:0.5" d="M 177.009492412745,362.558714029427 174.846255353427,367.41620255105 M 175.029814910485,361.673391635484 166.617287110103,380.420350262164 M 173.054127757762,360.779413543702 158.772211912486,392.10318385391 M 171.08508996313,359.870767480574 151.023114730672,402.855346261359 M 169.125433777802,358.941933746553 143.136482888477,412.973885511109 M 167.17800332573,357.987712093967 134.920322001038,422.661657489307 M 165.245806073605,357.003106344126 126.215288194006,432.033606911441 M 163.332070729468,355.983258576975 116.889161375731,441.126385740573 M 161.440306062104,354.923425225171 106.833948634646,449.90941774519 M 159.574355989856,353.818987895754 95.9649873169627,458.296393361709 M 157.738447096958,352.665492226759 84.2214996382742,466.156636446295 M 155.937225497876,351.458708563119 71.5681085393325,473.32603318569 M 154.175780685598,350.194708706076 57.9968637810383,479.617361590924 M 152.459654668148,348.869953453014 43.5293611252084,484.829954830799 M 150.794835319005,347.481386100178 28.2185767659665,488.758689263339 M 149.187733441421,346.026527529151 12.1500902090143,491.202313017415 M 147.645143573952,344.503568939179 -4.55756649287906,491.971127402909 M 146.174189044857,342.911458721556 -21.7536181465755,490.894008919403 M 144.782252216228,341.249980399179 -39.2569137002044,487.824725227109 M 143.476891245043,339.519818974201 -56.8589617128294,482.647466206591 M 142.265745027533,337.722613439306 -74.3280589764997,475.281491436851 M 141.156428285468,335.860993613624 -91.4143625919481,465.684794382031 M 140.156418998186,333.938599862615 -107.855698278905,453.85670270867 M 139.27294058235,331.960084652414 -123.38386204007,439.839370272415 M 138.512841372568,329.931095273155 -137.731160642366,423.718162899831 M 137.882474060152,327.858237442633 -150.636947985339,405.620989049329 M 137.387577804405,325.749019871378 -161.85394590364,385.716669797693 M 137.033165740911,323.611780232766 -171.154183949519,364.212473806654 M 136.823420574378,321.455593337178 -178.334446771744,341.350957492866 M 136.761600859633,319.290162657483 -183.221173028032,317.406246258521 M 136.849960443392,317.12569669418 -185.674799570357,292.679869047202 M 137.089683361449,314.972772002504 -185.593582336825,267.496217220837 M 137.480836260902,312.842185030546 -182.916944595452,242.19764329797 M 138.022340145003,310.744795237104 -177.62839803471,217.139151280523 M 138.711962919172,308.691362270416 -169.758048132216,192.68256678226 M 139.54633385064,306.692380294282 -159.384630577143,169.190023566583 M 140.520980641069,304.757912846226 -146.636933542602,147.016577163846 M 141.630389351414,302.897431903366 -131.694351581979,126.501769664534 M 142.868086911128,301.119665115533 -114.786209275024,107.960032438538 M 144.22674538966,299.432455441853 -96.189412115866,91.6699266036991 M 145.698306607023,297.842637696607 -76.2239575213937,77.862372437411 M 147.274125012001,296.355936772521 -55.2458956158482,66.7081807313135 M 148.945126061344,294.976892564937 -33.6374802293436,58.3053297917379 M 150.701976591057,293.708816868377 -11.7944863353183,52.6664843837226 M 152.535262881646,292.55378775794 9.88904500453808,49.7071892186828 M 154.435671282855,291.512687201789 31.0381011746881,49.23497797485 M 156.394165380175,290.585287877574 51.3153202594194,50.9393504183241 M 158.402152755049,289.770395385143 70.4402312674385,54.3822673180749 M 160.451633413359,289.066052260192 88.2086725250217,58.9886255661621 M 162.535320197106,288.469809528212 104.512575796776,64.0362661199464 M 164.646568792723,287.978834251218 119.897221824372,71.4603625850576 M 166.779086084332,287.589439120307 134.103390455791,81.4279145009443 M 168.927062462513,287.296873424938 146.790226028799,92.7876219430131 M 171.085502123643,287.09569227112 157.905432672588,105.150767286033 M 173.250223682434,286.980011943949 167.470113385921,118.131911731651 M 175.417799201812,286.94370180003 175.567180507655,131.369451987356 M 177.58548348883,286.980552785184 182.326440000013,144.540117015398 M 179.75113736129,287.08442268222 187.908757053481,157.367489177893 M 181.913148092459,287.249358476889 192.491164833791,169.625465225573 M 184.070349771245,287.469696489469 196.254105201625,181.137960349967 M 186.221945872632,287.740141154681 199.371368796554,191.776182352581 M 188.367435917926,288.055823543881 202.002825189708,201.454594125772 M 190.506547716475,288.412340910677 204.28972326834,210.12637066329 M 192.639176320035,288.805778704262 206.352175314506,217.778840408193 M 194.765330487801,289.232716633911 208.288376100372,224.429139454508 M 196.885087154348,289.690220483137 210.175112453915,230.120125851325 M 198.99855411429,290.175821463088 212.069160195805,234.916499980513 M 201.105840886456,290.687484961759 214.009225732749,238.901040956228 M 203.207037496643,291.223570588578 216.018158579352,242.170877377643 M 205.302200721731,291.782785432856 218.105232824847,244.83374286124 M 207.391347168968,292.364132449511 220.268365819485,247.004205950677 M 209.474452422626,292.966855856314 222.496206927051,248.799899424122 M 211.551455376036,293.590385373767 224.770083618319,250.337800618049 M 213.622266780113,294.234281061479 227.06583227585,251.73063151402 M 215.686780980016,294.898180403692 229.355563750202,253.08345681819 M 217.744889779414,295.581749171303 231.609417692453,254.490562510295 M 219.796497367102,296.284637438425 233.797345985194,256.032698020934 M 221.841535263284,297.006441958154 235.89093748475,257.774762772177 M 223.879976292794,297.746675904845 237.865258976293,259.764011867812 M 225.911846669876,298.504746768732 239.700647168591,262.028845799832 M 227.937235383804,299.27994294329 241.384350458908,264.578235612328 M 229.956300206702,300.071429276224 242.911893109539,267.401819995285 M 231.969269804326,300.878251561411 244.288022789295,270.470697664676 M 233.976441617367,301.699349631569 245.527107268496,273.738931170813 M 235.978175394968,302.533578369794 246.652867032465,277.145780375717 M 237.974882503667,303.379735592455 247.697364962144,280.618696638449 M 239.967011403871,304.236595366254 248.699217329313,284.077130629749 M 241.955029982171,305.102944908525 249.701035947507,287.437232919761 M 243.939405751458,305.977622782081 250.746152004302,290.6175501136 M 245.920585281734,306.859555634124 251.874699650062,293.5458331357 M 247.898974602881,307.747790242892 253.119143546345,296.167073204412 M 249.874922726321,308.641517125837 254.499312689778,298.452864337456 M 251.848710865586,309.540081429216 256.01695135126,300.412163636797 M 253.82055039624,310.442976261052 257.649725578299,302.103492065416 M 255.790593083396,311.349813047384 259.344556330147,303.648602550132 M 257.758957620211,312.260262885771 261.010139496742,305.247654694457 M 259.725777063294,313.173962239884 262.508645337448,307.19599378708 M 261.691272320824,314.090375664981 263.64699790227,309.902756617204 M 263.655857446454,315.008607575893 264.169013478216,313.911735385866 M 265.62027409411,315.927170282729 263.751302537018,319.925216726717 M 267.5853857726,316.844361014229 265.192690749493,321.978134927731 M 269.5516671947,317.759174553862 266.751863816663,323.78734007821 M 271.519299306368,318.671133833912 268.181066719227,325.888360823701 M 273.488512038133,319.579677276739 269.516357143628,328.210181913819 M 275.459590525789,320.484141263506 270.788265503502,330.694057729607 M 277.432857448068,321.383785991298 272.022401549979,333.291994006067 M 279.408658592702,322.277816646224 273.23998809515,335.965345675662 M 281.387351215528,323.1654004806 274.458355422719,338.683530055233 M 283.369294794612,324.045680335811 275.691412884909,341.422853413855 M 285.354843817143,324.917785107739 276.950103468672,344.165447583571 M 287.344342271102,325.780837608769 278.242840891611,346.898312017384 M 289.338119546448,326.633960239288 279.575925629388,349.612455748476 M 291.336487481731,327.476278842352 280.953935117634,352.302133130522 M 293.339738321751,328.306925077735 282.380083444409,354.964167021723 M 295.348143379959,329.125037615939 283.856546616931,357.597353144762 M 297.361952225959,329.929762418922 285.384750587121,360.201939622124 M 299.381392243519,330.720252342299 286.965620421567,362.77917606409 M 301.406668428038,331.495666263556 288.599790162218,365.330927002853 M 303.437963314455,332.255167912465 290.287773967316,367.859344866718 M 305.47543694707,332.997924553272 292.030100013071,370.366598038259 M 307.519226821682,333.723105643528 293.827409367275,372.85464982011 M 309.569447747921,334.429881571439 295.680522623827,375.325084333944 M 311.626191595509,335.117422552518 297.590477526553,377.778975502384 M 313.68952690258,335.784897746979 299.558541128643,380.216795315027 M 315.759498337026,336.431474641825 301.586200245253,382.638357566111 M 317.836126013131,337.056318725881 303.675134072961,385.042793181805 M 319.919404675574,337.658593472152 305.827172877662,387.428553139907 M 322.009302771081,338.237460629818 308.044246594626,389.793434835459 M 324.105761434783,338.792080817922 310.32832703995,392.134627575609 M 326.208693423492,339.321614404381 312.681367197995,394.448772711475 M 328.317982031785,339.82522264731 315.105240720928,396.732033751792 M 330.43348002892,340.302069070843 317.601684351338,398.980171673525 M 332.555008655224,340.751321044651 320.172245457397,401.188620571455 M 334.682356715628,341.17215153513 322.818236256878,403.352558797084 M 336.815279805629,341.563740996916 325.540695612033,405.466970852584 M 338.953499700925,341.925279375772 328.340358518705,407.52669555351 M 341.09670393648,342.255968198183 331.217632613865,409.526456378025 M 343.244545593727,342.555022729036 334.172580216382,411.460870501212 M 345.396643306047,342.821674186665 337.204903632804,413.324433786499 M 347.552581482561,343.055172014211 340.313930745098,415.111479982721 M 349.711910738633,343.254786217772 343.49859729717,416.816113557405 M 351.874148508327,343.419809795127 346.757421861232,418.432116977913 M 354.038779799377,343.549561293956 350.088469245578,419.952834812999 M 356.205258034996,343.643387555419 353.489298154296,421.371038732967 M 358.373005909109,343.700666717721 356.95688927695,422.678779280286 M 360.541416162313,343.720811574856 360.487550715967,423.867232079086 M 362.709852165061,343.703273408114 364.076798782706,424.926547830073 M 364.877648172234,343.647546432136 367.719213719193,425.845716830543 M 367.04410908937,343.553173023299 371.408271805946,426.612459648963 M 369.208509755266,343.419742317256 375.142671449692,427.304044966401 M 371.370096080285,343.24678950643 378.984756841973,428.546513335143 M 373.528086239583,343.033745582818 382.879555328039,429.484908367411 M 375.681670742732,342.780066493583 386.816229663242,430.166241562213 M 377.830015321182,342.485308409709 390.786593486104,430.628676589337 M 379.972265192404,342.149111949803 394.784491495292,430.902623096542 M 382.107548275724,341.771187675296 398.805237691789,431.011756973844 M 384.234977575236,341.351304746124 402.84512400769,430.973969706309 M 386.353652969234,340.889282297308 406.901003947804,430.80224672637 M 388.462662610801,340.384983131492 410.969950751821,430.505474854304 M 390.561084111414,339.838309355963 415.048986381211,430.089179387924 M 392.647985648937,339.249199624953 419.134875786654,429.556191993641 M 394.722427112856,338.617627679075 423.223979993902,428.907251146007 M 396.783461373413,337.943601903651 427.312161243176,428.141537395866 M 398.830135737075,337.227165656339 431.39473350144,427.257146186859 M 400.861493628835,336.468398141975 435.466451977565,426.251501276149 M 402.876576521946,335.667415638838 439.521535697405,425.12171204958 M 404.874426117987,334.824372905627 443.553717666049,423.864878161534 M 406.854086764586,333.939464622366 447.556317610197,422.478344984653 M 408.814608084698,333.012926741132 451.522332724677,420.959913334334 M 410.755047780031,332.04503764404 455.444542224386,419.308006847274 M 412.674474562089,331.036119026224 459.315621814779,417.521800252671 M 414.571971157275,329.986536440676 463.128264433393,415.601311590056 M 416.446637327666,328.89669945973 466.875303778038,413.547461211452 M 418.297592846296,327.767061424736 470.549837223586,411.362100171054 M 420.12398036529,326.598118770962 474.14534474031,409.048010367559 M 421.924968116663,325.390409929152 477.65580036728,406.60887857746 M 423.699752389391,324.144513818288 481.075772671498,404.049246316932 M 425.447559732143,322.861047956072 484.400510447107,401.374437308873 M 427.167648839105,321.540666224391 487.626009691142,398.590464222207 M 428.859312086429,320.184056336601 490.749057646221,395.703916301837 M 430.521876699136,318.791937061844 493.767249440425,392.721829526384 M 432.154705542709,317.365055268759 496.67897259413,389.651541020674 M 433.757197550184,315.904182856957 499.483354415391,386.500529611951 M 435.328787814242,314.410113649396 502.180167080542,383.276244652105 M 436.868947394661,312.883660322399 504.769685003942,379.985925530239 M 438.377182914459,311.325651452421 507.252488947571,376.63641466713 M 439.853036043216,309.73692875992 509.629211214075,373.233967210738 M 441.296082993309,308.118344630645 511.900216213403,369.784061132973 M 442.705934184227,306.470759993491 514.065210703644,366.291211951132 M 444.082234261684,304.795042631682 516.122778096895,362.758796842756 M 445.424662691957,303.092066000461 518.069831413888,359.18889345485 M 446.732935187698,301.362708619695 519.900979798781,355.582139167071 M 448.006806259485,299.607854103819 521.607804008213,351.937616854619 M 449.24607322747,297.828391884418 523.178037012831,348.252773155195 M 450.450582069788,296.025218672337 524.594646840241,344.52337464243 M 451.620235528764,294.199240696691 525.834820080382,340.743505809055 M 452.755003942543,292.351376747384 526.86884607796,336.905609897093 M 453.854939318451,290.482562035819 527.658903725106,333.000568746882 M 454.920193215222,288.593752875306 528.157754874106,329.017810146491 M 455.951014061578,286.685920100598 528.673032646444,325.137534186904 M 456.947581767685,284.75996522344 529.723432086846,321.600635711417 M 457.909943542828,282.816692443887 530.520468191461,317.982624213197 M 458.838173113583,280.856889425052 531.096971371966,314.314423439409 M 459.732433756257,278.881356420686 531.481644628543,310.620843321195 M 460.592963967829,276.890897168713 531.699252422772,306.921487755912 M 461.420065215597,274.886311306599 531.770859335042,303.231592993101 M 462.214091840782,272.868388269005 531.71411329322,299.562787424485 M 462.97544283248,270.837902459695 531.543563362045,295.923767534975 M 463.704555211864,268.795609509113 531.271000255536,292.320888524329 M 464.401898789121,266.742243447535 530.905807622355,288.758671223011 M 465.067972077271,264.678514641397 530.455313092711,285.240229318898 M 465.70329916776,262.605108357115 529.925129583885,281.767622608253 M 466.308427392504,260.522683832609 529.319479109919,278.342143068307 M 466.883925615968,258.431873751733 528.641493116577,274.964541128562 M 467.430383018794,256.333284030905 527.893485038931,271.635199704365 M 467.948408251524,254.227493840468 527.077192288828,268.354263449905 M 468.438628853069,252.11505579563 526.193986194992,265.121730372534 M 468.901690843737,249.99649626329 525.245049534384,261.937512492768 M 469.338258416883,247.872315741622 524.23152221743,258.801471685007 M 469.749013666545,245.742989278957 523.154616434842,255.713436230421 M 470.134656300851,243.608966907314 522.015703155417,252.67320298292 M 470.495903302406,241.470674073821 520.816372297619,249.680529412033 M 470.833488507426,239.32851206031 519.558469197872,246.735119158246 M 471.148162084993,237.182858387485 518.244110180195,243.836604128965 M 471.440689906476,235.034067205347 516.875680109738,240.98452558673 M 471.711852802914,232.882469675894 515.455814802581,238.178316143591 M 471.962445715003,230.728374357624 513.987371081814,235.41728408314 M 472.193276746197,228.57206760395 512.473387132099,232.700600989464 M 472.405166134435,226.413813989369 510.91703562883,230.027293273332 M 472.598945162025,224.253856778024 509.321571920291,227.396237851651 M 472.775455026354,222.092418449277 507.690279338115,224.806161956408 M 472.935545696254,219.92970129394 506.026413517635,222.255646822012 M 473.080074780164,217.765888093001 504.33314743832,219.743134822214 M 473.209906432502,215.601142887964 502.61351875633,217.266939495488 M 473.325910324125,213.435611848318 500.870380904726,214.825257806452 M 473.428960701198,211.269424237187 499.106359388215,212.416183935927 M 473.519935554368,209.102693470819 497.323814702664,210.037723869222 M 473.599715916754,206.935518261342 495.524813367226,207.68781005751 M 473.669185304964,204.767983825067 493.711108670153,205.364315457925 M 473.729229312136,202.600163130598 491.884132898653,203.065066312809 M 473.780735355816,200.432118152092 490.045003049237,200.787853107155 M 473.824592576439,198.263901083239 488.194542298649,198.530439247355 M 473.86169187414,196.095555456835 486.333319858385,196.29056713719 M 473.892926062694,193.927117103266 484.461712239537,194.065961493899 M 473.919190109536,191.758614868772 482.579989420335,191.85432995567 M 473.941381419989,189.590071001026 480.688429934559,189.653361291654 M 473.960400112146,187.421501095349 478.787469477326,187.460721848416 M 473.977149216162,185.252913479769 476.877888237169,185.274051266008 M 473.992534718194,183.084307901152 474.961042773588,183.090958986507 " />
</svg>