<?xml version="1.0" encoding="utf-8"?>
<svg viewBox="0 0 768 768" version="1.1" xmlns="http://www.w3.org/2000/svg">
  <path d="M 200 400 C 198.362961957821 400.312969769388 196.733675869161 400.666512798452 195.114144829908 401.06019432846 C 193.494613790655 401.453875858469 191.884838100712 401.887695816468 190.286795648676 402.361121115235 C 188.68875319664 402.834546414002 187.102444284782 403.347576965615 185.52981707686 403.899582560483 C 183.957189868938 404.451588155351 182.398244668306 405.042568690178 180.854895370462 405.671798266768 C 179.311546072618 406.301027843358 177.783792980704 406.968506342719 176.273511172012 407.673413844956 C 174.76322936332 408.378321347192 173.270419139484 409.120657717379 171.796912222522 409.899510918116 C 170.32340530556 410.678364118854 168.869201994306 411.493733999137 167.436086150748 412.344618548434 C 166.002970307191 413.195503097731 164.590942226074 414.08190214889 163.201733456278 415.002726104388 C 161.812524686483 415.923550059886 160.446135517384 416.878798736446 159.104240802629 417.8672975778 C 157.762346087875 418.855796419155 156.444946110204 419.877545226003 155.153654735963 420.931287352806 C 153.862363361723 421.985029479609 152.597180865765 423.07076471122 151.359655944015 424.187157421405 C 150.122131022264 425.30355013159 148.912263940456 426.450600089617 147.731534168528 427.626896032931 C 146.550804396601 428.803191976246 145.399212189965 430.008733658869 144.278163882847 431.242037757615 C 143.157115575729 432.475341856361 142.066611412036 433.736408110418 141.007980844281 435.023684937335 C 139.949350276526 436.310961764252 138.922593535967 437.624448888872 137.928959628564 438.962530489734 C 136.93532572116 440.300612090595 135.974814864412 441.663287878762 135.04859225099 443.048882025014 C 134.122369637569 444.434476171266 133.230435470142 445.842988373523 132.373867975837 447.27268722806 C 131.517300481532 448.702386082597 130.696099847156 450.153271274898 129.911254412265 451.62356045191 C 129.126408977374 453.093849628923 128.377918911932 454.583542464471 127.666679991211 456.090810462149 C 126.95544107049 457.598078459827 126.281453446682 459.122921282645 125.645517913718 460.663469265434 C 125.009582380755 462.204017248223 124.411699072178 463.760270044091 123.852571656745 465.330321949127 C 123.293444241312 466.900373854164 122.773072833098 468.484224512555 122.292062117774 470.079937452903 C 121.81105140245 471.675650393251 121.36940147387 473.283225251865 120.967616474442 474.900700187178 C 120.565831475014 476.518175122491 120.20391147768 478.145549764043 119.882258829992 479.780842407353 C 119.560606182303 481.416135050662 119.27922093567 483.059345319666 119.038402709593 484.708477247082 C 118.797584483517 486.357609174498 118.597333307328 488.012662379888 118.437845466446 489.671632308143 C 118.278357625565 491.330602236397 118.159633126774 492.993488503996 118.081764650152 494.658283698943 C 118.00389617353 496.32307889389 117.966883702925 497.989782630931 117.970716383024 499.65639040832 C 117.974549063122 501.322998185709 118.019226854534 502.989509617859 118.10463578289 504.653928895962 C 118.190044711246 506.318348174065 118.316184713704 507.980674913663 118.482839463445 509.638927775639 C 118.649494213187 511.297180637616 118.856663623795 512.951359240156 119.104030135396 514.59950246236 C 119.351396646997 516.247645684563 119.638960149575 517.889753148824 119.966303323479 519.523889649638 C 120.293646497383 521.158026150453 120.660769209074 522.784191316043 121.06715620592 524.400481478248 C 121.473543202766 526.016771640454 121.919194327883 527.623186434995 122.403498574059 529.217859253118 C 122.887802820235 530.812532071241 123.41076000753 532.395462557881 123.971665900668 533.964826560469 C 124.532571793806 535.534190563058 125.131426190188 537.089987737509 125.767434495961 538.630441632815 C 126.403442801735 540.17089552812 127.076604792158 541.696005812984 127.786038720415 543.204048805094 C 128.495472648673 544.712091797205 129.241178268511 546.203067179915 130.022190213292 547.675308901006 C 130.803202158073 549.147550622098 131.61952016079 550.60105838147 132.470099085217 552.034228384473 C 133.320678009645 553.467398387476 134.205517568907 554.880230352499 135.123497012237 556.271187107194 C 136.041476455567 557.662143861888 136.992595477231 559.031225145117 137.975662157541 560.376964479373 C 138.958728837852 561.722703813628 139.973742853368 563.04510096027 141.01944583546 564.342763886932 C 142.065148817552 565.640426813594 143.141540426359 566.913355306195 144.247300820388 568.160235174922 C 145.353061214418 569.407115043649 146.488190038817 570.627946101079 147.651311191043 571.821495013277 C 148.81443234327 573.015043925475 150.005545455054 574.18131053381 151.223223587823 575.319144957705 C 152.440901720592 576.4569793816 153.685144494383 577.566381493386 154.954479748083 578.646287015198 C 156.223815001782 579.726192537009 157.518242345612 580.776601374341 158.836250170856 581.796536520481 C 160.154257996099 582.816471666621 161.4958459052 583.805933062463 162.859468748878 584.764032126697 C 164.223091592557 585.72213119093 165.608748840752 586.648867562943 167.014862195476 587.543441304172 C 168.420975550201 588.438015045402 169.847544688399 589.300426159484 171.292970587919 590.129967917067 C 172.738396487439 590.95950967465 174.202678807637 591.756182095798 175.684202785405 592.519371484012 C 177.165726763172 593.282560872227 178.664492045708 594.01226726527 180.178873334779 594.707969566862 C 181.693254623849 595.403671868454 183.22325155945 596.065370135 184.767233658803 596.692635164951 C 186.311215758155 597.319900194901 187.86918265855 597.912732063945 189.439504117116 598.470792475023 C 191.009825575682 599.028852886101 192.592501231062 599.552141934541 194.185906514488 600.040410945355 C 195.779311797914 600.52867995617 197.383446353014 600.981929044409 198.996696671398 601.399997579285 C 200.609946989782 601.818066114161 202.232312723293 602.200954230279 203.86219671079 602.548587468358 C 205.492080698288 602.896220706438 207.129482602677 603.20859922024 208.772826752 603.485732558751 C 210.416170901323 603.762865897261 212.065456972023 604.004754232781 213.719135738431 604.211488676413 C 215.372814504839 604.418223120044 217.030885659061 604.589803861815 218.691831159485 604.726400856621 C 220.352776659909 604.862997851427 222.016596216099 604.964611306028 223.681807459545 605.031487042188 C 225.34701870299 605.098362778349 227.013621362195 605.130501018406 228.680172957521 605.128220231594 C 230.346724552847 605.125939444782 232.013224832921 605.089239867716 233.678275129508 605.018509173661 C 235.343325426096 604.947778479605 237.006925508853 604.843016918026 238.667724134562 604.704677719186 C 240.328522760271 604.566338520347 241.986519720265 604.394421945032 243.640414489406 604.189442952099 C 245.294309258546 603.984463959166 246.94410165025 603.746422819092 248.588544822091 603.475892233251 C 250.232987993933 603.20536164741 251.872081781594 602.902341894277 253.504635657187 602.567459298921 C 255.13718953278 602.232576703565 256.763203354229 601.865831550706 258.381545206035 601.467899563427 C 259.999887057841 601.069967576148 261.610556819955 600.640849043626 263.212483154934 600.18126478098 C 264.814409489913 599.721680518333 266.407592299354 599.231630817389 267.991022461813 598.71187722602 C 269.574452624273 598.19212363465 271.148130062462 597.642666445524 272.711109188041 597.064303553812 C 274.274088313619 596.4859406621 275.826369069745 595.878672359521 277.367070406462 595.243328503943 C 278.907771743178 594.607984648365 280.436893623308 593.944565528799 281.953620239615 593.25392860869 C 283.470346855923 592.56329168858 284.974678190016 591.845437252525 286.465864093264 591.101246065886 C 287.957049996511 590.357054879248 289.435090468346 589.586527220578 290.899301159978 588.790562932017 C 292.36351185161 587.994598643455 293.813892779276 587.173197995962 295.249825275483 586.327275785702 C 296.685757771689 585.481353575441 298.107241868415 584.610910064341 299.513724216798 583.716871004633 C 300.920206565181 582.822831944925 302.31168721185 581.905197588187 303.687677535956 580.964900790238 C 305.063667860061 580.024603992288 306.424167921786 579.061644993183 307.768753026139 578.076960064005 C 309.113338130491 577.092275134827 310.442008350122 576.085864503098 311.754401918597 575.05866434744 C 313.066795487071 574.031464191781 314.36291248845 572.983474726342 315.642452908508 571.915628724034 C 316.921993328566 570.847782721726 318.184957261764 569.760080382687 319.431105106223 568.65344796645 C 320.677252950682 567.546815550214 321.906584810316 566.421253242478 323.118920006903 565.277677895336 C 324.33125520349 564.134102548195 325.526593849534 562.972514332709 326.704812566553 561.793818017769 C 327.883031283572 560.615121702828 329.044130191896 559.419317444912 330.188041465837 558.207295473327 C 331.331952739777 556.995273501743 332.458676506848 555.767033958707 333.568198634749 554.523450294174 C 334.677720762649 553.279866629642 335.770041385571 552.020938972172 336.845198101383 550.747521962284 C 337.920354817194 549.474104952395 338.978347766411 548.186198705896 340.019264216493 546.884637222138 C 341.060180666574 545.58307573838 342.084020764183 544.267859121651 343.090919292428 542.939799080753 C 344.097817820672 541.611739039855 345.087774932374 540.270835669123 346.06097068026 538.917876898836 C 347.034166428145 537.56491812855 347.990600971415 536.199904045012 348.930497292554 534.823597447245 C 349.870393613693 533.447290849478 350.793751878731 532.059691818051 351.700835561223 530.661536771597 C 352.607919243714 529.263381725142 353.498728517211 527.854670741186 354.37356480028 526.436112675049 C 355.248401083349 525.017554608912 356.107264558019 523.589149538176 356.950491922085 522.151577594739 C 357.793719286151 520.714005651303 358.621310731356 519.267266916331 359.433635432769 517.812011611307 C 360.245960134183 516.356756306283 361.0430182948 514.892984519929 361.825208608061 513.421315293192 C 362.607398921323 511.949646066456 363.374720941335 510.470078868285 364.127603230626 508.98320227473 C 364.880485519918 507.496325681176 365.618928306043 506.002139760136 366.343391061566 504.501206787337 C 367.067853817089 503.000273814538 367.778336742227 501.492593829234 368.475327014691 499.978702006766 C 369.172317287154 498.464810184298 369.855815083201 496.944706538827 370.526332465235 495.418898747967 C 371.19684984727 493.893090957107 371.854386970674 492.361579013169 372.499478298082 490.824843050481 C 373.144569625491 489.288107087794 373.777215294212 487.746147079761 374.397969974499 486.199415877269 C 375.018724654786 484.652684674777 375.627588468408 483.101182234986 376.225134352466 481.545334648529 C 376.822680236524 479.989487062071 377.40890829953 478.429294272262 377.984408020397 476.865156358095 C 378.559907741265 475.301018443928 379.124679217288 473.732935337014 379.6793269275 472.161282044724 C 380.233974637711 470.589628752433 380.778498670002 469.014405196577 381.313517116267 467.435962413975 C 381.848535562531 465.857519631372 382.374048502859 464.275857535715 382.890686383585 462.691304428536 C 383.40732426431 461.106751321357 383.915087159124 459.519307109697 384.414616716696 457.929278705637 C 384.914146274268 456.339250301577 385.405442563108 454.746637606785 385.889157368796 453.151727579714 C 386.372872174483 451.556817552643 386.849005561393 449.959610090681 387.318218456312 448.360373706706 C 387.787431351232 446.761137322731 388.249723815287 445.159871910781 388.705764976002 443.556829103274 C 389.161806136716 441.953786295767 389.611596052712 440.348965984167 390.055811154781 438.742604529838 C 390.500026256849 437.136243075509 390.938666601723 435.528340367982 391.372415058833 433.91911914065 C 391.806163515942 432.309897913318 392.235020140626 430.699358054295 392.659673400851 429.087710337115 C 393.084326661076 427.476062619934 393.504776611181 425.863306931701 393.92171649542 424.249643772298 C 394.338656379659 422.635980612895 394.752086251675 421.021409868731 395.16270332239 419.406123464946 C 395.573320393105 417.790837061161 395.981124715698 416.174834883704 396.386816666776 414.558301990469 C 396.792508617854 412.941769097233 397.196088250298 411.324705373879 397.598258311095 409.707290724128 C 398.000428371893 408.089876074378 398.401188913746 406.472110383717 398.801244262252 404.854170118192 C 399.201299610757 403.236229852667 399.600649818523 401.618114897677 400 400 C 400.399350181476 398.381885102323 400.798700389243 396.763770147333 401.198755737748 395.145829881808 C 401.598811086254 393.527889616283 401.999571628107 391.910123925623 402.401741688904 390.292709275872 C 402.803911749702 388.675294626121 403.207491382146 387.058230902767 403.613183333224 385.441698009532 C 404.018875284302 383.825165116296 404.426679606895 382.209162938839 404.83729667761 380.593876535054 C 405.247913748325 378.978590131269 405.661343620341 377.364019387105 406.07828350458 375.750356227702 C 406.495223388819 374.136693068299 406.915673338924 372.523937380066 407.340326599149 370.912289662885 C 407.764979859374 369.300641945705 408.193836484058 367.690102086682 408.627584941167 366.08088085935 C 409.061333398277 364.471659632019 409.49997374315 362.863756924491 409.944188845219 361.257395470162 C 410.388403947288 359.651034015833 410.838193863284 358.046213704233 411.294235023998 356.443170896726 C 411.750276184713 354.840128089219 412.212568648768 353.238862677269 412.681781543688 351.639626293294 C 413.150994438607 350.040389909319 413.627127825517 348.443182447357 414.110842631204 346.848272420286 C 414.594557436892 345.253362393215 415.085853725732 343.660749698423 415.585383283304 342.070721294363 C 416.084912840876 340.480692890303 416.59267573569 338.893248678643 417.109313616415 337.308695571464 C 417.625951497141 335.724142464285 418.151464437469 334.142480368628 418.686482883733 332.564037586026 C 419.221501329998 330.985594803423 419.766025362289 329.410371247567 420.3206730725 327.838717955276 C 420.875320782712 326.267064662986 421.440092258736 324.698981556072 422.015591979603 323.134843641905 C 422.59109170047 321.570705727738 423.177319763476 320.010512937929 423.774865647534 318.454665351472 C 424.372411531592 316.898817765014 424.981275345214 315.347315325224 425.602030025501 313.800584122731 C 426.222784705788 312.253852920239 426.855430374509 310.711892912206 427.500521701918 309.175156949519 C 428.145613029326 307.638420986831 428.80315015273 306.106909042893 429.473667534765 304.581101252033 C 430.144184916799 303.055293461173 430.827682712846 301.535189815702 431.524672985309 300.021297993234 C 432.221663257773 298.507406170766 432.932146182911 296.999726185462 433.656608938434 295.498793212663 C 434.381071693957 293.997860239864 435.119514480082 292.503674318825 435.872396769374 291.01679772527 C 436.625279058665 289.529921131715 437.392601078678 288.050353933544 438.174791391939 286.578684706808 C 438.9569817052 285.107015480071 439.754039865817 283.643243693717 440.566364567231 282.187988388693 C 441.378689268644 280.732733083669 442.206280713849 279.285994348697 443.049508077915 277.848422405261 C 443.892735441981 276.410850461824 444.751598916651 274.982445391088 445.62643519972 273.563887324951 C 446.501271482789 272.145329258814 447.392080756286 270.736618274858 448.299164438777 269.338463228403 C 449.206248121269 267.940308181949 450.129606386307 266.552709150522 451.069502707446 265.176402552755 C 452.009399028585 263.800095954988 452.965833571855 262.43508187145 453.93902931974 261.082123101164 C 454.912225067626 259.729164330878 455.902182179328 258.388260960145 456.909080707572 257.060200919247 C 457.915979235817 255.732140878349 458.939819333426 254.41692426162 459.980735783507 253.115362777862 C 461.021652233589 251.813801294103 462.079645182806 250.525895047605 463.154801898617 249.252478037716 C 464.229958614428 247.979061027828 465.322279237351 246.720133370358 466.431801365251 245.476549705826 C 467.541323493152 244.232966041293 468.668047260223 243.004726498257 469.811958534163 241.792704526673 C 470.955869808104 240.580682555088 472.116968716428 239.384878297172 473.295187433447 238.206181982231 C 474.473406150466 237.027485667291 475.668744796511 235.865897451805 476.881079993098 234.722322104664 C 478.093415189685 233.578746757522 479.322747049318 232.453184449786 480.568894893777 231.34655203355 C 481.815042738236 230.239919617314 483.078006671434 229.152217278274 484.357547091492 228.084371275966 C 485.637087511551 227.016525273658 486.933204512929 225.968535808219 488.245598081403 224.94133565256 C 489.557991649878 223.914135496902 490.886661869509 222.907724865173 492.231246973861 221.923039935995 C 493.575832078214 220.938355006818 494.936332139939 219.975396007712 496.312322464045 219.035099209762 C 497.68831278815 218.094802411813 499.079793434819 217.177168055075 500.486275783202 216.283128995367 C 501.892758131585 215.389089935659 503.314242228311 214.518646424558 504.750174724517 213.672724214298 C 506.186107220724 212.826802004038 507.63648814839 212.005401356544 509.100698840022 211.209437067983 C 510.564909531654 210.413472779422 512.042950003489 209.642945120751 513.534135906736 208.898753934113 C 515.025321809984 208.154562747475 516.529653144077 207.436708311419 518.046379760384 206.74607139131 C 519.563106376692 206.055434471201 521.092228256822 205.392015351634 522.632929593538 204.756671496057 C 524.173630930254 204.121327640479 525.72591168638 203.5140593379 527.288890811959 202.935696446188 C 528.851869937537 202.357333554476 530.425547375727 201.807876365349 532.008977538186 201.28812277398 C 533.592407700646 200.76836918261 535.185590510087 200.278319481667 536.787516845066 199.81873521902 C 538.389443180045 199.359150956374 540.000112942159 198.930032423852 541.618454793965 198.532100436573 C 543.236796645771 198.134168449293 544.862810467219 197.767423296435 546.495364342813 197.432540701079 C 548.127918218406 197.097658105723 549.767012006067 196.79463835259 551.411455177908 196.524107766749 C 553.055898349749 196.253577180908 554.705690741453 196.015536040834 556.359585510594 195.810557047901 C 558.013480279734 195.605578054967 559.671477239729 195.433661479652 561.332275865438 195.295322280813 C 562.993074491146 195.156983081974 564.656674573904 195.052221520395 566.321724870491 194.981490826339 C 567.986775167079 194.910760132283 569.653275447153 194.874060555217 571.319827042479 194.871779768405 C 572.986378637805 194.869498981594 574.65298129701 194.901637221651 576.318192540455 194.968512957811 C 577.983403783901 195.035388693972 579.647223340092 195.137002148573 581.308168840515 195.273599143379 C 582.969114340939 195.410196138185 584.627185495161 195.581776879955 586.280864261569 195.788511323587 C 587.934543027977 195.995245767219 589.583829098677 196.237134102738 591.227173248 196.514267441249 C 592.870517397323 196.791400779759 594.507919301712 197.103779293561 596.137803289209 197.451412531641 C 597.767687276707 197.799045769721 599.390053010218 198.181933885839 601.003303328602 198.600002420715 C 602.616553646985 199.018070955591 604.220688202086 199.47132004383 605.814093485512 199.959589054645 C 607.407498768938 200.447858065459 608.990174424317 200.971147113899 610.560495882883 201.529207524977 C 612.130817341449 202.087267936055 613.688784241844 202.680099805098 615.232766341197 203.307364835049 C 616.776748440549 203.934629864999 618.306745376151 204.596328131546 619.821126665221 205.292030433138 C 621.335507954291 205.98773273473 622.834273236827 206.717439127773 624.315797214595 207.480628515987 C 625.797321192362 208.243817904202 627.261603512561 209.04049032535 628.707029412081 209.870032082933 C 630.152455311601 210.699573840516 631.579024449799 211.561984954598 632.985137804523 212.456558695827 C 634.391251159248 213.351132437057 635.776908407443 214.277868809069 637.140531251121 215.235967873303 C 638.5041540948 216.194066937537 639.8457420039 217.183528333379 641.163749829144 218.203463479519 C 642.481757654387 219.223398625659 643.776184998218 220.273807462991 645.045520251917 221.353712984802 C 646.314855505617 222.433618506614 647.559098279408 223.5430206184 648.776776412177 224.680855042295 C 649.994454544946 225.81868946619 651.185567656729 226.984956074525 652.348688808956 228.178504986723 C 653.511809961183 229.372053898921 654.646938785582 230.59288495635 655.752699179611 231.839764825077 C 656.858459573641 233.086644693804 657.934851182448 234.359573186405 658.98055416454 235.657236113067 C 660.026257146632 236.95489903973 661.041271162148 238.277296186372 662.024337842459 239.623035520627 C 663.007404522769 240.968774854883 663.958523544433 242.337856138111 664.876502987763 243.728812892806 C 665.794482431092 245.119769647501 666.679321990354 246.532601612524 667.529900914782 247.965771615527 C 668.38047983921 249.39894161853 669.196797841927 250.852449377902 669.977809786708 252.324691098993 C 670.758821731489 253.796932820085 671.504527351327 255.287908202795 672.213961279584 256.795951194906 C 672.923395207842 258.303994187016 673.596557198264 259.82910447188 674.232565504038 261.369558367185 C 674.868573809812 262.91001226249 675.467428206194 264.465809436942 676.028334099332 266.03517343953 C 676.58923999247 267.604537442119 677.112197179765 269.187467928759 677.596501425941 270.782140746882 C 678.080805672117 272.376813565005 678.526456797234 273.983228359546 678.93284379408 275.599518521752 C 679.339230790926 277.215808683957 679.706353502616 278.841973849547 680.033696676521 280.476110350361 C 680.361039850425 282.110246851175 680.648603353002 283.752354315437 680.895969864603 285.40049753764 C 681.143336376204 287.048640759843 681.350505786813 288.702819362384 681.517160536555 290.361072224361 C 681.683815286296 292.019325086337 681.809955288754 293.681651825935 681.89536421711 295.346071104038 C 681.980773145466 297.010490382141 682.025450936877 298.677001814291 682.029283616976 300.34360959168 C 682.033116297075 302.010217369068 681.996103826469 303.67692110611 681.918235349848 305.341716301057 C 681.840366873226 307.006511496004 681.721642374435 308.669397763603 681.562154533553 310.328367691858 C 681.402666692672 311.987337620112 681.202415516483 313.642390825502 680.961597290407 315.291522752918 C 680.72077906433 316.940654680333 680.439393817697 318.583864949337 680.117741170008 320.219157592647 C 679.79608852232 321.854450235957 679.434168524986 323.481824877508 679.032383525558 325.099299812822 C 678.63059852613 326.716774748135 678.18894859755 328.324349606749 677.707937882226 329.920062547097 C 677.226927166902 331.515775487445 676.706555758688 333.099626145836 676.147428343255 334.669678050872 C 675.588300927821 336.239729955909 674.990417619245 337.795982751777 674.354482086282 339.336530734566 C 673.718546553318 340.877078717355 673.04455892951 342.401921540172 672.333320008789 343.90918953785 C 671.622081088068 345.416457535529 670.873591022626 346.906150371077 670.088745587735 348.37643954809 C 669.303900152844 349.846728725102 668.482699518468 351.297613917403 667.626132024163 352.72731277194 C 666.769564529858 354.157011626477 665.877630362431 355.565523828735 664.95140774901 356.951117974986 C 664.025185135588 358.336712121238 663.06467427884 359.699387909405 662.071040371436 361.037469510266 C 661.077406464033 362.375551111128 660.050649723474 363.689038235748 658.992019155719 364.976315062665 C 657.933388587964 366.263591889582 656.842884424271 367.524658143639 655.721836117153 368.757962242385 C 654.600787810035 369.991266341131 653.449195603399 371.196808023754 652.268465831472 372.373103967069 C 651.087736059544 373.549399910383 649.877868977736 374.69644986841 648.640344055985 375.812842578595 C 647.402819134235 376.92923528878 646.137636638277 378.014970520391 644.846345264037 379.068712647194 C 643.555053889796 380.122454773997 642.237653912125 381.144203580845 640.895759197371 382.1327024222 C 639.553864482616 383.121201263554 638.187475313517 384.076449940114 636.798266543722 384.997273895612 C 635.409057773926 385.918097851109 633.997029692809 386.804496902269 632.563913849251 387.655381451566 C 631.130798005694 388.506266000863 629.67659469444 389.321635881146 628.203087777478 390.100489081884 C 626.729580860516 390.879342282621 625.23677063668 391.621678652808 623.726488827988 392.326586155044 C 622.216207019295 393.031493657281 620.688453927382 393.698972156642 619.145104629538 394.328201733232 C 617.601755331694 394.957431309822 616.042810131062 395.548411844649 614.47018292314 396.100417439517 C 612.897555715219 396.652423034385 611.31124680336 397.165453585998 609.713204351324 397.638878884765 C 608.115161899288 398.112304183532 606.505386209345 398.546124141531 604.885855170092 398.93980567154 C 603.266324130839 399.333487201548 601.637038042179 399.687030230612 600 400" fill="none" stroke="rgb(0, 0, 0)" stroke-width="2" />
  <path d="M 197.550506930083 400.499828709324 L 187.04160494689 352.07005458775 M 192.692411590026 401.68075228099 L 179.797452645785 353.831427193447 M 187.898775146323 403.100882719855 L 172.649370883002 355.949172963155 M 183.181376436385 404.756729937724 L 165.614974597398 358.418381388387 M 178.551802320763 406.644225378879 L 158.711638529106 361.233205399844 M 174.021420400134 408.758731321355 L 151.956445183416 364.386887384279 M 169.601351751338 411.095051589715 L 145.366136909741 367.871785681648 M 165.302443799005 413.647443700411 L 138.957071370902 371.67940106035 M 161.135243439146 416.409632453178 L 132.745179666205 375.80040287488 M 157.109970530673 419.374824974251 L 126.745926400538 380.224654804298 M 153.236491869959 422.535727209752 L 120.974271056326 384.941240244247 M 149.524295762464 425.884561860237 L 115.444630120111 389.938487573697 M 145.982467303901 429.413087740128 L 110.170839533809 395.203995635584 M 142.619664481657 433.11262053868 L 105.166117175195 400.724659854976 M 139.444095204946 436.974054952062 L 100.44302521505 406.486699467878 M 136.463495369716 440.987888149327 L 96.0134323422359 412.47568634857 M 133.685108061429 445.144244528202 L 91.8884759853017 418.676575904929 M 131.115663995675 449.432901710042 L 88.078524783531 425.073740462856 M 128.761363292995 453.843317716711 L 84.5931416657517 431.65100548686 M 126.627858680459 458.364659265785 L 81.4410479770498 438.391688889603 M 124.720240208264 462.985831114148 L 78.6300891484233 445.278643575001 M 123.04302156509 467.695506373875 L 76.1672024304244 452.294303244042 M 121.600128071023 472.482157718268 L 74.0583872086584 459.420731376989 M 120.394886421596 477.33408938993 L 72.3086783878948 466.639673196835 M 119.430016250922 482.239469916978 L 70.9221232753623 473.932610323334 M 118.707623575932 487.186365437759 L 69.9017623168529 481.280817750245 M 118.229196177474 492.162773528878 L 69.2496139471175 488.665422724941 M 117.995600967376 497.156657425852 L 68.9666637152411 496.067465082428 M 118.007083383652 502.155980520378 L 69.0528577434114 503.467958586339 M 118.263268848669 507.148741012956 L 69.5071004811374 510.847952857116 M 118.763166317499 512.123006594506 L 70.3272566337082 518.188595520238 M 119.505173935635 517.066949025609 L 71.5101570800604 525.471194280705 M 120.487086816955 521.968878477141 L 73.0516085566683 532.677278718502 M 121.706106944118 526.817277491307 L 74.9464068745914 539.788661696298 M 123.158855184552 531.600834417427 L 77.1883534585718 546.787500367166 M 124.841385405859 536.308476172322 L 79.7702750502297 553.65635685797 M 126.749200664712 540.929400170744 L 82.6840464998989 560.378258774608 M 128.877271433326 545.453105266984 L 85.9206166792288 566.936759720269 M 131.220055817134 549.869421544655 L 89.4700376729405 573.316000029976 M 133.77152170662 554.168538787579 L 93.3214975447843 579.500767898336 M 136.525170795155 558.341033460777 L 97.4633571099241 585.476561008967 M 139.47406438327 562.377894026755 L 101.883191272788 591.229648662215 M 142.610850878036 566.270544418578 L 106.567835594484 596.747134244328 M 145.927794884146 570.010865487645 L 111.503438826144 602.017017690583 M 149.416807770793 573.591214240625 L 116.675522173932 607.028257374441 M 153.069479585716 577.00444067667 L 122.069046039898 611.770830614711 M 156.877112174601 580.243902032797 L 127.668484904758 616.235791744841 M 160.830753350587 583.303474242232 L 133.457910881846 620.415326446393 M 164.921231169229 586.177560168107 L 139.421747884857 624.30178604404 M 169.139173901794 588.861093060177 L 145.544200748268 627.888099158681 M 173.475049701539 591.349553290037 L 151.808584588996 631.169162749964 M 177.919216445248 593.638979625052 L 158.198385592763 634.140420033969 M 182.461953154194 595.725967771682 L 164.696889286033 636.798554013241 M 187.093491674514 597.607666963233 L 171.287340316452 639.141418418504 M 191.804049012423 599.281774874115 L 177.95307103696 641.167964547517 M 196.583859919293 600.746530802659 L 184.677603424582 642.878169468406 M 201.423209361228 602.000707090435 L 191.444729316772 644.272969259169 M 206.312464545762 603.043598770172 L 198.23857395964 645.35419930948 M 211.242106214689 603.875011457059 L 205.043647514292 646.124542297597 M 216.20275894674 604.49524751919 L 211.844888552809 646.587483325674 M 221.185220246986 604.905090582304 L 218.627702789309 646.747270874537 M 226.180488231312 605.105788441806 L 225.377999423693 646.608881722524 M 231.179787744189 605.099034471192 L 232.082226604962 646.177987740917 M 236.174594776247 604.8869476306 L 238.727406712564 645.460922494803 M 241.156659074734 604.472051192194 L 245.301171457424 644.464645796759 M 246.118024865003 603.857250310392 L 251.791796252961 643.196704730151 M 251.051049624511 603.045808574767 L 258.188232918734 641.665190125696 M 255.94842087261 602.041323691531 L 264.480139559771 639.878687987904 M 260.803170959511 600.847702446081 L 270.657906405039 637.846225879988 M 265.608689856349 599.469135103993 L 276.712676470714 635.57721474656 M 270.358735965155 597.910069411177 L 282.636360112155 633.08138705123 M 275.047444982796 596.175184355593 L 288.421642811877 630.368732408648 M 279.669336866629 594.26936385305 L 294.061985886448 627.449432085198 M 284.219320961587 592.197670518072 L 299.551620150407 624.333793826273 M 288.692699358863 589.965319677727 L 304.885532920069 621.032188446407 M 293.085168565097 587.577653781548 L 310.05944904893 617.554989503702 M 297.392819568165 585.040117354377 L 315.069806939603 613.912517189799 M 301.612136391145 582.358232630982 L 319.913730661448 610.114987321649 M 305.739993230016 579.537576001777 L 324.588999411558 606.172466043834 M 309.773650272859 576.583755387775 L 329.094015588811 602.094830561623 M 313.710748299045 573.502388650163 L 333.427772711014 597.89173594517 M 317.549302155916 570.299083125491 L 337.589824302784 593.572587791064 M 321.287693207862 566.979416361487 L 341.580254728977 589.146520311925 M 324.924660848547 563.548918110888 L 345.39965275959 584.622379257304 M 328.45929316113 560.013053621525 L 349.049088442456 580.008708954979 M 331.891016803953 556.377208240009 L 352.53009364541 575.31374270243 M 335.219586190044 552.646673324007 L 355.844646424647 570.545395731995 M 338.445072018098 548.826633434035 L 358.995159194366 565.711260015122 M 341.567849200286 544.92215475005 L 361.984470526084 560.818600254048 M 344.588584218298 540.938174630878 L 364.815840303415 555.874350523938 M 347.508221923442 536.879492205675 L 367.492947906011 550.885111164652 M 350.327971779471 532.750759856118 L 370.019893097785 545.857145667406 M 353.049293527946 528.556475415966 L 372.401199348923 540.796377446225 M 355.673882235555 524.300974880951 L 374.641819423901 535.708386515902 M 358.203652660724 519.988425386655 L 376.747143209715 530.598406206566 M 360.640722853193 515.622818175123 L 378.723007926238 525.471320120234 M 362.987396938485 511.207961144074 L 380.574935450202 520.33125902109 M 365.246154928069 506.747475254882 L 382.301189883568 515.178361592141 M 367.419661629151 502.244813538101 L 383.906575217233 510.016169813305 M 369.510757442431 497.70326843461 L 385.39768602127 504.848584686291 M 371.522440484276 493.12596853455 L 386.780839280136 499.678832182413 M 373.457850678906 488.51587725592 L 388.062095977738 494.50955812634 M 375.320255733468 483.875793494037 L 389.247289593657 489.342909697448 M 377.11303874359 479.208353976635 L 390.342058217391 484.180604442211 M 378.839687201098 474.516037084662 L 391.351877696618 479.023988046137 M 380.503783198413 469.801167922994 L 392.282093885039 473.874082303916 M 382.108994645778 465.065924447975 L 393.137952624876 468.731624789086 M 383.659067337823 460.312344480204 L 393.92462658017 463.597101693432 M 385.157817725143 455.542333451136 L 394.64723842925 458.470775210622 M 386.609126264443 450.757672750927 L 395.310880233133 453.352706701857 M 388.016931237506 445.960028562525 L 395.920629028909 448.242776722261 M 389.385222944665 441.150961083261 L 396.481558862853 443.140702819461 M 390.71803819265 436.331934050157 L 396.998749587092 438.04605585068 M 392.019455009686 431.504324498835 L 397.477292806066 432.958275408778 M 393.293587532406 426.669432698258 L 397.922295384387 427.8766848057 M 394.544581019679 421.828492214606 L 398.338880925028 422.800505936394 M 395.776606957685 416.982680067322 L 398.732189604242 417.728874238511 M 396.993858228635 412.133126948861 L 399.107376714669 412.660853873181 M 398.200544322275 407.280927486783 L 399.469610227303 407.59545317915 M 399.400886574923 402.42715053272 L 399.824067641843 402.531640395386 M 400.599113425077 397.57284946728 L 400.175932358156 397.468359604614 M 401.799455677725 392.719072513217 L 400.530389772696 392.40454682085 M 403.006141771365 387.866873051139 L 400.89262328533 387.339146126819 M 404.223393042315 383.017319932678 L 401.267810395757 382.271125761489 M 405.455418980321 378.171507785394 L 401.661119074971 377.199494063606 M 406.706412467594 373.330567301742 L 402.077704615613 372.1233151943 M 407.980544990314 368.495675501165 L 402.522707193933 367.041724591222 M 409.28196180735 363.668065949843 L 403.001250412908 361.95394414932 M 410.614777055335 358.849038916739 L 403.518441137148 356.85929718054 M 411.983068762494 354.039971437475 L 404.079370971092 351.757223277739 M 413.390873735557 349.242327249073 L 404.689119766868 346.647293298143 M 414.842182274857 344.457666548864 L 405.352761570751 341.529224789378 M 416.340932662177 339.687655519796 L 406.075373419831 336.402898306568 M 417.891005354222 334.934075552026 L 406.862047375125 331.268375210914 M 419.496216801587 330.198832077006 L 407.717906114962 326.125917696085 M 421.160312798902 325.483962915338 L 408.648122303382 320.976011953864 M 422.88696125641 320.791646023365 L 409.65794178261 315.819395557789 M 424.679744266533 316.124206505963 L 410.752710406344 310.657090302552 M 426.542149321094 311.484122744081 L 411.937904022262 305.49044187366 M 428.477559515724 306.87403146545 L 413.219160719864 300.321167817587 M 430.489242557569 302.296731565391 L 414.60231397873 295.151415313709 M 432.580338370849 297.755186461899 L 416.093424782767 289.983830186695 M 434.753845071931 293.252524745118 L 417.698810116432 284.821638407859 M 437.012603061515 288.792038855926 L 419.425064549798 279.66874097891 M 439.359277146807 284.377181824877 L 421.276992073764 274.528679879767 M 441.796347339276 280.011574613345 L 423.252856790287 269.401593793435 M 444.326117764445 275.699025119049 L 425.3581805761 264.291613484098 M 446.950706472054 271.443524584034 L 427.598800651077 259.203622553775 M 449.672028220528 267.249240143882 L 429.980106902214 254.142854332593 M 452.491778076558 263.120507794325 L 432.507052093986 249.114888835346 M 455.411415781702 259.061825369122 L 435.184159696582 244.12564947606 M 458.432150799714 255.07784524995 L 438.015529473914 239.18139974595 M 461.554927981902 251.173366565965 L 441.004840805631 234.288739984876 M 464.780413809956 247.353326675993 L 444.155353575352 229.454604268004 M 468.108983196047 243.622791759992 L 447.46990635459 224.68625729757 M 471.54070683887 239.986946378475 L 450.950911557545 219.991291045022 M 475.075339151453 236.451081889112 L 454.600347240411 215.377620742698 M 478.712306792138 233.020583638514 L 458.419745271025 210.853479688078 M 482.450697844085 229.700916874509 L 462.410175697219 206.427412208939 M 486.289251700955 226.497611349838 L 466.572227288988 202.108264054834 M 490.226349727142 223.416244612225 L 470.905984411191 197.905169438381 M 494.260006769984 220.462423998223 L 475.411000588444 193.827533956169 M 498.387863608855 217.641767369018 L 480.086269338553 189.885012678353 M 502.607180431835 214.959882645623 L 484.930193060397 186.087482810202 M 506.914831434903 212.422346218452 L 489.94055095107 182.445010496298 M 511.307300641137 210.034680322273 L 495.11446707993 178.967811553592 M 515.780679038412 207.802329481928 L 500.448379849592 175.666206173725 M 520.330663133371 205.73063614695 L 505.938014113551 172.5505679148 M 524.952555017204 203.824815644407 L 511.578357188122 169.631267591348 M 529.641264034845 202.089930588823 L 517.363639887844 166.918612948767 M 534.39131014365 200.530864896006 L 523.287323529285 164.422785253437 M 539.196829040489 199.152297553919 L 529.34209359496 162.15377412001 M 544.051579127389 197.958676308468 L 535.519860440228 160.121312012094 M 548.948950375488 196.954191425233 L 541.811767081266 158.334809874303 M 553.881975134997 196.142749689608 L 548.208203747039 156.803295269849 M 558.843340925266 195.527948807806 L 554.698828542576 155.535354203242 M 563.825405223753 195.113052369399 L 561.272593287436 154.539077505199 M 568.820212255811 194.900965528808 L 567.917773395038 153.822012259085 M 573.819511768688 194.894211558193 L 574.622000576307 153.391118277478 M 578.814779753014 195.094909417696 L 581.372297210691 153.252729125463 M 583.79724105326 195.50475248081 L 588.155111447191 153.412516674325 M 588.757893785311 196.12498854294 L 594.956352485708 153.875457702401 M 593.687535454238 196.956401229827 L 601.761426040361 154.645800690517 M 598.576790638772 197.999292909564 L 608.555270683229 155.727030740826 M 603.416140080707 199.25346919734 L 615.322396575419 157.121830531589 M 608.195950987577 200.718225125885 L 622.046928963041 158.83203545248 M 612.906508325486 202.392333036766 L 628.712659683549 160.858581581493 M 617.538046845806 204.274032228318 L 635.303110713967 163.201445986758 M 622.080783554752 206.361020374948 L 641.801614407237 165.859579966033 M 626.524950298461 208.650446709963 L 648.191415411002 168.83083725004 M 630.860826098205 211.138906939823 L 654.455799251729 172.111900841324 M 635.07876883077 213.822439831893 L 660.57825211514 175.698213955963 M 639.169246649413 216.696525757768 L 666.542089118154 179.584673553607 M 643.122887825399 219.756097967202 L 672.331515095242 183.764208255158 M 646.930520414284 222.99555932333 L 677.930953960102 188.229169385288 M 650.583192229207 226.408785759375 L 683.324477826069 192.971742625558 M 654.072205115854 229.989134512355 L 688.496561173855 197.982982309417 M 657.389149121963 233.729455581422 L 693.432164405515 203.252865755671 M 660.52593561673 237.622105973245 L 698.116808727212 208.770351337785 M 663.474829204844 241.658966539223 L 702.536642890075 214.523438991033 M 666.22847829338 245.831461212421 L 706.678502455215 220.499232101665 M 668.779944182866 250.130578455345 L 710.529962327059 226.683999970024 M 671.122728566673 254.546894733016 L 714.079383320771 233.06324027973 M 673.250799335287 259.070599829256 L 717.315953500101 239.621741225392 M 675.158614594141 263.691523827678 L 720.22972494977 246.34364314203 M 676.841144815447 268.399165582573 L 722.811646541428 253.212499632833 M 678.293893055882 273.182722508692 L 725.053593125409 260.211338303702 M 679.512913183045 278.031121522859 L 726.948391443332 267.322721281498 M 680.494826064365 282.933050974391 L 728.489842919939 274.528805719295 M 681.236833682501 287.876993405494 L 729.672743366291 281.811404479762 M 681.73673115133 292.851258987044 L 730.492899518861 289.152047142884 M 681.992916616348 297.844019479622 L 730.947142256588 296.532041413661 M 682.004399032623 302.843342574148 L 731.033336284758 303.932534917571 M 681.770803822526 307.837226471121 L 730.750386052881 311.334577275059 M 681.292376424067 312.81363456224 L 730.098237683146 318.719182249754 M 680.569983749078 317.760530083022 L 729.077876724637 326.067389676666 M 679.605113578404 322.66591061007 L 727.691321612105 333.360326803165 M 678.399871928977 327.517842281732 L 725.941612791342 340.57926862301 M 676.95697843491 332.304493626125 L 723.832797569576 347.705696755958 M 675.279759791737 337.014168885852 L 721.369910851577 354.721356424999 M 673.372141319541 341.635340734215 L 718.558952022951 361.608311110397 M 671.238636707005 346.156682283289 L 715.406858334249 368.34899451314 M 668.884336004325 350.567098289958 L 711.92147521647 374.926259537144 M 666.314891938571 354.855755471798 L 708.111524014699 381.323424095072 M 663.536504630284 359.012111850673 L 703.986567657765 387.524313651431 M 660.555904795054 363.025945047938 L 699.556974784951 393.513300532123 M 657.380335518343 366.88737946132 L 694.833882824806 399.275340145025 M 654.017532696099 370.586912259872 L 689.829160466191 404.796004364416 M 650.475704237536 374.115438139763 L 684.555369879888 410.061512426303 M 646.763508130041 377.464272790247 L 679.025728943673 415.058759755752 M 642.890029469327 380.625175025749 L 673.254073599462 419.775345195701 M 638.864756560854 383.590367546822 L 667.254820333794 424.19959712512 M 634.697556200995 386.352556299589 L 661.042928629098 428.320598939649 M 630.398648248662 388.904948410285 L 654.633863090258 432.128214318351 M 625.978579599867 391.241268678645 L 648.043554816585 435.61311261572 M 621.448197679237 393.355774621121 L 641.288361470894 438.766794600156 M 616.818623563615 395.243270062276 L 634.385025402603 441.581618611613 M 612.101224853677 396.899117280145 L 627.350629116998 444.050827036845 M 607.307588409975 398.31924771901 L 620.202547354216 446.168572806553 M 602.449493069917 399.500171290676 L 612.958395053111 447.929945412251" fill="none" stroke="rgb(0, 0, 255)" stroke-width="0.5" />
  <circle cx="200" cy="400" r="10" fill="rgb(255, 0, 0)" stroke="none" stroke-width="0" />
  <circle cx="399.99999999999994" cy="400.00000000000006" r="10" fill="rgb(255, 0, 0)" stroke="none" stroke-width="0" />
  <circle cx="600.00000000000011" cy="400" r="10" fill="rgb(255, 0, 0)" stroke="none" stroke-width="0" />
</svg>