<?xml version="1.0" encoding="utf-8"?>
<svg viewBox="0 0 768 768" version="1.1" xmlns="http://www.w3.org/2000/svg">
  <path style="fill:none; stroke:black; stroke-width:2" d="M178,363  C176.661605077677,366.93677013506 175.241646174433,371.113274695387 173.915368655571,375.054102248009 C172.58909113671,378.994929800631 171.195362829589,383.180322355866 169.905850873395,387.13334329981 C168.6163389172,391.086364243755 167.274409334438,395.288737253395 166.045847541846,399.261118497777 C164.817285749255,403.233499742159 163.5529116507,407.459959324565 162.409970787576,411.457799203166 C161.267029924452,415.455639081767 160.106802232389,419.712006309508 159.075026934048,423.739947521715 C158.043251635708,427.767888733923 157.014776527505,432.058179491939 156.120624523145,436.118869156934 C155.226472518785,440.179558821928 154.358276173688,444.505359825716 153.628955070712,448.598848052862 C152.899633967735,452.692336280007 152.220912957495,457.052153782332 151.684103509592,461.175287997899 C151.147294061688,465.298422213466 150.687578286941,469.687048509264 150.371086336109,473.832895712586 C150.054594385277,477.978742915907 149.843345386734,482.386663986064 149.774688318219,486.543977137009 C149.706031249704,490.701290287953 149.772165665179,495.114145803518 149.978073245561,499.26688366777 C150.183980825944,503.419621532022 150.555286721152,507.81772597114 151.061080603511,511.944637970189 C151.56687448587,516.071549969238 152.269277258662,520.429490779691 153.098088234927,524.503789708647 C153.926899211191,528.578088637603 154.983533755531,532.864434208295 156.155321014753,536.8536000967 C157.327108273974,540.842765985106 158.757165091482,545.019942670118 160.287517303857,548.885730568764 C161.817869516232,552.751518467409 163.63520447949,556.775952036449 165.533928469504,560.474715116868 C167.432652459518,564.173478197287 169.644182962622,567.996140866348 171.913722060712,571.479627919139 C174.183261158803,574.963114971931 176.787215436771,578.53067459787 179.420986307359,581.747517811289 C182.054757177947,584.964361024707 185.038898637636,588.221194127211 188.019692472323,591.119368918556 C191.00048630701,594.017543709902 194.340362168766,596.9091508263 197.639197968401,599.43951075029 C200.938033768036,601.96987067428 204.59756230751,604.445408456874 208.178146973433,606.558046742952 C211.758731639356,608.670685029029 215.695528554748,610.676856177231 219.511456323715,612.32674123676 C223.327384092682,613.976626296289 227.486068430017,615.470462879913 231.480766787314,616.622075106025 C235.475465144612,617.773687332136 239.791435604618,618.722828231113 243.901073031906,619.351199924217 C248.010710459195,619.97957161732 252.413186072195,620.363431556667 256.569534587717,620.455119687729 C260.725883103239,620.546807818792 265.140936384548,620.357466479585 269.274224340279,619.911134646669 C273.407512296009,619.464802813753 277.761087734174,618.707347385071 281.802803787886,617.733768277652 C285.844519841597,616.760189170234 290.065362358147,615.452376211042 293.950917490531,613.973780730144 C297.836472622916,612.495185249246 301.858844175985,610.666398881734 305.529965073983,608.715192771925 C309.201085971981,606.763986662116 312.967123757357,604.453559919194 316.373837834606,602.07050335096 C319.780551911854,599.687446782727 323.242118643575,596.942481382128 326.34419841751,594.174481380123 C329.446278191446,591.406481378118 332.566173720084,588.279348293922 335.333936212603,585.177048238024 C338.101698705123,582.074748182125 340.854142755358,578.620477131464 343.26854803016,575.235841763525 C345.682953304963,571.851206395585 348.053311384898,568.124976753833 350.105373279614,564.509065203411 C352.15743517433,560.893153652989 354.141243727328,556.948082354897 355.83085528236,553.149175652169 C357.520466837393,549.350268949441 359.121919472923,545.235652626391 360.456305501523,541.297855999827 C361.790691530123,537.360059373263 363.020875683295,533.120168318171 364.013015368801,529.082542278423 C365.005155054306,525.044916238675 365.880477684334,520.718356779979 366.547991030726,516.614544569789 C367.215504377118,512.510732359598 367.756916322986,508.130291864297 368.122079723913,503.988504307065 C368.487243124841,499.846716749833 368.721820908891,495.439497734575 368.812301014072,491.282561709913 C368.902781119254,487.125625685251 368.859755237533,482.712858557151 368.700089575747,478.558074768087 C368.540423913961,474.403290979024 368.245300910541,470.000573974951 367.861821672388,465.860399062732 C367.478342434235,461.720224150514 366.960405678117,457.338364861483 366.38094537476,453.220958856359 C365.801485071404,449.103552851235 365.09049311699,444.749070232831 364.342831938188,440.658826712936 C363.595170759387,436.568583193041 362.720309836387,432.244293023164 361.831536165841,428.182393585582 C360.942762495296,424.120494148001 359.932329946338,419.826099493957 358.928726939027,415.791060654099 C357.925123931716,411.75602181424 356.806599302604,407.488682708318 355.713788101172,403.47687731269 C354.620976899741,399.465071917061 353.421251914522,395.219941980192 352.26442031271,391.226088774795 C351.107588710899,387.232235569399 349.853221265481,383.00296430424 348.657345416075,379.020588446098 C347.461469566669,375.038212587957 346.178900150586,370.817420485701 344.968926263401,366.839294518476 C343.758952376216,362.861168551252 342.474673982391,358.640908020682 341.275666864405,354.659487156941 C340.07665974642,350.678066293201 338.817364353327,346.450284725994 337.654650108229,342.45815218846 C336.491935863132,338.466019650926 335.284671972643,334.22304168391 334.184003200758,330.21337935595 C333.083334428873,326.20371702799 331.955700916317,321.938761251035 330.943454338142,317.905857972733 C329.931207759967,313.872954694431 328.911579440483,309.580695681885 328.014958007871,305.520500202281 C327.118336575258,301.460304722677 326.236066412425,297.137484336698 325.483220670829,293.048202195186 C324.730374929234,288.958920053674 324.015846708187,284.605002479549 323.435753431307,280.487725939993 C322.855660154427,276.370449400437 322.339973712243,271.988302326923 321.961813646871,267.84764992677 C321.583653581498,263.706997526616 321.29761233252,259.303567278578 321.149273266445,255.148294582122 C321.000934200369,250.993021885666 320.971749743644,246.579949427421 321.079848224387,242.423471052354 C321.18794670513,238.266992677286 321.447789957093,233.861122704773 321.843228925962,229.722184747084 C322.238667894831,225.583246789395 322.818330244391,221.207510108161 323.527117226361,217.110609063124 C324.235904208332,213.013708018087 325.160609433232,208.697149179106 326.204796412901,204.672645677852 C327.248983392571,200.648142176598 328.540271963951,196.426152798218 329.93810509501,192.510456020954 C331.335938226069,188.59475924369 333.010938190719,184.509207420302 334.775703503193,180.744694102432 C336.540468815668,176.980180784562 338.610188986823,173.079106040329 340.748437683965,169.513551760502 C342.886686381107,165.947997480675 345.353967565361,162.28470789036 347.863644259292,158.970134620781 C350.373320953224,155.655561351203 353.23092029915,152.287092032815 356.099774939635,149.278040730104 C358.96862958012,146.268989427393 362.197771215248,143.253981391488 365.402310519303,140.605301710931 C368.606849823358,137.956622030373 372.176451750182,135.3527573484 375.681578641589,133.117068375649 C379.186705532996,130.881379402897 383.053388281815,128.742562831941 386.812788199018,126.967579044046 C390.572188116221,125.192595256151 394.681084902695,123.566103829807 398.638345831017,122.292039321918 C402.595606759339,121.017974814029 406.881927867802,119.941805478964 410.972326597409,119.19906682414 C415.062725327016,118.456328169317 419.453981136728,117.95695931429 423.606831541323,117.76431326157 C427.759681945917,117.571667208851 432.178439436653,117.66241289764 436.319879509453,118.025769457872 C440.461319582252,118.389126018103 444.828356297801,119.069201899843 448.884449271006,119.981086219761 C452.940542244211,120.892970539678 457.178269557619,122.147307769623 461.078310669232,123.587005552265 C464.978351780845,125.026703334906 469.014405893488,126.826441395557 472.694360251078,128.760692489349 C476.374314608669,130.694943583141 480.145259026529,132.998404650009 483.5513075513,135.382387799723 C486.957356076072,137.766370949437 490.413174191717,140.519375175502 493.502161092836,143.301876786138 C496.591147993954,146.084378396774 499.688776493125,149.234321796449 502.42563728569,152.363859922317 C505.162498078255,155.493398048185 507.871601374207,158.982508654239 510.234220083102,162.403494199047 C512.596838791997,165.824479743856 514.900646597272,169.592873317152 516.878809736395,173.249721346787 C518.856972875518,176.906569376423 520.750542258519,180.89623488655 522.34430297272,184.736276417002 C523.938063686922,188.576317947453 525.426407905673,192.733538688416 526.64429970282,196.708836900121 C527.862191499966,200.684135111827 528.958364346106,204.960927119332 529.815647161185,209.029301442857 C530.672929976265,213.097675766381 531.396221882548,217.452526785852 531.913277752514,221.578019853595 C532.43033362248,225.703512921337 532.804672355703,230.101637483586 533.005613868017,234.254600781089 C533.20655538033,238.407564078592 533.259152748872,242.820832402788 533.170664658438,246.977756581226 C533.082176568004,251.134680759665 532.842423219139,255.541331220892 532.492826207534,259.68450644941 C532.14322919593,263.827681677929 531.641812262718,268.211888449181 531.060317740295,272.328948891955 C530.478823217871,276.446009334729 529.747026298721,280.797348540701 528.96314242432,284.880733038904 C528.179258549919,288.964117537108 527.248400265901,293.276956839555 526.291451980542,297.323305162837 C525.334503695182,301.369653486119 524.235479870846,305.642481457894 523.134219710846,309.651982063488 C522.032959550846,313.661482669082 520.795874903573,317.896195606241 519.578186675145,321.871906706456 C518.360498446718,325.847617806672 517.014406547691,330.048792775233 515.707140609091,333.995973665812 C514.399874670491,337.943154556391 512.972689856991,342.117358472445 511.601716765821,346.042872515114 C510.230743674652,349.968386557784 508.749445548747,354.123601956713 507.340074191018,358.035486339195 C505.93070283329,361.947370721676 504.422022975998,366.092659584195 503,370" />
  <path style="fill:none; stroke:green; stroke-width:0.5" d="M 177.185924724999,365.395603430714 176.344195625222,365.109525556899 M 175.560090160818,370.187584050635 172.795704203957,369.251034386896 M 173.941306394904,374.981935654329 169.313689359986,373.424327083316 M 172.334353073675,379.780262794356 165.878582298765,377.628558223533 M 170.743920572215,384.584090514924 162.475901233904,381.864370833277 M 169.174657767252,389.39487163641 159.095518892411,386.133845142558 M 167.631209208267,394.213988126524 155.73100522661,390.44038249647 M 166.118243246245,399.042747564818 152.379044012385,394.788548852473 M 164.640472516655,403.882375594843 149.038920034508,399.183895508861 M 163.202668018136,408.734005152727 145.712072528292,403.632769969996 M 161.80966788122,413.598663162349 142.401710044638,408.142126479284 M 160.466381782091,418.477255295602 139.112481720062,412.719343268872 M 159.177791825007,423.370549311449 135.850199958701,417.372051669622 M 157.948950593478,428.279157409636 132.621609712804,422.107980691258 M 156.784976954682,433.203517963935 129.434199842497,426.934819392103 M 155.69105009386,438.143876935785 126.296052407689,431.860098233124 M 154.672402155592,443.100269212065 123.215726154803,436.891089607881 M 153.73430977689,448.072500060492 120.202170865945,442.034726836469 M 152.882084713007,453.060126852869 117.264669596345,447.297540100137 M 152.121063680649,458.062441169992 114.412806100412,452.685607076713 M 151.456597475034,463.078451372559 111.656454909527,458.204515425005 M 150.894039356813,468.106865699844 109.005791559812,463.859333773543 M 150.438732652381,473.14607594226 106.471320373449,469.654587512175 M 150.095997466496,478.194141725183 104.06391698529,475.594235480966 M 149.871116369386,483.24877543958 101.794882503887,481.681643613491 M 149.769318891699,488.307327860063 99.6760058415759,487.919551729052 M 149.795764639706,493.366774502991 97.7196303904506,494.310029979876 M 149.955524830108,498.42370279615 95.9387209149304,500.854421932324 M 150.253562038634,503.474300157345 94.3469263345198,507.55327186825 M 150.694707959355,508.514343111984 92.9586340365142,514.406234589718 M 151.283638982231,513.53918761937 91.7890115332651,521.411966734586 M 152.024849414937,518.543760823977 90.8540316911435,528.567999280832 M 152.92262220139,523.522554501438 90.1704784127668,535.870591436096 M 153.980997023703,528.469620529372 89.755930520571,543.31456636613 M 155.203735716448,533.378568780462 89.6287225952378,550.893129098872 M 156.594284972183,538.242567909382 89.8078825421285,558.597666346958 M 158.155736375172,543.054349586322 90.3130465114482,566.417526846411 M 159.890783866025,547.806216817853 91.1643522458709,574.339779090727 M 161.801678813777,552.490057090832 92.3823116877789,582.348941105106 M 163.890182953505,557.097361176901 93.987662434734,590.426674322576 M 166.157519537119,561.619248543891 96.0011950813496,598.551430998419 M 168.604323142362,566.046500436118 98.4435493833037,606.698042399554 M 171.23058869035,570.369601808155 101.334966412305,614.837233869814 M 174.035620335169,574.578793426156 104.694976553853,622.935053594082 M 177.017981010106,578.664135587235 108.541994789035,630.952205356965 M 180.175443544092,582.6155850507 112.892786125901,638.843282691872 M 183.504944398736,586.423086925222 117.761756834796,646.555913201276 M 187.002541221126,590.076683413125 123.160023524643,654.029837619801 M 190.663375560173,593.566641477075 129.094215014772,661.195967522334 M 194.481643387537,596.883600051201 135.564976046447,667.975484402963 M 198.450806712506,600.018393276612 142.087013404037,674.936756720983 M 202.56407285213,602.961407431919 148.995314478494,681.740780855773 M 206.814191261344,605.702842985906 156.454620948062,688.094706128519 M 211.192969220967,608.233470861841 164.410267762489,693.973601167188 M 215.691292968359,610.544748206795 172.810697046272,699.354747915021 M 220.299220066298,612.628841214673 181.60696919422,704.217105415668 M 225.006069315143,614.478654215712 190.752139036264,708.54097037951 M 229.800509099739,616.087862314391 200.200577439012,712.307863607796 M 234.670644848266,617.450945186097 209.907318531162,715.500635088135 M 239.604106081571,618.563219956014 219.827501186836,718.103753807545 M 244.58813334847,619.420871381485 229.915955269103,720.103731103749 M 249.609665174968,620.020977841645 240.126962241374,721.489617979604 M 254.655425003451,620.361531905295 250.414198999608,722.253516081266 M 259.712007961537,620.441454499983 260.730855289945,722.391047571419 M 264.765967179506,620.260601941814 271.029900329403,721.901739334881 M 269.803899270063,619.819765306928 281.264464139198,720.78929015206 M 274.812528494516,619.120661831557 291.388293984946,719.061703950726 M 279.778789065493,618.165918218389 301.356246028289,716.731286354002 M 284.689904977782,616.959045902374 311.124776187189,713.814514040112 M 289.533466716065,615.504408489303 320.65240124744,710.331795809951 M 294.297504160967,613.807181725345 329.900110185352,706.307150055032 M 298.970555003132,611.873306485305 338.831715087452,701.767825354129 M 303.541727978908,609.709435381653 347.414139713532,696.743889499586 M 308.000760260606,607.322873695358 355.617650611301,691.267808056148 M 312.338068369354,604.721515413248 363.416040067665,685.374027546998 M 316.544792029126,601.913775225038 370.786771783569,679.098571623532 M 320.612830446687,598.908517386242 377.711099087568,672.478652158271 M 324.534870583945,595.714982391027 384.174162195449,665.552291998761 M 328.304407086514,592.342712421567 390.165066165055,658.357952778584 M 331.91575364519,588.801476547685 395.676935611531,650.934160039422 M 335.36404569551,585.101196642496 400.706936787687,643.319118997379 M 338.645234504609,581.251874956413 405.256253061948,635.550317315781 M 341.75607285425,577.263524253198 409.329996731854,627.664115718113 M 344.694092704054,573.146101357809 412.937038843629,619.695332528269 M 347.457575409791,568.909444896539 416.089739326593,611.676833546647 M 350.045515277931,564.563217925398 418.803562111753,603.639143393572 M 352.45757745959,560.116856042866 421.096563587675,595.610098048431 M 354.694051424526,555.579521468002 422.988747217708,587.614560459937 M 356.75580150895,550.960063434502 424.501281825459,579.674221707657 M 358.644216299558,546.266985105528 425.65558543373,571.807509379442 M 360.36115890047,541.508417053197 426.472280239114,564.029622869645 M 361.908920429563,536.692097170228 426.970027124582,556.352712529671 M 363.290179406116,531.825356689729 427.16425003083,548.786216276534 M 364.507970022639,526.915111782153 427.065761595883,541.337363441805 M 365.565662640347,521.9678599763 426.679301759771,534.011851039344 M 366.466960209846,516.989680413748 426.002000297209,526.814691507097 M 367.215914696352,511.986236693328 425.021771762971,519.751222050381 M 367.816967982013,506.962780794189 423.715645609556,512.828252079928 M 368.275022126815,501.924156282632 422.048022753354,506.055304314835 M 368.595528511307,496.874798291666 419.96881326682,499.445873102101 M 368.783996907153,491.818715122336 418.500165489918,493.033363191473 M 368.845219649285,486.759475101271 416.821415588853,486.745103342597 M 368.78367795533,481.700239658537 414.875220455681,480.588916218264 M 368.604176047993,476.643799806698 412.709953261564,474.571726763161 M 368.311779200484,471.592590281741 410.36621012758,468.695388975058 M 367.911722595829,466.548703540104 407.877388553317,462.958118930675 M 367.409339919935,461.513904853822 405.270436060724,457.355667458943 M 366.810008706552,456.489648216446 402.56669077559,451.882237366621 M 366.119109749725,451.477092808086 399.78274758972,446.531167471607 M 365.341998181978,446.477119801792 396.931299108247,441.29541549024 M 364.483984084388,441.490349325521 394.021916128792,436.167875650874 M 363.550320747802,436.517157424118 391.061745990403,431.141566548572 M 362.546198942801,431.557692894151 388.056118015165,426.209721802249 M 361.476745779593,426.611893890909 385.009053396169,421.365811762842 M 360.347026947788,421.679504231624 381.923682576791,416.60351971851 M 359.162051320053,416.76008934183 378.802576868153,411.916691305694 M 357.926777082882,411.853051812784 375.648003220616,407.299271480306 M 356.646118722178,406.957646557112 372.462112101195,402.745239584981 M 355.324954341056,402.072995567185 369.247068656249,398.248549815638 M 353.968132922207,397.198102296279 366.005137009199,393.803081732126 M 352.580481267269,392.331865696262 362.738726848539,389.402603329196 M 351.166810451099,387.473093957449 359.450410549379,385.040747525563 M 349.731921719367,382.620518006265 356.14291805812,380.711001674447 M 348.280611833771,377.772804824593 352.819115747782,376.406708782495 M 346.817677930207,372.928570661043 349.481974497959,372.121078481962 M 345.3479220015,368.086394208911 346.13453143136,367.847205376146 M 343.87615514783,363.244829828311 342.779849098878,363.578092120978 M 342.407201754681,358.402420890843 339.420975485156,359.306674478193 M 340.945903760147,353.557713324176 336.06090803145,355.025845552454 M 339.497125160557,348.709269431165 332.702564953909,350.728476496014 M 338.065756875838,343.855682053466 329.348767471044,346.407431135955 M 336.656722053632,338.995589143175 326.002237128575,342.055572273054 M 335.274981834076,334.127688797718 322.665613193556,337.665757856138 M 333.925541525197,329.250754803092 319.341496039223,333.230825904077 M 332.613457052244,324.363652718615 316.032523498721,328.743567994736 M 331.343841442755,319.465356522525 312.741488252814,324.19669244137 M 330.121870992972,314.554965822182 309.471505334373,319.582780013772 M 328.952790630164,309.631723615151 306.226239650274,314.894237316314 M 327.84191783968,304.695034568141 303.010203867031,310.123255782447 M 326.794644364936,299.744483759699 299.829136851843,305.261787737611 M 325.816434713276,294.779855809554 296.690471808256,300.301555126025 M 324.912820310467,289.801154292761 293.60390091986,295.234111215379 M 324.089387941777,284.808621310142 290.582039270489,290.050980675494 M 323.351760897872,279.802757058102 287.641184568549,284.743908455424 M 322.705571009377,274.784339210575 284.80216035281,279.305252154653 M 322.156419504719,269.75444189378 282.091218725515,273.728555030067 M 321.709824361908,264.714454000476 279.540964606926,268.009335932539 M 321.371151546148,259.666096554657 277.191248351022,262.146126511543 M 321.145527231656,254.611438799974 275.089960124017,256.141773036461 M 321.037784243269,249.552912072058 273.170344270797,250.006016526067 M 321.053161039798,244.493320375673 270.541641670028,243.713426484139 M 321.197743772261,239.435870983251 268.312004458905,237.233491891832 M 321.477622981572,234.384208758783 266.426617075453,230.580828925506 M 321.898363266242,229.342420553506 264.846009794694,223.765208748823 M 322.465103670333,224.315031430037 263.544150765589,216.792813033568 M 323.182638421859,219.307007048 262.506687251271,209.667517327907 M 324.055466157591,214.323759785774 261.729279470285,202.39211510242 M 325.087812477411,209.37115621986 261.216009252498,194.969430191126 M 326.283630295153,204.455523909884 260.977858507179,187.403288206131 M 327.646582090132,199.583655747419 261.031259509839,179.699332046859 M 329.18000781418,194.762810420697 261.396722673462,171.865675818587 M 330.886881873068,190.000707824744 262.097549337973,163.913397498366 M 332.769762278676,185.305518507713 263.158638003642,155.856875049636 M 334.830734759124,180.685846488998 264.605392632037,147.713974322486 M 337.07135431838,176.15070501325 266.462741115814,139.506100430701 M 339.492586454567,171.709485016585 268.754270638377,131.258127432132 M 342.09474997728,167.371916277145 271.501484309462,122.998223852284 M 344.877463108769,163.148021401658 274.723180217041,114.757593537136 M 347.83959431176,159.048062962863 278.434950108562,106.570152136924 M 350.979219058049,155.08248424948 282.648790711147,98.4721589363841 M 354.293583536735,151.261844220947 287.372816750183,90.5018216628751 M 357.779076099151,147.596747373312 292.61106159753,82.6988884494298 M 361.431207049112,144.097769320534 298.363349684617,75.1042366620305 M 365.244597212097,140.775378976935 304.625224710212,67.7594633700858 M 369.212975555386,137.639858291769 311.387919390197,60.7064775209508 M 373.32918598297,134.701220535666 318.638355903449,53.9870900781166 M 377.5852032943,131.969128171294 326.359170880348,47.6425961295519 M 381.972158174551,129.452811356692 334.528764121469,41.7133427251413 M 386.480370976141,127.160988129631 343.121375424269,36.2382781610614 M 391.09939395669,125.101787304845 352.107198071864,31.2544824824699 M 395.818061557483,123.282675083165 361.452539891181,26.7966846801693 M 400.62454823878,121.710386322439 371.120042684956,22.8967786589496 M 405.506433333989,120.39086135463 381.068967941589,19.5833565617376 M 410.450772343849,119.32918915166 391.255551066687,16.8812833229973 M 415.444174064269,118.529557544441 401.633418424082,14.8113392942094 M 420.472882927384,117.995211085012 412.154052102185,13.3899575141019 M 425.522865934747,117.728417010911 422.767277756184,12.6290781082921 M 430.579903574308,117.730439623745 433.421742550718,12.5361342855652 M 435.629684138994,118.001523230428 444.065344609107,13.1141728752426 M 440.657900904279,118.540883615768 454.645573773704,14.3620982810479 M 445.650351675107,119.346707818882 465.109726867721,16.2750135370609 M 450.593040278922,120.416161773481 475.404969504268,18.8446176127748 M 455.47227966138,121.745405143212 485.478230702166,22.0596062012111 M 460.274796334508,123.329612438108 495.275935363041,25.9060159681532 M 464.987836033727,125.162999236709 504.743601534352,30.3674515976617 M 469.599270560169,127.238852060579 513.825352020584,35.4251426824224 M 474.097705918189,129.549560153824 522.463410110363,41.057794933604 M 478.472592004819,132.086647109693 530.597662803265,47.2412280327466 M 482.71433426819,134.840799959551 538.16537687279,53.9478304118421 M 486.814330543065,137.802003972446 545.327514017763,60.8526902194182 M 490.764482089213,140.960370987789 552.423223128935,67.584593765915 M 494.556990646353,144.306416668387 558.954569940336,74.773659391585 M 498.184861068764,147.830355010518 564.916042552279,82.3308117995104 M 501.642129027239,151.521912356445 570.309877227433,90.1774931706129 M 504.923837976334,155.370496167331 575.14422084835,98.2448123383757 M 508.02600602754,159.365342287687 579.431642037729,106.472593663715 M 510.945585692182,163.495641313182 583.187964535995,114.808410262169 M 513.680418106989,167.750646256936 586.431374330874,123.206664302355 M 516.229183182538,172.119763539604 589.181744637248,131.627752851414 M 518.59134695077,176.59262916589 591.460124722038,140.037336897896 M 520.767107232322,181.159171794476 593.288345975389,148.405715451459 M 522.757338597584,185.809664259751 594.688708546381,156.707296245492 M 524.563537457254,190.534764962219 595.683722140972,164.920148944398 M 526.187767988551,195.325550409976 596.295883848273,173.025624872858 M 527.632609482323,200.173540066262 596.547483377414,181.008028030118 M 528.901105583981,205.070714537715 596.46043158434,188.854324498173 M 529.996715797473,210.009528024686 596.056111706244,196.553880441543 M 530.923269526459,214.982915848737 595.355254563193,204.098222080793 M 531.684922840379,219.984297773252 594.377839496082,211.480813862387 M 532.28611807531,225.007577741024 593.143022379636,218.696853289228 M 532.73154631028,230.047140567558 591.66909104763,225.743082414974 M 533.026112699138,235.097846050911 589.973447208883,232.6176168484 M 533.17490458613,240.15502088788 588.072612661098,239.319793344488 M 533.18316228999,245.21444872254 585.982256495968,245.850036802041 M 533.056252406652,250.272358596257 583.717239135953,252.209746886221 M 532.799643454599,255.325412018576 581.291668495117,258.401203689195 M 532.418883669408,260.370688835685 578.718963312106,264.427490959385 M 531.919580745214,265.405672037489 576.011918727807,270.292434574089 M 531.307383320583,270.428231615774 573.182769416615,276.000553181311 M 530.587964014718,275.436607564402 570.243245959924,281.557017349486 M 529.76700383693,280.429392098016 567.204620600919,286.967613170682 M 528.850177817981,285.405511158336 564.077738971691,292.238706076699 M 527.843141746161,290.364205276779 560.873034776041,297.377200645593 M 526.751519933879,295.305009868838 557.600524695436,302.390492384785 M 525.580893992071,300.227735049442 554.269780927963,307.286407855328 M 524.336792649867,305.132445079351 550.889878754361,312.073130026647 M 523.024682725736,310.019437580513 547.46931635224,316.759106399664 M 521.64996143372,314.88922269328 544.015903766695,321.352938190123 M 520.217950294388,319.742502390374 540.536617524254,325.863249711881 M 518.733891014782,324.580150211576 537.037416889141,330.298538039898 M 517.202943804877,329.403191739217 533.523017253609,334.667004075354 M 515.630188709997,334.212786197761 529.996615675584,338.976367308341 M 514.020630659097,339.010209630996 526.459563171252,343.233667928527 M 512.379209057991,343.796840187654 522.910978076659,347.445061558247 M 510.710812894345,348.574146130667 519.347294649126,351.615613916599 M 509.020302467632,353.343677276645 515.761741138364,355.74910538861 M 507.312539012268,358.107060670696 512.143741916464,359.847859110133 M 505.592423645746,362.866001407196 508.478239118847,363.912611294424 M 503.864947245875,367.622289619765 504.744931028884,367.942449859012 " />
</svg>