<?xml version="1.0" encoding="utf-8"?>
<svg viewBox="0 0 768 768" version="1.1" xmlns="http://www.w3.org/2000/svg">
  <path d="M 200 400 C 199.670272236149 401.633746945612 199.340487051979 403.267469501956 199.0115507055 404.901359441889 C 198.682614359021 406.535249381822 198.354525972325 408.169306540601 198.028159318039 409.803708224016 C 197.701792663753 411.438109907431 197.377147043772 413.072856034949 197.055075540476 414.708111270837 C 196.73300403718 416.343366506725 196.413506107609 417.979130840879 196.097423429264 419.615556963227 C 195.781340750919 421.251983085575 195.468672913682 422.889071044106 195.16025731787 424.526961259023 C 194.851841722059 426.16485147394 194.547678070341 427.803544040348 194.248604773448 429.443166025562 C 193.949531476555 431.082788010775 193.655548332027 432.723339547313 193.367498493177 434.364932633667 C 193.079448654327 436.00652572002 192.797331997681 437.649160517613 192.521998849272 439.292931743894 C 192.246665700863 440.936702970176 191.978116002241 442.581610808079 191.717208604004 444.22773010471 C 191.456301205767 445.873849401341 191.203036102343 447.521180354772 190.958281138167 449.169775078554 C 190.713526173992 450.818369802337 190.47728138593 452.468228504258 190.250423368281 454.119377515555 C 190.023565350631 455.770526526853 189.80609417385 457.422966060467 189.598894369416 459.07669350584 C 189.391694564983 460.730420951214 189.194766229587 462.385436522658 189.0090005719 464.041705460131 C 188.823234914213 465.697974397604 188.648632051185 467.355496913699 188.486088261252 469.014202894442 C 188.323544471318 470.672908875186 188.173059886987 472.332798528979 188.035533981583 473.993763228342 C 187.898008076179 475.654727927704 187.773440994227 477.316767874901 187.662733323318 478.979732847299 C 187.552025652409 480.642697819697 187.455177546603 482.306588011928 187.373088466449 483.971208628219 C 187.290999386295 485.635829244509 187.223669493852 487.301180470726 187.171994750686 488.967020083256 C 187.120320007521 490.632859695786 187.084300582992 492.29918787088 187.064826453751 493.965712240477 C 187.045352324511 495.632236610075 187.042423667251 497.29895734016 187.056921878674 498.965529350898 C 187.071420090098 500.632101361636 187.103345354885 502.298524808205 187.153567780386 503.964399489796 C 187.203790205888 505.630274171386 187.272309985942 507.295600231866 187.35998310101 508.959920106094 C 187.447656216078 510.624239980321 187.554482870727 512.287553800302 187.681301932181 513.949344566913 C 187.808120993636 515.611135333525 187.954932679063 517.271403166223 188.122555581367 518.929569745203 C 188.290178483671 520.587736324183 188.478612834678 522.243801755445 188.688653587579 523.8971247066 C 188.898694340479 525.550447657754 189.130341743896 527.201028220142 189.384363510023 528.848160567398 C 189.63838527615 530.495292914654 189.914781672515 532.138977121879 190.214289301165 533.778441618684 C 190.513796929815 535.417906115489 190.836416079161 537.053150958683 191.18284807335 538.683337842332 C 191.529280067539 540.31352472598 191.899525217592 541.938653686002 192.294245075546 543.557818982681 C 192.688964933499 545.17698427936 193.108159834358 546.790185924496 193.55244671398 548.396450383266 C 193.996733593601 550.002714842035 194.466112811887 551.602042098177 194.961151477334 553.193390851025 C 195.456190142782 554.784739603872 195.976888640534 556.368109804368 196.523758663907 557.94239287089 C 197.070628687279 559.516675937412 197.643670646319 561.081871782488 198.24333485454 562.636805561644 C 198.842999062761 564.1917393408 199.469285953994 565.736410921566 200.122578131367 567.269580839336 C 200.775870308739 568.802750757106 201.456168227844 570.32441882679 202.163780108329 571.833283337449 C 202.871391988813 573.342147848109 203.606318305013 574.838208553279 204.368785915178 576.32010472335 C 205.131253525342 577.802000893421 205.921262918416 579.269732210586 206.738952362088 580.721883148383 C 207.55664180576 582.174034086181 208.402011798229 583.610604244204 209.275104607267 585.03012867423 C 210.148197416304 586.449653104257 211.049013542679 587.852131310643 211.977491754881 589.236055630906 C 212.905969967083 590.619979951169 213.862110760329 591.985349780332 214.84574192538 593.330622981972 C 215.829373090431 594.675896183612 216.840495107287 596.001072027781 217.878817464748 597.304583900198 C 218.91713982221 598.608095772616 219.982662973738 599.889942801098 221.074971093463 601.148545892054 C 222.167279213188 602.40714898301 223.28637271495 603.642507103045 224.431703939932 604.853042951984 C 225.577035164914 606.063578800922 226.748604472382 607.249291163391 227.945726556909 608.408621377498 C 229.142848641436 609.567951591605 230.365523790781 610.700898237359 231.612924182899 611.805941033621 C 232.860324575017 612.910983829882 234.132450407141 613.988121127446 235.428327683808 615.035894020206 C 236.724204960475 616.083666912966 238.043833767171 617.102073495865 239.386091793098 618.089742868115 C 240.728349819025 619.077412240364 242.093237014403 620.034342212291 243.479482461479 620.959280570121 C 244.865727908555 621.884218927951 246.273334744971 622.77716546815 247.70113709335 623.636553702506 C 249.128939441728 624.495941936861 250.576935824575 625.321772243814 252.043788466428 626.112615751234 C 253.51064110828 626.903459258654 254.996348668506 627.65931616275 256.499422581793 628.378890940235 C 258.002496495079 629.09846571772 259.522935530914 629.781758424549 261.059119593851 630.427605033402 C 262.595303656788 631.073451642255 264.147231603569 631.681852106466 265.713169591657 632.251773859288 C 267.279107579744 632.82169561211 268.859054533907 633.353138537728 270.451179486335 633.845202778944 C 272.043304438762 634.337267020159 273.647606366435 634.789952421509 275.262172899455 635.202493896535 C 276.876739432475 635.61503537156 278.501569587395 635.987432750872 280.134684630002 636.319058178166 C 281.76779967261 636.650683605461 283.409198649326 636.941536919546 285.056850981328 637.191129993281 C 286.704503313331 637.440723067016 288.358408069917 637.64905576612 290.016496954257 637.815781925114 C 291.674585838597 637.982508084109 293.336857938347 638.107627611116 295.001221058273 638.190938011961 C 296.665584178199 638.274248412806 298.33203742204 638.315749650468 299.99847825949 638.315383879436 C 301.664919096939 638.315018108404 303.331346647553 638.272785356122 304.995661371867 638.188772505522 C 306.659976096182 638.104759654923 308.322177131075 637.978966804862 309.980181006913 637.811624624943 C 311.638184882751 637.644282445025 313.291990756782 637.435391109988 314.939544026865 637.185323027327 C 316.587097296949 636.935254944666 318.22839714506 636.644010367189 319.861430297137 636.312100234725 C 321.494463449214 635.980190102261 323.119229117389 635.607614745776 324.73376740555 635.195019258266 C 326.348305693711 634.782423770757 327.952615850421 634.329808559515 329.544802908674 633.837947331169 C 331.136989966927 633.346086102823 332.717053218598 632.814979337438 334.283173579348 632.24552269589 C 335.849293940098 631.676066054341 337.401470752371 631.068260084378 338.937971064221 630.423114686915 C 340.474471376071 629.777969289452 341.995294587906 629.095485073479 343.498803315941 628.376777497617 C 345.002312043975 627.658069921754 346.488505753885 626.903139648622 347.955851141362 626.113198149642 C 349.423196528838 625.323256650661 350.871693131806 624.4983046335 352.299919204936 623.63963929653 C 353.728145278066 622.780973959559 355.136100437954 621.888596046118 356.522480845208 620.963877589629 C 357.908861252462 620.039159133139 359.273666607976 619.082100902631 360.615716102104 618.094138413951 C 361.957765596232 617.106175925271 363.277059018772 616.087309962747 364.572542413493 615.039027864287 C 365.868025808214 613.990745765827 367.139699057165 612.913048320434 368.386637521232 611.807462877794 C 369.6335759853 610.701877435155 370.855779640634 609.56840477828 372.052454229734 608.408600468296 C 373.249128818834 607.248796158311 374.420274412083 606.062660961714 375.565226783799 604.851767019736 C 376.710179155514 603.640873077758 377.828938468481 602.405221130196 378.920968777287 601.146388591578 C 380.012999086094 599.88755605296 381.078300641904 598.605543626711 382.116462669939 597.301923167473 C 383.154624697974 595.998302708235 384.165647531331 594.6730748741 385.149241176429 593.327795740197 C 386.132834821528 591.982516606294 387.088999684292 590.617186777312 388.017560999534 589.233337070716 C 388.946122314775 587.84948736412 389.847080549248 586.447118324207 390.720369608027 585.027726887225 C 391.593658666806 583.608335450242 392.439279062351 582.171922094374 393.25726600973 580.719942201202 C 394.075252957109 579.267962308031 394.865606996007 577.800416285358 395.628456740881 576.318711311849 C 396.391306485755 574.837006338339 397.126652481441 573.34114274879 397.834708584785 571.832473947756 C 398.542764688129 570.323805146722 399.22353142322 568.802331395201 399.877299845465 567.26934785535 C 400.53106826771 565.736364315499 401.157838850492 564.191871175734 401.757972335815 562.637101987432 C 402.358105821138 561.08233279913 402.931602597433 559.517287681548 403.478886594526 557.94313627216 C 404.026170591619 556.368984862772 404.547242074212 554.785727217489 405.042583221825 553.194467752934 C 405.537924369439 551.603208288379 406.007535279514 550.003947005507 406.451953620859 548.397722682973 C 406.896371962204 546.791498360439 407.315597616473 545.178310955399 407.710223849294 543.559133934844 C 408.104850082116 541.93995691429 408.474876505608 540.314790205682 408.820955724526 538.684542844817 C 409.167034943444 537.054295483953 409.489166241159 535.418967385841 409.788069785609 533.779404354754 C 410.08697333006 532.139841323667 410.362648010969 530.496043282732 410.615895195854 528.848794040152 C 410.869142380739 527.201544797572 411.09996049485 525.550844308676 411.309252171752 523.897415322126 C 411.518543848654 522.243986335576 411.706306972139 520.587828866685 411.873573046717 518.929604853373 C 412.040839121295 517.271380840061 412.187611137752 515.61108980628 412.31452811994 513.949293499878 C 412.441445102129 512.287497193476 412.548509002017 510.62419562215 412.636453651265 508.959894968409 C 412.724398300514 507.295594314668 412.7932252687 505.630294540937 412.843736838722 503.964446495835 C 412.894248408744 502.298598450733 412.926445822212 500.632202058702 412.941178779331 498.965653689644 C 412.95591173645 497.299105320585 412.953181200183 495.632404867527 412.933867798897 493.965895596635 C 412.91455439761 492.299386325743 412.878658860075 490.633068104514 412.827080095378 488.967232896802 C 412.775501330681 487.301397689089 412.708239873227 485.63604534209 412.626203475232 483.971418661886 C 412.544167077237 482.306791981681 412.447356114171 480.64289079978 412.336680389436 478.97991117836 C 412.226004664702 477.31693155694 412.101464426112 475.654873315847 411.963966881852 473.993888391803 C 411.826469337592 472.332903467759 411.67601463518 470.672991672423 411.51350444715 469.01426358387 C 411.35099425912 467.355535495317 411.176428656378 465.697990919973 410.990702158752 464.041701944263 C 410.804975661125 462.385412968553 410.608088283147 460.730379396138 410.400926769081 459.076637748315 C 410.193765255014 457.422896100493 409.976329580052 455.770446180177 409.749498804901 454.119291895967 C 409.522668029751 452.468137611758 409.286442104335 450.818278767423 409.041692979643 449.169689610108 C 408.796943854952 447.521100452792 408.543671466973 445.873780788331 408.282741522351 444.227678131399 C 408.02181157773 442.581575474466 407.753224007363 440.936689633828 407.477839279309 439.292944282863 C 407.202454551255 437.649198931898 406.92027259791 436.006593882847 406.632149679375 434.365031810633 C 406.344026760839 432.723469738419 406.04996281558 431.082950459019 405.750810867755 429.443358437397 C 405.45165891993 427.803766415774 405.147418916868 426.165101471652 404.838941505203 424.527232592189 C 404.530464093537 422.889363712727 404.217749230707 421.252290721185 403.901645900574 419.615869804262 C 403.585542570441 417.979448887338 403.266050740496 416.343679871439 402.944018294223 414.708408769858 C 402.621985847949 413.073137668278 402.297412761764 411.438364310024 401.971146237908 409.803927118809 C 401.644879714052 408.169489927594 401.316919735913 406.535388734368 400.988113123722 404.901456922895 C 400.659306511531 403.267525111421 400.329653253096 401.633762513849 400 400 C 399.670346746905 398.366237486151 399.340693488469 396.732474888579 399.011886876278 395.098543077106 C 398.683080264087 393.464611265632 398.355120285948 391.830510072406 398.028853762092 390.196072881191 C 397.702587238236 388.561635689977 397.378014152051 386.926862331723 397.055981705777 385.291591230142 C 396.733949259503 383.656320128562 396.414457429559 382.020551112662 396.098354099425 380.384130195738 C 395.782250769292 378.747709278815 395.469535906462 377.110636287273 395.161058494796 375.472767407811 C 394.85258108313 373.834898528348 394.548341080068 372.196233584226 394.249189132243 370.556641562603 C 393.950037184417 368.917049540981 393.655973239158 367.276530261581 393.367850320623 365.634968189367 C 393.079727402087 363.993406117153 392.797545448743 362.350801068102 392.522160720688 360.707055717137 C 392.246775992634 359.063310366172 391.978188422267 357.418424525534 391.717258477646 355.772321868602 C 391.456328533024 354.126219211669 391.203056145045 352.478899547208 390.958307020354 350.830310389893 C 390.713557895663 349.181721232578 390.477331970246 347.531862388242 390.250501195096 345.880708104033 C 390.023670419946 344.229553819824 389.806234744984 342.577103899508 389.599073230918 340.923362251685 C 389.391911716851 339.269620603862 389.195024338873 337.614587031447 389.009297841247 335.958298055737 C 388.823571343621 334.302009080027 388.649005740879 332.644464504683 388.486495552849 330.98573641613 C 388.32398536482 329.327008327578 388.173530662408 327.667096532241 388.036033118148 326.006111608197 C 387.898535573888 324.345126684153 387.773995335299 322.68306844306 387.663319610565 321.02008882164 C 387.552643885831 319.35710920022 387.455832922765 317.693208018319 387.37379652477 316.028581338114 C 387.291760126775 314.36395465791 387.224498669321 312.698602310911 387.172919904624 311.032767103198 C 387.121341139927 309.366931895486 387.085445602392 307.700613674257 387.066132201105 306.034104403365 C 387.046818799818 304.367595132473 387.044088263552 302.700894679414 387.05882122067 301.034346310356 C 387.073554177788 299.367797941298 387.105751591256 297.701401549267 387.156263161278 296.035553504165 C 387.2067747313 294.369705459063 387.275601699485 292.704405685331 387.363546348734 291.04010503159 C 387.451490997982 289.375804377849 387.55855489787 287.712502806524 387.685471880059 286.050706500122 C 387.812388862248 284.388910193719 387.959160878706 282.728619159939 388.126426953284 281.070395146627 C 388.293693027863 279.412171133315 388.48145615135 277.756013664425 388.690747828253 276.102584677875 C 388.900039505156 274.449155691325 389.130857619269 272.798455202429 389.384104804155 271.151205959849 C 389.637351989041 269.503956717269 389.913026669951 267.860158676335 390.211930214402 266.220595645247 C 390.510833758853 264.58103261416 390.832965056568 262.945704516049 391.179044275486 261.315457155184 C 391.525123494404 259.68520979432 391.895149917894 258.060043085712 392.289776150715 256.440866065157 C 392.684402383536 254.821689044602 393.103628037804 253.208501639561 393.548046379148 251.602277317027 C 393.992464720491 249.996052994492 394.462075630564 248.39679171162 394.957416778177 246.805532247065 C 395.452757925789 245.214272782509 395.97382940838 243.631015137226 396.521113405472 242.056863727837 C 397.068397402563 240.482712318449 397.641894178856 238.917667200866 398.242027664178 237.362898012564 C 398.8421611495 235.808128824262 399.468931732281 234.263635684496 400.122700154525 232.730652144645 C 400.776468576768 231.197668604793 401.457235311859 229.676194853272 402.165291415202 228.167526052237 C 402.873347518546 226.658857251203 403.608693514231 225.162993661654 404.371543259105 223.681288688144 C 405.134393003979 222.199583714634 405.924747042877 220.732037691962 406.742733990256 219.28005779879 C 407.560720937635 217.828077905619 408.406341333181 216.391664549751 409.27963039196 214.972273112769 C 410.15291945074 213.552881675787 411.053877685213 212.150512635875 411.982439000456 210.766662929279 C 412.911000315698 209.382813222684 413.867165178464 208.017483393703 414.850758823564 206.672204259801 C 415.834352468663 205.326925125899 416.845375302022 204.001697291765 417.883537330058 202.698076832528 C 418.921699358094 201.394456373291 419.987000913906 200.112443947043 421.079031222714 198.853611408425 C 422.171061531521 197.594778869808 423.289820844489 196.359126922247 424.434773216206 195.148232980271 C 425.579725587923 193.937339038294 426.750871181173 192.751203841698 427.947545770275 191.591399531715 C 429.144220359376 190.431595221731 430.366424014711 189.298122564858 431.613362478779 188.19253712222 C 432.860300942847 187.086951679582 434.1319741918 186.009254234189 435.427457586521 184.96097213573 C 436.722940981243 183.912690037271 438.042234403783 182.893824074748 439.384283897912 181.905861586068 C 440.72633339204 180.917899097389 442.091138747555 179.960840866882 443.477519154809 179.036122410392 C 444.863899562063 178.111403953903 446.271854721951 177.219026040462 447.700080795081 176.360360703492 C 449.128306868211 175.501695366522 450.576803471179 174.67674334936 452.044148858655 173.886801850379 C 453.511494246132 173.096860351399 454.997687956041 172.341930078267 456.501196684075 171.623222502403 C 458.00470541211 170.90451492654 459.525528623944 170.222030710566 461.062028935794 169.576885313103 C 462.598529247644 168.931739915639 464.150706059916 168.323933945674 465.716826420666 167.754477304124 C 467.282946781416 167.185020662575 468.863010033086 166.653913897189 470.455197091338 166.162052668842 C 472.047384149591 165.670191440494 473.651694306301 165.217576229251 475.266232594461 164.80498074174 C 476.880770882622 164.39238525423 478.505536550797 164.019809897742 480.138569702873 163.687899765277 C 481.77160285495 163.355989632812 483.412902703061 163.064745055333 485.060455973145 162.81467697267 C 486.708009243228 162.564608890008 488.361815117259 162.35571755497 490.019818993097 162.188375375051 C 491.677822868935 162.021033195131 493.340023903828 161.895240345068 495.004338628142 161.811227494468 C 496.668653352457 161.727214643868 498.33508090307 161.684981891585 500.00152174052 161.684616120553 C 501.667962577969 161.68425034952 503.334415821811 161.725751587182 504.998778941736 161.809061988027 C 506.663142061662 161.892372388872 508.325414161412 162.017491915878 509.983503045752 162.184218074873 C 511.641591930092 162.350944233868 513.295496686678 162.559276932972 514.943149018681 162.808870006708 C 516.590801350683 163.058463080443 518.232200327399 163.349316394529 519.865315370006 163.680941821824 C 521.498430412613 164.01256724912 523.123260567533 164.384964628432 524.737827100553 164.797506103459 C 526.352393633573 165.210047578485 527.956695561245 165.662732979837 529.548820513672 166.154797221053 C 531.140945466099 166.646861462269 532.720892420263 167.178304387888 534.28683040835 167.748226140711 C 535.852768396437 168.318147893534 537.404696343218 168.926548357745 538.940880406155 169.572394966599 C 540.477064469092 170.218241575453 541.997503504926 170.901534282281 543.500577418213 171.621109059766 C 545.003651331499 172.340683837252 546.489358891725 173.096540741347 547.956211533578 173.887384248767 C 549.423064175431 174.678227756187 550.871060558277 175.504058063139 552.298862906656 176.363446297494 C 553.726665255035 177.22283453185 555.134272091452 178.115781072048 556.520517538528 179.040719429878 C 557.906762985604 179.965657787708 559.271650180981 180.922587759635 560.613908206908 181.910257131885 C 561.956166232835 182.897926504135 563.275795039531 183.916333087034 564.571672316198 184.964105979795 C 565.867549592865 186.011878872556 567.139675424987 187.08901617012 568.387075817105 188.194058966381 C 569.634476209224 189.299101762643 570.857151358568 190.432048408397 572.054273443095 191.591378622504 C 573.251395527621 192.750708836611 574.422964835089 193.936421199081 575.568296060071 195.146957048019 C 576.713627285053 196.357492896958 577.832720786816 197.592851016992 578.925028906541 198.851454107948 C 580.017337026266 200.110057198905 581.082860177795 201.391904227386 582.121182535257 202.695416099803 C 583.159504892718 203.998927972221 584.170626909575 205.324103816389 585.154258074626 206.669377018029 C 586.137889239678 208.014650219668 587.094030032925 209.380020048831 588.022508245127 210.763944369093 C 588.95098645733 212.147868689356 589.851802583705 213.550346895742 590.724895392743 214.969871325768 C 591.597988201782 216.389395755794 592.443358194251 217.825965913817 593.261047637923 219.278116851614 C 594.078737081596 220.730267789411 594.868746474671 222.197999106576 595.631214084835 223.679895276646 C 596.393681695 225.161791446717 597.1286080112 226.657852151887 597.836219891685 228.166716662547 C 598.54383177217 229.675581173206 599.224129691275 231.19724924289 599.877421868648 232.73041916066 C 600.53071404602 234.26358907843 601.157000937253 235.808260659197 601.756665145474 237.363194438352 C 602.356329353695 238.918128217508 602.929371312734 240.483324062585 603.476241336106 242.057607129107 C 604.023111359478 243.631890195629 604.54380985723 245.215260396125 605.038848522676 246.806609148973 C 605.533887188123 248.39795790182 606.003266406409 249.997285157963 606.447553286029 251.603549616732 C 606.891840165649 253.209814075502 607.311035066507 254.823015720639 607.705754924459 256.442181017318 C 608.100474782412 258.061346313997 608.470719932464 259.686475274019 608.817151926652 261.316662157667 C 609.16358392084 262.946849041316 609.486203070184 264.58209388451 609.785710698833 266.221558381316 C 610.085218327482 267.861022878121 610.361614723847 269.504707085346 610.615636489973 271.151839432602 C 610.869658256099 272.798971779859 611.101305659515 274.449552342247 611.311346412415 276.102875293401 C 611.521387165315 277.756198244555 611.709821516321 279.412263675818 611.877444418625 281.070430254798 C 612.045067320929 282.728596833778 612.191879006355 284.388864666476 612.318698067809 286.050655433087 C 612.445517129264 287.712446199699 612.552343783912 289.37576001968 612.64001689898 291.040079893907 C 612.727690014048 292.704399768135 612.796209794103 294.369725828615 612.846432219605 296.035600510206 C 612.896654645108 297.701475191796 612.928579909895 299.367898638366 612.943078121319 301.034470649104 C 612.957576332743 302.701042659842 612.954647675484 304.367763389926 612.935173546245 306.034287759524 C 612.915699417005 307.700812129122 612.879679992477 309.367140304216 612.828005249313 311.032979916745 C 612.776330506148 312.698819529275 612.709000613707 314.364170755492 612.626911533554 316.028791371783 C 612.544822453402 317.693411988073 612.447974347596 319.357302180305 612.337266676688 321.020267152703 C 612.22655900578 322.683232125101 612.10199192383 324.345272072298 611.964466018427 326.00623677166 C 611.826940113024 327.667201471023 611.676455528694 329.327091124816 611.513911738761 330.98579710556 C 611.351367948828 332.644503086303 611.1767650858 334.302025602398 610.990999428114 335.958294539871 C 610.805233770427 337.614563477344 610.608305435032 339.269579048788 610.401105630598 340.923306494162 C 610.193905826165 342.577033939535 609.976434649383 344.22947347315 609.749576631733 345.880622484447 C 609.522718614083 347.531771495744 609.286473826021 349.181630197665 609.041718861845 350.830224921448 C 608.796963897669 352.47881964523 608.543698794243 354.126150598661 608.282791396005 355.772269895292 C 608.021883997766 357.418389191922 607.753334299144 359.063297029825 607.478001150733 360.707068256106 C 607.202668002323 362.350839482387 606.920551345676 363.99347427998 606.632501506825 365.635067366333 C 606.344451667973 367.276660452687 606.050468523443 368.917211989224 605.75139522655 370.556833974438 C 605.452321929656 372.196455959651 605.148158277937 373.835148526059 604.839742682125 375.473038740976 C 604.531327086312 377.110928955893 604.218659249074 378.748016914424 603.902576570729 380.384443036771 C 603.586493892384 382.020869159119 603.266995962813 383.656633493274 602.944924459517 385.291888729162 C 602.622852956222 386.92714396505 602.298207336242 388.561890092568 601.971840681957 390.196291775983 C 601.645474027672 391.830693459398 601.317385640977 393.464750618178 600.988449294499 395.098640558111 C 600.65951294802 396.732530498044 600.329727763851 398.366253054388 600 400" fill="none" stroke="rgb(0, 0, 0)" stroke-width="2" />
  <path d="M 199.505477957346 402.450625851091 L 199.030529827342 402.354820936867 M 198.518890969135 407.352341720814 L 196.976142194616 407.04280101071 M 197.540006503255 412.255589475826 L 194.961923269595 411.743954978481 M 196.574003558444 417.161394847585 L 192.980037608773 416.459899154307 M 195.62596519672 422.070709878167 L 191.025490505327 421.192671219953 M 194.7009277324 426.98441400792 L 189.095743101584 425.944752540891 M 193.803917932873 431.903309915138 L 187.190357743728 430.71904478019 M 192.93998003761 436.828115096944 L 185.310676270876 435.51881566226 M 192.114194209354 441.759450065699 L 183.459531881665 440.34762490251 M 191.331687848675 446.697823927818 L 181.640993994537 445.20923859777 M 190.597641030021 451.643618011915 L 179.860144776223 450.107538395274 M 189.917287154142 456.597068120699 L 178.122885571347 455.046430265308 M 189.295909758231 461.558245896007 L 176.435771223181 460.029756520498 M 188.738836281373 466.527039708798 L 174.805870172237 465.061213741961 M 188.251429448876 471.503135415809 L 173.240648215472 470.144278422404 M 187.839076814806 476.485997261929 L 171.747873871381 475.282141381291 M 187.507178887537 481.474849152182 L 170.33554339428 480.477651329516 M 187.261136158403 486.46865646947 L 169.01182358564 485.733267355011 M 187.106335258509 491.466108573981 L 167.785010635259 491.051019568419 M 187.048134383562 496.465602087373 L 166.663503269886 496.432476695967 M 187.091848051062 501.465225039522 L 165.655788478358 501.878719043899 M 187.242731188488 506.462741937732 L 164.770438016163 507.390314994766 M 187.505962495127 511.455579807949 L 164.016113773521 512.967299038592 M 187.886626973978 516.440815254515 L 163.401579933822 518.609149296749 M 188.389697493683 521.41516258959 L 162.935719675158 524.314762563886 M 189.020015213748 526.374963095311 L 162.627554004292 530.082425067553 M 189.782268689348 531.316175501214 L 162.486260190287 535.90977741281 M 190.68097146478 536.234367786388 L 162.521187214614 541.793772517335 M 191.720437967237 541.124710450155 L 162.741865702605 547.730625719171 M 192.904757524819 545.981971436969 L 163.158009966567 553.715756612329 M 194.2377663548 550.800512950468 L 163.779510080215 559.743722484572 M 195.72301739996 555.574290448443 L 164.616412306958 565.808143440482 M 197.363747932364 560.296854174661 L 165.678886688549 571.901619333163 M 199.162844895307 564.961353655208 L 166.977181108059 578.015638446614 M 201.122808015193 569.56054566616 L 168.521561585672 584.1404774283 M 203.245710785974 574.086806266012 L 170.322238833552 590.265091254021 M 205.533159509335 578.532147580375 L 172.389281048972 596.376991039446 M 207.986250664184 582.888240128003 L 174.732512411432 602.462106373402 M 210.605526979059 587.146441586213 L 177.361395621032 608.504627683393 M 213.390932690941 591.297833010237 L 180.284894952878 614.486823179099 M 216.341768593568 595.333263644983 L 183.511313651865 620.388824463034 M 219.456647607667 599.24340559908 L 187.048096111991 626.188375331735 M 222.73345174468 603.018819789935 L 190.90158140153 631.860540044925 M 226.169291484385 606.650034714873 L 195.076690769086 637.377370830442 M 229.760468745455 610.127639757194 L 199.576528549899 642.707539921877 M 233.502444796373 613.442394897268 L 204.401874481526 647.815949024432 M 237.389814632229 616.585358867464 L 209.550547272401 652.663338307511 M 241.416289530838 619.548037965919 L 215.016626053211 657.205926583986 M 245.574723077672 622.322500630872 L 220.62238216717 661.665529276677 M 249.857816404447 624.900291108913 L 226.401597413976 666.036309491012 M 254.258020346212 627.272481182811 L 232.500966812297 670.045625102323 M 258.766852869051 629.430898100197 L 238.882511151074 673.683900814601 M 263.37498522617 631.368163328352 L 245.51113366158 676.942474512871 M 268.072353034762 633.077686974035 L 252.354109415079 679.813298709353 M 272.848259447368 634.553671499499 L 259.380535242657 682.288781753308 M 277.69147215135 635.791121719333 L 266.560790731994 684.361776463434 M 282.590315623371 636.785858420124 L 273.86605568235 686.025700843363 M 287.532759780039 637.534533285474 L 281.26791855363 687.274761047802 M 292.506505901129 638.034643132596 L 288.738097241896 688.104239499623 M 297.49907045808 638.284541773557 L 296.248280262021 688.510809579982 M 302.497867257725 638.283448104272 L 303.770084627807 688.492841217233 M 307.490288109476 638.031449297502 L 311.275117307827 688.050667682762 M 312.463782043463 637.529498232478 L 318.735120583386 687.186791771869 M 317.405932947381 636.779404533264 L 326.122178086117 685.906018219615 M 322.30453535108 635.783818810635 L 333.408957604803 684.215507702692 M 327.147667970196 634.546209908078 L 340.568968535944 682.12475528281 M 331.923764523391 633.070835141525 L 347.576815523875 679.645502023904 M 336.621681262035 631.362703694553 L 354.408434675233 676.791592375499 M 341.230760596436 629.427533486136 L 361.04130397362 673.578791636785 M 345.740890169 627.271701966488 L 367.454624441022 670.024577542313 M 350.142556711951 624.902191418186 L 373.629472597699 666.147918106436 M 354.426894035544 622.326529444558 L 379.548927454315 661.969044852766 M 358.585724521938 619.552725415305 L 385.198176441228 657.50922703587 M 362.611593550193 616.58920371043 L 390.564604372438 652.790549026082 M 366.497796349115 613.444734657856 L 395.637867979926 647.835690184573 M 370.238396866942 610.128364097556 L 400.409956106522 642.66770467783 M 373.82823836014 606.649342525648 L 404.875232763089 637.309797972382 M 377.262945537846 603.017054775666 L 409.030457407873 631.785097237218 M 380.538918253764 599.240951181184 L 412.874774416877 626.116414422225 M 383.6533169136 595.33048113404 L 416.409662111975 620.326003102165 M 386.604039963383 591.295029905716 L 419.638831092364 614.435312916951 M 389.389694042302 587.14385953581 L 422.56806201818 608.464748210468 M 392.00955762294 582.886054511166 L 425.204974321095 602.433439910176 M 394.463539222098 578.530472861961 L 427.558719345946 596.359041515905 M 396.752131546628 574.085703186966 L 429.639593868948 590.257561110758 M 398.876363241001 569.560027989278 L 431.458572484141 584.143241529633 M 400.837750226586 564.96139355606 L 433.026759731899 578.028500294904 M 402.638248966916 560.297386451238 L 434.354764874315 571.923939801269 M 404.280214358459 555.575216508644 L 435.452003815584 565.838436659307 M 405.766365332706 550.801706014853 L 436.325933821163 559.779317176225 M 407.099761662659 545.98328455583 L 436.981227442946 553.752623589079 M 408.283795895069 541.125988769569 L 437.418892387265 547.763472545561 M 409.32220477906 536.235465998109 L 437.63534376091 541.81650278805 M 410.219105032035 531.316980566709 L 437.621433652272 535.916401958351 M 410.979058775038 526.375421135474 L 437.361439322098 530.068491330305 M 411.607174482043 521.415307269463 L 436.832003812925 524.279329933659 M 412.109183210398 516.440787920103 L 436.324684168224 518.583982436962 M 412.490106770236 511.455532496139 L 435.878054640593 512.963669003157 M 412.754133541479 506.462750144414 L 435.217942032431 507.393949383752 M 412.905875389514 501.465311872447 L 434.37635949294 501.882917155877 M 412.950291048358 496.465759164608 L 433.380527038306 496.434985459778 M 412.892573662353 491.466310687349 L 432.253204650486 491.051840132731 M 412.738063476388 486.468871831653 L 431.013146489461 485.733227993928 M 412.492181670378 481.475046562684 L 429.675624720557 480.477579720116 M 412.160381750333 476.486151105386 L 428.252977621722 475.282479886877 M 411.748115303647 471.503229050483 L 426.755146514791 470.145004390208 M 411.260809300112 466.527067518069 L 425.190176515724 465.061948683224 M 410.703852472695 461.558214065662 L 423.564665442389 460.029970361167 M 410.08258864329 456.596994074305 L 421.884152767229 455.045667786031 M 409.402315168452 451.64352838996 L 420.153446160074 450.105613582843 M 408.668284968553 446.697751038122 L 418.376887136068 445.206358606702 M 407.885710870879 441.759426867225 L 416.55855991866 440.34441877784 M 407.059771242867 436.828169011054 L 414.702449167201 435.516254237533 M 406.195616116058 431.903456092011 L 412.812552980498 430.718247696891 M 405.29837320427 426.984649115704 L 410.892957794244 425.94668666501 M 404.373153401139 422.071008032919 L 408.947881613698 421.197752442896 M 403.425055502399 417.16170796764 L 406.981691596136 416.467517323338 M 402.459170037138 412.255855129358 L 404.998901425064 411.751950303801 M 401.48058220982 407.352502444483 L 403.004153285635 407.046930755744 M 400.494374050945 402.450664955215 L 401.002188629766 402.348268856817 M 399.505625949055 397.549335044785 L 398.99781137027 397.651731143175 M 398.51941779018 392.647497555517 L 396.995846714398 392.95306924425 M 397.540829962862 387.744144870642 L 395.001098574961 388.248049696195 M 396.574944497601 382.83829203236 L 393.018308403879 383.53248267666 M 395.626846598859 377.928991967081 L 391.052118386305 378.802247557104 M 394.701626795728 373.015350884296 L 389.107042205744 374.053313334993 M 393.80438388394 368.096543907989 L 387.187447019477 369.281752303114 M 392.94022875713 363.171830988946 L 385.297550832763 364.483745762473 M 392.114289129118 358.240573132775 L 383.441440081294 359.655581222167 M 391.331715031444 353.302248961878 L 381.623112863881 354.793641393305 M 390.597684831545 348.356471610041 L 379.846553839875 349.894386417164 M 389.917411356707 343.403005925695 L 378.115847232727 344.954332213973 M 389.296147527303 338.441785934338 L 376.435334557579 339.970029638835 M 388.739190699887 333.472932481932 L 374.809823484263 334.938051316776 M 388.251884696353 328.496770949518 L 373.24485348522 329.854995609789 M 387.839618249668 323.513848894615 L 371.747022378315 324.717520113118 M 387.507818329624 318.524953437316 L 370.324375279505 319.522420279879 M 387.261936523614 313.531128168347 L 368.986853510619 314.266772006068 M 387.107426337649 308.533689312651 L 367.7467953496 308.948159867268 M 387.049708951643 303.534240835392 L 366.619472961763 303.565014540225 M 387.094124610487 298.534688127553 L 365.62364050708 298.117082844127 M 387.245866458521 293.537249855586 L 364.782057967494 292.606050616248 M 387.509893229763 288.544467503861 L 364.121945359179 287.036330996828 M 387.890816789602 283.559212079898 L 363.675315831319 281.41601756299 M 388.39282551796 278.584692730538 L 363.167996186821 275.720670066292 M 389.020941224969 273.624578864527 L 362.638560678105 269.931508669701 M 389.780894967975 268.683019433292 L 362.378566348142 264.083598041704 M 390.677795220951 263.764534001892 L 362.364656239546 258.183497212037 M 391.716204104942 258.874011230432 L 362.581107613128 252.236527454538 M 392.90023833735 254.01671544417 L 363.018772557327 246.247376411013 M 394.233634667298 249.198293985146 L 363.674066178968 240.220682823843 M 395.719785641541 244.424783491354 L 364.547996184411 234.161563340724 M 397.361751033079 239.702613548758 L 365.645235125564 228.076060198718 M 399.162249773405 235.038606443935 L 366.973240267893 221.97149970504 M 401.123636758987 230.439972010716 L 368.541427515596 215.85675847027 M 403.247868453358 225.914296813027 L 370.360406130769 209.742438889113 M 405.536460777888 221.469527138032 L 372.441280653778 203.640958483945 M 407.990442377047 217.113945488828 L 374.79502567866 197.566560089666 M 410.610305957687 212.856140464185 L 377.431937981623 191.53525178938 M 413.395960036608 208.70497009428 L 380.361168907498 185.564687082915 M 416.346683086395 204.669518865959 L 383.590337887949 179.67399689773 M 419.461081746235 200.759048818818 L 387.125225583109 173.883585577709 M 422.737054462157 196.982945224339 L 390.969542592169 168.214902762762 M 426.171761639866 193.350657474361 L 395.124767237 162.690202027645 M 429.761603133068 189.871635902456 L 399.590043893602 157.332295322246 M 433.502203650898 186.55526534216 L 404.362132020222 152.164309815548 M 437.388406449822 183.410796289588 L 409.435395627721 147.209450974079 M 441.414275478079 180.447274584715 L 414.801823558929 142.490772964321 M 445.573105964473 177.673470555463 L 420.451072545831 138.030955147446 M 449.857443288066 175.097808581835 L 426.370527402427 133.852081893785 M 454.259109831017 172.728298033532 L 432.545375559078 129.975422457904 M 458.769239403579 170.572466513883 L 438.958696026449 126.421208363414 M 463.378318737979 168.637296305463 L 445.591565324806 123.208407624668 M 468.076235476622 166.929164858487 L 452.423184476134 120.354497976219 M 472.852332029816 165.45379009193 L 459.431031464039 117.875244717259 M 477.695464648931 164.216181189369 L 466.591042395163 115.784492297315 M 482.594067052629 163.220595466735 L 473.877821913839 114.093981780328 M 487.536217956547 162.470501767517 L 481.264879416571 112.813208228011 M 492.509711890533 161.96855070249 L 488.724882692138 111.949332317061 M 497.502132742284 161.716551895717 L 496.229915372176 111.507158782547 M 502.500929541929 161.715458226431 L 503.751719737983 111.489190419774 M 507.49349409888 161.965356867392 L 511.261902758132 111.895760500133 M 512.46724021997 162.465466714514 L 518.732081446417 112.72523895198 M 517.409684376638 163.214141579866 L 526.133944317708 113.974299156472 M 522.308527848659 164.208878280659 L 533.439209268061 115.638223536478 M 527.151740552639 165.446328500496 L 540.619464757378 117.711218246699 M 531.927646965244 166.922313025963 L 547.645890584921 120.186701290751 M 536.625014773836 168.631836671648 L 554.488866338374 123.057525487316 M 541.233147130955 170.569101899804 L 561.117488848837 126.316099185632 M 545.741979653794 172.727518817191 L 567.499033187598 129.954374897887 M 550.142183595559 175.099708891088 L 573.598402585966 133.963690509075 M 554.425276922335 177.677499369127 L 579.377617832931 138.334470723152 M 558.583710469168 180.45196203408 L 584.983373946965 142.79407341578 M 562.610185367777 183.414641132537 L 590.449452727662 147.336661692436 M 566.497555203632 186.557605102734 L 595.598125518454 152.184050975618 M 570.23953125455 189.872360242809 L 600.423471450027 157.292460078222 M 573.830708515619 193.34996528513 L 604.923309230812 162.622629169669 M 577.266548255323 196.981180210067 L 609.098418598362 168.139459955173 M 580.543352392337 200.756594400922 L 612.951903887913 173.811624668339 M 583.658231406437 204.666736355018 L 616.488686348064 179.611175537008 M 586.609067309066 208.702166989763 L 619.715105047087 185.51317682091 M 589.39447302095 212.853558413785 L 622.638604378975 191.495372316587 M 592.013749335826 217.111759871995 L 625.267487588618 197.537893626555 M 594.466840490677 221.467852419622 L 627.610718951119 203.623008960495 M 596.75428921404 225.913193733985 L 629.677761166573 209.734908745912 M 598.877191984821 230.439454333836 L 631.478438414477 215.859522571634 M 600.837155104707 235.038646344788 L 633.022818892103 221.984361553326 M 602.636252067649 239.703145825335 L 634.321113311611 228.098380666788 M 604.276982600052 244.425709551554 L 635.383587693187 234.191856559485 M 605.762233645209 249.19948704953 L 636.220489919901 240.256277515411 M 607.095242475188 254.018028563029 L 636.841990033511 246.284243387671 M 608.279562032767 258.875289549844 L 637.258134297425 252.269374280841 M 609.319028535221 263.765632213612 L 637.478812785365 258.206227482688 M 610.217731310649 268.683824498786 L 637.51373980964 264.090222587219 M 610.979984786246 273.62503690469 L 637.372445995587 269.917574932477 M 611.61030250631 278.584837410411 L 637.064280324681 275.685237436142 M 612.113373026013 283.559184745486 L 636.598420065988 281.390850703272 M 612.494037504863 288.544420192052 L 635.983886226275 287.032700961422 M 612.757268811504 293.537258062269 L 635.229561983635 292.609685005239 M 612.908151948931 298.53477496048 L 634.34421152146 298.121280956098 M 612.951865616433 303.534397912628 L 633.336496729969 303.567523304023 M 612.893664741488 308.533891426021 L 632.214989364645 308.948980431567 M 612.738863841598 313.531343530532 L 630.988176414327 314.266732644977 M 612.492821112468 318.52515084782 L 629.664456605756 319.522348670475 M 612.160923185203 323.514002738073 L 628.252126128726 324.717858618707 M 611.748570551135 328.496864584193 L 626.759351784699 329.855721577605 M 611.26116371864 333.472960291204 L 625.194129827987 334.938786258059 M 610.704090241783 338.441754103995 L 623.564228777077 339.970243479532 M 610.082712845872 343.402931879303 L 621.877114428921 344.953569734729 M 609.402358969992 348.356381988086 L 620.139855224025 349.892461604766 M 608.668312151336 353.302176072184 L 618.359006005659 354.790761402266 M 607.885805790654 358.240549934303 L 616.540468118448 359.652375097515 M 607.060019962393 363.171884903057 L 614.689323729128 364.481184337747 M 606.196082067126 368.096690084861 L 612.809642256153 369.280955219794 M 605.299072267597 373.015585992079 L 610.904256898175 374.055247459068 M 604.374034803274 377.929290121832 L 608.974509494339 378.807328779984 M 603.425996441549 382.838605152414 L 607.019962390863 383.540100845622 M 602.45999349674 387.744410524173 L 605.038076730127 388.256045021463 M 601.481109030862 392.647658279185 L 603.02385780537 392.957198989287 M 600.494522042653 397.549374148908 L 600.969470173167 397.645179063235" fill="none" stroke="rgb(0, 0, 255)" stroke-width="0.5" />
  <circle cx="200" cy="400" r="10" fill="rgb(255, 0, 0)" stroke="none" stroke-width="0" />
  <circle cx="400.00000000000011" cy="400.00000000000006" r="10" fill="rgb(255, 0, 0)" stroke="none" stroke-width="0" />
  <circle cx="599.99999999999989" cy="399.99999999999989" r="10" fill="rgb(255, 0, 0)" stroke="none" stroke-width="0" />
</svg>