<?xml version="1.0" encoding="utf-8"?>
<svg viewBox="0 0 768 768" version="1.1" xmlns="http://www.w3.org/2000/svg">
  <path style="fill:none; stroke:black; stroke-width:2" d="M178,363  C173.893256754375,362.348682700608 169.493705695982,361.930863869351 165.337755013849,361.797485752234 C161.181804331716,361.664107635118 156.764513864516,361.79896474207 152.62444334044,362.185618732547 C148.484372816363,362.572272723023 144.118511299272,363.25770165729 140.059145353667,364.158344934 C135.999779408062,365.058988210711 131.753703906068,366.284272976992 127.838602901596,367.684818666114 C123.923501897123,369.085364355236 119.86369874205,370.83133519729 116.15416745749,372.709860706296 C112.444636172929,374.588386215303 108.634676812503,376.827703614131 105.188793769976,379.154778818155 C101.742910727449,381.481854022178 98.2424365857313,384.179421089126 95.1141183136788,386.918557783762 C91.9858000416262,389.657694478399 88.8495525357953,392.771198217652 86.0876688293318,395.879420194793 C83.3257851228683,398.987642171933 80.6026987589796,402.468221767473 78.2502563711682,405.896752555452 C75.8978139833568,409.325283343432 73.6301915870415,413.118321032298 71.7236045492529,416.81338376833 C69.8170175114642,420.508446504362 68.0398071385793,424.554473731125 66.6082720654135,428.458194802621 C65.1767369922477,432.361915874116 63.9169299092357,436.597624280758 62.9819241934986,440.649029282739 C62.0469184777615,444.700434284719 61.3230868019368,449.059777675664 60.8980065478735,453.195864884025 C60.4729262938101,457.331952092386 60.2949174399509,461.747321826201 60.3848703183454,465.904194781131 C60.47482319674,470.061067736061 60.843626188228,474.464520033393 61.4453921250864,478.578556963724 C62.0471580619449,482.692593894055 62.9549540322718,487.017103315643 64.0571237636048,491.026137013379 C65.1592934949378,495.035170711114 66.5896993286697,499.215879550238 68.1729973673938,503.060356924913 C69.7562954061179,506.904834299588 71.684805447396,510.880262850095 73.7225999145692,514.504348755016 C75.7603943817424,518.128434659936 78.1550204730812,521.841612263998 80.6140175445829,525.194197290735 C83.0730146160846,528.546782317473 85.8951229255866,531.946255712572 88.7362339222404,534.981820025172 C91.5773449188941,538.017384337772 94.782629327458,541.058013416346 97.9618745823586,543.737293303735 C101.141119837259,546.416573191123 104.680631005385,549.060239661559 108.150305155519,551.350911096167 C111.619979305654,553.641582530775 115.441446304271,555.857805722812 119.15124901866,557.734828397672 C122.861051733049,559.611851072532 126.910043156857,561.377983833996 130.80823001583,562.823722893174 C134.706416874803,564.269461952353 138.927597801425,565.570732632895 142.962163908005,566.574908202164 C146.996730014585,567.579083771432 151.335115189816,568.408447055793 155.454946430936,568.96790281536 C159.574777672056,569.527358574927 163.97692012911,569.885153785026 168.132861852563,570.003449582007 C172.288803576016,570.121745378988 176.703872862851,570.015174180844 180.849679101392,569.702019027518 C184.995485339933,569.388863874191 189.376202921808,568.83131008822 193.469341178613,568.101860832979 C197.562479435419,567.372411577739 201.865890659962,566.382633999402 205.868187669766,565.256691490728 C209.87048467957,564.130748982055 214.05855693872,562.731983774123 217.936679736344,561.233122463791 C221.814802533968,559.734261153459 225.854847931229,557.9532734713 229.580621993939,556.10794212145 C233.306396056649,554.262610771599 237.171323989159,552.128735828936 240.721896171281,549.965366298583 C244.272468353403,547.801996768231 247.940878946383,545.346208542697 251.298737393933,542.894366532686 C254.656595841484,540.442524522676 258.112729127657,537.696565738266 261.265595347342,534.986171869629 C264.418461567027,532.275778000992 267.652019685647,529.271377908115 270.592629446515,526.332019597269 C273.533239207382,523.392661286423 276.539099706501,520.160858089775 279.26488947374,517.02120236498 C281.99067924098,513.881546640186 284.768516802612,510.452119200009 287.281230941514,507.139423876986 C289.793945080415,503.826728553963 292.347776651232,500.227727207506 294.653007695144,496.767432708131 C296.958238739056,493.307138208756 299.295899933255,489.564485708826 301.402574211676,485.97985365177 C303.509248490097,482.395221594713 305.641831826318,478.532332435879 307.561840215741,474.844306671647 C309.481848605164,471.156280907415 311.423498928939,467.194210685929 313.1713697604,463.421513739838 C314.919240591862,459.648816793746 316.68661733044,455.606218471406 318.27900015653,451.765286520443 C319.871382982619,447.924354569481 321.483146707989,443.817452651391 322.938390849834,439.922494484202 C324.393634991679,436.027536317013 325.870053222969,431.870259545957 327.207871952615,427.933427978063 C328.54569068226,423.99659641017 329.908319050537,419.800808110276 331.149513577096,415.832447959103 C332.390708103654,411.864087807929 333.662123178386,407.63988121755 334.828347056996,403.648827401143 C335.994570935607,399.657773584736 337.198137268053,395.413808713693 338.311687193694,391.407715912344 C339.425237119336,387.401623110994 340.584896139019,383.145489172124 341.668519322524,379.131180783368 C342.752142506029,375.116872394612 343.892214812153,370.855465693752 344.968926263401,366.839294518476 C346.045637714649,362.823123343201 347.19063303488,358.56303466549 348.283538098103,354.551250886084 C349.376443161327,350.539467106678 350.550873805782,346.287375110233 351.68299220417,342.286498660908 C352.815110602557,338.285622211584 354.043304621094,334.048690132308 355.237392072473,330.065884516873 C356.431479523852,326.083078901438 357.737388979848,321.869350984859 359.015751142125,317.912793968349 C360.294113304401,313.95623695184 361.701111108193,309.775028459552 363.085402202445,305.854271847219 C364.469693296698,301.933515234886 366.000348896594,297.795785624292 367.511343837263,293.922091544508 C369.022338777932,290.048397464725 370.698158686429,285.967090411364 372.355482921891,282.153725138059 C374.012807157354,278.340359864754 375.853920794606,274.330686186638 377.675716327608,270.593144571846 C379.49751186061,266.855602957055 381.522276526598,262.935233209993 383.524775742503,259.291357248106 C385.527274958408,255.647481286219 387.751752040436,251.836588163062 389.948749910058,248.306562914427 C392.14574777968,244.776537665791 394.583155897456,241.097805860224 396.985671549941,237.704315196012 C399.388187202426,234.310824531799 402.048673544569,230.789685892592 404.664542530608,227.55784882833 C407.280411516647,224.326011764068 410.170440291888,220.990325197758 413.003751743316,217.947383351233 C415.837063194745,214.904441504708 418.958835805157,211.784144199515 422.009412865911,208.959100538719 C425.059989926664,206.134056877922 428.410919788648,203.260742537568 431.673854403011,200.683911103301 C434.936789017374,198.107079669034 438.509039987323,195.513464452884 441.974295889214,193.215906289469 C445.439551791105,190.918348126053 449.219657790149,188.637607785516 452.871760125063,186.650445501158 C456.523862459978,184.663283216799 460.492449774389,182.728261806354 464.310282516324,181.081879834184 C468.12811525826,179.435497862015 472.25975090393,177.877802598431 476.21648410307,176.600952340116 C480.173217302211,175.324102081802 484.436406783144,174.173110427052 488.49957469635,173.29194903311 C492.562742609556,172.410787639168 496.920098371479,171.692601491202 501.051846686685,171.229700065775 C505.183595001891,170.766798640348 509.592192882909,170.503186631343 513.749708550368,170.476548144186 C517.907224217826,170.449909657028 522.319159228571,170.65728198089 526.455289856511,171.079411125704 C530.59142048445,171.501540270517 534.954565310321,172.190001190333 539.018626670016,173.067067846343 C543.082688029711,173.944134502353 547.34164773762,175.116655724158 551.280407653078,176.447790556966 C555.219167568536,177.778925389773 559.31641212008,179.430678831414 563.075226890547,181.207433909667 C566.834041661014,182.98418898792 570.71118398314,185.102070120949 574.235249502426,187.308069227281 C577.759315021712,189.514068333613 581.358486564743,192.076431232057 584.59415045995,194.687223810015 C587.829814355158,197.298016387972 591.095072276543,200.274628880472 593.991135690143,203.257748283802 C596.887199103742,206.240867687132 599.765858154419,209.593062146425 602.27486424782,212.908334264641 C604.783870341221,216.223606382857 607.227983270693,219.904856140101 609.307544300543,223.505084933207 C611.387105330393,227.105313726312 613.354684817451,231.061998774232 614.968560905985,234.893689269691 C616.58243699452,238.725379765149 618.038600478125,242.897635431446 619.157718941217,246.901925165135 C620.276837404308,250.906214898823 621.194797666194,255.229034594894 621.798081635228,259.342808875053 C622.401365604262,263.456583155212 622.763201262413,267.861082090892 622.838188089115,272.018215608813 C622.913174915817,276.175349126735 622.710371952935,280.590134069047 622.253613773573,284.722808889452 C621.796855594212,288.855483709858 621.030615773784,293.208078878429 620.047861608877,297.24813457562 C619.065107443969,301.288190272811 617.746426419458,305.506475417774 616.2525912927,309.386752613208 C614.758756165942,313.267029808642 612.908280094971,317.280652211546 610.927211870585,320.936296014428 C608.9461436462,324.591939817311 606.593818181555,328.333667391841 604.157877142633,331.703362246696 C601.721936103711,335.07305710155 598.906465746466,338.480044948707 596.0559353681,341.50715715262 C593.205404989735,344.534269356533 589.973543956825,347.549217048316 586.755893866991,350.182825715732 C583.538243777157,352.816434383148 579.943941756307,355.388615909753 576.412965524447,357.584417434237 C572.881989292586,359.78021895872 568.985416731606,361.866371676804 565.200267879791,363.587446767151 C561.415119027976,365.308521857497 557.281596933089,366.873584921126 553.305746427424,368.091021073566 C549.32989592176,369.308457226005 545.028754520855,370.326153867593 540.928891971451,371.019519676587 C536.829029422047,371.71288548558 532.432418483481,372.166147141313 528.277317359894,372.323818148606 C524.122216236307,372.481489155899 519.703887322172,372.362722798941 515.563251677655,371.982061634102 C511.422616033138,371.601400469263 507.056693507766,370.912603624363 503,370" />
  <path style="fill:none; stroke:green; stroke-width:0.5" d="M 175.492234375273,362.666026135354 188.478563136483,265.153399073688 M 170.463185872887,362.123277217421 178.581182090564,264.08587148729 M 165.413352645769,361.831443530458 168.642992982556,263.511658810519 M 160.35525121965,361.791248851617 158.68853058846,263.432208190799 M 155.301416803121,362.002793749979 148.742376427267,263.84778072348 M 150.264372790785,362.465555594979 138.829107444305,264.757442095409 M 145.256600263955,363.178389912678 128.973242374915,266.159057563256 M 140.290507522196,364.13953311566 119.199186764239,268.049291184203 M 135.37839968598,365.346606629711 109.531177450531,270.423608992702 M 130.532448417139,366.796622437656 99.9932271166196,273.276285667322 M 125.76466180986,368.485990057737 90.6090692980664,276.600414156238 M 121.086854510476,370.410524970737 81.4021040265871,280.387917724014 M 116.510618129401,372.565458506683 72.3953440999265,284.629563937157 M 112.047292013187,374.945449198359 63.6113618177264,289.314980209763 M 107.707934448817,377.544595605119 55.0722359162838,294.432670669439 M 103.503294376096,380.356450606502 46.7994983786317,299.970034262561 M 99.4437836871696,383.374037161 38.8140807912244,305.913384181712 M 95.5394501950447,386.589865520954 31.1362599620289,312.247968852426 M 91.7999513552538,389.995951890017 23.7856026009171,318.957994848602 M 88.2345288266813,393.583838504859 16.7809089830697,326.026652205785 M 84.8519839589526,397.344615117834 10.1401556586455,333.436142661522 M 81.6606542947192,401.268941852205 3.88043742493612,341.167711368101 M 78.6683911756422,405.347073396162 -1.98209107211632,349.201682594499 M 75.8825385408811,409.568884496345 -7.43227360417642,357.517499863902 M 73.3099130064432,413.92389670585 -12.4560098814455,366.093770866864 M 70.9567853128317,418.401306335751 -17.0403116397311,374.908317356479 M 68.8288632270517,422.990013553075 -21.1733565708786,383.93823008203 M 66.9312759831962,427.678652561824 -24.8445393838918,393.159928663542 M 65.2685603435336,432.455622797124 -28.0445193382014,402.549226164615 M 63.8446483592547,437.309121055879 -30.7652636847258,412.0813979973 M 62.6628569068142,442.227174480383 -33.0000865771998,421.731254701981 M 61.7258790721183,447.197674304258 -34.7436831651651,431.473218096181 M 61.0357774506603,452.20841026276 -35.9921587380164,441.281400285081 M 60.5939794271014,457.247105562022 -36.7430529418519,451.129685075637 M 60.4012744927211,462.301452294088 -36.9953592221655,460.99181143367 M 60.4578136536337,467.35914717672 -36.7495397406198,470.841458763214 M 60.7631109766717,472.407927488871 -36.0075360597227,480.652333959292 M 61.3160473133854,477.435607064413 -34.7727758743901,490.398260374902 M 62.1148762356906,482.430112198273 -33.0501759869679,500.053269032887 M 63.1572322093204,487.379517310417 -30.8461415698425,509.591692583708 M 64.440141023397,492.272080204268 -28.168561540119,518.98826263996 M 65.9600324861416,497.096276747088 -25.0267995925424,528.218211187149 M 67.712755387976,501.840834790573 -21.431680114234,537.257376758722 M 69.6935947240486,506.494767140457 -17.3954678577147,546.082315956095 M 71.897291158532,511.04740337428 -12.9318399015696,554.670420680554 M 74.3180627028933,515.488420296607 -8.05584810898884,563.000041118933 M 76.9496285697296,519.807870810947 -2.78387003309055,571.050614091457 M 79.7852351526947,523.996210977375 2.86645395589137,578.802795838547 M 82.8176840715084,528.044325014431 8.87629960553633,586.238597712006 M 86.0393621799258,531.943547975521 15.2257559549203,593.341522552131 M 89.4422676642396,535.685682961062 21.8967851616671,600.093886632196 M 93.0180318847609,539.263016921555 28.8669688795776,606.482104231838 M 96.757958738174,542.668347715032 36.1146859897102,612.492848225944 M 100.653069299532,545.895008374645 43.6181737409956,618.113476901205 M 104.694133971345,548.936878055599 51.3545827366826,623.333208621561 M 108.871704695539,551.788390073903 59.300320867964,628.14309289983 M 113.176148767819,554.444538229411 67.4313394753537,632.535950263636 M 117.597683819877,556.900881249597 75.7233659166806,636.506295310965 M 122.126413568431,559.153545225219 84.1520891004145,640.050254328817 M 126.752363962539,561.19922394193 92.6933059815878,643.165485712527 M 131.46551939193,563.035177042925 101.323037583744,645.851108399344 M 136.255858649314,564.659225986987 110.017622924826,648.107640800856 M 141.113390368662,566.069747793655 118.75379844093,649.936950417433 M 146.028187689401,567.265666592836 127.50876928736,651.342212525279 M 150.990421923293,568.246443019903 136.260277419271,652.327875076523 M 155.990395026397,569.012061519253 144.986669770884,652.899626237186 M 161.018570703151,569.563015639377 153.666968299976,653.064360765347 M 166.065603992944,569.900291420728 162.280942255514,652.830141635076 M 171.122369211945,570.025348994129 170.809181845997,652.206153855696 M 176.17998614405,569.940102522034 179.233171590777,651.202648225239 M 181.229844394918,569.646898627722 187.535361054762,649.83087369314 M 186.26362584195,569.148493468453 195.699230400677,648.102997994876 M 191.273325130883,568.448028617699 203.709348221769,646.032017174044 M 196.251268186322,567.54900592887 211.551419401628,643.631655452416 M 201.190128719098,566.455261558358 219.212321232983,640.916257589822 M 206.082942727724,565.170939329389 226.680126651536,637.90067635639 M 210.923121004541,563.700463619919 233.944114138719,634.600158002033 M 215.704459669288,562.048511957791 240.994764555282,631.030228652933 M 220.421148763862,560.219987504493 247.823745828971,627.206584409204 M 225.067778951968,558.219991605157 254.423886987222,623.144987591673 M 229.639346376103,556.053796576894 260.789143464915,618.861171128105 M 234.13125573201,553.726818900237 266.914555906286,614.370752524141 M 238.539321627227,551.24459296923 272.796204810352,609.689158277534 M 242.859768295803,548.612745544703 278.431163344474,604.831559009289 M 247.089227745482,545.836971042443 283.817450484805,599.812815040861 M 251.224736416834,542.923007773248 288.953986357804,594.647431674819 M 255.263730435823,539.876615235391 293.840551282044,589.349523061401 M 259.204039542189,536.703552541643 298.477749576385,583.932783271033 M 263.043879775808,533.409558042878 302.866978742935,578.410463050231 M 266.781845001807,530.00033018824 307.010404184387,572.795350714653 M 270.416897352757,526.481509638073 310.910939206602,567.09975572009 M 273.948356662622,522.858662620125 314.572229716138,561.335493635487 M 277.375888962426,519.137265492073 317.998642771429,555.513871501848 M 280.699494101726,515.322690444088 321.195258001776,549.645672873654 M 283.91949255298,511.420192244028 324.167860879567,543.741142179224 M 287.036511447791,507.434895894858 326.922936919688,537.809968376576 M 290.051469884748,503.37178503911 329.467666079303,531.861268195721 M 292.965563538225,499.235690908561 331.80991692615,525.903569523256 M 295.780248585991,495.031281578816 333.958240511275,519.944795680238 M 298.49722496575,490.763051204734 335.921864296844,513.992251410514 M 301.118421490359,486.435310105141 337.705278939491,508.049450861728 M 303.645991966546,482.052188226911 339.30450361784,502.115085494445 M 306.082313309594,477.61764755077 340.729699682605,496.196022770251 M 308.4299717526,473.13548350197 341.99092015537,490.297971299416 M 310.691744737692,468.609319769043 343.097691927595,484.425418808754 M 312.870584421799,464.042605181302 344.059044470661,478.581809285912 M 314.969602770328,459.438612723144 344.883552974609,472.769695413647 M 316.992058052727,454.800440422287 345.579389829613,466.99086755457 M 318.941342570329,450.131013873045 346.154379601858,461.246461323596 M 320.820971462566,445.433090178552 346.616053814174,455.537046242797 M 322.63457245234,440.709263117412 346.971702877077,449.862698177195 M 324.38587640534,435.961969360627 347.228423405162,444.223058261945 M 326.078708591145,431.193495583844 347.393159890357,438.617380905514 M 327.716980546232,426.405986337929 347.472740291088,433.044573235635 M 329.304682450402,421.601452557628 347.473905545497,427.503228081817 M 330.845875938726,416.781780603655 347.403333341828,421.991652289074 M 332.344687280809,411.948741747899 347.267656696522,416.507891854007 M 333.805300868095,407.104002024606 347.073478017641,411.049755082264 M 335.231952957952,402.24913238232 346.827379384983,405.614834696402 M 336.628925630478,397.385619082148 346.535929775212,400.200529581875 M 338.000540920364,392.514874297439 346.205689915753,394.804066649782 M 339.351155091605,387.638246878297 345.843215379112,389.422523118804 M 340.685153027609,382.757033251519 345.455058442331,384.052849374808 M 342.006942713005,377.872488432445 345.04776914521,378.691892452561 M 343.320949786517,372.985837129963 344.62789589508,373.336420097366 M 344.631612146365,368.098284929416 344.201985892708,367.983145302203 M 345.943374591016,363.211029540507 343.776585599101,362.628751175573 M 347.260683478523,358.325272098388 343.358241430525,357.269915974668 M 348.587981387366,353.442228506039 342.953500861177,351.903338136398 M 349.929701760458,348.563140804786 342.568914130135,346.525761155 M 351.290263511942,343.689288557257 342.211036790196,341.133998190058 M 352.674065573493,338.82200022343 341.886433397934,335.724956344377 M 354.085481353115,333.962664505492 341.60168272202,330.295660629647 M 355.528853074822,329.112741631148 341.363384933986,324.843277742123 M 357.008485962177,324.273774537689 341.178171333691,319.365139903558 M 358.528642222402,319.447399910633 341.052717240749,313.858769187154 M 360.093534780659,314.635359021024 340.993758740974,308.321902946257 M 361.707320706142,309.839508294571 341.008113999883,302.752521195334 M 363.374094262858,305.061829533664 341.102709827994,297.148877056888 M 365.097879508307,300.304439700002 341.284614088309,291.509531679646 M 366.882622352821,295.569600151007 341.561074356807,285.833395344292 M 368.732181981001,290.8597252075 341.9395629632,280.119776789702 M 370.650321524521,286.177389913145 342.427828132751,274.368443095675 M 372.64069786258,281.525336828037 343.033950402955,268.57969272084 M 374.706850412451,276.906481679471 343.766402786551,262.754444481401 M 376.852188757849,272.323917672373 344.634112285675,256.894345322983 M 379.079978947385,267.780918240109 345.646519331262,251.001899629453 M 381.393328278929,263.280937993464 346.813630542202,245.0806224653 M 383.795168368563,258.82761160138 348.146058906603,239.135218491637 M 386.288236504404,254.424750579453 349.654652677958,233.171559775432 M 388.875061863608,250.076345503216 351.336037261268,227.187854930769 M 391.557963651252,245.786580036961 353.194927601228,221.186579733514 M 394.339046045609,241.559838048088 355.241473575993,215.174173462092 M 397.220181795413,237.40069620373 357.485196268889,209.157727489014 M 400.202994203975,233.313914518494 359.934987925117,203.144982199386 M 403.288839672331,229.304427014613 362.599109327469,197.1443215675 M 406.478790784897,225.377332145251 365.485185351874,191.164766219713 M 409.773619944848,221.537882687876 368.600199011719,185.215965744683 M 413.173783582589,217.791474857483 371.950483871465,179.308190843233 M 416.679406975361,214.143636430461 375.54171434724,173.45232566378 M 420.290269729368,210.600013708948 379.378893142488,167.659860363424 M 424.005791987656,207.166357192596 383.466334909873,161.942883591631 M 427.825021437508,203.848505859919 387.807645197325,156.314074238387 M 431.746621200142,200.652369994611 392.40569382889,150.786691449242 M 435.768858693172,197.583912523571 397.262582083889,145.37456161328 M 439.889595562556,194.649128862783 402.379603357114,140.092060803247 M 444.106278785557,191.854025294659 407.757197387515,134.954091013119 M 448.415933049689,189.204595925994 413.394898606053,129.976048516167 M 452.815154514621,186.706798299334 419.291279643099,125.173782768934 M 457.300106064617,184.366527752181 425.443891516615,120.56354451894 M 461.866514158288,182.189590638287 431.849202457066,116.161922133256 M 466.509667380171,180.181676543055 438.502537676906,111.985765639092 M 471.224416795084,178.348329641014 445.398022627471,108.052098533989 M 476.005178201085,176.694919357267 452.528532375458,104.378018050501 M 480.845936370464,175.226610506874 459.885649654484,100.980585208146 M 485.740251360306,173.948333096234 467.459633894624,97.8767066069791 M 490.68126696488,172.864751978719 475.239403107964,95.0830104613927 M 495.661721371422,171.980236563057 483.212529929094,92.6157197884716 M 500.673960068798,171.298830777288 491.365252410096,90.4905259051075 M 505.709951044979,170.824223493529 499.682499398247,88.722465413596 M 510.761302294379,170.559719619205 508.147929542924,87.3258036414411 M 515.819281639735,170.508212058999 516.743982256579,86.3139270400721 M 520.874838855493,170.672154748333 525.45193836821,85.6992463524006 M 525.918630060471,171.05353695389 534.251987829985,85.493111466508 M 530.941044327038,171.653859029439 543.123301734172,85.7057378408209 M 535.932232432028,172.47410980603 552.044106119053,86.3461432944961 M 540.882137651249,173.51474578454 560.991755619157,87.4220929024197 M 545.78052847462,174.775672285478 569.942805950459,88.9400488265593 M 550.617033092765,176.256226696034 578.873085488213,90.9051212694881 M 555.381175478264,177.955163937408 587.757767733284,93.3210164648344 M 560.06241285572,179.870644256682 596.57144817705,96.1899778256772 M 564.650174324357,182.000223426696 605.288230836234,99.5127171379335 M 569.133900364993,184.340845414736 613.881831377578,103.288334063969 M 573.503082929979,186.88883755622 622.325705104027,107.51422422412 M 577.747305779993,189.639908243011 630.593208929728,112.185978712722 M 581.856284695479,192.589147107534 638.657806630565,117.297280984623 M 585.819907153052,195.731027653466 646.493325936669,122.83981045922 M 589.628271018222,199.059412251427 654.07427428867,128.803165710962 M 593.271721765491,202.567559383861 661.376217227364,135.174823474202 M 596.740889540673,206.248134020107 668.374737525049,141.941466504102 M 600.02673773165,210.093229711375 675.044955304113,149.088993158723 M 603.120607165578,214.094395746831 681.366539613341,156.598879970026 M 606.014244256019,218.242656223367 687.31679207915,164.454096258227 M 608.699832557395,222.528528919055 692.874196164881,172.635786833776 M 611.170027620741,226.942048994298 698.018537866735,181.123443461316 M 613.417989793961,231.472795639376 702.73100313377,189.895072882796 M 615.437414811049,236.109921349084 706.994255346465,198.927358927734 M 617.222562059071,240.842183529105 710.792496195654,208.195817190573 M 618.768280428754,245.657978150794 714.111513094973,217.674941592645 M 620.070031671021,250.545375182803 716.938715899769,227.338342846356 M 621.123911197544,255.492155539607 719.263165238322,237.158879378933 M 621.926666278488,260.485849298406 721.075594233904,247.108781642326 M 622.475711605005,265.513774947128 722.368424854255,257.159770936727 M 622.769142197788,270.563079437286 723.135779609612,267.283173920954 M 622.805743656032,275.620778826342 723.373488865605,277.450033895616 M 622.584999753514,280.673799304892 723.079093669121,287.631219753056 M 622.107097400223,285.709018414492 722.251843720094,297.797533223828 M 621.372928998955,290.713306272255 720.892689967243,307.919814746355 M 620.384092236661,295.673566628482 719.004271259378,317.969047976825 M 619.142887359957,300.576777593531 716.590894536239,327.916462669213 M 617.652311993237,305.410031879869 713.658508177847,337.733635414718 M 615.91605356607,310.160576414864 710.21466832812,347.3925875538 M 613.938479424264,314.815851189211 706.268498243168,356.865879473315 M 611.724624705862,319.363527215135 701.830640962662,366.126700479912 M 609.280178069638,323.791543477493 696.913205839962,375.148953495965 M 606.611465369265,328.088142769752 691.52970967233,383.907333946678 M 603.725431371201,332.241906315471 685.695013329235,392.377402382557 M 600.629619618623,336.241787084341 679.425254872398,400.535650592352 M 597.332150547261,340.077141720166 672.737780189576,408.359561187865 M 593.841697961885,343.737761006212 665.65107212448,415.82766086325 M 590.167463984395,347.213898801292 658.184678983171,422.919567728193 M 586.31915258599,350.496299387651 650.359143143046,429.616033269823 M 582.306941816737,353.576223179265 642.195930298839,435.898979599174 M 578.141454846029,356.445470746521 633.717359668655,441.751532676172 M 573.833729926925,359.096405120398 624.946535271272,447.158052179263 M 569.395189396158,361.521972346263 615.907278193572,452.104158594422 M 564.837607819745,363.715720264185 606.624059612317,456.576757951434 M 560.173079391591,365.671815499276 597.121934233524,460.564064445914 M 555.413984689251,367.385058652014 587.426473777299,464.055620970992 M 550.572956887127,368.850897684706 577.563700173092,467.042317363463 M 545.662847522787,370.065439506348 567.560018241212,469.516405968024 M 540.696691906841,371.025459763976 557.442147815823,471.471513963035 M 535.687674260894,371.728410854298 547.237055501125,472.902651793913 M 530.649092661467,372.172428174907 536.971886527974,473.806217044842 M 525.594323860477,372.356334639663 526.67389746957,474.179993160638 M 520.536788044956,372.279643488001 516.37039085383,474.023142617095 M 515.489913589962,371.942559422823 506.088652945376,473.33619443142 M 510.467101849396,371.345978116425 495.855896128788,472.121026297945 M 505.481692019376,370.491484128466 485.699207374189,470.380842112606 " />
</svg>